<svg width="310" height="248" viewBox="0 0 310 248" fill="none" xmlns="http://www.w3.org/2000/svg">
<g opacity="0.15">
<path d="M130.9 247.43C160.723 247.43 184.9 243.942 184.9 239.64C184.9 235.338 160.723 231.85 130.9 231.85C101.077 231.85 76.8999 235.338 76.8999 239.64C76.8999 243.942 101.077 247.43 130.9 247.43Z" fill="#D4487A"/>
</g>
<g opacity="0.15">
<path d="M35.8698 247.43C54.2719 247.43 69.1897 243.315 69.1897 238.24C69.1897 233.164 54.2719 229.05 35.8698 229.05C17.4676 229.05 2.5498 233.164 2.5498 238.24C2.5498 243.315 17.4676 247.43 35.8698 247.43Z" fill="#D4487A"/>
</g>
<path d="M129.97 160.28C174.423 160.28 210.46 130.301 210.46 93.3199C210.46 56.339 174.423 26.36 129.97 26.36C85.5166 26.36 49.48 56.339 49.48 93.3199C49.48 130.301 85.5166 160.28 129.97 160.28Z" fill="#F280A4"/>
<path d="M73.5897 61.66C86.9108 61.66 97.7097 50.8611 97.7097 37.54C97.7097 24.2189 86.9108 13.42 73.5897 13.42C60.2686 13.42 49.4697 24.2189 49.4697 37.54C49.4697 50.8611 60.2686 61.66 73.5897 61.66Z" fill="#F280A4"/>
<path d="M188.49 61.66C201.811 61.66 212.61 50.8611 212.61 37.54C212.61 24.2189 201.811 13.42 188.49 13.42C175.169 13.42 164.37 24.2189 164.37 37.54C164.37 50.8611 175.169 61.66 188.49 61.66Z" fill="#F280A4"/>
<path d="M127.355 80.7821C129.785 77.0391 129.528 72.5593 126.781 70.7761C124.034 68.9928 119.837 70.5814 117.407 74.3244C114.978 78.0674 115.235 82.5473 117.982 84.3306C120.729 86.1138 124.925 84.525 127.355 80.7821Z" fill="#462D20"/>
<path d="M166.648 84.5079C169.395 82.7246 169.652 78.2448 167.222 74.5019C164.792 70.7589 160.596 69.1703 157.849 70.9535C155.102 72.7367 154.845 77.2166 157.274 80.9596C159.704 84.7025 163.901 86.2911 166.648 84.5079Z" fill="#462D20"/>
<path d="M132.84 85.67C132.84 85.67 141.82 81.54 152.96 85.67C152.96 92.72 140.03 106.33 132.84 85.67Z" fill="#462D20"/>
<path d="M165.71 110.16C162.03 119.45 144.2 119.73 142.94 119.73C141.25 119.73 124.09 119.83 120.17 110.16C119.98 109.69 118.18 105.07 120.44 101.81C123.13 97.9301 129.13 100.57 142.94 100.6C156.64 100.63 162.48 98.13 165.31 101.95C167.64 105.11 165.86 109.8 165.71 110.17V110.16Z" fill="#971F5F"/>
<path d="M125.48 115.94C125.48 115.94 141.84 100.14 158.44 116.77C155.14 117.96 149.18 119.59 142.51 119.73C135.84 119.86 128.38 118.15 125.48 115.94Z" fill="#D54F98"/>
<path d="M104.08 100.16C109.564 100.16 114.01 95.7142 114.01 90.23C114.01 84.7458 109.564 80.3 104.08 80.3C98.5956 80.3 94.1499 84.7458 94.1499 90.23C94.1499 95.7142 98.5956 100.16 104.08 100.16Z" fill="#EE3C92"/>
<path d="M182.49 103.25C187.974 103.25 192.42 98.8041 192.42 93.3199C192.42 87.8358 187.974 83.39 182.49 83.39C177.006 83.39 172.56 87.8358 172.56 93.3199C172.56 98.8041 177.006 103.25 182.49 103.25Z" fill="#EE3C92"/>
<path d="M34.2398 139.74C33.6398 144.49 36.2399 148.13 36.6699 148.71C37.8699 150.34 39.7098 152.01 44.5198 154.1C48.7998 155.96 53.9598 157.51 62.4798 158.52C67.0498 159.06 73.3198 159.54 80.8298 159.28C81.6798 159.42 86.2498 160.06 90.4598 157.26C93.1198 155.49 95.0299 152.76 95.5499 149.49C96.5899 142.95 91.6798 136.74 84.5898 135.61C80.3298 136.64 74.2098 137.53 67.2498 136.24C55.0398 133.98 50.5198 126.94 43.3398 128.93C38.5498 130.26 34.8498 134.97 34.2498 139.75L34.2398 139.74Z" fill="#F280A4"/>
<path d="M200.59 185.28C204.01 182.55 204.75 178.68 204.86 178.06C205.17 176.31 205.12 174.16 203.5 170.02C202.06 166.33 199.89 162.34 195.31 156.75C192.85 153.75 189.3 149.81 184.52 145.62C184.08 145.04 181.69 141.98 177.3 141.35C174.52 140.95 171.6 141.62 169.18 143.43C164.34 147.06 163.36 153.93 166.99 158.77C170.27 160.57 174.6 163.54 178.05 168.42C184.1 176.97 182.35 184.15 188.05 187.02C191.84 188.93 197.15 188.03 200.59 185.28Z" fill="#F280A4"/>
<path d="M176.98 186.69V163.32C176.98 147.25 163.95 134.22 147.88 134.22H114.2C98.1299 134.22 85.1 147.25 85.1 163.32V221.05C85.07 222.77 85.05 224.49 85.02 226.21C84.97 227.54 84.92 232.61 88.52 235.91C89.75 237.04 91.65 238.18 96.06 238.69C100.07 239.16 113.04 240.67 117.71 233.75C120.37 229.8 117.68 227.04 120.67 215.79H141.48C144.15 226.38 141.65 229.13 144.25 232.98C148.91 239.9 161.88 238.39 165.9 237.92C170.32 237.41 172.21 236.26 173.44 235.14C177.04 231.84 176.99 226.77 176.94 225.44C176.91 223.72 176.89 222 176.86 220.28V188.5C176.9 187.9 176.95 187.3 176.95 186.69H176.98Z" fill="#F280A4"/>
<path d="M138.05 195.06C148.438 195.06 156.86 186.37 156.86 175.65C156.86 164.93 148.438 156.24 138.05 156.24C127.661 156.24 119.24 164.93 119.24 175.65C119.24 186.37 127.661 195.06 138.05 195.06Z" fill="#EDC2DB"/>
<path d="M259.253 89.0752L149.219 215.032C148.322 216.059 148.427 217.62 149.454 218.517L156.601 224.761C157.629 225.658 159.189 225.553 160.087 224.525L270.121 98.5686C271.018 97.5413 270.913 95.981 269.885 95.0835L262.738 88.84C261.711 87.9425 260.151 88.0478 259.253 89.0752Z" fill="#3A2318"/>
<path d="M258.992 88.6383L148.747 214.836C147.908 215.797 148.006 217.256 148.967 218.095L155.632 223.918C156.593 224.757 158.052 224.659 158.892 223.698L269.136 97.5002C269.975 96.5394 269.877 95.0801 268.916 94.2408L262.251 88.4184C261.291 87.5791 259.831 87.6775 258.992 88.6383Z" fill="#462D20"/>
<path d="M263.34 85.3199C261.75 81.8999 256.6 69.76 261.93 59.37C264.72 53.93 269.82 50.08 273.37 47.4C273.37 47.4 275.41 45.86 286.49 39.17L284.02 45C284.02 45 290.66 38.8 295.97 37.29L301.28 35.79C301.28 35.79 299.76 48.1 296.35 50.92C300.62 50.54 302.8 49.79 302.8 49.79L300.71 53.92L308.2 49.3199C308.91 53.2699 309.68 60.62 307.12 69.15C306.08 72.6 304.18 78.69 298.81 84.22C291.78 91.47 281.11 94.69 272.21 93.34C267.61 92.64 264.06 90.4 263.37 87.38C263.24 86.83 263.19 86.1399 263.32 85.3199H263.34Z" fill="#EAAEC2"/>
<path d="M275.21 59.52C276.67 60.23 279.03 61.4199 281.06 63.9399C282.16 65.2999 283.02 66.87 283.62 68.65C285.18 73.31 284.21 78.2 289.74 79.91C293.03 80.93 297.43 81.04 301.72 80.75C304.31 77.38 305.79 74.23 306.64 72.01C306.64 72.01 309.15 65.53 309.03 58.23C308.99 55.62 308.72 53.25 308.72 53.25C308.55 51.73 308.2 49.3101 308.2 49.3101L300.71 53.91L302.8 49.78C302.8 49.78 300.62 50.53 296.35 50.91C299.76 48.09 301.28 35.78 301.28 35.78C299.95 36.07 298.11 36.54 295.97 37.28C293.58 38.11 291.99 38.66 290.16 39.78C286.72 41.88 284.02 44.99 284.02 44.99L286.49 39.16C282.73 41.2 279.65 43.08 277.37 44.55C270.72 48.81 268.44 51.03 267.71 51.76C265.55 53.92 264.03 55.97 263.05 57.42C265.64 57.19 270.36 57.16 275.2 59.52H275.21Z" fill="#DF6F44"/>
<path d="M303.55 74.76L299.42 104.58C299.42 104.58 299.78 109.8 303.55 109.7C307.32 109.6 308.76 106.55 303.55 74.76Z" fill="#DF6F44"/>
<path d="M256.09 92.04C259.75 95.39 263.42 98.75 267.08 102.11C269.41 99.31 271.75 96.51 274.08 93.71C270.4 90.63 266.72 87.55 263.04 84.47L256.09 92.05V92.04Z" fill="#EAAEC2"/>
<path d="M204.82 175.09C204.82 175.09 197 169.3 191.98 173.73C186.96 178.16 185.42 183.45 190.02 187.41C194.62 191.37 204.81 175.1 204.81 175.1L204.82 175.09Z" fill="#F280A4"/>
<g opacity="0.31">
<path d="M300.3 78.88C301.99 76.79 303.3 74.39 304.37 71.93C304.52 71.58 304.47 71.17 304.12 70.97C303.82 70.8 303.31 70.87 303.16 71.22C302.6 72.51 301.98 73.76 301.27 74.98C300.91 75.6 300.52 76.21 300.12 76.81C299.96 77.04 299.8 77.27 299.63 77.49C299.6 77.53 299.57 77.57 299.54 77.6C299.41 77.78 299.58 77.55 299.51 77.64C299.45 77.72 299.38 77.8 299.31 77.89C299.07 78.19 299.02 78.6 299.31 78.89C299.56 79.14 300.07 79.19 300.31 78.89L300.3 78.88Z" fill="white"/>
</g>
<g opacity="0.31">
<path d="M305.3 69.22C306.007 69.22 306.58 68.6469 306.58 67.9399C306.58 67.233 306.007 66.66 305.3 66.66C304.593 66.66 304.02 67.233 304.02 67.9399C304.02 68.6469 304.593 69.22 305.3 69.22Z" fill="white"/>
</g>
<path d="M36.6099 181.7C55.9177 181.7 71.5698 179.054 71.5698 175.79C71.5698 172.526 55.9177 169.88 36.6099 169.88C17.302 169.88 1.6499 172.526 1.6499 175.79C1.6499 179.054 17.302 181.7 36.6099 181.7Z" fill="#E69BBD"/>
<path d="M36.6798 185.16C55.1151 185.16 70.0598 182.514 70.0598 179.25C70.0598 175.986 55.1151 173.34 36.6798 173.34C18.2445 173.34 3.2998 175.986 3.2998 179.25C3.2998 182.514 18.2445 185.16 36.6798 185.16Z" fill="#DF6F44"/>
<path d="M1.56006 175.79L12.36 227.68H60.5699C64.2599 210.38 67.96 193.09 71.65 175.79C64.34 178.37 54.13 181.08 41.73 181.69C24.28 182.54 10.2201 178.84 1.56006 175.79Z" fill="#EAAEC2"/>
<path d="M18.8098 180.28C19.9898 188.56 19.0698 193.22 17.9098 195.99C17.4898 196.98 15.9697 200.29 17.3597 202.09C17.7497 202.59 18.2597 202.85 18.6397 202.99C19.2697 202.88 20.1597 202.63 20.8897 201.95C24.1697 198.91 20.1597 191.23 22.8997 189.45C23.6297 188.97 24.5897 189.09 25.1497 189.35C25.9497 189.71 26.8998 190.78 27.1598 195.83C27.3198 198.99 27.0297 200.27 26.7797 205.11C26.4797 210.82 26.6797 212.84 27.8497 213.42C27.8997 213.44 28.5597 213.76 29.1997 213.49C31.0997 212.68 30.5398 207.62 29.6798 194.17C29.3798 189.45 29.1097 184.73 30.0997 184.51C30.3997 184.44 30.7497 184.81 30.8997 184.96C31.7897 185.89 31.5698 187.41 31.4198 188.7C31.4598 190.6 31.3297 192.12 31.1897 193.19C30.8797 195.64 30.3297 197.44 31.3497 198.57C31.5697 198.82 31.8097 198.97 31.9697 199.05C31.9697 199.05 32.3297 199.13 32.7697 198.84C34.1197 197.94 33.5498 194.04 33.4298 193.2C33.0698 190.59 32.8298 186.8 33.4298 181.56L18.8197 180.29L18.8098 180.28Z" fill="#DF6F44"/>
<path d="M7.5998 176.91C5.2798 170.17 5.07987 162.54 8.04987 155.95C11.0199 149.36 16.7199 144.32 23.4099 141.69C30.0999 139.06 37.3698 138.52 44.3898 140.59C51.6498 142.73 58.1499 147.51 62.1699 153.94C64.7699 158.1 66.3098 162.86 66.6198 167.76C66.8398 171.33 66.5798 174.36 65.8198 177.6C65.0598 180.84 69.9098 182.07 70.6398 178.93C72.5698 170.62 71.8098 161.8 67.9998 154.12C64.0798 146.22 57.0898 140.21 48.9798 136.91C33.5498 130.62 13.7198 136.2 5.07978 150.82C0.219776 159.05 -0.31016 169.29 2.76984 178.24C3.20984 179.52 4.4798 180.36 5.8498 179.99C7.0898 179.65 8.0398 178.2 7.5998 176.91Z" fill="#EAAEC2"/>
<path d="M44.7497 128.57C45.6597 128.69 49.0897 129.25 51.6297 132.24C54.6397 135.79 54.0997 140.03 53.9697 141.04C53.4497 145.08 50.7297 149.79 45.9797 151.1C45.1897 151.32 42.2297 152.13 39.5997 150.65C33.8997 147.44 33.0697 135.28 38.7197 130.64C40.6197 129.08 42.9297 128.64 44.7597 128.57H44.7497Z" fill="#F280A4"/>
<path d="M164.82 32.9399C165.53 30.0999 170.1 10.8899 161.55 5.0699C159.58 3.7299 157.24 3.1599 154.66 3.4399C137.05 5.3799 103.35 7.53991 96.8499 32.3299C108.02 30.5599 121.57 29.3499 136.93 29.9399C147.25 30.3399 156.61 31.4799 164.82 32.9399Z" fill="#EBB4D2"/>
<path d="M129.58 8.15002C131.573 8.15002 133.19 6.53379 133.19 4.54004C133.19 2.54629 131.573 0.930054 129.58 0.930054C127.586 0.930054 125.97 2.54629 125.97 4.54004C125.97 6.53379 127.586 8.15002 129.58 8.15002Z" fill="#EBB4D2"/>
</svg>
