<svg width="658" height="664" viewBox="0 0 658 664" fill="none" xmlns="http://www.w3.org/2000/svg">
<path d="M313.43 353.15C312.68 353.33 311.82 353.66 310.91 354.25C295.31 361.04 279.71 367.83 264.11 374.62C262.97 375.09 261.31 375.87 259.49 377.1C257.63 378.35 255.17 380.34 250.7 386.51C246.79 391.9 246.66 393.15 242.79 397.94C240.15 401.21 238.77 402.42 237.22 403.39C235.42 404.51 233.62 405.16 232.03 405.55C232.46 406.63 232.88 407.7 233.31 408.78C234.82 408.5 236.98 407.93 239.27 406.62C242.11 405 243.84 402.99 245.87 400.42C249.79 395.44 250.02 394.45 253.42 389.9C258.85 382.64 262.01 380.19 264.83 378.59C266.09 377.88 267.18 377.39 267.92 377.08C285.36 369.47 302.8 361.87 320.25 354.26C318.25 353.22 315.87 352.56 313.43 353.16V353.15Z" fill="#42454A"/>
<path d="M327.21 346.12C323.02 345.16 320.27 344.54 316.35 345.17C314.18 345.52 312.58 346.11 311.86 346.39C306.5 348.45 284.43 358.41 254.68 372.21C248.55 376.17 245.08 380.38 243.01 383.63C240.84 387.06 239.49 390.57 235.46 394.15C233.12 396.22 230.8 397.5 229.15 398.27C230.11 400.69 231.07 403.11 232.02 405.54C233.61 405.16 235.41 404.5 237.21 403.38C238.76 402.41 240.14 401.2 242.78 397.93C246.64 393.14 246.78 391.89 250.69 386.5C255.17 380.33 257.62 378.33 259.48 377.09C261.3 375.87 262.96 375.09 264.1 374.61C279.7 367.82 295.3 361.03 310.9 354.24C311.81 353.65 312.67 353.33 313.42 353.14C315.86 352.54 318.24 353.2 320.24 354.24C323.6 352.77 326.97 351.31 330.33 349.84C330.75 349.36 331.19 348.69 331.04 348.04C330.84 347.17 329.69 346.69 327.19 346.12H327.21ZM323.51 350.79L320.98 351.9C320.65 352.04 320.28 352.06 319.94 351.94L314.44 349.98C313.24 349.55 313.18 347.87 314.35 347.36L315.5 346.85C315.76 346.73 316.06 346.7 316.34 346.76L323.22 348.12C324.57 348.39 324.78 350.24 323.51 350.8V350.79Z" fill="#50535A"/>
<path d="M216.01 408.47C215.43 408.07 213.65 406.74 212.4 403.42C211.18 404.24 210.69 405.83 211.3 407.23L214.61 414.79C215.3 416.36 217.12 417.07 218.69 416.38L233.18 410.03C234.75 409.34 235.46 407.52 234.77 405.95L234.7 405.8C227.22 410.46 220.12 411.28 216.01 408.47Z" fill="#A9ADB8"/>
<path d="M216.01 408.47C220.12 411.28 227.23 410.46 234.7 405.8L231.45 398.39C230.76 396.82 228.94 396.11 227.37 396.8L212.88 403.15C212.71 403.23 212.54 403.32 212.39 403.42C213.64 406.74 215.42 408.07 216 408.47H216.01Z" fill="#C0C3CE"/>
<path d="M149.52 465.37C140.32 468.77 127.64 473.03 112.92 469.25C102.28 466.52 94.2001 460.52 88.5101 454.83C86.0601 455.91 83.6101 457 81.1501 458.08C82.2601 460.93 84.3202 465.24 88.0602 469.57C89.6902 471.46 98.2901 481.03 111.59 482.66C119.3 483.6 125.44 481.5 128.41 480.44C136.66 477.5 149.13 472.41 164.85 465.51C180.58 458.62 192.77 452.89 200.52 448.82C203.31 447.35 209.02 444.27 213.55 437.96C214.22 437.03 214.81 436.09 215.36 435.14C196.01 445.46 172.69 456.81 149.52 465.37Z" fill="#516071"/>
<path d="M112.92 469.25C127.64 473.03 140.32 468.77 149.52 465.37C172.69 456.81 196.01 445.46 215.36 435.14C221.16 424.96 220.13 414.05 219.87 411.79C219.22 406.11 217.44 401.68 216.1 398.93C193.86 408.59 171.62 418.25 149.38 427.91C149.09 428.03 148.81 428.16 148.52 428.28C148.23 428.4 147.95 428.53 147.66 428.65C127.94 437.38 108.22 446.11 88.4902 454.83C94.1802 460.52 102.26 466.52 112.9 469.25H112.92Z" fill="#617287"/>
<g opacity="0.44">
<path d="M206.05 431.98C211.22 433.25 217.54 416.09 214.73 410.2C213.69 408.02 211.23 407.04 209.77 408.05C208.14 409.17 208.77 412.04 207.3 416.54C205.23 422.88 201.94 423.43 202.32 426.85C202.58 429.17 204.38 431.56 206.05 431.97V431.98Z" fill="white"/>
</g>
<path d="M149.874 431.694C187.153 415.352 216.763 400.711 216.009 398.991C215.255 397.272 184.423 409.125 147.144 425.466C109.865 441.807 80.2556 456.448 81.0095 458.168C81.7633 459.888 112.595 448.035 149.874 431.694Z" fill="#42515F"/>
<path d="M102.72 537.48C120.056 537.48 134.11 523.426 134.11 506.09C134.11 488.754 120.056 474.7 102.72 474.7C85.3839 474.7 71.3301 488.754 71.3301 506.09C71.3301 523.426 85.3839 537.48 102.72 537.48Z" fill="#F99E1C"/>
<path d="M83.1301 499.17C84.4943 499.17 85.6001 498.064 85.6001 496.7C85.6001 495.336 84.4943 494.23 83.1301 494.23C81.766 494.23 80.6602 495.336 80.6602 496.7C80.6602 498.064 81.766 499.17 83.1301 499.17Z" fill="#FDBE69"/>
<path d="M91.6899 504.57C93.0541 504.57 94.16 503.464 94.16 502.1C94.16 500.736 93.0541 499.63 91.6899 499.63C90.3258 499.63 89.22 500.736 89.22 502.1C89.22 503.464 90.3258 504.57 91.6899 504.57Z" fill="#FDBE69"/>
<path d="M81.1801 509.22C82.5442 509.22 83.65 508.114 83.65 506.75C83.65 505.386 82.5442 504.28 81.1801 504.28C79.8159 504.28 78.71 505.386 78.71 506.75C78.71 508.114 79.8159 509.22 81.1801 509.22Z" fill="#FDBE69"/>
<path d="M97.8202 481.86C97.8202 481.86 88.3102 473.94 88.2502 467.3C88.1902 460.65 100.9 449.79 105.27 449.33C105.27 449.33 107.82 469.04 101.13 472.51C94.4302 475.98 97.8302 481.86 97.8302 481.86H97.8202Z" fill="#91B450"/>
<path d="M95.4902 476.67C95.4902 476.67 91.0502 470.75 95.7002 465.02C100.36 459.29 103.13 451.19 103.13 451.19C103.13 451.19 98.5302 463.26 96.7502 466.52C94.9702 469.78 94.9302 473.09 95.4902 476.67Z" fill="#7B953B"/>
<path d="M174.93 42.5299L174.97 42.4799C174.97 42.4799 174.84 42.3999 174.63 42.2899C173.33 41.2799 171.95 40.4299 170.49 39.7599C167.49 37.8399 163.82 35.28 162.23 33.33C159.73 30.25 157.75 26.14 157.26 25.07C156.73 23.13 155.89 21.2399 154.63 19.5099C149.08 11.8799 138.39 10.1999 130.76 15.7499C123.13 21.2999 121.45 31.99 127 39.62C128.01 41.01 129.2 42.1798 130.51 43.1598V43.1798C130.51 43.1798 135.26 47.0698 137.76 50.9098C139.22 53.1598 140.56 57.7298 141.41 61.1398C141.58 62.4998 141.89 63.8398 142.34 65.1698C142.37 65.3098 142.39 65.3998 142.39 65.3998H142.43C143.08 67.2598 143.97 69.0799 145.2 70.7699C151.93 80.0199 164.89 82.06 174.14 75.33C183.39 68.6 185.43 55.6398 178.7 46.3898C177.61 44.8898 176.32 43.6399 174.94 42.5299H174.93Z" fill="#D2915C"/>
<path d="M128.61 17.6202C128.61 17.6202 123.96 15.3801 123.6 12.0301C123.24 8.68007 125.91 6.04001 127.46 7.97001C129.01 9.90001 128.97 12.71 132.02 14.24C135.08 15.77 130.82 21.0901 128.68 20.0101C126.54 18.9301 128.82 19.4802 128.61 17.6202Z" fill="#D2915C"/>
<path d="M127.44 26.14C127.44 26.14 126.57 30.2902 134.46 38.0802C142.35 45.8602 146.17 50.68 148.67 60.91C151.17 71.13 164.41 77.4402 166.76 76.0902C169.12 74.7502 160.37 72.7502 155.93 68.8602C151.5 64.9702 151.37 56.1602 146.53 48.5702C141.69 40.9702 134.95 37.3602 131.38 30.8702C127.82 24.3802 129.42 24.0501 128.5 23.8001C127.57 23.5501 127.43 26.15 127.43 26.15L127.44 26.14Z" fill="#EFAB78"/>
<path d="M141 16.2701C141 16.2701 145.22 16.7202 150.2 26.6202C155.18 36.5202 158.6 41.63 167.56 47.16C176.52 52.68 178.45 67.2101 176.45 69.0401C174.45 70.8701 175.23 61.9301 172.89 56.5201C170.55 51.1001 162.21 48.2802 156.47 41.3402C150.73 34.4002 149.36 26.8701 144.29 21.4901C139.21 16.1001 138.4 17.5302 138.44 16.5702C138.48 15.6102 141.01 16.2801 141.01 16.2801L141 16.2701Z" fill="#EFAB78"/>
<path d="M127.54 37.7399C127.54 37.7399 133.83 40.39 143.55 33.32C153.27 26.24 154.89 20.0599 152.62 19.4899C150.35 18.9199 151.57 26.8299 143.44 31.4499C135.31 36.0699 128.89 35.6499 127.75 35.7399C126.61 35.8299 126.15 37.3999 127.54 37.7399Z" fill="#EFAB78"/>
<path d="M149.37 71.0602C149.37 71.0602 156.07 73.4102 167.2 65.3102C178.33 57.2102 180.53 50.6 178.09 50.16C175.64 49.72 176.43 57.9402 167.21 63.3602C157.99 68.7702 150.99 68.7801 149.73 68.9501C148.47 69.1201 147.86 70.8002 149.36 71.0702L149.37 71.0602Z" fill="#EFAB78"/>
<path d="M140.95 52.13C140.95 52.13 146.94 55 155.66 48.65C164.38 42.3 165.58 36.4201 163.44 35.7601C161.3 35.1001 162.82 42.7902 155.47 46.8502C148.12 50.9102 142.11 50.1901 141.05 50.2201C139.99 50.2501 139.64 51.74 140.95 52.14V52.13Z" fill="#EFAB78"/>
<path d="M171 22.52C171 22.52 172.46 17.78 168.34 11.45C164.22 5.11996 173.16 -3.82996 179.56 3.28004C185.96 10.39 188.91 20.5099 180.2 25.3899C171.48 30.2599 171 22.52 171 22.52Z" fill="#D2915C"/>
<path d="M200.41 21.4599C200.41 21.4599 205.3 20.6598 209.14 14.1598C212.98 7.65984 224.97 11.68 221.45 20.58C217.93 29.48 210.17 36.6199 201.93 30.9799C193.69 25.3399 200.41 21.4599 200.41 21.4599Z" fill="#D2915C"/>
<path d="M198.15 54.51C198.15 54.51 202.96 53.3 206.24 46.51C209.52 39.71 221.81 42.7199 219.04 51.8799C216.27 61.0399 209.14 68.8001 200.46 63.8701C191.78 58.9301 198.15 54.51 198.15 54.51Z" fill="#D2915C"/>
<path d="M176.96 223C173.18 224.25 169.24 222.62 168.17 219.36L160.4 195.81L162.55 195.1L162.11 193.77C161.04 190.51 157.1 188.89 153.32 190.13L144 193.2C140.22 194.45 138.02 198.1 139.1 201.35L139.54 202.68L142.48 201.71L150.25 225.26C151.32 228.52 149.13 232.17 145.35 233.41C141.57 234.66 139.37 238.31 140.45 241.56L164.05 313.11C165.12 316.37 169.06 317.99 172.84 316.75L204.45 306.32C208.23 305.07 210.43 301.42 209.35 298.17L185.75 226.62C184.68 223.36 180.74 221.74 176.96 222.98V223Z" fill="#8BCFB7"/>
<path d="M181.15 231.235L146.533 242.65L169.407 312.016L204.024 300.601L181.15 231.235Z" fill="#FCD64A"/>
<path d="M73.6301 149.98C73.6301 149.98 65.5101 147.85 59.2401 154.04C52.9701 160.22 52.5801 162.57 46.4801 159.85C40.3901 157.12 43.3301 152.91 45.0401 147.63C46.7501 142.35 40.3101 130.05 39.9101 128.17C39.5101 126.29 47.1701 124.58 49.3101 128.13C51.4501 131.68 49.8801 142.66 52.8501 140.67C55.8201 138.68 56.3201 128.12 59.4701 126.6C62.6201 125.08 69.3701 126.16 67.1301 132.05C64.8901 137.95 58.3401 142.32 59.3101 143.53C61.6701 146.48 69.5001 138.54 72.6501 137.21C75.8001 135.87 76.9801 147.21 73.6201 149.99L73.6301 149.98Z" fill="#00B188"/>
<path d="M67.16 114.3C71.31 110.47 77.34 110.03 81.98 112.74C87.02 109.37 93.89 110.03 98.14 114.63C100.1 116.75 101.13 119.37 101.37 122.04C102.87 122.71 104.25 123.69 105.44 124.97C109.28 129.13 109.71 135.16 106.99 139.8C108.41 144.29 107.26 149.39 103.57 152.8C99.5499 156.51 93.78 157.04 89.21 154.62C84.44 156.73 78.6799 155.75 74.9399 151.7C73.5199 150.17 72.62 148.36 72.11 146.48C70.27 145.82 68.55 144.77 67.13 143.24C63.67 139.49 62.95 134.2 64.84 129.79C61.95 124.82 62.77 118.34 67.17 114.28L67.16 114.3Z" fill="#008771"/>
<path d="M20.16 109.76C20.56 104.12 24.65 99.67 29.88 98.47C31.24 92.56 36.6999 88.34 42.9399 88.78C45.8199 88.98 48.37 90.18 50.37 91.97C51.92 91.44 53.6 91.1901 55.34 91.3201C60.99 91.7201 65.44 95.81 66.63 101.06C70.74 103.36 73.4001 107.86 73.0501 112.87C72.6701 118.32 68.83 122.67 63.84 124.04C61.81 128.84 56.94 132.08 51.45 131.69C49.37 131.54 47.4701 130.85 45.8101 129.83C44.0201 130.61 42.05 131.03 39.97 130.88C34.88 130.52 30.73 127.16 29.09 122.66C23.58 121.02 19.74 115.75 20.16 109.77V109.76Z" fill="#008771"/>
<path d="M47.4699 104.47C50.2599 99.5501 55.8699 97.3101 61.1099 98.4801C64.8899 93.7401 71.6299 92.2802 77.0799 95.3702C79.5899 96.8002 81.37 98.98 82.41 101.45C84.04 101.64 85.66 102.14 87.17 103C92.09 105.79 94.34 111.41 93.16 116.66C95.88 120.51 96.3399 125.71 93.8599 130.08C91.1599 134.83 85.8299 137.1 80.7399 136.18C76.8399 139.64 71.05 140.46 66.26 137.74C64.45 136.71 63.0399 135.27 61.9799 133.63C60.0299 133.56 58.07 133.09 56.25 132.06C51.81 129.54 49.5199 124.72 49.9799 119.95C45.7199 116.09 44.5199 109.68 47.4799 104.47H47.4699Z" fill="#00957E"/>
<path d="M271.05 130.67C270.04 131.68 261.65 111.4 257.24 109.45C252.83 107.5 249.29 113.61 246.38 112.29C243.47 110.97 248.69 110.42 245.66 108.77C242.63 107.12 243.53 114.88 240.57 111.75C237.62 108.62 238.95 106.34 241.55 106.15C244.15 105.96 248.91 105.72 247.7 104.93C246.49 104.14 239.34 104.9 238.38 103.28C237.42 101.65 241.28 101.36 239.67 99.9801C238.06 98.6001 234.06 100.13 234.94 98.8502C235.82 97.5702 236.57 97.4601 234.89 95.9901C233.21 94.5201 231.26 93.77 233.57 93.66C235.89 93.55 238.68 95.26 238.29 94.16C237.9 93.06 239.36 92.1601 240.46 93.9601C241.56 95.7601 240.52 94.1201 241.8 93.5201C243.08 92.9101 245.8 96.7202 246.26 96.8502C246.72 96.9802 245.94 93.2201 248.07 95.2401C250.2 97.2601 251.05 101.46 252.56 101.93C254.07 102.4 253.64 100.13 251.7 98.38C249.76 96.63 247.5 94.7002 248.35 94.0902C249.2 93.4802 247.03 93.95 244.68 92.88C242.33 91.81 240.61 89.2401 242.56 88.9401C244.51 88.6401 242.09 88.1902 240.19 85.8402C238.29 83.4902 240.37 82.7901 242.44 82.9601C244.51 83.1301 240.09 81.6802 240.09 78.3602C240.09 75.0402 241.4 79.2801 242.34 79.2201C243.28 79.1601 241.91 76.6701 243.61 77.2001C245.31 77.7301 245.87 79.8201 246.14 81.0301C246.4 82.2301 247.57 82.7101 248.76 81.7401C249.96 80.7701 251.98 80.9101 251.34 83.2601C250.7 85.6201 250.21 87.6401 251.88 86.9901C253.55 86.3501 253.98 86.3502 253.67 88.5902C253.36 90.8202 252.58 94.0702 253.71 94.0702C254.84 94.0702 255.09 90.9701 255.81 95.9701C256.53 100.97 257.28 101.64 257.94 99.8302C258.6 98.0202 256.39 94.5101 255.61 91.9601C254.82 89.4101 255.55 87.7702 257.4 89.8002C259.26 91.8302 258.57 90.2001 258.27 87.4701C257.97 84.7401 259.35 84.2602 259.73 85.8702C260.11 87.4702 259.95 80.81 261.96 80.67C263.97 80.53 262.44 82.4001 263.78 84.5001C265.12 86.6001 265.8 83.8501 266.49 86.1901C267.18 88.5301 264.05 88.4201 264.86 90.9901C265.67 93.5701 267.35 87.6801 268.52 90.9701C269.7 94.2601 266.18 93.8502 265.49 95.6102C264.79 97.3702 268.78 94.0802 268.76 96.8602C268.74 99.6302 259.72 99.1501 259.83 102.52C259.94 105.89 259.93 105.71 262.34 111.53C264.75 117.35 274.09 127.61 271.03 130.65L271.05 130.67Z" fill="#007A64"/>
<path d="M269.19 127.37C269.19 127.37 269.73 124.54 271.03 120.37C272.33 116.21 266.22 112.67 266.7 109.59C267.18 106.51 269.17 111.69 269.63 109.2C270.09 106.71 267.34 105.4 268.97 103.23C270.61 101.06 270.49 105.46 271.5 103.3C272.51 101.14 271.95 99.0499 273.5 100.7C275.05 102.35 273.6 103.8 274.45 104.67C275.3 105.54 277.79 101.9 275.85 105.44C273.91 108.99 273.28 107.94 273.6 109.74C273.92 111.53 274.46 107.49 275.23 108.35C276 109.21 272.78 112.66 274.52 112.81C276.26 112.96 278.94 107.96 277.8 104.36C276.66 100.76 276.87 94.64 278.66 97.73C280.44 100.81 280.98 99.9001 281.86 96.3501C282.74 92.8001 284.21 94.44 284.55 95.22C284.9 96 285.46 91.0899 286.94 92.9299C288.43 94.7699 287.92 98.08 286.39 98.81C284.87 99.55 286.49 99.0201 287.72 100.11C288.95 101.19 286.87 104.22 285.22 103.93C283.57 103.64 280.44 106.59 283.83 106.32C287.22 106.05 289.31 106.63 286.27 108.03C283.23 109.43 284.05 109.83 284.94 110.23C285.84 110.64 285.05 112.9 283.16 112.23C281.28 111.56 279.14 111.8 277.77 113.61C276.41 115.42 276.18 117.94 278.62 116.67C281.06 115.4 287.81 111.86 287.86 113.58C287.91 115.31 284.74 115.75 285.79 116.18C286.84 116.6 290.91 113.6 290.14 115.7C289.37 117.81 288.27 116.44 289.68 117.7C291.09 118.97 295.47 118.96 292.29 119.76C289.12 120.56 288.32 118.44 287.09 119.37C285.86 120.3 289.45 123.26 287.07 122.14C284.69 121.03 284.72 119.94 283.57 120.87C282.42 121.8 282.38 123.71 281 121.8C279.62 119.89 280.64 119.06 277.88 119.39C275.12 119.71 271.92 123.36 271.97 127.13C272.02 130.91 270.25 131.21 269.15 127.36L269.19 127.37Z" fill="#007A64"/>
<path d="M267.61 125.32C267.61 125.32 270.47 132.12 275.33 138.66C280.19 145.2 285.83 143.6 285.48 141.77C285.13 139.93 274.8 139.71 269.93 124.18L267.61 125.33V125.32Z" fill="#007A64"/>
<path d="M218.64 343.87C211.51 333.44 224.05 325.42 224.05 325.42C224.05 325.42 233.12 313.62 242.89 321.62C249.01 326.62 250.28 337.97 250.38 345.76C250.44 350.51 246.75 353.89 242.03 353.42C234.28 352.65 223.09 350.4 218.63 343.88L218.64 343.87Z" fill="#EF4548"/>
<path d="M241.62 327.465C241.913 327.196 241.691 326.476 241.123 325.858C240.556 325.239 239.858 324.955 239.565 325.224C239.272 325.493 239.495 326.212 240.062 326.831C240.63 327.45 241.327 327.733 241.62 327.465Z" fill="#F5CF4C"/>
<path d="M236.572 332.093C236.865 331.824 236.642 331.105 236.075 330.486C235.507 329.867 234.81 329.584 234.517 329.853C234.224 330.121 234.446 330.841 235.014 331.459C235.581 332.078 236.279 332.362 236.572 332.093Z" fill="#F5CF4C"/>
<path d="M236.147 326.764C236.248 326.391 235.665 325.908 234.844 325.685C234.023 325.462 233.275 325.584 233.174 325.957C233.073 326.33 233.656 326.813 234.477 327.036C235.298 327.259 236.045 327.137 236.147 326.764Z" fill="#F5CF4C"/>
<path d="M241.883 333.359C242.176 333.09 241.954 332.371 241.386 331.752C240.819 331.134 240.121 330.85 239.828 331.119C239.535 331.388 239.758 332.107 240.325 332.726C240.893 333.344 241.59 333.628 241.883 333.359Z" fill="#F5CF4C"/>
<path d="M237.342 338.528C237.635 338.259 237.413 337.54 236.845 336.921C236.278 336.303 235.58 336.019 235.287 336.288C234.994 336.557 235.217 337.276 235.784 337.895C236.352 338.513 237.049 338.797 237.342 338.528Z" fill="#F5CF4C"/>
<path d="M230.761 331.858C231.054 331.589 230.832 330.87 230.264 330.251C229.697 329.633 228.999 329.349 228.706 329.618C228.413 329.887 228.636 330.606 229.203 331.225C229.771 331.843 230.468 332.127 230.761 331.858Z" fill="#F5CF4C"/>
<path d="M242.761 345.483C243.054 345.214 242.832 344.495 242.264 343.876C241.697 343.258 240.999 342.974 240.706 343.243C240.413 343.512 240.636 344.231 241.203 344.85C241.771 345.469 242.468 345.752 242.761 345.483Z" fill="#F5CF4C"/>
<path d="M247.364 348.077C247.705 347.884 247.648 347.135 247.236 346.404C246.824 345.672 246.213 345.236 245.871 345.428C245.53 345.621 245.587 346.37 245.999 347.101C246.411 347.832 247.022 348.269 247.364 348.077Z" fill="#F5CF4C"/>
<path d="M245.185 349.928C245.41 349.607 245.036 348.956 244.349 348.474C243.662 347.991 242.922 347.86 242.697 348.181C242.471 348.502 242.846 349.153 243.533 349.636C244.22 350.118 244.96 350.249 245.185 349.928Z" fill="#F5CF4C"/>
<path d="M243.117 340.848C243.41 340.579 243.187 339.86 242.62 339.241C242.052 338.622 241.355 338.339 241.062 338.608C240.769 338.876 240.991 339.596 241.559 340.214C242.126 340.833 242.824 341.117 243.117 340.848Z" fill="#F5CF4C"/>
<path d="M247.002 343.203C247.382 343.134 247.568 342.4 247.417 341.564C247.266 340.727 246.835 340.104 246.454 340.172C246.074 340.241 245.888 340.975 246.039 341.812C246.191 342.649 246.621 343.272 247.002 343.203Z" fill="#F5CF4C"/>
<path d="M246.724 336.234C247.087 336.084 247.12 335.33 246.797 334.548C246.475 333.767 245.92 333.255 245.558 333.405C245.195 333.554 245.163 334.309 245.485 335.09C245.807 335.871 246.362 336.383 246.724 336.234Z" fill="#F5CF4C"/>
<path d="M238.001 344.835C238.295 344.566 238.072 343.847 237.505 343.228C236.937 342.61 236.24 342.326 235.947 342.595C235.654 342.864 235.876 343.583 236.443 344.202C237.011 344.82 237.708 345.104 238.001 344.835Z" fill="#F5CF4C"/>
<path d="M233.533 348.834C233.654 348.461 233.096 347.946 232.286 347.685C231.477 347.423 230.723 347.513 230.603 347.886C230.482 348.259 231.04 348.774 231.849 349.036C232.658 349.297 233.412 349.207 233.533 348.834Z" fill="#F5CF4C"/>
<path d="M240.651 350.146C240.771 349.773 240.213 349.259 239.404 348.997C238.595 348.735 237.841 348.825 237.721 349.198C237.6 349.571 238.158 350.086 238.967 350.348C239.776 350.61 240.53 350.52 240.651 350.146Z" fill="#F5CF4C"/>
<path d="M231.956 344.028C232.249 343.759 232.026 343.04 231.459 342.421C230.891 341.803 230.194 341.519 229.901 341.788C229.608 342.057 229.83 342.776 230.398 343.395C230.965 344.013 231.663 344.297 231.956 344.028Z" fill="#F5CF4C"/>
<path d="M231.528 336.712C231.821 336.443 231.598 335.723 231.031 335.105C230.463 334.486 229.766 334.202 229.473 334.471C229.18 334.74 229.402 335.46 229.969 336.078C230.537 336.697 231.235 336.98 231.528 336.712Z" fill="#F5CF4C"/>
<path d="M225.957 341.823C226.25 341.554 226.028 340.834 225.46 340.216C224.893 339.597 224.195 339.314 223.902 339.582C223.609 339.851 223.832 340.571 224.399 341.189C224.967 341.808 225.664 342.091 225.957 341.823Z" fill="#F5CF4C"/>
<path d="M225.335 336.823C225.697 336.674 225.73 335.919 225.408 335.138C225.086 334.357 224.531 333.845 224.168 333.995C223.806 334.144 223.773 334.898 224.095 335.68C224.417 336.461 224.972 336.973 225.335 336.823Z" fill="#F5CF4C"/>
<path d="M217.5 317.65C217.5 317.65 218.44 315.62 219.76 316.53C221.08 317.44 221.44 319.44 222.51 321.19C223.58 322.93 227.96 319.59 230.91 318.85C233.86 318.1 235.4 318.87 235.4 318.87C235.4 318.87 230.97 320.66 230.01 322.15C229.04 323.64 231.76 323.3 233.14 323.48C234.52 323.67 230.47 326.17 228.16 325.86C225.85 325.55 227.26 329.51 226.27 331.23C225.27 332.95 223.88 333.85 224.09 331.77C224.31 329.69 224.01 328.05 223.1 328.27C222.19 328.49 218.76 331.34 218.76 333.16C218.76 333.16 216.89 333.16 218.66 328.71C220.43 324.26 221.65 325.26 220.27 323.09C218.89 320.92 215.79 319.22 217.5 317.65Z" fill="#008771"/>
<path d="M301.73 291.75C313.483 291.75 323.01 282.223 323.01 270.47C323.01 258.717 313.483 249.19 301.73 249.19C289.977 249.19 280.45 258.717 280.45 270.47C280.45 282.223 289.977 291.75 301.73 291.75Z" fill="#F26E72"/>
<path d="M301.89 289.49C312.395 289.49 320.91 280.974 320.91 270.47C320.91 259.966 312.395 251.45 301.89 251.45C291.386 251.45 282.87 259.966 282.87 270.47C282.87 280.974 291.386 289.49 301.89 289.49Z" fill="#F9AF9F"/>
<path d="M302.85 267.04V256.39C302.85 254.97 304.16 253.9 305.54 254.2C306.07 254.31 306.59 254.45 307.12 254.62C312.87 256.46 316.96 261.07 318.41 266.49C318.79 267.92 317.72 269.33 316.24 269.33L305.07 269.28C303.84 269.28 302.85 268.28 302.85 267.05V267.04Z" fill="#F0504F"/>
<path d="M298.37 269.24L287.56 269.19C286.09 269.19 285.02 267.78 285.41 266.35C285.47 266.12 285.54 265.89 285.62 265.65C287.5 259.8 292.24 255.66 297.8 254.29C299.22 253.94 300.61 254.99 300.61 256.46V267C300.61 268.24 299.6 269.24 298.37 269.23V269.24Z" fill="#F0504F"/>
<path d="M300.61 273.7V285.3C300.61 286.73 299.29 287.81 297.9 287.49C297.49 287.39 297.07 287.28 296.66 287.15C290.46 285.16 286.2 279.96 285.1 273.98C284.85 272.64 285.95 271.42 287.32 271.42L298.39 271.47C299.62 271.47 300.61 272.47 300.61 273.7Z" fill="#F0504F"/>
<path d="M305.09 271.5L316.46 271.55C317.87 271.55 318.92 272.85 318.64 274.23C318.52 274.85 318.36 275.48 318.16 276.1C316.24 282.08 311.33 286.25 305.62 287.53C304.2 287.85 302.85 286.81 302.85 285.36V273.73C302.85 272.49 303.86 271.49 305.09 271.5Z" fill="#F0504F"/>
<path d="M305.35 266.63C305.35 266.63 308.33 266.35 308.37 264.96C308.41 263.57 305.91 262.4 305.35 266.63Z" fill="#F9AF9F"/>
<path d="M298.66 267.29C298.66 267.29 298.52 264.31 297.13 264.19C295.74 264.08 294.46 266.53 298.66 267.29Z" fill="#F9AF9F"/>
<path d="M298.2 273.92C298.2 273.92 295.28 274.56 295.4 275.95C295.52 277.34 298.16 278.19 298.2 273.92Z" fill="#F9AF9F"/>
<path d="M304.82 273.41C304.82 273.41 305.16 276.38 306.56 276.39C307.96 276.4 309.06 273.87 304.82 273.41Z" fill="#F9AF9F"/>
<path d="M268.18 523.08C293.72 500.25 295.91 461.03 273.08 435.5L180.6 518.19C203.43 543.73 242.65 545.92 268.18 523.09V523.08Z" fill="#00957E"/>
<path d="M263.5 517.84C286.16 497.58 288.1 462.79 267.84 440.13L185.78 513.5C206.04 536.16 240.83 538.1 263.49 517.84H263.5Z" fill="#8BD1CD"/>
<path d="M261.31 515.4C282.61 496.36 284.44 463.66 265.39 442.36L188.27 511.32C207.31 532.62 240.01 534.45 261.31 515.4Z" fill="#EE3659"/>
<path d="M207.1 505.2C207.1 505.2 202.77 510.53 204.38 511.65C205.98 512.77 208.44 509.95 207.1 505.2Z" fill="#8B2940"/>
<path d="M224.61 507.76C224.61 507.76 222.99 514.43 224.92 514.76C226.85 515.09 227.85 511.49 224.61 507.76Z" fill="#8B2940"/>
<path d="M244.56 503.85C244.56 503.85 246.58 510.41 248.41 509.7C250.23 508.99 249.25 505.38 244.56 503.85Z" fill="#8B2940"/>
<path d="M259.7 484.85C259.7 484.85 264.77 489.48 265.99 487.94C267.2 486.4 264.53 483.79 259.7 484.85Z" fill="#8B2940"/>
<path d="M258.4 463.44C258.4 463.44 265.04 465.2 265.4 463.28C265.77 461.36 262.19 460.28 258.4 463.44Z" fill="#8B2940"/>
<path d="M159.49 481.24C159.49 481.24 162.52 464.51 170.43 459.94C178.34 455.37 199.93 463.23 203.45 468.14C203.45 468.14 181.6 484.53 172.91 478.87C164.23 473.2 159.49 481.24 159.49 481.24Z" fill="#00957E"/>
<path d="M164.13 474.95C164.13 474.95 168.2 465.63 178.22 467.32C188.23 469.01 199.79 466.85 199.79 466.85C199.79 466.85 182.24 469.52 177.14 469.59C172.04 469.66 168.04 471.86 164.14 474.95H164.13Z" fill="#007D66"/>
<path d="M157.82 480.94C157.82 480.94 169.05 468.01 167.66 458.92C166.27 449.83 146.48 437.81 140.41 438.15C140.41 438.15 141.3 465.65 151.23 468.9C161.15 472.15 157.82 480.94 157.82 480.94Z" fill="#007D66"/>
<path d="M159.84 473.33C159.84 473.33 164.59 464.25 156.96 457.46C149.32 450.66 143.74 440.22 143.74 440.22C143.74 440.22 152.71 455.69 155.87 459.74C159.03 463.79 159.82 468.31 159.85 473.33H159.84Z" fill="#006856"/>
<path d="M168.99 500.38C175.711 500.38 181.16 494.931 181.16 488.21C181.16 481.489 175.711 476.04 168.99 476.04C162.269 476.04 156.82 481.489 156.82 488.21C156.82 494.931 162.269 500.38 168.99 500.38Z" fill="#E91F4E"/>
<path d="M152.42 495.18C159.141 495.18 164.59 489.731 164.59 483.01C164.59 476.289 159.141 470.84 152.42 470.84C145.699 470.84 140.25 476.289 140.25 483.01C140.25 489.731 145.699 495.18 152.42 495.18Z" fill="#D51D4B"/>
<path d="M140.5 502.6C147.221 502.6 152.67 497.151 152.67 490.43C152.67 483.709 147.221 478.26 140.5 478.26C133.779 478.26 128.33 483.709 128.33 490.43C128.33 497.151 133.779 502.6 140.5 502.6Z" fill="#E91F4E"/>
<path d="M144.73 522.07C151.451 522.07 156.9 516.621 156.9 509.9C156.9 503.179 151.451 497.73 144.73 497.73C138.009 497.73 132.56 503.179 132.56 509.9C132.56 516.621 138.009 522.07 144.73 522.07Z" fill="#D51D4B"/>
<path d="M162.06 526.54C168.781 526.54 174.23 521.091 174.23 514.37C174.23 507.649 168.781 502.2 162.06 502.2C155.339 502.2 149.89 507.649 149.89 514.37C149.89 521.091 155.339 526.54 162.06 526.54Z" fill="#E91F4E"/>
<path d="M176.91 513.82C183.632 513.82 189.08 508.371 189.08 501.65C189.08 494.929 183.632 489.48 176.91 489.48C170.189 489.48 164.74 494.929 164.74 501.65C164.74 508.371 170.189 513.82 176.91 513.82Z" fill="#D51D4B"/>
<path d="M159.64 505.77C166.362 505.77 171.81 500.321 171.81 493.6C171.81 486.879 166.362 481.43 159.64 481.43C152.919 481.43 147.47 486.879 147.47 493.6C147.47 500.321 152.919 505.77 159.64 505.77Z" fill="#EE3659"/>
<path d="M150.42 538.36C157.141 538.36 162.59 532.911 162.59 526.19C162.59 519.469 157.141 514.02 150.42 514.02C143.699 514.02 138.25 519.469 138.25 526.19C138.25 532.911 143.699 538.36 150.42 538.36Z" fill="#EE3659"/>
<path d="M501.35 413.24C585.629 413.24 653.95 351.755 653.95 275.91C653.95 200.065 585.629 138.58 501.35 138.58C417.071 138.58 348.75 200.065 348.75 275.91C348.75 351.755 417.071 413.24 501.35 413.24Z" fill="#F280A4"/>
<path d="M607.86 216C635.176 216 657.32 193.856 657.32 166.54C657.32 139.224 635.176 117.08 607.86 117.08C580.544 117.08 558.4 139.224 558.4 166.54C558.4 193.856 580.544 216 607.86 216Z" fill="#F280A4"/>
<path d="M418.89 191.71C442.76 191.71 462.11 172.36 462.11 148.49C462.11 124.62 442.76 105.27 418.89 105.27C395.02 105.27 375.67 124.62 375.67 148.49C375.67 172.36 395.02 191.71 418.89 191.71Z" fill="#F280A4"/>
<path d="M415.786 251.274C420.772 243.593 420.248 234.403 414.615 230.746C408.982 227.089 400.373 230.351 395.388 238.032C390.402 245.712 390.926 254.903 396.559 258.559C402.192 262.216 410.8 258.954 415.786 251.274Z" fill="#462D20"/>
<path d="M465.95 261.22C465.95 261.22 447.53 252.75 424.69 261.22C424.69 275.68 451.22 303.59 465.95 261.22Z" fill="#462D20"/>
<path d="M529.52 294.25C540.77 294.25 549.89 285.13 549.89 273.88C549.89 262.63 540.77 253.51 529.52 253.51C518.27 253.51 509.15 262.63 509.15 273.88C509.15 285.13 518.27 294.25 529.52 294.25Z" fill="#EE3C92"/>
<path d="M349.36 264.38C348.77 270.88 348.37 275.23 351.21 279.25C354.74 284.26 361.25 285.93 366.08 285.6C375.27 284.98 384.29 276.74 384.82 266.14C385.36 255.42 376.99 246.41 368.11 244.92C367.2 244.77 360.22 243.7 355 248.12C350.51 251.92 350 257.49 349.38 264.38H349.36Z" fill="#EE3C92"/>
<path d="M338.34 393.44C337.7 402.4 342.52 408.88 343.3 409.91C345.52 412.81 348.83 415.71 357.32 419.03C364.88 421.99 373.92 424.25 388.73 425.09C396.68 425.54 407.55 425.66 420.5 424.26C421.99 424.41 429.93 425.05 436.97 419.3C441.42 415.66 444.48 410.32 445.1 404.15C446.34 391.8 437.33 380.79 424.98 379.55C417.71 382.01 407.21 384.41 395.06 382.85C373.76 380.11 365.35 367.51 353.11 372.12C344.95 375.19 338.96 384.45 338.32 393.46L338.34 393.44Z" fill="#F280A4"/>
<path d="M526 579.82H580.34C585.101 579.82 588.96 575.961 588.96 571.2V397.92C588.96 393.159 585.101 389.3 580.34 389.3H526C521.239 389.3 517.38 393.159 517.38 397.92V571.2C517.38 575.961 521.239 579.82 526 579.82Z" fill="#F280A4"/>
<path d="M427.5 563.52H481.84C486.601 563.52 490.46 559.661 490.46 554.9V393.14C490.46 388.379 486.601 384.52 481.84 384.52H427.5C422.739 384.52 418.88 388.379 418.88 393.14V554.9C418.88 559.661 422.739 563.52 427.5 563.52Z" fill="#F280A4"/>
<path d="M413.56 451.92C414.56 462.9 417.12 491.09 439.45 510.03C457.4 525.25 478.05 525.94 501.33 526.76C521.24 527.46 548.11 528.4 567.71 512.99C592.1 493.81 589.7 461.52 587.96 438.21C586.76 422.07 585.47 404.81 572.21 387.05C557.34 367.13 532.37 349.75 501.33 349.66C458.2 349.53 433.56 382.04 430.14 386.72C410.53 413.56 412.71 442.54 413.56 451.93V451.92Z" fill="#F280A4"/>
<path d="M449.53 484.57C469.545 484.57 485.77 466.746 485.77 444.76C485.77 422.774 469.545 404.95 449.53 404.95C429.515 404.95 413.29 422.774 413.29 444.76C413.29 466.746 429.515 484.57 449.53 484.57Z" fill="#EDC2DB"/>
<path d="M432.57 99.29C432.57 87.57 440.75 78.0701 450.83 78.0701C456.93 78.0701 462.32 81.5599 465.64 86.8999C468.61 79.8599 474.82 75 482.03 75C488.64 75 494.42 79.1 497.62 85.21C500.97 80.84 505.83 78.0701 511.26 78.0701C521.35 78.0701 529.52 87.57 529.52 99.29C529.52 107.8 525.2 115.12 518.98 118.5L514.16 135.02C518.04 136.79 520.8 141.16 520.8 146.3C520.8 153 516.12 158.44 510.35 158.44H454.77C449 158.44 444.32 153 444.32 146.3C444.32 141.53 446.71 137.45 450.15 135.46L446.08 119.75C438.3 117.32 432.57 109.09 432.57 99.28V99.29Z" fill="#EDC2DB"/>
<path d="M278.02 533.76L306.67 413.3L278.68 530.99L76.1499 529.18" fill="#F280A4"/>
<path d="M60.71 438.39C66.52 469.26 72.33 500.12 78.15 530.99Z" fill="#F280A4"/>
<path d="M58.05 440.93C141.52 431.2 224.99 421.47 308.45 411.74Z" fill="#F280A4"/>
<path d="M277.32 591.77C208.79 591.99 140.25 592.21 71.72 592.43C71.9 596.29 72.09 600.16 72.27 604.02L95.14 603.77L89.12 609.79L96.14 615.56L105.67 604.02L251.15 603.02L262.69 615.56L269.96 609.54L263.69 604.02L285.51 601.76V549.84L323.38 399.1L52.5 430.2L78.33 559.37C144.59 559.45 210.84 559.54 277.1 559.62C277.17 570.34 277.25 581.05 277.32 591.77ZM279.74 531.59C213.17 530.99 146.6 530.4 80.03 529.8L64.48 441.43L306.15 413.9C297.35 453.13 288.55 492.35 279.74 531.58V531.59Z" fill="#F280A4"/>
<path d="M319.268 390.969L311.783 409.71L318.758 412.495L326.242 393.755L319.268 390.969Z" fill="#F280A4"/>
<path d="M323.347 380.775L318.807 392.142L350.819 404.927L355.358 393.56L323.347 380.775Z" fill="#F280A4"/>
<path d="M89.6301 607.29C81.3201 607.29 74.5801 614.03 74.5801 622.34C74.5801 630.65 81.3201 637.39 89.6301 637.39C97.9401 637.39 104.68 630.65 104.68 622.34C104.68 614.03 97.9401 607.29 89.6301 607.29ZM89.6301 630.96C84.8701 630.96 81.0101 627.1 81.0101 622.34C81.0101 617.58 84.8701 613.72 89.6301 613.72C94.3901 613.72 98.2501 617.58 98.2501 622.34C98.2501 627.1 94.3901 630.96 89.6301 630.96Z" fill="#F280A4"/>
<path d="M89.6302 613.72C84.8702 613.72 81.0103 617.58 81.0103 622.34C81.0103 627.1 84.8702 630.96 89.6302 630.96C94.3902 630.96 98.2502 627.1 98.2502 622.34C98.2502 617.58 94.3902 613.72 89.6302 613.72Z" fill="#F280A4"/>
<path d="M272.97 607.29C264.66 607.29 257.92 614.03 257.92 622.34C257.92 630.65 264.66 637.39 272.97 637.39C281.28 637.39 288.02 630.65 288.02 622.34C288.02 614.03 281.28 607.29 272.97 607.29ZM272.97 630.96C268.21 630.96 264.35 627.1 264.35 622.34C264.35 617.58 268.21 613.72 272.97 613.72C277.73 613.72 281.59 617.58 281.59 622.34C281.59 627.1 277.73 630.96 272.97 630.96Z" fill="#F280A4"/>
<path d="M272.97 613.72C268.21 613.72 264.35 617.58 264.35 622.34C264.35 627.1 268.21 630.96 272.97 630.96C277.73 630.96 281.59 627.1 281.59 622.34C281.59 617.58 277.73 613.72 272.97 613.72Z" fill="#F280A4"/>
<path d="M500.19 227.26C495.73 228.1 491.37 229.43 487.29 231.42C484.01 233.02 480.49 235.04 478.81 238.42C477.93 240.19 477.26 242.34 477.91 244.29C478.53 246.13 480.25 247.17 482.01 247.72C485.17 248.69 488.81 248.7 492.09 248.71C497.48 248.73 502.86 248.16 508.18 247.28C509.44 247.07 508.91 245.15 507.65 245.35C500.55 246.53 493.27 247.13 486.09 246.42C484.31 246.24 482.13 246.05 480.68 244.88C479.08 243.59 479.65 241.37 480.37 239.76C481.78 236.6 484.96 234.81 487.93 233.32C491.96 231.3 496.3 230 500.72 229.17C501.98 228.93 501.45 227.01 500.19 227.24V227.26Z" fill="#462D20"/>
<path d="M493.28 315.36C492.16 323.73 491.71 328.03 488.76 331.57C483.13 338.32 473.07 338.37 453.16 338.2C428.46 337.99 423.52 333.74 421.71 331.94C417.38 327.63 415.97 322.14 415.08 316.1C413.38 304.61 412.53 298.87 414.71 296.57C417.99 293.11 423.02 295.9 438.66 297.31C441.94 297.61 454.66 298.7 468.87 297.68C483.58 296.62 488.64 294.09 492.07 297.66C495.22 300.93 494.45 306.68 493.28 315.37V315.36Z" fill="#971F5F"/>
<path d="M492.3 324.51C489.53 322.12 472.29 307.73 448.29 311.01C431.95 313.24 421.38 322.45 417.62 326.09C418.29 327.71 419.68 330.42 422.47 332.64C424.8 334.48 427.04 335.14 430 335.98C433.76 337.05 436.87 337.39 440.44 337.67C443.69 337.92 447.32 338.12 454.26 338.25C454.26 338.25 462.32 338.4 473.2 337.84C474.17 337.79 475.94 337.69 478.21 337.19C479.32 336.94 482.55 336.23 485.15 334.66C489.86 331.82 491.68 326.66 492.3 324.51Z" fill="#D54F98"/>
<path d="M557.39 218.82C542.54 192.43 509.11 183.07 482.72 197.92C456.33 212.77 446.97 246.2 461.82 272.59C476.67 298.98 510.1 308.34 536.49 293.49C562.88 278.64 572.24 245.21 557.39 218.82ZM530.18 282.27C509.99 293.63 484.41 286.47 473.04 266.28C461.68 246.09 468.84 220.51 489.03 209.14C509.22 197.78 534.8 204.94 546.17 225.13C557.53 245.32 550.37 270.9 530.18 282.27Z" fill="#646965"/>
<g opacity="0.5">
<path d="M489.04 209.14C468.85 220.5 461.69 246.08 473.05 266.28C484.41 286.47 509.99 293.63 530.19 282.27C550.38 270.91 557.54 245.33 546.18 225.13C534.82 204.94 509.24 197.78 489.04 209.14Z" fill="white"/>
</g>
<path d="M546.233 295.775L531.495 304.066L566.36 366.042L581.098 357.752L546.233 295.775Z" fill="#D1CBCD"/>
<path d="M543.593 279.229L518.719 293.222C517.785 293.747 517.454 294.93 517.979 295.864L526.167 310.419C526.693 311.353 527.876 311.684 528.81 311.159L553.684 297.166C554.618 296.64 554.949 295.457 554.423 294.523L546.235 279.968C545.71 279.035 544.527 278.704 543.593 279.229Z" fill="#646965"/>
<path d="M539.18 323.29C530.6 329.67 528.03 338.37 527.64 339.77C526.54 343.71 526.19 348.5 529.03 357.61C531.57 365.75 534.75 371.08 545.21 386.55C556.37 403.06 559.97 407.62 566.34 412.35C570.79 415.65 576.35 418.87 583.8 419.4C585.95 419.55 590.5 419.83 596.09 417.79C596.48 417.65 600.01 416.34 603.2 414.05C610.63 408.74 614.4 399.45 615.03 393.76C616.56 380.01 600.67 378.93 588.01 359.02C574.91 338.42 581.67 324.39 568.8 318.36C560.37 314.41 547.81 316.89 539.18 323.3V323.29Z" fill="#F280A4"/>
<path d="M559.39 399.4C549.66 386.69 541.38 374.32 534.79 362.62C531.95 357.58 529.31 351.86 529.32 344.26C529.32 339.92 530.52 335.53 532.97 330.86C540.5 316.52 556.86 316.34 557.54 316.34C557.55 316.34 557.56 316.34 557.56 316.34C560.22 316.18 562.83 316.5 565.31 317.29C569.63 318.67 573.39 321.42 576.48 325.48C579.19 329.04 579.86 331.92 580.98 336.67C581.57 339.17 582.3 342.29 583.52 346.32C584.79 350.49 586.28 354.62 587.95 358.6L587.58 358.75C585.91 354.76 584.41 350.62 583.14 346.43C581.91 342.39 581.18 339.26 580.59 336.76C579.49 332.05 578.82 329.21 576.16 325.72C573.12 321.73 569.43 319.02 565.19 317.67C562.76 316.9 560.2 316.59 557.57 316.74C557.34 316.72 540.85 316.71 533.32 331.05C530.9 335.66 529.72 339.98 529.72 344.26C529.72 351.77 532.32 357.43 535.14 362.43C541.73 374.11 549.99 386.47 559.71 399.16L559.39 399.4Z" fill="#E977A2"/>
<path d="M321.48 184.17C315.66 187.27 309.74 190.19 303.96 193.36C297.77 196.76 293.06 199.11 289.02 201.13C284.05 203.61 277.63 206.72 270 210.12C270.3 210.8 270.61 211.49 270.91 212.17C271.26 212.83 271.62 213.49 271.97 214.15C279.34 210.22 285.74 207.05 290.75 204.65C294.82 202.7 299.57 200.43 306.05 197.63C312.1 195.02 318.04 192.14 324.06 189.44C329.42 187.04 334.21 184.92 334.42 181.7C334.42 181.66 334.42 181.62 334.42 181.62C334.42 181.3 334.26 180.97 334.01 180.78C334.01 180.78 333.98 180.76 333.94 180.73C331.27 178.91 326.65 181.4 321.47 184.15L321.48 184.17Z" fill="#C0C3CE"/>
<path d="M257.07 206C250.48 207.19 246.12 210.61 244.93 211.59C244.79 211.71 244.57 211.89 244.29 212.12C242.54 213.64 237.35 218.15 236.65 223.24C240 224.66 245.74 226.33 252.1 224.64C259.88 222.56 266.2 216.09 269.1 207.53C268.67 207.27 268.27 207.06 267.93 206.9C263.89 204.87 259.86 205.5 257.07 206.01V206Z" fill="#C0C3CE"/>
<path d="M252.1 224.64C245.74 226.34 240 224.67 236.65 223.24C236.54 224.01 236.54 224.79 236.67 225.57C237.06 227.98 238.52 229.59 238.77 229.85C242.92 234.29 251.46 232.61 254.08 232.09C254.44 232.02 254.71 231.96 254.89 231.92C256.39 231.58 261.77 230.24 266.75 225.77C268.97 223.78 271.89 221.03 272.71 216.65C272.95 215.36 273.37 212.97 272.12 210.6C271.32 209.08 270.14 208.14 269.11 207.52C266.21 216.08 259.9 222.55 252.11 224.63L252.1 224.64Z" fill="#A3A6AF"/>
<g opacity="0.78">
<path d="M262.83 208.1C262.84 208.59 262.46 209.01 261.97 209.04C257.95 209.28 254.01 210.38 250.52 212.23C248.25 213.44 246.16 214.96 244.3 216.77C243.95 217.11 243.39 217.11 243.03 216.77C242.66 216.41 242.66 215.82 243.03 215.46C245.01 213.54 247.24 211.91 249.66 210.62C253.38 208.64 257.58 207.47 261.85 207.22C262.36 207.19 262.8 207.59 262.82 208.1H262.83Z" fill="white"/>
</g>
<g opacity="0.78">
<path d="M241.69 219.89L240.36 221.87C240.08 222.29 239.51 222.4 239.09 222.12C238.67 221.84 238.56 221.27 238.84 220.85L240.17 218.87C240.45 218.45 241.02 218.34 241.44 218.62C241.86 218.9 241.97 219.47 241.69 219.89Z" fill="white"/>
</g>
<path d="M155.28 157.13C160.32 158.57 165.31 160.17 170.37 161.54C175.79 163.01 179.78 164.27 183.2 165.34C187.41 166.66 192.8 168.43 199.04 170.7C199.24 170.14 199.45 169.58 199.65 169.02C199.81 168.45 199.97 167.88 200.14 167.3C193.75 165.48 188.35 163.76 184.16 162.37C180.76 161.24 176.79 159.91 171.54 157.93C166.64 156.08 161.65 154.45 156.73 152.67C152.34 151.09 148.43 149.65 146.53 151.38C146.51 151.4 146.48 151.42 146.48 151.42C146.3 151.6 146.21 151.88 146.25 152.13C146.25 152.13 146.25 152.16 146.26 152.19C146.78 154.71 150.8 155.83 155.28 157.12V157.13Z" fill="#C0C3CE"/>
<path d="M226.26 172.57C224.71 171.77 223.32 170.69 221.79 169.85C216.11 166.72 216.83 166.87 215.21 166.14C212.1 164.75 210.22 163.91 207.8 164.05C204.47 164.25 202.16 166.19 200.1 167.94C199.02 168.86 198.08 169.82 197.26 170.8C197.29 171.08 197.34 171.39 197.42 171.72C197.61 172.62 198.15 175.09 200.25 177.38C202.41 179.74 204.91 180.62 206.15 181.04C207.62 181.54 208.86 181.68 211.27 181.95C213.9 182.24 216.07 182.31 217.55 182.32C219.3 182.37 221.04 182.42 222.79 182.47C225.1 182.6 226.27 182.55 226.3 182.34C226.33 182.12 225.12 181.72 222.66 181.13C218.48 180.17 214.29 179.2 210.11 178.24C207.52 177.75 205.65 177.14 204.45 176.69C203.69 176.4 202.77 176.02 202.6 175.27C202.5 174.85 202.64 174.3 203 174.03C203.2 173.88 203.48 173.82 204.41 174C204.92 174.09 205.63 174.26 206.47 174.56C209.35 175.36 216.45 177.34 219.33 178.14C222.28 178.96 225.06 179.74 225.23 179.79C226.14 179.95 226.82 179.94 226.89 179.75C226.95 179.56 226.43 179.18 225.69 178.82C223.69 178.1 221.69 177.38 219.69 176.67C214.84 174.94 209.99 173.24 205.12 171.58C205.07 171.57 204.42 171.38 204.21 170.72C204.21 170.69 204.19 170.66 204.19 170.64C204.21 170.62 204.23 170.6 204.26 170.59C204.81 170.19 205.45 170.41 205.5 170.43C210.42 171.93 215.35 173.4 220.29 174.83C222.33 175.42 224.37 176.01 226.41 176.6C227.22 176.74 227.86 176.74 227.93 176.55C228 176.35 227.44 175.95 226.61 175.54C226.44 175.48 223.73 174.48 220.86 173.42C218.05 172.38 211.15 169.83 208.34 168.79C207.48 168.54 206.81 168.26 206.34 168.04C205.48 167.63 205.29 167.43 205.22 167.19C205.08 166.76 205.29 166.24 205.62 165.95C206.2 165.44 207.17 165.66 207.95 165.88C209.19 166.22 211.06 166.82 213.45 167.94C217.41 169.61 221.36 171.28 225.32 172.95C226.46 173.42 227.33 173.76 227.94 173.95C227.81 173.78 227.66 173.61 227.49 173.45C226.97 172.95 226.47 172.7 226.27 172.59L226.26 172.57Z" fill="#C0C3CE"/>
<path d="M200.11 167.93C202.17 166.19 204.48 164.24 207.81 164.04C210.22 163.9 212.1 164.74 215.22 166.13C216.84 166.85 216.12 166.7 221.8 169.84C223.33 170.68 224.72 171.76 226.27 172.56C226.47 172.66 226.97 172.92 227.49 173.42C227.66 173.58 227.81 173.75 227.94 173.92C228.58 174.12 228.92 174.18 228.98 174.08C229.08 173.89 228.15 173.17 226.21 171.92C224.76 170.94 223.32 169.96 221.87 168.98C220.66 168.12 218.86 166.9 216.56 165.59C214.45 164.39 213.36 163.78 211.88 163.33C210.63 162.94 208.09 162.19 204.96 162.84C204.54 162.93 201.8 163.56 199.35 165.77C197.85 167.13 197.49 168.14 197.4 168.43C197.32 168.68 197.1 169.42 197.27 170.79C198.09 169.81 199.03 168.84 200.11 167.93Z" fill="#A3A6AF"/>
<g opacity="0.62">
<path d="M204.06 178.58C204.14 178.44 204.31 178.38 204.46 178.46C206.34 179.44 208.34 180.17 210.41 180.63C212.24 181.04 214.12 181.25 216 181.24C216.16 181.24 216.3 181.37 216.3 181.53C216.3 181.69 216.17 181.83 216.01 181.83C214.08 181.84 212.16 181.63 210.28 181.21C208.16 180.73 206.12 179.98 204.19 178.98C204.04 178.9 203.99 178.72 204.07 178.58H204.06Z" fill="white"/>
</g>
<g opacity="0.62">
<path d="M217.64 181.18H219.46C219.62 181.19 219.76 181.33 219.75 181.49C219.75 181.65 219.62 181.79 219.45 181.78H217.63C217.47 181.77 217.33 181.63 217.34 181.47C217.34 181.31 217.47 181.17 217.64 181.18Z" fill="white"/>
</g>
<path d="M85.678 276.549L78.3809 281.521L119.475 341.832L126.773 336.859L85.678 276.549Z" fill="#C0C3CE"/>
<path d="M81.7901 279.27C81.1801 279.68 79.9601 280.46 78.3101 280.5C76.9601 280.53 76.28 280.03 75.22 279.69C71.77 278.58 69.94 281.04 66.13 280.68C64.37 280.52 63.21 279.84 60.96 278.49C56.99 276.12 54.3001 273.33 51.0401 269.52C48.4701 266.51 45.25 262.52 41.76 257.58C41.03 256.75 40.02 255.39 39.36 253.51C38.27 250.39 38.7801 247.67 39.1701 245.78C39.4801 244.26 39.94 242.83 40.5 241.49C38.78 243.5 37.42 245.41 36.36 247.07C35.33 248.68 35.35 250.74 36.4 252.33C42.38 261.38 48.05 268.25 52.45 273.14C57.14 278.35 60.77 281.73 66.09 282.45C69.78 282.95 73.0301 282 75.3101 281C76.0401 280.68 76.9 280.92 77.35 281.58C77.87 282.34 78.9 282.53 79.66 282.02L85.4 278.11C86.16 277.59 86.35 276.56 85.84 275.8C85.82 275.78 85.8101 275.75 85.7901 275.73C84.1301 277.41 82.76 278.62 81.78 279.27H81.7901Z" fill="#A3A7B2"/>
<path d="M86.0602 273.69C87.8202 271.93 89.8902 269.25 90.7802 265.64C92.0602 260.42 90.2502 255.81 87.1102 249.54C84.1402 243.59 79.7402 235.68 73.3902 226.67C72.4302 225.31 70.7702 224.64 69.1402 224.95C64.4202 225.84 57.3402 227.88 50.1002 232.86C46.0902 235.62 42.9402 238.65 40.5102 241.49C39.9602 242.83 39.4902 244.26 39.1802 245.78C38.8002 247.67 38.2802 250.39 39.3702 253.51C40.0302 255.39 41.0302 256.75 41.7702 257.58C45.2602 262.52 48.4802 266.51 51.0502 269.52C54.3002 273.33 57.0001 276.12 60.9701 278.49C63.2201 279.84 64.3802 280.51 66.1402 280.68C69.9502 281.04 71.7802 278.58 75.2302 279.69C76.2902 280.03 76.9701 280.53 78.3201 280.5C79.9601 280.47 81.1802 279.68 81.8002 279.27C82.7902 278.62 84.1602 277.41 85.8102 275.73C85.4102 275.08 85.5102 274.24 86.0602 273.69ZM61.2302 274.83C60.0802 275.69 58.4602 275.45 57.6002 274.31L40.5602 251.54C39.7002 250.39 39.9401 248.77 41.0801 247.91C42.2301 247.05 43.8501 247.29 44.7101 248.43L61.7502 271.2C62.6102 272.35 62.3702 273.97 61.2302 274.83ZM69.5801 273.38C68.4301 274.24 66.8101 274 65.9501 272.86L45.8301 245.96C44.9701 244.81 45.2102 243.19 46.3502 242.33C47.5002 241.47 49.1202 241.71 49.9802 242.85L70.1002 269.75C70.9602 270.9 70.7201 272.52 69.5801 273.38ZM81.9102 257.47L66.9501 233.28C66.2001 232.06 66.5702 230.46 67.7902 229.71C69.0102 228.96 70.6102 229.33 71.3602 230.55L86.3201 254.74C87.0701 255.96 86.7002 257.56 85.4802 258.31C84.2602 259.06 82.6602 258.69 81.9102 257.47ZM76.6502 267.28C77.3702 268.34 77.1002 269.78 76.0402 270.5C74.9802 271.22 73.5401 270.95 72.8201 269.89L52.2001 239.62C51.4801 238.56 51.7502 237.12 52.8102 236.4C53.8702 235.68 55.3102 235.95 56.0302 237.01L76.6502 267.28ZM77.5002 264.71L59.8301 236.14C59.0801 234.92 59.4502 233.32 60.6702 232.57C61.8902 231.82 63.4902 232.19 64.2402 233.41L81.9102 261.98C82.6602 263.2 82.2901 264.8 81.0701 265.55C79.8501 266.3 78.2502 265.93 77.5002 264.71Z" fill="#C0C3CE"/>
<path d="M144.64 371.28C143.31 371.45 142.09 371.35 141.2 371.2C140.56 371.09 140.05 370.95 139.75 370.86C138.95 370.49 137.94 369.93 136.89 369.08C135.92 368.3 135.2 367.5 134.69 366.84C133.26 364.69 121.49 346.88 117.24 337.82C116.8 336.89 116.02 335.03 116.27 332.72C116.58 329.89 118.31 327.32 120.91 325.57C119.36 324.53 117.28 324.5 115.67 325.6L112.92 327.47C110.64 329.03 110.01 332.11 111.49 334.44C119.86 347.61 128.23 360.77 136.6 373.94C138.62 377.12 142.88 378 146 375.88L150.98 372.49C153.35 370.87 154.33 368.03 153.72 365.43C151.34 368.28 148.27 370.81 144.63 371.29L144.64 371.28Z" fill="#4D5F71"/>
<path d="M152.33 362.66C142.18 350.59 132.04 338.52 121.89 326.45C121.6 326.1 121.26 325.81 120.9 325.57C118.3 327.32 116.57 329.88 116.26 332.72C116.01 335.03 116.79 336.89 117.23 337.82C121.48 346.87 133.25 364.69 134.68 366.84C135.19 367.5 135.91 368.3 136.88 369.08C137.93 369.93 138.94 370.49 139.74 370.86C140.04 370.95 140.54 371.09 141.19 371.2C142.08 371.35 143.3 371.45 144.63 371.28C148.26 370.8 151.34 368.27 153.72 365.42C153.49 364.44 153.03 363.49 152.33 362.66ZM142.93 358.93C144.26 360.88 143.76 363.55 141.8 364.88C139.85 366.21 137.18 365.71 135.85 363.75L128.62 353.14C127.29 351.19 127.79 348.52 129.75 347.19C131.7 345.86 134.37 346.36 135.7 348.32L142.93 358.93Z" fill="#617287"/>
<path d="M33.86 385.78C34.06 385.6 34.26 385.41 34.47 385.22C40.44 379.65 44.52 374.04 47.2 369.69C44.22 367.07 41.01 363.96 37.76 360.3C34.71 356.87 32.14 353.54 29.98 350.45C25.5 352.35 19.24 355.6 12.88 361.1C12.84 361.14 12.8 361.17 12.75 361.21C14.8 365.18 17.7 369.88 21.8 374.66C25.89 379.44 30.12 383.07 33.85 385.78H33.86Z" fill="#B6CACB"/>
<path d="M21.8101 374.66C17.7101 369.88 14.81 365.18 12.76 361.21C7.42001 365.84 3.64005 370.64 1.05005 374.58C-0.119952 376.36 -0.25003 378.64 0.71997 380.54C1.91997 382.9 3.63005 385.65 6.05005 388.42C8.82005 391.59 11.7199 393.85 14.1899 395.43C16.0399 396.62 18.41 396.69 20.33 395.6C24.34 393.32 29.07 390.15 33.87 385.78C30.14 383.07 25.9099 379.44 21.8199 374.66H21.8101Z" fill="#816159"/>
<g opacity="0.39">
<path d="M22.53 365.35C26.6 361.9 30.62 358.95 34.46 356.43C33.39 355.09 32.39 353.78 31.46 352.51C27.57 355 23.5 357.88 19.35 361.22C11.71 367.37 5.48998 373.72 0.47998 379.65C0.58998 380.05 0.730054 380.45 0.930054 380.82C1.65005 382.24 2.55994 383.8 3.68994 385.42C8.47994 379 14.65 372.02 22.53 365.34V365.35Z" fill="white"/>
</g>
<g opacity="0.32">
<path d="M33.86 385.77C34.06 385.59 34.26 385.4 34.47 385.21C40.44 379.64 44.52 374.03 47.2 369.68C46.15 368.76 45.08 367.78 43.98 366.73C41.54 370.63 38.48 374.86 34.64 379.1C27.91 386.55 20.78 391.86 14.53 395.62C16.33 396.61 18.5199 396.6 20.3199 395.58C24.3299 393.3 29.06 390.13 33.86 385.76V385.77Z" fill="#6B7F80"/>
</g>
<path d="M37.47 361.83C34.69 358.85 30.5901 354.47 31.8801 350.17C32.2201 349.02 32.8901 348.09 33.6501 347.34C33.6101 346.94 33.58 346.62 33.57 346.39C32.48 347.48 31.3901 348.57 30.3001 349.66C29.7501 350.21 29.56 351.04 29.82 351.78C30.8 354.51 32.6401 358.49 36.1301 362.4C39.5801 366.27 43.2901 368.55 45.9001 369.84C46.6101 370.19 47.4501 370.09 48.0601 369.61C42.7701 367.01 39.4 363.91 37.47 361.84V361.83Z" fill="#8A8E96"/>
<path d="M37.47 361.83C39.4 363.89 42.7701 366.99 48.0601 369.6C48.1201 369.56 48.17 369.51 48.22 369.46L51.4101 366.33C49.4901 366.01 44.3001 364.87 39.8101 360.39C35.0201 355.61 33.93 349.92 33.65 347.35C32.89 348.1 32.22 349.03 31.88 350.18C30.59 354.48 34.68 358.86 37.47 361.84V361.83Z" fill="#A3A6AF"/>
<path d="M46.2599 352.98C41.3299 347.48 35.6499 344.52 33.5699 346.38C31.4899 348.24 33.7999 354.21 38.7199 359.72C43.6499 365.22 49.33 368.18 51.41 366.32C53.49 364.46 51.1799 358.49 46.2599 352.98ZM48.8799 357.6C49.2899 358.06 49.4099 358.62 49.1499 358.86C48.8899 359.1 48.34 358.91 47.93 358.45C47.52 357.99 47.4 357.43 47.66 357.19C47.92 356.95 48.4699 357.14 48.8799 357.6ZM46.5799 359.27C46.3199 359.51 45.7699 359.32 45.3599 358.86C44.9499 358.4 44.8299 357.84 45.0899 357.6C45.3499 357.36 45.9 357.55 46.31 358.01C46.72 358.47 46.8399 359.03 46.5799 359.27ZM46.55 354.99C46.96 355.45 47.0799 356.01 46.8199 356.25C46.5599 356.49 46.0099 356.3 45.5999 355.84C45.1899 355.38 45.0699 354.82 45.3299 354.58C45.5899 354.34 46.14 354.53 46.55 354.99ZM43.9799 355.41C44.3899 355.87 44.5099 356.43 44.2499 356.67C43.9899 356.91 43.4399 356.72 43.0299 356.26C42.6199 355.8 42.4999 355.24 42.7599 355C43.0199 354.76 43.5699 354.95 43.9799 355.41ZM44.17 352.33C44.58 352.79 44.6999 353.35 44.4399 353.59C44.1799 353.83 43.6299 353.64 43.2199 353.18C42.8099 352.72 42.6899 352.16 42.9499 351.92C43.2099 351.68 43.76 351.87 44.17 352.33ZM41.8699 354.01C41.6099 354.25 41.0599 354.06 40.6499 353.6C40.2399 353.14 40.1199 352.58 40.3799 352.34C40.6399 352.1 41.1899 352.29 41.5999 352.75C42.0099 353.21 42.1299 353.77 41.8699 354.01ZM41.8299 349.73C42.2399 350.19 42.3599 350.75 42.0999 350.99C41.8399 351.23 41.2899 351.04 40.8799 350.58C40.4699 350.12 40.3499 349.56 40.6099 349.32C40.8699 349.08 41.4199 349.27 41.8299 349.73ZM39.2699 350.14C39.6799 350.6 39.8 351.16 39.54 351.4C39.28 351.64 38.7299 351.45 38.3199 350.99C37.9099 350.53 37.79 349.97 38.05 349.73C38.31 349.49 38.8599 349.68 39.2699 350.14ZM36.42 351.2C36.68 350.96 37.2299 351.15 37.6399 351.61C38.0499 352.07 38.17 352.63 37.91 352.87C37.65 353.11 37.0999 352.92 36.6899 352.46C36.2799 352 36.16 351.44 36.42 351.2ZM35.9899 354.96C35.5799 354.5 35.4599 353.94 35.7199 353.7C35.9799 353.46 36.5299 353.65 36.9399 354.11C37.3499 354.57 37.4699 355.13 37.2099 355.37C36.9499 355.61 36.3999 355.42 35.9899 354.96ZM38.7499 353.8C39.0099 353.56 39.5599 353.75 39.9699 354.21C40.3799 354.67 40.4999 355.23 40.2399 355.47C39.9799 355.71 39.4299 355.52 39.0199 355.06C38.6099 354.6 38.4899 354.04 38.7499 353.8ZM38.3199 357.56C37.9099 357.1 37.79 356.54 38.05 356.3C38.31 356.06 38.8599 356.25 39.2699 356.71C39.6799 357.17 39.8 357.73 39.54 357.97C39.28 358.21 38.7299 358.02 38.3199 357.56ZM41.1299 356.46C41.3899 356.22 41.9399 356.41 42.3499 356.87C42.7599 357.33 42.8799 357.89 42.6199 358.13C42.3599 358.37 41.8099 358.18 41.3999 357.72C40.9899 357.26 40.8699 356.7 41.1299 356.46ZM40.6999 360.22C40.2899 359.76 40.17 359.2 40.43 358.96C40.69 358.72 41.2399 358.91 41.6499 359.37C42.0599 359.83 42.18 360.39 41.92 360.63C41.66 360.87 41.1099 360.68 40.6999 360.22ZM43.4599 359.07C43.7199 358.83 44.27 359.02 44.68 359.48C45.09 359.94 45.2099 360.5 44.9499 360.74C44.6899 360.98 44.1399 360.79 43.7299 360.33C43.3199 359.87 43.1999 359.31 43.4599 359.07ZM43.0299 362.83C42.6199 362.37 42.4999 361.81 42.7599 361.57C43.0199 361.33 43.5699 361.52 43.9799 361.98C44.3899 362.44 44.5099 363 44.2499 363.24C43.9899 363.48 43.4399 363.29 43.0299 362.83ZM45.7199 362.55C45.3099 362.09 45.1899 361.53 45.4499 361.29C45.7099 361.05 46.26 361.24 46.67 361.7C47.08 362.16 47.1999 362.72 46.9399 362.96C46.6799 363.2 46.1299 363.01 45.7199 362.55ZM47.3499 361.09C46.9399 360.63 46.8199 360.07 47.0799 359.83C47.3399 359.59 47.89 359.78 48.3 360.24C48.71 360.7 48.8299 361.26 48.5699 361.5C48.3099 361.74 47.7599 361.55 47.3499 361.09Z" fill="#C0C3CE"/>
<g opacity="0.55">
<path d="M25.8699 360.5C23.8699 361.91 21.9699 363.24 21.5499 362.83C21.0899 362.38 22.3899 359.78 24.5099 358.11C26.9399 356.2 30.2499 355.68 30.5599 356.31C30.8899 356.97 27.8899 359.08 25.8699 360.5Z" fill="white"/>
</g>
<g opacity="0.24">
<path d="M510.35 600.53C568.218 600.53 615.13 589.892 615.13 576.77C615.13 563.648 568.218 553.01 510.35 553.01C452.481 553.01 405.57 563.648 405.57 576.77C405.57 589.892 452.481 600.53 510.35 600.53Z" fill="#F280A4"/>
</g>
<g opacity="0.24">
<path d="M176.83 663.54C248.246 663.54 306.14 656.247 306.14 647.25C306.14 638.253 248.246 630.96 176.83 630.96C105.414 630.96 47.52 638.253 47.52 647.25C47.52 656.247 105.414 663.54 176.83 663.54Z" fill="#F280A4"/>
</g>
</svg>
