<svg width="166" height="192" viewBox="0 0 166 192" fill="none" xmlns="http://www.w3.org/2000/svg">
<path d="M45.77 151.02C45.77 173.27 43.53 191.31 40.76 191.31C37.99 191.31 35.75 173.27 35.75 151.02C35.75 128.77 37.99 110.73 40.76 110.73C43.53 110.73 45.77 128.77 45.77 151.02Z" fill="#FEEE52"/>
<path d="M40.75 155.93C63.0015 155.93 81.0399 153.732 81.0399 151.02C81.0399 148.308 63.0015 146.11 40.75 146.11C18.4984 146.11 0.459961 148.308 0.459961 151.02C0.459961 153.732 18.4984 155.93 40.75 155.93Z" fill="#FEEE52"/>
<path d="M37.94 148.21C46.61 139.54 54.9 133.77 56.45 135.32C58 136.87 52.23 145.16 43.56 153.83C34.89 162.5 26.6 168.27 25.05 166.72C23.5 165.17 29.27 156.88 37.94 148.21Z" fill="#FEEE52"/>
<path d="M43.56 148.21C52.23 156.88 58 165.17 56.45 166.72C54.9 168.27 46.61 162.5 37.94 153.83C29.27 145.16 23.5 136.87 25.05 135.32C26.6 133.77 34.89 139.54 43.56 148.21Z" fill="#FEEE52"/>
<path d="M145.73 23.4501C145.73 35.9301 144.47 46.0501 142.92 46.0501C141.37 46.0501 140.11 35.9301 140.11 23.4501C140.11 10.9701 141.37 0.850098 142.92 0.850098C144.47 0.850098 145.73 10.9701 145.73 23.4501Z" fill="#FEEE52"/>
<path d="M142.92 26.2002C155.402 26.2002 165.52 24.969 165.52 23.4502C165.52 21.9314 155.402 20.7002 142.92 20.7002C130.438 20.7002 120.32 21.9314 120.32 23.4502C120.32 24.969 130.438 26.2002 142.92 26.2002Z" fill="#FEEE52"/>
<path d="M141.34 21.8702C146.2 17.0102 150.85 13.7702 151.72 14.6402C152.59 15.5102 149.35 20.1603 144.49 25.0203C139.63 29.8803 134.98 33.1202 134.11 32.2502C133.24 31.3802 136.48 26.7302 141.34 21.8702Z" fill="#FEEE52"/>
<path d="M144.49 21.8702C149.35 26.7302 152.59 31.3802 151.72 32.2502C150.85 33.1202 146.2 29.8803 141.34 25.0203C136.48 20.1603 133.24 15.5102 134.11 14.6402C134.98 13.7702 139.63 17.0102 144.49 21.8702Z" fill="#FEEE52"/>
</svg>
