<svg width="175" height="185" viewBox="0 0 175 185" fill="none" xmlns="http://www.w3.org/2000/svg">
<path d="M138.78 143.76C138.78 166.01 136.54 184.05 133.77 184.05C131 184.05 128.76 166.01 128.76 143.76C128.76 121.51 131 103.47 133.77 103.47C136.54 103.47 138.78 121.51 138.78 143.76Z" fill="#FEEE52"/>
<path d="M133.77 148.67C156.022 148.67 174.06 146.472 174.06 143.76C174.06 141.048 156.022 138.85 133.77 138.85C111.518 138.85 93.48 141.048 93.48 143.76C93.48 146.472 111.518 148.67 133.77 148.67Z" fill="#FEEE52"/>
<path d="M130.96 140.95C139.63 132.28 147.92 126.51 149.47 128.06C151.02 129.61 145.25 137.9 136.58 146.57C127.91 155.24 119.62 161.01 118.07 159.46C116.52 157.91 122.29 149.62 130.96 140.95Z" fill="#FEEE52"/>
<path d="M136.58 140.95C145.25 149.62 151.02 157.91 149.47 159.46C147.92 161.01 139.63 155.24 130.96 146.57C122.29 137.9 116.52 129.61 118.07 128.06C119.62 126.51 127.91 132.28 136.58 140.95Z" fill="#FEEE52"/>
<path d="M25.6801 23.35C25.6801 35.83 24.42 45.95 22.87 45.95C21.32 45.95 20.0601 35.83 20.0601 23.35C20.0601 10.87 21.32 0.75 22.87 0.75C24.42 0.75 25.6801 10.87 25.6801 23.35Z" fill="#FEEE52"/>
<path d="M22.87 26.1001C35.3516 26.1001 45.47 24.8689 45.47 23.3501C45.47 21.8313 35.3516 20.6001 22.87 20.6001C10.3884 20.6001 0.27002 21.8313 0.27002 23.3501C0.27002 24.8689 10.3884 26.1001 22.87 26.1001Z" fill="#FEEE52"/>
<path d="M21.2902 21.7799C26.1502 16.9199 30.8002 13.6799 31.6702 14.5499C32.5402 15.4199 29.3001 20.0699 24.4401 24.9299C19.5801 29.7899 14.9302 33.0299 14.0602 32.1599C13.1902 31.2899 16.4302 26.6399 21.2902 21.7799Z" fill="#FEEE52"/>
<path d="M24.4499 21.7799C29.3099 26.6399 32.55 31.2899 31.68 32.1599C30.81 33.0299 26.16 29.7899 21.3 24.9299C16.44 20.0699 13.1999 15.4199 14.0699 14.5499C14.9399 13.6799 19.5899 16.9199 24.4499 21.7799Z" fill="#FEEE52"/>
</svg>
