<svg width="640" height="333" viewBox="0 0 640 333" fill="none" xmlns="http://www.w3.org/2000/svg">
<path d="M578.06 17.5199H74.7401C40.8901 17.5199 13.4401 44.9599 13.4401 78.8199V212.79C13.4401 246.64 40.8801 274.09 74.7401 274.09H113.35C113.49 294.42 108.28 314.81 98.0601 332.39C123.09 331.23 147.67 321.75 166.99 305.79C177.71 296.94 186.76 286.12 193.71 274.08H578.06C611.91 274.08 639.36 246.64 639.36 212.78V78.8099C639.36 44.9599 611.92 17.5099 578.06 17.5099V17.5199Z" fill="#FEEE52"/>
<path d="M564.97 0.939941H61.6501C27.8001 0.939941 0.350098 28.3799 0.350098 62.2399V196.21C0.350098 230.06 27.7901 257.51 61.6501 257.51H100.26C100.4 277.84 95.1901 298.23 84.9701 315.81C110 314.65 134.58 305.17 153.9 289.21C164.62 280.36 173.67 269.54 180.62 257.5H564.97C598.82 257.5 626.27 230.06 626.27 196.2V62.2299C626.27 28.38 598.83 0.929932 564.97 0.929932V0.939941Z" fill="#FFF8C7"/>
<path d="M62.2202 155.69H51.4402V153.61C51.4402 149.58 50.2502 147.87 47.5402 147.87C45.1902 147.87 44.1402 149.11 44.1402 151.72C44.1402 160.39 62.7702 155.51 62.7702 171.33C62.7702 179.82 57.4702 184.66 47.8502 184.66C37.3902 184.66 32.7002 179.81 32.7002 170.72V168.16H43.6402V170.95C43.6402 174.22 44.9302 175.75 47.7502 175.75C50.2502 175.75 51.4902 174.41 51.4902 171.56C51.4902 164.55 32.8602 168.45 32.8602 152.43C32.8602 143.81 38.0002 138.97 47.4802 138.97C57.5502 138.97 62.2102 143.71 62.2102 153.83V155.7L62.2202 155.69Z" fill="#007DC5"/>
<path d="M66.9102 139.53H91.8902V149.04H78.1902V155.5H91.8902V163.83H78.1902V174.56H91.8902V184.07H66.9102V139.53Z" fill="#007DC5"/>
<path d="M107.08 157.16V184.06H95.8002V153.81C95.8002 144.01 101.31 138.95 111.9 138.95C122.49 138.95 127.98 144.01 127.98 153.81V184.06H116.7V157.16C116.7 150.52 115.57 148.44 111.9 148.44C108.23 148.44 107.08 150.52 107.08 157.16Z" fill="#007DC5"/>
<path d="M132.41 139.53H147.83C158.42 139.53 163.93 144.01 163.93 153.81V169.81C163.93 179.61 158.42 184.07 147.83 184.07H132.41V139.53ZM147.82 149.04H143.68V174.55H147.82C151.51 174.55 152.64 172.49 152.64 165.83V157.16C152.64 151.1 151.51 149.04 147.82 149.04Z" fill="#007DC5"/>
<path d="M193.1 157.16V184.06H181.82V153.81C181.82 144.01 186.7 138.95 196.13 138.95C201.74 138.95 205.75 140.74 208.07 144.27C210.39 140.74 214.37 138.95 220.01 138.95C229.42 138.95 234.29 144.01 234.29 153.81V184.06H223.01V157.16C223.01 150.52 221.88 148.44 218.21 148.44C214.54 148.44 213.39 150.52 213.39 157.16V184.06H202.72V157.16C202.72 150.52 201.59 148.44 197.92 148.44C194.25 148.44 193.1 150.52 193.1 157.16Z" fill="#007DC5"/>
<path d="M238.75 139.53H263.73V149.04H250.03V155.5H263.73V163.83H250.03V174.56H263.73V184.07H238.75V139.53Z" fill="#007DC5"/>
<path d="M281.34 184.07V153.82C281.34 144.02 286.87 138.96 297.44 138.96C308.01 138.96 313.52 144.02 313.52 153.82V184.07H302.24V166.39H292.65V184.07H281.35H281.34ZM292.65 157.16V158.05H302.24V157.16C302.24 150.52 301.11 148.44 297.44 148.44C293.77 148.44 292.64 150.52 292.64 157.16H292.65Z" fill="#007DC5"/>
<path d="M342.7 157.16V184.06H331.42V153.81C331.42 144.01 336.3 138.95 345.73 138.95C351.34 138.95 355.35 140.74 357.67 144.27C359.99 140.74 363.97 138.95 369.61 138.95C379.02 138.95 383.89 144.01 383.89 153.81V184.06H372.61V157.16C372.61 150.52 371.48 148.44 367.81 148.44C364.14 148.44 362.99 150.52 362.99 157.16V184.06H352.32V157.16C352.32 150.52 351.19 148.44 347.52 148.44C343.85 148.44 342.7 150.52 342.7 157.16Z" fill="#007DC5"/>
<path d="M388.35 139.53H413.33V149.04H399.63V155.5H413.33V163.83H399.63V174.56H413.33V184.07H388.35V139.53Z" fill="#007DC5"/>
<path d="M446.43 155.69H435.65V153.61C435.65 149.58 434.46 147.87 431.75 147.87C429.41 147.87 428.35 149.11 428.35 151.72C428.35 160.39 446.98 155.51 446.98 171.33C446.98 179.82 441.68 184.66 432.06 184.66C421.6 184.66 416.91 179.81 416.91 170.72V168.16H427.85V170.95C427.85 174.22 429.14 175.75 431.96 175.75C434.46 175.75 435.7 174.41 435.7 171.56C435.7 164.55 417.07 168.45 417.07 152.43C417.07 143.81 422.21 138.97 431.69 138.97C441.76 138.97 446.42 143.71 446.42 153.83V155.7L446.43 155.69Z" fill="#007DC5"/>
<path d="M480.03 155.69H469.25V153.61C469.25 149.58 468.06 147.87 465.35 147.87C463.01 147.87 461.95 149.11 461.95 151.72C461.95 160.39 480.58 155.51 480.58 171.33C480.58 179.82 475.28 184.66 465.66 184.66C455.2 184.66 450.51 179.81 450.51 170.72V168.16H461.45V170.95C461.45 174.22 462.74 175.75 465.56 175.75C468.06 175.75 469.3 174.41 469.3 171.56C469.3 164.55 450.67 168.45 450.67 152.43C450.67 143.81 455.81 138.97 465.29 138.97C475.36 138.97 480.02 143.71 480.02 153.83V155.7L480.03 155.69Z" fill="#007DC5"/>
<path d="M484.12 184.07V153.82C484.12 144.02 489.65 138.96 500.22 138.96C510.79 138.96 516.3 144.02 516.3 153.82V184.07H505.02V166.39H495.43V184.07H484.13H484.12ZM495.43 157.16V158.05H505.02V157.16C505.02 150.52 503.89 148.44 500.22 148.44C496.55 148.44 495.42 150.52 495.42 157.16H495.43Z" fill="#007DC5"/>
<path d="M519.86 153.81C519.86 144.01 525.29 138.95 535.67 138.95C546.05 138.95 551.45 143.96 551.45 152.84H540.01C540.01 149.86 538.69 148.44 535.82 148.44C532.16 148.44 531.16 150.81 531.16 157.16V166.44C531.16 173.13 532.21 175.16 535.82 175.16C537.56 175.16 539.4 174.69 540.17 174.16V165.2H535.66V156.87H551.44V179.08C547.94 182.53 542.16 184.64 536.5 184.64C525.27 184.64 519.85 179.61 519.85 169.8V153.8L519.86 153.81Z" fill="#007DC5"/>
<path d="M555.6 139.53H580.58V149.04H566.88V155.5H580.58V163.83H566.88V174.56H580.58V184.07H555.6V139.53Z" fill="#007DC5"/>
<path d="M584.38 139.53H595.92L595.39 169.05H584.9L584.37 139.53H584.38ZM590.15 173.5C593.58 173.5 595.84 175.05 595.84 179.03C595.84 183.01 593.57 184.59 590.15 184.59C586.73 184.59 584.46 183.01 584.46 179.03C584.46 175.05 586.73 173.5 590.15 173.5Z" fill="#007DC5"/>
<path d="M37.1102 121.63V86.21H47.5702C51.3602 86.21 54.2402 86.99 56.2002 88.56C58.1602 90.13 59.1402 92.44 59.1402 95.49C59.1402 97.32 58.6402 98.92 57.6402 100.27C56.6402 101.63 55.2802 102.6 53.5402 103.18C55.6002 103.64 57.2602 104.65 58.5102 106.22C59.7702 107.79 60.3902 109.61 60.3902 111.67C60.3902 114.8 59.3802 117.24 57.3602 119C55.3402 120.76 52.5302 121.64 48.9302 121.64H37.0802L37.1102 121.63ZM40.1002 102.1H48.2702C50.7702 102.05 52.7002 101.46 54.0702 100.33C55.4402 99.2 56.1302 97.55 56.1302 95.39C56.1302 93.12 55.4202 91.44 54.0002 90.36C52.5802 89.28 50.4402 88.74 47.5702 88.74H40.1002V102.09V102.1ZM40.1002 104.63V119.1H49.0802C51.6402 119.1 53.6702 118.45 55.1702 117.14C56.6702 115.83 57.4202 114.03 57.4202 111.71C57.4202 109.52 56.7002 107.8 55.2702 106.53C53.8302 105.26 51.8502 104.62 49.3202 104.62H40.1002V104.63Z" fill="#007DC5"/>
<path d="M80.8702 106.87H70.5802V121.64H67.5602V86.22H79.0602C82.8402 86.22 85.7902 87.13 87.9102 88.97C90.0302 90.8 91.1002 93.36 91.1002 96.65C91.1002 98.92 90.4402 100.92 89.1102 102.65C87.7802 104.38 86.0002 105.58 83.7602 106.25L92.6102 121.33V121.65H89.4202L80.8602 106.88L80.8702 106.87ZM70.5802 104.34H79.7502C82.2602 104.34 84.2802 103.63 85.8102 102.2C87.3302 100.77 88.1002 98.92 88.1002 96.65C88.1002 94.15 87.3102 92.21 85.7202 90.83C84.1302 89.45 81.9002 88.76 79.0302 88.76H70.5902V104.35L70.5802 104.34Z" fill="#007DC5"/>
<path d="M118.81 104.66H102.25V119.11H121.29V121.64H99.2502V86.22H121.17V88.75H102.25V102.13H118.81V104.66Z" fill="#007DC5"/>
<path d="M146.71 111.69H130.63L126.98 121.64H123.84L137.24 86.22H140.09L153.49 121.64H150.38L146.71 111.69ZM131.56 109.16H145.77L138.67 89.87L131.57 109.16H131.56Z" fill="#007DC5"/>
<path d="M166.68 104.05L161.69 108.96V121.63H158.7V86.21H161.69V105.3L179.84 86.21H183.61L168.77 101.97L184.75 121.62H181.1L166.68 104.03V104.05Z" fill="#007DC5"/>
<path d="M225.3 88.75H213.16V121.64H210.17V88.75H198.06V86.22H225.3V88.75Z" fill="#007DC5"/>
<path d="M257.27 121.63H254.25V104.65H234.01V121.63H231.02V86.21H234.01V102.12H254.25V86.21H257.27V121.63Z" fill="#007DC5"/>
<path d="M285.82 104.66H269.26V119.11H288.3V121.64H266.26V86.22H288.18V88.75H269.26V102.13H285.82V104.66Z" fill="#007DC5"/>
<path d="M329.77 88.75H317.63V121.64H314.64V88.75H302.53V86.22H329.77V88.75Z" fill="#007DC5"/>
<path d="M348.72 106.87H338.43V121.64H335.41V86.22H346.92C350.7 86.22 353.65 87.13 355.77 88.97C357.89 90.8 358.96 93.36 358.96 96.65C358.96 98.92 358.29 100.92 356.97 102.65C355.64 104.38 353.86 105.58 351.62 106.25L360.47 121.33V121.65H357.28L348.72 106.88V106.87ZM338.43 104.34H347.6C350.11 104.34 352.13 103.63 353.66 102.2C355.18 100.77 355.95 98.92 355.95 96.65C355.95 94.15 355.16 92.21 353.57 90.83C351.98 89.45 349.75 88.76 346.88 88.76H338.44V104.35L338.43 104.34Z" fill="#007DC5"/>
<path d="M386.23 111.69H370.15L366.5 121.64H363.36L376.76 86.22H379.61L393.01 121.64H389.9L386.23 111.69ZM371.08 109.16H385.29L378.19 89.87L371.09 109.16H371.08Z" fill="#007DC5"/>
<path d="M424.59 121.63H421.6L401.24 91.32V121.63H398.22V86.21H401.24L421.62 116.54V86.21H424.59V121.63Z" fill="#007DC5"/>
<path d="M458.67 110.59C458.26 114.32 456.93 117.17 454.67 119.15C452.41 121.13 449.4 122.12 445.63 122.12C443 122.12 440.68 121.46 438.66 120.15C436.64 118.84 435.08 116.98 433.98 114.57C432.88 112.16 432.32 109.41 432.3 106.31V101.71C432.3 98.56 432.85 95.77 433.95 93.34C435.05 90.91 436.64 89.03 438.7 87.71C440.76 86.39 443.15 85.73 445.84 85.73C449.63 85.73 452.63 86.75 454.83 88.79C457.03 90.83 458.3 93.66 458.66 97.28H455.64C454.89 91.26 451.63 88.26 445.84 88.26C442.63 88.26 440.07 89.46 438.17 91.86C436.27 94.26 435.31 97.58 435.31 101.82V106.15C435.31 110.24 436.24 113.5 438.1 115.94C439.96 118.38 442.47 119.59 445.63 119.59C448.79 119.59 451.12 118.84 452.71 117.34C454.3 115.84 455.28 113.59 455.65 110.59H458.67Z" fill="#007DC5"/>
<path d="M485.5 104.66H468.94V119.11H487.98V121.64H465.94V86.22H487.86V88.75H468.94V102.13H485.5V104.66Z" fill="#007DC5"/>
<path d="M525.51 111.69H509.43L505.78 121.64H502.64L516.04 86.22H518.89L532.29 121.64H529.18L525.51 111.69ZM510.36 109.16H524.57L517.47 89.87L510.37 109.16H510.36Z" fill="#007DC5"/>
<path d="M563.87 121.63H560.88L540.52 91.32V121.63H537.5V86.21H540.52L560.9 116.54V86.21H563.87V121.63Z" fill="#007DC5"/>
<path d="M572.87 121.63V86.21H582.77C585.67 86.21 588.27 86.87 590.58 88.19C592.89 89.51 594.68 91.4 595.97 93.87C597.26 96.34 597.9 99.14 597.9 102.29V105.55C597.9 108.71 597.26 111.52 595.98 113.97C594.7 116.42 592.9 118.31 590.57 119.64C588.24 120.97 585.57 121.63 582.56 121.63H572.88H572.87ZM575.86 88.75V119.11H582.57C586.3 119.11 589.29 117.87 591.55 115.4C593.81 112.93 594.93 109.58 594.93 105.36V102.24C594.93 98.17 593.82 94.9 591.6 92.45C589.38 90 586.45 88.76 582.82 88.75H575.86Z" fill="#007DC5"/>
</svg>
