<svg width="1153" height="913" viewBox="0 0 1153 913" fill="none" xmlns="http://www.w3.org/2000/svg">
<path d="M786.04 250.52C814.83 366.91 903.25 445.17 983.54 425.31C1063.83 405.45 1105.57 295 1076.79 178.61C1048 62.2203 959.58 -16.0397 879.29 3.82032C799 23.6803 757.26 134.13 786.04 250.52Z" fill="#96D0DE"/>
<path d="M676.59 604.51C730.49 606.99 784.4 609.47 838.3 611.95C858.83 612.89 881.88 613.15 900.39 600.78C919.36 588.11 926.93 566.48 943.41 551.23C957.15 538.51 977.04 531.47 994.49 532.41C997.26 539.22 1000.22 545.92 1003.3 552.55C1003.94 558.94 1005.57 565.13 1008.01 571.03C1017.11 619.47 1029.22 668.16 1041.86 716.29C1030.6 723.93 1018.61 731.14 1005.46 737.75C942.84 769.25 869.66 780.04 803.65 783.32C737.64 786.6 697.16 779.48 633.88 772.79C636.13 765.14 660.1 654.33 676.6 604.51H676.59Z" fill="#F49AC1"/>
<path d="M889.49 45.1103C923.02 36.8203 953.79 58.3803 969.15 71.9703C999.61 98.9303 1023.79 141.52 1035.49 188.82C1058.67 282.52 1028.05 359.52 985.07 379.83C981.3 381.61 977.35 383.02 973.32 384.02C939.79 392.31 909.02 370.75 893.66 357.16C863.2 330.2 839.02 287.61 827.32 240.31C804.14 146.61 834.75 69.6103 877.73 49.3003C881.51 47.5203 885.46 46.1103 889.49 45.1103ZM786.04 250.52C814.83 366.91 903.25 445.17 983.54 425.31C990.4 423.61 996.98 421.26 1003.25 418.29C1070.45 386.54 1103.12 285.06 1076.79 178.61C1048 62.2203 959.58 -16.0397 879.29 3.82032C872.43 5.52032 865.85 7.87031 859.58 10.8403C792.38 42.5903 759.71 144.07 786.04 250.52Z" fill="#F49AC1"/>
<path d="M949.7 394.78L1020.34 723.93C1027.86 760.74 1051.4 782.69 1087.41 771.98C1123.42 761.27 1126.99 732.13 1113.17 697.2L997.28 380.64L949.7 394.79V394.78Z" fill="#F49AC1"/>
<path d="M922.79 543.97C927.87 553.64 937.47 562.57 949.57 567.08C964.86 572.78 988.27 580.19 1003.61 570.21C1008.29 580.43 1017.98 585.13 1028.31 587.63C1022.32 591.6 1018.11 597.85 1018.86 605.85C1019.94 617.29 1028.76 624.5 1038.68 628.06C1036.09 631.01 1034.44 634.8 1034.6 639.75C1034.91 649.76 1042.82 658.07 1051.09 662.3C1063.09 668.44 1076.84 666.89 1088.79 665.18C1098.02 663.86 1107.5 661.79 1116.19 658.25C1131.38 657.44 1149.54 651.1 1152.09 633.3C1153.42 624.03 1150.37 614.31 1143.9 608.59C1149.28 598.51 1146.4 585.45 1137.26 575.49C1132.64 570.45 1126.59 566.57 1120.51 565.02C1122.24 558.5 1121.44 551.25 1117.05 544.47C1113.1 538.36 1107.6 534.52 1101.62 532.54C1106.66 534.21 1099.68 512.88 1098.76 511.36C1084.94 488.66 1050.13 491.75 1030.38 494.79C1020.47 496.32 1004.92 499.97 999.92 510.15C998.6 512.83 998.04 515.26 997.79 517.59C983.72 508.84 964.54 505.35 949.34 506.06C918.96 507.49 913.82 526.88 922.79 543.97ZM1015.04 540.74C1014.95 540.25 1014.78 539.79 1014.66 539.3C1015.26 539.58 1015.83 539.89 1016.45 540.16C1015.96 540.3 1015.52 540.59 1015.04 540.74Z" fill="#F49AC1"/>
<path d="M727.42 378.14H55.1304C2.66332 378.14 -39.8696 420.673 -39.8696 473.14V941.62C-39.8696 994.087 2.66332 1036.62 55.1304 1036.62H727.42C779.887 1036.62 822.42 994.087 822.42 941.62V473.14C822.42 420.673 779.887 378.14 727.42 378.14Z" fill="#F49AC1"/>
<path d="M322.19 541.76C285.99 496.91 223.15 475.42 167.07 488.71C120.21 499.81 81.5101 531.95 45.7601 564.22C-73.0999 671.53 -52.8999 665.32 -146.42 795.3C-146.75 795.31 -147.1 795.3 -147.43 795.3C-150.81 800.42 -154.19 805.54 -157.56 810.66C-158.31 811.72 -159.1 812.75 -159.85 813.82C-159.79 813.83 -159.73 813.85 -159.67 813.86C-172.03 832.6 -184.39 851.33 -196.76 870.07C-201.02 876.52 -205.37 883.21 -206.73 890.82C-208.09 898.43 -205.66 907.27 -198.98 911.16C-195.96 912.92 -192.2 912.88 -188.88 911.79C-193.34 920.67 -192.25 932.72 -184.35 939.1C-177.73 944.44 -168.14 944.34 -160.64 940.51C-164.32 950.06 -162.51 962.08 -154.16 968.31C-144.59 975.45 -130.09 972.25 -122.34 963.61C-124.94 970.49 -125.86 977.6 -121.28 982.92C-116.35 988.65 -107.16 988.88 -100.39 985.52C-93.6199 982.15 -88.7099 976.04 -84.0199 970.11C-65.4899 946.67 -46.9499 923.23 -28.4199 899.79C-30.6899 911.34 -29.2599 923.49 -24.7599 934.36C-18.6099 949.24 3.30013 948.33 7.37013 932.75C10.1001 922.3 10.6501 910.49 11.5401 899.78C13.2801 878.69 18.9101 858.08 27.2801 838.64C114.28 726.35 141.54 625.43 322.2 541.77L322.19 541.76Z" fill="#F49AC1"/>
<path d="M232.83 721.761C278.76 720.901 315.29 682.981 314.44 637.061C313.58 591.141 275.66 554.601 229.74 555.451C183.82 556.311 147.28 594.231 148.13 640.151C148.99 686.081 186.91 722.611 232.83 721.761Z" fill="white"/>
<path d="M171.4 581.93C171.4 581.57 171.44 581.22 171.43 580.85C186.19 565.55 206.79 555.88 229.72 555.45C275.65 554.59 313.57 591.13 314.43 637.06C314.86 660 305.96 680.93 291.22 696.26C290.86 696.27 290.51 696.33 290.15 696.34C225.77 697.54 172.6 646.32 171.4 581.94V581.93Z" fill="#231F20"/>
<path d="M561.6 715.64C607.52 714.78 644.06 676.86 643.21 630.94C642.35 585.01 604.43 548.48 558.51 549.33C512.58 550.19 476.05 588.11 476.9 634.03C477.76 679.96 515.68 716.49 561.6 715.64Z" fill="white"/>
<path d="M500.18 575.801C500.18 575.441 500.22 575.091 500.21 574.721C514.97 559.421 535.57 549.751 558.5 549.321C604.42 548.461 642.35 585.001 643.21 630.931C643.64 653.871 634.74 674.801 620 690.131C619.64 690.141 619.29 690.201 618.93 690.211C554.55 691.411 501.38 640.191 500.19 575.811L500.18 575.801Z" fill="#231F20"/>
<path d="M458.32 658.681C453.38 646.941 439.89 638.591 427.58 641.901C414.6 645.401 405.91 660.741 392.48 662.721C379 661.241 369.74 646.231 356.64 643.221C344.22 640.371 331.05 649.211 326.55 661.131C322.06 673.051 325.04 686.831 331.78 697.641C343.94 717.121 369.94 727.031 393.66 725.851C417.41 726.151 443.02 715.271 454.44 695.351C460.78 684.301 463.25 670.421 458.31 658.681H458.32Z" fill="#231F20"/>
<path d="M372.08 651.771C372.62 671.321 376.96 696.18 399.28 690.8C409.94 688.23 414.21 677.32 414.66 667.43C414.93 661.52 414.71 655.51 414.32 649.5C407.42 655.02 400.88 661.48 392.49 662.72C384.81 661.88 378.5 656.66 372.08 651.76V651.771Z" fill="white"/>
</svg>
