<svg width="1220" height="653" viewBox="0 0 1220 653" fill="none" xmlns="http://www.w3.org/2000/svg">
<path d="M852.33 0.699951H197.03C144.508 0.699951 101.93 43.2778 101.93 95.8V557.27C101.93 609.792 144.508 652.37 197.03 652.37H852.33C904.852 652.37 947.43 609.792 947.43 557.27V95.8C947.43 43.2778 904.852 0.699951 852.33 0.699951Z" fill="#007DC5"/>
<path d="M814.73 211.25C863.95 204.32 913.17 197.4 962.4 190.48C981.15 187.84 1002.05 184.15 1016.71 169.8C1031.73 155.1 1034.9 134.23 1047.22 117.62C1057.5 103.77 1074.31 94.01 1090.26 91.89C1093.92 97.58 1097.74 103.15 1101.66 108.62C1103.33 114.3 1105.86 119.62 1109.07 124.55C1125.55 166.86 1144.8 208.87 1164.42 250.3C1155.53 259.13 1145.89 267.7 1135.12 275.92C1083.79 315.09 1019.37 337.31 960.17 351.51C900.97 365.71 863.11 366.15 804.68 370.86C805.42 363.55 808.27 259.15 814.73 211.25Z" fill="#007DC5"/>
<path d="M523.55 23.3399C506.08 7.62992 491.36 3.77991 481.08 3.20991C463.22 2.20991 453.27 10.7799 423.89 9.57991C416.36 9.26991 413.98 8.57997 407.84 9.26997C389.64 11.3 378.43 20.9099 370.88 25.4699C346.59 40.1399 315.69 29.38 306.79 28.14C278.99 24.28 215.21 78.6299 57.24 334.49C56.91 334.52 56.55 334.51 56.22 334.54C53.03 339.86 49.83 345.17 46.65 350.49C45.94 351.59 45.18 352.67 44.47 353.78C44.53 353.78 44.59 353.8 44.65 353.81C32.97 373.27 21.29 392.73 9.60999 412.18C5.58999 418.88 1.47999 425.82 0.439993 433.57C-0.600007 441.31 2.22999 450.14 9.14999 453.78C12.27 455.42 16.07 455.22 19.38 453.98C15.26 463.14 16.88 475.27 25.13 481.37C32.05 486.48 41.73 485.96 49.14 481.77C45.84 491.57 48.18 503.64 56.88 509.57C66.86 516.37 81.36 512.51 88.82 503.45C86.49 510.51 85.87 517.74 90.73 522.91C95.96 528.48 105.25 528.32 111.94 524.63C118.63 520.94 123.33 514.55 127.81 508.36C145.52 483.89 163.23 459.41 180.94 434.94C179.14 446.7 181.12 458.91 186.12 469.69C192.98 484.45 215.07 482.59 218.5 466.68C220.81 456.01 220.86 444.05 221.29 433.2C222.14 411.82 226.93 390.76 234.55 370.77C317.58 253.6 344.68 115.63 523.55 23.3399Z" fill="#007DC5"/>
<path d="M251.35 188.94C249.97 192.15 248.71 195.44 247.69 198.88C233.54 246.48 260.66 296.53 308.26 310.67C355.85 324.81 405.9 297.7 420.05 250.1C421.07 246.67 421.82 243.22 422.41 239.78L251.35 188.94Z" fill="white"/>
<path d="M276.96 196.55C275.42 199.7 273.96 202.91 272.93 206.38C262.93 240.03 282.1 275.42 315.76 285.43C349.41 295.43 384.8 276.26 394.81 242.6C395.84 239.13 396.37 235.64 396.8 232.17L276.97 196.56L276.96 196.55Z" fill="#231F20"/>
<path d="M639.58 239.44C640.64 242.77 641.85 246.08 643.33 249.34C663.83 294.56 717.11 314.61 762.33 294.11C807.55 273.61 827.6 220.33 807.1 175.11C805.62 171.85 803.93 168.76 802.12 165.76L639.58 239.43V239.44Z" fill="white"/>
<path d="M663.92 228.41C664.82 231.8 665.82 235.18 667.31 238.47C681.8 270.45 719.48 284.62 751.46 270.13C783.44 255.64 797.61 217.96 783.11 185.99C781.62 182.69 779.73 179.71 777.78 176.8L663.92 228.41Z" fill="#231F20"/>
<path d="M246.33 194.91C305.89 208.33 364.18 225.59 421.44 246.77C442.6 254.6 451.36 220.6 430.34 212.83C373.07 191.65 314.79 174.39 255.23 160.97C233.25 156.02 224.25 189.94 246.33 194.91Z" fill="#231F20"/>
<path d="M791.91 141.81C734.45 162.46 678.73 186.76 624.51 214.82C604.64 225.11 617.44 257.8 637.52 247.41C691.74 219.34 747.46 195.04 804.92 174.4C826.19 166.76 813.15 134.18 791.91 141.81Z" fill="#231F20"/>
<path d="M560.58 286.55C538.87 300.5 510.93 300.93 488.8 287.66C475.22 277.66 455.19 293.79 476.08 308.92C506.26 327.01 544.35 326.42 573.96 307.4C594.34 291.65 573.87 276.1 560.59 286.54L560.58 286.55Z" fill="#231F20"/>
<path d="M1069.6 113.5C1066.87 129 1071.38 149.07 1085.75 161.61C1090.89 166.09 1096.06 168.56 1099.5 169.91C1092.76 172.96 1087.44 178.61 1086.88 186.87C1086.08 198.68 1093.86 207.47 1103.36 212.72C1100.24 215.29 1097.94 218.87 1097.28 223.93C1095.94 234.16 1102.61 243.91 1110.32 249.58C1121.5 257.81 1135.73 258.5 1148.17 258.73C1157.77 258.91 1167.75 258.37 1177.16 256.21C1192.74 257.9 1212.25 254.45 1217.78 236.77C1220.66 227.56 1219.17 217.18 1213.54 210.3C1220.68 200.94 1219.9 187.19 1212.25 175.56C1208.38 169.68 1202.87 164.73 1196.95 162.15C1199.78 155.81 1200.17 148.3 1196.83 140.68C1193.82 133.81 1188.87 129.01 1183.12 126C1187.96 128.53 1184.4 105.69 1183.71 103.99C1173.41 78.6299 1137.51 76.0299 1116.93 75.8499C1094.84 75.6599 1085.75 84.18 1083.43 86.43C1080.75 89.03 1078.31 92.44 1078.14 92.68C1077.44 93.66 1071.6 102.07 1069.59 113.48L1069.6 113.5ZM1093.75 120.04C1093.74 119.53 1093.64 119.03 1093.6 118.52C1094.17 118.9 1094.7 119.32 1095.28 119.69C1094.76 119.75 1094.27 119.97 1093.75 120.05V120.04Z" fill="#007DC5"/>
</svg>
