<svg width="460" height="459" viewBox="0 0 460 459" fill="none" xmlns="http://www.w3.org/2000/svg">
<mask id="mask0_56_2032" style="mask-type:luminance" maskUnits="userSpaceOnUse" x="0" y="0" width="460" height="459">
<path d="M230 458.98C356.744 458.98 459.49 356.234 459.49 229.49C459.49 102.746 356.744 0 230 0C103.256 0 0.509766 102.746 0.509766 229.49C0.509766 356.234 103.256 458.98 230 458.98Z" fill="white"/>
</mask>
<g mask="url(#mask0_56_2032)">
<mask id="mask1_56_2032" style="mask-type:luminance" maskUnits="userSpaceOnUse" x="-133" y="-2" width="710" height="474">
<path d="M576.98 -1.6001H-132.8V471.59H576.98V-1.6001Z" fill="white"/>
</mask>
<g mask="url(#mask1_56_2032)">
<mask id="mask2_56_2032" style="mask-type:luminance" maskUnits="userSpaceOnUse" x="148" y="165" width="128" height="143">
<path d="M199.93 225.31L201.11 220.48L203.1 218.54C203.81 217.85 204.65 217.11 205.6 216.8L208.51 215.96C209.06 215.76 209.64 215.66 210.22 215.67C210.31 215.67 213.64 215.54 213.73 215.55L218.7 216.68L227.47 220.32L235.45 226.75C235.76 227.02 239.56 231.1 239.76 231.46L244.29 239.62L243.73 251.95L236.78 261.04L225.28 265.12L212.39 264.01L200.8 259.47L189.4 251.96L182.63 244.91L176.42 236.19L170.95 224.97L168.26 209.86V198.73L173.08 185.01L180.87 175.37L193.95 165.7L183.29 171.09L177.6 174.94L168.88 182.6L161.88 190.96L156.99 198.76L153.97 205.03L150.98 213.42L148.98 222.3L148.2 229.15L148.26 239.78L149.4 248.13L151.83 257.33L154.31 263.73L159.15 272.91L166.34 282.62L173.3 289.57L179.61 294.5L190.51 300.78L200.74 304.66L210.28 306.83L219.98 307.72L231.84 307.05L243.69 304.4L252.02 301.24L257.8 297.01L265.77 289.72L271.46 279.95L273.87 273.65L275.42 263.45L274.86 253.81L271.71 241.32L268.25 233.99L262.25 224.7L256.19 217.96L249.64 212.52C249.64 212.52 241.23 207.76 240.99 207.64C240.74 207.52 232.4 204.43 232.4 204.43L222.76 202.7L215.16 203.44L209.35 205.42L204.22 209.56L200.57 215L199.15 219.39L199.91 225.32L199.93 225.31Z" fill="white"/>
</mask>
<g mask="url(#mask2_56_2032)">
<path d="M275.44 165.71H203.24V307.74H275.44V165.71Z" fill="#E093AF"/>
<path d="M203.23 165.71H148.19V307.74H203.23V165.71Z" fill="#E093AF"/>
</g>
<mask id="mask3_56_2032" style="mask-type:luminance" maskUnits="userSpaceOnUse" x="168" y="161" width="128" height="143">
<path d="M244.15 247.07L241.92 250.96L238.03 253.46L231.17 254.29L224.4 252.9L214.29 247.71L203.54 237.88L199.74 229.35L200.3 217.02L207.25 207.93L218.75 203.85L231.64 204.96L243.23 209.5L254.63 217.01L261.4 224.06L267.61 232.78L273.08 244L275.77 259.11V270.24L270.95 283.96L263.16 293.6L250.08 303.27L260.74 297.88L266.43 294.03L275.15 286.37L282.15 278.01L287.04 270.21L290.06 263.94L293.05 255.55L295.05 246.67L295.83 239.82L295.77 229.19L294.63 220.84L292.2 211.64L289.72 205.24L284.88 196.06L277.69 186.35L270.73 179.4L264.42 174.47L253.52 168.19L243.29 164.31L233.75 162.14L224.05 161.25L212.19 161.92L200.34 164.57L192.01 167.73L186.23 171.96L178.26 179.25L172.57 189.02L170.16 195.32L168.61 205.52L169.17 215.16L172.32 227.65L175.78 234.99L181.78 244.28L187.84 251.02L194.39 256.46C194.39 256.46 202.8 261.22 203.04 261.34C203.29 261.46 211.63 264.55 211.63 264.55L221.27 266.28L228.87 265.54L234.68 263.56L239.81 259.42L243.46 253.98L244.88 249.59L244.17 247.06L244.15 247.07Z" fill="white"/>
</mask>
<g mask="url(#mask3_56_2032)">
<path d="M240.79 161.26H168.59V303.29H240.79V161.26Z" fill="#E093AF"/>
<path d="M295.83 161.26H240.79V303.29H295.83V161.26Z" fill="#E093AF"/>
</g>
<g opacity="0.35">
<path d="M232.88 255.12C230.05 255.12 226.899 254.53 223.589 253.34C211.089 248.85 200.18 237.08 199.26 227.1C198.88 222.98 200.18 219.64 203.01 217.45C207.05 214.32 213.56 214.03 220.88 216.66C233.38 221.15 244.289 232.92 245.209 242.9C245.589 247.02 244.289 250.36 241.459 252.55C239.249 254.26 236.299 255.12 232.889 255.12H232.88ZM211.609 216.49C208.529 216.49 205.889 217.23 203.989 218.71C201.609 220.56 200.519 223.41 200.849 226.96C201.719 236.38 212.16 247.55 224.13 251.85C230.82 254.25 236.939 254.05 240.489 251.3C242.869 249.45 243.96 246.6 243.63 243.05C242.76 233.63 232.319 222.46 220.349 218.16C217.249 217.05 214.269 216.49 211.619 216.49H211.609Z" fill="white"/>
<path d="M233.34 256.74C229.5 256.74 225.1 255.59 220.62 253.33C207.98 246.94 198.27 233.61 198.98 223.59C199.26 219.67 201.05 216.66 204.17 214.89C208.94 212.18 216.3 212.84 223.85 216.65C236.49 223.04 246.2 236.38 245.49 246.39C245.21 250.31 243.42 253.32 240.3 255.09C238.36 256.19 235.98 256.74 233.34 256.74ZM211.13 214.83C208.77 214.83 206.66 215.31 204.95 216.28C202.32 217.77 200.8 220.34 200.57 223.71C199.9 233.14 209.22 245.79 221.35 251.91C228.42 255.48 235.21 256.15 239.52 253.71C242.15 252.22 243.67 249.65 243.9 246.28C244.57 236.85 235.25 224.2 223.12 218.08C218.86 215.93 214.7 214.83 211.13 214.83Z" fill="white"/>
<path d="M233.35 258.44C228.55 258.44 222.94 256.52 217.45 252.88C204.96 244.59 196.81 229.88 199.27 220.09C200.2 216.42 202.48 213.78 205.87 212.47C211.45 210.31 219.35 212.05 227 217.13C239.49 225.42 247.64 240.13 245.18 249.92C244.25 253.59 241.97 256.23 238.58 257.54C237 258.15 235.24 258.45 233.35 258.45V258.44ZM211.14 213.14C209.44 213.14 207.86 213.41 206.46 213.95C203.57 215.07 201.62 217.33 200.83 220.48C198.51 229.67 206.37 243.61 218.34 251.55C225.56 256.34 232.92 258.02 238.02 256.05C240.91 254.93 242.86 252.67 243.65 249.52C245.97 240.33 238.11 226.39 226.14 218.45C220.91 214.98 215.61 213.14 211.14 213.14Z" fill="white"/>
<path d="M232.92 260.1C227.14 260.1 220.36 257.19 214.13 251.93C202.12 241.79 195.87 225.96 200.2 216.66C201.77 213.28 204.55 211.06 208.25 210.24C214.62 208.83 222.87 211.76 230.34 218.06C242.35 228.2 248.6 244.03 244.27 253.33C242.7 256.71 239.92 258.93 236.22 259.75C235.17 259.98 234.06 260.1 232.92 260.1ZM201.64 217.33C197.6 226.03 203.66 241.01 215.16 250.72C222.25 256.71 229.99 259.5 235.88 258.21C239.07 257.51 241.47 255.59 242.83 252.68C246.87 243.98 240.81 229 229.31 219.29C222.22 213.3 214.48 210.51 208.59 211.8C205.4 212.5 203 214.42 201.64 217.33Z" fill="white"/>
<path d="M232.11 261.66C225.27 261.66 217.36 257.54 210.73 250.48C199.55 238.57 195.53 221.94 201.77 213.41C204 210.36 207.31 208.61 211.34 208.37C218.4 207.92 226.77 212.11 233.73 219.52C244.91 231.43 248.93 248.06 242.69 256.59C240.46 259.64 237.15 261.39 233.12 261.63C232.79 261.65 232.45 261.66 232.11 261.66ZM212.36 209.92C212.05 209.92 211.74 209.92 211.44 209.95C207.9 210.17 205 211.69 203.06 214.35C197.25 222.29 201.22 238.01 211.9 249.39C218.54 256.46 226.43 260.45 233.03 260.04C236.57 259.82 239.47 258.3 241.41 255.64C247.22 247.7 243.25 231.98 232.57 220.6C226.24 213.85 218.76 209.92 212.36 209.92Z" fill="white"/>
<path d="M230.97 263.08C230.41 263.08 229.83 263.05 229.25 262.99C221.67 262.25 213.48 256.84 207.33 248.51C197.34 234.98 195.85 217.91 204.01 210.45C206.94 207.77 210.82 206.57 215.22 207C222.8 207.74 230.99 213.15 237.14 221.48C247.13 235.01 248.61 252.08 240.46 259.54C237.91 261.87 234.66 263.07 230.97 263.07V263.08ZM205.08 211.62C197.51 218.55 199.09 234.67 208.6 247.56C214.48 255.53 222.26 260.71 229.39 261.4C233.32 261.79 236.78 260.73 239.37 258.36C246.94 251.43 245.36 235.31 235.85 222.42C229.97 214.45 222.19 209.27 215.06 208.58C211.12 208.19 207.67 209.25 205.08 211.62Z" fill="white"/>
<path d="M229.52 264.3C227.93 264.3 226.27 264.08 224.59 263.64C216.77 261.6 209.07 255.02 204.01 246.04C195.58 231.1 196.88 213.98 206.91 207.89C210.61 205.64 215.1 205.11 219.88 206.36C227.7 208.4 235.4 214.98 240.46 223.96C248.89 238.9 247.59 256.02 237.56 262.11C235.17 263.57 232.44 264.3 229.53 264.3H229.52ZM207.73 209.24C198.42 214.89 197.37 231.05 205.39 245.25C210.25 253.86 217.57 260.15 224.99 262.09C229.34 263.23 233.4 262.76 236.73 260.74C246.03 255.09 247.08 238.93 239.07 224.73C234.21 216.12 226.89 209.83 219.47 207.89C215.12 206.75 211.06 207.22 207.73 209.24Z" fill="white"/>
<path d="M227.92 265.28C217.51 265.28 206.28 256.47 200.86 243.08C197.08 233.75 196.81 223.67 200.12 216.11C202.32 211.1 205.88 207.54 210.44 205.82C222.21 201.38 237.1 210.85 243.61 226.93C247.39 236.26 247.66 246.34 244.35 253.9C242.15 258.91 238.59 262.47 234.03 264.19C232.07 264.93 230.01 265.28 227.93 265.28H227.92ZM211 207.3C206.86 208.86 203.6 212.13 201.58 216.74C198.44 223.92 198.72 233.54 202.34 242.47C208.53 257.76 222.49 266.82 233.47 262.69C237.61 261.13 240.87 257.86 242.89 253.25C246.03 246.07 245.75 236.45 242.13 227.52C235.94 212.23 221.97 203.17 211 207.3Z" fill="white"/>
<path d="M226.21 266.01C214.01 266.01 201.84 254.97 197.98 239.64C195.58 230.12 196.77 220.65 201.23 213.65C204.46 208.58 209.07 205.36 214.55 204.32C227.9 201.79 242.22 213.46 246.47 230.34C248.87 239.86 247.68 249.34 243.22 256.33C239.98 261.4 235.38 264.62 229.9 265.66C228.68 265.89 227.44 266 226.21 266V266.01ZM214.85 205.89C209.81 206.85 205.57 209.83 202.58 214.51C198.35 221.14 197.24 230.15 199.53 239.25C203.58 255.33 217.07 266.48 229.61 264.1C234.65 263.14 238.89 260.16 241.88 255.48C246.11 248.85 247.22 239.84 244.93 230.74C240.88 214.66 227.38 203.51 214.85 205.89Z" fill="white"/>
<path d="M224.609 266.5C210.139 266.5 197.149 252.88 195.489 235.8C194.579 226.5 197.189 217.63 202.639 211.44C206.999 206.5 212.889 203.68 219.219 203.5C233.949 203.13 247.299 216.86 248.989 234.19C249.899 243.49 247.289 252.36 241.839 258.55C237.479 263.49 231.589 266.31 225.259 266.49C225.049 266.49 224.829 266.49 224.619 266.49L224.609 266.5ZM219.259 205.09C213.369 205.25 207.889 207.88 203.829 212.49C198.669 218.34 196.199 226.78 197.069 235.64C198.659 251.92 210.939 264.91 224.609 264.91C224.809 264.91 225.009 264.91 225.209 264.91C231.099 264.74 236.579 262.12 240.639 257.51C245.799 251.66 248.269 243.22 247.399 234.36C245.809 218.08 233.529 205.1 219.859 205.1C219.659 205.1 219.459 205.1 219.259 205.1V205.09Z" fill="white"/>
<path d="M223.28 266.77C222.23 266.77 221.18 266.71 220.13 266.58C204.28 264.69 192.31 249 193.44 231.6C194.02 222.76 197.98 214.66 204.32 209.39C209.99 204.67 217.1 202.55 224.32 203.41C240.17 205.3 252.14 220.99 251.01 238.39C250.43 247.23 246.47 255.33 240.13 260.6C235.28 264.63 229.39 266.77 223.28 266.77ZM221.18 204.82C215.43 204.82 209.9 206.83 205.34 210.62C199.33 215.61 195.58 223.3 195.03 231.71C193.95 248.27 205.29 263.21 220.32 265C227.1 265.81 233.78 263.81 239.12 259.38C245.13 254.39 248.88 246.7 249.43 238.29C250.51 221.73 239.17 206.79 224.14 205C223.15 204.88 222.16 204.82 221.18 204.82Z" fill="white"/>
<path d="M222.41 266.87C219.82 266.87 217.21 266.54 214.64 265.87C197.97 261.52 187.8 244.15 191.97 227.13C194.02 218.78 199.15 211.8 206.42 207.47C213.52 203.24 221.83 202.06 229.81 204.14C246.49 208.49 256.65 225.86 252.48 242.88C250.43 251.23 245.3 258.21 238.03 262.54C233.22 265.41 227.85 266.88 222.4 266.88L222.41 266.87ZM222.05 204.72C216.89 204.72 211.8 206.11 207.24 208.83C200.34 212.94 195.47 219.58 193.52 227.5C189.55 243.68 199.2 260.19 215.04 264.32C222.61 266.29 230.49 265.17 237.22 261.16C244.12 257.05 248.99 250.41 250.94 242.49C254.91 226.31 245.26 209.8 229.42 205.67C226.98 205.03 224.51 204.72 222.05 204.72Z" fill="white"/>
<path d="M222.09 266.86C217.67 266.86 213.19 266.04 208.88 264.31C200.34 260.88 193.83 254.47 190.56 246.28C187.47 238.54 187.68 230.08 191.16 222.47C198.53 206.33 218.45 198.81 235.58 205.69C244.12 209.12 250.63 215.53 253.9 223.72C256.99 231.46 256.78 239.92 253.3 247.53C247.78 259.6 235.23 266.86 222.09 266.86ZM222.35 204.72C209.82 204.72 197.86 211.62 192.61 223.12C189.31 230.34 189.11 238.35 192.04 245.68C195.15 253.46 201.34 259.55 209.48 262.82C225.82 269.39 244.83 262.23 251.85 246.86C255.15 239.64 255.35 231.63 252.42 224.3C249.31 216.52 243.12 210.43 234.98 207.16C230.86 205.5 226.57 204.72 222.35 204.72Z" fill="white"/>
<path d="M222.76 266.88C216 266.88 209.14 265.26 202.98 261.87C194.32 257.1 188.22 249.36 186.26 240.64C184.47 232.68 186.18 224.54 191.09 217.74C201.72 202.99 224.33 198.68 241.49 208.13C250.15 212.9 256.25 220.64 258.21 229.36C260 237.32 258.29 245.46 253.38 252.26C246.56 261.72 234.82 266.88 222.76 266.88ZM221.68 204.69C210.12 204.69 198.89 209.62 192.37 218.66C187.73 225.09 186.11 232.77 187.8 240.28C189.66 248.56 195.47 255.92 203.74 260.47C220.22 269.54 241.91 265.44 252.08 251.32C256.72 244.89 258.34 237.21 256.65 229.7C254.79 221.42 248.98 214.06 240.71 209.51C234.78 206.25 228.18 204.69 221.68 204.69Z" fill="white"/>
<path d="M224.53 267.09C214.9 267.09 205.05 264.26 197.06 258.55C188.51 252.44 183.28 243.77 182.71 234.78C182.2 226.68 185.42 218.97 191.8 213.06C205.69 200.19 230.63 199.47 247.4 211.46C255.95 217.57 261.18 226.23 261.75 235.23C262.26 243.33 259.04 251.04 252.66 256.95C245.39 263.69 235.1 267.09 224.53 267.09ZM219.92 204.48C209.75 204.48 199.86 207.75 192.88 214.22C186.86 219.8 183.81 227.07 184.29 234.68C184.83 243.2 189.82 251.43 197.98 257.26C214.17 268.83 238.21 268.17 251.58 255.78C257.6 250.2 260.65 242.93 260.17 235.32C259.63 226.8 254.64 218.57 246.48 212.74C238.75 207.21 229.22 204.48 219.92 204.48Z" fill="white"/>
<path d="M227.41 267.65C214.42 267.65 200.87 263.04 191.28 254.34C183.22 247.04 179.07 237.74 179.89 228.83C180.64 220.64 185.43 213.44 193.36 208.55C210.41 198.03 237.25 201.22 253.19 215.66C261.25 222.96 265.4 232.26 264.58 241.17C263.83 249.36 259.04 256.56 251.11 261.45C244.33 265.63 235.99 267.65 227.41 267.65ZM217.08 203.91C208.79 203.91 200.74 205.85 194.19 209.89C186.69 214.51 182.17 221.29 181.46 228.97C180.69 237.38 184.65 246.2 192.34 253.16C207.79 267.15 233.77 270.26 250.27 260.09C257.77 255.47 262.29 248.69 263 241.01C263.77 232.6 259.81 223.78 252.12 216.82C242.81 208.39 229.66 203.9 217.08 203.9V203.91Z" fill="white"/>
<path d="M231.11 268.71C214.4 268.71 196.47 261.5 185.79 249.29C178.46 240.91 175.6 231.52 177.74 222.86C179.78 214.61 186.19 208.03 195.79 204.35C215.84 196.65 244.06 203.99 258.69 220.72C266.02 229.1 268.88 238.49 266.74 247.15C264.7 255.4 258.29 261.98 248.69 265.66C243.28 267.74 237.28 268.72 231.11 268.72V268.71ZM213.41 202.86C207.42 202.86 201.6 203.81 196.35 205.83C187.26 209.32 181.19 215.51 179.28 223.24C177.26 231.38 180 240.26 186.98 248.24C201.21 264.5 228.63 271.65 248.11 264.17C257.2 260.68 263.27 254.49 265.18 246.76C267.2 238.62 264.46 229.74 257.48 221.76C247.09 209.88 229.65 202.86 213.41 202.86Z" fill="white"/>
<path d="M235.21 270.37C214.57 270.37 191.74 259.52 180.75 243.44C174.54 234.36 172.93 224.92 176.23 216.87C179.62 208.59 187.74 202.8 199.07 200.58C221.87 196.12 250.86 207.78 263.71 226.56C269.92 235.64 271.53 245.08 268.23 253.13C264.84 261.41 256.72 267.2 245.39 269.41C242.1 270.05 238.69 270.36 235.21 270.36V270.37ZM209.31 201.21C205.92 201.21 202.59 201.51 199.38 202.14C188.59 204.25 180.89 209.7 177.7 217.47C174.61 225.01 176.16 233.91 182.06 242.54C192.77 258.21 215.03 268.79 235.15 268.79C238.54 268.79 241.87 268.49 245.08 267.86C255.87 265.75 263.57 260.31 266.76 252.53C269.85 244.99 268.3 236.09 262.4 227.46C251.69 211.79 229.43 201.21 209.31 201.21Z" fill="white"/>
<path d="M239.34 272.64C214.6 272.64 186.67 256.89 176.34 236.86C171.45 227.38 171.12 218.13 175.41 210.83C180.18 202.71 190.32 197.81 203.24 197.38C228.45 196.58 257.55 212.58 268.14 233.13C273.03 242.61 273.36 251.86 269.07 259.16C264.3 267.28 254.16 272.18 241.24 272.61C240.61 272.63 239.98 272.64 239.34 272.64ZM205.14 198.94C204.52 198.94 203.9 198.95 203.28 198.97C190.92 199.38 181.26 204 176.77 211.64C172.77 218.45 173.12 227.15 177.74 236.13C188.08 256.19 216.5 271.84 241.17 271.02C253.53 270.61 263.19 265.99 267.68 258.35C271.68 251.54 271.33 242.84 266.71 233.86C256.63 214.31 229.33 198.94 205.14 198.94Z" fill="white"/>
<path d="M243.08 275.53C240.88 275.53 238.6 275.4 236.26 275.13C209.1 272.02 180.59 251.63 172.72 229.68C169.27 220.07 170.2 211.23 175.32 204.76C181.63 196.8 193.62 193.2 208.22 194.87C235.38 197.98 263.89 218.37 271.76 240.32C275.21 249.92 274.28 258.77 269.16 265.24C263.87 271.92 254.57 275.53 243.09 275.53H243.08ZM201.37 196.06C190.39 196.06 181.55 199.46 176.56 205.75C171.79 211.77 170.96 220.07 174.21 229.14C181.9 250.57 209.81 270.49 236.43 273.54C250.47 275.15 261.94 271.76 267.9 264.24C272.67 258.22 273.5 249.91 270.25 240.85C262.56 219.42 234.65 199.5 208.03 196.45C205.74 196.19 203.51 196.06 201.37 196.06Z" fill="white"/>
<path d="M246.029 278.92C241.209 278.92 235.989 278.23 230.489 276.82C201.879 269.5 174.759 244.91 170.039 222C168.089 212.52 170.229 204.23 176.079 198.66C184.059 191.05 197.869 189.04 213.969 193.16C242.579 200.48 269.689 225.07 274.419 247.98C276.369 257.46 274.229 265.75 268.379 271.32C263.119 276.33 255.339 278.91 246.029 278.91V278.92ZM198.409 192.66C189.529 192.66 182.139 195.09 177.179 199.82C171.669 205.08 169.739 212.64 171.599 221.69C176.209 244.06 202.799 268.11 230.879 275.29C246.429 279.27 259.699 277.41 267.269 270.18C272.779 264.92 274.709 257.36 272.849 248.31C268.239 225.94 241.649 201.89 213.569 194.71C208.199 193.33 203.089 192.66 198.409 192.66Z" fill="white"/>
<path d="M247.89 282.7C240.69 282.7 232.58 281 224.03 277.61C194.57 265.91 169.65 237.37 168.48 214C168.01 204.72 171.25 197.32 177.84 192.6C187.62 185.59 203.14 185.51 220.42 192.37C249.88 204.07 274.8 232.61 275.97 255.98C276.44 265.26 273.2 272.66 266.61 277.38C261.67 280.92 255.25 282.69 247.89 282.69V282.7ZM196.61 188.95C189.54 188.95 183.39 190.6 178.78 193.9C172.65 198.29 169.64 205.21 170.08 213.93C171.22 236.74 195.69 264.65 224.63 276.14C241.15 282.7 256.5 282.69 265.69 276.1C271.82 271.71 274.83 264.79 274.39 256.07C273.25 233.26 248.78 205.35 219.84 193.86C211.6 190.59 203.65 188.95 196.61 188.95Z" fill="white"/>
<path d="M248.71 286.6C239.18 286.6 228.13 283.47 216.98 277.39C187.35 261.23 165.45 229.13 168.17 205.85C169.2 197.06 173.56 190.43 180.79 186.69C192.3 180.73 209.76 182.94 227.48 192.61C257.11 208.77 279.01 240.87 276.29 264.15C275.26 272.94 270.9 279.57 263.67 283.31C259.4 285.52 254.32 286.6 248.71 286.6ZM195.77 184.97C190.41 184.97 185.58 186 181.52 188.1C174.78 191.59 170.71 197.79 169.75 206.03C167.1 228.72 188.63 260.11 217.74 275.99C235 285.4 251.9 287.61 262.94 281.89C269.68 278.4 273.75 272.2 274.71 263.96C277.36 241.27 255.83 209.88 226.72 194C215.79 188.04 205.01 184.97 195.77 184.97Z" fill="white"/>
<path d="M248.43 290.61C236.68 290.61 222.829 285.54 209.449 276.06C180.379 255.46 162.33 220.32 169.22 197.73C171.72 189.53 177.21 183.78 185.1 181.08C198.52 176.49 217.18 181.3 235.01 193.93C264.08 214.53 282.13 249.67 275.24 272.26C272.74 280.46 267.25 286.21 259.36 288.91C256.01 290.05 252.34 290.61 248.43 290.61ZM196.06 180.96C192.32 180.96 188.81 181.49 185.62 182.59C178.23 185.11 173.09 190.51 170.75 198.2C164.05 220.18 181.83 254.53 210.38 274.77C227.79 287.11 245.91 291.83 258.85 287.41C266.24 284.89 271.38 279.49 273.73 271.8C280.43 249.82 262.65 215.47 234.1 195.23C220.99 185.94 207.47 180.96 196.07 180.96H196.06Z" fill="white"/>
<path d="M247.15 294.5C233.07 294.5 216.52 286.99 201.6 273.58C173.89 248.67 160.49 211.12 171.73 189.87C175.71 182.35 182.37 177.56 191 176.03C206.26 173.32 225.64 180.94 242.86 196.41C270.57 221.32 283.97 258.87 272.73 280.12C268.75 287.64 262.09 292.43 253.46 293.96C251.42 294.32 249.32 294.5 247.15 294.5ZM197.34 177.08C195.26 177.08 193.23 177.25 191.28 177.6C183.16 179.05 176.88 183.55 173.14 190.62C162.22 211.26 175.46 247.95 202.67 272.4C219.53 287.55 238.42 295.03 253.19 292.4C261.31 290.95 267.59 286.45 271.33 279.38C282.25 258.73 269 222.05 241.8 197.6C227.17 184.45 211.01 177.08 197.34 177.08Z" fill="white"/>
<path d="M245.05 298.13C228.4 298.13 209.24 287.63 193.6 269.9C168.07 240.95 160.07 201.75 175.77 182.5C181.29 175.73 189.21 172.05 198.67 171.87C215.47 171.56 235 182.09 250.87 200.09C276.4 229.04 284.4 268.24 268.7 287.49C263.18 294.26 255.26 297.94 245.8 298.12C245.55 298.12 245.3 298.12 245.04 298.12L245.05 298.13ZM199.42 173.46C199.18 173.46 198.93 173.46 198.69 173.46C189.72 173.63 182.21 177.11 177 183.51C161.78 202.18 169.76 240.46 194.79 268.85C210.12 286.24 228.85 296.54 245.04 296.54C245.28 296.54 245.53 296.54 245.77 296.54C254.74 296.37 262.25 292.89 267.46 286.49C282.68 267.82 274.7 229.54 249.67 201.15C234.34 183.76 215.61 173.46 199.42 173.46Z" fill="white"/>
<path d="M242.11 301.38C240.21 301.38 238.26 301.24 236.27 300.96C218.36 298.45 199.43 285.01 185.63 265.02C163.13 232.42 161.21 192.42 181.34 175.86C188.53 169.94 197.82 167.58 208.19 169.04C226.1 171.55 245.03 184.99 258.83 204.98C281.33 237.58 283.25 277.58 263.12 294.14C257.31 298.92 250.13 301.38 242.11 301.38ZM202.36 170.21C194.71 170.21 187.88 172.54 182.35 177.09C162.84 193.14 164.9 232.18 186.94 264.12C200.49 283.76 219.01 296.94 236.49 299.39C246.41 300.78 255.26 298.54 262.11 292.91C281.62 276.86 279.56 237.82 257.52 205.88C243.97 186.24 225.45 173.06 207.97 170.61C206.06 170.34 204.19 170.21 202.36 170.21Z" fill="white"/>
<path d="M238.54 304.13C234.15 304.13 229.58 303.42 224.93 301.99C206.61 296.37 189.03 280.28 177.92 258.94C159.3 223.2 164.03 183.38 188.46 170.17C197.5 165.28 208.25 164.53 219.55 167.99C237.87 173.61 255.45 189.7 266.56 211.04C285.18 246.78 280.44 286.6 256.01 299.81C250.7 302.68 244.79 304.13 238.54 304.13ZM205.93 167.45C199.93 167.45 194.28 168.83 189.21 171.57C165.54 184.37 161.1 223.23 179.32 258.21C190.24 279.18 207.46 294.98 225.39 300.47C236.27 303.8 246.6 303.09 255.25 298.41C278.92 285.61 283.36 246.75 265.14 211.77C254.22 190.8 237 175 219.07 169.51C214.57 168.13 210.16 167.44 205.93 167.44V167.45Z" fill="white"/>
<path d="M234.64 306.3C209.35 306.3 182.52 284.34 170.65 251.73C162.65 229.76 162.92 206.31 171.37 189.02C177.07 177.34 185.95 169.27 197.04 165.68C225.48 156.48 259.92 180.06 273.82 218.26C281.82 240.23 281.55 263.67 273.1 280.97C267.4 292.65 258.52 300.72 247.43 304.31C243.27 305.66 238.98 306.3 234.64 306.3ZM209.86 165.27C205.67 165.27 201.54 165.89 197.52 167.19C186.85 170.65 178.3 178.43 172.79 189.71C164.53 206.63 164.29 229.61 172.14 251.18C185.75 288.58 219.31 311.73 246.94 302.79C257.61 299.33 266.16 291.54 271.67 280.26C279.93 263.34 280.17 240.36 272.32 218.79C260.68 186.82 234.48 165.26 209.86 165.26V165.27Z" fill="white"/>
<path d="M230.61 307.89C200.85 307.89 171.9 280.51 164.07 243.47C159.37 221.24 163.03 199.39 174.11 183.52C182.32 171.75 193.69 164.51 206.98 162.59C239.04 157.94 271.95 186.63 280.38 226.52C285.07 248.75 281.42 270.6 270.34 286.47C262.13 298.24 250.76 305.48 237.47 307.4C235.18 307.73 232.89 307.89 230.61 307.89ZM213.87 163.69C211.65 163.69 209.43 163.85 207.22 164.17C194.38 166.03 183.38 173.04 175.42 184.44C164.59 199.95 161.03 221.35 165.63 243.15C173.89 282.23 206.01 310.35 237.24 305.83C250.08 303.97 261.08 296.96 269.03 285.56C279.86 270.05 283.419 248.65 278.819 226.85C271.149 190.54 242.88 163.69 213.86 163.69H213.87Z" fill="white"/>
<path d="M226.96 308.9C226.74 308.9 226.51 308.9 226.29 308.9C191.14 308.47 160.7 275 158.43 234.28C157.23 212.75 164.18 192.43 177.5 178.53C188.27 167.28 202.46 161.11 217.51 161.11C217.73 161.11 217.96 161.11 218.18 161.11C253.33 161.54 283.77 195.01 286.04 235.73C287.24 257.26 280.29 277.58 266.97 291.48C256.2 302.73 242.01 308.9 226.96 308.9ZM217.51 162.69C202.89 162.69 189.12 168.69 178.64 179.62C165.63 193.21 158.84 213.09 160.01 234.19C162.23 274.09 191.96 306.89 226.3 307.31C241.15 307.54 255.19 301.48 265.82 290.38C278.83 276.79 285.62 256.91 284.45 235.81C282.23 195.91 252.5 163.11 218.16 162.69C217.94 162.69 217.72 162.69 217.51 162.69Z" fill="white"/>
<path d="M224.06 309.41C220.74 309.41 217.39 309.15 214.04 308.62C176.4 302.7 149.43 264.87 153.93 224.29C156.18 203.95 166.28 185.56 181.62 173.85C195.73 163.08 213.06 158.65 230.43 161.38C268.07 167.3 295.04 205.13 290.54 245.71C288.29 266.05 278.19 284.44 262.85 296.15C251.46 304.85 237.97 309.41 224.06 309.41ZM220.41 162.18C206.84 162.18 193.69 166.63 182.58 175.11C167.58 186.57 157.71 204.55 155.51 224.47C151.11 264.22 177.47 301.26 214.29 307.05C231.23 309.71 248.13 305.39 261.89 294.88C276.89 283.42 286.76 265.44 288.96 245.52C293.36 205.77 267 168.73 230.18 162.94C226.92 162.43 223.65 162.17 220.41 162.17V162.18Z" fill="white"/>
<path d="M222.33 309.57C215.18 309.57 208 308.53 200.95 306.43C181.87 300.75 166.14 287.97 156.67 270.46C147.2 252.95 145.11 232.79 150.79 213.71C156.47 194.63 169.25 178.9 186.76 169.43C204.27 159.96 224.43 157.87 243.51 163.55C262.59 169.23 278.32 182.01 287.79 199.52C297.26 217.03 299.35 237.19 293.67 256.27C287.99 275.35 275.21 291.08 257.7 300.55C246.65 306.53 234.55 309.56 222.33 309.56V309.57ZM222.13 162.01C210.17 162.01 198.33 164.98 187.51 170.83C170.37 180.1 157.87 195.49 152.31 214.17C146.75 232.85 148.79 252.57 158.06 269.71C167.33 286.85 182.72 299.35 201.4 304.91C220.08 310.47 239.8 308.43 256.94 299.16C274.08 289.89 286.58 274.5 292.14 255.82C297.7 237.14 295.66 217.42 286.39 200.28C277.12 183.14 261.73 170.64 243.05 165.08C236.16 163.03 229.12 162.01 222.13 162.01Z" fill="white"/>
</g>
<mask id="mask4_56_2032" style="mask-type:luminance" maskUnits="userSpaceOnUse" x="44" y="68" width="307" height="342">
<path d="M168.92 211.77L171.75 200.2L176.53 195.54C178.23 193.88 180.25 192.1 182.52 191.37L189.51 189.35C190.82 188.87 192.21 188.63 193.61 188.65C193.82 188.65 201.82 188.33 202.02 188.35L213.95 191.07L234.98 199.81L254.11 215.23C254.85 215.88 263.96 225.66 264.44 226.52L275.32 246.09L273.99 275.67L257.31 297.46L229.74 307.24L198.83 304.57L171.03 293.67L143.68 275.66L127.45 258.76L112.55 237.86L99.4296 210.95L92.9796 174.7V148.02L104.54 115.11L123.22 91.98L154.59 68.79L129.02 81.72L115.38 90.96L94.4596 109.32L77.6696 129.37L65.9496 148.07L58.6996 163.1L51.5296 183.21L46.7196 204.52L44.8496 220.94L44.9996 246.44L47.7396 266.46L53.5696 288.53L59.5096 303.87L71.1296 325.89L88.3796 349.19L105.07 365.87L120.21 377.7L146.35 392.76L170.89 402.08L193.78 407.29L217.05 409.43L245.49 407.83L273.92 401.47L293.91 393.88L307.78 383.72L326.9 366.23L340.54 342.81L346.32 327.69L350.03 303.23L348.7 280.1L341.14 250.15L332.84 232.56L318.46 210.27L303.93 194.11L288.22 181.06C288.22 181.06 268.06 169.64 267.47 169.35C266.88 169.06 246.86 161.64 246.86 161.64L223.73 157.49L205.5 159.27L191.56 164.01L179.26 173.94L170.51 186.99L167.1 197.52L168.93 211.74L168.92 211.77Z" fill="white"/>
</mask>
<g mask="url(#mask4_56_2032)">
<path d="M350.029 68.8101H176.859V409.45H350.029V68.8101Z" fill="#E093AF"/>
<path d="M176.87 68.8101H44.8496V409.45H176.87V68.8101Z" fill="#E093AF"/>
</g>
<mask id="mask5_56_2032" style="mask-type:luminance" maskUnits="userSpaceOnUse" x="93" y="58" width="306" height="341">
<path d="M275 263.95L269.66 273.29L260.32 279.29L243.86 281.29L227.63 277.95L203.39 265.5L177.59 241.93L168.47 221.47L169.8 191.89L186.48 170.1L214.05 160.32L244.96 162.99L272.76 173.89L300.11 191.9L316.34 208.8L331.24 229.7L344.36 256.61L350.81 292.86V319.54L339.25 352.45L320.57 375.58L289.2 398.77L314.77 385.84L328.41 376.6L349.33 358.24L366.12 338.19L377.84 319.49L385.09 304.46L392.26 284.35L397.07 263.04L398.94 246.62L398.79 221.12L396.05 201.1L390.22 179.03L384.28 163.69L372.66 141.67L355.41 118.37L338.72 101.69L323.58 89.8599L297.44 74.7999L272.9 65.4799L250.01 60.2699L226.74 58.1299L198.3 59.7299L169.87 66.0899L149.88 73.6799L136.01 83.8399L116.89 101.33L103.25 124.75L97.4697 139.87L93.7598 164.33L95.0897 187.46L102.65 217.41L110.95 235L125.33 257.29L139.86 273.45L155.57 286.5C155.57 286.5 175.73 297.92 176.32 298.21C176.91 298.51 196.93 305.92 196.93 305.92L220.06 310.07L238.29 308.29L252.23 303.55L264.53 293.62L273.28 280.57L276.69 270.04L274.99 263.96L275 263.95Z" fill="white"/>
</mask>
<g mask="url(#mask5_56_2032)">
<path d="M266.94 58.1299H93.7695V398.77H266.94V58.1299Z" fill="#E093AF"/>
<path d="M398.95 58.1299H266.93V398.77H398.95V58.1299Z" fill="#E093AF"/>
</g>
<g opacity="0.35">
<path d="M247.97 282.15C241.31 282.15 233.88 280.75 226.05 277.93C196.45 267.3 170.6 239.49 168.43 215.95C167.56 206.47 170.52 198.8 177.01 193.78C186.4 186.51 201.63 185.88 218.81 192.05C248.41 202.68 274.26 230.49 276.43 254.03C277.3 263.51 274.34 271.18 267.85 276.2C262.75 280.15 255.91 282.14 247.98 282.14L247.97 282.15ZM196.96 189.5C189.33 189.5 182.74 191.36 177.98 195.05C171.95 199.72 169.19 206.9 170.01 215.82C172.13 238.81 197.51 266 226.58 276.45C242.99 282.35 258.05 281.79 266.87 274.96C272.9 270.29 275.66 263.11 274.84 254.19C272.72 231.2 247.34 204.01 218.27 193.56C210.72 190.85 203.46 189.5 196.96 189.5Z" fill="white"/>
<path d="M249.06 286.05C240.03 286.05 229.64 283.32 219.06 277.98C189.1 262.85 166.08 231.33 167.76 207.73C168.4 198.71 172.51 191.8 179.64 187.75C190.76 181.44 208.01 183.03 225.78 192C255.74 207.13 278.76 238.65 277.08 262.25C276.44 271.27 272.33 278.18 265.2 282.23C260.7 284.78 255.19 286.05 249.05 286.05H249.06ZM195.79 185.52C189.93 185.52 184.69 186.71 180.42 189.14C173.77 192.91 169.94 199.38 169.34 207.85C167.71 230.87 190.33 261.7 219.78 276.57C237.07 285.3 253.76 286.9 264.42 280.86C271.07 277.09 274.9 270.62 275.5 262.15C277.13 239.13 254.51 208.3 225.06 193.43C214.7 188.2 204.55 185.52 195.79 185.52Z" fill="white"/>
<path d="M249.08 290.12C237.81 290.12 224.56 285.57 211.58 276.95C181.98 257.32 162.64 222.57 168.45 199.51C170.58 191.06 175.82 185.01 183.61 181.99C196.66 176.94 215.23 181.07 233.27 193.05C262.87 212.68 282.21 247.43 276.4 270.49C274.27 278.94 269.03 284.99 261.24 288.01C257.58 289.43 253.48 290.12 249.08 290.12ZM169.99 199.89C164.33 222.36 183.38 256.33 212.45 275.62C230.07 287.31 248.09 291.38 260.66 286.52C267.95 283.7 272.85 278.02 274.85 270.1C280.51 247.63 261.46 213.66 232.39 194.37C214.77 182.68 196.75 178.61 184.18 183.47C176.89 186.29 171.99 191.97 169.99 199.89Z" fill="white"/>
<path d="M248.04 294.09C234.46 294.09 218.46 287.21 203.72 274.75C175.28 250.72 160.42 213.36 170.59 191.47C174.21 183.69 180.62 178.58 189.12 176.7C204.06 173.4 223.5 180.33 241.13 195.23C269.57 219.26 284.44 256.62 274.26 278.51C270.64 286.29 264.23 291.4 255.73 293.28C253.28 293.82 250.71 294.09 248.04 294.09ZM172.03 192.15C162.14 213.44 176.81 249.95 204.74 273.55C222 288.13 240.93 294.93 255.39 291.74C263.39 289.97 269.42 285.17 272.82 277.86C282.71 256.57 268.04 220.06 240.11 196.46C222.85 181.88 203.92 175.08 189.46 178.27C181.46 180.04 175.43 184.84 172.03 192.15Z" fill="white"/>
<path d="M246.11 297.84C230.01 297.84 211.34 288.09 195.65 271.37C169.19 243.18 159.59 203.93 174.25 183.88C179.4 176.83 187.05 172.8 196.37 172.23C212.96 171.22 232.73 181.08 249.2 198.63C275.66 226.82 285.26 266.07 270.6 286.12C265.45 293.17 257.79 297.2 248.48 297.77C247.7 297.82 246.91 297.84 246.12 297.84H246.11ZM175.53 184.81C161.3 204.27 170.85 242.61 196.81 270.27C212.96 287.48 232.24 297.15 248.38 296.17C257.21 295.63 264.45 291.83 269.32 285.17C283.55 265.71 274 227.37 248.04 199.71C231.89 182.5 212.6 172.81 196.47 173.81C187.64 174.35 180.4 178.15 175.53 184.81Z" fill="white"/>
<path d="M243.37 301.23C242.05 301.23 240.71 301.16 239.35 301.03C221.49 299.29 202.13 286.47 187.57 266.75C163.95 234.75 160.31 194.46 179.47 176.94C186.27 170.72 195.27 167.96 205.5 168.95C223.36 170.69 242.72 183.51 257.28 203.23C280.9 235.23 284.54 275.52 265.38 293.04C259.48 298.43 251.94 301.22 243.37 301.22V301.23ZM201.49 170.35C193.32 170.35 186.14 173 180.54 178.12C161.97 195.1 165.69 234.44 188.85 265.81C203.15 285.18 222.08 297.76 239.5 299.45C249.26 300.4 257.84 297.78 264.3 291.87C282.87 274.89 279.15 235.55 255.99 204.18C241.69 184.81 222.76 172.23 205.33 170.54C204.02 170.41 202.74 170.35 201.48 170.35H201.49Z" fill="white"/>
<path d="M239.91 304.16C236.18 304.16 232.32 303.65 228.36 302.61C209.88 297.78 191.69 282.2 179.69 260.93C159.76 225.6 162.7 185.23 186.25 170.92C194.87 165.68 205.33 164.46 216.5 167.38C234.98 172.21 253.17 187.79 265.17 209.06C285.1 244.39 282.16 284.76 258.61 299.07C253.04 302.45 246.71 304.16 239.91 304.16ZM204.95 167.43C198.44 167.43 192.38 169.06 187.07 172.29C164.25 186.16 161.55 225.57 181.07 260.16C192.86 281.06 210.69 296.36 228.76 301.08C239.51 303.89 249.54 302.73 257.78 297.72C280.6 283.85 283.3 244.44 263.78 209.85C251.99 188.95 234.16 173.65 216.09 168.93C212.27 167.93 208.54 167.44 204.95 167.44V167.43Z" fill="white"/>
<path d="M236.05 306.51C211.54 306.51 185.04 285.65 172.2 253.95C163.25 231.85 162.58 207.99 170.41 190.13C175.55 178.38 183.9 170.06 194.53 166.05C222.21 155.62 257.26 178.04 272.65 216.05C281.6 238.15 282.27 262.01 274.44 279.87C269.3 291.62 260.95 299.94 250.32 303.95C245.73 305.68 240.92 306.51 236.05 306.51ZM195.09 167.53C184.86 171.38 176.83 179.42 171.86 190.76C164.2 208.24 164.88 231.64 173.67 253.35C186.26 284.43 212.15 304.93 236 304.93C240.71 304.93 245.33 304.13 249.76 302.46C259.99 298.61 268.02 290.57 272.99 279.23C280.65 261.75 279.97 238.35 271.18 216.64C256.11 179.43 221.98 157.39 195.09 167.53Z" fill="white"/>
<path d="M231.96 308.28C203.2 308.28 174.49 282.15 165.36 245.87C159.69 223.33 162.48 200.93 173.03 184.41C180.62 172.53 191.41 164.96 204.24 162.52C235.69 156.55 269.46 184.19 279.51 224.12C285.18 246.66 282.39 269.06 271.84 285.58C264.25 297.46 253.46 305.03 240.63 307.47C237.75 308.02 234.86 308.28 231.96 308.28ZM212.92 163.3C210.11 163.3 207.31 163.56 204.53 164.09C192.14 166.44 181.71 173.76 174.36 185.27C164.05 201.42 161.33 223.36 166.9 245.48C175.86 281.05 203.9 306.69 231.94 306.69C234.74 306.69 237.55 306.43 240.33 305.91C252.72 303.56 263.15 296.24 270.5 284.73C280.81 268.58 283.53 246.64 277.96 224.52C269 188.95 240.97 163.31 212.92 163.31V163.3Z" fill="white"/>
<path d="M228.12 309.44C193.98 309.44 163.32 277.22 159.38 236.81C157.23 214.82 163.39 193.83 176.26 179.23C186.51 167.61 200.35 160.98 215.22 160.56C215.72 160.55 216.23 160.54 216.73 160.54C250.87 160.54 281.53 192.76 285.47 233.17C287.62 255.16 281.46 276.15 268.59 290.75C258.34 302.37 244.5 309 229.63 309.42C229.13 309.43 228.62 309.44 228.12 309.44ZM216.73 162.14C216.24 162.14 215.75 162.14 215.26 162.16C200.83 162.56 187.4 169 177.45 180.29C164.87 194.56 158.86 215.1 160.96 236.66C164.83 276.27 194.78 307.85 228.12 307.85C228.61 307.85 229.1 307.85 229.59 307.83C244.02 307.43 257.45 300.99 267.4 289.7C279.98 275.43 285.99 254.89 283.89 233.33C280.02 193.72 250.07 162.14 216.73 162.14Z" fill="white"/>
<path d="M224.94 310.08C222.48 310.08 220 309.93 217.52 309.64C180.09 305.17 151.81 268.06 154.49 226.93C155.85 206.02 165.22 186.89 180.19 174.45C193.56 163.33 210.3 158.34 227.32 160.37C264.75 164.84 293.03 201.95 290.35 243.08C288.99 263.99 279.62 283.12 264.65 295.56C253.23 305.05 239.35 310.09 224.94 310.09V310.08ZM219.91 161.51C205.87 161.51 192.35 166.42 181.21 175.67C166.57 187.84 157.41 206.56 156.08 227.03C153.46 267.34 181.1 303.69 217.71 308.06C234.29 310.04 250.6 305.17 263.63 294.33C278.27 282.16 287.43 263.44 288.76 242.97C291.38 202.66 263.74 166.31 227.13 161.94C224.71 161.65 222.3 161.51 219.9 161.51H219.91Z" fill="white"/>
<path d="M222.85 310.32C216.73 310.32 210.58 309.54 204.5 307.95C165.09 297.68 141.06 256.6 150.94 216.38C155.78 196.66 167.91 180.16 185.08 169.92C201.85 159.92 221.47 157.13 240.34 162.04C279.75 172.31 303.78 213.39 293.9 253.61C289.06 273.33 276.93 289.84 259.76 300.07C248.4 306.85 235.72 310.31 222.85 310.31V310.32ZM222 161.26C209.42 161.26 197.02 164.65 185.9 171.28C169.09 181.3 157.23 197.45 152.49 216.76C142.82 256.14 166.34 296.36 204.91 306.41C223.36 311.22 242.56 308.48 258.95 298.71C275.76 288.69 287.62 272.54 292.36 253.23C302.03 213.85 278.51 173.63 239.94 163.58C234 162.03 227.97 161.26 221.99 161.26H222Z" fill="white"/>
<path d="M222.099 310.3C211.639 310.3 201.02 308.36 190.82 304.26C170.62 296.14 155.24 281 147.5 261.64C140.2 243.36 140.699 223.38 148.909 205.4C166.339 167.23 213.49 149.44 254.01 165.73C274.21 173.85 289.589 188.99 297.329 208.35C304.629 226.63 304.129 246.61 295.919 264.59C282.879 293.15 253.189 310.3 222.099 310.3ZM222.729 161.28C192.24 161.28 163.15 178.08 150.37 206.07C142.34 223.65 141.85 243.18 148.99 261.06C156.56 280.01 171.63 294.83 191.42 302.79C231.16 318.77 277.39 301.34 294.48 263.93C302.51 246.35 303 226.82 295.86 208.94C288.29 189.99 273.22 175.17 253.43 167.21C243.42 163.19 232.999 161.28 222.729 161.28Z" fill="white"/>
<path d="M223.69 310.37C207.66 310.37 191.39 306.53 176.78 298.48C156.28 287.19 141.86 268.89 137.22 248.28C132.99 229.5 137.04 210.31 148.62 194.25C173.8 159.31 227.38 149.12 268.06 171.52C288.56 182.81 302.98 201.11 307.62 221.72C311.85 240.5 307.8 259.69 296.22 275.76C280.08 298.15 252.28 310.38 223.69 310.38V310.37ZM221.13 161.21C193.04 161.21 165.75 173.21 149.92 195.18C138.61 210.87 134.66 229.6 138.78 247.94C143.32 268.11 157.45 286.02 177.56 297.1C217.56 319.13 270.22 309.14 294.94 274.84C306.25 259.15 310.2 240.42 306.08 222.08C301.54 201.91 287.41 184 267.3 172.92C252.92 165 236.9 161.22 221.13 161.22V161.21Z" fill="white"/>
<path d="M227.95 310.87C205.09 310.87 181.7 304.15 162.7 290.58C142.47 276.12 130.09 255.64 128.74 234.4C127.53 215.32 135.15 197.13 150.2 183.19C183.14 152.66 242.33 150.97 282.15 179.43C302.38 193.89 314.76 214.37 316.11 235.61C317.32 254.69 309.7 272.88 294.65 286.82C277.42 302.79 253.01 310.87 227.94 310.87H227.95ZM216.89 160.7C192.23 160.7 168.22 168.64 151.28 184.34C136.59 197.96 129.15 215.7 130.33 234.29C131.65 255.06 143.79 275.1 163.63 289.28C202.87 317.33 261.16 315.7 293.58 285.65C308.27 272.03 315.71 254.29 314.53 235.7C313.21 214.93 301.07 194.89 281.23 180.71C262.5 167.32 239.42 160.7 216.89 160.7Z" fill="white"/>
<path d="M234.82 312.21C203.95 312.21 171.74 301.24 148.93 280.57C129.86 263.3 120.03 241.33 121.97 220.3C123.74 201.02 135.04 184.04 153.76 172.49C194.27 147.51 258.05 155.11 295.92 189.42C314.99 206.69 324.82 228.66 322.88 249.69C321.11 268.97 309.81 285.95 291.09 297.5C274.98 307.43 255.19 312.21 234.82 312.21ZM210.05 159.35C189.97 159.35 170.47 164.06 154.59 173.85C136.3 185.13 125.27 201.68 123.55 220.45C121.66 240.97 131.3 262.46 150 279.39C187.39 313.26 250.31 320.77 290.26 296.14C308.55 284.86 319.58 268.31 321.3 249.54C323.19 229.02 313.55 207.53 294.85 190.6C272.32 170.19 240.51 159.35 210.05 159.35Z" fill="white"/>
<path d="M243.67 314.75C203.93 314.75 161.26 297.6 135.84 268.53C118.49 248.7 111.72 226.54 116.77 206.15C121.58 186.71 136.71 171.22 159.38 162.52C207.07 144.21 274.19 161.68 309 201.47C326.35 221.3 333.12 243.46 328.07 263.86C323.26 283.3 308.13 298.79 285.46 307.49C272.6 312.43 258.33 314.76 243.67 314.76V314.75ZM201.23 156.82C186.74 156.82 172.65 159.13 159.95 164C137.79 172.51 123 187.62 118.32 206.53C113.4 226.41 120.05 248.06 137.04 267.49C171.44 306.82 237.77 324.09 284.89 306C307.05 297.49 321.84 282.39 326.52 263.47C331.44 243.59 324.8 221.94 307.8 202.51C282.67 173.78 240.5 156.82 201.22 156.82H201.23Z" fill="white"/>
<path d="M253.51 318.72C204.36 318.72 150.02 292.88 123.84 254.6C109.16 233.14 105.35 210.88 113.12 191.93C121.11 172.42 140.28 158.79 167.09 153.54C221.37 142.92 290.41 170.67 320.99 215.39C335.67 236.85 339.48 259.11 331.71 278.06C323.71 297.57 304.55 311.2 277.74 316.45C269.92 317.98 261.78 318.71 253.5 318.71L253.51 318.72ZM191.39 152.86C183.19 152.86 175.15 153.59 167.4 155.1C141.13 160.24 122.38 173.53 114.59 192.53C107.03 210.97 110.78 232.69 125.15 253.7C151.05 291.57 204.81 317.13 253.45 317.13C261.65 317.13 269.69 316.4 277.44 314.89C303.71 309.75 322.46 296.46 330.25 277.46C337.81 259.02 334.06 237.3 319.69 216.29C293.8 178.43 240.02 152.86 191.39 152.86Z" fill="white"/>
<path d="M263.44 324.18C204.48 324.18 137.93 286.68 113.34 238.96C101.8 216.56 100.99 194.78 111.07 177.61C122.31 158.47 146.3 146.91 176.89 145.89C236.97 143.9 306.29 182.1 331.52 231.04C343.06 253.43 343.87 275.22 333.79 292.39C322.55 311.53 298.56 323.09 267.97 324.11C266.47 324.16 264.96 324.18 263.45 324.18H263.44ZM181.43 147.4C179.93 147.4 178.43 147.42 176.94 147.47C146.91 148.47 123.4 159.74 112.44 178.4C102.65 195.08 103.47 216.32 114.75 238.22C139.09 285.45 205.01 322.58 263.42 322.58C264.92 322.58 266.42 322.56 267.91 322.51C297.94 321.51 321.45 310.24 332.41 291.58C342.2 274.9 341.38 253.66 330.1 231.76C305.76 184.53 239.84 147.4 181.43 147.4Z" fill="white"/>
<path d="M272.43 331.09C267.19 331.09 261.77 330.77 256.18 330.13C191.41 322.71 123.46 274.14 104.71 221.86C96.5798 199.2 98.7398 178.36 110.78 163.16C125.66 144.38 154.05 135.89 188.68 139.85C253.45 147.27 321.4 195.84 340.15 248.12C348.28 270.78 346.12 291.63 334.08 306.82C321.6 322.57 299.62 331.08 272.43 331.08V331.09ZM172.41 140.49C145.72 140.49 124.2 148.79 112.02 164.15C100.33 178.89 98.2698 199.2 106.2 221.32C124.77 273.09 192.13 321.19 256.35 328.55C290.41 332.45 318.29 324.17 332.82 305.84C344.51 291.1 346.57 270.79 338.64 248.67C320.07 196.9 252.71 148.8 188.49 141.44C182.96 140.81 177.58 140.49 172.41 140.49Z" fill="white"/>
<path d="M279.52 339.24C268.05 339.24 255.61 337.59 242.52 334.24C174.27 316.78 109.6 258.18 98.3597 203.61C93.6897 180.94 98.5896 161.94 112.52 148.65C131.38 130.67 164.11 125.96 202.34 135.74C270.59 153.2 335.26 211.8 346.5 266.37C351.17 289.04 346.27 308.04 332.34 321.33C319.94 333.16 301.54 339.24 279.52 339.24ZM165.31 132.33C143.71 132.33 125.71 138.26 113.61 149.81C100.09 162.7 95.3597 181.2 99.9097 203.3C111.04 257.33 175.19 315.38 242.91 332.71C280.6 342.35 312.79 337.79 331.24 320.19C344.76 307.3 349.49 288.8 344.94 266.7C333.81 212.67 269.66 154.62 201.94 137.29C188.97 133.97 176.65 132.34 165.31 132.34V132.33Z" fill="white"/>
<path d="M283.86 348.12C266.62 348.12 247.22 344.14 227.16 336.17C156.87 308.25 97.41 240.25 94.62 184.59C93.52 162.73 101.13 145.31 116.62 134.22C139.43 117.89 177.2 117.74 217.68 133.81C287.97 161.73 347.43 229.73 350.22 285.39C351.32 307.25 343.71 324.67 328.22 335.76C316.72 344 301.41 348.12 283.86 348.12ZM160.97 123.45C143.77 123.45 128.79 127.47 117.55 135.52C102.52 146.28 95.15 163.22 96.21 184.52C98.97 239.62 157.98 306.99 227.75 334.7C267.72 350.58 304.93 350.49 327.3 334.48C342.33 323.72 349.7 306.78 348.64 285.48C345.88 230.38 286.87 163.01 217.1 135.3C197.21 127.4 178.01 123.45 160.97 123.45Z" fill="white"/>
<path d="M285.92 357.66C263.27 357.66 236.96 350.19 210.36 335.69C139.65 297.12 87.3899 220.65 93.8599 165.22C96.2799 144.51 106.54 128.92 123.54 120.13C150.83 106.01 192.3 111.31 234.48 134.32C305.19 172.89 357.45 249.36 350.98 304.79C348.56 325.5 338.3 341.09 321.3 349.88C311.22 355.1 299.19 357.67 285.91 357.67L285.92 357.66ZM158.94 113.92C145.92 113.92 134.14 116.43 124.27 121.54C107.77 130.08 97.7999 145.25 95.4399 165.41C89.0299 220.25 140.93 296.02 211.12 334.3C252.84 357.05 293.75 362.35 320.57 348.47C337.07 339.93 347.04 324.76 349.4 304.6C355.81 249.76 303.91 174 233.72 135.71C207.35 121.33 181.31 113.92 158.94 113.92Z" fill="white"/>
<path d="M285.25 367.28C257.3 367.28 224.33 355.19 192.42 332.57C123.06 283.41 79.9595 199.69 96.3395 145.94C102.22 126.64 115.15 113.08 133.73 106.74C165.59 95.8501 209.96 107.32 252.42 137.41C321.78 186.57 364.88 270.29 348.5 324.04C342.62 343.34 329.69 356.9 311.11 363.24C303.19 365.95 294.49 367.27 285.24 367.27L285.25 367.28ZM159.63 104.29C150.55 104.29 142.02 105.59 134.25 108.24C116.18 114.41 103.6 127.61 97.8696 146.4C81.6696 199.55 124.5 282.48 193.34 331.27C224.97 353.69 257.62 365.69 285.22 365.69C294.3 365.69 302.83 364.39 310.6 361.74C328.67 355.57 341.25 342.37 346.98 323.58C363.18 270.43 320.35 187.5 251.51 138.71C219.88 116.29 187.23 104.29 159.63 104.29Z" fill="white"/>
<path d="M282.18 376.61C248.7 376.61 209.28 358.69 173.69 326.71C107.58 267.3 75.5498 177.84 102.29 127.3C111.67 109.58 127.37 98.2999 147.71 94.6799C183.96 88.2299 230.1 106.41 271.16 143.3C337.27 202.71 369.3 292.17 342.56 342.71C333.18 360.43 317.48 371.71 297.14 375.33C292.32 376.19 287.32 376.61 282.18 376.61ZM162.69 94.9799C157.64 94.9799 152.73 95.3998 147.98 96.2398C128.14 99.7698 112.83 110.77 103.69 128.04C77.2698 177.98 109.15 266.57 174.75 325.53C210.05 357.25 249.08 375.03 282.15 375.03C287.2 375.03 292.11 374.62 296.86 373.77C316.7 370.24 332.01 359.24 341.15 341.97C367.57 292.03 335.69 203.44 270.09 144.48C234.79 112.76 195.76 94.9799 162.69 94.9799Z" fill="white"/>
<path d="M277.14 385.3C237.53 385.3 191.87 360.25 154.59 317.97C93.7099 248.93 74.5299 155.54 111.85 109.79C124.88 93.8102 143.58 85.1302 165.92 84.7002C166.52 84.6902 167.12 84.6802 167.72 84.6802C207.33 84.6802 252.99 109.73 290.27 152.01C351.15 221.05 370.33 314.44 333.01 360.19C319.98 376.17 301.28 384.85 278.94 385.28C278.34 385.29 277.74 385.3 277.14 385.3ZM167.71 86.2802C167.12 86.2802 166.53 86.2802 165.94 86.3002C144.08 86.7202 125.8 95.1902 113.07 110.8C76.2299 155.98 95.3899 248.44 155.78 316.92C193.32 359.49 239.32 384.48 278.9 383.69C300.76 383.27 319.04 374.8 331.77 359.19C368.61 314.01 349.45 221.55 289.06 153.07C252.08 111.13 206.85 86.2802 167.7 86.2802H167.71Z" fill="white"/>
<path d="M270.09 393.09C265.58 393.09 260.96 392.76 256.25 392.1C213.59 386.12 168.48 354.07 135.56 306.36C81.9296 228.63 77.2196 133.37 125.07 94.0099C142.08 80.0199 164.04 74.4399 188.6 77.8899C231.26 83.8699 276.37 115.92 309.29 163.63C362.92 241.36 367.63 336.62 319.78 375.98C306.04 387.28 289.06 393.09 270.1 393.09H270.09ZM174.76 78.4899C156.16 78.4899 139.52 84.1799 126.07 95.2399C78.8496 134.09 83.6896 228.39 136.86 305.46C169.53 352.81 214.24 384.61 256.46 390.52C280.56 393.9 302.1 388.44 318.76 374.74C365.98 335.89 361.14 241.59 307.97 164.52C275.3 117.17 230.59 85.3699 188.37 79.4599C183.73 78.8099 179.19 78.4899 174.76 78.4899Z" fill="white"/>
<path d="M261.519 399.71C251.099 399.71 240.259 398.02 229.199 394.63C185.529 381.24 143.63 342.85 117.099 291.92C72.7295 206.74 83.8695 111.9 141.93 80.5103C163.35 68.9303 188.83 67.1603 215.63 75.3703C259.3 88.7603 301.2 127.15 327.73 178.07C372.1 263.25 360.96 358.09 302.9 389.48C290.32 396.28 276.339 399.7 261.519 399.7V399.71ZM183.329 71.8803C168.759 71.8803 155.039 75.2303 142.699 81.9103C85.3995 112.89 74.5495 206.77 118.519 291.19C144.849 341.74 186.4 379.84 229.67 393.11C256.05 401.2 281.12 399.46 302.15 388.09C359.45 357.11 370.299 263.23 326.329 178.81C299.999 128.26 258.45 90.1603 215.18 76.8903C204.27 73.5503 193.599 71.8803 183.329 71.8803Z" fill="white"/>
<path d="M252.16 404.91C191.97 404.91 128.05 352.53 99.7496 274.76C80.6696 222.34 81.2996 166.44 101.43 125.22C114.97 97.49 136.03 78.33 162.34 69.81C229.97 47.91 311.96 104.17 345.1 195.23C364.18 247.65 363.549 303.55 343.419 344.77C329.88 372.5 308.82 391.66 282.51 400.18C272.64 403.38 262.45 404.91 252.16 404.91ZM192.73 66.66C182.59 66.66 172.56 68.17 162.83 71.32C136.94 79.7 116.21 98.58 102.86 125.91C82.9195 166.75 82.3196 222.19 101.25 274.21C129.32 351.33 192.61 403.32 252.13 403.32C262.27 403.32 272.3 401.81 282.03 398.66C307.92 390.28 328.65 371.4 342 344.07C361.94 303.23 362.54 247.79 343.61 195.77C315.54 118.65 252.25 66.66 192.73 66.66Z" fill="white"/>
<path d="M242.51 408.72C171.66 408.72 102.69 343.43 84.0298 255.09C72.8298 202.08 81.5398 149.99 107.94 112.18C127.46 84.2101 154.46 67.0101 186.03 62.4401C262.32 51.3901 340.73 119.79 360.82 214.9C372.02 267.91 363.31 320 336.91 357.81C317.39 385.78 290.39 402.98 258.82 407.55C253.39 408.34 247.94 408.72 242.51 408.72ZM202.35 62.8601C196.98 62.8601 191.62 63.24 186.25 64.02C155.13 68.53 128.5 85.5001 109.24 113.1C83.0998 150.55 74.4798 202.19 85.5898 254.77C105.51 349.08 183.12 416.92 258.6 405.98C289.72 401.47 316.35 384.5 335.61 356.9C361.75 319.45 370.37 267.81 359.26 215.23C340.76 127.63 272.46 62.8601 202.35 62.8601Z" fill="white"/>
<path d="M233.76 411.13C233.23 411.13 232.7 411.13 232.16 411.13C148.42 410.11 75.8996 330.29 70.5096 233.21C67.6596 181.88 84.2095 133.44 115.93 100.32C141.94 73.1599 176.319 58.4399 212.699 58.8899C296.439 59.9099 368.96 139.73 374.35 236.82C377.2 288.15 360.649 336.59 328.929 369.71C303.299 396.47 269.56 411.15 233.76 411.15V411.13ZM232.18 409.53C232.71 409.53 233.23 409.53 233.76 409.53C269.12 409.53 302.45 395.03 327.78 368.58C359.2 335.77 375.59 287.77 372.76 236.88C367.41 140.61 295.6 61.4699 212.67 60.4599C212.14 60.4599 211.62 60.4599 211.09 60.4599C175.73 60.4599 142.4 74.9599 117.07 101.41C85.6496 134.22 69.2595 182.22 72.0895 233.11C77.4395 329.38 149.25 408.52 232.18 409.53Z" fill="white"/>
<path d="M226.8 412.35C218.88 412.35 210.92 411.73 202.94 410.47C113.24 396.36 48.9795 306.18 59.6995 209.44C65.0695 160.96 89.1195 117.14 125.68 89.22C159.27 63.56 200.55 53.01 241.9 59.52C331.6 73.63 395.86 163.81 385.14 260.55C379.77 309.03 355.72 352.85 319.16 380.78C292.05 401.49 259.92 412.35 226.8 412.35ZM218.05 59.23C185.26 59.23 153.48 69.98 126.65 90.48C90.4395 118.14 66.6095 161.56 61.2895 209.62C50.6595 305.53 114.32 394.93 203.2 408.91C244.12 415.34 284.97 404.91 318.21 379.52C354.42 351.86 378.25 308.44 383.57 260.38C394.2 164.47 330.54 75.07 241.66 61.09C233.77 59.85 225.88 59.24 218.05 59.24V59.23Z" fill="white"/>
<path d="M222.66 412.75C205.62 412.75 188.49 410.27 171.71 405.27C126.23 391.72 88.7398 361.28 66.1598 319.54C43.5798 277.8 38.5997 229.76 52.1497 184.28C65.6997 138.8 96.1398 101.31 137.88 78.7301C179.62 56.1501 227.66 51.1701 273.14 64.7201C318.62 78.2701 356.11 108.71 378.69 150.45C401.27 192.19 406.25 240.23 392.7 285.71C379.15 331.19 348.71 368.68 306.97 391.26C280.64 405.51 251.79 412.75 222.67 412.75H222.66ZM222.51 58.9001C146.63 58.9001 76.4098 108.39 53.6698 184.73C25.9598 277.78 79.1098 376.03 172.16 403.74C265.21 431.45 363.46 378.3 391.17 285.25C418.88 192.2 365.73 93.95 272.68 66.24C255.98 61.27 239.1 58.9001 222.5 58.9001H222.51Z" fill="white"/>
</g>
<mask id="mask6_56_2032" style="mask-type:luminance" maskUnits="userSpaceOnUse" x="-185" y="-170" width="745" height="832">
<path d="M117.79 179.56L124.68 151.33L136.35 139.96C140.51 135.91 145.43 131.58 150.95 129.8L167.99 124.88C171.19 123.7 174.58 123.13 177.99 123.18C178.49 123.18 198.01 122.4 198.51 122.46L227.61 129.08L278.9 150.39L325.56 187.99C327.36 189.58 349.58 213.43 350.74 215.53L377.27 263.27L374.02 335.4L333.35 388.55L266.1 412.41L190.72 405.9L122.93 379.33L56.2197 335.4L16.6297 294.18L-19.7103 243.2L-51.7103 177.58L-67.4403 89.1801L-62.5903 25.9201L-39.2403 -56.1599L6.3197 -112.56L82.8297 -169.11L20.4597 -137.57L-12.8004 -115.03L-63.8103 -70.2499L-104.77 -21.3499L-133.35 24.2501L-151.04 60.9001L-168.52 109.95L-180.25 161.92L-184.82 201.98L-184.44 264.17L-177.75 313L-163.53 366.83L-149.05 404.25L-120.71 457.95L-78.6503 514.77L-37.9403 555.44L-1.02032 584.29L62.7397 621.02L122.58 643.74L178.41 656.45L235.17 661.66L304.52 657.76L373.86 642.25L422.61 623.75L456.44 598.98L503.08 556.32L536.34 499.19L550.44 462.31L559.48 402.65L556.23 346.25L537.79 273.22L517.54 230.31L482.47 175.96L447.04 136.55L408.72 104.73C408.72 104.73 359.55 76.8902 358.1 76.1702C356.65 75.4501 307.84 57.3701 307.84 57.3701L251.44 47.2501L206.97 51.5901L172.98 63.1601L142.97 87.3801L121.64 119.2L113.32 144.87L117.78 179.56H117.79Z" fill="white"/>
</mask>
<g mask="url(#mask6_56_2032)">
<path d="M559.49 -169.11H137.16V661.65H559.49V-169.11Z" fill="#E093AF"/>
<path d="M137.15 -169.11H-184.82V661.65H137.15V-169.11Z" fill="#E093AF"/>
</g>
<mask id="mask7_56_2032" style="mask-type:luminance" maskUnits="userSpaceOnUse" x="-70" y="-196" width="746" height="832">
<path d="M376.13 297.77L370.14 316.07L361.069 329.48L350.78 338.35L337.329 344.25L317.66 348.52L297.199 349.13L257.61 341L198.5 310.63L135.59 253.14L113.35 203.25L116.6 131.12L157.27 77.9698L224.52 54.1099L299.9 60.6199L367.689 87.1898L434.4 131.12L473.99 172.34L510.329 223.32L542.329 288.94L558.059 377.34V442.42L529.859 522.68L484.299 579.08L407.79 635.63L470.16 604.09L503.419 581.55L554.429 536.77L595.39 487.87L623.969 442.27L641.66 405.62L659.14 356.57L670.87 304.6L675.439 264.54L675.059 202.35L668.37 153.52L654.15 99.6898L639.669 62.2698L611.329 8.56987L569.27 -48.2501L528.559 -88.9201L491.64 -117.77L427.88 -154.5L368.04 -177.22L312.21 -189.93L255.449 -195.14L186.1 -191.24L116.76 -175.73L68.0096 -157.23L34.1795 -132.46L-12.4605 -89.8001L-45.7205 -32.6701L-59.8205 4.20987L-65.0105 28.2899C-66.2005 35.3299 -69.7005 67.8499 -69.1405 74.9598L-65.6005 120.26L-47.1605 193.29L-26.9105 236.2L8.15952 290.55L43.5895 329.96L81.9095 361.78C81.9095 361.78 131.08 389.62 132.53 390.34C133.98 391.06 182.79 409.14 182.79 409.14L239.19 419.26L283.66 414.92L317.65 403.35L347.66 379.13L368.99 347.31L377.309 321.64L376.169 297.76L376.13 297.77Z" fill="white"/>
</mask>
<g mask="url(#mask7_56_2032)">
<path d="M353.29 -195.14H-69.2305V635.62H353.29V-195.14Z" fill="#E093AF"/>
<path d="M675.41 -195.14H353.29V635.62H675.41V-195.14Z" fill="#E093AF"/>
</g>
<g opacity="0.35">
<path d="M302.839 350.07C286.739 350.07 268.74 346.68 249.75 339.85C177.94 314.05 115.239 246.68 109.979 189.66C107.889 166.94 114.969 148.6 130.459 136.6C153.039 119.12 189.799 117.64 231.31 132.56C303.12 158.36 365.819 225.73 371.079 282.75C373.169 305.47 366.089 323.81 350.599 335.81C338.349 345.29 321.929 350.07 302.839 350.07ZM178.209 123.93C159.479 123.93 143.399 128.59 131.429 137.86C116.389 149.51 109.52 167.37 111.56 189.52C116.77 245.98 178.999 312.75 250.279 338.36C291.279 353.09 327.49 351.7 349.62 334.56C364.66 322.91 371.53 305.05 369.49 282.9C364.279 226.44 302.049 159.67 230.769 134.06C211.939 127.29 194.119 123.93 178.199 123.93H178.209Z" fill="white"/>
<path d="M305.5 359.58C283.68 359.58 258.51 352.97 232.87 340.02C160.17 303.31 104.32 226.94 108.37 169.8C109.9 148.19 119.72 131.66 136.76 121.98C163.55 106.78 205.22 110.66 248.21 132.37C320.91 169.08 376.76 245.45 372.71 302.59C371.18 324.2 361.36 340.73 344.32 350.4C333.51 356.54 320.27 359.56 305.5 359.56V359.58ZM175.58 114.4C161.09 114.4 148.12 117.36 137.54 123.37C120.98 132.77 111.44 148.86 109.95 169.92C105.94 226.48 161.4 302.16 233.58 338.61C276.1 360.08 317.2 363.98 343.53 349.04C360.09 339.64 369.63 323.55 371.12 302.5C375.13 245.93 319.67 170.26 247.49 133.81C222.06 120.97 197.14 114.41 175.58 114.41V114.4Z" fill="white"/>
<path d="M305.52 369.49C278.26 369.49 246.18 358.44 214.7 337.56C142.89 289.92 95.9199 205.75 109.99 149.92C115.09 129.69 127.63 115.19 146.27 107.99C177.76 95.8099 222.65 105.85 266.35 134.84C338.16 182.48 385.13 266.65 371.06 322.48C365.96 342.71 353.42 357.21 334.78 364.41C325.97 367.82 316.11 369.49 305.52 369.49ZM175.57 104.5C165.17 104.5 155.49 106.14 146.85 109.48C128.72 116.49 116.51 130.62 111.54 150.32C97.6199 205.54 144.29 288.95 215.58 336.24C258.85 364.95 303.2 374.92 334.21 362.93C352.34 355.92 364.55 341.8 369.52 322.09C383.44 266.87 336.77 183.46 265.48 136.17C234.27 115.46 202.49 104.5 175.57 104.5Z" fill="white"/>
<path d="M302.98 379.19C270.14 379.19 231.379 362.5 195.639 332.3C126.639 274.01 90.5295 183.5 115.139 130.55C123.809 111.9 139.16 99.6701 159.55 95.1701C195.63 87.2101 242.689 104.01 285.419 140.12C354.419 198.41 390.529 288.92 365.919 341.87C357.249 360.52 341.9 372.75 321.51 377.25C315.61 378.55 309.4 379.19 302.98 379.19ZM116.59 131.22C92.2595 183.57 128.18 273.23 196.67 331.09C239.03 366.88 285.579 383.56 321.169 375.7C341.049 371.31 356.03 359.38 364.48 341.2C388.81 288.85 352.88 199.19 284.4 141.33C242.04 105.54 195.49 88.8601 159.9 96.7201C140.02 101.11 125.04 113.04 116.59 131.22Z" fill="white"/>
<path d="M298.299 388.32C259.359 388.32 214.13 364.67 176.07 324.11C111.9 255.73 88.5295 160.67 123.96 112.2C136.32 95.2901 154.69 85.6301 177.06 84.2601C217.23 81.8001 265.05 105.74 304.99 148.29C369.16 216.67 392.54 311.73 357.1 360.2C344.74 377.11 326.37 386.77 304 388.14C302.12 388.26 300.21 388.31 298.299 388.31V388.32ZM182.78 85.6801C180.89 85.6801 179.02 85.7401 177.16 85.8501C155.27 87.1901 137.32 96.6301 125.24 113.14C90.2296 161.02 113.55 255.18 177.23 323.03C216.85 365.24 264.21 389 303.9 386.56C325.79 385.22 343.74 375.78 355.82 359.27C390.83 311.39 367.51 217.23 303.83 149.38C266.07 109.14 221.27 85.6801 182.77 85.6801H182.78Z" fill="white"/>
<path d="M291.61 396.6C288.44 396.6 285.21 396.44 281.93 396.12C238.68 391.91 191.78 360.82 156.46 312.97C99.1796 235.37 90.2496 137.8 136.55 95.4599C152.89 80.5099 174.54 73.8799 199.14 76.2799C242.39 80.4899 289.29 111.58 324.61 159.43C381.89 237.03 390.82 334.6 344.52 376.93C330.36 389.88 312.21 396.59 291.61 396.59V396.6ZM137.62 96.6499C91.8996 138.45 100.93 235.08 157.74 312.04C192.8 359.54 239.28 390.38 282.09 394.55C306.23 396.9 327.45 390.41 343.46 375.78C389.18 333.98 380.15 237.35 323.34 160.39C288.28 112.89 241.8 82.0499 198.99 77.8799C174.85 75.5299 153.63 82.0199 137.62 96.6499Z" fill="white"/>
<path d="M283.17 403.74C274.18 403.74 264.84 402.5 255.29 400C210.52 388.3 166.4 350.5 137.29 298.89C88.9899 213.27 95.9899 115.49 152.89 80.9099C173.64 68.3099 198.84 65.3599 225.77 72.3999C270.54 84.0999 314.66 121.9 343.77 173.5C392.08 259.12 385.08 356.91 328.17 391.48C314.78 399.61 299.53 403.73 283.16 403.73L283.17 403.74ZM197.91 70.2599C181.83 70.2599 166.86 74.2899 153.72 82.2699C97.5299 116.4 90.7799 213.23 138.67 298.11C167.58 349.35 211.33 386.86 255.69 398.46C282.2 405.39 306.97 402.51 327.35 390.13C383.54 356 390.28 259.17 342.4 174.29C313.49 123.05 269.74 85.5399 225.38 73.9399C215.97 71.4799 206.77 70.2599 197.91 70.2599Z" fill="white"/>
<path d="M273.73 409.48C214.42 409.48 150.23 358.87 119.1 282C97.3899 228.38 95.7499 170.53 114.71 127.23C127.13 98.8701 147.25 78.7801 172.89 69.1101C239.84 43.8801 324.66 98.2901 361.95 190.42C383.66 244.04 385.3 301.89 366.34 345.19C353.92 373.55 333.8 393.64 308.15 403.31C297.06 407.49 285.48 409.48 273.71 409.48H273.73ZM207.38 64.5201C195.78 64.5201 184.38 66.4801 173.46 70.6001C148.23 80.1101 128.42 99.9101 116.17 127.87C97.3799 170.78 99.0199 228.17 120.58 281.4C151.45 357.65 215.04 407.9 273.69 407.9C285.29 407.9 296.69 405.94 307.61 401.82C332.84 392.31 352.65 372.5 364.9 344.55C383.69 301.64 382.05 244.25 360.49 191.02C329.62 114.77 266.03 64.5201 207.38 64.5201Z" fill="white"/>
<path d="M263.76 413.79C194.13 413.79 124.6 350.43 102.45 262.45C88.6798 207.78 95.4498 153.47 121 113.46C139.34 84.7499 165.4 66.4599 196.36 60.5899C272.49 46.1499 354.24 113.16 378.61 209.97C392.37 264.65 385.61 318.95 360.06 358.96C341.72 387.67 315.66 405.96 284.7 411.83C277.75 413.15 270.75 413.79 263.76 413.79ZM217.33 60.2099C210.42 60.2099 203.53 60.8399 196.66 62.1399C166.13 67.9299 140.44 85.9699 122.34 114.3C97.0198 153.95 90.3298 207.8 103.99 262.05C128.16 358.06 209.09 424.54 284.4 410.26C314.93 404.47 340.62 386.43 358.72 358.1C384.04 318.45 390.73 264.6 377.07 210.35C355.1 123.09 286.23 60.2099 217.33 60.2099Z" fill="white"/>
<path d="M254.42 416.63C171.74 416.63 97.4699 338.51 87.9099 240.53C82.7099 187.2 97.6099 136.34 128.8 100.98C153.59 72.88 187.04 56.85 222.99 55.84C224.21 55.81 225.44 55.79 226.65 55.79C309.33 55.79 383.6 133.91 393.16 231.89C398.36 285.22 383.46 336.08 352.27 371.44C327.48 399.54 294.03 415.57 258.07 416.58C256.85 416.61 255.62 416.63 254.41 416.63H254.42ZM223.01 56.63L223.03 57.42C187.52 58.41 154.48 74.25 129.98 102.02C99.0799 137.05 84.3199 187.48 89.4799 240.37C98.9599 337.55 172.54 415.03 254.41 415.03C255.62 415.03 256.82 415.01 258.03 414.98C293.54 413.99 326.58 398.15 351.08 370.38C381.98 335.35 396.74 284.92 391.58 232.04C381.96 133.43 306.3 55.08 223.03 57.43L223.01 56.64V56.63Z" fill="white"/>
<path d="M246.68 418.17C240.72 418.17 234.73 417.81 228.72 417.1C138.02 406.26 69.5196 316.31 76.0096 216.59C79.3096 165.91 102.01 119.55 138.28 89.4C170.65 62.5 211.16 50.38 252.36 55.31C343.05 66.15 411.56 156.1 405.07 255.82C401.77 306.5 379.07 352.86 342.8 383.01C315.15 405.99 281.56 418.17 246.69 418.17H246.68ZM234.4 55.83C199.89 55.83 166.66 67.89 139.3 90.63C103.36 120.5 80.8696 166.45 77.5996 216.7C71.1596 315.6 139.04 404.79 228.91 415.53C269.66 420.41 309.75 408.42 341.78 381.8C377.72 351.93 400.21 305.98 403.48 255.73C409.92 156.83 342.04 67.64 252.17 56.9C246.23 56.19 240.29 55.84 234.4 55.84V55.83Z" fill="white"/>
<path d="M241.58 418.76C226.76 418.76 211.85 416.86 197.12 413.02C101.61 388.13 43.3796 288.56 67.3096 191.07C79.0396 143.27 108.43 103.28 150.06 78.4602C190.69 54.2402 238.24 47.4603 283.95 59.3803C379.46 84.2703 437.69 183.84 413.76 281.33C402.03 329.13 372.64 369.12 331.01 393.94C303.47 410.36 272.75 418.76 241.58 418.76ZM239.49 55.2403C208.6 55.2403 178.16 63.5703 150.87 79.8303C109.61 104.43 80.4896 144.07 68.8496 191.45C45.1196 288.11 102.84 386.81 197.51 411.48C242.81 423.29 289.93 416.57 330.19 392.57C371.45 367.98 400.58 328.33 412.21 280.95C435.94 184.29 378.22 85.5903 283.55 60.9203C268.96 57.1203 254.17 55.2403 239.49 55.2403Z" fill="white"/>
<path d="M239.77 418.72C214.39 418.72 188.65 414.01 163.9 404.06C114.93 384.37 77.6299 347.68 58.8899 300.76C41.1999 256.46 42.4099 208.07 62.3099 164.5C104.58 71.9701 218.9 28.8301 317.16 68.3401C366.13 88.0301 403.43 124.72 422.17 171.64C439.87 215.94 438.65 264.33 418.75 307.9C387.13 377.13 315.15 418.71 239.76 418.72H239.77ZM241.28 55.2801C166.49 55.2801 95.1199 96.5101 63.7599 165.17C44.0399 208.34 42.8399 256.29 60.3699 300.18C78.9499 346.69 115.93 383.06 164.5 402.59C189.05 412.46 214.61 417.13 239.79 417.13C314.58 417.13 385.95 375.9 417.32 307.24C437.04 264.07 438.24 216.12 420.71 172.23C402.13 125.72 365.15 89.3501 316.58 69.8201C292.03 59.9501 266.47 55.2801 241.29 55.2801H241.28Z" fill="white"/>
<path d="M243.659 418.88C204.759 418.88 165.249 409.56 129.779 390.02C104.399 376.04 83.0895 358.07 66.4395 336.6C50.3495 315.85 39.3895 292.88 33.8595 268.34C23.6195 222.86 33.4294 176.38 61.4694 137.48C122.559 52.73 252.57 28.0201 351.29 82.3901C376.67 96.37 397.979 114.34 414.629 135.81C430.719 156.56 441.679 179.53 447.209 204.07C457.449 249.55 447.639 296.03 419.599 334.93C380.459 389.23 313.019 418.88 243.659 418.88ZM237.389 55.11C168.529 55.11 101.599 84.53 62.7595 138.41C34.9895 176.94 25.2694 222.96 35.4094 267.99C46.5494 317.5 81.2294 361.47 130.539 388.63C165.779 408.04 205.029 417.3 243.669 417.3C312.529 417.3 379.459 387.88 418.299 334C446.069 295.47 455.79 249.45 445.65 204.42C434.509 154.91 399.829 110.94 350.52 83.78C315.28 64.37 276.029 55.11 237.389 55.11Z" fill="white"/>
<path d="M254.01 420.11C198.5 420.11 141.67 403.8 95.5399 370.82C70.5099 352.93 50.5999 331.69 36.3599 307.7C22.5899 284.5 14.7999 259.92 13.1899 234.65C10.2599 188.47 28.7099 144.44 65.1499 110.66C145.11 36.5502 288.83 32.4802 385.52 101.59C410.55 119.48 430.46 140.72 444.7 164.71C458.47 187.91 466.26 212.49 467.87 237.76C470.8 283.94 452.35 327.97 415.91 361.75C374.1 400.5 314.85 420.11 254.01 420.11ZM227.04 53.8702C166.6 53.8702 107.76 73.3302 66.2399 111.82C30.1499 145.27 11.8799 188.85 14.7799 234.55C18.0199 285.54 47.7899 334.74 96.4599 369.53C142.33 402.31 198.84 418.54 254.02 418.54C314.46 418.54 373.3 399.08 414.82 360.59C450.91 327.14 469.18 283.56 466.28 237.87C463.04 186.88 433.27 137.68 384.6 102.89C338.73 70.1102 282.22 53.8802 227.04 53.8802V53.8702Z" fill="white"/>
<path d="M270.75 423.39C195.76 423.39 117.499 396.72 62.0495 346.5C38.4395 325.12 20.7795 301.26 9.5495 275.59C-1.3105 250.77 -5.64052 225.5 -3.34052 200.47C0.949485 153.81 28.2995 112.71 73.6595 84.7502C172.059 24.0802 326.98 42.5502 419.01 125.91C442.62 147.29 460.28 171.15 471.51 196.82C482.37 221.64 486.7 246.91 484.4 271.94C480.11 318.6 452.76 359.7 407.4 387.66C368.28 411.78 320.23 423.39 270.75 423.39ZM210.339 50.5902C161.139 50.5902 113.39 62.1302 74.4995 86.1002C29.5795 113.8 2.49951 154.46 -1.75049 200.61C-6.39049 251.03 17.2495 303.77 63.1195 345.32C154.66 428.24 308.719 446.62 406.559 386.31C451.479 358.61 478.559 317.95 482.809 271.8C487.449 221.38 463.809 168.64 417.939 127.09C362.789 77.1301 284.919 50.5902 210.339 50.5902Z" fill="white"/>
<path d="M292.319 429.58C195.729 429.58 92.0394 387.88 30.2394 317.24C9.03944 293 -5.69058 267.29 -13.5306 240.83C-21.1106 215.23 -21.9506 190.1 -16.0106 166.12C-4.36056 119.09 32.2894 81.5802 87.1994 60.5002C203.109 15.9902 366.239 58.4603 450.829 155.17C472.029 179.41 486.759 205.12 494.599 231.58C502.179 257.18 503.019 282.31 497.079 306.29C485.429 353.32 448.779 390.83 393.869 411.91C362.629 423.9 327.949 429.58 292.319 429.58ZM188.809 44.4002C153.339 44.4002 118.859 50.0502 87.7694 61.9802C33.3594 82.8702 -2.95058 119.99 -14.4706 166.5C-26.5706 215.36 -10.2706 268.52 31.4294 316.19C92.9294 386.49 196.139 428 292.259 428C327.729 428 362.209 422.35 393.299 410.42C447.709 389.53 484.02 352.41 495.539 305.9C507.639 257.04 491.339 203.88 449.639 156.21C388.139 85.9102 284.929 44.4002 188.809 44.4002Z" fill="white"/>
<path d="M316.31 439.24C196.81 439.24 64.6998 376.42 1.05983 283.36C-34.5102 231.34 -43.7602 177.45 -24.9702 131.6C-15.5702 108.65 0.319824 88.9699 22.2398 73.0799C44.9098 56.6599 73.0298 45.0799 105.82 38.6599C237.79 12.8499 405.64 80.2999 480 189.03C515.57 241.05 524.82 294.94 506.03 340.79C496.63 363.74 480.74 383.42 458.82 399.31C436.15 415.73 408.03 427.31 375.24 433.73C356.22 437.45 336.44 439.23 316.31 439.23V439.24ZM164.81 34.7499C144.76 34.7499 125.08 36.5199 106.13 40.2299C41.6798 52.8399 -4.36017 85.4999 -23.5002 132.21C-42.0802 177.55 -32.8902 230.91 2.36983 282.47C65.7298 375.11 197.28 437.65 316.25 437.66C336.3 437.66 355.98 435.89 374.93 432.18C439.38 419.57 485.42 386.91 504.56 340.2C523.14 294.86 513.95 241.5 478.69 189.94C415.34 97.2999 283.78 34.7499 164.81 34.7499Z" fill="white"/>
<path d="M340.419 452.57C272.679 452.57 199.039 432.46 131.729 395.41C60.6994 356.31 5.21945 303.02 -24.5005 245.35C-52.4605 191.09 -54.4305 138.35 -30.0605 96.83C-16.6905 74.07 3.71944 55.8099 30.6094 42.5599C58.3994 28.8699 91.6794 21.29 129.519 20.04C200.269 17.71 278.339 37.9299 349.349 77.0199C420.379 116.12 475.859 169.41 505.579 227.08C533.539 281.34 535.509 334.08 511.139 375.6C497.769 398.36 477.359 416.62 450.469 429.87C422.679 443.56 389.399 451.14 351.559 452.39C347.869 452.51 344.149 452.57 340.419 452.57ZM140.529 21.44C136.849 21.44 133.209 21.5 129.559 21.62C55.9094 24.07 -1.77055 51.77 -28.6905 97.63C-52.7806 138.66 -50.7906 190.86 -23.0906 244.62C37.9894 363.14 206.039 455.63 351.499 450.8C425.149 448.35 482.829 420.65 509.749 374.79C533.839 333.76 531.849 281.55 504.149 227.8C444.609 112.26 283.379 21.44 140.529 21.44Z" fill="white"/>
<path d="M362.49 469.42C349.76 469.42 336.57 468.65 322.97 467.09C246.64 458.34 166.29 426.15 96.7098 376.44C27.1098 326.71 -23.3901 265.4 -45.4901 203.78C-65.1801 148.9 -59.9902 98.4499 -30.8802 61.7299C5.16984 16.2499 74.0398 -4.31016 158.08 5.30984C234.41 14.0598 314.77 46.2498 384.34 95.9598C453.94 145.69 504.44 207 526.54 268.62C546.23 323.5 541.04 373.95 511.93 410.67C481.71 448.79 428.42 469.41 362.49 469.41V469.42ZM118.56 4.57985C53.1198 4.57985 0.289841 24.9798 -29.6302 62.7198C-58.3802 98.9998 -63.4901 148.9 -43.9901 203.25C1.42985 329.87 166.13 447.52 323.16 465.51C406.64 475.08 474.99 454.73 510.69 409.69C539.45 373.41 544.55 323.51 525.05 269.16C479.63 142.54 314.93 24.8899 157.9 6.89985C144.36 5.34985 131.22 4.57985 118.55 4.57985H118.56Z" fill="white"/>
<path d="M379.26 489.29C351.36 489.29 321.43 485.23 289.82 477.15C209.38 456.57 128.6 412.21 62.3699 352.23C-3.89013 292.23 -47.6801 223.76 -60.9301 159.44C-66.6201 131.83 -66.4002 106.23 -60.2902 83.34C-54.3702 61.19 -43.0802 42.05 -26.7302 26.46C-4.80017 5.54003 26.1498 -8.45997 62.7798 -14.04C101.13 -19.87 144.36 -16.75 191.27 -4.74998C271.71 15.83 352.49 60.19 418.72 120.17C484.98 180.17 528.77 248.64 542.02 312.96C547.71 340.57 547.49 366.17 541.38 389.06C535.46 411.21 524.17 430.34 507.82 445.94C485.89 466.86 454.94 480.86 418.31 486.44C405.8 488.34 392.77 489.29 379.26 489.29ZM101.26 -15.31C48.2799 -15.31 4.08986 -0.729963 -25.6401 27.62C-58.9001 59.35 -70.5701 104.82 -59.3801 159.13C-32.1501 291.29 124.67 433.27 290.21 475.61C321.93 483.72 352.08 487.72 379.81 487.72C432.79 487.72 476.98 473.14 506.71 444.79C539.97 413.06 551.64 367.59 540.45 313.28C513.22 181.11 356.4 39.14 190.86 -3.19997C159.14 -11.31 128.99 -15.31 101.26 -15.31Z" fill="white"/>
<path d="M390.24 511.17C347.75 511.17 301.44 501.33 252.52 481.9C169.67 449 90.4996 392.55 29.5996 322.95C-31.3404 253.31 -66.7104 178.83 -69.9904 113.22C-72.6404 60.3102 -54.2504 18.1702 -16.8204 -8.63979C9.9996 -27.8398 46.0796 -38.2598 87.5396 -38.7598C88.6296 -38.7698 89.7396 -38.7798 90.8396 -38.7798C133.33 -38.7798 179.64 -28.9398 228.56 -9.50978C311.41 23.4002 390.58 79.8402 451.48 149.44C512.42 219.08 547.79 293.56 551.07 359.17C553.72 412.08 535.33 454.22 497.9 481.03C471.08 500.23 435 510.64 393.54 511.15C392.45 511.16 391.34 511.17 390.24 511.17ZM90.6696 -36.9798C48.4796 -36.9798 11.6996 -27.0998 -15.9004 -7.33978C-52.8804 19.1402 -71.0304 60.8002 -68.4104 113.14C-61.6604 247.93 82.5696 412.69 253.1 480.42C350.94 519.28 442.1 519.02 496.97 479.74C533.95 453.26 552.1 411.6 549.48 359.26C542.73 224.47 398.5 59.7102 227.97 -8.01978C179.34 -27.3298 132.36 -36.9798 90.6696 -36.9798Z" fill="white"/>
<path d="M395.39 534.22C340.35 534.22 276.37 516.05 211.68 480.77C128.34 435.31 52.9498 367.18 -0.590225 288.91C-54.1702 210.59 -79.4802 131.48 -71.8502 66.1499C-66.0002 16.0499 -41.1802 -21.6801 -0.0902252 -42.9401C66.1198 -77.2101 166.87 -64.2801 269.41 -8.35009C352.75 37.1099 428.14 105.24 481.68 183.51C535.26 261.83 560.57 340.94 552.94 406.27C547.09 456.37 522.27 494.09 481.18 515.36C456.74 528.01 427.6 534.23 395.39 534.23V534.22ZM85.6998 -60.2301C53.7498 -60.2301 24.8598 -54.0701 0.629807 -41.5301C-39.9802 -20.5201 -64.5002 16.7799 -70.2802 66.3399C-85.9502 200.51 40.8798 385.8 212.44 479.37C314.51 535.04 414.7 547.97 480.45 513.94C521.05 492.92 545.58 455.63 551.36 406.07C567.03 271.9 440.2 86.6099 268.64 -6.96009C204.18 -42.1201 140.46 -60.2301 85.6998 -60.2301Z" fill="white"/>
<path d="M393.73 557.69C325.83 557.69 245.64 528.26 168.02 473.25C86.2797 415.32 16.9397 336.23 -27.2403 250.55C-71.4503 164.8 -85.1703 82.69 -65.8603 19.34C-51.6303 -27.37 -20.3503 -60.17 24.5997 -75.52C101.97 -101.95 209.79 -74.04 313.04 -0.860001C394.78 57.07 464.12 136.16 508.3 221.84C552.51 307.59 566.23 389.7 546.92 453.05C532.69 499.76 501.41 532.56 456.46 547.91C437.25 554.47 416.16 557.69 393.73 557.69ZM87.3597 -83.7C65.0897 -83.7 44.1697 -80.51 25.1097 -74C-19.3303 -58.82 -50.2603 -26.38 -64.3403 19.82C-103.98 149.87 0.669724 352.7 168.94 471.96C246.28 526.77 326.15 556.11 393.7 556.11C415.97 556.11 436.89 552.92 455.95 546.41C500.39 531.23 531.32 498.79 545.4 452.59C585.04 322.54 480.39 119.71 312.12 0.449997C234.78 -54.36 154.91 -83.7 87.3597 -83.7Z" fill="white"/>
<path d="M386.769 580.37C353.349 580.37 316.869 573.01 279.399 558.57C226.479 538.16 172.209 503.74 122.449 459.03C44.5494 389.02 -16.4506 300.06 -49.3006 208.52C-82.1906 116.89 -82.9506 33.6301 -51.4506 -25.9199C-28.7506 -68.8199 9.26944 -96.1299 58.5094 -104.89C100.809 -112.42 150.309 -105.93 201.659 -86.1299C254.579 -65.7299 308.849 -31.2999 358.609 13.4101C436.509 83.4201 497.509 172.38 530.359 263.92C563.249 355.55 564.009 438.81 532.509 498.36C509.809 541.26 471.789 568.57 422.549 577.33C411.109 579.36 399.149 580.37 386.759 580.37H386.769ZM94.8394 -106.43C82.4594 -106.43 70.4094 -105.41 58.7894 -103.35C10.0494 -94.6799 -27.5906 -67.6499 -50.0406 -25.1999C-81.3306 33.9601 -80.5406 116.76 -47.8006 207.96C-15.0306 299.25 45.8094 387.99 123.519 457.82C223.019 547.24 334.699 591.32 422.279 575.74C471.019 567.07 508.659 540.04 531.109 497.59C562.399 438.43 561.609 355.63 528.869 264.43C496.099 173.14 435.259 84.4001 357.549 14.5701C271.249 -62.9799 175.789 -106.43 94.8394 -106.43Z" fill="white"/>
<path d="M374.11 601.63C328.5 601.63 277.99 587.56 227.73 560.81C174.31 532.38 121.83 489.85 75.9496 437.83C4.21963 356.49 -46.1303 259.08 -65.8403 163.52C-85.5703 67.8601 -72.2303 -14.5099 -28.2703 -68.4099C3.29967 -107.12 48.5997 -128.13 102.74 -129.17C149.44 -130.07 201.53 -115.97 253.35 -88.3899C306.77 -59.9599 359.25 -17.4299 405.13 34.5901C476.86 115.93 527.21 213.34 546.92 308.9C566.65 404.56 553.31 486.93 509.35 540.83C477.78 579.54 432.48 600.55 378.34 601.59C376.94 601.62 375.52 601.63 374.11 601.63ZM107.1 -127.63C105.65 -127.63 104.21 -127.62 102.77 -127.59C49.1096 -126.55 4.22964 -105.75 -27.0404 -67.4099C-70.6904 -13.8899 -83.9204 68.0101 -64.2904 163.19C-44.6404 258.48 5.58963 355.64 77.1396 436.77C168.92 540.85 281.51 601.87 378.3 600C431.96 598.96 476.84 578.16 508.1 539.82C551.75 486.3 564.98 404.4 545.35 309.22C525.7 213.93 475.47 116.77 403.92 35.6401C313.51 -66.8899 202.9 -127.63 107.09 -127.63H107.1Z" fill="white"/>
<path d="M356.79 620.63C345.85 620.63 334.639 619.83 323.199 618.23C219.479 603.7 109.74 525.71 29.6295 409.62C-33.5405 318.06 -71.0405 213.96 -75.9505 116.49C-78.3405 69.0602 -72.8705 25.7802 -59.7005 -12.1498C-46.0505 -51.4598 -24.6705 -83.2798 3.81953 -106.73C45.0395 -140.64 98.3095 -154.15 157.87 -145.81C261.59 -131.28 371.329 -53.2898 451.439 62.8002C514.609 154.36 552.11 258.46 557.02 355.94C559.41 403.37 553.94 446.65 540.77 484.58C527.12 523.89 505.74 555.72 477.25 579.16C443.95 606.55 402.779 620.64 356.799 620.64L356.79 620.63ZM124.29 -146.63C78.6595 -146.63 37.8495 -132.67 4.82948 -105.52C-51.1305 -59.4899 -79.2605 19.3202 -74.3705 116.39C-69.4805 213.57 -32.0805 317.38 30.9295 408.7C110.78 524.43 220.12 602.17 323.41 616.64C382.51 624.92 435.359 611.53 476.229 577.91C532.19 531.87 560.319 453.07 555.429 356C550.539 258.82 513.14 155.01 450.13 63.6902C370.28 -52.0398 260.939 -129.78 157.649 -144.25C146.289 -145.84 135.15 -146.63 124.29 -146.63Z" fill="white"/>
<path d="M335.89 636.76C310.59 636.76 284.28 632.66 257.41 624.42C151.2 591.86 49.2497 498.43 -15.3003 374.5C-67.5603 274.17 -90.1103 165.48 -78.8003 68.4201C-73.3003 21.2001 -60.0703 -20.6999 -39.4703 -56.1099C-18.1303 -92.7999 10.2197 -120.88 44.7997 -139.57C96.7497 -167.66 158.61 -171.96 223.67 -152.02C329.88 -119.46 431.83 -26.0299 496.38 97.9001C548.64 198.23 571.19 306.92 559.88 403.97C554.38 451.19 541.15 493.09 520.55 528.5C499.21 565.19 470.86 593.27 436.28 611.96C405.78 628.45 371.86 636.74 335.89 636.74V636.76ZM145.19 -162.76C109.48 -162.76 75.8197 -154.53 45.5497 -138.17C-22.3603 -101.45 -65.9703 -28.0199 -77.2303 68.6101C-88.5003 165.35 -66.0103 273.72 -13.9003 373.77C50.4597 497.33 152.05 590.46 257.87 622.9C322.52 642.72 383.95 638.46 435.52 610.58C503.43 573.86 547.04 500.43 558.3 403.8C569.57 307.06 547.08 198.69 494.97 98.6401C430.61 -24.9199 329.02 -118.05 223.2 -150.49C196.49 -158.68 170.33 -162.76 145.19 -162.76Z" fill="white"/>
<path d="M312.83 649.54C295.23 649.54 277.29 647.69 259.12 643.98C216.25 635.23 173.83 616.57 133.03 588.53C49.1598 530.89 -18.5202 440.06 -57.5702 332.79C-80.9302 268.6 -92.6602 201.03 -91.5002 137.39C-90.3702 75.77 -77.2402 17.5399 -53.5302 -31.0201C-20.6502 -98.36 30.4798 -144.88 94.3398 -165.57C134.61 -178.61 177.55 -180.63 221.96 -171.57C264.83 -162.82 307.25 -144.16 348.05 -116.12C431.92 -58.4801 499.6 32.3499 538.65 139.62C562.01 203.81 573.74 271.38 572.58 335.02C571.45 396.64 558.32 454.87 534.61 503.43C501.73 570.77 450.6 617.29 386.74 637.98C362.95 645.69 338.23 649.54 312.83 649.54ZM168.63 -175.58C143.38 -175.58 118.64 -171.77 94.8298 -164.06C31.3898 -143.51 -19.4102 -97.2701 -52.1002 -30.3301C-100.87 69.5499 -102.36 205.09 -56.0802 332.25C-17.1502 439.21 50.3298 529.76 133.92 587.22C192.33 627.36 253.72 647.99 312.43 647.99C337.68 647.99 362.42 644.18 386.23 636.47C449.66 615.92 500.47 569.68 533.16 502.74C581.93 402.86 583.42 267.32 537.14 140.16C498.21 33.2 430.73 -57.3501 347.14 -114.81C288.73 -154.95 227.34 -175.58 168.62 -175.58H168.63Z" fill="white"/>
<path d="M289.18 658.78C256.66 658.78 223.85 653.13 191.18 641.87C146.66 626.53 104.3 601.47 65.2699 567.39C-14.9601 497.34 -72.1901 397.04 -95.8601 284.97C-109.64 219.75 -111.18 155.57 -100.44 94.1999C-90.2001 35.6699 -68.5201 -18.5701 -37.7301 -62.6801C-14.7201 -95.6501 12.9599 -122.74 44.5299 -143.19C77.1999 -164.36 113.34 -177.92 151.94 -183.51C197.38 -190.09 243.79 -185.37 289.91 -169.47C334.43 -154.13 376.79 -129.07 415.82 -94.9901C496.05 -24.9401 553.28 75.3599 576.95 187.43C590.73 252.65 592.27 316.83 581.53 378.2C571.29 436.73 549.61 490.97 518.82 535.08C495.81 568.05 468.13 595.14 436.56 615.59C403.89 636.76 367.75 650.32 329.15 655.91C315.9 657.83 302.57 658.79 289.18 658.79V658.78ZM191.98 -184.78C178.65 -184.78 165.37 -183.83 152.15 -181.92C75.9399 -170.88 10.7299 -129.33 -36.4401 -61.7501C-100.37 29.8399 -121.46 156.1 -94.3101 284.66C-70.7101 396.39 -13.6701 496.38 66.3099 566.21C146.24 636 239.5 667.3 328.91 654.35C405.12 643.31 470.33 601.76 517.5 534.18C581.43 442.59 602.53 316.33 575.37 187.77C551.77 76.0399 494.73 -23.9501 414.75 -93.7801C346.63 -153.25 268.83 -184.78 191.98 -184.78Z" fill="white"/>
<path d="M268.28 664.63C266.95 664.63 265.62 664.63 264.29 664.61C214.41 664 165.4 652.08 118.62 629.17C73.4398 607.05 32.2299 575.68 -3.87012 535.92C-39.9601 496.17 -69.1301 450.04 -90.5601 398.81C-112.74 345.77 -125.62 289.57 -128.83 231.75C-135.77 106.88 -95.5101 -10.9401 -18.3701 -91.5001C12.6199 -123.86 48.2698 -148.99 87.5998 -166.19C128.31 -183.99 171.76 -192.75 216.79 -192.19C266.67 -191.58 315.68 -179.66 362.46 -156.75C407.64 -134.63 448.85 -103.26 484.95 -63.5001C521.04 -23.7501 550.21 22.3799 571.64 73.6099C593.82 126.65 606.7 182.85 609.91 240.67C616.85 365.54 576.59 483.36 499.45 563.92C468.46 596.28 432.81 621.41 393.48 638.61C353.98 655.89 311.87 664.64 268.28 664.64V664.63ZM264.31 663.01C352.27 664.12 435.39 628.5 498.3 562.81C575.14 482.57 615.24 365.19 608.32 240.75C595.24 5.37991 419.59 -188.12 216.76 -190.6C128.8 -191.67 45.6798 -156.09 -17.2302 -90.4001C-94.0702 -10.1601 -134.17 107.22 -127.25 231.66C-114.17 467.03 61.4798 660.53 264.31 663.01Z" fill="white"/>
<path d="M251.21 667.6C231.96 667.6 212.59 666.09 193.2 663.04C139.78 654.64 89.1997 635.2 42.8797 605.26C-1.85033 576.35 -40.7603 538.92 -72.7503 494.01C-104.74 449.1 -128.21 398.97 -142.5 345.01C-157.3 289.15 -161.57 231.61 -155.18 174C-148.51 113.75 -130.65 57.3103 -102.11 6.23033C-74.5404 -43.1197 -38.4004 -85.0597 5.28964 -118.43C86.9596 -180.8 187.32 -206.45 287.86 -190.63C341.28 -182.23 391.86 -162.79 438.18 -132.86C482.91 -103.95 521.82 -66.5197 553.81 -21.5997C585.8 23.3103 609.27 73.4403 623.56 127.39C638.36 183.25 642.63 240.79 636.24 298.4C629.57 358.65 611.71 415.09 583.17 466.17C555.6 515.52 519.46 557.46 475.77 590.83C409.85 641.18 331.74 667.6 251.2 667.6H251.21ZM229.86 -193.6C149.66 -193.6 71.8997 -167.3 6.24966 -117.16C-82.3203 -49.5197 -140.58 56.6703 -153.6 174.18C-179.58 408.69 -23.8904 627.29 193.46 661.47C293.57 677.21 393.5 651.68 474.83 589.56C563.4 521.92 621.66 415.73 634.68 298.22C660.66 63.7103 504.97 -154.89 287.62 -189.07C268.32 -192.11 249.02 -193.61 229.86 -193.61V-193.6Z" fill="white"/>
<path d="M240.51 668.5C198.97 668.5 157.66 662.44 117.18 650.39C61.2697 633.74 10.2896 606.63 -34.3504 569.82C-77.4604 534.27 -112.86 491.21 -139.56 441.85C-166.27 392.48 -182.94 339.29 -189.11 283.76C-195.5 226.26 -190.3 168.76 -173.64 112.85C-156.99 56.9401 -129.88 5.9601 -93.0703 -38.6799C-57.5203 -81.7899 -14.4604 -117.19 34.8996 -143.9C84.2697 -170.61 137.46 -187.28 192.99 -193.45C250.49 -199.84 307.99 -194.63 363.9 -177.98C419.81 -161.33 470.79 -134.22 515.43 -97.4099C558.54 -61.8599 593.94 -18.7999 620.64 30.5601C647.35 79.9301 664.02 133.12 670.19 188.65C676.58 246.15 671.38 303.65 654.72 359.56C638.07 415.47 610.96 466.45 574.15 511.09C538.6 554.2 495.54 589.6 446.18 616.3C396.81 643.01 343.62 659.68 288.09 665.85C272.22 667.61 256.35 668.49 240.51 668.49V668.5ZM239.96 -194.57C169.37 -194.57 99.4796 -177.03 35.6496 -142.49C-65.5104 -87.7599 -139.29 3.08011 -172.12 113.3C-204.95 223.53 -192.89 339.94 -138.16 441.09C-83.4304 542.24 7.4097 616.03 117.63 648.86C158.31 660.97 199.83 666.98 241.11 666.98C311.7 666.98 381.59 649.44 445.42 614.91C546.58 560.18 620.36 469.34 653.19 359.12C686.02 248.89 673.96 132.48 619.23 31.3301C564.5 -69.8199 473.66 -143.61 363.44 -176.44C322.76 -188.55 281.24 -194.56 239.96 -194.56V-194.57Z" fill="white"/>
</g>
</g>
</g>
</svg>
