<svg width="262" height="96" viewBox="0 0 262 96" fill="none" xmlns="http://www.w3.org/2000/svg">
<path d="M154.589 50.65C151.729 50.44 150.299 48.97 150.299 46.04V27.05C150.109 23.21 148.159 21.32 144.329 21.32C140.499 21.32 138.55 23.2 138.49 27.05V50.65H129.729V28.94C129.729 18.4 134.66 13.16 144.46 13.16C154.26 13.16 159.059 18.4 158.999 28.94V50.65H154.589Z" fill="#007DC5"/>
<path d="M190.13 35.41C190.13 41.74 188.65 45.91 185.61 47.93C182.57 49.81 179.21 50.78 175.53 50.78C171.85 50.78 168.81 49.74 165.84 47.65C162.87 45.63 161.38 41.6 161.38 35.41V13.3H169.97V37.29C169.97 41.39 171.91 43.41 175.79 43.41C179.67 43.41 181.61 41.39 181.61 37.29V17.89C181.55 14.83 182.9 13.3 185.75 13.3H190.14V35.41H190.13Z" fill="#007DC5"/>
<path d="M211.029 19.88C205.639 19.88 203.319 24.73 203.319 30.68V50.58H194.239V0.649994H198.809C201.809 0.649994 203.319 2.33999 203.319 5.56999V17.17C207.959 11.44 213.619 9.82999 220.379 12.4C225.429 14.38 227.819 19.59 227.549 28.04V50.58H218.539V30.68C218.539 24.14 216.219 19.88 211.029 19.88Z" fill="#007DC5"/>
<path d="M257.169 50.65C254.329 50.44 252.899 48.98 252.899 46.06V27.14C252.709 23.31 250.759 21.43 246.949 21.43C243.139 21.43 241.199 23.31 241.129 27.14V50.65H232.399V29.02C232.399 18.52 237.309 13.3 247.069 13.3C256.829 13.3 261.619 18.52 261.549 29.02V50.65H257.149H257.169Z" fill="#007DC5"/>
<path d="M134.199 57.56C136.979 57.56 138.339 59.02 138.339 62.02V94.4H129.729V57.56H134.199Z" fill="#007DC5"/>
<path d="M158.309 87.88C161.889 87.88 163.679 86.78 163.679 84.44C163.679 82.58 160.739 81.07 154.919 79.97C147.439 78.53 143.609 74.95 143.549 69.24C143.549 61.4 149.299 57.69 157.029 57.55C161.379 57.55 164.829 58.58 167.379 60.64C169.869 62.77 171.209 65.73 171.399 69.51H166.029C164.049 69.44 162.769 68.69 162.259 67.24C161.689 65.66 159.959 64.76 157.149 64.76C153.829 64.76 152.169 65.72 152.169 67.58C152.169 69.44 154.339 70.88 158.749 71.77C164.499 73.01 168.269 74.59 170.119 76.45C171.719 78.24 172.489 80.44 172.489 82.91C172.489 91.85 165.969 95.15 157.019 95.15C152.289 95.15 148.709 94.05 146.409 91.92C143.849 89.86 142.569 86.7 142.569 82.5H151.259C151.449 86.49 154.139 87.86 158.289 87.86" fill="#007DC5"/>
<path d="M185.349 71.56V94.76H176.739V73.42C176.739 63.06 181.589 57.91 191.219 57.91C195.559 57.91 198.879 58.94 201.299 61C203.729 59.01 207.039 58.05 211.379 58.05C221.009 58.05 225.799 63.2 225.739 73.56V94.91H221.339C218.529 94.7 217.129 93.26 217.129 90.38V71.71C216.939 67.93 215.019 66.08 211.259 66.08C207.499 66.08 205.579 67.93 205.519 71.71V94.77H196.969V71.57C196.779 67.79 194.869 65.94 191.099 65.94C187.329 65.94 185.419 67.79 185.359 71.57" fill="#007DC5"/>
<path d="M239.78 72.36H252.5C251.99 67.54 249.88 65.07 246.23 65.07C242.58 65.07 240.41 67.55 239.77 72.36M246.23 95.34C236 95 230.89 88.6 230.89 76.22C230.89 63.84 236.07 57.65 246.36 57.58C257.1 57.58 262.15 64.66 261.51 78.9H239.65C239.97 84.47 242.21 87.29 246.36 87.29C248.34 87.29 250.2 86.39 251.86 84.68C252.63 83.78 253.59 83.37 254.74 83.37H261C259.15 91.07 254.54 95.34 246.23 95.34Z" fill="#007DC5"/>
<path d="M47.8396 65.94C48.4396 68.81 49.5896 70.74 50.8596 72.84C52.1896 75.04 54.4196 78.2 57.9996 81.4C56.1496 81.46 52.0396 81.52 49.2696 81.58V77.85C49.2096 76.19 48.9096 73.98 47.8596 71.65C44.7496 64.74 37.6996 62.54 36.3296 62.15C34.6896 61.77 31.9396 61.37 28.6996 62.08C25.8896 62.69 23.9896 63.86 21.9296 65.16C19.7796 66.52 16.6796 68.79 13.5396 72.44C13.4696 70.24 13.3996 64.91 13.3296 62.26C18.5096 62.09 20.8296 61.81 23.4996 60.38C29.2196 57.31 31.3696 51.74 31.6796 50.9C33.6696 45.53 32.4496 40.84 31.8796 38.78C29.6796 30.82 23.6196 26.67 21.8196 25.54L31.1196 25.51C31.2796 30.91 31.5496 33.31 32.9696 36.06C35.9796 41.89 41.4396 44.09 42.2596 44.4C47.5296 46.43 52.1196 45.18 54.1496 44.6C61.9596 42.36 66.0196 36.18 67.1396 34.35L67.1696 44.95H63.2996C61.6796 45.02 59.5096 45.32 57.2196 46.39C50.4396 49.56 48.2896 56.75 47.8996 58.15C47.5296 59.82 47.1396 62.63 47.8296 65.93M79.9796 47.14H80.0496L79.9796 25.43C79.9396 24.11 79.6996 22.34 78.8596 20.47C76.3796 14.94 70.7396 13.19 69.6496 12.88C68.3396 12.58 66.1396 12.26 63.5496 12.82C61.2996 13.31 59.7896 14.25 58.1396 15.28C56.4196 16.36 53.9396 18.18 51.4396 21.1C51.3796 19.2 51.3196 14.4 51.2596 12.51L34.2896 12.58V12.51L12.9996 12.59C11.6996 12.63 9.96962 12.87 8.13962 13.73C2.71962 16.26 0.99962 22.01 0.68962 23.12C0.39962 24.46 0.0796146 26.7 0.629615 29.34C1.10961 31.63 2.02962 33.18 3.04962 34.86C4.10962 36.61 5.89962 39.14 8.75962 41.7C6.89962 41.76 2.18962 41.82 0.329619 41.88L0.399619 60.55C0.269619 66.44 0.329618 74.13 0.429618 77.97C0.559618 82.81 0.729618 84.81 1.92962 87.13C4.33962 91.79 8.69962 93.55 9.35962 93.8C13.5696 95.42 17.2396 94.42 18.8596 93.96C25.0996 92.17 28.3496 87.23 29.2396 85.76L29.2596 94.76L46.6696 94.69C52.4296 94.82 59.8496 94.76 63.5896 94.66C68.3396 94.53 70.2896 94.35 72.5696 93.13C77.1396 90.68 78.8596 86.23 79.1096 85.56C80.6996 81.26 79.7196 77.52 79.2696 75.87C77.5196 69.51 72.6596 66.2 71.2296 65.29L80.0496 65.26L79.9796 47.14Z" fill="#007DC5"/>
<path d="M108.719 13.61C106.139 14.35 100.749 15.96 96.2492 21.08C95.6792 21.73 88.1692 30.55 90.4492 41.38C90.8692 43.39 91.8192 47.61 95.5292 50.9C98.6792 53.7 102.169 54.35 103.729 54.54C101.989 56.14 93.6392 64.1 93.7792 75.89C93.8092 78.44 93.8892 85.41 98.6992 90.16C99.1292 90.58 103.489 94.77 109.219 95.02C109.259 95.02 109.289 95.02 109.319 95.02C114.249 95.19 117.729 92.81 118.849 92.02C122.369 89.53 123.959 86.32 124.559 85.08C126.439 81.17 126.549 77.54 126.579 76.05C126.719 69.13 126.889 45.94 126.669 14.33C123.939 13.34 116.989 11.25 108.749 13.61M117.439 62.15C117.789 75.33 118.059 79.41 115.329 83.11C114.729 83.92 112.679 86.7 109.729 86.78C106.899 86.85 104.379 84.42 103.199 82.21C99.0492 74.45 107.689 62.54 108.909 60.86C111.869 56.79 115.079 54.16 117.219 52.63C117.259 54.35 117.329 57.78 117.449 62.14M117.759 32.92C117.869 39.94 117.669 41.54 116.519 43.16C113.929 46.78 108.939 47.2 108.079 47.26C106.739 47.35 105.369 47.43 103.959 46.71C99.7592 44.56 99.6792 37.58 99.6792 37.19C99.6792 30.62 104.559 25.08 109.519 22.57C112.629 21 115.549 20.73 117.329 20.72C117.589 25.55 117.709 29.69 117.759 32.92Z" fill="#007DC5"/>
</svg>
