<svg width="1921" height="1081" viewBox="0 0 1921 1081" fill="none" xmlns="http://www.w3.org/2000/svg">
<mask id="mask0_1_80" style="mask-type:luminance" maskUnits="userSpaceOnUse" x="0" y="0" width="1921" height="1081">
<path d="M1920.11 0.0200195H0.109985V1080.02H1920.11V0.0200195Z" fill="white"/>
</mask>
<g mask="url(#mask0_1_80)">
<path d="M1920.11 0.0200195H0.109985V1080.02H1920.11V0.0200195Z" fill="#F49AC1"/>
<g opacity="0.7">
<mask id="mask1_1_80" style="mask-type:luminance" maskUnits="userSpaceOnUse" x="-4" y="-69" width="1928" height="1286">
<path d="M1923.52 -68.38H-3.29001V1216.16H1923.52V-68.38Z" fill="white"/>
</mask>
<g mask="url(#mask1_1_80)">
<mask id="mask2_1_80" style="mask-type:luminance" maskUnits="userSpaceOnUse" x="759" y="385" width="346" height="387">
<path d="M899.93 547.6L903.13 534.5L908.54 529.23C910.47 527.35 912.75 525.34 915.31 524.51L923.22 522.23C924.71 521.68 926.28 521.42 927.86 521.44C928.09 521.44 937.15 521.08 937.38 521.11L950.89 524.18L974.69 534.07L996.34 551.52C997.17 552.26 1007.49 563.33 1008.03 564.3L1020.34 586.45L1018.83 619.92L999.95 644.59L968.74 655.66L933.75 652.64L902.29 640.31L871.33 619.92L852.96 600.79L836.1 577.13L821.25 546.68L813.95 505.65V475.45L827.04 438.2L848.18 412.02L883.69 385.78L854.75 400.42L839.31 410.88L815.64 431.66L796.63 454.36L783.37 475.52L775.16 492.53L767.05 515.29L761.61 539.41L759.49 558L759.66 586.86L762.77 609.52L769.37 634.5L776.09 651.87L789.24 676.79L808.76 703.16L827.65 722.03L844.79 735.42L874.38 752.46L902.15 763L928.06 768.9L954.4 771.32L986.58 769.51L1018.76 762.31L1041.39 753.72L1057.09 742.22L1078.74 722.42L1094.18 695.91L1100.72 678.8L1104.91 651.11L1103.4 624.93L1094.84 591.04L1085.44 571.13L1069.16 545.91L1052.72 527.62L1034.93 512.85C1034.93 512.85 1012.11 499.93 1011.44 499.59C1010.77 499.25 988.12 490.86 988.12 490.86L961.94 486.16L941.3 488.17L925.53 493.54L911.6 504.78L901.7 519.55L897.84 531.46L899.91 547.56L899.93 547.6Z" fill="white"/>
</mask>
<g mask="url(#mask2_1_80)">
<path d="M1104.92 385.79H908.92V771.34H1104.92V385.79Z" fill="#E093AF"/>
<path d="M908.91 385.79H759.49V771.34H908.91V385.79Z" fill="#E093AF"/>
</g>
<mask id="mask3_1_80" style="mask-type:luminance" maskUnits="userSpaceOnUse" x="814" y="373" width="347" height="387">
<path d="M1019.99 606.67L1013.95 617.24L1003.38 624.04L984.75 626.31L966.38 622.53L938.95 608.44L909.75 581.76L899.43 558.6L900.94 525.13L919.82 500.46L951.03 489.39L986.01 492.41L1017.47 504.74L1048.43 525.13L1066.8 544.26L1083.66 567.92L1098.51 598.37L1105.81 639.4V669.6L1092.72 706.85L1071.58 733.03L1036.07 759.27L1065.01 744.63L1080.45 734.17L1104.12 713.39L1123.13 690.69L1136.39 669.53L1144.6 652.52L1152.71 629.76L1158.15 605.64L1160.27 587.05L1160.1 558.19L1156.99 535.53L1150.39 510.55L1143.67 493.18L1130.52 468.26L1111 441.89L1092.11 423.02L1074.97 409.63L1045.38 392.59L1017.61 382.05L991.7 376.15L965.36 373.73L933.18 375.54L901 382.74L878.37 391.33L862.67 402.83L841.02 422.63L825.58 449.14L819.04 466.25L814.85 493.94L816.36 520.12L824.92 554.01L834.32 573.92L850.6 599.14L867.04 617.43L884.83 632.2C884.83 632.2 907.65 645.12 908.32 645.46C908.99 645.8 931.64 654.19 931.64 654.19L957.82 658.89L978.46 656.88L994.23 651.51L1008.16 640.27L1018.06 625.5L1021.92 613.59L1019.99 606.71V606.67Z" fill="white"/>
</mask>
<g mask="url(#mask3_1_80)">
<path d="M1010.87 373.71H814.87V759.26H1010.87V373.71Z" fill="#E093AF"/>
<path d="M1160.29 373.71H1010.87V759.26H1160.29V373.71Z" fill="#E093AF"/>
</g>
<g opacity="0.35">
<path d="M989.4 627.16C981.88 627.16 973.48 625.58 964.62 622.39C931.15 610.37 901.93 578.94 899.47 552.33C898.48 541.64 901.83 532.99 909.14 527.33C919.74 519.13 936.94 518.42 956.35 525.39C989.82 537.41 1019.04 568.84 1021.5 595.45C1022.49 606.14 1019.14 614.79 1011.83 620.45C1006.07 624.91 998.36 627.15 989.4 627.15V627.16ZM931.66 522.29C922.99 522.29 915.52 524.4 910.11 528.59C903.25 533.9 900.12 542.06 901.05 552.19C903.45 578.24 932.21 609.07 965.15 620.9C983.76 627.59 1000.84 626.95 1010.85 619.2C1017.71 613.89 1020.84 605.73 1019.91 595.6C1017.51 569.55 988.75 538.72 955.81 526.89C947.26 523.82 939.03 522.29 931.66 522.29Z" fill="white"/>
<path d="M990.64 631.57C980.44 631.57 968.69 628.49 956.74 622.45C922.86 605.34 896.83 569.72 898.73 543.04C899.45 532.86 904.08 525.07 912.12 520.51C924.68 513.38 944.17 515.18 964.25 525.32C998.13 542.43 1024.16 578.05 1022.26 604.73C1021.54 614.91 1016.91 622.7 1008.87 627.26C1003.79 630.14 997.58 631.57 990.65 631.57H990.64ZM930.34 517.79C923.69 517.79 917.74 519.15 912.89 521.9C905.34 526.19 900.98 533.54 900.3 543.16C898.45 569.26 924.08 604.19 957.44 621.04C977.05 630.94 995.97 632.75 1008.06 625.89C1015.61 621.6 1019.97 614.25 1020.65 604.63C1022.5 578.54 996.87 543.6 963.51 526.75C951.77 520.82 940.26 517.79 930.33 517.79H930.34Z" fill="white"/>
<path d="M990.65 636.17C977.91 636.17 962.94 631.02 948.26 621.28C914.79 599.08 892.92 559.81 899.49 533.74C901.89 524.21 907.8 517.38 916.59 513.99C931.33 508.29 952.31 512.96 972.71 526.49C1006.18 548.69 1028.05 587.96 1021.48 614.03C1019.08 623.56 1013.17 630.39 1004.38 633.78C1000.24 635.38 995.62 636.16 990.65 636.16V636.17ZM901.03 534.13C894.61 559.6 916.19 598.1 949.14 619.96C969.11 633.21 989.54 637.82 1003.8 632.31C1012.08 629.11 1017.66 622.65 1019.93 613.65C1026.35 588.18 1004.77 549.68 971.82 527.82C951.85 514.57 931.42 509.96 917.16 515.47C908.88 518.67 903.3 525.13 901.03 534.13Z" fill="white"/>
<path d="M989.47 640.67C974.13 640.67 956.04 632.89 939.37 618.81C907.21 591.64 890.4 549.41 901.9 524.67C905.98 515.89 913.21 510.13 922.81 508.01C939.68 504.29 961.66 512.12 981.59 528.96C1013.75 556.13 1030.56 598.36 1019.06 623.1C1014.98 631.88 1007.75 637.64 998.15 639.76C995.38 640.37 992.48 640.67 989.47 640.67ZM903.35 525.34C892.13 549.47 908.76 590.86 940.4 617.59C959.96 634.11 981.43 641.82 997.81 638.2C1006.9 636.19 1013.75 630.74 1017.62 622.43C1028.83 598.3 1012.21 556.91 980.57 530.18C961.01 513.66 939.55 505.95 923.16 509.57C914.07 511.58 907.22 517.03 903.35 525.34Z" fill="white"/>
<path d="M987.3 644.91C969.11 644.91 948.01 633.89 930.26 614.98C900.34 583.1 889.48 538.74 906.04 516.09C911.86 508.14 920.49 503.59 931 502.95C949.77 501.8 972.09 512.96 990.71 532.8C1020.63 564.68 1031.49 609.04 1014.93 631.69C1009.12 639.64 1000.48 644.19 989.97 644.83C989.09 644.88 988.2 644.91 987.3 644.91ZM907.32 517.03C891.19 539.09 902 582.55 931.41 613.89C949.71 633.39 971.58 644.38 989.86 643.24C999.89 642.63 1008.11 638.31 1013.64 630.75C1029.77 608.69 1018.97 565.23 989.55 533.89C971.25 514.39 949.4 503.4 931.1 504.54C921.07 505.15 912.85 509.47 907.32 517.03Z" fill="white"/>
<path d="M984.19 648.76C982.7 648.76 981.19 648.68 979.65 648.54C959.46 646.57 937.58 632.08 921.12 609.78C894.41 573.6 890.29 528.06 911.94 508.27C919.62 501.25 929.78 498.14 941.32 499.26C961.51 501.23 983.39 515.72 999.85 538.02C1026.56 574.2 1030.68 619.74 1009.03 639.53C1002.38 645.61 993.86 648.77 984.19 648.77V648.76ZM913.01 509.44C891.95 528.7 896.16 573.29 922.4 608.83C938.6 630.78 960.06 645.03 979.81 646.95C990.89 648.03 1000.63 645.05 1007.96 638.35C1029.02 619.09 1024.81 574.51 998.57 538.96C982.37 517.01 960.91 502.76 941.16 500.84C930.08 499.76 920.35 502.74 913.01 509.44Z" fill="white"/>
<path d="M980.27 652.07C976.06 652.07 971.69 651.49 967.22 650.32C946.33 644.86 925.76 627.24 912.19 603.2C889.66 563.27 892.98 517.63 919.58 501.46C929.31 495.55 941.12 494.17 953.73 497.46C974.62 502.92 995.19 520.54 1008.76 544.58C1031.29 584.51 1027.98 630.15 1001.37 646.32C995.09 650.14 987.94 652.07 980.26 652.07H980.27ZM920.41 502.82C894.53 518.54 891.46 563.22 913.58 602.42C926.94 626.1 947.14 643.43 967.62 648.79C979.81 651.97 991.19 650.66 1000.55 644.97C1026.43 629.25 1029.5 584.57 1007.38 545.37C994.02 521.69 973.82 504.35 953.34 499C941.15 495.82 929.77 497.13 920.41 502.82Z" fill="white"/>
<path d="M975.9 654.73C948.2 654.73 918.24 631.14 903.73 595.3C893.61 570.31 892.85 543.34 901.7 523.14C907.51 509.87 916.93 500.47 928.94 495.94C960.23 484.15 999.83 509.51 1017.23 552.48C1027.35 577.47 1028.11 604.44 1019.26 624.64C1013.45 637.91 1004.03 647.31 992.02 651.84C986.83 653.8 981.41 654.73 975.9 654.73ZM929.51 497.43C917.91 501.8 908.8 510.91 903.16 523.78C894.48 543.59 895.25 570.1 905.21 594.7C922.29 636.87 960.98 661.84 991.46 650.35C1003.06 645.98 1012.17 636.87 1017.81 624C1026.49 604.19 1025.72 577.68 1015.76 553.08C998.68 510.91 959.99 485.95 929.51 497.43Z" fill="white"/>
<path d="M971.27 656.73C938.76 656.73 906.32 627.19 895.99 586.17C889.57 560.68 892.73 535.36 904.65 516.69C913.22 503.26 925.42 494.71 939.91 491.96C975.46 485.22 1013.62 516.46 1024.98 561.6C1031.4 587.09 1028.24 612.41 1016.32 631.08C1007.75 644.51 995.55 653.06 981.07 655.81C977.82 656.43 974.55 656.73 971.28 656.73H971.27ZM940.2 493.53C926.15 496.2 914.32 504.5 905.99 517.55C894.3 535.85 891.22 560.72 897.53 585.79C908.69 630.13 946.05 660.85 980.76 654.26C994.81 651.59 1006.64 643.29 1014.97 630.24C1026.66 611.94 1029.74 587.07 1023.43 562C1012.27 517.66 974.93 486.94 940.2 493.53Z" fill="white"/>
<path d="M966.93 658.05C928.35 658.05 893.69 621.63 889.23 575.94C886.8 551.08 893.76 527.35 908.31 510.85C919.89 497.72 935.53 490.23 952.33 489.76C991.61 488.65 1027.22 525.49 1031.74 571.85C1034.17 596.72 1027.21 620.44 1012.66 636.94C1001.08 650.07 985.44 657.56 968.64 658.03C968.07 658.05 967.5 658.05 966.93 658.05ZM954.05 491.32C953.49 491.32 952.94 491.32 952.38 491.34C936.02 491.8 920.79 499.1 909.5 511.9C895.24 528.07 888.43 551.35 890.81 575.78C895.19 620.66 929.15 656.45 966.93 656.46C967.49 656.46 968.04 656.46 968.6 656.44C984.96 655.98 1000.19 648.68 1011.48 635.89C1025.74 619.72 1032.55 596.44 1030.17 572.01C1025.79 527.13 991.84 491.33 954.05 491.33V491.32Z" fill="white"/>
<path d="M963.34 658.77C960.56 658.77 957.76 658.6 954.95 658.27C912.64 653.21 880.68 611.27 883.71 564.76C885.25 541.12 895.84 519.5 912.76 505.43C927.87 492.87 946.79 487.22 966.03 489.51C1008.34 494.57 1040.3 536.51 1037.28 583.02C1035.74 606.66 1025.15 628.28 1008.23 642.35C995.32 653.08 979.64 658.77 963.35 658.77H963.34ZM957.64 490.6C941.72 490.6 926.4 496.16 913.78 506.65C897.19 520.44 886.81 541.65 885.3 564.86C882.33 610.53 913.66 651.73 955.15 656.68C973.95 658.93 992.44 653.4 1007.21 641.12C1023.8 627.33 1034.18 606.12 1035.69 582.91C1038.66 537.24 1007.33 496.04 965.84 491.09C963.1 490.76 960.36 490.6 957.64 490.6Z" fill="white"/>
<path d="M960.97 659.04C954.06 659.04 947.1 658.16 940.23 656.36C895.68 644.75 868.52 598.31 879.68 552.84C885.15 530.54 898.86 511.89 918.28 500.32C937.23 489.02 959.42 485.86 980.75 491.42C1025.3 503.03 1052.46 549.47 1041.3 594.94C1035.83 617.24 1022.12 635.89 1002.7 647.46C989.85 655.12 975.52 659.04 960.98 659.04H960.97ZM960 490.33C945.74 490.33 931.69 494.17 919.09 501.68C900.04 513.04 886.59 531.34 881.22 553.22C870.26 597.85 896.91 643.43 940.63 654.82C961.54 660.27 983.3 657.17 1001.88 646.09C1020.93 634.73 1034.38 616.43 1039.75 594.55C1050.71 549.92 1024.06 504.34 980.35 492.95C973.61 491.19 966.79 490.33 960.01 490.33H960Z" fill="white"/>
<path d="M960.13 659.02C948.3 659.02 936.3 656.83 924.77 652.19C901.93 643.01 884.54 625.9 875.8 604.01C867.54 583.34 868.11 560.76 877.4 540.44C897.11 497.29 950.41 477.17 996.22 495.59C1019.06 504.77 1036.45 521.88 1045.19 543.77C1053.45 564.44 1052.88 587.02 1043.59 607.34C1028.84 639.63 995.28 659.02 960.13 659.02ZM960.83 490.35C926.28 490.35 893.32 509.39 878.83 541.1C869.73 561.03 869.17 583.16 877.26 603.42C885.84 624.9 902.92 641.69 925.35 650.71C970.38 668.81 1022.77 649.06 1042.13 606.68C1051.23 586.75 1051.79 564.62 1043.7 544.36C1035.12 522.88 1018.04 506.09 995.61 497.07C984.27 492.51 972.45 490.35 960.83 490.35Z" fill="white"/>
<path d="M961.93 659.09C943.81 659.09 925.4 654.75 908.88 645.65C885.7 632.89 869.4 612.2 864.16 588.9C859.38 567.67 863.96 545.98 877.04 527.82C905.51 488.32 966.1 476.79 1012.09 502.13C1035.27 514.89 1051.57 535.58 1056.81 558.88C1061.59 580.11 1057.01 601.8 1043.93 619.96C1025.68 645.27 994.25 659.1 961.92 659.1L961.93 659.09ZM959.02 490.27C927.19 490.27 896.27 503.86 878.33 528.76C865.51 546.54 861.03 567.78 865.71 588.56C870.86 611.42 886.87 631.72 909.65 644.27C954.97 669.23 1014.63 657.91 1042.65 619.04C1055.47 601.26 1059.95 580.02 1055.27 559.24C1050.13 536.38 1034.11 516.08 1011.33 503.53C995.04 494.56 976.89 490.27 959.02 490.27Z" fill="white"/>
<path d="M966.74 659.66C940.89 659.66 914.43 652.06 892.95 636.71C870.08 620.36 856.08 597.21 854.56 573.2C853.19 551.64 861.8 531.08 878.81 515.32C916.06 480.79 983 478.89 1028.03 511.08C1050.9 527.43 1064.9 550.58 1066.42 574.59C1067.79 596.15 1059.18 616.71 1042.17 632.47C1022.69 650.53 995.08 659.66 966.74 659.66ZM954.22 489.69C926.28 489.69 899.08 498.69 879.89 516.48C863.24 531.92 854.8 552.02 856.14 573.1C857.64 596.64 871.39 619.35 893.87 635.42C938.32 667.19 1004.36 665.34 1041.08 631.3C1057.73 615.86 1066.17 595.76 1064.83 574.68C1063.33 551.14 1049.58 528.43 1027.1 512.36C1005.88 497.19 979.74 489.69 954.22 489.69Z" fill="white"/>
<path d="M974.51 661.18C939.6 661.18 903.17 648.77 877.36 625.39C855.8 605.86 844.69 581.03 846.88 557.27C848.89 535.48 861.65 516.29 882.82 503.24C928.64 474.99 1000.76 483.58 1043.6 522.39C1065.16 541.92 1076.27 566.75 1074.08 590.51C1072.07 612.3 1059.31 631.49 1038.14 644.54C1019.92 655.77 997.54 661.18 974.5 661.18H974.51ZM946.48 488.17C923.73 488.17 901.64 493.51 883.66 504.59C862.93 517.37 850.43 536.13 848.47 557.41C846.33 580.67 857.25 605.02 878.44 624.21C903.96 647.33 939.99 659.61 974.5 659.61C997.25 659.61 1019.34 654.27 1037.32 643.19C1058.05 630.41 1070.55 611.65 1072.51 590.37C1074.65 567.11 1063.73 542.76 1042.54 523.57C1017.02 500.45 980.99 488.17 946.48 488.17Z" fill="white"/>
<path d="M984.53 664.06C939.58 664.06 891.32 644.66 862.57 611.78C842.96 589.36 835.3 564.32 841.01 541.26C846.45 519.29 863.55 501.78 889.17 491.95C943.12 471.24 1019.03 491 1058.4 536C1078.01 558.42 1085.67 583.46 1079.96 606.52C1074.52 628.48 1057.42 646 1031.8 655.83C1017.26 661.41 1001.12 664.06 984.53 664.06ZM936.49 485.3C920.08 485.3 904.12 487.91 889.74 493.44C864.62 503.08 847.86 520.21 842.55 541.65C836.97 564.19 844.5 588.72 863.76 610.74C902.72 655.28 977.85 674.85 1031.22 654.35C1056.34 644.71 1073.1 627.58 1078.41 606.14C1083.99 583.6 1076.46 559.07 1057.2 537.05C1028.74 504.51 980.97 485.3 936.49 485.3Z" fill="white"/>
<path d="M995.67 668.54C940.08 668.54 878.61 639.31 849 596.02C832.41 571.76 828.1 546.6 836.88 525.19C845.92 503.14 867.58 487.73 897.89 481.8C959.28 469.79 1037.38 501.18 1071.98 551.76C1088.57 576.02 1092.88 601.18 1084.1 622.59C1075.06 644.64 1053.4 660.05 1023.09 665.98C1014.24 667.71 1005.04 668.54 995.67 668.54ZM925.36 480.82C916.08 480.82 906.97 481.64 898.19 483.36C868.42 489.18 847.17 504.25 838.34 525.79C829.77 546.69 834.02 571.32 850.3 595.12C884.57 645.23 961.94 676.31 1022.77 664.42C1052.54 658.6 1073.79 643.53 1082.62 621.99C1091.19 601.09 1086.93 576.46 1070.66 552.66C1041.33 509.78 980.43 480.82 925.36 480.82Z" fill="white"/>
<path d="M1006.91 674.73C940.21 674.73 864.93 632.31 837.11 578.33C824.06 553.02 823.15 528.39 834.54 508.99C847.24 487.36 874.36 474.29 908.95 473.14C976.88 470.89 1055.34 514.09 1083.87 569.46C1096.92 594.77 1097.83 619.4 1086.44 638.8C1073.74 660.43 1046.62 673.5 1012.03 674.65C1010.33 674.71 1008.62 674.73 1006.91 674.73ZM914.08 474.64C912.38 474.64 910.69 474.67 909 474.72C874.97 475.85 848.33 488.63 835.91 509.78C824.81 528.69 825.73 552.77 838.52 577.59C866.8 632.46 944.63 675.3 1011.97 673.04C1046 671.91 1072.64 659.13 1085.06 637.98C1096.16 619.07 1095.23 594.98 1082.45 570.17C1054.88 516.68 980.23 474.63 914.08 474.63V474.64Z" fill="white"/>
<path d="M1017.08 682.55C1011.16 682.55 1005.02 682.19 998.7 681.47C925.43 673.07 848.56 618.13 827.35 558.99C818.16 533.38 820.6 509.82 834.2 492.66C851.03 471.43 883.13 461.84 922.28 466.32C995.55 474.72 1072.42 529.66 1093.63 588.8C1102.82 614.41 1100.38 637.97 1086.78 655.13C1072.67 672.93 1047.82 682.55 1017.09 682.55H1017.08ZM903.87 466.82C873.63 466.82 849.24 476.23 835.44 493.64C822.19 510.36 819.85 533.37 828.84 558.45C849.87 617.08 926.15 671.55 998.88 679.88C1037.47 684.31 1069.05 674.92 1085.53 654.13C1098.78 637.42 1101.12 614.4 1092.13 589.32C1071.1 530.69 994.82 476.22 922.09 467.89C915.82 467.17 909.74 466.82 903.87 466.82Z" fill="white"/>
<path d="M1025.11 691.78C1012.14 691.78 998.06 689.91 983.25 686.13C906.04 666.38 832.87 600.09 820.15 538.36C814.87 512.74 820.4 491.27 836.15 476.25C857.46 455.92 894.48 450.6 937.72 461.66C1014.93 481.41 1088.1 547.7 1100.82 609.43C1106.1 635.05 1100.57 656.52 1084.82 671.54C1070.81 684.91 1050 691.78 1025.11 691.78ZM895.84 457.59C871.37 457.59 850.96 464.32 837.25 477.4C821.93 492.02 816.55 512.98 821.71 538.04C834.32 599.23 906.96 664.97 983.64 684.59C1026.33 695.51 1062.81 690.34 1083.72 670.39C1099.04 655.77 1104.42 634.81 1099.26 609.75C1086.65 548.56 1014.01 482.82 937.33 463.2C922.64 459.44 908.68 457.59 895.85 457.59H895.84Z" fill="white"/>
<path d="M1030.03 701.83C1010.53 701.83 988.58 697.33 965.89 688.31C886.37 656.73 819.1 579.8 815.95 516.84C814.71 492.13 823.31 472.45 840.8 459.92C866.59 441.46 909.31 441.29 955.08 459.47C1034.61 491.05 1101.87 567.98 1105.02 630.94C1106.26 655.65 1097.66 675.33 1080.16 687.86C1067.16 697.17 1049.85 701.83 1030.02 701.83H1030.03ZM890.93 447.53C871.44 447.53 854.46 452.09 841.72 461.21C824.68 473.41 816.32 492.62 817.53 516.76C820.66 579.16 887.47 655.46 966.47 686.83C1011.74 704.81 1053.9 704.71 1079.24 686.57C1096.28 674.37 1104.64 655.16 1103.43 631.02C1100.3 568.62 1033.49 492.32 954.49 460.94C931.97 452 910.22 447.52 890.92 447.52L890.93 447.53Z" fill="white"/>
<path d="M1032.35 712.62C1006.73 712.62 976.97 704.17 946.88 687.76C866.88 644.13 807.75 557.62 815.07 494.92C817.8 471.52 829.4 453.9 848.6 443.96C879.46 427.99 926.36 433.99 974.07 460.02C1054.07 503.65 1113.2 590.16 1105.88 652.86C1103.15 676.26 1091.55 693.88 1072.35 703.82C1060.95 709.72 1047.36 712.62 1032.35 712.62ZM888.63 436.74C873.87 436.74 860.53 439.58 849.34 445.37C830.63 455.05 819.33 472.25 816.66 495.1C809.41 557.21 868.17 643.01 947.65 686.36C994.9 712.13 1041.24 718.13 1071.63 702.4C1090.34 692.72 1101.64 675.52 1104.31 652.67C1111.56 590.56 1052.8 504.76 973.32 461.41C943.47 445.13 913.96 436.74 888.63 436.74Z" fill="white"/>
<path d="M1031.59 723.51C999.98 723.51 962.68 709.83 926.59 684.25C848.12 628.63 799.36 533.92 817.89 473.13C824.54 451.32 839.15 436 860.14 428.83C896.17 416.52 946.36 429.49 994.39 463.54C1072.86 519.16 1121.62 613.87 1103.09 674.66C1096.44 696.47 1081.83 711.79 1060.84 718.96C1051.88 722.02 1042.05 723.52 1031.6 723.52L1031.59 723.51ZM889.41 425.85C879.12 425.85 869.46 427.32 860.65 430.33C840.16 437.33 825.9 452.29 819.41 473.59C801.06 533.78 849.56 627.7 927.51 682.96C963.33 708.35 1000.31 721.93 1031.56 721.94C1041.85 721.94 1051.51 720.47 1060.32 717.46C1080.81 710.46 1095.07 695.5 1101.56 674.2C1119.91 614.01 1071.41 520.09 993.46 464.84C957.64 439.45 920.66 425.86 889.4 425.86L889.41 425.85Z" fill="white"/>
<path d="M1028.12 734.07C990.25 734.07 945.67 713.8 905.4 677.62C830.61 610.4 794.36 509.21 824.6 452.04C835.2 432.01 852.95 419.26 875.93 415.17C916.92 407.88 969.12 428.44 1015.56 470.18C1090.35 537.4 1126.6 638.59 1096.36 695.76C1085.76 715.79 1068.01 728.54 1045.03 732.63C1039.58 733.6 1033.92 734.08 1028.11 734.08L1028.12 734.07ZM892.88 415.3C887.15 415.3 881.59 415.77 876.22 416.73C853.73 420.73 836.37 433.2 826.01 452.78C796.09 509.34 832.18 609.67 906.46 676.43C952.54 717.84 1004.24 738.26 1044.75 731.05C1067.24 727.05 1084.6 714.58 1094.96 695C1124.88 638.44 1088.79 538.11 1014.51 471.35C974.54 435.43 930.34 415.3 892.88 415.3Z" fill="white"/>
<path d="M1022.42 743.91C977.62 743.91 925.97 715.57 883.79 667.74C814.91 589.64 793.21 484 835.41 432.25C850.14 414.19 871.28 404.38 896.53 403.89C941.77 403.02 994.38 431.48 1037.19 480.04C1106.07 558.14 1127.77 663.78 1085.57 715.53C1070.84 733.59 1049.7 743.4 1024.45 743.89C1023.78 743.9 1023.1 743.91 1022.42 743.91ZM898.56 405.46C897.89 405.46 897.22 405.46 896.56 405.48C871.79 405.96 851.07 415.56 836.64 433.25C794.91 484.42 816.59 589.14 884.98 666.68C926.86 714.17 978.07 742.31 1022.42 742.31C1023.09 742.31 1023.76 742.31 1024.42 742.29C1049.19 741.81 1069.91 732.21 1084.34 714.52C1126.07 663.35 1104.39 558.63 1036 481.09C994.12 433.6 942.91 405.46 898.56 405.46Z" fill="white"/>
<path d="M1014.44 752.72C1009.34 752.72 1004.12 752.35 998.79 751.6C950.54 744.84 899.5 708.58 862.26 654.6C801.59 566.67 796.25 458.91 850.37 414.39C869.6 398.57 894.43 392.27 922.19 396.16C970.44 402.92 1021.48 439.18 1058.72 493.16C1119.39 581.09 1124.73 688.85 1070.61 733.37C1055.08 746.15 1035.88 752.71 1014.44 752.71V752.72ZM906.54 396.65C885.46 396.65 866.61 403.09 851.37 415.63C797.88 459.63 803.35 566.43 863.56 653.71C900.55 707.32 951.19 743.33 999.01 750.03C1026.32 753.86 1050.73 747.67 1069.6 732.15C1123.09 688.15 1117.62 581.34 1057.41 494.07C1020.42 440.46 969.78 404.45 921.96 397.75C916.71 397.01 911.56 396.65 906.54 396.65Z" fill="white"/>
<path d="M1004.74 760.21C992.96 760.21 980.7 758.3 968.19 754.46C918.79 739.32 871.38 695.88 841.38 638.27C791.19 541.91 803.78 434.62 869.45 399.12C893.67 386.03 922.48 384.02 952.79 393.31C1002.19 408.45 1049.6 451.89 1079.6 509.5C1129.79 605.86 1117.2 713.15 1051.53 748.65C1037.31 756.34 1021.5 760.2 1004.74 760.2V760.21ZM916.24 389.16C899.73 389.16 884.18 392.96 870.2 400.52C805.29 435.61 792.99 541.94 842.79 637.53C872.61 694.77 919.66 737.92 968.66 752.94C998.55 762.1 1026.95 760.14 1050.78 747.25C1115.69 712.16 1127.99 605.83 1078.19 510.24C1048.37 453 1001.32 409.85 952.32 394.83C939.97 391.04 927.87 389.16 916.24 389.16Z" fill="white"/>
<path d="M994.14 766.11C926.06 766.11 853.75 706.84 821.73 618.86C810.87 589.02 805.42 557.61 805.96 528.02C806.48 499.36 812.59 472.27 823.63 449.68C838.94 418.32 862.76 396.65 892.51 387.02C969.01 362.25 1061.75 425.9 1099.24 528.92C1110.1 558.76 1115.55 590.17 1115.01 619.76C1114.49 648.42 1108.38 675.51 1097.34 698.1C1082.03 729.46 1058.21 751.13 1028.46 760.76C1017.29 764.38 1005.77 766.11 994.14 766.11ZM926.87 383.26C915.38 383.26 904.02 384.97 893 388.54C863.67 398.04 840.18 419.42 825.06 450.38C802.48 496.63 801.79 559.41 823.23 618.32C860.43 720.54 952.28 783.76 1027.98 759.24C1057.31 749.74 1080.8 728.36 1095.92 697.4C1118.5 651.15 1119.19 588.37 1097.75 529.46C1065.96 442.12 994.28 383.25 926.88 383.25L926.87 383.26Z" fill="white"/>
<path d="M983.22 770.42C903.07 770.42 825.06 696.56 803.95 596.62C791.28 536.65 801.14 477.72 830.99 434.95C853.07 403.32 883.61 383.87 919.3 378.7C1005.59 366.2 1094.29 443.58 1117.02 551.18C1129.69 611.15 1119.83 670.08 1089.98 712.85C1067.9 744.48 1037.36 763.93 1001.67 769.1C995.53 769.99 989.36 770.42 983.22 770.42ZM937.77 378.95C931.69 378.95 925.61 379.38 919.53 380.26C884.28 385.37 854.12 404.59 832.29 435.85C802.69 478.26 792.92 536.74 805.5 596.28C828.06 703.08 915.96 779.91 1001.43 767.51C1036.68 762.4 1066.85 743.18 1088.67 711.92C1118.27 669.51 1128.04 611.03 1115.46 551.49C1094.5 452.29 1017.16 378.95 937.76 378.95H937.77Z" fill="white"/>
<path d="M973.31 773.14C972.71 773.14 972.1 773.14 971.5 773.13C876.77 771.97 794.74 681.68 788.63 571.84C785.4 513.77 804.13 458.97 840.01 421.5C869.43 390.78 908.29 374.12 949.46 374.64C1044.19 375.8 1126.22 466.09 1132.33 575.93C1135.56 634 1116.83 688.8 1080.95 726.26C1051.96 756.53 1013.8 773.13 973.31 773.13V773.14ZM947.66 376.23C907.61 376.23 869.86 392.66 841.17 422.61C805.59 459.76 787.02 514.12 790.23 571.76C796.29 680.77 877.62 770.4 971.53 771.54C972.13 771.54 972.72 771.55 973.32 771.55C1013.37 771.55 1051.12 755.12 1079.81 725.17C1115.39 688.02 1133.96 633.66 1130.75 576.02C1124.69 467 1043.36 377.38 949.45 376.24C948.85 376.24 948.25 376.23 947.66 376.23Z" fill="white"/>
<path d="M965.44 774.52C956.49 774.52 947.47 773.82 938.45 772.4C836.97 756.44 764.28 654.42 776.41 544.97C779.51 516.95 787.82 490.7 801.09 466.95C813.92 444 830.72 424.49 851.05 408.97C889.05 379.95 935.74 368.02 982.52 375.37C1084 391.33 1156.69 493.35 1144.56 602.8C1141.46 630.82 1133.15 657.07 1119.88 680.82C1107.05 703.77 1090.25 723.28 1069.92 738.8C1039.25 762.22 1002.91 774.52 965.44 774.52ZM938.7 770.83C985.05 778.12 1031.3 766.3 1068.96 737.54C1109.97 706.22 1136.95 657.04 1142.98 602.62C1155.01 494.01 1082.92 392.77 982.27 376.94C935.93 369.66 889.67 381.47 852.01 410.23C811 441.55 784.02 490.73 777.99 545.15C765.96 653.76 838.05 755 938.7 770.83Z" fill="white"/>
<path d="M960.75 774.98C941.48 774.98 922.1 772.18 903.11 766.52C796.9 734.89 736.22 622.74 767.85 516.52C799.49 410.31 911.64 349.63 1017.85 381.26C1069.3 396.58 1111.71 431.03 1137.26 478.25C1162.81 525.47 1168.44 579.81 1153.11 631.26C1137.79 682.71 1103.34 725.12 1056.12 750.67C1026.33 766.79 993.7 774.98 960.75 774.98ZM903.57 764.99C954.61 780.19 1008.53 774.61 1055.37 749.26C1102.22 723.92 1136.39 681.84 1151.59 630.8C1166.79 579.75 1161.21 525.84 1135.86 479C1110.52 432.16 1068.44 397.98 1017.4 382.78C912.02 351.4 800.76 411.59 769.38 516.97C738 622.35 798.19 733.61 903.57 764.99Z" fill="white"/>
</g>
<mask id="mask4_1_80" style="mask-type:luminance" maskUnits="userSpaceOnUse" x="478" y="122" width="830" height="926">
<path d="M815.77 510.83L823.44 479.41L836.42 466.76C841.05 462.25 846.52 457.43 852.67 455.45L871.64 449.98C875.2 448.67 878.98 448.03 882.77 448.09C883.33 448.09 905.05 447.22 905.61 447.29L938 454.66L995.09 478.38L1047.02 520.23C1049.02 522 1073.75 548.55 1075.05 550.88L1104.58 604.02L1100.96 684.31L1055.69 743.47L980.84 770.03L896.93 762.79L821.47 733.21L747.22 684.31L703.15 638.43L662.7 581.69L627.08 508.65L609.57 410.25V337.81L640.96 248.47L691.67 185.69L776.83 122.75L707.41 157.85L670.39 182.94L613.61 232.78L568.02 287.21L536.21 337.97L516.52 378.77L497.06 433.36L484.01 491.21L478.92 535.8L479.34 605.02L486.79 659.37L502.62 719.29L518.74 760.94L550.28 820.71L597.09 883.96L642.4 929.23L683.5 961.34L754.47 1002.22L821.07 1027.51L883.21 1041.66L946.39 1047.46L1023.58 1043.12L1100.76 1025.86L1155.03 1005.26L1192.69 977.69L1244.6 930.2L1281.62 866.61L1297.32 825.56L1307.38 759.16L1303.76 696.38L1283.24 615.09L1260.7 567.33L1221.66 506.83L1182.22 462.96L1139.56 427.55C1139.56 427.55 1084.83 396.56 1083.22 395.76C1081.61 394.96 1027.28 374.83 1027.28 374.83L964.5 363.56L915 368.39L877.17 381.27L843.77 408.23L820.03 443.64L810.77 472.21L815.74 510.82L815.77 510.83Z" fill="white"/>
</mask>
<g mask="url(#mask4_1_80)">
<path d="M1307.42 122.74H837.33V1047.45H1307.42V122.74Z" fill="#E093AF"/>
<path d="M837.32 122.74H478.94V1047.45H837.32V122.74Z" fill="#E093AF"/>
</g>
<mask id="mask5_1_80" style="mask-type:luminance" maskUnits="userSpaceOnUse" x="611" y="93" width="830" height="926">
<path d="M1103.73 652.5L1089.24 677.85L1063.89 694.15L1019.22 699.58L975.15 690.53L909.35 656.72L839.33 592.73L814.58 537.19L818.2 456.9L863.47 397.74L938.32 371.18L1022.23 378.42L1097.69 408L1171.94 456.9L1216.01 502.78L1256.46 559.52L1292.08 632.56L1309.59 730.96V803.4L1278.2 892.74L1227.49 955.52L1142.33 1018.46L1211.75 983.36L1248.77 958.27L1305.55 908.43L1351.14 854L1382.95 803.24L1402.64 762.44L1422.1 707.85L1435.15 650L1440.24 605.41L1439.82 536.19L1432.37 481.84L1416.54 421.92L1400.42 380.27L1368.88 320.5L1322.06 257.25L1276.75 211.98L1235.65 179.87L1164.68 138.99L1098.08 113.7L1035.94 99.55L972.76 93.75L895.57 98.09L818.39 115.35L764.12 135.95L726.46 163.52L674.54 211.01L637.52 274.6L621.82 315.65L611.76 382.05L615.38 444.83L635.9 526.12L658.44 573.88L697.48 634.38L736.92 678.25L779.58 713.66C779.58 713.66 834.31 744.65 835.92 745.45C837.53 746.25 891.86 766.38 891.86 766.38L954.64 777.65L1004.14 772.82L1041.97 759.94L1075.37 732.98L1099.11 697.57L1108.37 669L1103.74 652.5H1103.73Z" fill="white"/>
</mask>
<g mask="url(#mask5_1_80)">
<path d="M1081.84 93.77H611.75V1018.49H1081.84V93.77Z" fill="#E093AF"/>
<path d="M1440.22 93.77H1081.84V1018.49H1440.22V93.77Z" fill="#E093AF"/>
</g>
<g opacity="0.35">
<path d="M1030.36 700.54C1012.45 700.54 992.43 696.76 971.29 689.17C891.39 660.46 821.62 585.5 815.77 522.07C813.44 496.82 821.31 476.42 838.53 463.09C863.64 443.65 904.52 442.01 950.71 458.61C1030.61 487.32 1100.38 562.28 1106.23 625.71C1108.56 650.96 1100.69 671.36 1083.47 684.69C1069.85 695.23 1051.59 700.54 1030.36 700.54ZM891.64 448.83C870.77 448.83 852.85 454.03 839.51 464.35C822.74 477.33 815.08 497.24 817.36 521.93C823.16 584.8 892.45 659.16 971.83 687.68C1017.49 704.08 1057.83 702.54 1082.5 683.44C1099.27 670.46 1106.93 650.55 1104.65 625.86C1098.85 562.98 1029.56 488.63 950.18 460.11C929.21 452.58 909.36 448.83 891.64 448.83Z" fill="white"/>
<path d="M1033.31 711.13C1009.03 711.13 981.03 703.78 952.5 689.37C871.6 648.52 809.46 563.56 813.97 499.98C815.67 475.96 826.59 457.58 845.53 446.83C875.33 429.92 921.67 434.25 969.5 458.4C1050.4 499.25 1112.54 584.21 1108.03 647.79C1106.33 671.81 1095.41 690.19 1076.47 700.94C1064.45 707.76 1049.73 711.13 1033.31 711.13ZM888.7 438.23C872.56 438.23 858.11 441.53 846.31 448.22C827.85 458.69 817.22 476.63 815.55 500.1C811.08 563.1 872.84 647.37 953.21 687.95C1000.57 711.87 1046.35 716.2 1075.68 699.56C1094.14 689.09 1104.77 671.15 1106.44 647.68C1110.91 584.69 1049.15 500.41 968.78 459.83C940.46 445.53 912.71 438.23 888.7 438.23Z" fill="white"/>
<path d="M1033.34 722.16C1003.02 722.16 967.32 709.87 932.31 686.64C852.41 633.63 800.14 539.98 815.8 477.88C821.47 455.4 835.41 439.28 856.13 431.27C891.15 417.72 941.09 428.89 989.71 461.15C1069.61 514.16 1121.88 607.81 1106.22 669.91C1100.55 692.39 1086.61 708.51 1065.89 716.52C1056.09 720.31 1045.12 722.17 1033.35 722.17L1033.34 722.16ZM888.69 427.2C877.1 427.2 866.32 429.02 856.69 432.75C836.48 440.57 822.87 456.31 817.33 478.27C801.83 539.77 853.79 632.65 933.18 685.32C981.37 717.29 1030.76 728.4 1065.31 715.04C1085.52 707.22 1099.13 691.48 1104.67 669.52C1120.18 608.02 1068.21 515.14 988.82 462.47C954.06 439.41 918.68 427.21 888.69 427.21V427.2Z" fill="white"/>
<path d="M1030.51 732.95C993.98 732.95 950.86 714.38 911.09 680.78C834.32 615.92 794.13 515.23 821.51 456.32C831.15 435.59 848.22 421.99 870.88 416.99C911.01 408.14 963.36 426.83 1010.91 467C1087.68 531.86 1127.87 632.55 1100.49 691.46C1090.85 712.19 1073.78 725.79 1051.12 730.79C1044.55 732.24 1037.66 732.95 1030.51 732.95ZM891.52 416.41C884.48 416.41 877.69 417.11 871.23 418.54C849.07 423.43 832.38 436.72 822.96 456.99C795.86 515.29 835.86 615.14 912.12 679.57C951.6 712.92 994.35 731.37 1030.48 731.37C1037.52 731.37 1044.31 730.67 1050.77 729.24C1072.93 724.35 1089.62 711.06 1099.04 690.79C1126.14 632.49 1086.14 532.64 1009.88 468.21C970.4 434.86 927.65 416.41 891.52 416.41Z" fill="white"/>
<path d="M1025.3 743.12C981.98 743.12 931.67 716.81 889.32 671.68C817.92 595.6 791.9 489.83 831.32 435.92C845.07 417.12 865.48 406.38 890.36 404.85C935.05 402.13 988.25 428.75 1032.69 476.1C1104.09 552.18 1130.11 657.95 1090.69 711.86C1076.94 730.66 1056.53 741.4 1031.65 742.92C1029.56 743.05 1027.44 743.11 1025.31 743.11L1025.3 743.12ZM896.72 406.25C894.61 406.25 892.53 406.31 890.46 406.44C866.07 407.93 846.06 418.45 832.61 436.86C793.62 490.19 819.58 595.04 890.48 670.6C932.53 715.41 982.42 741.53 1025.29 741.54C1027.4 741.54 1029.48 741.48 1031.55 741.35C1055.94 739.86 1075.95 729.34 1089.41 710.93C1128.4 657.6 1102.44 552.75 1031.54 477.19C989.49 432.38 939.6 406.25 896.73 406.25H896.72Z" fill="white"/>
<path d="M1017.86 752.34C1014.33 752.34 1010.74 752.16 1007.09 751.81C958.98 747.12 906.79 712.54 867.49 659.3C803.76 572.96 793.81 464.41 845.32 417.32C863.49 400.7 887.56 393.32 914.92 395.99C963.03 400.68 1015.22 435.26 1054.52 488.5C1118.25 574.84 1128.19 683.39 1076.69 730.48C1060.94 744.88 1040.77 752.34 1017.86 752.34ZM904.16 397.04C881.65 397.04 861.84 404.36 846.39 418.48C795.47 465.04 805.51 572.64 868.77 658.34C907.81 711.23 959.57 745.57 1007.24 750.22C1034.14 752.84 1057.78 745.61 1075.62 729.3C1126.54 682.74 1116.5 575.14 1053.24 489.44C1014.2 436.55 962.44 402.21 914.77 397.56C911.17 397.21 907.64 397.04 904.16 397.04Z" fill="white"/>
<path d="M1008.46 760.28C998.46 760.28 988.08 758.9 977.46 756.12C927.65 743.1 878.57 701.05 846.17 643.62C792.42 548.36 800.2 439.57 863.51 401.11C886.58 387.09 914.61 383.82 944.57 391.65C994.38 404.67 1043.46 446.72 1075.86 504.15C1129.61 599.41 1121.83 708.2 1058.52 746.66C1043.63 755.71 1026.67 760.28 1008.47 760.28H1008.46ZM913.56 389.09C895.64 389.09 878.96 393.58 864.33 402.47C801.75 440.49 794.22 548.32 847.55 642.84C879.74 699.9 928.45 741.67 977.86 754.58C1007.39 762.29 1034.99 759.09 1057.69 745.3C1120.27 707.28 1127.8 599.45 1074.47 504.93C1042.28 447.87 993.56 406.1 944.16 393.19C933.67 390.45 923.43 389.09 913.56 389.09Z" fill="white"/>
<path d="M997.95 766.67C931.98 766.67 860.55 710.35 825.92 624.83C801.76 565.17 799.94 500.8 821.03 452.63C834.84 421.09 857.22 398.74 885.74 387.99C960.22 359.92 1054.57 420.47 1096.07 522.97C1120.23 582.63 1122.05 647 1100.96 695.17C1087.15 726.71 1064.77 749.07 1036.25 759.82C1023.92 764.47 1011.04 766.69 997.95 766.69V766.67ZM924.1 382.7C911.18 382.7 898.48 384.89 886.31 389.47C858.2 400.07 836.13 422.13 822.49 453.26C801.56 501.04 803.4 564.95 827.39 624.22C861.77 709.13 932.58 765.07 997.9 765.08C1010.82 765.08 1023.52 762.89 1035.69 758.31C1063.8 747.71 1085.87 725.65 1099.51 694.52C1120.44 646.74 1118.6 582.83 1094.61 523.56C1060.23 438.65 989.42 382.7 924.1 382.7Z" fill="white"/>
<path d="M986.86 771.46C909.4 771.46 832.04 700.96 807.4 603.07C792.08 542.24 799.61 481.81 828.04 437.3C848.44 405.36 877.42 385.03 911.87 378.49C996.56 362.42 1087.51 436.99 1114.62 544.7C1129.94 605.53 1122.41 665.96 1093.98 710.47C1073.58 742.41 1044.6 762.74 1010.15 769.28C1002.42 770.75 994.64 771.46 986.86 771.46ZM935.17 377.91C927.48 377.91 919.79 378.61 912.15 380.06C878.15 386.51 849.52 406.6 829.37 438.16C801.17 482.31 793.73 542.28 808.94 602.69C833.4 699.86 910.1 769.87 986.84 769.88C994.53 769.88 1002.22 769.18 1009.86 767.73C1043.86 761.28 1072.49 741.19 1092.64 709.63C1120.84 665.48 1128.28 605.51 1113.07 545.1C1088.61 447.93 1011.91 377.91 935.17 377.91Z" fill="white"/>
<path d="M976.46 774.63C884.48 774.63 801.84 687.71 791.2 578.7C785.41 519.37 801.99 462.78 836.69 423.44C864.26 392.18 901.48 374.34 941.47 373.23C1035.06 370.59 1120.01 458.48 1130.8 569.11C1136.59 628.44 1120.01 685.03 1085.31 724.37C1057.73 755.63 1020.52 773.47 980.53 774.58C979.17 774.62 977.81 774.64 976.45 774.64L976.46 774.63ZM941.52 374.8C901.97 375.91 865.16 393.55 837.88 424.48C803.47 463.49 787.03 519.65 792.78 578.54C803.34 686.75 885.27 773.04 976.45 773.04C977.79 773.04 979.14 773.02 980.48 772.98C1020.03 771.87 1056.84 754.23 1084.12 723.3C1118.53 684.29 1134.97 628.14 1129.22 569.24C1118.66 461.03 1036.73 374.74 945.55 374.74C944.21 374.74 942.86 374.76 941.52 374.8Z" fill="white"/>
<path d="M967.84 776.35C961.21 776.35 954.54 775.95 947.86 775.16C846.95 763.1 770.74 663.02 777.96 552.07C781.63 495.68 806.88 444.1 847.24 410.56C883.25 380.63 928.32 367.16 974.15 372.64C1075.06 384.7 1151.27 484.77 1144.05 595.73C1140.38 652.12 1115.13 703.7 1074.77 737.24C1044.01 762.8 1006.65 776.36 967.85 776.36L967.84 776.35ZM954.17 373.02C915.74 373.02 878.73 386.45 848.26 411.77C808.24 445.03 783.19 496.2 779.55 552.16C772.38 662.29 847.97 761.61 948.05 773.57C993.44 778.99 1038.08 765.65 1073.75 736C1113.77 702.74 1138.82 651.57 1142.46 595.61C1149.63 485.48 1074.04 386.16 973.96 374.2C967.34 373.41 960.73 373.02 954.17 373.02Z" fill="white"/>
<path d="M962.17 777C945.68 777 929.09 774.89 912.7 770.62C806.44 742.93 741.65 632.15 768.28 523.68C781.34 470.5 814.03 426 860.34 398.39C905.54 371.45 958.45 363.91 1009.31 377.16C1115.57 404.85 1180.36 515.63 1153.73 624.1C1140.67 677.28 1107.98 721.78 1061.67 749.39C1031.03 767.65 996.85 777 962.17 777ZM959.84 372.37C925.44 372.37 891.54 381.64 861.15 399.76C815.21 427.15 782.77 471.29 769.82 524.06C743.4 631.69 807.67 741.61 913.1 769.09C963.55 782.24 1016.02 774.76 1060.85 748.03C1106.79 720.64 1139.23 676.5 1152.18 623.73C1178.6 516.1 1114.33 406.18 1008.9 378.7C992.65 374.46 976.18 372.37 959.83 372.37H959.84Z" fill="white"/>
<path d="M960.15 776.96C931.92 776.96 903.27 771.72 875.74 760.65C848.26 749.6 824.03 733.71 803.72 713.43C784.1 693.83 769.02 671.05 758.9 645.72C739.21 596.43 740.57 542.6 762.71 494.12C809.73 391.16 936.94 343.17 1046.27 387.13C1073.75 398.18 1097.98 414.07 1118.29 434.35C1137.91 453.95 1152.99 476.73 1163.11 502.06C1182.8 551.35 1181.44 605.19 1159.3 653.66C1124.12 730.69 1044.04 776.95 960.16 776.96H960.15ZM961.84 372.41C878.56 372.41 799.08 418.32 764.16 494.78C742.2 542.86 740.86 596.25 760.38 645.13C781.07 696.93 822.25 737.43 876.33 759.17C903.67 770.16 932.13 775.36 960.16 775.36C1043.44 775.36 1122.92 729.45 1157.84 652.99C1179.8 604.91 1181.14 551.52 1161.62 502.64C1140.93 450.84 1099.75 410.34 1045.67 388.6C1018.33 377.61 989.87 372.41 961.84 372.41Z" fill="white"/>
<path d="M964.4 777.27C920.06 777.27 876.38 766.29 837.76 745.03C809.52 729.48 785.81 709.48 767.28 685.59C749.38 662.5 737.18 636.95 731.04 609.65C719.65 559.05 730.56 507.34 761.76 464.06C794.7 418.37 846.38 386.83 907.3 375.26C968.2 363.69 1031.04 373.46 1084.24 402.76C1112.48 418.31 1136.19 438.31 1154.72 462.2C1172.62 485.29 1184.82 510.84 1190.96 538.14C1202.35 588.74 1191.44 640.45 1160.24 683.73C1127.3 729.42 1075.62 760.96 1014.7 772.53C998 775.7 981.15 777.27 964.39 777.27H964.4ZM957.5 372.22C880.82 372.22 806.3 404.98 763.05 464.98C732.12 507.89 721.3 559.14 732.59 609.29C745 664.42 783.61 713.38 838.53 743.63C947.7 803.75 1091.44 776.46 1158.95 682.79C1189.88 639.88 1200.7 588.63 1189.41 538.48C1177 483.35 1138.39 434.39 1083.47 404.14C1044.23 382.53 1000.53 372.21 957.5 372.21V372.22Z" fill="white"/>
<path d="M975.89 778.61C911.73 778.61 849.47 759.25 799.67 723.65C771.82 703.74 749.67 680.12 733.82 653.42C718.5 627.61 709.83 600.27 708.05 572.15C704.79 520.78 725.32 471.79 765.86 434.21C808.97 394.25 869.8 371.19 937.13 369.3C1004.46 367.4 1070.22 386.87 1122.34 424.13C1150.19 444.04 1172.34 467.66 1188.19 494.36C1203.51 520.17 1212.18 547.51 1213.96 575.63C1217.22 627 1196.69 675.99 1156.15 713.57C1113.04 753.53 1052.21 776.59 984.87 778.48C981.87 778.56 978.87 778.61 975.88 778.61H975.89ZM945.99 370.85C878.69 370.85 813.18 392.52 766.94 435.38C726.75 472.63 706.4 521.17 709.63 572.06C713.24 628.85 746.39 683.63 800.59 722.37C851.66 758.87 914.58 776.94 976.02 776.94C1043.32 776.94 1108.83 755.27 1155.07 712.41C1195.26 675.16 1215.61 626.62 1212.38 575.73C1208.77 518.94 1175.62 464.16 1121.42 425.42C1070.35 388.92 1007.42 370.85 945.99 370.85Z" fill="white"/>
<path d="M994.86 782.28C980.73 782.28 966.36 781.43 951.86 779.7C879.29 771.05 812.01 741.53 762.4 696.59C736.13 672.8 716.48 646.25 703.99 617.69C691.91 590.08 687.09 561.96 689.65 534.12C694.43 482.21 724.85 436.49 775.32 405.38C828.38 372.67 897.57 359.42 970.15 368.08C1042.72 376.73 1110 406.25 1159.61 451.19C1185.88 474.98 1205.53 501.53 1218.02 530.09C1230.1 557.7 1234.92 585.82 1232.36 613.66C1227.58 665.57 1197.16 711.29 1146.69 742.4C1104.23 768.57 1051.44 782.29 994.86 782.29V782.28ZM927.4 367.2C872.63 367.2 819.45 380.05 776.15 406.74C726.12 437.58 695.96 482.87 691.23 534.27C686.06 590.41 712.39 649.15 763.46 695.41C865.37 787.73 1036.91 808.2 1145.85 741.04C1195.88 710.2 1226.04 664.91 1230.77 613.51C1235.94 557.37 1209.61 498.63 1158.54 452.37C1097.13 396.74 1010.43 367.2 927.4 367.2Z" fill="white"/>
<path d="M1018.37 789.18C985.16 789.18 950.69 784.71 916.22 775.74C839.8 755.84 772.6 716.17 726.99 664.03C703.4 637.06 687.01 608.46 678.29 579.01C669.85 550.53 668.92 522.57 675.53 495.9C688.49 443.58 729.26 401.85 790.35 378.4C852.85 354.4 929.36 352.15 1005.78 372.04C1082.2 391.94 1149.4 431.61 1195.01 483.75C1218.6 510.72 1234.98 539.32 1243.71 568.77C1252.15 597.25 1253.08 625.21 1246.47 651.88C1233.51 704.2 1192.73 745.93 1131.64 769.38C1097.33 782.55 1058.79 789.18 1018.36 789.18H1018.37ZM903.42 360.31C863.93 360.31 825.54 366.6 790.93 379.89C730.34 403.15 689.91 444.49 677.08 496.29C663.6 550.71 681.76 609.91 728.19 662.99C821.92 770.14 1002.66 817.21 1131.08 767.9C1191.67 744.64 1232.1 703.3 1244.93 651.5C1258.4 597.09 1240.25 537.88 1193.82 484.8C1125.35 406.53 1010.44 360.31 903.43 360.31H903.42Z" fill="white"/>
<path d="M1044.81 799.86C991.03 799.86 933.89 788.45 878.65 766.25C800.01 734.65 734.62 684.96 694.53 626.33C654.95 568.46 644.66 508.49 665.57 457.49C676.03 431.97 693.7 410.06 718.09 392.39C743.31 374.12 774.6 361.23 811.08 354.1C882.23 340.18 964.73 349.92 1043.36 381.52C1122 413.12 1187.39 462.81 1227.48 521.44C1267.06 579.31 1277.35 639.28 1256.44 690.28C1245.98 715.8 1228.31 737.71 1203.92 755.38C1178.7 773.65 1147.41 786.54 1110.92 793.67C1089.75 797.81 1067.57 799.86 1044.8 799.86H1044.81ZM876.72 349.56C854.4 349.56 832.49 351.54 811.39 355.66C739.62 369.7 688.35 406.08 667.04 458.09C646.35 508.58 656.58 568.01 695.85 625.43C766.39 728.57 912.85 798.2 1045.31 798.21C1067.63 798.21 1089.54 796.23 1110.64 792.11C1182.41 778.07 1233.68 741.69 1254.99 689.68C1275.68 639.19 1265.45 579.76 1226.18 522.34C1155.64 419.2 1009.18 349.56 876.72 349.56Z" fill="white"/>
<path d="M1072.18 814.63C996.79 814.63 914.84 792.25 839.93 751.02C760.89 707.51 699.14 648.2 666.07 584.03C634.96 523.67 632.76 464.98 659.88 418.8C674.75 393.48 697.45 373.16 727.37 358.43C758.29 343.2 795.32 334.77 837.43 333.37C916.16 330.78 1003.04 353.28 1082.07 396.78C1161.11 440.29 1222.86 499.6 1255.93 563.77C1287.04 624.13 1289.24 682.81 1262.12 729C1247.25 754.32 1224.55 774.63 1194.63 789.37C1163.71 804.6 1126.68 813.03 1084.57 814.43C1080.46 814.57 1076.32 814.63 1072.17 814.63H1072.18ZM849.69 334.74C845.6 334.74 841.54 334.81 837.48 334.94C755.47 337.66 691.24 368.52 661.25 419.59C634.42 465.29 636.63 523.43 667.48 583.29C733.77 711.93 913.27 813.02 1072.31 813.03C1076.4 813.03 1080.46 812.96 1084.52 812.83C1166.53 810.11 1230.76 779.25 1260.75 728.18C1287.58 682.48 1285.37 624.34 1254.52 564.48C1188.23 435.84 1008.73 334.74 849.69 334.74Z" fill="white"/>
<path d="M1096.76 833.39C1082.6 833.39 1067.91 832.54 1052.78 830.8C967.83 821.07 878.41 785.24 800.97 729.91C723.51 674.57 667.31 606.33 642.72 537.77C620.82 476.71 626.59 420.59 658.97 379.74C699.08 329.14 775.71 306.26 869.22 316.98C954.17 326.71 1043.6 362.54 1121.03 417.87C1198.49 473.21 1254.69 541.45 1279.28 610.01C1301.18 671.07 1295.41 727.19 1263.03 768.04C1229.41 810.45 1170.13 833.39 1096.76 833.39ZM825.24 315.98C752.36 315.98 693.54 338.7 660.23 380.73C628.2 421.14 622.52 476.72 644.23 537.23C694.79 678.2 878.15 809.18 1052.97 829.21C1068.04 830.94 1082.68 831.79 1096.78 831.79C1169.66 831.79 1228.48 809.07 1261.79 767.04C1293.82 726.64 1299.5 671.05 1277.79 610.54C1227.23 469.57 1043.87 338.59 869.05 318.56C853.98 316.83 839.34 315.98 825.24 315.98Z" fill="white"/>
<path d="M1115.42 855.51C1084.37 855.51 1051.06 851 1015.88 842C926.35 819.1 836.45 769.73 762.74 702.98C689 636.2 640.26 560.01 625.52 488.44C619.19 457.72 619.43 429.24 626.23 403.78C632.81 379.15 645.37 357.86 663.56 340.51C687.96 317.24 722.39 301.66 763.14 295.46C805.82 288.96 853.92 292.44 906.12 305.79C995.65 328.69 1085.54 378.06 1159.26 444.81C1233 511.59 1281.73 587.78 1296.48 659.35C1302.81 690.07 1302.57 718.55 1295.77 744.01C1289.19 768.64 1276.63 789.93 1258.44 807.28C1234.04 830.55 1199.61 846.13 1158.86 852.33C1144.94 854.45 1130.44 855.51 1115.41 855.51H1115.42ZM805.98 293.84C746.99 293.84 697.77 310.08 664.66 341.65C627.61 376.98 614.62 427.63 627.08 488.11C657.39 635.25 831.98 793.31 1016.27 840.45C1119.04 866.74 1206.91 854.23 1257.34 806.12C1294.39 770.78 1307.38 720.14 1294.92 659.66C1264.61 512.52 1090.02 354.46 905.73 307.32C870.42 298.29 836.85 293.83 805.97 293.83L805.98 293.84Z" fill="white"/>
<path d="M1127.64 879.86C1080.35 879.86 1028.82 868.91 974.37 847.29C882.16 810.67 794.06 747.85 726.28 670.39C658.46 592.89 619.1 510.01 615.44 437C612.49 378.13 632.94 331.26 674.59 301.44C704.42 280.08 744.57 268.49 790.7 267.94C839 267.34 891.78 278.31 947.63 300.49C1039.84 337.11 1127.94 399.93 1195.72 477.39C1263.54 554.89 1302.9 637.77 1306.56 710.78C1309.51 769.65 1289.06 816.52 1247.41 846.34C1217.58 867.7 1177.42 879.29 1131.3 879.84C1130.08 879.85 1128.85 879.86 1127.63 879.86H1127.64ZM794.19 269.72C747.2 269.72 706.25 280.73 675.52 302.73C634.34 332.22 614.11 378.62 617.03 436.92C624.55 586.98 785.11 770.41 974.96 845.81C1029.09 867.31 1081.4 878.05 1127.82 878.06C1174.81 878.06 1215.76 867.05 1246.49 845.05C1287.67 815.56 1307.9 769.16 1304.98 710.86C1297.46 560.79 1136.9 377.37 947.05 301.97C892.92 280.47 840.61 269.72 794.19 269.72Z" fill="white"/>
<path d="M1133.37 905.52C1072.12 905.52 1000.92 885.3 928.93 846.03C836.18 795.44 752.27 719.61 692.68 632.51C633.05 545.35 604.88 457.32 613.37 384.62C619.88 328.88 647.48 286.92 693.2 263.26C766.87 225.13 878.98 239.52 993.09 301.76C1085.84 352.35 1169.75 428.18 1229.34 515.28C1288.97 602.44 1317.14 690.47 1308.65 763.17C1302.14 818.91 1274.54 860.87 1228.82 884.53C1201.63 898.6 1169.2 905.52 1133.37 905.52ZM788.66 243.84C753.08 243.84 720.91 250.7 693.93 264.66C648.71 288.07 621.39 329.61 614.95 384.79C606.5 457.1 634.57 544.76 693.99 631.6C753.44 718.5 837.15 794.15 929.69 844.63C1001.45 883.77 1072.39 903.93 1133.36 903.94C1168.94 903.94 1201.11 897.08 1228.09 883.12C1273.31 859.71 1300.63 818.17 1307.07 762.99C1315.52 690.68 1287.45 603.02 1228.03 516.18C1168.58 429.28 1084.87 353.63 992.33 303.15C920.57 264.01 849.63 243.84 788.66 243.84Z" fill="white"/>
<path d="M1131.53 931.65C1055.97 931.65 966.72 898.9 880.35 837.68C789.38 773.2 712.2 685.18 663.04 589.83C613.84 494.4 598.57 403.03 620.05 332.55C635.89 280.59 670.68 244.1 720.68 227.02C806.77 197.61 926.76 228.68 1041.66 310.11C1132.63 374.59 1209.81 462.61 1258.97 557.96C1308.17 653.39 1323.44 744.76 1301.96 815.25C1286.13 867.21 1251.33 903.7 1201.33 920.78C1179.96 928.08 1156.49 931.66 1131.53 931.66V931.65ZM790.51 217.72C765.72 217.72 742.42 221.27 721.2 228.52C671.7 245.43 637.26 281.56 621.58 333.01C600.22 403.1 615.45 494.05 664.46 589.1C713.51 684.23 790.51 772.05 881.28 836.38C995.77 917.52 1115.22 948.51 1200.82 919.27C1250.32 902.36 1284.76 866.23 1300.44 814.78C1321.8 744.69 1306.57 653.74 1257.56 558.69C1208.51 463.56 1131.51 375.74 1040.74 311.41C954.64 250.38 865.72 217.73 790.51 217.73V217.72Z" fill="white"/>
<path d="M1123.78 956.88C1086.59 956.88 1046 948.69 1004.31 932.62C945.42 909.91 885.02 871.6 829.64 821.83C742.94 743.91 675.06 644.9 638.49 543.03C601.89 441.07 601.04 348.41 636.1 282.15C661.35 234.42 703.65 204.04 758.43 194.29C805.5 185.91 860.58 193.13 917.72 215.17C976.61 237.88 1037.02 276.19 1092.39 325.96C1179.09 403.88 1246.97 502.89 1283.54 604.76C1320.14 706.72 1320.99 799.38 1285.93 865.64C1260.68 913.37 1218.38 943.75 1163.6 953.5C1150.88 955.76 1137.56 956.89 1123.78 956.89V956.88ZM798.84 192.42C785.04 192.42 771.64 193.55 758.7 195.85C704.42 205.51 662.51 235.6 637.49 282.89C602.65 348.76 603.53 440.96 639.98 542.49C676.46 644.12 744.19 742.9 830.7 820.65C926.76 906.98 1033.06 955.36 1123.18 955.36C1136.97 955.36 1150.38 954.23 1163.32 951.93C1217.6 942.27 1259.51 912.18 1284.53 864.89C1319.37 799.02 1318.49 706.82 1282.05 605.29C1245.57 503.66 1177.84 404.87 1091.34 327.13C995.27 240.8 888.98 192.42 798.86 192.42H798.84Z" fill="white"/>
<path d="M1109.68 980.55C1058.92 980.55 1002.72 964.89 946.79 935.12C887.34 903.48 828.93 856.15 777.87 798.25C698.04 707.73 642 599.31 620.07 492.96C609.4 441.22 607.39 392.78 614.11 348.99C621.07 303.6 637.14 265.21 661.87 234.88C696.99 191.82 747.39 168.44 807.62 167.28C859.62 166.27 917.55 181.97 975.22 212.66C1034.67 244.3 1093.08 291.63 1144.14 349.53C1223.97 440.05 1280.01 548.47 1301.94 654.82C1312.61 706.56 1314.62 755 1307.9 798.79C1300.94 844.18 1284.87 882.57 1260.14 912.9C1225.02 955.96 1174.62 979.34 1114.39 980.5C1112.83 980.53 1111.26 980.54 1109.68 980.54V980.55ZM812.48 168.82C810.87 168.82 809.26 168.84 807.66 168.87C747.91 170.02 697.92 193.2 663.11 235.89C614.51 295.49 599.78 386.67 621.63 492.65C643.51 598.73 699.42 706.89 779.07 797.21C879.73 911.35 1002.86 978.98 1109.54 978.98C1111.15 978.98 1112.76 978.96 1114.36 978.93C1174.11 977.78 1224.1 954.6 1258.91 911.91C1307.51 852.31 1322.24 761.13 1300.39 655.15C1278.51 549.07 1222.6 440.91 1142.95 350.59C1042.3 236.45 919.16 168.82 812.48 168.82Z" fill="white"/>
<path d="M1090.4 1001.7C1078.23 1001.7 1065.76 1000.81 1053.02 999.03C937.59 982.86 815.46 896.07 726.32 766.86C656.01 664.96 614.28 549.1 608.82 440.62C606.16 387.84 612.25 339.68 626.91 297.46C642.1 253.72 665.88 218.31 697.59 192.23C743.45 154.5 802.72 139.47 868.99 148.76C984.42 164.93 1106.55 251.73 1195.69 380.93C1266 482.83 1307.73 598.69 1313.19 707.17C1315.85 759.95 1309.76 808.11 1295.1 850.33C1279.91 894.07 1256.13 929.48 1224.42 955.56C1187.37 986.04 1141.57 1001.71 1090.4 1001.71V1001.7ZM831.62 147.67C780.81 147.67 735.36 163.21 698.6 193.45C636.29 244.71 604.97 332.46 610.41 440.53C615.86 548.72 657.49 664.28 727.63 765.95C816.53 894.79 938.25 981.33 1053.25 997.44C1119.06 1006.66 1177.91 991.75 1223.42 954.31C1285.73 903.05 1317.05 815.3 1311.61 707.23C1306.16 599.04 1264.53 483.48 1194.39 381.81C1105.49 252.97 983.77 166.43 868.77 150.32C856.12 148.55 843.71 147.66 831.62 147.66V147.67Z" fill="white"/>
<path d="M1067.14 1019.65C1038.99 1019.65 1009.71 1015.09 979.81 1005.92C861.61 969.68 748.15 865.71 676.31 727.79C618.15 616.14 593.05 495.16 605.64 387.15C611.76 334.6 626.49 287.97 649.41 248.57C673.16 207.74 704.7 176.5 743.17 155.7C800.98 124.45 869.8 119.66 942.2 141.86C1060.4 178.1 1173.86 282.07 1245.7 419.99C1303.86 531.64 1328.96 652.62 1316.37 760.63C1310.25 813.18 1295.52 859.81 1272.6 899.21C1248.85 940.04 1217.31 971.28 1178.84 992.08C1144.9 1010.43 1107.16 1019.65 1067.14 1019.65ZM854.87 129.72C815.1 129.72 777.62 138.88 743.92 157.1C668.3 197.98 619.75 279.75 607.21 387.34C594.66 495.04 619.7 615.68 677.71 727.06C749.36 864.61 862.46 968.29 980.26 1004.41C1052.24 1026.48 1120.64 1021.73 1178.07 990.69C1253.69 949.81 1302.24 868.04 1314.78 760.45C1327.33 652.75 1302.29 532.11 1244.28 420.73C1172.63 283.18 1059.53 179.5 941.73 143.38C911.99 134.26 882.86 129.72 854.87 129.72Z" fill="white"/>
<path d="M1041.47 1033.88C1021.88 1033.88 1001.93 1031.82 981.7 1027.69C934 1017.95 886.79 997.19 841.38 965.98C795.99 934.78 754.69 894.72 718.62 846.9C681.28 797.4 651.22 741.7 629.26 681.37C603.26 609.93 590.2 534.73 591.5 463.9C592.76 395.33 607.37 330.52 633.76 276.48C670.35 201.55 727.25 149.78 798.3 126.76C843.12 112.25 890.89 110 940.31 120.09C988.01 129.83 1035.22 150.59 1080.63 181.8C1126.02 213 1167.32 253.06 1203.39 300.88C1240.73 350.38 1270.79 406.08 1292.75 466.41C1318.75 537.85 1331.81 613.05 1330.51 683.88C1329.25 752.45 1314.64 817.26 1288.25 871.3C1251.66 946.23 1194.76 998 1123.71 1021.02C1097.24 1029.59 1069.73 1033.89 1041.47 1033.89V1033.88ZM880.97 115.45C852.86 115.45 825.31 119.69 798.79 128.28C728.16 151.16 671.58 202.65 635.19 277.18C580.89 388.37 579.24 539.27 630.76 680.83C674.1 799.91 749.22 900.71 842.28 964.68C935.27 1028.6 1035.04 1048.07 1123.21 1019.51C1193.84 996.63 1250.41 945.14 1286.81 870.61C1341.11 759.42 1342.76 608.52 1291.24 466.96C1247.9 347.88 1172.78 247.08 1079.72 183.11C1014.69 138.42 946.34 115.45 880.97 115.45Z" fill="white"/>
<path d="M1015.15 1044.17C978.97 1044.17 942.45 1037.88 906.09 1025.35C856.55 1008.27 809.4 980.39 765.97 942.47C722.55 904.56 685.02 858.53 654.43 805.65C622.76 750.91 599.96 691.2 586.64 628.17C571.31 555.59 569.59 484.16 581.54 415.86C592.93 350.73 617.06 290.36 651.32 241.28C676.93 204.59 707.73 174.45 742.86 151.69C779.22 128.14 819.43 113.04 862.38 106.82C912.94 99.5001 964.59 104.75 1015.91 122.44C1065.45 139.52 1112.6 167.4 1156.03 205.32C1199.45 243.23 1236.98 289.27 1267.57 342.14C1299.24 396.88 1322.04 456.59 1335.36 519.62C1350.69 592.2 1352.41 663.63 1340.46 731.93C1329.07 797.06 1304.94 857.43 1270.68 906.51C1245.07 943.2 1214.27 973.34 1179.14 996.1C1142.78 1019.65 1102.57 1034.75 1059.63 1040.97C1044.89 1043.1 1030.05 1044.17 1015.16 1044.17H1015.15ZM906.96 105.2C892.12 105.2 877.33 106.25 862.62 108.39C777.77 120.68 705.16 166.94 652.64 242.18C581.46 344.15 557.98 484.71 588.21 627.83C614.49 752.21 677.99 863.53 767.02 941.26C856.01 1018.96 959.84 1053.8 1059.39 1039.39C1144.24 1027.1 1216.85 980.84 1269.37 905.6C1340.55 803.63 1364.03 663.07 1333.8 519.95C1307.53 395.57 1244.02 284.25 1154.99 206.52C1079.15 140.31 992.53 105.21 906.96 105.21V105.2Z" fill="white"/>
<path d="M991.88 1050.67C990.4 1050.67 988.92 1050.67 987.44 1050.64C931.94 1049.96 877.4 1036.69 825.33 1011.21C775.05 986.6 729.19 951.68 689.02 907.44C648.85 863.2 616.39 811.86 592.55 754.85C567.86 695.83 553.53 633.27 549.95 568.93C542.23 429.96 587.03 298.84 672.88 209.19C707.37 173.18 747.04 145.21 790.8 126.07C836.1 106.26 884.47 96.52 934.56 97.13C990.06 97.81 1044.6 111.08 1096.67 136.56C1146.95 161.17 1192.81 196.09 1232.98 240.33C1273.15 284.57 1305.61 335.91 1329.45 392.92C1354.14 451.94 1368.47 514.5 1372.05 578.84C1379.77 717.81 1334.97 848.93 1249.12 938.58C1214.63 974.59 1174.96 1002.56 1131.2 1021.7C1087.24 1040.93 1040.39 1050.66 991.87 1050.66L991.88 1050.67ZM987.46 1049.05C1085.4 1050.24 1177.94 1010.63 1247.98 937.49C1333.52 848.16 1378.17 717.47 1370.47 578.94C1355.91 316.9 1160.35 101.48 934.55 98.72C836.58 97.49 744.07 137.14 674.03 210.28C588.49 299.61 543.84 430.29 551.54 568.83C566.1 830.87 761.66 1046.29 987.46 1049.05Z" fill="white"/>
<path d="M972.89 1053.98C951.47 1053.98 929.91 1052.3 908.33 1048.91C848.88 1039.56 792.59 1017.93 741.04 984.62C691.26 952.45 647.96 910.79 612.36 860.81C576.76 810.83 550.64 755.04 534.73 695C518.26 632.83 513.51 568.8 520.62 504.68C528.05 437.63 547.92 374.81 579.68 317.97C610.37 263.05 650.58 216.38 699.2 179.24C790.1 109.82 901.78 81.2801 1013.67 98.8801C1073.13 108.23 1129.41 129.86 1180.96 163.17C1230.74 195.34 1274.04 237 1309.64 286.98C1345.24 336.96 1371.36 392.75 1387.27 452.79C1403.74 514.96 1408.49 578.99 1401.38 643.11C1393.95 710.16 1374.08 772.98 1342.32 829.82C1311.63 884.74 1271.42 931.41 1222.8 968.55C1149.44 1024.58 1062.51 1053.98 972.89 1053.98ZM949.12 95.3901C859.83 95.3901 773.26 124.68 700.17 180.5C601.57 255.81 536.7 374.03 522.2 504.85C493.27 765.93 666.6 1009.29 908.58 1047.35C1020.04 1064.87 1131.29 1036.45 1221.83 967.29C1320.44 891.98 1385.3 773.76 1399.8 642.94C1428.73 381.86 1255.4 138.5 1013.42 100.44C991.93 97.0601 970.45 95.3901 949.12 95.3901Z" fill="white"/>
<path d="M960.98 1054.98C914.75 1054.98 868.77 1048.24 823.72 1034.82C761.49 1016.29 704.76 986.12 655.09 945.16C607.12 905.6 567.72 857.68 538 802.74C508.28 747.8 489.72 688.61 482.86 626.8C475.75 562.81 481.54 498.82 500.07 436.59C518.6 374.36 548.77 317.63 589.73 267.96C629.29 219.99 677.21 180.59 732.15 150.87C787.09 121.15 846.28 102.59 908.09 95.73C972.08 88.62 1036.07 94.41 1098.3 112.94C1160.53 131.47 1217.26 161.64 1266.93 202.6C1314.9 242.16 1354.3 290.08 1384.02 345.02C1413.74 399.96 1432.3 459.15 1439.16 520.96C1446.27 584.95 1440.48 648.94 1421.95 711.17C1403.42 773.4 1373.25 830.13 1332.29 879.8C1292.73 927.77 1244.81 967.17 1189.87 996.89C1134.93 1026.61 1075.74 1045.17 1013.94 1052.03C996.28 1053.99 978.61 1054.97 960.99 1054.97L960.98 1054.98ZM824.17 1033.3C1077.49 1108.75 1344.96 964.04 1420.41 710.72C1495.86 457.4 1351.15 189.93 1097.83 114.48C975.12 77.93 845.52 91.3601 732.9 152.28C620.28 213.2 538.14 314.34 501.59 437.06C465.04 559.77 478.47 689.37 539.39 801.99C600.32 914.61 701.45 996.75 824.17 1033.3Z" fill="white"/>
</g>
<mask id="mask6_1_80" style="mask-type:luminance" maskUnits="userSpaceOnUse" x="-145" y="-524" width="2022" height="2257">
<path d="M676.95 423.39L695.67 346.76L727.34 315.91C738.62 304.92 751.98 293.17 766.96 288.32L813.22 274.97C821.91 271.78 831.11 270.22 840.36 270.36C841.73 270.38 894.7 268.24 896.06 268.41L975.06 286.39L1114.3 344.25L1240.96 446.32C1245.84 450.63 1306.16 515.38 1309.32 521.07L1381.33 650.66L1372.5 846.47L1262.08 990.75L1079.52 1055.53L874.88 1037.86L690.85 965.72L509.76 846.47L402.29 734.58L303.65 596.19L216.79 418.05L174.09 178.07L187.25 6.34003L250.65 -216.49L374.32 -369.6L582.02 -523.11L412.72 -437.49L322.42 -376.31L183.95 -254.75L72.77 -122L-4.80002 1.79999L-52.81 101.3L-100.27 234.45L-132.1 375.53L-144.51 484.27L-143.49 653.09L-125.32 785.64L-86.71 931.78L-47.4 1033.37L29.52 1179.15L143.69 1333.4L254.19 1443.81L354.42 1522.13L527.51 1621.83L689.95 1683.5L841.51 1718.01L995.59 1732.16L1183.85 1721.57L1372.09 1679.47L1504.44 1629.24L1596.28 1562L1722.89 1446.18L1813.19 1291.1L1851.47 1190.99L1876.01 1029.04L1867.18 875.93L1817.12 677.67L1762.16 561.2L1666.96 413.65L1570.77 306.67L1466.73 220.3C1466.73 220.3 1333.25 144.73 1329.32 142.76C1325.39 140.8 1192.89 91.72 1192.89 91.72L1039.78 64.24L919.06 76.02L826.8 107.43L745.34 173.19L687.43 259.56L664.86 329.25L676.97 423.42L676.95 423.39Z" fill="white"/>
</mask>
<g mask="url(#mask6_1_80)">
<path d="M1876 -523.12H729.53V1732.12H1876V-523.12Z" fill="#E093AF"/>
<path d="M729.53 -523.12H-144.51V1732.12H729.53V-523.12Z" fill="#E093AF"/>
</g>
<mask id="mask7_1_80" style="mask-type:luminance" maskUnits="userSpaceOnUse" x="169" y="-594" width="2022" height="2256">
<path d="M1378.26 744.3L1361.99 793.97L1337.37 830.37L1309.43 854.46L1272.91 870.48L1219.51 882.08L1163.96 883.73L1056.49 861.65L896.02 779.2L725.24 623.14L664.88 487.69L673.71 291.88L784.13 147.6L966.69 82.82L1171.33 100.49L1355.36 172.63L1536.45 291.88L1643.92 403.77L1742.56 542.16L1829.42 720.3L1872.12 960.28V1136.95L1795.56 1354.84L1671.89 1507.95L1464.19 1661.46L1633.49 1575.84L1723.79 1514.66L1862.26 1393.1L1973.44 1260.35L2051.01 1136.55L2099.02 1037.05L2146.48 903.9L2178.31 762.82L2190.71 654.08L2189.69 485.26L2171.52 352.71L2132.91 206.57L2093.6 104.98L2016.68 -40.8L1902.51 -195.05L1792.01 -305.46L1691.78 -383.78L1518.69 -483.48L1356.25 -545.15L1204.69 -579.66L1050.61 -593.81L862.35 -583.22L674.11 -541.12L541.76 -490.89L449.92 -423.65L323.31 -307.83L233.01 -152.75L194.73 -52.64L180.63 12.74C177.4 31.84 167.91 120.13 169.41 139.44L179.02 262.42L229.08 460.68L284.04 577.15L379.25 724.7L475.44 831.68L579.48 918.05C579.48 918.05 712.96 993.63 716.89 995.59C720.82 997.55 853.32 1046.63 853.32 1046.63L1006.43 1074.11L1127.15 1062.33L1219.41 1030.92L1300.87 965.16L1358.78 878.79L1381.35 809.1L1378.25 744.28L1378.26 744.3Z" fill="white"/>
</mask>
<g mask="url(#mask7_1_80)">
<path d="M169.26 -593.78H167.91V1661.46H169.26V-593.78Z" fill="#E093AF"/>
<path d="M1316.27 -593.78H169.26V1661.46H1316.27V-593.78Z" fill="#E093AF"/>
<path d="M2190.72 -593.78H1316.27V1661.46H2190.72V-593.78Z" fill="#E093AF"/>
</g>
<g opacity="0.35">
<path d="M1178.56 884.7C1134.43 884.7 1086.45 875.49 1035.66 857.24C941.45 823.4 850.2 762.49 778.72 685.74C707.2 608.95 664.02 525.48 657.13 450.69C651.49 389.51 670.53 340.12 712.2 307.85C741.33 285.29 781.03 272.2 826.99 269.98C875.11 267.66 928.17 276.78 984.69 297.09C1078.9 330.93 1170.15 391.84 1241.63 468.59C1313.15 545.38 1356.33 628.85 1363.22 703.64C1368.86 764.82 1349.82 814.21 1308.15 846.47C1279.02 869.03 1239.32 882.12 1193.36 884.34C1188.48 884.57 1183.54 884.69 1178.56 884.69V884.7ZM658.71 450.55C672.89 604.29 842.22 786.06 1036.2 855.75C1147.94 895.89 1246.71 892.06 1307.18 845.23C1348.4 813.31 1367.23 764.41 1361.64 703.8C1347.47 550.06 1178.13 368.29 984.15 298.6C872.41 258.46 773.64 262.29 713.17 309.12C671.95 341.04 653.12 389.94 658.71 450.55Z" fill="white"/>
<path d="M1185.97 910.84C1177.4 910.84 1168.63 910.46 1159.69 909.7C1106.99 905.2 1048.3 887.25 989.96 857.79C894.59 809.63 806.99 735.2 743.3 648.21C679.58 561.17 647.41 471.96 652.73 397C656.86 338.81 683.27 294.3 729.12 268.29C764.08 248.45 809.57 240.27 860.66 244.63C913.36 249.13 972.05 267.08 1030.39 296.54C1125.76 344.7 1213.36 419.13 1277.05 506.12C1340.77 593.16 1372.94 682.37 1367.62 757.33C1363.49 815.52 1337.08 860.03 1291.23 886.04C1262.39 902.41 1226.38 910.84 1185.97 910.84ZM653.52 397.07L654.31 397.13C649.02 471.71 681.08 560.55 744.58 647.28C808.12 734.07 895.52 808.33 990.67 856.38C1059.88 891.33 1127.76 909.17 1186.5 909.18C1226.08 909.18 1261.5 901.09 1290.43 884.67C1335.79 858.93 1361.93 814.86 1366.02 757.23C1371.31 682.65 1339.25 593.81 1275.75 507.07C1212.21 420.28 1124.81 346.02 1029.66 297.97C913.82 239.47 801.76 228.9 729.9 269.68C684.54 295.42 658.4 339.49 654.31 397.12L653.52 397.06V397.07Z" fill="white"/>
<path d="M1186.57 937.64C1112.86 937.64 1026.04 907.73 940.81 851.19C846.61 788.7 765.23 701.49 711.66 605.61C658.04 509.66 638.68 416.5 657.14 343.29C670.87 288.83 704.64 249.79 754.8 230.39C839.87 197.49 961.26 224.69 1079.53 303.14C1173.73 365.63 1255.11 452.84 1308.69 548.72C1362.31 644.67 1381.67 737.83 1363.21 811.04C1349.48 865.5 1315.71 904.54 1265.55 923.94C1241.78 933.13 1215.16 937.63 1186.57 937.64ZM833.8 218.28C805.4 218.28 778.98 222.75 755.37 231.88C705.71 251.09 672.28 289.75 658.68 343.68C640.32 416.5 659.63 509.25 713.05 604.84C766.51 700.5 847.71 787.52 941.7 849.87C1059.54 928.04 1180.39 955.18 1264.98 922.46C1314.64 903.25 1348.07 864.59 1361.67 810.66C1380.03 737.84 1360.72 645.09 1307.3 549.5C1253.84 453.84 1172.64 366.82 1078.65 304.47C993.69 248.11 907.17 218.28 833.8 218.28Z" fill="white"/>
<path d="M1180.19 963.88C1145.52 963.88 1107.89 957.02 1069.07 943.48C1009.06 922.54 946.86 885.72 889.19 837C798.69 760.55 726.16 661.67 684.94 558.59C643.69 455.42 638.75 360.36 671.02 290.92C694.36 240.69 735.73 207.74 790.64 195.63C837.51 185.29 893.06 190.56 951.28 210.88C1011.29 231.82 1073.49 268.64 1131.16 317.36C1221.66 393.81 1294.2 492.69 1335.41 595.77C1376.66 698.94 1381.6 794 1349.33 863.44C1325.99 913.67 1284.62 946.62 1229.71 958.73C1214.1 962.17 1197.51 963.89 1180.19 963.89V963.88ZM840.7 191.97C823.45 191.97 806.82 193.68 790.98 197.18C736.57 209.18 695.59 241.83 672.46 291.59C640.37 360.63 645.33 455.24 686.41 558C727.53 660.84 799.91 759.5 890.21 835.79C986.7 917.3 1091.23 962.38 1179.64 962.39C1196.89 962.39 1213.52 960.68 1229.36 957.18C1283.77 945.18 1324.75 912.53 1347.88 862.77C1379.97 793.73 1375.01 699.12 1333.92 596.36C1292.8 493.52 1220.42 394.86 1130.12 318.57C1033.63 237.06 929.1 191.97 840.69 191.97H840.7Z" fill="white"/>
<path d="M1167.37 988.74C1119.03 988.74 1065.66 974.99 1011.97 948.59C950.83 918.52 890.04 872.29 836.17 814.89C752.02 725.22 690.96 616.21 664.24 507.94C651.24 455.27 647.09 405.63 651.9 360.41C656.88 313.54 671.32 273.49 694.82 241.35C728.14 195.78 777.63 169.75 837.96 166.05C890.12 162.86 949.06 176.58 1008.37 205.75C1069.51 235.82 1130.3 282.05 1184.17 339.45C1268.32 429.12 1329.38 538.13 1356.1 646.4C1369.1 699.07 1373.25 748.71 1368.44 793.93C1363.46 840.8 1349.02 880.85 1325.52 912.99C1292.2 958.55 1242.71 984.59 1182.38 988.28C1177.44 988.58 1172.43 988.73 1167.37 988.73V988.74ZM853.38 167.18C848.23 167.18 843.12 167.33 838.06 167.64C778.22 171.3 729.13 197.12 696.11 242.29C649.93 305.45 639.16 399.65 665.79 507.56C692.44 615.56 753.37 724.32 837.34 813.8C940.11 923.31 1062.09 987.16 1166.97 987.16C1172.12 987.16 1177.23 987.01 1182.29 986.7C1242.13 983.04 1291.21 957.22 1324.24 912.05C1370.42 848.89 1381.19 754.68 1354.56 646.78C1327.91 538.78 1266.98 430.02 1183.01 340.54C1080.24 231.03 958.26 167.18 853.38 167.18Z" fill="white"/>
<path d="M1148.82 1011.23C1140.25 1011.23 1131.54 1010.8 1122.67 1009.94C1066.43 1004.46 1005.93 981.48 947.72 943.48C887.69 904.29 830.74 849.41 783.02 784.77C707.92 683.03 660.9 565.8 650.63 454.68C645.63 400.62 649.62 350.93 662.47 307.01C675.79 261.49 698.11 224.19 728.8 196.13C772.88 155.83 831.27 137.94 897.67 144.41C953.91 149.89 1014.41 172.87 1072.62 210.87C1132.65 250.06 1189.6 304.94 1237.32 369.58C1312.42 471.32 1359.44 588.55 1369.71 699.67C1374.71 753.73 1370.72 803.42 1357.87 847.34C1344.55 892.86 1322.23 930.16 1291.54 958.22C1253.35 993.14 1204.4 1011.23 1148.82 1011.23ZM871.53 144.7C816.34 144.7 767.77 162.65 729.87 197.3C669.56 252.45 641.98 343.8 652.21 454.53C662.46 565.37 709.37 682.31 784.29 783.82C879.69 913.06 1006.24 997 1122.82 1008.36C1131.63 1009.22 1140.3 1009.65 1148.81 1009.65C1204 1009.65 1252.57 991.7 1290.47 957.05C1350.78 901.9 1378.36 810.55 1368.13 699.82C1357.88 588.98 1310.97 472.04 1236.05 370.53C1140.65 241.29 1014.1 157.35 897.52 145.99C888.71 145.13 880.04 144.7 871.53 144.7Z" fill="white"/>
<path d="M1125.9 1030.6C1101.6 1030.6 1076.39 1027.25 1050.58 1020.5C929.39 988.83 809.95 886.47 731.08 746.68C667.75 634.44 637.21 511.29 645.08 399.92C648.91 345.73 661.64 297.28 682.91 255.91C704.95 213.04 735.25 179.69 772.96 156.78C828.96 122.76 897.02 114.82 969.76 133.83C1090.95 165.5 1210.39 267.86 1289.26 407.65C1352.59 519.89 1383.13 643.04 1375.26 754.41C1371.43 808.6 1358.7 857.05 1337.43 898.43C1315.39 941.3 1285.09 974.65 1247.38 997.56C1211.25 1019.51 1170.09 1030.6 1125.9 1030.6ZM894.45 125.33C850.54 125.33 809.67 136.34 773.79 158.14C699.65 203.18 654.51 289.09 646.67 400.04C638.82 511.1 669.29 633.94 732.47 745.91C811.13 885.33 930.2 987.41 1050.98 1018.97C1076.65 1025.68 1101.73 1029.01 1125.89 1029.01C1169.8 1029.01 1210.67 1018 1246.55 996.2C1320.69 951.16 1365.83 865.25 1373.67 754.3C1381.52 643.24 1351.05 520.4 1287.87 408.43C1209.21 269.01 1090.14 166.93 969.36 135.37C943.69 128.66 918.61 125.33 894.45 125.33Z" fill="white"/>
<path d="M1100.07 1046.28C1083.98 1046.28 1067.61 1044.9 1050.99 1042.13C1002.66 1034.07 954.34 1014.68 907.36 984.49C860.41 954.31 817.16 914.86 778.84 867.24C739.16 817.94 706.52 762 681.8 700.97C652.25 627.99 635.8 550.61 634.24 477.2C632.72 406.12 645.04 338.58 669.88 281.89C703.45 205.26 757.8 150.95 827.06 124.84C871.42 108.12 919.3 103.87 969.37 112.22C1017.7 120.28 1066.02 139.67 1113 169.86C1159.95 200.04 1203.2 239.49 1241.52 287.11C1281.19 336.4 1313.84 392.35 1338.56 453.38C1368.11 526.36 1384.56 603.74 1386.12 677.15C1387.64 748.23 1375.32 815.77 1350.48 872.46C1316.92 949.09 1262.56 1003.4 1193.3 1029.51C1163.66 1040.68 1132.45 1046.28 1100.07 1046.28ZM920.76 109.59C888.6 109.59 857.31 115.13 827.61 126.32C758.75 152.27 704.71 206.28 671.32 282.52C620.16 399.33 624.62 555.53 683.27 700.36C732.05 820.83 811.93 921.26 908.21 983.14C1004.41 1044.97 1105.45 1060.91 1192.73 1028.01C1261.59 1002.06 1315.63 948.05 1349.02 871.81C1400.18 755 1395.72 598.8 1337.07 453.97C1288.29 333.5 1208.41 233.07 1112.12 171.19C1048.66 130.4 983.08 109.59 920.75 109.59H920.76Z" fill="white"/>
<path d="M1072.84 1057.93C1040.53 1057.93 1007.78 1052.88 974.95 1042.79C924.45 1027.27 875.88 1000.56 830.59 963.4C785.32 926.25 745.6 880.52 712.55 827.49C678.34 772.59 652.8 712.23 636.65 648.07C617.83 573.31 613.06 499.25 622.47 427.94C631.45 359.92 653.7 296.54 686.83 244.67C710.91 206.96 740.29 175.6 774.16 151.46C809.2 126.48 848.35 109.75 890.52 101.75C940.97 92.18 993.07 95.48 1045.38 111.55C1095.88 127.07 1144.46 153.78 1189.74 190.94C1235.01 228.09 1274.73 273.82 1307.78 326.85C1341.99 381.75 1367.53 442.11 1383.68 506.27C1402.5 581.03 1407.27 655.09 1397.86 726.4C1388.88 794.42 1366.63 857.8 1333.5 909.67C1309.42 947.37 1280.04 978.73 1246.17 1002.88C1211.13 1027.86 1171.98 1044.59 1129.81 1052.59C1111.02 1056.15 1092 1057.93 1072.83 1057.93H1072.84ZM890.82 103.32C807.58 119.11 737.5 168.29 688.17 245.53C619.24 353.47 601.02 500.05 638.19 647.69C670.07 774.31 738.75 885.99 831.59 962.18C906.84 1023.93 990.65 1056.35 1072.63 1056.35C1091.74 1056.35 1110.74 1054.59 1129.51 1051.03C1212.75 1035.24 1282.83 986.06 1332.16 908.82C1401.09 800.88 1419.31 654.3 1382.14 506.66C1350.26 380.04 1281.58 268.36 1188.74 192.17C1095.95 116.03 990.15 84.48 890.82 103.32Z" fill="white"/>
<path d="M1047.7 1065.59C995.34 1065.59 943.43 1054.16 893.23 1031.55C841.66 1008.33 794.06 974.35 751.77 930.57C709.48 886.79 674.62 835.42 648.16 777.87C620.76 718.29 603.61 654.67 597.18 588.77C583.09 444.39 623.43 306.68 707.85 210.97C740.75 173.67 779.01 144.21 821.55 123.42C865.59 101.9 913.04 90.2799 962.57 88.8999C1018.33 87.3399 1073.69 98.7399 1127.1 122.79C1178.67 146.01 1226.27 179.99 1268.56 223.77C1310.85 267.55 1345.7 318.92 1372.17 376.47C1399.57 436.05 1416.72 499.67 1423.15 565.57C1437.24 709.95 1396.9 847.66 1312.48 943.37C1279.58 980.67 1241.32 1010.13 1198.78 1030.92C1154.74 1052.44 1107.29 1064.06 1057.76 1065.44C1054.41 1065.53 1051.05 1065.58 1047.7 1065.58V1065.59ZM972.49 90.3399C969.2 90.3399 965.92 90.3899 962.62 90.4799C865.84 93.1899 775.79 136.35 709.04 212.02C624.91 307.4 584.71 444.67 598.76 588.61C624.57 853.1 824.9 1063.99 1047.84 1063.99C1051.13 1063.99 1054.41 1063.94 1057.71 1063.85C1154.49 1061.14 1244.54 1017.98 1311.29 942.31C1395.42 846.93 1435.61 709.66 1421.57 565.72C1395.76 301.23 1195.43 90.3399 972.49 90.3399Z" fill="white"/>
<path d="M1026.85 1069.79C1010.73 1069.79 994.51 1068.83 978.25 1066.89C918.13 1059.71 860.66 1039.79 807.42 1007.68C756.01 976.68 710.69 935.68 672.74 885.82C634.79 835.96 606.1 779.76 587.47 718.78C568.19 655.64 560.59 590.11 564.9 524.01C569.46 454 587.01 387.97 617.07 327.75C646.11 269.56 685.27 219.75 733.46 179.7C821.05 106.9 930.66 74.15 1042.1 87.46C1102.22 94.64 1159.69 114.56 1212.93 146.67C1264.34 177.67 1309.66 218.67 1347.61 268.53C1385.57 318.39 1414.25 374.59 1432.88 435.57C1452.16 498.71 1459.76 564.24 1455.45 630.34C1450.89 700.35 1433.34 766.38 1403.28 826.6C1374.24 884.79 1335.08 934.6 1286.89 974.65C1212.08 1036.82 1121.2 1069.79 1026.85 1069.79ZM993.5 86.14C899.51 86.14 808.99 118.98 734.47 180.91C636.62 262.24 575.39 387.33 566.48 524.1C548.96 793.28 733.76 1036.06 978.43 1065.29C1089.43 1078.56 1198.62 1045.92 1285.87 973.41C1383.72 892.08 1444.95 766.99 1453.85 630.22C1471.37 361.04 1286.57 118.26 1041.9 89.0301C1025.71 87.0901 1009.55 86.14 993.49 86.14H993.5Z" fill="white"/>
<path d="M1012.5 1071.36C972.36 1071.36 932.27 1066.19 892.65 1055.86C829.35 1039.36 771.04 1010.7 719.36 970.67C669.44 932.01 627.77 884.42 595.5 829.24C563.23 774.06 541.99 714.06 532.36 650.9C522.4 585.51 525.39 519.6 541.25 454.97C557.29 389.63 585.5 329.59 625.11 276.53C663.37 225.28 710.52 182.75 765.25 150.12C818.77 118.21 876.9 97.38 938 88.2C1001.27 78.7 1065.08 82.15 1127.68 98.46C1190.98 114.96 1249.29 143.62 1300.97 183.65C1350.89 222.31 1392.56 269.9 1424.83 325.08C1457.1 380.26 1478.34 440.26 1487.97 503.42C1497.93 568.81 1494.94 634.72 1479.08 699.35C1463.04 764.69 1434.83 824.73 1395.22 877.79C1356.96 929.04 1309.81 971.57 1255.08 1004.2C1201.56 1036.11 1143.43 1056.94 1082.33 1066.12C1059.1 1069.61 1035.79 1071.35 1012.5 1071.35V1071.36ZM1007.34 84.54C923.24 84.54 840.37 107.21 766.07 151.5C653.75 218.46 574.46 326.37 542.8 455.36C478.21 718.47 635.34 987.16 893.06 1054.32C1016.39 1086.46 1144.68 1068.18 1254.28 1002.84C1366.6 935.88 1445.89 827.97 1477.55 698.98C1542.14 435.87 1385.01 167.18 1127.29 100.02C1087.56 89.67 1047.3 84.54 1007.34 84.54Z" fill="white"/>
<path d="M1008.62 1071.41C1008.01 1071.41 1007.4 1071.41 1006.79 1071.41C936.48 1071.18 867.8 1057.79 802.66 1031.59C735.79 1004.7 676.83 966.04 627.4 916.67C579.65 868.98 542.96 813.55 518.35 751.93C470.45 632.02 473.74 501.03 527.61 383.1C555.63 321.75 595.57 267.37 646.33 221.47C695.35 177.14 752.34 142.54 815.71 118.63C878.51 94.9399 944.45 82.9299 1011.73 82.9299C1012.34 82.9299 1012.95 82.9299 1013.56 82.9299C1083.87 83.1599 1152.55 96.5499 1217.69 122.75C1284.56 149.64 1343.52 188.3 1392.95 237.67C1440.7 285.36 1477.39 340.79 1502 402.41C1549.9 522.32 1546.61 653.31 1492.74 771.24C1464.72 832.59 1424.78 886.97 1374.02 932.87C1325 977.2 1268.01 1011.8 1204.64 1035.71C1141.84 1059.4 1075.9 1071.41 1008.62 1071.41ZM1012.22 84.65C808.66 84.65 614.41 196.87 529.05 383.76C475.36 501.3 472.09 631.84 519.82 751.34C570.4 877.96 671.05 976.96 803.25 1030.11C1068.55 1136.78 1377.21 1020.36 1491.3 770.57C1544.99 653.03 1548.26 522.49 1500.53 402.99C1449.95 276.37 1349.3 177.37 1217.11 124.22C1150.32 97.3599 1080.73 84.64 1012.23 84.64L1012.22 84.65Z" fill="white"/>
<path d="M1019.18 1071.97C986.94 1071.97 954.66 1069.58 922.5 1064.79C847.07 1053.57 775.63 1029.59 710.16 993.54C641.42 955.69 583.71 907.01 538.63 848.88C495.07 792.71 465.4 730.54 450.45 664.12C422.74 541.03 449.28 415.26 525.18 309.96C565.69 253.76 617.82 206.3 680.1 168.91C740.25 132.8 807.31 107.54 879.4 93.85C951.49 80.16 1024.98 78.71 1097.83 89.55C1173.26 100.77 1244.7 124.75 1310.17 160.8C1378.91 198.65 1436.62 247.33 1481.7 305.46C1525.26 361.63 1554.93 423.79 1569.88 490.22C1597.59 613.31 1571.05 739.08 1495.15 844.38C1454.64 900.58 1402.51 948.04 1340.23 985.43C1280.08 1021.54 1213.02 1046.8 1140.93 1060.49C1100.67 1068.14 1059.96 1071.97 1019.18 1071.97ZM1001.65 84.2C814.27 84.2 632.16 164.27 526.47 310.9C450.84 415.82 424.4 541.14 452 663.78C482.34 798.55 576.72 918.24 710.93 992.16C806.79 1044.95 913.57 1070.15 1018.69 1070.16C1206.07 1070.16 1388.18 990.09 1493.87 843.46C1569.5 738.54 1595.94 613.22 1568.34 490.58C1538 355.81 1443.63 236.12 1309.41 162.2C1213.55 109.41 1106.77 84.2 1001.65 84.2Z" fill="white"/>
<path d="M1046.54 1075.31C974.23 1075.31 902.56 1065.16 833.17 1045.08C754.11 1022.2 681.5 987.35 617.35 941.5C549.56 893.05 495.64 835.53 457.08 770.56C419.82 707.77 398.73 641.26 394.38 572.86C386.44 447.92 436.38 328.77 535.01 237.35C588.05 188.18 652.08 149.47 725.29 122.29C796 96.04 872.27 81.59 951.97 79.34C1031.67 77.09 1110.8 87.16 1187.16 109.26C1266.22 132.14 1338.83 166.99 1402.98 212.84C1470.77 261.29 1524.7 318.81 1563.25 383.78C1600.51 446.57 1621.6 513.08 1625.95 581.48C1633.89 706.42 1583.95 825.57 1485.32 916.99C1432.28 966.16 1368.25 1004.87 1295.03 1032.05C1224.32 1058.3 1148.06 1072.75 1068.35 1075C1061.07 1075.21 1053.79 1075.31 1046.53 1075.31H1046.54ZM973.56 80.85C809.14 80.85 649.07 133.8 536.09 238.52C437.82 329.61 388.06 448.31 395.96 572.76C404.78 711.6 485.81 845.53 618.27 940.2C743.01 1029.36 896.71 1073.48 1046.77 1073.49C1211.19 1073.49 1371.26 1020.54 1484.24 915.82C1582.51 824.73 1632.28 706.03 1624.37 581.58C1615.55 442.74 1534.52 308.81 1402.06 214.14C1277.32 124.98 1123.62 80.85 973.55 80.85H973.56Z" fill="white"/>
<path d="M1092.1 1084.24C1057.77 1084.24 1023.02 1082.15 988 1077.98C902.06 1067.73 818.84 1045.41 740.63 1011.64C659.65 976.67 587.63 930.9 526.57 875.58C462.63 817.66 414.79 753.05 384.4 683.55C355.02 616.39 343.29 548 349.52 480.29C361.14 354.06 435.15 242.87 557.91 167.18C623.21 126.92 698.51 98.71 781.72 83.32C862.08 68.46 946.4 66.12 1032.34 76.37C1118.28 86.62 1201.5 108.94 1279.71 142.71C1360.69 177.68 1432.71 223.45 1493.77 278.77C1557.71 336.69 1605.55 401.3 1635.94 470.8C1665.32 537.96 1677.05 606.35 1670.82 674.06C1659.2 800.29 1585.19 911.48 1462.43 987.17C1397.13 1027.43 1321.83 1055.64 1238.62 1071.03C1191.01 1079.83 1142 1084.24 1092.1 1084.24ZM928.19 71.94C794.4 71.94 664.5 103.33 558.74 168.53C436.41 243.95 362.67 354.71 351.1 480.43C338.46 617.72 402.81 761.31 527.64 874.39C776.54 1099.86 1195.52 1149.84 1461.6 985.8C1583.93 910.38 1657.67 799.62 1669.24 673.9C1681.88 536.61 1617.53 393.02 1492.7 279.94C1342.73 144.08 1131 71.94 928.19 71.94Z" fill="white"/>
<path d="M1149.78 1100.94C1067.9 1100.94 984.4 1090 901.24 1068.34C810.73 1044.77 725.19 1009.71 646.98 964.13C566 916.93 496.47 860.45 440.32 796.26C382.9 730.62 343.02 661 321.79 589.33C301.27 520.08 299.01 452.09 315.07 387.24C330.42 325.25 361.82 269.21 408.39 220.68C456.59 170.46 519.17 130.34 594.41 101.46C671.34 71.9201 756.97 55.84 848.91 53.66C937.7 51.55 1028.61 62.4301 1119.11 86.0001C1209.61 109.57 1295.16 144.63 1373.37 190.21C1454.35 237.41 1523.88 293.89 1580.03 358.08C1637.45 423.72 1677.33 493.34 1698.56 565.01C1719.08 634.26 1721.34 702.25 1705.28 767.1C1689.93 829.09 1658.53 885.13 1611.96 933.66C1563.76 983.88 1501.18 1024 1425.94 1052.88C1349.01 1082.42 1263.38 1098.5 1171.44 1100.68C1164.23 1100.85 1157.01 1100.94 1149.78 1100.94ZM869.7 55.1401C773.27 55.1401 679.5 70.4901 594.97 102.95C446.84 159.83 347.98 260.93 316.6 387.63C283.64 520.71 328 665.46 441.51 795.22C608.71 986.36 889.31 1099.2 1150.64 1099.21C1247.07 1099.21 1340.84 1083.86 1425.36 1051.4C1573.49 994.52 1672.35 893.42 1703.73 766.72C1736.69 633.64 1692.33 488.89 1578.82 359.14C1411.62 168 1131.02 55.1501 869.69 55.1501L869.7 55.1401Z" fill="white"/>
<path d="M1215.4 1127.09C1175.92 1127.09 1135.5 1124.55 1094.3 1119.47C998.63 1107.66 902.9 1082.69 809.75 1045.26C716.6 1007.83 630.73 959.82 554.52 902.56C475.61 843.27 410.57 776.61 361.21 704.44C312.5 633.21 281.91 560.76 270.3 489.11C259.08 419.86 265.94 354.13 290.68 293.74C316.11 231.69 359.07 178.44 418.39 135.47C479.77 91.01 555.92 59.6501 644.74 42.2801C732.34 25.1401 826.99 22.6501 926.04 34.8801C1021.71 46.6901 1117.44 71.6601 1210.59 109.09C1303.74 146.52 1389.61 194.53 1465.82 251.79C1544.73 311.08 1609.77 377.74 1659.13 449.91C1707.84 521.14 1738.43 593.59 1750.04 665.24C1761.26 734.49 1754.4 800.22 1729.66 860.61C1704.23 922.66 1661.27 975.91 1601.95 1018.88C1540.57 1063.34 1464.42 1094.7 1375.6 1112.07C1324.43 1122.08 1270.85 1127.09 1215.4 1127.09ZM804.56 28.9301C750.05 28.9301 696.56 33.7501 645.05 43.8301C469.62 78.1501 344.29 167.11 292.16 294.34C241.55 417.85 266.54 563.18 362.53 703.54C534.76 955.37 892.37 1125.4 1215.79 1125.42C1270.3 1125.42 1323.79 1120.6 1375.3 1110.52C1550.73 1076.2 1676.06 987.24 1728.19 860.01C1778.8 736.5 1753.81 591.17 1657.82 450.81C1485.59 198.98 1127.98 28.9301 804.56 28.9301Z" fill="white"/>
<path d="M1281.25 1163.16C1193.42 1163.16 1101.76 1150.68 1008.29 1125.96C907.6 1099.33 809.08 1059.7 715.45 1008.16C621.82 956.62 537.8 895.77 465.73 827.29C391.1 756.39 332.61 680.37 291.89 601.36C216.21 454.5 210.84 311.78 276.76 199.48C294.56 169.16 317.46 141.35 344.84 116.8C372.43 92.06 404.75 70.49 440.88 52.69C516.14 15.61 606.29 -4.90999 708.82 -8.30999C805.77 -11.53 907.79 0.820026 1012.04 28.39C1112.73 55.02 1211.25 94.65 1304.88 146.19C1398.51 197.73 1482.53 258.58 1554.6 327.06C1629.23 397.96 1687.72 473.98 1728.44 552.99C1804.12 699.85 1809.49 842.57 1743.56 954.87C1725.76 985.19 1702.86 1013 1675.48 1037.55C1647.89 1062.29 1615.57 1083.86 1579.44 1101.66C1504.18 1138.74 1414.03 1159.26 1311.5 1162.66C1301.47 1162.99 1291.37 1163.16 1281.24 1163.16H1281.25ZM738.69 -7.21996C728.7 -7.21996 718.8 -7.05997 708.88 -6.72997C508.47 -0.0799685 351.48 75.38 278.14 200.28C212.5 312.09 217.88 454.27 293.31 600.62C455.17 914.69 893.39 1161.53 1281.65 1161.55C1291.64 1161.55 1301.54 1161.39 1311.46 1161.06C1511.87 1154.41 1668.86 1078.95 1742.2 954.05C1807.84 842.24 1802.46 700.06 1727.03 553.71C1565.17 239.64 1126.95 -7.21996 738.69 -7.21996Z" fill="white"/>
<path d="M1342.45 1209.01C1307.61 1209.01 1271.49 1206.87 1234.14 1202.59C1129.52 1190.6 1022.11 1162.45 914.89 1118.91C811.33 1076.86 712.3 1022.3 620.56 956.75C528.81 891.2 448.96 817.95 383.23 739.05C315.17 657.34 265.3 573.11 235.02 488.7C207.9 413.08 197.93 341.05 205.4 274.61C212.62 210.38 235.86 153.11 274.48 104.39C297.96 74.7699 327.01 48.6399 360.85 26.6999C394.92 4.60992 433.98 -13.3101 476.94 -26.5601C566.54 -54.2001 670.6 -61.4901 786.22 -48.2401C890.84 -36.2501 998.25 -8.10009 1105.47 35.4399C1209.03 77.4899 1308.06 132.05 1399.8 197.6C1491.55 263.15 1571.4 336.4 1637.13 415.3C1705.19 497.01 1755.06 581.24 1785.34 665.65C1812.46 741.27 1822.43 813.3 1814.96 879.74C1807.74 943.97 1784.5 1001.24 1745.88 1049.96C1722.41 1079.58 1693.35 1105.72 1659.51 1127.65C1625.44 1149.74 1586.38 1167.66 1543.43 1180.91C1482.77 1199.62 1415.47 1209.01 1342.46 1209.01H1342.45ZM679.07 -52.9701C500.99 -52.9701 357.18 2.59991 275.72 105.37C197.36 204.23 183.43 340.18 236.51 488.16C359.96 832.33 807.58 1152.11 1234.32 1201.01C1461.4 1227.03 1647.41 1171.61 1744.63 1048.96C1822.99 950.1 1836.92 814.15 1783.84 666.17C1660.39 322 1212.78 2.21992 786.03 -46.6801C749.23 -50.9001 713.51 -52.9701 679.07 -52.9701Z" fill="white"/>
<path d="M1387.24 1262.76C1368.36 1262.76 1349.12 1262.08 1329.57 1260.72C1270.44 1256.61 1208.1 1246.26 1144.29 1229.93C1034.03 1201.72 923.51 1157.12 815.81 1097.34C711.79 1039.61 614.76 970.23 527.41 891.13C440.06 812.03 366.79 727.19 309.64 638.98C250.46 547.63 211.25 456.63 193.1 368.51C177.7 293.77 178.28 224.48 194.82 162.56C210.81 102.68 241.34 50.95 285.55 8.78002C315.16 -19.46 350.74 -43.11 391.31 -61.5C432.11 -80 478.03 -93.22 527.79 -100.79C578.45 -108.5 633.28 -110.39 690.77 -106.4C749.9 -102.29 812.24 -91.94 876.05 -75.61C986.32 -47.4 1096.83 -2.80003 1204.53 56.98C1308.55 114.71 1405.58 184.09 1492.93 263.19C1580.28 342.29 1653.55 427.13 1710.7 515.34C1769.88 606.69 1809.09 697.69 1827.24 785.81C1842.64 860.55 1842.06 929.84 1825.52 991.76C1809.53 1051.64 1779 1103.37 1734.79 1145.54C1705.18 1173.78 1669.6 1197.43 1629.03 1215.82C1588.23 1234.32 1542.31 1247.54 1492.55 1255.11C1459.12 1260.2 1423.87 1262.75 1387.24 1262.75V1262.76ZM632.1 -106.98C487.94 -106.98 367.6 -67.27 286.65 9.93999C196 96.4 164.19 220.29 194.66 368.2C230.5 542.19 349.05 727.49 528.48 889.96C707.93 1052.46 926.77 1172.65 1144.69 1228.39C1395.73 1292.6 1610.41 1261.99 1733.7 1144.39C1824.35 1057.92 1856.16 934.04 1825.69 786.13C1789.85 612.14 1671.3 426.84 1491.87 264.37C1312.42 101.87 1093.58 -18.32 875.66 -74.06C789.44 -96.11 707.51 -106.98 632.1 -106.98Z" fill="white"/>
<path d="M1416.85 1322.25C1362.11 1322.25 1304.03 1316.04 1244.03 1303.77C1179.02 1290.48 1111.45 1269.99 1043.2 1242.89C929.63 1197.78 818.57 1136.44 713.12 1060.55C611.27 987.26 518.9 903.55 438.58 811.77C358.25 719.98 294.02 624.72 247.67 528.65C199.67 429.16 173.05 333.14 168.55 243.26C164.93 171.02 175.91 105.74 201.18 49.23C225.63 -5.44003 263.02 -51.06 312.33 -86.36C348.53 -112.28 390.92 -132.37 438.33 -146.08C485.94 -159.85 538.61 -167.17 594.86 -167.85C652.1 -168.53 713.16 -162.34 776.33 -149.43C841.34 -136.14 908.91 -115.65 977.16 -88.55C1090.73 -43.44 1201.79 17.9 1307.24 93.79C1409.09 167.08 1501.46 250.79 1581.78 342.57C1662.11 434.36 1726.34 529.62 1772.69 625.69C1820.69 725.18 1847.31 821.2 1851.81 911.08C1855.43 983.32 1844.45 1048.6 1819.18 1105.11C1794.73 1159.78 1757.34 1205.4 1708.03 1240.7C1671.83 1266.62 1629.44 1286.71 1582.03 1300.42C1534.42 1314.19 1481.75 1321.51 1425.5 1322.19C1422.63 1322.22 1419.74 1322.24 1416.86 1322.24L1416.85 1322.25ZM603.35 -165.79C488.5 -165.79 388.4 -138.88 313.25 -85.07C212.48 -12.91 162.99 100.59 170.13 243.18C179.02 420.63 274.78 622.18 439.77 810.72C604.79 999.3 819.31 1152.25 1043.79 1241.41C1309.82 1347.07 1557.79 1346.32 1707.11 1239.41C1807.88 1167.25 1857.37 1053.75 1850.23 911.16C1841.34 733.71 1745.58 532.16 1580.59 343.62C1415.56 155.04 1201.05 2.09 976.57 -87.07C844.43 -139.55 716.71 -165.79 603.36 -165.79H603.35Z" fill="white"/>
<path d="M1429.31 1384.92C1400.74 1384.92 1371.24 1383.12 1340.98 1379.49C1277.88 1371.92 1211.63 1356.48 1144.07 1333.6C1074.49 1310.04 1003.3 1278.51 932.48 1239.88C818.23 1177.56 709.44 1099.6 609.13 1008.15C512.25 919.82 427.32 822.7 356.7 719.48C286.07 616.25 233.31 512.11 199.89 409.97C165.28 304.19 153.02 205.18 163.48 115.69C179.31 -19.8401 246.42 -121.89 357.56 -179.41C444.12 -224.21 555.39 -240.02 679.37 -225.14C742.47 -217.57 808.72 -202.13 876.28 -179.25C945.86 -155.69 1017.05 -124.16 1087.87 -85.53C1202.12 -23.2101 1310.91 54.7499 1411.21 146.2C1508.09 234.53 1593.02 331.65 1663.64 434.87C1734.27 538.1 1787.03 642.24 1820.45 744.38C1855.06 850.16 1867.32 949.17 1856.86 1038.66C1841.03 1174.19 1773.92 1276.24 1662.78 1333.76C1597.35 1367.62 1517.79 1384.93 1429.3 1384.93L1429.31 1384.92ZM589.83 -228.91C502.89 -228.91 424.23 -212.13 358.29 -178C247.64 -120.73 180.82 -19.1101 165.06 115.87C144.43 292.51 212.96 506.55 358.02 718.57C503.12 930.65 707.4 1115.29 933.25 1238.47C1210.74 1389.82 1483.2 1424.91 1662.07 1332.33C1772.72 1275.06 1839.54 1173.44 1855.3 1038.46C1875.93 861.82 1807.4 647.78 1662.34 435.76C1517.24 223.68 1312.96 39.0399 1087.11 -84.1401C911.92 -179.7 738.73 -228.91 589.83 -228.91Z" fill="white"/>
<path d="M1426.24 1448.33C1366.86 1448.33 1303.6 1440.12 1238 1423.69C1170.25 1406.72 1100.32 1381.1 1030.15 1347.56C957.86 1313 885.17 1269.94 814.12 1219.58C702.06 1140.16 598.53 1046.13 506.4 940.12C417.41 837.72 342.75 728.51 284.49 615.51C226.22 502.5 187.29 391.39 168.78 285.27C149.61 175.36 153.29 75.6501 179.73 -11.11C218.24 -137.46 302.85 -226.2 424.43 -267.73C525.27 -302.18 649.03 -302.74 782.33 -269.34C850.08 -252.37 920.02 -226.75 990.18 -193.21C1062.47 -158.65 1135.16 -115.59 1206.21 -65.2299C1318.27 14.1901 1421.8 108.22 1513.93 214.23C1602.92 316.63 1677.58 425.84 1735.85 538.84C1794.12 651.85 1833.05 762.96 1851.56 869.08C1870.73 978.99 1867.05 1078.7 1840.61 1165.46C1802.1 1291.81 1717.49 1380.55 1595.91 1422.08C1544.69 1439.58 1487.54 1448.33 1426.24 1448.33ZM594.34 -292.62C533.75 -292.62 476.81 -283.95 424.94 -266.23C303.87 -224.87 219.6 -136.49 181.25 -10.65C129.07 160.57 166.23 382.68 285.9 614.78C405.61 846.95 593.53 1061.27 815.04 1218.28C1094.55 1416.39 1386.27 1492.01 1595.39 1420.58C1716.46 1379.22 1800.73 1290.84 1839.08 1165C1891.26 993.78 1854.1 771.67 1734.43 539.57C1614.72 307.4 1426.8 93.08 1205.29 -63.93C995.11 -212.9 778.01 -292.62 594.34 -292.62Z" fill="white"/>
<path d="M1407.14 1510.08C1316.59 1510.08 1217.72 1490.13 1116.18 1450.98C1045.51 1423.73 973.92 1387.38 903.4 1342.92C830.73 1297.11 759.11 1242.63 690.53 1181.01C583.74 1085.03 488.58 975.97 407.7 856.85C329.58 741.79 267.99 622.24 224.66 501.51C181.32 380.76 158.42 264.93 156.59 157.21C154.7 45.65 175.61 -52.27 218.76 -133.83C280.17 -249.91 383.06 -323.8 516.3 -347.51C630.89 -367.9 765.02 -350.31 904.18 -296.66C974.85 -269.41 1046.44 -233.06 1116.96 -188.6C1189.63 -142.79 1261.25 -88.31 1329.83 -26.69C1436.62 69.29 1531.78 178.35 1612.66 297.47C1690.78 412.53 1752.37 532.08 1795.7 652.81C1839.04 773.56 1861.94 889.39 1863.77 997.11C1865.66 1108.67 1844.75 1206.59 1801.6 1288.15C1740.19 1404.23 1637.3 1478.12 1504.06 1501.83C1473.09 1507.34 1440.69 1510.08 1407.15 1510.08H1407.14ZM614.65 -354.32C580.94 -354.32 548.2 -351.56 516.57 -345.93C383.82 -322.31 281.33 -248.71 220.16 -133.07C135.03 27.86 137.16 253.04 226.16 500.99C315.19 749.03 480.49 990.11 691.6 1179.84C926.1 1390.58 1185.61 1508.66 1405.7 1508.67C1439.41 1508.67 1472.15 1505.91 1503.78 1500.28C1636.53 1476.66 1739.02 1403.06 1800.19 1287.42C1885.32 1126.49 1883.19 901.31 1794.2 653.36C1705.17 405.32 1539.87 164.24 1328.76 -25.49C1094.26 -236.23 834.75 -354.32 614.66 -354.32H614.65Z" fill="white"/>
<path d="M1372.77 1567.81C1249.17 1567.81 1112.29 1529.67 976.04 1457.15C904.71 1419.18 833.93 1372.05 765.68 1317.06C695.34 1260.39 627.62 1195.3 564.39 1123.6C466.06 1012.1 382.45 889.49 315.87 759.18C251.56 633.31 205.78 505.59 179.79 379.57C153.79 253.52 148.91 135.52 165.26 28.84C182.2 -81.65 221.31 -175.1 281.5 -248.91C366.93 -353.67 489.55 -410.53 636.1 -413.36C762.66 -415.8 903.82 -377.57 1044.29 -302.81C1115.62 -264.84 1186.4 -217.71 1254.65 -162.72C1324.99 -106.05 1392.71 -40.9601 1455.94 30.7399C1554.27 142.24 1637.88 264.85 1704.45 395.16C1768.76 521.03 1814.54 648.75 1840.53 774.77C1866.53 900.82 1871.41 1018.82 1855.06 1125.5C1838.12 1235.99 1799.01 1329.44 1738.82 1403.25C1653.39 1508.01 1530.77 1564.87 1384.21 1567.7C1380.41 1567.77 1376.58 1567.81 1372.76 1567.81H1372.77ZM647.93 -411.88C643.99 -411.88 640.07 -411.84 636.15 -411.77C490.08 -408.95 367.87 -352.29 282.75 -247.9C163.99 -102.28 127.99 120.45 181.36 379.25C234.76 638.15 371.22 902.13 565.59 1122.54C811.29 1401.16 1111.92 1566.22 1372.41 1566.22C1376.35 1566.22 1380.28 1566.18 1384.19 1566.11C1530.26 1563.29 1652.47 1506.63 1737.59 1402.24C1856.35 1256.62 1892.35 1033.89 1838.98 775.09C1785.58 516.19 1649.12 252.21 1454.75 31.7999C1209.05 -246.82 908.41 -411.88 647.93 -411.88Z" fill="white"/>
<path d="M1325.75 1619.38C1296.12 1619.38 1265.75 1617.22 1234.75 1612.88C1099.56 1593.93 956 1533.45 819.6 1437.96C750.28 1389.43 683.09 1332.13 619.91 1267.65C554.81 1201.21 493.86 1127.02 438.75 1047.15C352.15 921.64 283.23 787.45 233.92 648.33C186.29 513.95 158.85 380.63 152.38 252.09C145.91 123.52 160.73 6.20004 196.43 -96.61C233.41 -203.09 291.29 -289.27 368.45 -352.75C480.05 -444.55 624.29 -481.13 785.58 -458.53C920.77 -439.59 1064.33 -379.1 1200.73 -283.61C1270.05 -235.08 1337.24 -177.78 1400.42 -113.3C1465.52 -46.86 1526.47 27.3301 1581.59 107.2C1668.19 232.71 1737.11 366.89 1786.42 506.01C1834.05 640.39 1861.49 773.71 1867.96 902.25C1874.43 1030.82 1859.61 1148.14 1823.91 1250.95C1786.93 1357.43 1729.05 1443.61 1651.89 1507.09C1561.74 1581.25 1450.29 1619.37 1325.75 1619.37V1619.38ZM694.6 -463.45C570.42 -463.45 459.33 -425.46 369.46 -351.53C217.2 -226.28 140.67 -11.9399 153.96 252.01C167.26 516.07 268.86 798.13 440.05 1046.25C657.04 1360.73 954.2 1571.97 1234.96 1611.31C1265.87 1615.64 1296.18 1617.79 1325.73 1617.8C1449.91 1617.8 1561 1579.81 1650.87 1505.88C1803.13 1380.63 1879.66 1166.29 1866.37 902.34C1853.07 638.28 1751.47 356.22 1580.28 108.11C1363.29 -206.37 1066.13 -417.61 785.37 -456.95C754.46 -461.28 724.15 -463.44 694.6 -463.44V-463.45Z" fill="white"/>
<path d="M1269.02 1663.17C1200.47 1663.17 1129.17 1652.06 1056.37 1629.74C917.49 1587.16 777.19 1504.2 650.62 1389.81C586.2 1331.59 525.45 1265.42 470.05 1193.16C412.99 1118.72 361.45 1037.58 316.86 951.98C245.23 814.46 194.06 671.14 164.78 526.02C136.49 385.83 129.71 249.86 144.62 121.88C159.53 -6.13 195.4 -119.69 251.22 -215.66C309.03 -315.05 385.81 -391.1 479.44 -441.72C620.15 -517.79 787.7 -529.44 963.97 -475.4C1102.85 -432.82 1243.15 -349.86 1369.72 -235.48C1434.14 -177.26 1494.89 -111.09 1550.29 -38.83C1607.35 35.61 1658.89 116.75 1703.48 202.35C1775.11 339.87 1826.28 483.19 1855.56 628.31C1883.85 768.5 1890.63 904.47 1875.72 1032.45C1860.81 1160.46 1824.94 1274.02 1769.12 1369.99C1711.31 1469.37 1634.53 1545.43 1540.9 1596.05C1458.31 1640.7 1366.45 1663.16 1269.02 1663.16V1663.17ZM751.33 -507.24C654.15 -507.24 562.57 -484.85 480.2 -440.32C295.43 -340.43 176.82 -140.7 146.2 122.06C115.57 384.94 176.68 679.41 318.27 951.24C493.14 1286.97 769.24 1540.04 1056.83 1628.21C1232.68 1682.13 1399.81 1670.52 1540.14 1594.65C1724.91 1494.76 1843.52 1295.03 1874.14 1032.27C1904.77 769.39 1843.66 474.92 1702.07 203.09C1527.2 -132.64 1251.1 -385.71 963.51 -473.89C890.88 -496.16 819.71 -507.25 751.33 -507.25V-507.24Z" fill="white"/>
<path d="M1206.41 1697.88C1158.71 1697.88 1110.13 1692.86 1060.87 1682.8C944.68 1659.08 829.69 1608.51 719.08 1532.49C608.49 1456.48 507.85 1358.85 419.96 1242.32C328.97 1121.68 255.7 985.96 202.19 838.92C169.96 750.35 145.8 659.7 130.38 569.46C115.41 481.81 108.61 394.16 110.17 308.95C111.7 225.24 121.3 143.76 138.69 66.78C156.01 -9.85004 181.04 -82 213.11 -147.66C256.51 -236.53 312.19 -312.69 378.6 -374.01C447.28 -437.43 526.39 -483.92 613.72 -512.21C722.83 -547.55 839.16 -553.02 959.47 -528.46C1075.66 -504.74 1190.65 -454.17 1301.26 -378.15C1411.85 -302.14 1512.49 -204.51 1600.38 -87.98C1691.37 32.66 1764.64 168.39 1818.15 315.42C1850.38 403.99 1874.54 494.64 1889.96 584.88C1904.93 672.53 1911.74 760.18 1910.17 845.39C1908.64 929.1 1899.04 1010.58 1881.65 1087.56C1864.33 1164.19 1839.3 1236.34 1807.23 1302C1763.83 1390.87 1708.15 1467.03 1641.74 1528.35C1573.06 1591.77 1493.95 1638.26 1406.62 1666.55C1342.18 1687.42 1275.22 1697.87 1206.41 1697.87V1697.88ZM814.98 -542.05C746.3 -542.05 678.99 -531.68 614.2 -510.7C441.64 -454.81 303.43 -329.03 214.53 -146.97C81.98 124.48 77.92 492.83 203.68 838.36C309.46 1128.99 492.81 1375.03 719.98 1531.17C878.77 1640.31 1045.69 1696.38 1205.36 1696.39C1274.04 1696.39 1341.36 1686.02 1406.14 1665.04C1578.7 1609.15 1716.91 1483.37 1805.81 1301.31C1938.36 1029.86 1942.42 661.51 1816.66 315.97C1710.88 25.3399 1527.53 -220.7 1300.36 -376.84C1141.57 -485.98 974.65 -542.05 814.98 -542.05Z" fill="white"/>
<path d="M1142.22 1722.96C1054.1 1722.96 965.16 1707.64 876.62 1677.12C755.93 1635.52 641.09 1567.59 535.27 1475.2C429.47 1382.82 338.03 1270.65 263.49 1141.8C186.32 1008.41 130.74 862.89 98.29 709.28C79.54 620.52 69.08 530.93 67.21 443C65.39 357.52 71.66 273.05 85.85 191.93C99.79 112.26 121.4 35.53 150.1 -36.13C178.63 -107.37 214.21 -173.73 255.85 -233.39C318.22 -322.75 393.23 -396.16 478.79 -451.58C567.32 -508.93 665.24 -545.69 769.81 -560.83C892.93 -578.66 1018.73 -565.86 1143.7 -522.79C1264.39 -481.19 1379.24 -413.26 1485.05 -320.87C1590.85 -228.49 1682.29 -116.32 1756.83 12.53C1834 145.92 1889.58 291.44 1922.03 445.05C1940.78 533.81 1951.24 623.4 1953.11 711.33C1954.93 796.81 1948.66 881.28 1934.47 962.4C1920.53 1042.07 1898.92 1118.8 1870.22 1190.46C1841.69 1261.69 1806.11 1328.06 1764.47 1387.72C1702.1 1477.08 1627.09 1550.49 1541.53 1605.91C1453 1663.26 1355.08 1700.02 1250.51 1715.16C1214.61 1720.36 1178.48 1722.95 1142.22 1722.95V1722.96ZM878.37 -567.03C842.12 -567.03 805.99 -564.46 770.05 -559.25C562.78 -529.23 385.43 -416.23 257.16 -232.47C83.39 16.48 26.05 359.62 99.85 708.96C163.98 1012.55 318.99 1284.25 536.31 1474.01C721.47 1635.68 933.01 1721.37 1141.96 1721.38C1178.21 1721.38 1214.34 1718.81 1250.28 1713.6C1457.55 1683.58 1634.9 1570.58 1763.17 1386.82C1936.94 1137.87 1994.28 794.73 1920.48 445.39C1856.35 141.8 1701.34 -129.9 1484.02 -319.66C1298.86 -481.33 1087.32 -567.03 878.37 -567.03Z" fill="white"/>
<path d="M1085.48 1738.82C1081.88 1738.82 1078.28 1738.8 1074.67 1738.75C939.48 1737.1 806.62 1704.78 679.8 1642.69C557.31 1582.73 445.58 1497.66 347.7 1389.86C249.82 1282.07 170.73 1156.97 112.62 1018.04C52.46 874.21 17.53 721.78 8.82001 564.99C4.02001 478.54 7.45001 392.44 19.02 309.08C30.28 227.97 49.33 148.75 75.65 73.6199C101.49 -0.160095 134.5 -70.44 173.74 -135.28C212.69 -199.64 257.97 -258.93 308.3 -311.5C392.3 -399.22 488.94 -467.33 595.52 -513.95C705.85 -562.2 823.64 -585.9 945.66 -584.42C1080.85 -582.77 1213.71 -550.45 1340.53 -488.36C1463.02 -428.4 1574.75 -343.33 1672.63 -235.53C1770.51 -127.74 1849.6 -2.64008 1907.71 136.29C1967.87 280.12 2002.79 432.55 2011.51 589.34C2016.31 675.79 2012.88 761.89 2001.31 845.25C1990.05 926.36 1971 1005.58 1944.68 1080.71C1918.84 1154.49 1885.83 1224.77 1846.59 1289.61C1807.64 1353.97 1762.36 1413.26 1712.02 1465.83C1628.02 1553.55 1531.38 1621.66 1424.8 1668.28C1317.74 1715.11 1203.62 1738.82 1085.47 1738.82H1085.48ZM935.13 -582.89C699.8 -582.89 477.98 -486.38 309.45 -310.39C100.61 -92.3 -8.39 226.74 10.4 564.91C45.95 1204.56 523.38 1730.44 1074.68 1737.17C1078.18 1737.21 1081.7 1737.23 1085.2 1737.23C1320.53 1737.23 1542.35 1640.72 1710.88 1464.73C1919.72 1246.64 2028.72 927.61 2009.93 589.43C1974.39 -50.22 1496.95 -576.1 945.65 -582.83C942.15 -582.87 938.63 -582.89 935.13 -582.89Z" fill="white"/>
<path d="M1039.16 1746.9C986.99 1746.9 934.47 1742.82 881.9 1734.55C737.06 1711.77 599.94 1659.07 474.35 1577.91C413.99 1538.91 356.66 1493.36 303.93 1442.54C251.71 1392.2 203.56 1336.25 160.82 1276.25C118.08 1216.24 80.39 1151.68 48.8 1084.37C16.91 1016.41 -9.04003 945.03 -28.33 872.23C-68.46 720.75 -80.03 564.73 -62.72 408.49C-44.62 245.12 3.79996 92.07 81.18 -46.43C118.33 -112.91 162.05 -175.45 211.12 -232.31C259.78 -288.68 314.03 -339.86 372.37 -384.41C593.81 -553.55 865.87 -623.07 1138.44 -580.2C1283.28 -557.42 1420.4 -504.72 1545.99 -423.56C1606.35 -384.56 1663.68 -339.01 1716.41 -288.19C1768.63 -237.85 1816.78 -181.9 1859.52 -121.9C1902.26 -61.9 1939.95 2.66998 1971.54 69.98C2003.43 137.94 2029.38 209.32 2048.67 282.12C2088.8 433.6 2100.37 589.62 2083.06 745.86C2064.96 909.23 2016.54 1062.28 1939.16 1200.78C1902.01 1267.26 1858.29 1329.8 1809.22 1386.66C1760.56 1443.03 1706.31 1494.21 1647.98 1538.76C1469.26 1675.26 1257.51 1746.88 1039.17 1746.88L1039.16 1746.9ZM981.19 -590.97C763.18 -590.97 551.8 -519.47 373.34 -383.17C132.61 -199.32 -25.75 89.29 -61.13 408.65C-131.75 1045.98 291.41 1640.07 882.15 1732.97C1154.29 1775.77 1425.92 1706.35 1647 1537.51C1887.73 1353.66 2046.09 1065.05 2081.47 745.69C2152.09 108.36 1728.94 -485.73 1138.2 -578.63C1085.73 -586.88 1033.27 -590.96 981.19 -590.96V-590.97Z" fill="white"/>
<path d="M1010.1 1749.34C897.46 1749.34 785.44 1732.92 675.68 1700.23C524.07 1655.07 385.84 1581.58 264.82 1481.77C206.66 1433.8 152.85 1379.85 104.89 1321.41C57.39 1263.52 15.21 1200.73 -20.47 1134.77C-56.15 1068.81 -85.64 999.15 -108.1 927.72C-130.78 855.6 -146.5 781.04 -154.83 706.11C-172.15 550.21 -158.04 394.29 -112.89 242.68C-67.73 91.07 5.76999 -47.16 105.57 -168.18C153.54 -226.34 207.49 -280.15 265.93 -328.11C323.82 -375.61 386.61 -417.79 452.57 -453.48C518.53 -489.16 588.19 -518.65 659.62 -541.11C731.74 -563.79 806.3 -579.51 881.23 -587.84C1037.13 -605.16 1193.05 -591.05 1344.66 -545.9C1496.27 -500.74 1634.5 -427.25 1755.52 -327.44C1813.68 -279.47 1867.49 -225.52 1915.45 -167.08C1962.95 -109.19 2005.13 -46.4 2040.82 19.56C2076.5 85.52 2105.99 155.18 2128.45 226.61C2151.13 298.73 2166.85 373.29 2175.18 448.22C2192.5 604.12 2178.39 760.04 2133.24 911.65C2088.08 1063.26 2014.58 1201.49 1914.78 1322.51C1866.81 1380.67 1812.86 1434.48 1754.42 1482.44C1696.53 1529.94 1633.74 1572.12 1567.78 1607.81C1501.82 1643.49 1432.16 1672.98 1360.73 1695.44C1288.61 1718.12 1214.05 1733.84 1139.12 1742.17C1096.09 1746.95 1053.05 1749.34 1010.11 1749.34H1010.1ZM1008.6 -593.6C816.75 -593.6 626.8 -545.92 453.33 -452.07C178.41 -303.34 -22.14 -56.44 -111.36 243.13C-200.59 542.7 -167.81 859.09 -19.07 1134.01C129.67 1408.93 376.56 1609.47 676.14 1698.7C786.69 1731.63 899.55 1747.94 1011.75 1747.94C1203.6 1747.94 1393.55 1700.26 1567.02 1606.41C1841.94 1457.67 2042.49 1210.78 2131.71 911.2C2220.94 611.63 2188.16 295.24 2039.42 20.32C1890.68 -254.6 1643.79 -455.14 1344.21 -544.37C1233.66 -577.29 1120.8 -593.6 1008.6 -593.6Z" fill="white"/>
</g>
</g>
</g>
</g>
</svg>
