<svg width="908" height="271" viewBox="0 0 908 271" fill="none" xmlns="http://www.w3.org/2000/svg">
<path d="M64.8799 91.08V2.80994H99.8999V91.08C99.8999 112.87 103.27 119.7 113.82 119.7C124.37 119.7 127.57 112.87 127.57 91.08V2.80994H164.57V102.15C164.57 134.31 149.18 150.82 119.61 150.82C102.32 150.82 89.7799 145.11 82.4299 133.96C75.0799 145.11 62.72 150.82 45.25 150.82C15.34 150.82 0.209961 134.31 0.209961 102.15V2.80994H37.21V91.08C37.21 112.87 40.58 119.7 51.04 119.7C61.5 119.7 64.8701 112.87 64.8701 91.08H64.8799Z" fill="#FEEE52"/>
<path d="M177.2 49.6699C177.2 17.5099 195.01 0.909912 229.07 0.909912C263.13 0.909912 280.86 17.5099 280.86 49.6699V82.7H214.29V91.09C214.29 112.88 217.75 119.71 229.07 119.71C239.19 119.71 243.85 114.18 243.85 102.16V94.46H280.85V102.16C280.85 134.32 263.21 150.83 229.06 150.83C194.91 150.83 177.19 134.32 177.19 102.16V49.6799L177.2 49.6699ZM243.86 59.3499C243.69 38.5099 240.14 32.03 229.08 32.03C218.02 32.03 214.47 38.5999 214.3 59.3499H243.87H243.86Z" fill="#FEEE52"/>
<path d="M294.44 2.80994H331.44V117.71H375.71V148.92H294.44V2.80994Z" fill="#FEEE52"/>
<path d="M385.39 49.6699C385.39 17.5099 403.2 0.909912 437.26 0.909912C471.32 0.909912 489.05 17.5099 489.05 49.6699V62.64H452.05V60.65C452.05 38.86 448.59 32.03 437.27 32.03C425.95 32.03 422.49 38.86 422.49 60.65V91.08C422.49 112.87 425.95 119.7 437.27 119.7C448.59 119.7 452.05 112.87 452.05 91.08V89.09H489.05V102.15C489.05 134.31 471.41 150.82 437.26 150.82C403.11 150.82 385.39 134.31 385.39 102.15V49.6699Z" fill="#FEEE52"/>
<path d="M500.64 49.6699C500.64 17.5099 518.8 0.909912 553.46 0.909912C588.12 0.909912 606.2 17.5099 606.2 49.6699V102.15C606.2 134.31 588.13 150.82 553.46 150.82C518.79 150.82 500.64 134.31 500.64 102.15V49.6699ZM537.73 60.65V91.08C537.73 112.87 541.36 119.7 553.46 119.7C565.56 119.7 569.2 112.87 569.2 91.08V60.65C569.2 38.86 565.48 32.03 553.46 32.03C541.44 32.03 537.73 38.86 537.73 60.65Z" fill="#FEEE52"/>
<path d="M655.92 60.65V148.92H618.92V49.6699C618.92 17.5099 634.91 0.909912 665.87 0.909912C684.29 0.909912 697.43 6.78993 705.04 18.3699C712.65 6.78993 725.7 0.909912 744.21 0.909912C775.07 0.909912 791.07 17.5099 791.07 49.6699V148.92H754.07V60.65C754.07 38.86 750.35 32.03 738.34 32.03C726.33 32.03 722.52 38.86 722.52 60.65V148.92H687.51V60.65C687.51 38.86 683.79 32.03 671.78 32.03C659.77 32.03 655.96 38.86 655.96 60.65H655.92Z" fill="#FEEE52"/>
<path d="M803.68 49.6699C803.68 17.5099 821.49 0.909912 855.55 0.909912C889.61 0.909912 907.34 17.5099 907.34 49.6699V82.7H840.77V91.09C840.77 112.88 844.23 119.71 855.55 119.71C865.67 119.71 870.33 114.18 870.33 102.16V94.46H907.33V102.16C907.33 134.32 889.69 150.83 855.54 150.83C821.39 150.83 803.67 134.32 803.67 102.16V49.6799L803.68 49.6699ZM870.34 59.3499C870.17 38.5099 866.62 32.03 855.56 32.03C844.5 32.03 840.95 38.5999 840.78 59.3499H870.35H870.34Z" fill="#FEEE52"/>
<path d="M49.6201 209.76H27.73V269.07H22.3301V209.76H0.47998V205.2H49.6101V209.76H49.6201Z" fill="white"/>
<path d="M105.9 240.6C105.9 246.48 104.88 251.64 102.85 256.09C100.82 260.54 97.9099 263.96 94.1399 266.36C90.3699 268.76 86.0101 269.96 81.0701 269.96C73.6101 269.96 67.59 267.29 63 261.95C58.41 256.61 56.1101 249.41 56.1101 240.34V233.76C56.1101 227.94 57.14 222.79 59.2 218.3C61.26 213.81 64.18 210.36 67.95 207.95C71.72 205.54 76.07 204.33 80.98 204.33C85.89 204.33 90.23 205.51 93.99 207.88C97.75 210.25 100.65 213.6 102.7 217.93C104.75 222.26 105.81 227.27 105.9 232.98V240.61V240.6ZM100.51 233.67C100.51 225.98 98.77 219.95 95.29 215.6C91.81 211.24 87.04 209.06 80.99 209.06C74.94 209.06 70.32 211.25 66.8 215.62C63.28 219.99 61.51 226.1 61.51 233.94V240.61C61.51 248.18 63.26 254.19 66.77 258.62C70.28 263.05 75.0501 265.27 81.0701 265.27C87.0901 265.27 91.9501 263.08 95.3701 258.71C98.7901 254.34 100.5 248.25 100.5 240.44V233.68L100.51 233.67Z" fill="white"/>
<path d="M182.94 209.76H161.05V269.07H155.65V209.76H133.8V205.2H182.93V209.76H182.94Z" fill="white"/>
<path d="M240.58 269.07H235.14V238.45H198.64V269.07H193.24V205.2H198.64V233.89H235.14V205.2H240.58V269.07Z" fill="white"/>
<path d="M292.08 238.45H262.2V264.51H296.55V269.07H256.8V205.2H296.33V209.76H262.2V233.89H292.08V238.45Z" fill="white"/>
<path d="M341.39 210.77H322.66V194.93H378.81V210.77H360.17V269.07H341.39V210.77Z" fill="#FEEE52"/>
<path d="M383.73 194.93H408.73C427.9 194.93 435.53 200.76 435.53 215.42C435.53 226.04 431.49 230.12 423.6 231.78C431.01 234.32 433.82 240.12 434 250.95L434.31 269.07H415.53L415.27 250.95C415.05 239.11 413.82 237.26 405.97 237.26H402.51V269.06H383.73V194.92V194.93ZM408.73 210.77H402.5V224.59H408.73C414.87 224.59 416.76 222.62 416.76 217.4C416.76 212.66 414.87 210.78 408.73 210.78V210.77Z" fill="#FEEE52"/>
<path d="M441.94 269.07V218.71C441.94 202.39 451.15 193.97 468.74 193.97C486.33 193.97 495.5 202.39 495.5 218.71V269.07H476.72V239.63H460.75V269.07H441.93H441.94ZM460.76 224.28V225.77H476.73V224.28C476.73 213.22 474.84 209.76 468.75 209.76C462.66 209.76 460.77 213.22 460.77 224.28H460.76Z" fill="#FEEE52"/>
<path d="M520.73 224.28V269.07H501.95V218.71C501.95 202.39 511.12 193.97 528.75 193.97C546.38 193.97 555.51 202.39 555.51 218.71V269.07H536.73V224.28C536.73 213.22 534.84 209.76 528.75 209.76C522.66 209.76 520.72 213.22 520.72 224.28H520.73Z" fill="#FEEE52"/>
<path d="M561.88 218.71C561.88 202.39 570.92 193.97 588.2 193.97C605.48 193.97 614.48 202.39 614.48 218.71V225.29H595.7V224.28C595.7 213.22 593.95 209.76 588.2 209.76C582.45 209.76 580.7 213.22 580.7 224.28V239.72C580.7 250.78 582.45 254.24 588.2 254.24C593.95 254.24 595.7 250.78 595.7 239.72V238.71H614.48V245.33C614.48 261.65 605.53 270.03 588.2 270.03C570.87 270.03 561.88 261.65 561.88 245.33V218.7V218.71Z" fill="#FEEE52"/>
<path d="M621.37 194.93H662.96V210.77H640.15V221.52H662.96V235.38H640.15V253.23H662.96V269.07H621.37V194.93Z" fill="#FEEE52"/>
<path d="M716.3 210.77H692.26V194.93H735.91V210.77L711.87 253.23H735.91V269.07H692.26V253.23L716.3 210.77Z" fill="#FEEE52"/>
<path d="M741.79 218.71C741.79 202.39 751 193.97 768.59 193.97C786.18 193.97 795.35 202.39 795.35 218.71V245.34C795.35 261.66 786.18 270.04 768.59 270.04C751 270.04 741.79 261.66 741.79 245.34V218.71ZM760.61 224.28V239.72C760.61 250.78 762.45 254.24 768.59 254.24C774.73 254.24 776.57 250.78 776.57 239.72V224.28C776.57 213.22 774.68 209.76 768.59 209.76C762.5 209.76 760.61 213.22 760.61 224.28Z" fill="#FEEE52"/>
<path d="M820.58 224.28V269.07H801.8V218.71C801.8 202.39 810.97 193.97 828.6 193.97C846.23 193.97 855.36 202.39 855.36 218.71V269.07H836.58V224.28C836.58 213.22 834.69 209.76 828.6 209.76C822.51 209.76 820.57 213.22 820.57 224.28H820.58Z" fill="#FEEE52"/>
<path d="M862.74 194.93H904.33V210.77H881.52V221.52H904.33V235.38H881.52V253.23H904.33V269.07H862.74V194.93Z" fill="#FEEE52"/>
</svg>
