<svg width="393" height="121" viewBox="0 0 393 121" fill="none" xmlns="http://www.w3.org/2000/svg">
<path d="M6.19995 27.5H4V1.5H6.19995V27.5Z" fill="white"/>
<path d="M34.5801 27.5C34.3701 26.89 34.2299 25.99 34.1699 24.8C33.4199 25.78 32.46 26.5301 31.3 27.0601C30.14 27.5901 28.9101 27.85 27.6101 27.85C25.7501 27.85 24.2501 27.33 23.1001 26.3C21.9501 25.26 21.3799 23.96 21.3799 22.37C21.3799 20.49 22.16 19 23.73 17.91C25.3 16.82 27.48 16.27 30.27 16.27H34.1499V14.0699C34.1499 12.6899 33.7201 11.6001 32.8701 10.8101C32.0201 10.0201 30.7799 9.62 29.1499 9.62C27.6599 9.62 26.43 10 25.45 10.76C24.47 11.52 23.99 12.44 23.99 13.51L21.8501 13.49C21.8501 11.95 22.56 10.62 23.99 9.5C25.42 8.38 27.17 7.81006 29.26 7.81006C31.35 7.81006 33.1101 8.35005 34.3601 9.43005C35.6101 10.5101 36.24 12.0099 36.28 13.9399V23.08C36.28 24.95 36.4801 26.35 36.8701 27.28V27.49H34.5801V27.5ZM27.8601 25.97C29.2901 25.97 30.5699 25.6201 31.6899 24.9301C32.8099 24.2401 33.6299 23.32 34.1499 22.16V17.91H30.3301C28.2001 17.93 26.5301 18.32 25.3301 19.08C24.1301 19.84 23.53 20.87 23.53 22.2C23.53 23.28 23.93 24.18 24.74 24.9C25.54 25.61 26.5901 25.97 27.8701 25.97H27.8601Z" fill="white"/>
<path d="M44.28 8.18005L44.3501 11.3199C45.0601 10.1499 45.96 9.27995 47.03 8.69995C48.1 8.11995 49.2901 7.81995 50.6001 7.81995C53.6501 7.81995 55.5799 9.06995 56.3999 11.5699C57.0899 10.3699 58.0099 9.44004 59.1699 8.79004C60.3199 8.14004 61.6 7.81995 62.99 7.81995C67.13 7.81995 69.2401 10.08 69.3301 14.61V27.5H67.1899V14.77C67.1799 13.04 66.8101 11.7601 66.0701 10.9301C65.3301 10.1001 64.14 9.68005 62.49 9.68005C60.95 9.70005 59.6601 10.2 58.6001 11.17C57.5401 12.14 56.9501 13.32 56.8301 14.71V27.5H54.6899V14.61C54.6799 12.96 54.29 11.72 53.52 10.9C52.75 10.09 51.57 9.68005 49.98 9.68005C48.64 9.68005 47.48 10.06 46.52 10.83C45.56 11.6 44.8399 12.74 44.3799 14.25V27.5H42.24V8.18005H44.29H44.28Z" fill="white"/>
<path d="M104.14 27.5H101.93V15.04H87.0701V27.5H84.8701V1.5H87.0701V13.1801H101.93V1.5H104.14V27.5Z" fill="#FEEE52"/>
<path d="M109.43 17.5601C109.43 15.7001 109.79 14.03 110.51 12.54C111.23 11.05 112.25 9.88995 113.56 9.06995C114.87 8.23995 116.37 7.82996 118.03 7.82996C120.6 7.82996 122.68 8.73004 124.28 10.54C125.88 12.34 126.67 14.73 126.67 17.71V18.16C126.67 20.03 126.31 21.71 125.59 23.2C124.87 24.69 123.86 25.85 122.55 26.66C121.24 27.47 119.75 27.87 118.07 27.87C115.51 27.87 113.43 26.97 111.83 25.16C110.23 23.36 109.43 20.97 109.43 17.99V17.5601ZM111.57 18.15C111.57 20.46 112.17 22.36 113.36 23.84C114.56 25.32 116.12 26.0601 118.07 26.0601C120.02 26.0601 121.56 25.32 122.76 23.84C123.96 22.36 124.55 20.4 124.55 17.97V17.5601C124.55 16.0801 124.28 14.73 123.73 13.51C123.18 12.28 122.41 11.33 121.43 10.66C120.44 9.99003 119.31 9.65002 118.04 9.65002C116.13 9.65002 114.58 10.4 113.38 11.89C112.18 13.38 111.58 15.34 111.58 17.76V18.15H111.57Z" fill="#FEEE52"/>
<path d="M133.49 8.18005L133.56 11.48C134.29 10.29 135.19 9.38001 136.27 8.76001C137.35 8.14001 138.55 7.81995 139.86 7.81995C141.93 7.81995 143.47 8.39995 144.48 9.56995C145.49 10.7399 146 12.4899 146.02 14.8199V27.5H143.9V14.8C143.89 13.07 143.52 11.7899 142.8 10.9399C142.08 10.0999 140.93 9.67004 139.34 9.67004C138.02 9.67004 136.85 10.08 135.83 10.91C134.81 11.74 134.06 12.85 133.57 14.26V27.49H131.45V8.17004H133.49V8.18005Z" fill="#FEEE52"/>
<path d="M151.05 17.66C151.05 14.64 151.72 12.24 153.06 10.47C154.4 8.69997 156.22 7.81995 158.52 7.81995C161.15 7.81995 163.15 8.86996 164.52 10.96L164.63 8.17004H166.63V27.1C166.63 29.59 165.93 31.56 164.54 33.01C163.15 34.46 161.26 35.1899 158.88 35.1899C157.54 35.1899 156.25 34.89 155.03 34.29C153.81 33.69 152.85 32.89 152.15 31.89L153.35 30.6C154.86 32.46 156.66 33.39 158.74 33.39C160.53 33.39 161.92 32.8601 162.92 31.8101C163.92 30.7601 164.44 29.2901 164.47 27.4301V25C163.1 26.91 161.11 27.86 158.49 27.86C156.25 27.86 154.45 26.9701 153.1 25.1801C151.74 23.3901 151.06 20.98 151.06 17.95V17.66H151.05ZM153.21 18.04C153.21 20.5 153.7 22.45 154.69 23.87C155.68 25.29 157.07 26 158.87 26C161.5 26 163.36 24.82 164.46 22.46V13.48C163.96 12.24 163.24 11.3 162.3 10.65C161.36 10 160.23 9.68005 158.91 9.68005C157.11 9.68005 155.71 10.39 154.71 11.8C153.71 13.21 153.21 15.29 153.21 18.04Z" fill="#FEEE52"/>
<path d="M201.67 27.5H199.47L184.52 5.25V27.5H182.31V1.5H184.52L199.48 23.77V1.5H201.66V27.5H201.67Z" fill="#FEEE52"/>
<path d="M210.27 11.45C210.97 10.3 211.87 9.40002 212.97 8.77002C214.07 8.14002 215.26 7.81995 216.56 7.81995C218.63 7.81995 220.17 8.39995 221.18 9.56995C222.19 10.7399 222.7 12.4899 222.72 14.8199V27.5H220.6V14.8C220.59 13.07 220.22 11.7899 219.5 10.9399C218.78 10.0999 217.63 9.67004 216.04 9.67004C214.72 9.67004 213.55 10.08 212.53 10.91C211.51 11.74 210.76 12.85 210.27 14.26V27.49H208.15V0.0600586H210.27V11.4301V11.45Z" fill="#FEEE52"/>
<path d="M241.01 25.0601C239.72 26.9301 237.67 27.86 234.85 27.86C232.79 27.86 231.23 27.2599 230.15 26.0699C229.08 24.8699 228.53 23.1 228.51 20.76V8.18994H230.63V20.49C230.63 24.17 232.12 26.01 235.09 26.01C238.06 26.01 240.14 24.73 240.97 22.17V8.18994H243.11V27.51H241.04L241 25.0601H241.01Z" fill="#FEEE52"/>
<path d="M251.07 8.18005L251.14 11.48C251.87 10.29 252.77 9.38001 253.85 8.76001C254.93 8.14001 256.13 7.81995 257.44 7.81995C259.51 7.81995 261.05 8.39995 262.06 9.56995C263.07 10.7399 263.58 12.4899 263.6 14.8199V27.5H261.48V14.8C261.47 13.07 261.1 11.7899 260.38 10.9399C259.66 10.0999 258.51 9.67004 256.92 9.67004C255.6 9.67004 254.43 10.08 253.41 10.91C252.39 11.74 251.64 12.85 251.15 14.26V27.49H249.03V8.17004H251.07V8.18005Z" fill="#FEEE52"/>
<path d="M268.63 17.66C268.63 14.64 269.3 12.24 270.64 10.47C271.98 8.69997 273.8 7.81995 276.1 7.81995C278.73 7.81995 280.73 8.86996 282.1 10.96L282.21 8.17004H284.21V27.1C284.21 29.59 283.51 31.56 282.12 33.01C280.73 34.46 278.84 35.1899 276.46 35.1899C275.12 35.1899 273.83 34.89 272.61 34.29C271.39 33.69 270.43 32.89 269.73 31.89L270.93 30.6C272.44 32.46 274.24 33.39 276.32 33.39C278.11 33.39 279.5 32.8601 280.5 31.8101C281.5 30.7601 282.02 29.2901 282.05 27.4301V25C280.68 26.91 278.69 27.86 276.07 27.86C273.83 27.86 272.03 26.9701 270.68 25.1801C269.32 23.3901 268.64 20.98 268.64 17.95V17.66H268.63ZM270.79 18.04C270.79 20.5 271.28 22.45 272.27 23.87C273.26 25.29 274.65 26 276.45 26C279.08 26 280.94 24.82 282.04 22.46V13.48C281.54 12.24 280.82 11.3 279.88 10.65C278.94 10 277.81 9.68005 276.49 9.68005C274.69 9.68005 273.29 10.39 272.29 11.8C271.29 13.21 270.79 15.29 270.79 18.04Z" fill="#FEEE52"/>
<path d="M289.94 26.22C289.94 25.8 290.07 25.45 290.34 25.16C290.61 24.87 290.98 24.72 291.46 24.72C291.94 24.72 292.31 24.87 292.58 25.16C292.85 25.45 292.99 25.81 292.99 26.22C292.99 26.63 292.85 26.98 292.58 27.25C292.31 27.52 291.93 27.65 291.46 27.65C290.99 27.65 290.61 27.52 290.34 27.25C290.07 26.98 289.94 26.64 289.94 26.22Z" fill="#FEEE52"/>
<path d="M17.5601 64.08H5.76001L3.08008 71.38H0.780029L10.6201 45.38H12.71L22.55 71.38H20.26L17.5601 64.08ZM6.43994 62.23H16.8701L11.6599 48.0699L6.44995 62.23H6.43994Z" fill="white"/>
<path d="M34.6299 61.55C34.6299 58.53 35.2999 56.13 36.6399 54.36C37.9799 52.59 39.8001 51.71 42.1001 51.71C44.7301 51.71 46.7301 52.76 48.1001 54.85L48.21 52.0601H50.21V70.99C50.21 73.48 49.5101 75.45 48.1201 76.9C46.7301 78.35 44.84 79.08 42.46 79.08C41.12 79.08 39.8301 78.7801 38.6101 78.1801C37.3901 77.5801 36.43 76.78 35.73 75.78L36.9299 74.49C38.4399 76.35 40.2401 77.28 42.3201 77.28C44.1101 77.28 45.5 76.75 46.5 75.7C47.5 74.65 48.02 73.1799 48.05 71.3199V68.89C46.68 70.8 44.6901 71.75 42.0701 71.75C39.8301 71.75 38.0299 70.8599 36.6799 69.0699C35.3199 67.2799 34.6399 64.87 34.6399 61.84V61.55H34.6299ZM36.79 61.92C36.79 64.38 37.28 66.33 38.27 67.75C39.26 69.17 40.65 69.88 42.45 69.88C45.08 69.88 46.94 68.7 48.04 66.34V57.36C47.54 56.12 46.8199 55.18 45.8799 54.53C44.9399 53.88 43.81 53.5601 42.49 53.5601C40.69 53.5601 39.29 54.2701 38.29 55.6801C37.29 57.0901 36.79 59.17 36.79 61.92Z" fill="white"/>
<path d="M65.0701 53.89C64.6201 53.81 64.1401 53.77 63.6201 53.77C62.2901 53.77 61.16 54.14 60.24 54.89C59.32 55.63 58.66 56.71 58.27 58.13V71.4H56.1499V52.08H58.24L58.28 55.15C59.41 52.86 61.23 51.72 63.73 51.72C64.33 51.72 64.7999 51.8 65.1399 51.95L65.0901 53.9L65.0701 53.89Z" fill="white"/>
<path d="M80.29 71.39C80.08 70.78 79.9399 69.8799 79.8799 68.6899C79.1299 69.6699 78.17 70.42 77.01 70.95C75.85 71.48 74.6201 71.74 73.3201 71.74C71.4601 71.74 69.9601 71.2199 68.8101 70.1899C67.6601 69.1499 67.0901 67.85 67.0901 66.26C67.0901 64.38 67.8699 62.89 69.4399 61.8C71.0099 60.71 73.19 60.16 75.98 60.16H79.8601V57.96C79.8601 56.58 79.4301 55.49 78.5801 54.7C77.7301 53.91 76.4901 53.51 74.8601 53.51C73.3701 53.51 72.1399 53.89 71.1599 54.65C70.1799 55.41 69.7 56.33 69.7 57.4L67.5601 57.38C67.5601 55.84 68.27 54.51 69.7 53.39C71.13 52.27 72.88 51.7 74.97 51.7C77.06 51.7 78.8201 52.2399 80.0701 53.3199C81.3201 54.3999 81.95 55.9 81.99 57.83V66.97C81.99 68.84 82.1901 70.24 82.5801 71.17V71.38H80.29V71.39ZM73.5701 69.85C75.0001 69.85 76.2799 69.5001 77.3999 68.8101C78.5199 68.1201 79.3401 67.2 79.8601 66.04V61.79H76.04C73.91 61.81 72.24 62.2 71.04 62.96C69.84 63.72 69.24 64.75 69.24 66.08C69.24 67.16 69.64 68.06 70.45 68.78C71.25 69.49 72.3001 69.85 73.5801 69.85H73.5701Z" fill="white"/>
<path d="M103.58 61.92C103.58 64.93 102.91 67.32 101.58 69.09C100.25 70.86 98.46 71.74 96.22 71.74C93.58 71.74 91.5499 70.81 90.1499 68.95V78.8101H88.03V52.0601H90.01L90.1201 54.79C91.5101 52.73 93.5299 51.7 96.1699 51.7C98.4799 51.7 100.29 52.5799 101.61 54.3199C102.92 56.0699 103.58 58.5 103.58 61.61V61.91V61.92ZM101.44 61.55C101.44 59.09 100.93 57.14 99.9199 55.71C98.9099 54.28 97.4999 53.5699 95.6899 53.5699C94.3799 53.5699 93.2601 53.89 92.3101 54.52C91.3601 55.15 90.6499 56.07 90.1499 57.27V66.54C90.6599 67.65 91.3901 68.49 92.3501 69.08C93.3101 69.67 94.43 69.96 95.73 69.96C97.53 69.96 98.9299 69.2401 99.9399 67.8101C100.95 66.3801 101.45 64.2999 101.45 61.5699L101.44 61.55Z" fill="white"/>
<path d="M110.8 55.33C111.5 54.18 112.4 53.28 113.5 52.65C114.6 52.02 115.79 51.7 117.09 51.7C119.16 51.7 120.7 52.28 121.71 53.45C122.72 54.62 123.23 56.37 123.25 58.7V71.38H121.13V58.6801C121.12 56.9501 120.75 55.6699 120.03 54.8199C119.31 53.9799 118.16 53.55 116.57 53.55C115.25 53.55 114.08 53.96 113.06 54.79C112.04 55.62 111.29 56.73 110.8 58.14V71.37H108.68V43.9399H110.8V55.3101V55.33Z" fill="white"/>
<path d="M128.99 46.49C128.99 46.09 129.12 45.75 129.38 45.47C129.64 45.19 130 45.05 130.45 45.05C130.9 45.05 131.26 45.19 131.53 45.47C131.8 45.75 131.93 46.09 131.93 46.49C131.93 46.89 131.8 47.23 131.53 47.5C131.26 47.77 130.9 47.91 130.45 47.91C130 47.91 129.64 47.77 129.38 47.5C129.12 47.23 128.99 46.89 128.99 46.49ZM131.51 71.39H129.37V52.0699H131.51V71.39Z" fill="white"/>
<path d="M144.82 69.9399C146.31 69.9399 147.56 69.5201 148.56 68.6801C149.57 67.8401 150.11 66.75 150.19 65.42H152.24C152.18 66.6 151.81 67.67 151.13 68.64C150.45 69.61 149.55 70.37 148.42 70.92C147.3 71.47 146.09 71.74 144.8 71.74C142.26 71.74 140.26 70.86 138.77 69.1C137.29 67.34 136.55 64.97 136.55 61.99V61.35C136.55 59.45 136.88 57.76 137.55 56.3C138.22 54.84 139.17 53.71 140.42 52.91C141.66 52.11 143.12 51.71 144.79 51.71C146.91 51.71 148.66 52.34 150.03 53.6C151.4 54.86 152.14 56.52 152.24 58.58H150.19C150.09 57.07 149.55 55.85 148.56 54.92C147.57 53.99 146.31 53.53 144.8 53.53C142.87 53.53 141.37 54.23 140.31 55.62C139.24 57.01 138.71 58.96 138.71 61.48V62.1C138.71 64.56 139.24 66.49 140.31 67.87C141.38 69.25 142.88 69.9399 144.82 69.9399Z" fill="white"/>
<path d="M165.28 61.55C165.28 58.55 165.95 56.16 167.29 54.38C168.63 52.6 170.45 51.71 172.75 51.71C175.36 51.71 177.34 52.74 178.71 54.8V43.96H180.83V71.39H178.83L178.74 68.8199C177.37 70.7699 175.36 71.75 172.7 71.75C170.47 71.75 168.68 70.8501 167.32 69.0601C165.96 67.2701 165.28 64.85 165.28 61.8V61.55ZM167.44 61.92C167.44 64.38 167.93 66.33 168.92 67.75C169.91 69.17 171.3 69.88 173.1 69.88C175.73 69.88 177.6 68.72 178.71 66.4V57.33C177.6 54.82 175.75 53.5601 173.14 53.5601C171.34 53.5601 169.94 54.2701 168.94 55.6801C167.94 57.0901 167.44 59.17 167.44 61.92Z" fill="white"/>
<path d="M194.31 71.74C192.67 71.74 191.18 71.33 189.85 70.53C188.52 69.72 187.49 68.59 186.75 67.15C186.01 65.71 185.64 64.08 185.64 62.28V61.51C185.64 59.65 186 57.98 186.72 56.49C187.44 55 188.44 53.83 189.73 52.98C191.02 52.13 192.41 51.7 193.91 51.7C196.26 51.7 198.12 52.5 199.49 54.1C200.87 55.7 201.55 57.89 201.55 60.66V61.86H187.76V62.27C187.76 64.46 188.39 66.28 189.64 67.74C190.89 69.2 192.48 69.9301 194.38 69.9301C195.52 69.9301 196.53 69.7201 197.41 69.3101C198.29 68.9001 199.08 68.2301 199.79 67.3101L201.13 68.33C199.56 70.6 197.28 71.74 194.29 71.74H194.31ZM193.91 53.53C192.3 53.53 190.95 54.12 189.85 55.3C188.75 56.48 188.08 58.06 187.84 60.05H199.43V59.8199C199.37 57.9599 198.84 56.45 197.84 55.28C196.84 54.11 195.53 53.53 193.91 53.53Z" fill="white"/>
<path d="M217.65 66.48C217.65 65.42 217.22 64.5701 216.37 63.9301C215.52 63.2901 214.24 62.78 212.52 62.42C210.81 62.06 209.48 61.64 208.53 61.17C207.58 60.7 206.88 60.13 206.42 59.45C205.96 58.77 205.73 57.95 205.73 56.99C205.73 55.47 206.37 54.21 207.64 53.21C208.91 52.22 210.55 51.72 212.53 51.72C214.69 51.72 216.41 52.2499 217.72 53.3199C219.03 54.3899 219.68 55.78 219.68 57.49H217.54C217.54 56.36 217.07 55.42 216.12 54.67C215.17 53.92 213.98 53.55 212.54 53.55C211.1 53.55 210.01 53.86 209.16 54.49C208.31 55.11 207.88 55.9301 207.88 56.9301C207.88 57.9301 208.23 58.64 208.94 59.17C209.65 59.7 210.94 60.18 212.82 60.63C214.7 61.08 216.1 61.54 217.03 62.04C217.96 62.54 218.66 63.14 219.11 63.84C219.56 64.54 219.79 65.39 219.79 66.39C219.79 68.02 219.13 69.32 217.82 70.3C216.5 71.28 214.79 71.76 212.67 71.76C210.42 71.76 208.6 71.22 207.2 70.13C205.8 69.04 205.1 67.66 205.1 66H207.24C207.32 67.25 207.85 68.22 208.82 68.92C209.79 69.62 211.07 69.96 212.67 69.96C214.16 69.96 215.36 69.63 216.28 68.98C217.2 68.33 217.66 67.5 217.66 66.5L217.65 66.48Z" fill="white"/>
<path d="M224.84 46.49C224.84 46.09 224.97 45.75 225.23 45.47C225.49 45.19 225.85 45.05 226.3 45.05C226.75 45.05 227.11 45.19 227.38 45.47C227.65 45.75 227.78 46.09 227.78 46.49C227.78 46.89 227.65 47.23 227.38 47.5C227.11 47.77 226.75 47.91 226.3 47.91C225.85 47.91 225.49 47.77 225.23 47.5C224.97 47.23 224.84 46.89 224.84 46.49ZM227.36 71.39H225.22V52.0699H227.36V71.39Z" fill="white"/>
<path d="M232.67 61.55C232.67 58.53 233.34 56.13 234.68 54.36C236.02 52.59 237.84 51.71 240.14 51.71C242.77 51.71 244.77 52.76 246.14 54.85L246.25 52.0601H248.25V70.99C248.25 73.48 247.55 75.45 246.16 76.9C244.77 78.35 242.88 79.08 240.5 79.08C239.16 79.08 237.87 78.7801 236.65 78.1801C235.43 77.5801 234.47 76.78 233.77 75.78L234.97 74.49C236.48 76.35 238.28 77.28 240.36 77.28C242.15 77.28 243.54 76.75 244.54 75.7C245.54 74.65 246.06 73.1799 246.09 71.3199V68.89C244.72 70.8 242.73 71.75 240.11 71.75C237.87 71.75 236.07 70.8599 234.72 69.0699C233.36 67.2799 232.68 64.87 232.68 61.84V61.55H232.67ZM234.83 61.92C234.83 64.38 235.32 66.33 236.31 67.75C237.3 69.17 238.69 69.88 240.49 69.88C243.12 69.88 244.98 68.7 246.08 66.34V57.36C245.58 56.12 244.86 55.18 243.92 54.53C242.98 53.88 241.85 53.5601 240.53 53.5601C238.73 53.5601 237.33 54.2701 236.33 55.6801C235.33 57.0901 234.83 59.17 234.83 61.92Z" fill="white"/>
<path d="M256.21 52.0699L256.28 55.37C257.01 54.18 257.91 53.27 258.99 52.65C260.07 52.03 261.27 51.71 262.58 51.71C264.65 51.71 266.19 52.29 267.2 53.46C268.21 54.63 268.72 56.38 268.74 58.71V71.39H266.62V58.6899C266.61 56.9599 266.24 55.68 265.52 54.83C264.8 53.99 263.65 53.5601 262.06 53.5601C260.74 53.5601 259.57 53.97 258.55 54.8C257.53 55.63 256.78 56.74 256.29 58.15V71.38H254.17V52.0601H256.21V52.0699Z" fill="white"/>
<path d="M282.11 71.74C280.47 71.74 278.98 71.33 277.65 70.53C276.32 69.72 275.29 68.59 274.55 67.15C273.81 65.71 273.44 64.08 273.44 62.28V61.51C273.44 59.65 273.8 57.98 274.52 56.49C275.24 55 276.24 53.83 277.53 52.98C278.82 52.13 280.21 51.7 281.71 51.7C284.06 51.7 285.92 52.5 287.29 54.1C288.67 55.7 289.35 57.89 289.35 60.66V61.86H275.56V62.27C275.56 64.46 276.19 66.28 277.44 67.74C278.69 69.2 280.28 69.9301 282.18 69.9301C283.32 69.9301 284.33 69.7201 285.21 69.3101C286.09 68.9001 286.88 68.2301 287.59 67.3101L288.93 68.33C287.36 70.6 285.08 71.74 282.09 71.74H282.11ZM281.72 53.53C280.11 53.53 278.76 54.12 277.66 55.3C276.56 56.48 275.89 58.06 275.65 60.05H287.24V59.8199C287.18 57.9599 286.65 56.45 285.65 55.28C284.65 54.11 283.34 53.53 281.72 53.53Z" fill="white"/>
<path d="M302.82 53.89C302.37 53.81 301.89 53.77 301.37 53.77C300.04 53.77 298.91 54.14 297.99 54.89C297.07 55.63 296.41 56.71 296.02 58.13V71.4H293.9V52.08H295.99L296.03 55.15C297.16 52.86 298.98 51.72 301.48 51.72C302.08 51.72 302.55 51.8 302.89 51.95L302.84 53.9L302.82 53.89Z" fill="white"/>
<path d="M18.5801 105.81C18.5801 108.82 17.9101 111.21 16.5801 112.98C15.2501 114.75 13.46 115.63 11.21 115.63C8.51996 115.63 6.4801 114.63 5.1001 112.63L5.01001 115.27H3.01001V87.84H5.12988V98.75C6.48988 96.64 8.49992 95.59 11.1699 95.59C13.4599 95.59 15.2601 96.46 16.5901 98.21C17.9201 99.95 18.5801 102.38 18.5801 105.49V105.81ZM16.4399 105.43C16.4399 102.88 15.95 100.92 14.96 99.53C13.97 98.14 12.58 97.45 10.78 97.45C9.41003 97.45 8.25005 97.79 7.30005 98.46C6.35005 99.13 5.62989 100.12 5.13989 101.42V110.13C6.20989 112.56 8.10007 113.77 10.8201 113.77C12.5801 113.77 13.96 113.07 14.95 111.68C15.94 110.29 16.4399 108.2 16.4399 105.43Z" fill="white"/>
<path d="M35.8601 115.27C35.6501 114.66 35.51 113.76 35.45 112.57C34.7 113.55 33.7401 114.3 32.5801 114.83C31.4201 115.36 30.1899 115.62 28.8899 115.62C27.0299 115.62 25.5299 115.1 24.3799 114.07C23.2299 113.03 22.6599 111.73 22.6599 110.14C22.6599 108.26 23.44 106.77 25.01 105.68C26.58 104.59 28.76 104.04 31.55 104.04H35.4299V101.84C35.4299 100.46 34.9999 99.37 34.1499 98.58C33.2999 97.79 32.0599 97.39 30.4299 97.39C28.9399 97.39 27.71 97.77 26.73 98.53C25.75 99.29 25.27 100.21 25.27 101.28L23.1299 101.26C23.1299 99.72 23.84 98.39 25.27 97.27C26.7 96.15 28.45 95.58 30.54 95.58C32.63 95.58 34.3899 96.12 35.6399 97.2C36.8899 98.28 37.5201 99.78 37.5601 101.71V110.85C37.5601 112.72 37.7599 114.12 38.1499 115.05V115.26H35.8601V115.27ZM29.1399 113.73C30.5699 113.73 31.85 113.38 32.97 112.69C34.09 112 34.9099 111.08 35.4299 109.92V105.67H31.6101C29.4801 105.69 27.8101 106.08 26.6101 106.84C25.4101 107.6 24.8101 108.63 24.8101 109.96C24.8101 111.04 25.21 111.94 26.02 112.66C26.82 113.37 27.8699 113.73 29.1499 113.73H29.1399Z" fill="white"/>
<path d="M55.1799 110.36C55.1799 109.3 54.7499 108.45 53.8999 107.81C53.0499 107.17 51.77 106.66 50.05 106.3C48.34 105.94 47.0101 105.52 46.0601 105.05C45.1101 104.58 44.41 104.01 43.95 103.33C43.49 102.65 43.26 101.83 43.26 100.87C43.26 99.35 43.8999 98.09 45.1699 97.09C46.4399 96.1 48.0801 95.6 50.0601 95.6C52.2201 95.6 53.94 96.13 55.25 97.2C56.56 98.27 57.21 99.66 57.21 101.37H55.0701C55.0701 100.24 54.5999 99.3 53.6499 98.55C52.6999 97.8 51.5101 97.4301 50.0701 97.4301C48.6301 97.4301 47.5399 97.74 46.6899 98.37C45.8399 98.99 45.4099 99.8101 45.4099 100.81C45.4099 101.81 45.76 102.52 46.47 103.05C47.18 103.58 48.4701 104.06 50.3501 104.51C52.2301 104.96 53.6301 105.42 54.5601 105.92C55.4901 106.42 56.1899 107.02 56.6399 107.72C57.0899 108.42 57.3201 109.27 57.3201 110.27C57.3201 111.9 56.6601 113.2 55.3501 114.18C54.0301 115.16 52.32 115.64 50.2 115.64C47.95 115.64 46.13 115.1 44.73 114.01C43.33 112.92 42.6299 111.54 42.6299 109.88H44.77C44.85 111.13 45.3801 112.1 46.3501 112.8C47.3201 113.5 48.6 113.84 50.2 113.84C51.69 113.84 52.8901 113.51 53.8101 112.86C54.7301 112.21 55.1899 111.38 55.1899 110.38L55.1799 110.36Z" fill="white"/>
<path d="M69.98 115.63C68.34 115.63 66.85 115.22 65.52 114.42C64.19 113.61 63.1599 112.48 62.4199 111.04C61.6799 109.6 61.3101 107.97 61.3101 106.17V105.4C61.3101 103.54 61.6699 101.87 62.3899 100.38C63.1099 98.89 64.1099 97.72 65.3999 96.87C66.6899 96.02 68.0801 95.59 69.5801 95.59C71.9301 95.59 73.7899 96.39 75.1599 97.99C76.5399 99.59 77.22 101.78 77.22 104.55V105.75H63.4299V106.16C63.4299 108.35 64.0601 110.17 65.3101 111.63C66.5601 113.09 68.15 113.82 70.05 113.82C71.19 113.82 72.2001 113.61 73.0801 113.2C73.9601 112.79 74.75 112.12 75.46 111.2L76.8 112.22C75.23 114.49 72.95 115.63 69.96 115.63H69.98ZM69.5801 97.41C67.9701 97.41 66.62 98.0001 65.52 99.1801C64.42 100.36 63.75 101.94 63.51 103.93H75.1001V103.7C75.0401 101.84 74.51 100.33 73.51 99.16C72.51 97.99 71.2001 97.41 69.5801 97.41Z" fill="white"/>
<path d="M80.8999 105.43C80.8999 102.43 81.5699 100.04 82.9099 98.26C84.2499 96.48 86.0701 95.59 88.3701 95.59C90.9801 95.59 92.9601 96.6201 94.3301 98.6801V87.84H96.45V115.27H94.45L94.3601 112.7C92.9901 114.65 90.9801 115.63 88.3201 115.63C86.0901 115.63 84.2999 114.73 82.9399 112.94C81.5799 111.15 80.8999 108.73 80.8999 105.68V105.43ZM83.0601 105.81C83.0601 108.27 83.55 110.22 84.54 111.64C85.53 113.06 86.92 113.77 88.72 113.77C91.35 113.77 93.2201 112.61 94.3301 110.29V101.22C93.2201 98.71 91.37 97.45 88.76 97.45C86.96 97.45 85.5601 98.1599 84.5601 99.5699C83.5601 100.98 83.0601 103.06 83.0601 105.81Z" fill="white"/>
<path d="M111.57 90.37C111.57 89.97 111.7 89.63 111.96 89.35C112.22 89.07 112.58 88.9301 113.03 88.9301C113.48 88.9301 113.84 89.07 114.11 89.35C114.38 89.63 114.51 89.97 114.51 90.37C114.51 90.77 114.38 91.11 114.11 91.38C113.84 91.65 113.48 91.79 113.03 91.79C112.58 91.79 112.22 91.65 111.96 91.38C111.7 91.11 111.57 90.77 111.57 90.37ZM114.09 115.27H111.95V95.95H114.09V115.27Z" fill="white"/>
<path d="M122.29 95.95L122.36 99.25C123.09 98.06 123.99 97.15 125.07 96.53C126.15 95.91 127.35 95.59 128.66 95.59C130.73 95.59 132.27 96.17 133.28 97.34C134.29 98.51 134.8 100.26 134.82 102.59V115.27H132.7V102.57C132.69 100.84 132.32 99.56 131.6 98.71C130.88 97.87 129.73 97.4399 128.14 97.4399C126.82 97.4399 125.65 97.8501 124.63 98.6801C123.61 99.5101 122.86 100.62 122.37 102.03V115.26H120.25V95.9399H122.29V95.95Z" fill="white"/>
<path d="M169.74 115.27H167.53V102.81H152.67V115.27H150.47V89.27H152.67V100.95H167.53V89.27H169.74V115.27Z" fill="#FEEE52"/>
<path d="M188.2 115.69C187.99 115.08 187.85 114.18 187.79 112.99C187.04 113.97 186.08 114.72 184.92 115.25C183.76 115.78 182.53 116.04 181.23 116.04C179.37 116.04 177.87 115.52 176.72 114.49C175.57 113.45 175 112.15 175 110.56C175 108.68 175.78 107.19 177.35 106.1C178.92 105.01 181.1 104.46 183.89 104.46H187.77V102.26C187.77 100.88 187.34 99.79 186.49 99C185.64 98.21 184.4 97.8101 182.77 97.8101C181.28 97.8101 180.05 98.1901 179.07 98.9501C178.09 99.7101 177.61 100.63 177.61 101.7L175.47 101.68C175.47 100.14 176.18 98.8101 177.61 97.6901C179.04 96.5701 180.79 96 182.88 96C184.97 96 186.73 96.54 187.98 97.62C189.23 98.7 189.86 100.2 189.9 102.13V111.27C189.9 113.14 190.1 114.54 190.49 115.47V115.68H188.2V115.69ZM181.49 114.15C182.92 114.15 184.2 113.8 185.32 113.11C186.44 112.42 187.26 111.5 187.78 110.34V106.09H183.96C181.83 106.11 180.16 106.5 178.96 107.26C177.76 108.02 177.16 109.05 177.16 110.38C177.16 111.46 177.56 112.36 178.37 113.08C179.17 113.79 180.22 114.15 181.5 114.15H181.49Z" fill="#FEEE52"/>
<path d="M198.2 95.95L198.27 99.25C199 98.06 199.9 97.15 200.98 96.53C202.06 95.91 203.26 95.59 204.57 95.59C206.64 95.59 208.18 96.17 209.19 97.34C210.2 98.51 210.71 100.26 210.73 102.59V115.27H208.61V102.57C208.6 100.84 208.23 99.56 207.51 98.71C206.79 97.87 205.64 97.4399 204.05 97.4399C202.73 97.4399 201.56 97.8501 200.54 98.6801C199.52 99.5101 198.77 100.62 198.28 102.03V115.26H196.16V95.9399H198.2V95.95Z" fill="#FEEE52"/>
<path d="M215.44 105.32C215.44 103.46 215.8 101.79 216.52 100.3C217.24 98.81 218.26 97.65 219.57 96.83C220.88 96 222.38 95.59 224.04 95.59C226.61 95.59 228.69 96.49 230.29 98.3C231.89 100.1 232.68 102.49 232.68 105.47V105.92C232.68 107.79 232.32 109.47 231.6 110.96C230.88 112.45 229.87 113.61 228.56 114.42C227.25 115.23 225.76 115.63 224.08 115.63C221.52 115.63 219.44 114.73 217.84 112.92C216.24 111.12 215.44 108.73 215.44 105.75V105.32ZM217.58 105.91C217.58 108.22 218.18 110.12 219.37 111.6C220.57 113.08 222.13 113.82 224.08 113.82C226.03 113.82 227.57 113.08 228.77 111.6C229.97 110.12 230.56 108.16 230.56 105.73V105.32C230.56 103.84 230.29 102.49 229.74 101.27C229.19 100.04 228.42 99.09 227.44 98.42C226.45 97.75 225.32 97.41 224.05 97.41C222.14 97.41 220.59 98.16 219.39 99.65C218.19 101.14 217.59 103.1 217.59 105.52V105.91H217.58Z" fill="#FEEE52"/>
<path d="M237.34 90.37C237.34 89.97 237.47 89.63 237.73 89.35C237.99 89.07 238.35 88.9301 238.8 88.9301C239.25 88.9301 239.61 89.07 239.88 89.35C240.15 89.63 240.28 89.97 240.28 90.37C240.28 90.77 240.15 91.11 239.88 91.38C239.61 91.65 239.25 91.79 238.8 91.79C238.35 91.79 237.99 91.65 237.73 91.38C237.47 91.11 237.34 90.77 237.34 90.37ZM239.86 115.27H237.72V95.95H239.86V115.27Z" fill="#FEEE52"/>
<path d="M245.58 120.13L244.31 119.2C245.39 117.75 245.95 116.24 245.99 114.68V111.91H248.08V114.14C248.08 116.62 247.25 118.61 245.58 120.12V120.13Z" fill="#FEEE52"/>
<path d="M270.99 112.06L271.13 112.61L271.29 112.06L279.47 89.28H281.88L272.2 115.28H270.09L260.41 89.28H262.8L270.98 112.06H270.99Z" fill="#FEEE52"/>
<path d="M285.44 90.37C285.44 89.97 285.57 89.63 285.83 89.35C286.09 89.07 286.45 88.9301 286.9 88.9301C287.35 88.9301 287.71 89.07 287.98 89.35C288.25 89.63 288.38 89.97 288.38 90.37C288.38 90.77 288.25 91.11 287.98 91.38C287.71 91.65 287.35 91.79 286.9 91.79C286.45 91.79 286.09 91.65 285.83 91.38C285.57 91.11 285.44 90.77 285.44 90.37ZM287.96 115.27H285.82V95.95H287.96V115.27Z" fill="#FEEE52"/>
<path d="M301.61 115.63C299.97 115.63 298.48 115.22 297.15 114.42C295.82 113.61 294.79 112.48 294.05 111.04C293.31 109.6 292.94 107.97 292.94 106.17V105.4C292.94 103.54 293.3 101.87 294.02 100.38C294.74 98.89 295.74 97.72 297.03 96.87C298.32 96.02 299.71 95.59 301.21 95.59C303.56 95.59 305.42 96.39 306.79 97.99C308.17 99.59 308.85 101.78 308.85 104.55V105.75H295.06V106.16C295.06 108.35 295.69 110.17 296.94 111.63C298.19 113.09 299.78 113.82 301.68 113.82C302.82 113.82 303.83 113.61 304.71 113.2C305.59 112.79 306.38 112.12 307.09 111.2L308.43 112.22C306.86 114.49 304.58 115.63 301.59 115.63H301.61ZM301.22 97.41C299.61 97.41 298.26 98.0001 297.16 99.1801C296.06 100.36 295.39 101.94 295.15 103.93H306.74V103.7C306.68 101.84 306.15 100.33 305.15 99.16C304.15 97.99 302.84 97.41 301.22 97.41Z" fill="#FEEE52"/>
<path d="M316.71 91V95.95H320.71V97.7H316.71V110.59C316.71 111.66 316.9 112.46 317.29 112.99C317.68 113.51 318.32 113.78 319.23 113.78C319.59 113.78 320.16 113.72 320.96 113.6L321.05 115.34C320.49 115.54 319.73 115.64 318.76 115.64C317.3 115.64 316.23 115.21 315.56 114.36C314.89 113.51 314.56 112.26 314.56 110.6V97.71H311.01V95.96H314.56V91.01H316.7L316.71 91Z" fill="#FEEE52"/>
<path d="M327.54 95.95L327.61 99.25C328.34 98.06 329.24 97.15 330.32 96.53C331.4 95.91 332.6 95.59 333.91 95.59C335.98 95.59 337.52 96.17 338.53 97.34C339.54 98.51 340.05 100.26 340.07 102.59V115.27H337.95V102.57C337.94 100.84 337.57 99.56 336.85 98.71C336.13 97.87 334.98 97.4399 333.39 97.4399C332.07 97.4399 330.9 97.8501 329.88 98.6801C328.86 99.5101 328.11 100.62 327.62 102.03V115.26H325.5V95.9399H327.54V95.95Z" fill="#FEEE52"/>
<path d="M358.15 115.27C357.94 114.66 357.8 113.76 357.74 112.57C356.99 113.55 356.03 114.3 354.87 114.83C353.71 115.36 352.48 115.62 351.18 115.62C349.32 115.62 347.82 115.1 346.67 114.07C345.52 113.03 344.95 111.73 344.95 110.14C344.95 108.26 345.73 106.77 347.3 105.68C348.87 104.59 351.05 104.04 353.84 104.04H357.72V101.84C357.72 100.46 357.29 99.37 356.44 98.58C355.59 97.79 354.35 97.39 352.72 97.39C351.23 97.39 350 97.77 349.02 98.53C348.04 99.29 347.56 100.21 347.56 101.28L345.42 101.26C345.42 99.72 346.13 98.39 347.56 97.27C348.99 96.15 350.74 95.58 352.83 95.58C354.92 95.58 356.68 96.12 357.93 97.2C359.18 98.28 359.81 99.78 359.85 101.71V110.85C359.85 112.72 360.05 114.12 360.44 115.05V115.26H358.15V115.27ZM351.44 113.73C352.87 113.73 354.15 113.38 355.27 112.69C356.39 112 357.21 111.08 357.73 109.92V105.67H353.91C351.78 105.69 350.11 106.08 348.91 106.84C347.71 107.6 347.11 108.63 347.11 109.96C347.11 111.04 347.51 111.94 348.32 112.66C349.12 113.37 350.17 113.73 351.45 113.73H351.44Z" fill="#FEEE52"/>
<path d="M367.85 95.95L367.92 99.09C368.63 97.92 369.53 97.05 370.6 96.47C371.67 95.89 372.86 95.59 374.17 95.59C377.22 95.59 379.15 96.84 379.97 99.34C380.66 98.14 381.58 97.2101 382.74 96.5601C383.89 95.9101 385.17 95.59 386.56 95.59C390.7 95.59 392.81 97.85 392.9 102.38V115.27H390.76V102.54C390.75 100.81 390.38 99.53 389.64 98.7C388.9 97.87 387.71 97.45 386.06 97.45C384.52 97.47 383.23 97.9699 382.17 98.9399C381.11 99.9099 380.52 101.09 380.4 102.48V115.27H378.26V102.38C378.25 100.73 377.86 99.49 377.09 98.67C376.32 97.86 375.14 97.45 373.55 97.45C372.21 97.45 371.05 97.83 370.09 98.6C369.13 99.37 368.41 100.51 367.95 102.02V115.27H365.81V95.95H367.86H367.85Z" fill="#FEEE52"/>
</svg>
