<svg width="1913" height="1009" viewBox="0 0 1913 1009" fill="none" xmlns="http://www.w3.org/2000/svg">
<g opacity="0.7">
<mask id="mask0_56_277" style="mask-type:luminance" maskUnits="userSpaceOnUse" x="0" y="0" width="1927" height="1285">
<path d="M1926.81 0H0V1284.54H1926.81V0Z" fill="white"/>
</mask>
<g mask="url(#mask0_56_277)">
<mask id="mask1_56_277" style="mask-type:luminance" maskUnits="userSpaceOnUse" x="762" y="454" width="347" height="386">
<path d="M903.22 615.98L906.42 602.88L911.83 597.61C913.76 595.73 916.04 593.72 918.6 592.89L926.51 590.61C928 590.06 929.57 589.8 931.15 589.82C931.38 589.82 940.44 589.46 940.67 589.49L954.18 592.56L977.98 602.45L999.63 619.9C1000.46 620.64 1010.78 631.71 1011.32 632.68L1023.63 654.83L1022.12 688.3L1003.24 712.97L972.03 724.04L937.04 721.02L905.58 708.69L874.62 688.3L856.25 669.17L839.39 645.51L824.54 615.06L817.24 574.03V543.83L830.33 506.58L851.47 480.4L886.98 454.16L858.04 468.8L842.6 479.26L818.93 500.04L799.92 522.74L786.66 543.9L778.45 560.91L770.34 583.67L764.9 607.79L762.78 626.38L762.95 655.24L766.06 677.9L772.66 702.88L779.38 720.25L792.53 745.17L812.05 771.54L830.94 790.41L848.08 803.8L877.67 820.84L905.44 831.38L931.35 837.28L957.69 839.7L989.87 837.89L1022.05 830.69L1044.68 822.1L1060.38 810.6L1082.03 790.8L1097.47 764.29L1104.01 747.18L1108.2 719.49L1106.69 693.31L1098.13 659.42L1088.73 639.51L1072.45 614.29L1056.01 596L1038.22 581.23C1038.22 581.23 1015.4 568.31 1014.73 567.97C1014.06 567.63 991.41 559.24 991.41 559.24L965.23 554.54L944.59 556.55L928.82 561.92L914.89 573.16L904.99 587.93L901.13 599.84L903.2 615.94L903.22 615.98Z" fill="white"/>
</mask>
<g mask="url(#mask1_56_277)">
<path d="M1108.21 454.17H912.21V839.72H1108.21V454.17Z" fill="#E093AF"/>
<path d="M912.2 454.17H762.78V839.72H912.2V454.17Z" fill="#E093AF"/>
</g>
<mask id="mask2_56_277" style="mask-type:luminance" maskUnits="userSpaceOnUse" x="818" y="442" width="346" height="386">
<path d="M1023.28 675.05L1017.24 685.62L1006.67 692.42L988.04 694.69L969.669 690.91L942.24 676.82L913.04 650.14L902.719 626.98L904.229 593.51L923.11 568.84L954.32 557.77L989.3 560.79L1020.76 573.12L1051.72 593.51L1070.09 612.64L1086.95 636.3L1101.8 666.75L1109.1 707.78V737.98L1096.01 775.23L1074.87 801.41L1039.36 827.65L1068.3 813.01L1083.74 802.55L1107.41 781.77L1126.42 759.07L1139.68 737.91L1147.89 720.9L1156 698.14L1161.44 674.02L1163.56 655.43L1163.39 626.57L1160.28 603.91L1153.68 578.93L1146.96 561.56L1133.81 536.64L1114.29 510.27L1095.4 491.4L1078.26 478.01L1048.67 460.97L1020.9 450.43L994.99 444.53L968.65 442.11L936.469 443.92L904.29 451.12L881.66 459.71L865.959 471.21L844.31 491.01L828.87 517.52L822.33 534.63L818.14 562.32L819.65 588.5L828.209 622.39L837.61 642.3L853.89 667.52L870.33 685.81L888.12 700.58C888.12 700.58 910.94 713.5 911.61 713.84C912.28 714.18 934.929 722.57 934.929 722.57L961.11 727.27L981.75 725.26L997.52 719.89L1011.45 708.65L1021.35 693.88L1025.21 681.97L1023.28 675.09V675.05Z" fill="white"/>
</mask>
<g mask="url(#mask2_56_277)">
<path d="M1014.16 442.09H818.16V827.64H1014.16V442.09Z" fill="#E093AF"/>
<path d="M1163.58 442.09H1014.16V827.64H1163.58V442.09Z" fill="#E093AF"/>
</g>
<g opacity="0.35">
<path d="M992.69 695.54C985.17 695.54 976.77 693.96 967.91 690.77C934.44 678.75 905.22 647.32 902.76 620.71C901.77 610.02 905.12 601.37 912.43 595.71C923.02 587.51 940.23 586.8 959.64 593.77C993.11 605.79 1022.33 637.22 1024.79 663.83C1025.78 674.52 1022.43 683.17 1015.12 688.83C1009.36 693.29 1001.65 695.53 992.69 695.53V695.54ZM934.95 590.67C926.28 590.67 918.81 592.78 913.4 596.97C906.54 602.28 903.41 610.44 904.34 620.57C906.74 646.62 935.5 677.45 968.44 689.28C987.05 695.96 1004.13 695.33 1014.14 687.58C1021 682.27 1024.13 674.11 1023.2 663.98C1020.8 637.93 992.04 607.1 959.1 595.27C950.55 592.2 942.32 590.67 934.95 590.67Z" fill="white"/>
<path d="M993.92 699.95C983.72 699.95 971.98 696.87 960.02 690.83C926.14 673.72 900.12 638.1 902.01 611.42C902.73 601.24 907.36 593.45 915.4 588.89C927.96 581.77 947.44 583.56 967.53 593.7C1001.41 610.81 1027.44 646.43 1025.54 673.11C1024.82 683.29 1020.19 691.08 1012.15 695.64C1007.07 698.52 1000.86 699.95 993.93 699.95H993.92ZM933.63 586.17C926.98 586.17 921.03 587.53 916.18 590.28C908.63 594.57 904.27 601.92 903.59 611.54C901.74 637.64 927.37 672.57 960.73 689.42C980.34 699.32 999.26 701.13 1011.35 694.27C1018.9 689.98 1023.26 682.63 1023.94 673.01C1025.79 646.92 1000.16 611.98 966.8 595.13C955.06 589.2 943.55 586.17 933.62 586.17H933.63Z" fill="white"/>
<path d="M993.939 704.55C981.199 704.55 966.23 699.4 951.55 689.66C918.09 667.46 896.21 628.19 902.78 602.12C905.18 592.59 911.09 585.76 919.88 582.37C934.62 576.67 955.6 581.34 976 594.87C1009.47 617.07 1031.34 656.34 1024.77 682.41C1022.37 691.94 1016.46 698.77 1007.67 702.16C1003.53 703.76 998.909 704.54 993.939 704.54V704.55ZM904.32 602.51C897.9 627.98 919.479 666.48 952.429 688.34C972.399 701.59 992.84 706.2 1007.1 700.69C1015.38 697.49 1020.96 691.03 1023.23 682.03C1029.65 656.56 1008.07 618.06 975.12 596.2C955.15 582.95 934.72 578.34 920.46 583.85C912.18 587.05 906.6 593.51 904.33 602.51H904.32Z" fill="white"/>
<path d="M992.76 709.05C977.42 709.05 959.33 701.27 942.66 687.19C910.5 660.02 893.69 617.79 905.19 593.05C909.27 584.27 916.5 578.51 926.1 576.39C942.97 572.67 964.95 580.5 984.88 597.34C1017.04 624.51 1033.85 666.74 1022.35 691.48C1018.27 700.26 1011.04 706.02 1001.44 708.14C998.67 708.75 995.77 709.05 992.76 709.05ZM934.81 577.07C931.91 577.07 929.11 577.36 926.44 577.95C917.35 579.96 910.5 585.41 906.63 593.72C895.42 617.85 912.04 659.24 943.68 685.97C963.24 702.49 984.7 710.19 1001.09 706.58C1010.18 704.57 1017.03 699.12 1020.9 690.81C1032.11 666.68 1015.49 625.29 983.85 598.56C967.47 584.72 949.76 577.07 934.81 577.07Z" fill="white"/>
<path d="M990.59 713.29C972.4 713.29 951.3 702.27 933.55 683.36C903.63 651.48 892.77 607.12 909.33 584.47C915.15 576.52 923.78 571.97 934.29 571.33C953.08 570.2 975.38 581.34 994 601.18C1023.92 633.06 1034.78 677.42 1018.22 700.07C1012.41 708.02 1003.77 712.57 993.26 713.21C992.38 713.26 991.49 713.29 990.59 713.29ZM910.61 585.41C894.48 607.47 905.29 650.93 934.7 682.27C953 701.77 974.86 712.76 993.15 711.62C1003.18 711.01 1011.4 706.69 1016.93 699.13C1033.06 677.07 1022.26 633.61 992.84 602.27C974.54 582.77 952.69 571.79 934.39 572.92C924.36 573.53 916.14 577.85 910.61 585.41Z" fill="white"/>
<path d="M987.48 717.14C985.99 717.14 984.48 717.06 982.94 716.92C962.75 714.95 940.87 700.46 924.41 678.16C897.7 641.98 893.59 596.44 915.23 576.65C922.91 569.63 933.06 566.52 944.61 567.64C964.8 569.61 986.68 584.1 1003.14 606.4C1029.85 642.58 1033.97 688.12 1012.32 707.91C1005.67 713.99 997.15 717.15 987.48 717.15V717.14ZM940.08 569C930.81 569 922.66 572.01 916.3 577.82C895.24 597.08 899.45 641.66 925.69 677.21C941.89 699.16 963.35 713.41 983.1 715.33C994.19 716.41 1003.92 713.43 1011.25 706.73C1032.31 687.47 1028.1 642.89 1001.86 607.34C985.66 585.39 964.2 571.14 944.45 569.22C942.97 569.08 941.51 569 940.08 569Z" fill="white"/>
<path d="M983.559 720.45C979.349 720.45 974.979 719.87 970.509 718.7C949.619 713.24 929.049 695.63 915.479 671.58C892.949 631.65 896.27 586.01 922.87 569.84C932.6 563.93 944.409 562.55 957.029 565.84C977.919 571.3 998.489 588.92 1012.06 612.96C1034.59 652.89 1031.28 698.53 1004.67 714.7C998.389 718.52 991.239 720.45 983.559 720.45ZM923.699 571.2C897.819 586.92 894.75 631.6 916.87 670.8C930.23 694.48 950.44 711.82 970.91 717.17C983.09 720.35 994.479 719.03 1003.84 713.35C1029.72 697.63 1032.79 652.95 1010.67 613.75C997.309 590.07 977.11 572.73 956.63 567.38C944.44 564.2 933.059 565.51 923.699 571.2Z" fill="white"/>
<path d="M979.19 723.11C951.49 723.11 921.54 699.52 907.02 663.68C896.9 638.69 896.14 611.72 904.99 591.52C910.8 578.25 920.22 568.85 932.23 564.32C963.52 552.53 1003.12 577.89 1020.52 620.86C1030.64 645.85 1031.4 672.82 1022.55 693.02C1016.74 706.29 1007.32 715.69 995.31 720.22C990.12 722.18 984.7 723.11 979.19 723.11ZM932.8 565.81C921.2 570.18 912.09 579.29 906.45 592.16C897.77 611.97 898.54 638.48 908.5 663.08C925.58 705.25 964.27 730.22 994.75 718.73C1006.35 714.36 1015.46 705.25 1021.1 692.38C1029.78 672.57 1029.01 646.06 1019.05 621.46C1001.97 579.29 963.28 554.32 932.8 565.81Z" fill="white"/>
<path d="M974.56 725.11C942.05 725.11 909.6 695.57 899.28 654.55C892.86 629.06 896.02 603.74 907.94 585.07C916.52 571.64 928.71 563.09 943.2 560.35C978.75 553.61 1016.91 584.85 1028.27 629.99C1034.69 655.48 1031.53 680.8 1019.61 699.47C1011.04 712.9 998.84 721.45 984.36 724.2C981.11 724.82 977.84 725.12 974.57 725.12L974.56 725.11ZM943.49 561.91C929.44 564.58 917.61 572.88 909.28 585.93C897.59 604.23 894.51 629.1 900.82 654.17C911.98 698.51 949.33 729.23 984.05 722.64C998.1 719.97 1009.93 711.67 1018.26 698.62C1029.95 680.32 1033.03 655.45 1026.72 630.38C1015.56 586.04 978.21 555.32 943.49 561.91Z" fill="white"/>
<path d="M970.22 726.43C931.64 726.43 896.98 690.01 892.52 644.32C890.09 619.46 897.05 595.73 911.6 579.23C923.18 566.1 938.82 558.61 955.62 558.14C994.93 557.04 1030.51 593.87 1035.03 640.23C1037.46 665.1 1030.5 688.82 1015.95 705.32C1004.37 718.45 988.729 725.94 971.929 726.41C971.359 726.43 970.79 726.43 970.22 726.43ZM957.33 559.7C956.77 559.7 956.22 559.7 955.66 559.72C939.3 560.18 924.07 567.48 912.78 580.28C898.52 596.45 891.71 619.73 894.09 644.16C898.47 689.04 932.419 724.83 970.209 724.84C970.769 724.84 971.32 724.84 971.88 724.82C988.24 724.36 1003.47 717.06 1014.76 704.27C1029.02 688.1 1035.83 664.82 1033.45 640.39C1029.07 595.51 995.12 559.71 957.33 559.71V559.7Z" fill="white"/>
<path d="M966.63 727.15C963.85 727.15 961.05 726.98 958.24 726.65C915.93 721.59 883.97 679.65 886.99 633.14C888.53 609.5 899.12 587.88 916.04 573.81C931.15 561.25 950.07 555.6 969.3 557.89C1011.61 562.95 1043.57 604.89 1040.55 651.4C1039.01 675.04 1028.42 696.66 1011.5 710.73C998.59 721.46 982.91 727.15 966.62 727.15H966.63ZM960.93 558.99C945.01 558.99 929.69 564.55 917.07 575.04C900.48 588.83 890.1 610.04 888.59 633.25C885.62 678.92 916.95 720.12 958.44 725.07C977.23 727.32 995.72 721.79 1010.5 709.51C1027.09 695.72 1037.47 674.51 1038.98 651.3C1041.95 605.63 1010.62 564.43 969.13 559.48C966.39 559.15 963.65 558.99 960.93 558.99Z" fill="white"/>
<path d="M964.26 727.42C957.35 727.42 950.39 726.54 943.52 724.74C898.97 713.13 871.81 666.69 882.97 621.22C888.44 598.92 902.15 580.27 921.57 568.7C940.52 557.4 962.71 554.24 984.04 559.8C1028.59 571.41 1055.75 617.85 1044.59 663.32C1039.12 685.62 1025.41 704.27 1005.99 715.84C993.14 723.5 978.81 727.42 964.27 727.42H964.26ZM963.29 558.71C949.03 558.71 934.98 562.55 922.38 570.06C903.33 581.42 889.88 599.72 884.51 621.6C873.55 666.23 900.2 711.81 943.92 723.2C964.84 728.65 986.59 725.55 1005.17 714.47C1024.22 703.11 1037.67 684.81 1043.04 662.93C1054 618.3 1027.35 572.72 983.64 561.33C976.9 559.57 970.08 558.71 963.3 558.71H963.29Z" fill="white"/>
<path d="M963.42 727.4C951.59 727.4 939.59 725.21 928.06 720.57C905.22 711.39 887.83 694.28 879.09 672.39C870.83 651.72 871.4 629.14 880.69 608.82C900.4 565.67 953.7 545.55 999.51 563.97C1022.35 573.15 1039.74 590.26 1048.48 612.15C1056.74 632.82 1056.17 655.4 1046.88 675.72C1032.13 708.01 998.57 727.4 963.42 727.4ZM964.12 558.73C929.57 558.73 896.61 577.77 882.12 609.48C873.02 629.41 872.46 651.54 880.55 671.8C889.13 693.28 906.21 710.07 928.64 719.09C973.67 737.2 1026.06 717.44 1045.42 675.06C1054.52 655.13 1055.08 633 1046.99 612.74C1038.41 591.26 1021.33 574.47 998.9 565.45C987.56 560.89 975.74 558.73 964.12 558.73Z" fill="white"/>
<path d="M965.22 727.47C947.1 727.47 928.69 723.13 912.17 714.03C888.99 701.27 872.69 680.58 867.44 657.28C862.66 636.05 867.24 614.36 880.32 596.2C908.79 556.7 969.38 545.18 1015.37 570.51C1038.55 583.27 1054.85 603.96 1060.09 627.26C1064.87 648.49 1060.29 670.18 1047.21 688.34C1028.96 713.65 997.53 727.48 965.2 727.48L965.22 727.47ZM962.31 558.65C930.48 558.65 899.56 572.24 881.62 597.14C868.8 614.92 864.32 636.16 869 656.94C874.15 679.8 890.16 700.1 912.94 712.65C958.25 737.61 1017.92 726.29 1045.94 687.42C1058.76 669.64 1063.24 648.4 1058.56 627.62C1053.42 604.76 1037.4 584.46 1014.62 571.91C998.33 562.94 980.18 558.65 962.31 558.65Z" fill="white"/>
<path d="M970.03 728.04C944.18 728.04 917.719 720.44 896.239 705.09C873.369 688.74 859.37 665.59 857.85 641.58C856.48 620.02 865.09 599.46 882.1 583.7C919.35 549.17 986.29 547.27 1031.32 579.46C1054.19 595.81 1068.19 618.96 1069.71 642.97C1071.08 664.53 1062.47 685.09 1045.46 700.85C1025.98 718.91 998.37 728.04 970.03 728.04ZM957.509 558.07C929.569 558.07 902.369 567.07 883.179 584.86C866.529 600.3 858.089 620.4 859.429 641.48C860.929 665.02 874.68 687.73 897.16 703.8C941.61 735.57 1007.65 733.72 1044.37 699.68C1061.02 684.24 1069.46 664.14 1068.12 643.06C1066.62 619.52 1052.87 596.81 1030.39 580.74C1009.17 565.57 983.029 558.07 957.509 558.07Z" fill="white"/>
<path d="M977.8 729.56C942.89 729.56 906.46 717.15 880.65 693.77C859.09 674.24 847.98 649.41 850.17 625.65C852.18 603.86 864.94 584.67 886.11 571.62C931.93 543.37 1004.05 551.96 1046.89 590.77C1068.45 610.3 1079.56 635.13 1077.37 658.89C1075.37 680.68 1062.6 699.87 1041.43 712.92C1023.21 724.15 1000.83 729.56 977.79 729.56H977.8ZM949.77 556.55C927.02 556.55 904.93 561.89 886.95 572.97C866.22 585.75 853.72 604.51 851.76 625.79C849.62 649.05 860.54 673.4 881.73 692.59C907.25 715.71 943.28 727.99 977.78 727.99C1000.53 727.99 1022.62 722.65 1040.6 711.57C1061.33 698.79 1073.83 680.03 1075.79 658.75C1077.93 635.49 1067.01 611.14 1045.82 591.95C1020.3 568.83 984.27 556.55 949.76 556.55H949.77Z" fill="white"/>
<path d="M987.82 732.44C942.87 732.44 894.61 713.04 865.86 680.16C846.25 657.74 838.59 632.7 844.3 609.64C849.74 587.68 866.84 570.16 892.46 560.33C946.41 539.61 1022.32 559.38 1061.69 604.38C1081.3 626.8 1088.96 651.84 1083.25 674.9C1077.81 696.86 1060.71 714.38 1035.09 724.21C1020.55 729.79 1004.41 732.44 987.82 732.44ZM939.78 553.68C923.37 553.68 907.41 556.29 893.03 561.82C867.91 571.46 851.16 588.59 845.85 610.03C840.27 632.57 847.8 657.1 867.06 679.12C906.02 723.66 981.15 743.23 1034.52 722.73C1059.64 713.09 1076.4 695.96 1081.71 674.52C1087.29 651.98 1079.76 627.45 1060.5 605.43C1032.04 572.89 984.27 553.68 939.79 553.68H939.78Z" fill="white"/>
<path d="M998.96 736.92C943.36 736.92 881.9 707.69 852.29 664.4C835.7 640.14 831.39 614.98 840.17 593.57C849.21 571.52 870.87 556.11 901.18 550.18C962.57 538.17 1040.67 569.56 1075.27 620.14C1091.86 644.4 1096.17 669.56 1087.39 690.97C1078.35 713.02 1056.69 728.43 1026.38 734.36C1017.53 736.09 1008.33 736.92 998.96 736.92ZM928.65 549.2C919.37 549.2 910.26 550.02 901.48 551.74C871.71 557.56 850.46 572.63 841.63 594.17C833.06 615.07 837.31 639.7 853.59 663.5C887.86 713.61 965.23 744.7 1026.06 732.8C1055.83 726.98 1077.08 711.91 1085.91 690.37C1094.48 669.47 1090.22 644.84 1073.95 621.04C1044.62 578.16 983.72 549.2 928.65 549.2Z" fill="white"/>
<path d="M1010.2 743.11C943.5 743.11 868.21 700.69 840.4 646.71C827.35 621.4 826.44 596.77 837.83 577.37C850.53 555.74 877.65 542.67 912.24 541.52C980.14 539.28 1058.63 582.47 1087.16 637.84C1100.21 663.15 1101.12 687.78 1089.73 707.18C1077.03 728.81 1049.91 741.88 1015.32 743.03C1013.62 743.09 1011.91 743.11 1010.2 743.11ZM917.37 543.02C915.67 543.02 913.98 543.05 912.29 543.1C878.26 544.23 851.62 557.01 839.2 578.16C828.1 597.07 829.02 621.15 841.81 645.97C870.09 700.84 947.91 743.68 1015.26 741.42C1049.29 740.29 1075.93 727.51 1088.35 706.36C1099.45 687.45 1098.52 663.36 1085.74 638.55C1058.17 585.06 983.52 543.01 917.37 543.01V543.02Z" fill="white"/>
<path d="M1020.37 750.93C1014.45 750.93 1008.31 750.57 1001.99 749.85C928.72 741.45 851.85 686.51 830.64 627.37C821.45 601.76 823.89 578.2 837.49 561.04C854.31 539.81 886.41 530.21 925.57 534.7C998.84 543.1 1075.71 598.04 1096.92 657.18C1106.11 682.79 1103.67 706.35 1090.07 723.51C1075.96 741.31 1051.11 750.93 1020.38 750.93H1020.37ZM907.16 535.2C876.92 535.2 852.53 544.61 838.73 562.02C825.48 578.74 823.14 601.75 832.13 626.83C853.16 685.46 929.44 739.93 1002.17 748.26C1040.76 752.69 1072.34 743.3 1088.82 722.51C1102.07 705.8 1104.41 682.78 1095.42 657.7C1074.39 599.07 998.11 544.6 925.38 536.27C919.11 535.55 913.03 535.2 907.16 535.2Z" fill="white"/>
<path d="M1028.4 760.16C1015.43 760.16 1001.35 758.29 986.54 754.51C909.33 734.76 836.16 668.47 823.44 606.74C818.16 581.12 823.69 559.65 839.44 544.63C860.76 524.3 897.78 518.98 941.01 530.04C1018.22 549.79 1091.39 616.08 1104.11 677.81C1109.39 703.43 1103.86 724.9 1088.11 739.92C1074.1 753.29 1053.29 760.16 1028.4 760.16ZM899.13 525.97C874.66 525.97 854.25 532.7 840.54 545.78C825.22 560.4 819.84 581.36 825 606.42C837.61 667.61 910.25 733.35 986.93 752.97C1029.62 763.89 1066.1 758.72 1087.01 738.77C1102.33 724.15 1107.71 703.19 1102.55 678.13C1089.94 616.94 1017.3 551.2 940.62 531.58C925.93 527.82 911.97 525.97 899.14 525.97H899.13Z" fill="white"/>
<path d="M1033.32 770.21C1013.82 770.21 991.869 765.71 969.179 756.69C889.659 725.11 822.39 648.18 819.24 585.22C818 560.51 826.6 540.83 844.1 528.3C869.89 509.84 912.61 509.67 958.39 527.85C1037.91 559.43 1105.18 636.36 1108.33 699.32C1109.57 724.03 1100.97 743.71 1083.47 756.24C1070.47 765.55 1053.16 770.21 1033.33 770.21H1033.32ZM894.219 515.91C874.729 515.91 857.75 520.47 845.01 529.59C827.97 541.79 819.61 561 820.82 585.14C823.95 647.54 890.76 723.84 969.76 755.21C1015.03 773.19 1057.19 773.09 1082.53 754.95C1099.57 742.75 1107.93 723.54 1106.72 699.4C1103.59 637 1036.78 560.7 957.78 529.32C935.26 520.38 913.509 515.9 894.209 515.9L894.219 515.91Z" fill="white"/>
<path d="M1035.64 781C1010.02 781 980.259 772.55 950.169 756.14C870.169 712.51 811.04 626 818.36 563.3C821.09 539.9 832.69 522.28 851.89 512.34C882.74 496.37 929.65 502.37 977.36 528.4C1057.36 572.03 1116.49 658.54 1109.17 721.24C1106.44 744.64 1094.84 762.26 1075.64 772.2C1064.24 778.1 1050.65 781 1035.64 781ZM891.919 505.12C877.159 505.12 863.82 507.96 852.63 513.75C833.92 523.43 822.62 540.63 819.95 563.48C812.7 625.59 871.46 711.39 950.94 754.74C998.18 780.51 1044.53 786.51 1074.92 770.78C1093.63 761.1 1104.93 743.9 1107.6 721.05C1114.85 658.94 1056.09 573.14 976.61 529.79C946.76 513.51 917.249 505.12 891.919 505.12Z" fill="white"/>
<path d="M1034.88 791.9C1003.27 791.9 965.97 778.22 929.88 752.64C851.41 697.02 802.65 602.31 821.18 541.52C827.83 519.71 842.44 504.39 863.43 497.22C899.46 484.91 949.65 497.89 997.68 531.93C1076.15 587.55 1124.91 682.26 1106.38 743.05C1099.73 764.86 1085.12 780.18 1064.13 787.35C1055.17 790.41 1045.34 791.91 1034.89 791.91L1034.88 791.9ZM892.7 494.23C882.41 494.23 872.75 495.7 863.94 498.71C843.45 505.71 829.19 520.67 822.7 541.97C804.36 602.16 852.85 696.08 930.8 751.34C966.62 776.73 1003.6 790.31 1034.85 790.32C1045.14 790.32 1054.8 788.85 1063.61 785.84C1084.1 778.84 1098.36 763.88 1104.85 742.58C1123.2 682.39 1074.7 588.47 996.75 533.22C960.93 507.83 923.95 494.24 892.69 494.24L892.7 494.23Z" fill="white"/>
<path d="M1031.41 802.45C993.54 802.45 948.95 782.18 908.69 746C833.9 678.78 797.65 577.59 827.89 520.42C838.49 500.39 856.24 487.64 879.22 483.55C920.21 476.26 972.41 496.82 1018.85 538.56C1093.64 605.78 1129.89 706.97 1099.65 764.14C1089.05 784.17 1071.3 796.92 1048.32 801.01C1042.87 801.98 1037.21 802.46 1031.4 802.46L1031.41 802.45ZM896.17 483.68C890.45 483.68 884.88 484.15 879.51 485.11C857.02 489.11 839.66 501.58 829.3 521.16C799.38 577.72 835.47 678.05 909.75 744.81C955.83 786.22 1007.53 806.64 1048.04 799.43C1070.53 795.43 1087.89 782.96 1098.25 763.38C1128.17 706.82 1092.08 606.49 1017.8 539.73C977.83 503.81 933.63 483.68 896.17 483.68Z" fill="white"/>
<path d="M1025.71 812.29C980.91 812.29 929.26 783.95 887.08 736.12C818.2 658.02 796.5 552.37 838.7 500.63C853.43 482.57 874.57 472.76 899.82 472.27C945.05 471.43 997.67 499.86 1040.48 548.42C1109.36 626.52 1131.06 732.16 1088.86 783.91C1074.13 801.97 1052.99 811.78 1027.74 812.27C1027.07 812.28 1026.39 812.29 1025.71 812.29ZM901.85 473.84C901.18 473.84 900.51 473.84 899.85 473.86C875.08 474.34 854.36 483.94 839.93 501.63C798.2 552.8 819.88 657.52 888.27 735.06C930.15 782.55 981.36 810.69 1025.71 810.69C1026.38 810.69 1027.05 810.69 1027.71 810.67C1052.48 810.19 1073.2 800.59 1087.63 782.9C1129.36 731.73 1107.68 627.01 1039.29 549.47C997.41 501.98 946.2 473.84 901.85 473.84Z" fill="white"/>
<path d="M1017.73 821.1C1012.63 821.1 1007.41 820.73 1002.08 819.98C953.83 813.22 902.79 776.96 865.55 722.98C804.88 635.05 799.54 527.29 853.66 482.77C872.88 466.95 897.72 460.65 925.48 464.54C973.73 471.3 1024.77 507.56 1062.01 561.54C1122.68 649.47 1128.02 757.23 1073.9 801.75C1058.37 814.53 1039.17 821.09 1017.73 821.09V821.1ZM909.83 465.03C888.75 465.03 869.9 471.47 854.66 484.01C801.17 528.01 806.64 634.81 866.85 722.09C903.84 775.7 954.48 811.71 1002.3 818.41C1029.61 822.24 1054.02 816.05 1072.89 800.53C1126.38 756.53 1120.91 649.72 1060.7 562.45C1023.71 508.84 973.07 472.83 925.25 466.13C920 465.39 914.85 465.03 909.83 465.03Z" fill="white"/>
<path d="M1008.03 828.59C996.25 828.59 983.99 826.68 971.48 822.84C922.08 807.7 874.67 764.26 844.66 706.65C794.47 610.29 807.06 503 872.73 467.5C896.94 454.41 925.76 452.4 956.07 461.69C1005.47 476.83 1052.88 520.27 1082.89 577.88C1133.08 674.24 1120.49 781.53 1054.82 817.03C1040.6 824.72 1024.79 828.58 1008.03 828.58V828.59ZM919.53 457.54C903.02 457.54 887.47 461.34 873.49 468.9C808.58 503.99 796.28 610.32 846.08 705.91C875.9 763.15 922.95 806.3 971.95 821.32C1001.84 830.49 1030.24 828.52 1054.07 815.63C1118.98 780.54 1131.28 674.21 1081.48 578.62C1051.66 521.38 1004.61 478.23 955.61 463.21C943.26 459.42 931.16 457.54 919.53 457.54Z" fill="white"/>
<path d="M997.429 834.49C929.349 834.49 857.039 775.22 825.019 687.24C814.159 657.4 808.709 625.99 809.249 596.4C809.769 567.74 815.879 540.65 826.919 518.06C842.229 486.7 866.05 465.03 895.8 455.4C972.299 430.62 1065.04 494.28 1102.53 597.3C1113.39 627.14 1118.84 658.55 1118.3 688.14C1117.78 716.8 1111.67 743.89 1100.63 766.48C1085.32 797.84 1061.5 819.51 1031.75 829.14C1020.58 832.76 1009.06 834.49 997.429 834.49ZM930.16 451.64C918.67 451.64 907.309 453.35 896.289 456.92C866.959 466.42 843.47 487.8 828.35 518.77C805.77 565.02 805.079 627.8 826.519 686.71C863.719 788.93 955.579 852.14 1031.27 827.63C1060.6 818.13 1084.09 796.75 1099.21 765.79C1121.79 719.54 1122.48 656.76 1101.04 597.85C1069.25 510.51 997.569 451.64 930.169 451.64H930.16Z" fill="white"/>
<path d="M986.51 838.8C906.36 838.8 828.35 764.94 807.24 665C794.57 605.03 804.43 546.1 834.28 503.33C856.36 471.7 886.9 452.25 922.59 447.08C1008.87 434.58 1097.58 511.96 1120.31 619.56C1132.98 679.53 1123.12 738.46 1093.27 781.23C1071.19 812.86 1040.65 832.31 1004.96 837.48C998.82 838.37 992.65 838.8 986.51 838.8ZM941.06 447.33C934.98 447.33 928.9 447.76 922.82 448.64C887.57 453.75 857.4 472.97 835.58 504.23C805.98 546.64 796.21 605.12 808.79 664.66C831.35 771.46 919.25 848.28 1004.72 835.89C1039.97 830.78 1070.14 811.56 1091.96 780.3C1121.56 737.89 1131.33 679.41 1118.75 619.87C1097.79 520.67 1020.45 447.33 941.05 447.33H941.06Z" fill="white"/>
<path d="M976.6 841.52C976 841.52 975.39 841.52 974.79 841.51C880.06 840.35 798.03 750.06 791.92 640.22C788.69 582.15 807.42 527.35 843.3 489.88C872.72 459.16 911.64 442.52 952.75 443.02C1047.48 444.18 1129.51 534.47 1135.62 644.31C1138.85 702.38 1120.12 757.18 1084.24 794.64C1055.25 824.91 1017.09 841.51 976.6 841.51V841.52ZM950.94 444.61C910.89 444.61 873.14 461.04 844.45 490.99C808.87 528.14 790.3 582.5 793.51 640.14C799.57 749.15 880.9 838.78 974.81 839.92C975.41 839.92 976 839.93 976.6 839.93C1016.65 839.93 1054.4 823.5 1083.09 793.55C1118.67 756.4 1137.24 702.04 1134.03 644.4C1127.97 535.38 1046.64 445.76 952.73 444.62C952.13 444.62 951.53 444.61 950.94 444.61Z" fill="white"/>
<path d="M968.73 842.9C959.78 842.9 950.76 842.2 941.74 840.78C840.26 824.82 767.57 722.8 779.7 613.35C782.8 585.33 791.11 559.08 804.38 535.33C817.21 512.38 834.01 492.87 854.34 477.35C892.34 448.33 939.03 436.4 985.81 443.75C1087.28 459.71 1159.98 561.73 1147.85 671.18C1144.75 699.2 1136.44 725.45 1123.17 749.2C1110.34 772.15 1093.54 791.66 1073.21 807.18C1042.54 830.6 1006.2 842.9 968.73 842.9ZM941.99 839.21C988.33 846.5 1034.59 834.68 1072.25 805.92C1113.26 774.6 1140.24 725.42 1146.27 671C1158.3 562.39 1086.21 461.15 985.56 445.32C939.21 438.03 892.96 449.86 855.3 478.61C814.29 509.93 787.31 559.11 781.28 613.53C769.25 722.14 841.34 823.38 941.99 839.21Z" fill="white"/>
<path d="M964.04 843.36C944.77 843.36 925.39 840.56 906.4 834.9C800.18 803.27 739.51 691.12 771.15 584.9C802.78 478.69 914.93 418.01 1021.15 449.64C1072.6 464.96 1115.01 499.41 1140.56 546.63C1166.11 593.85 1171.74 648.19 1156.41 699.64C1141.09 751.09 1106.64 793.5 1059.42 819.05C1029.63 835.17 997 843.36 964.05 843.36H964.04ZM906.86 833.37C957.9 848.57 1011.82 842.99 1058.66 817.64C1105.51 792.3 1139.68 750.22 1154.88 699.18C1170.08 648.13 1164.5 594.22 1139.15 547.38C1113.81 500.54 1071.73 466.36 1020.69 451.16C915.31 419.78 804.05 479.97 772.67 585.35C757.47 636.4 763.05 690.31 788.4 737.15C813.74 783.99 855.81 818.17 906.86 833.37Z" fill="white"/>
</g>
<mask id="mask3_56_277" style="mask-type:luminance" maskUnits="userSpaceOnUse" x="482" y="191" width="829" height="925">
<path d="M819.06 579.22L826.73 547.8L839.71 535.15C844.34 530.64 849.81 525.82 855.96 523.84L874.93 518.37C878.49 517.06 882.27 516.42 886.06 516.48C886.62 516.48 908.34 515.61 908.9 515.68L941.29 523.05L998.38 546.77L1050.31 588.62C1052.31 590.39 1077.04 616.94 1078.34 619.27L1107.87 672.41L1104.25 752.7L1058.98 811.86L984.13 838.42L900.22 831.18L824.76 801.6L750.51 752.7L706.44 706.82L665.99 650.08L630.37 577.04L612.86 478.64V406.2L644.25 316.86L694.96 254.08L780.12 191.14L710.7 226.24L673.68 251.33L616.9 301.17L571.31 355.6L539.5 406.36L519.81 447.16L500.35 501.75L487.3 559.6L482.21 604.19L482.63 673.41L490.08 727.76L505.91 787.68L522.03 829.33L553.57 889.1L600.38 952.35L645.69 997.62L686.79 1029.73L757.76 1070.61L824.36 1095.9L886.5 1110.05L949.68 1115.85L1026.87 1111.51L1104.05 1094.25L1158.32 1073.65L1195.98 1046.08L1247.89 998.59L1284.91 935L1300.61 893.95L1310.67 827.55L1307.05 764.77L1286.53 683.48L1263.99 635.72L1224.95 575.22L1185.51 531.35L1142.85 495.94C1142.85 495.94 1088.12 464.95 1086.51 464.15C1084.9 463.35 1030.57 443.22 1030.57 443.22L967.79 431.95L918.29 436.78L880.46 449.66L847.06 476.62L823.32 512.03L814.06 540.6L819.03 579.21L819.06 579.22Z" fill="white"/>
</mask>
<g mask="url(#mask3_56_277)">
<path d="M1310.71 191.12H840.62V1115.83H1310.71V191.12Z" fill="#E093AF"/>
<path d="M840.61 191.12H482.23V1115.83H840.61V191.12Z" fill="#E093AF"/>
</g>
<mask id="mask4_56_277" style="mask-type:luminance" maskUnits="userSpaceOnUse" x="615" y="162" width="829" height="925">
<path d="M1107.02 720.88L1092.53 746.23L1067.18 762.53L1022.51 767.96L978.44 758.91L912.64 725.1L842.62 661.11L817.87 605.57L821.49 525.28L866.76 466.12L941.61 439.56L1025.52 446.8L1100.98 476.38L1175.23 525.28L1219.3 571.16L1259.75 627.9L1295.37 700.94L1312.88 799.34V871.78L1281.49 961.12L1230.78 1023.9L1145.62 1086.84L1215.04 1051.74L1252.06 1026.65L1308.84 976.81L1354.43 922.38L1386.24 871.62L1405.93 830.82L1425.39 776.23L1438.44 718.38L1443.53 673.79L1443.11 604.57L1435.66 550.22L1419.83 490.3L1403.71 448.65L1372.17 388.88L1325.35 325.63L1280.04 280.36L1238.94 248.25L1167.97 207.37L1101.37 182.08L1039.23 167.93L976.05 162.13L898.86 166.47L821.68 183.73L767.41 204.33L729.75 231.9L677.83 279.39L640.81 342.98L625.11 384.03L615.05 450.43L618.67 513.21L639.19 594.5L661.73 642.26L700.77 702.76L740.21 746.63L782.87 782.04C782.87 782.04 837.6 813.03 839.21 813.83C840.82 814.63 895.15 834.76 895.15 834.76L957.93 846.03L1007.43 841.2L1045.26 828.32L1078.66 801.36L1102.4 765.95L1111.66 737.38L1107.03 720.88H1107.02Z" fill="white"/>
</mask>
<g mask="url(#mask4_56_277)">
<path d="M1085.13 162.15H615.04V1086.87H1085.13V162.15Z" fill="#E093AF"/>
<path d="M1443.51 162.15H1085.13V1086.87H1443.51V162.15Z" fill="#E093AF"/>
</g>
<g opacity="0.35">
<path d="M1033.65 768.92C1015.74 768.92 995.721 765.14 974.581 757.55C894.681 728.84 824.911 653.88 819.061 590.45C816.731 565.2 824.601 544.8 841.821 531.47C866.931 512.03 907.811 510.39 954.001 526.99C1033.9 555.7 1103.67 630.66 1109.52 694.09C1111.85 719.34 1103.98 739.74 1086.76 753.07C1073.14 763.61 1054.88 768.92 1033.65 768.92ZM894.93 517.21C874.06 517.21 856.141 522.41 842.801 532.73C826.031 545.71 818.371 565.62 820.651 590.31C826.451 653.18 895.741 727.54 975.121 756.06C1020.78 772.46 1061.12 770.92 1085.79 751.82C1102.56 738.84 1110.22 718.93 1107.94 694.24C1102.14 631.36 1032.85 557.01 953.471 528.49C932.501 520.96 912.65 517.21 894.93 517.21Z" fill="white"/>
<path d="M1036.6 779.51C1012.32 779.51 984.32 772.16 955.79 757.75C874.89 716.9 812.75 631.94 817.26 568.36C818.96 544.34 829.88 525.96 848.82 515.21C878.61 498.3 924.96 502.63 972.79 526.78C1053.69 567.63 1115.83 652.59 1111.32 716.17C1109.62 740.19 1098.7 758.57 1079.76 769.32C1067.74 776.14 1053.02 779.51 1036.6 779.51ZM891.99 506.61C875.85 506.61 861.4 509.91 849.61 516.6C831.15 527.07 820.52 545.01 818.85 568.48C814.38 631.47 876.14 715.75 956.51 756.33C1003.87 780.24 1049.65 784.58 1078.98 767.94C1097.44 757.47 1108.07 739.53 1109.74 716.06C1114.21 653.07 1052.45 568.79 972.08 528.21C943.76 513.91 916.01 506.61 892 506.61H891.99Z" fill="white"/>
<path d="M1036.63 790.54C1006.31 790.54 970.61 778.25 935.6 755.02C855.7 702.01 803.43 608.36 819.09 546.26C824.76 523.78 838.7 507.66 859.42 499.65C894.44 486.11 944.38 497.27 993 529.53C1072.9 582.54 1125.17 676.19 1109.51 738.29C1103.84 760.77 1089.9 776.89 1069.18 784.9C1059.38 788.69 1048.41 790.55 1036.64 790.55L1036.63 790.54ZM891.98 495.58C880.39 495.58 869.61 497.4 859.98 501.13C839.77 508.95 826.16 524.69 820.62 546.65C805.11 608.15 857.08 701.03 936.47 753.7C984.66 785.67 1034.05 796.78 1068.6 783.42C1088.81 775.6 1102.42 759.86 1107.96 737.9C1123.47 676.4 1071.5 583.52 992.11 530.85C957.35 507.79 921.97 495.59 891.98 495.59V495.58Z" fill="white"/>
<path d="M1033.8 801.33C997.27 801.33 954.15 782.76 914.38 749.16C837.61 684.3 797.42 583.61 824.8 524.7C834.44 503.97 851.51 490.37 874.17 485.37C914.31 476.52 966.65 495.21 1014.2 535.38C1090.97 600.24 1131.16 700.93 1103.78 759.84C1094.14 780.57 1077.07 794.17 1054.41 799.17C1047.84 800.62 1040.95 801.33 1033.8 801.33ZM826.25 525.36C799.15 583.66 839.15 683.51 915.41 747.94C954.89 781.29 997.64 799.74 1033.78 799.74C1040.82 799.74 1047.61 799.04 1054.07 797.61C1076.23 792.72 1092.92 779.43 1102.34 759.16C1129.44 700.86 1089.44 601.01 1013.18 536.58C966.01 496.73 914.17 478.16 874.52 486.91C852.36 491.8 835.67 505.09 826.25 525.36Z" fill="white"/>
<path d="M1028.59 811.5C985.27 811.5 934.96 785.19 892.6 740.06C821.2 663.98 795.19 558.22 834.6 504.3C848.35 485.5 868.76 474.76 893.64 473.23C938.33 470.49 991.53 497.13 1035.97 544.48C1107.37 620.56 1133.39 726.33 1093.97 780.24C1080.22 799.04 1059.81 809.78 1034.93 811.3C1032.84 811.43 1030.72 811.49 1028.59 811.49V811.5ZM900.01 474.63C897.9 474.63 895.82 474.69 893.75 474.82C869.36 476.31 849.35 486.83 835.9 505.24C796.91 558.57 822.87 663.42 893.77 738.98C935.82 783.79 985.71 809.91 1028.58 809.92C1030.69 809.92 1032.77 809.86 1034.84 809.73C1059.23 808.24 1079.24 797.72 1092.7 779.31C1131.69 725.98 1105.73 621.13 1034.83 545.57C992.78 500.76 942.89 474.63 900.02 474.63H900.01Z" fill="white"/>
<path d="M1021.15 820.72C1017.62 820.72 1014.03 820.54 1010.38 820.19C962.27 815.5 910.08 780.92 870.78 727.68C807.05 641.34 797.11 532.79 848.61 485.7C866.78 469.08 890.86 461.7 918.21 464.37C966.32 469.06 1018.51 503.64 1057.81 556.88C1121.54 643.22 1131.48 751.77 1079.98 798.86C1064.23 813.26 1044.06 820.72 1021.15 820.72ZM907.45 465.42C884.94 465.42 865.13 472.74 849.68 486.86C798.76 533.42 808.8 641.02 872.06 726.72C911.1 779.61 962.86 813.95 1010.53 818.6C1037.44 821.21 1061.07 813.99 1078.91 797.68C1129.83 751.12 1119.79 643.52 1056.53 557.82C1017.49 504.93 965.73 470.59 918.06 465.94C914.46 465.59 910.93 465.42 907.45 465.42Z" fill="white"/>
<path d="M1011.75 828.66C1001.75 828.66 991.37 827.28 980.75 824.5C930.94 811.48 881.86 769.43 849.46 712C795.71 616.74 803.491 507.95 866.801 469.49C889.871 455.47 917.901 452.2 947.861 460.03C997.671 473.05 1046.75 515.1 1079.15 572.53C1132.9 667.79 1125.12 776.58 1061.81 815.04C1046.92 824.09 1029.96 828.66 1011.76 828.66H1011.75ZM916.851 457.47C898.931 457.47 882.251 461.96 867.621 470.85C805.041 508.87 797.511 616.7 850.841 711.22C883.031 768.28 931.751 810.05 981.151 822.96C1010.68 830.67 1038.28 827.47 1060.98 813.68C1123.56 775.66 1131.09 667.83 1077.76 573.31C1045.57 516.25 996.86 474.48 947.45 461.57C936.96 458.83 926.721 457.47 916.851 457.47Z" fill="white"/>
<path d="M1001.24 835.05C935.27 835.05 863.84 778.73 829.21 693.21C805.06 633.55 803.23 569.18 824.33 521.01C838.14 489.47 860.52 467.12 889.04 456.37C963.51 428.3 1057.87 488.85 1099.37 591.35C1123.53 651.01 1125.35 715.38 1104.26 763.55C1090.45 795.09 1068.07 817.45 1039.55 828.2C1027.22 832.85 1014.34 835.07 1001.25 835.07L1001.24 835.05ZM927.39 451.08C914.47 451.08 901.77 453.27 889.6 457.85C861.49 468.45 839.42 490.51 825.78 521.64C804.85 569.42 806.68 633.33 830.68 692.6C865.06 777.51 935.87 833.45 1001.19 833.46C1014.11 833.46 1026.81 831.27 1038.98 826.69C1067.09 816.09 1089.16 794.03 1102.8 762.9C1123.73 715.12 1121.89 651.21 1097.9 591.94C1063.52 507.03 992.71 451.08 927.39 451.08Z" fill="white"/>
<path d="M990.15 839.84C912.69 839.84 835.33 769.34 810.69 671.45C795.37 610.62 802.9 550.19 831.33 505.68C851.73 473.74 880.71 453.41 915.16 446.87C999.84 430.8 1090.8 505.37 1117.91 613.08C1133.23 673.91 1125.7 734.34 1097.27 778.85C1076.87 810.79 1047.89 831.12 1013.44 837.66C1005.71 839.13 997.93 839.84 990.15 839.84ZM938.46 446.29C930.77 446.29 923.08 446.99 915.44 448.44C881.44 454.89 852.81 474.98 832.66 506.54C804.46 550.69 797.02 610.66 812.23 671.07C836.69 768.24 913.39 838.25 990.13 838.26C997.82 838.26 1005.51 837.56 1013.15 836.11C1047.15 829.66 1075.78 809.57 1095.93 778.01C1124.13 733.86 1131.57 673.89 1116.36 613.48C1091.9 516.31 1015.2 446.29 938.46 446.29Z" fill="white"/>
<path d="M979.75 843.01C887.77 843.01 805.13 756.09 794.49 647.08C788.7 587.75 805.28 531.16 839.98 491.82C867.55 460.56 904.77 442.72 944.76 441.61C1038.4 438.98 1123.3 526.86 1134.09 637.49C1139.88 696.82 1123.3 753.41 1088.6 792.75C1061.02 824.01 1023.81 841.85 983.82 842.96C982.46 843 981.1 843.02 979.74 843.02L979.75 843.01ZM944.79 442.39L944.81 443.18C905.26 444.29 868.45 461.93 841.18 492.86C806.77 531.87 790.33 588.03 796.08 646.92C806.64 755.13 888.57 841.42 979.75 841.42C981.09 841.42 982.44 841.4 983.78 841.36C1023.33 840.25 1060.14 822.61 1087.42 791.68C1121.83 752.67 1138.27 696.52 1132.52 637.62C1121.8 527.81 1037.58 440.54 944.82 443.18L944.8 442.39H944.79Z" fill="white"/>
<path d="M971.13 844.73C964.5 844.73 957.83 844.33 951.14 843.54C850.24 831.48 774.02 731.4 781.24 620.45C784.91 564.06 810.16 512.48 850.52 478.94C886.53 449.01 931.6 435.53 977.43 441.02C1078.34 453.08 1154.55 553.15 1147.33 664.11C1143.66 720.5 1118.41 772.08 1078.05 805.62C1047.29 831.18 1009.93 844.74 971.13 844.74V844.73ZM957.46 441.4C919.03 441.4 882.02 454.83 851.55 480.15C811.53 513.41 786.48 564.58 782.84 620.54C775.67 730.67 851.26 829.99 951.34 841.95C996.72 847.37 1041.37 834.03 1077.04 804.38C1117.06 771.12 1142.11 719.95 1145.75 663.99C1152.92 553.86 1077.33 454.54 977.25 442.58C970.63 441.79 964.02 441.4 957.46 441.4Z" fill="white"/>
<path d="M965.46 845.38C948.97 845.38 932.38 843.27 915.99 839C809.73 811.31 744.94 700.53 771.57 592.06C784.63 538.88 817.32 494.38 863.63 466.77C908.83 439.82 961.74 432.28 1012.6 445.54C1118.86 473.23 1183.65 584.01 1157.02 692.48C1143.96 745.66 1111.27 790.16 1064.96 817.77C1034.32 836.03 1000.14 845.38 965.46 845.38ZM963.13 440.75C928.73 440.75 894.83 450.02 864.44 468.14C818.5 495.53 786.06 539.67 773.11 592.44C746.69 700.07 810.96 809.99 916.39 837.47C966.84 850.62 1019.31 843.14 1064.14 816.41C1110.08 789.02 1142.52 744.88 1155.47 692.11C1181.89 584.48 1117.62 474.56 1012.19 447.08C995.94 442.84 979.47 440.75 963.12 440.75H963.13Z" fill="white"/>
<path d="M963.44 845.34C935.21 845.34 906.56 840.1 879.03 829.03C851.55 817.98 827.32 802.09 807.01 781.81C787.39 762.21 772.31 739.43 762.19 714.1C742.5 664.81 743.86 610.98 766 562.5C813.02 459.55 940.23 411.55 1049.56 455.51C1077.04 466.56 1101.27 482.45 1121.58 502.73C1141.2 522.33 1156.28 545.11 1166.4 570.44C1186.09 619.73 1184.73 673.57 1162.59 722.04C1127.41 799.07 1047.33 845.33 963.45 845.34H963.44ZM965.13 440.79C881.85 440.79 802.37 486.7 767.45 563.16C745.49 611.24 744.15 664.63 763.67 713.51C784.36 765.31 825.54 805.81 879.62 827.55C906.96 838.54 935.42 843.74 963.45 843.74C1046.73 843.74 1126.21 797.83 1161.13 721.37C1183.09 673.29 1184.43 619.9 1164.91 571.02C1144.22 519.22 1103.04 478.72 1048.96 456.98C1021.62 445.99 993.16 440.79 965.13 440.79Z" fill="white"/>
<path d="M967.69 845.65C923.35 845.65 879.67 834.67 841.05 813.41C812.81 797.86 789.1 777.86 770.57 753.97C752.67 730.88 740.47 705.33 734.33 678.03C722.94 627.43 733.85 575.72 765.05 532.44C797.99 486.75 849.67 455.21 910.59 443.64C971.49 432.07 1034.33 441.84 1087.53 471.14C1115.77 486.69 1139.48 506.69 1158.01 530.58C1175.91 553.67 1188.11 579.22 1194.25 606.52C1205.64 657.12 1194.73 708.83 1163.53 752.11C1130.59 797.8 1078.91 829.34 1017.99 840.91C1001.29 844.08 984.44 845.65 967.68 845.65H967.69ZM960.79 440.6C884.11 440.6 809.59 473.36 766.34 533.36C735.41 576.27 724.59 627.52 735.88 677.67C748.29 732.8 786.9 781.76 841.82 812.01C950.98 872.13 1094.73 844.84 1162.24 751.17C1193.17 708.26 1203.99 657.01 1192.7 606.86C1180.29 551.73 1141.68 502.77 1086.76 472.52C1047.52 450.91 1003.82 440.59 960.79 440.59V440.6Z" fill="white"/>
<path d="M979.18 846.99C915.02 846.99 852.76 827.63 802.96 792.03C775.11 772.12 752.96 748.5 737.11 721.8C721.79 695.99 713.12 668.65 711.34 640.53C708.08 589.16 728.61 540.17 769.15 502.59C812.26 462.63 873.09 439.57 940.43 437.68C1007.75 435.78 1073.52 455.25 1125.64 492.51C1153.49 512.42 1175.64 536.04 1191.49 562.74C1206.81 588.55 1215.48 615.89 1217.26 644.01C1220.52 695.38 1199.99 744.37 1159.45 781.95C1116.34 821.91 1055.51 844.97 988.17 846.86C985.17 846.94 982.17 846.99 979.18 846.99ZM949.28 439.23C881.98 439.23 816.47 460.9 770.23 503.76C730.04 541.01 709.69 589.55 712.92 640.44C716.53 697.23 749.68 752.01 803.88 790.75C854.95 827.25 917.87 845.32 979.31 845.32C1046.61 845.32 1112.12 823.65 1158.36 780.79C1198.55 743.54 1218.9 695 1215.67 644.11C1212.06 587.32 1178.91 532.54 1124.71 493.8C1073.64 457.3 1010.71 439.23 949.28 439.23Z" fill="white"/>
<path d="M998.15 850.66C984.02 850.66 969.65 849.81 955.15 848.08C882.58 839.43 815.3 809.91 765.69 764.97C739.42 741.18 719.77 714.63 707.28 686.07C695.2 658.46 690.38 630.34 692.94 602.5C697.72 550.59 728.14 504.87 778.61 473.76C831.67 441.05 900.86 427.8 973.44 436.46C1046.01 445.11 1113.29 474.63 1162.9 519.57C1189.17 543.36 1208.82 569.91 1221.31 598.47C1233.39 626.08 1238.21 654.2 1235.65 682.04C1230.87 733.95 1200.45 779.67 1149.98 810.78C1107.52 836.95 1054.73 850.67 998.15 850.67V850.66ZM930.69 435.58C875.92 435.58 822.74 448.43 779.44 475.12C729.41 505.96 699.25 551.25 694.52 602.65C689.35 658.79 715.68 717.53 766.75 763.8C868.67 856.12 1040.2 876.59 1149.14 809.43C1199.17 778.59 1229.33 733.3 1234.06 681.9C1239.23 625.76 1212.9 567.02 1161.83 520.76C1100.42 465.13 1013.72 435.59 930.69 435.59V435.58Z" fill="white"/>
<path d="M1021.66 857.56C988.45 857.56 953.98 853.09 919.51 844.12C843.09 824.22 775.89 784.55 730.28 732.41C706.69 705.44 690.31 676.84 681.58 647.39C673.14 618.91 672.21 590.95 678.82 564.28C691.78 511.96 732.56 470.23 793.65 446.78C856.15 422.78 932.66 420.53 1009.08 440.42C1085.5 460.32 1152.7 499.99 1198.31 552.13C1221.9 579.1 1238.28 607.7 1247.01 637.15C1255.45 665.63 1256.38 693.59 1249.77 720.26C1236.81 772.58 1196.03 814.31 1134.94 837.76C1100.63 850.93 1062.09 857.56 1021.66 857.56ZM906.71 428.69C867.22 428.69 828.83 434.98 794.22 448.27C733.63 471.53 693.2 512.87 680.37 564.67C666.9 619.09 685.05 678.29 731.48 731.37C825.22 838.52 1005.95 885.59 1134.37 836.28C1194.96 813.02 1235.39 771.68 1248.22 719.88C1261.69 665.47 1243.54 606.26 1197.11 553.18C1128.64 474.91 1013.73 428.69 906.72 428.69H906.71Z" fill="white"/>
<path d="M1048.1 868.24C994.321 868.24 937.18 856.83 881.94 834.63C803.3 803.03 737.911 753.34 697.821 694.71C658.241 636.84 647.951 576.87 668.861 525.87C679.321 500.35 696.991 478.44 721.381 460.77C746.601 442.5 777.891 429.61 814.381 422.48C885.531 408.56 968.031 418.3 1046.66 449.9C1125.3 481.5 1190.69 531.19 1230.78 589.82C1270.36 647.69 1280.65 707.66 1259.74 758.66C1249.28 784.18 1231.61 806.09 1207.22 823.76C1182 842.03 1150.71 854.92 1114.22 862.05C1093.05 866.19 1070.87 868.24 1048.1 868.24ZM880.011 417.94C857.691 417.94 835.78 419.92 814.68 424.04C742.91 438.08 691.641 474.46 670.331 526.47C649.641 576.96 659.871 636.39 699.141 693.81C769.681 796.95 916.141 866.58 1048.6 866.59C1070.92 866.59 1092.83 864.61 1113.93 860.49C1185.7 846.45 1236.97 810.07 1258.28 758.06C1278.97 707.57 1268.74 648.14 1229.47 590.72C1158.93 487.58 1012.47 417.94 880.011 417.94Z" fill="white"/>
<path d="M1075.47 883.01C1000.08 883.01 918.13 860.63 843.22 819.4C764.18 775.89 702.43 716.58 669.36 652.41C638.25 592.05 636.05 533.36 663.17 487.18C678.04 461.86 700.74 441.55 730.66 426.81C761.58 411.58 798.61 403.15 840.71 401.75C919.43 399.15 1006.32 421.66 1085.35 465.16C1164.39 508.67 1226.14 567.98 1259.21 632.15C1290.32 692.51 1292.52 751.19 1265.4 797.38C1250.53 822.7 1227.83 843.01 1197.91 857.75C1166.99 872.98 1129.96 881.41 1087.85 882.81C1083.74 882.95 1079.6 883.01 1075.45 883.01H1075.47ZM852.98 403.12C848.89 403.12 844.83 403.19 840.77 403.32C758.76 406.04 694.53 436.9 664.54 487.97C637.71 533.67 639.92 591.81 670.77 651.67C737.06 780.31 916.56 881.4 1075.6 881.41C1079.69 881.41 1083.75 881.34 1087.81 881.21C1169.82 878.49 1234.05 847.63 1264.04 796.56C1290.87 750.86 1288.66 692.72 1257.81 632.86C1191.52 504.22 1012.02 403.12 852.98 403.12Z" fill="white"/>
<path d="M1100.05 901.77C1085.89 901.77 1071.2 900.92 1056.07 899.18C971.12 889.45 881.7 853.62 804.26 798.29C726.8 742.95 670.6 674.71 646.01 606.15C624.11 545.09 629.88 488.97 662.26 448.12C702.37 397.52 779 374.65 872.51 385.36C957.46 395.09 1046.88 430.92 1124.32 486.25C1201.78 541.59 1257.98 609.83 1282.57 678.39C1304.47 739.45 1298.7 795.57 1266.32 836.42C1232.7 878.83 1173.42 901.77 1100.05 901.77ZM828.53 384.36C755.65 384.36 696.83 407.08 663.52 449.11C631.49 489.52 625.81 545.1 647.52 605.61C698.08 746.58 881.44 877.56 1056.26 897.59C1071.33 899.32 1085.97 900.17 1100.07 900.17C1172.95 900.17 1231.77 877.45 1265.08 835.42C1297.11 795.02 1302.79 739.43 1281.08 678.92C1230.52 537.95 1047.16 406.97 872.34 386.94C857.27 385.21 842.63 384.36 828.53 384.36Z" fill="white"/>
<path d="M1118.71 923.89C1087.66 923.89 1054.35 919.38 1019.17 910.38C929.64 887.48 839.751 838.11 766.031 771.36C692.291 704.58 643.551 628.39 628.811 556.82C622.481 526.1 622.721 497.62 629.521 472.16C636.101 447.53 648.661 426.24 666.851 408.89C691.251 385.62 725.68 370.04 766.43 363.84C809.11 357.34 857.211 360.82 909.411 374.17C998.941 397.07 1088.83 446.44 1162.55 513.19C1236.29 579.97 1285.02 656.16 1299.77 727.73C1306.1 758.45 1305.86 786.93 1299.06 812.39C1292.48 837.02 1279.92 858.31 1261.73 875.66C1237.33 898.93 1202.9 914.51 1162.15 920.71C1148.23 922.83 1133.73 923.89 1118.7 923.89H1118.71ZM809.271 362.22C750.281 362.22 701.06 378.46 667.95 410.03C630.9 445.36 617.911 496.01 630.371 556.49C660.681 703.63 835.271 861.69 1019.56 908.83C1122.33 935.12 1210.2 922.61 1260.63 874.5C1297.68 839.16 1310.67 788.52 1298.21 728.04C1267.9 580.9 1093.31 422.84 909.021 375.7C873.711 366.67 840.141 362.21 809.261 362.21L809.271 362.22Z" fill="white"/>
<path d="M1130.93 948.24C1083.64 948.24 1032.11 937.29 977.66 915.67C885.45 879.05 797.35 816.23 729.57 738.77C661.75 661.27 622.39 578.39 618.73 505.38C615.78 446.51 636.23 399.64 677.88 369.82C707.71 348.46 747.87 336.87 793.99 336.32C842.26 335.75 895.07 346.69 950.92 368.87C1043.13 405.49 1131.23 468.31 1199.01 545.77C1266.83 623.27 1306.19 706.15 1309.84 779.16C1312.79 838.03 1292.34 884.9 1250.69 914.72C1220.86 936.08 1180.7 947.67 1134.58 948.22C1133.36 948.23 1132.13 948.24 1130.91 948.24H1130.93ZM797.48 338.1C750.49 338.1 709.54 349.11 678.81 371.11C637.63 400.6 617.4 447 620.32 505.3C627.84 655.37 788.4 838.79 978.25 914.19C1032.38 935.69 1084.69 946.43 1131.11 946.44C1178.1 946.44 1219.05 935.43 1249.78 913.43C1290.96 883.94 1311.19 837.54 1308.27 779.24C1300.75 629.17 1140.19 445.75 950.34 370.35C896.21 348.85 843.9 338.1 797.48 338.1Z" fill="white"/>
<path d="M1136.66 973.9C1075.41 973.9 1004.21 953.68 932.21 914.41C839.46 863.82 755.55 787.99 695.96 700.89C636.33 613.73 608.16 525.7 616.65 453C623.16 397.26 650.76 355.3 696.48 331.64C770.16 293.51 882.27 307.9 996.37 370.14C1089.12 420.73 1173.03 496.56 1232.62 583.66C1292.25 670.82 1320.42 758.85 1311.93 831.55C1305.42 887.29 1277.82 929.25 1232.1 952.91C1204.91 966.98 1172.48 973.9 1136.65 973.9H1136.66ZM791.95 312.22C756.37 312.22 724.2 319.08 697.22 333.05C651.99 356.46 624.68 398 618.24 453.18C609.79 525.49 637.86 613.15 697.28 699.99C756.73 786.89 840.44 862.54 932.98 913.02C1004.74 952.16 1075.69 972.32 1136.65 972.33C1172.23 972.33 1204.4 965.47 1231.38 951.51C1276.6 928.1 1303.92 886.56 1310.36 831.38C1318.81 759.07 1290.74 671.41 1231.32 584.57C1171.87 497.67 1088.16 422.02 995.62 371.54C923.86 332.4 852.91 312.23 791.95 312.23V312.22Z" fill="white"/>
<path d="M1134.82 1000.03C1059.26 1000.03 970.01 967.28 883.64 906.06C792.67 841.58 715.49 753.56 666.33 658.21C617.13 562.78 601.86 471.41 623.34 400.93C639.17 348.97 673.97 312.48 723.97 295.4C810.06 265.99 930.05 297.05 1044.95 378.49C1135.92 442.97 1213.1 530.99 1262.26 626.34C1311.46 721.77 1326.73 813.14 1305.25 883.63C1289.42 935.59 1254.62 972.08 1204.62 989.16C1183.25 996.46 1159.78 1000.04 1134.82 1000.04V1000.03ZM793.8 286.1C769.01 286.1 745.71 289.65 724.49 296.9C674.99 313.81 640.54 349.94 624.87 401.39C603.51 471.48 618.74 562.43 667.75 657.48C716.8 752.61 793.8 840.43 884.57 904.76C999.06 985.9 1118.51 1016.89 1204.11 987.65C1253.61 970.74 1288.05 934.61 1303.73 883.16C1325.09 813.07 1309.86 722.12 1260.85 627.07C1211.8 531.94 1134.8 444.12 1044.03 379.79C957.93 318.76 869.01 286.11 793.8 286.11V286.1Z" fill="white"/>
<path d="M1127.07 1025.26C1089.88 1025.26 1049.29 1017.07 1007.6 1001C948.71 978.29 888.31 939.98 832.93 890.21C746.23 812.29 678.35 713.28 641.78 611.41C605.18 509.45 604.331 416.79 639.391 350.53C664.641 302.8 706.94 272.42 761.72 262.67C808.79 254.3 863.87 261.52 921.01 283.55C979.9 306.26 1040.3 344.57 1095.68 394.34C1182.38 472.26 1250.26 571.27 1286.83 673.14C1323.43 775.1 1324.28 867.76 1289.22 934.02C1263.97 981.75 1221.67 1012.13 1166.89 1021.88C1154.17 1024.14 1140.85 1025.27 1127.07 1025.27V1025.26ZM802.13 260.8C788.34 260.8 774.93 261.93 761.99 264.23C707.71 273.89 665.8 303.98 640.78 351.27C605.94 417.14 606.82 509.33 643.26 610.87C679.74 712.5 747.47 811.28 833.97 889.03C930.04 975.36 1036.33 1023.74 1126.45 1023.74C1140.24 1023.74 1153.65 1022.61 1166.59 1020.31C1220.87 1010.65 1262.78 980.56 1287.8 933.27C1322.64 867.4 1321.76 775.2 1285.32 673.67C1248.84 572.04 1181.11 473.25 1094.61 395.51C998.54 309.18 892.25 260.8 802.13 260.8Z" fill="white"/>
<path d="M1112.97 1048.93C1062.21 1048.93 1006.01 1033.27 950.08 1003.5C890.63 971.86 832.22 924.53 781.16 866.63C701.33 776.11 645.29 667.69 623.36 561.34C612.69 509.6 610.68 461.16 617.4 417.37C624.36 371.98 640.43 333.59 665.16 303.26C700.28 260.2 750.68 236.82 810.91 235.66C862.9 234.65 920.84 250.35 978.51 281.05C1037.96 312.69 1096.37 360.02 1147.43 417.92C1227.26 508.44 1283.3 616.86 1305.23 723.21C1315.9 774.95 1317.91 823.39 1311.19 867.18C1304.23 912.57 1288.16 950.96 1263.43 981.29C1228.31 1024.35 1177.91 1047.73 1117.68 1048.89C1116.12 1048.92 1114.55 1048.93 1112.98 1048.93H1112.97ZM815.77 237.2C814.16 237.2 812.55 237.22 810.95 237.25C751.2 238.4 701.21 261.58 666.4 304.27C617.8 363.87 603.07 455.05 624.92 561.03C646.8 667.11 702.71 775.27 782.36 865.59C883.02 979.73 1006.15 1047.36 1112.83 1047.36C1114.44 1047.36 1116.05 1047.34 1117.65 1047.31C1177.4 1046.16 1227.39 1022.98 1262.2 980.29C1310.8 920.69 1325.53 829.51 1303.68 723.53C1281.8 617.45 1225.89 509.29 1146.24 418.97C1045.59 304.83 922.45 237.2 815.77 237.2Z" fill="white"/>
<path d="M1093.69 1070.08C1081.52 1070.08 1069.05 1069.19 1056.31 1067.41C940.89 1051.24 818.75 964.45 729.61 835.24C659.3 733.34 617.57 617.48 612.11 509C609.45 456.22 615.54 408.06 630.2 365.84C645.39 322.1 669.17 286.69 700.88 260.61C746.74 222.88 806.02 207.85 872.28 217.14C987.71 233.31 1109.84 320.11 1198.98 449.31C1269.29 551.21 1311.02 667.07 1316.48 775.55C1319.14 828.33 1313.05 876.49 1298.39 918.71C1283.2 962.45 1259.42 997.86 1227.71 1023.94C1190.66 1054.42 1144.86 1070.09 1093.69 1070.09V1070.08ZM834.91 216.06C784.1 216.06 738.65 231.6 701.89 261.84C639.58 313.1 608.26 400.85 613.7 508.92C619.15 617.11 660.78 732.67 730.92 834.34C819.82 963.18 941.54 1049.72 1056.54 1065.83C1122.35 1075.06 1181.2 1060.14 1226.71 1022.7C1289.02 971.44 1320.34 883.69 1314.9 775.62C1309.45 667.43 1267.82 551.87 1197.68 450.2C1108.78 321.36 987.06 234.82 872.06 218.71C859.41 216.94 847 216.05 834.91 216.05V216.06Z" fill="white"/>
<path d="M1070.43 1088.03C1042.28 1088.03 1012.99 1083.47 983.1 1074.3C864.9 1038.06 751.44 934.09 679.6 796.17C621.44 684.52 596.34 563.54 608.93 455.53C615.05 402.98 629.78 356.35 652.7 316.95C676.45 276.12 707.99 244.88 746.46 224.08C804.27 192.83 873.09 188.04 945.49 210.24C1063.69 246.48 1177.15 350.45 1248.99 488.37C1307.15 600.02 1332.25 721 1319.66 829.01C1313.54 881.56 1298.81 928.19 1275.89 967.59C1252.14 1008.42 1220.6 1039.66 1182.13 1060.46C1148.19 1078.81 1110.45 1088.03 1070.43 1088.03ZM858.16 198.1C818.39 198.1 780.92 207.26 747.21 225.48C671.59 266.36 623.04 348.13 610.5 455.72C597.95 563.42 622.99 684.06 681 795.44C752.65 932.99 865.75 1036.67 983.55 1072.79C1055.53 1094.86 1123.93 1090.11 1181.36 1059.07C1256.98 1018.19 1305.53 936.42 1318.07 828.83C1330.62 721.13 1305.58 600.49 1247.57 489.11C1175.92 351.56 1062.82 247.88 945.02 211.76C915.28 202.64 886.15 198.1 858.16 198.1Z" fill="white"/>
<path d="M1044.76 1102.26C1025.17 1102.26 1005.22 1100.2 984.991 1096.07C937.29 1086.33 890.08 1065.57 844.67 1034.36C799.28 1003.16 757.981 963.1 721.911 915.28C684.571 865.78 654.511 810.08 632.551 749.75C606.551 678.31 593.491 603.11 594.791 532.28C596.051 463.71 610.661 398.9 637.051 344.86C673.641 269.93 730.541 218.16 801.591 195.14C846.401 180.63 894.181 178.38 943.601 188.47C991.301 198.21 1038.51 218.97 1083.92 250.18C1129.31 281.38 1170.61 321.44 1206.68 369.26C1244.02 418.76 1274.08 474.46 1296.04 534.79C1322.04 606.23 1335.1 681.43 1333.8 752.26C1332.54 820.83 1317.93 885.64 1291.54 939.68C1254.95 1014.61 1198.05 1066.38 1127 1089.4C1100.53 1097.97 1073.02 1102.27 1044.76 1102.27V1102.26ZM884.261 183.83C856.151 183.83 828.601 188.07 802.081 196.66C731.451 219.54 674.88 271.03 638.48 345.56C584.18 456.75 582.531 607.65 634.051 749.21C677.391 868.29 752.511 969.09 845.571 1033.06C938.561 1096.97 1038.33 1116.45 1126.5 1087.89C1197.13 1065.01 1253.7 1013.52 1290.1 938.99C1344.4 827.8 1346.05 676.9 1294.53 535.34C1251.19 416.26 1176.07 315.46 1083.01 251.49C1017.98 206.8 949.631 183.83 884.261 183.83Z" fill="white"/>
<path d="M1018.44 1112.55C982.26 1112.55 945.74 1106.26 909.39 1093.73C859.85 1076.65 812.7 1048.77 769.27 1010.85C725.85 972.94 688.32 926.91 657.73 874.03C626.06 819.29 603.26 759.58 589.94 696.55C574.61 623.97 572.89 552.54 584.84 484.24C596.23 419.11 620.36 358.74 654.62 309.66C680.23 272.97 711.03 242.83 746.16 220.07C782.52 196.52 822.73 181.42 865.68 175.2C916.24 167.88 967.89 173.13 1019.21 190.82C1068.75 207.9 1115.9 235.78 1159.33 273.7C1202.75 311.61 1240.28 357.65 1270.87 410.52C1302.54 465.26 1325.34 524.97 1338.66 588C1353.99 660.58 1355.71 732.01 1343.76 800.31C1332.37 865.44 1308.24 925.81 1273.98 974.89C1248.37 1011.58 1217.57 1041.72 1182.44 1064.48C1146.08 1088.03 1105.87 1103.13 1062.93 1109.35C1048.19 1111.48 1033.35 1112.55 1018.46 1112.55H1018.44ZM910.25 173.58C895.41 173.58 880.62 174.63 865.91 176.77C781.06 189.06 708.45 235.32 655.93 310.56C584.75 412.53 561.27 553.1 591.5 696.21C617.77 820.59 681.28 931.91 770.31 1009.64C859.29 1087.34 963.14 1122.19 1062.68 1107.77C1147.53 1095.48 1220.14 1049.22 1272.66 973.98C1343.84 872.01 1367.32 731.45 1337.09 588.33C1310.82 463.95 1247.31 352.63 1158.28 274.9C1082.44 208.69 995.82 173.59 910.25 173.59V173.58Z" fill="white"/>
<path d="M995.17 1119.05C993.69 1119.05 992.21 1119.05 990.73 1119.02C935.23 1118.34 880.691 1105.07 828.621 1079.59C778.341 1054.98 732.481 1020.06 692.311 975.82C652.141 931.58 619.681 880.24 595.841 823.23C571.151 764.21 556.82 701.65 553.24 637.31C545.52 498.34 590.32 367.22 676.17 277.57C710.66 241.56 750.331 213.59 794.091 194.45C839.391 174.64 887.781 164.89 937.851 165.51C993.351 166.19 1047.89 179.46 1099.96 204.94C1150.24 229.55 1196.1 264.47 1236.27 308.71C1276.44 352.95 1308.9 404.29 1332.74 461.3C1357.43 520.32 1371.76 582.88 1375.34 647.22C1383.06 786.19 1338.26 917.31 1252.41 1006.96C1217.92 1042.97 1178.25 1070.94 1134.49 1090.08C1090.53 1109.31 1043.68 1119.04 995.161 1119.04L995.17 1119.05ZM990.75 1117.43C992.18 1117.45 993.621 1117.46 995.061 1117.46C1091.42 1117.46 1182.26 1077.94 1251.27 1005.87C1336.81 916.54 1381.46 785.85 1373.76 647.32C1359.2 385.28 1163.64 169.86 937.841 167.1C936.411 167.08 934.97 167.07 933.53 167.07C837.17 167.07 746.331 206.59 677.321 278.66C591.781 367.99 547.131 498.68 554.831 637.21C569.391 899.25 764.95 1114.67 990.75 1117.43Z" fill="white"/>
<path d="M976.18 1122.36C954.76 1122.36 933.21 1120.68 911.63 1117.29C852.171 1107.94 795.89 1086.31 744.34 1053C694.56 1020.83 651.261 979.17 615.661 929.19C580.061 879.21 553.94 823.42 538.03 763.38C521.56 701.21 516.81 637.18 523.92 573.06C531.35 506.01 551.22 443.19 582.98 386.35C613.67 331.43 653.88 284.76 702.5 247.62C793.4 178.2 905.08 149.66 1016.97 167.26C1076.43 176.61 1132.71 198.24 1184.26 231.55C1234.04 263.72 1277.34 305.38 1312.94 355.36C1348.54 405.34 1374.66 461.13 1390.57 521.17C1407.04 583.34 1411.79 647.37 1404.68 711.49C1397.25 778.54 1377.38 841.36 1345.62 898.2C1314.93 953.12 1274.72 999.79 1226.1 1036.93C1152.74 1092.96 1065.81 1122.36 976.19 1122.36H976.18ZM911.87 1115.72C1023.33 1133.24 1134.58 1104.82 1225.13 1035.66C1323.73 960.35 1388.6 842.13 1403.09 711.31C1432.02 450.23 1258.69 206.87 1016.71 168.81C905.25 151.28 794 179.71 703.46 248.87C604.86 324.18 539.99 442.4 525.49 573.22C496.56 834.3 669.89 1077.66 911.87 1115.72Z" fill="white"/>
<path d="M964.27 1123.36C918.04 1123.36 872.06 1116.62 827.01 1103.2C764.78 1084.67 708.05 1054.5 658.38 1013.54C610.41 973.98 571.01 926.06 541.29 871.12C511.57 816.18 493.01 756.99 486.15 695.18C479.04 631.19 484.83 567.2 503.36 504.97C521.89 442.74 552.06 386.01 593.02 336.34C632.58 288.37 680.5 248.97 735.44 219.25C790.38 189.53 849.57 170.97 911.37 164.11C975.36 157 1039.35 162.79 1101.58 181.32C1163.81 199.85 1220.54 230.02 1270.21 270.98C1318.18 310.54 1357.58 358.46 1387.3 413.4C1417.02 468.34 1435.58 527.53 1442.44 589.34C1449.55 653.33 1443.76 717.32 1425.23 779.55C1406.7 841.78 1376.53 898.51 1335.57 948.18C1296.01 996.15 1248.09 1035.55 1193.15 1065.27C1138.21 1094.99 1079.02 1113.55 1017.22 1120.41C999.56 1122.37 981.89 1123.35 964.27 1123.35V1123.36ZM964.53 162.86C757.96 162.86 566.79 297.59 504.89 505.43C468.34 628.14 481.77 757.75 542.69 870.36C603.62 982.98 704.75 1065.12 827.47 1101.67C872.94 1115.21 918.88 1121.66 964.07 1121.66C1170.64 1121.66 1361.81 986.93 1423.71 779.09C1499.16 525.77 1354.45 258.3 1101.13 182.85C1055.66 169.31 1009.72 162.86 964.53 162.86Z" fill="white"/>
</g>
<mask id="mask5_56_277" style="mask-type:luminance" maskUnits="userSpaceOnUse" x="-142" y="-455" width="2022" height="2256">
<path d="M680.24 491.77L698.96 415.14L730.63 384.29C741.91 373.3 755.27 361.55 770.25 356.7L816.51 343.35C825.2 340.16 834.4 338.6 843.65 338.74C845.02 338.76 897.99 336.62 899.35 336.79L978.35 354.77L1117.59 412.63L1244.25 514.7C1249.13 519.01 1309.45 583.76 1312.61 589.45L1384.62 719.04L1375.79 914.85L1265.37 1059.13L1082.81 1123.91L878.17 1106.24L694.14 1034.1L513.05 914.85L405.58 802.96L306.94 664.57L220.08 486.43L177.38 246.45L190.54 74.72L253.94 -148.11L377.61 -301.22L585.31 -454.73L416.01 -369.11L325.71 -307.93L187.24 -186.37L76.0598 -53.62L-1.51025 70.18L-49.5203 169.68L-96.9802 302.83L-128.81 443.91L-141.22 552.65L-140.2 721.47L-122.03 854.02L-83.4202 1000.16L-44.1101 1101.75L32.8098 1247.53L146.98 1401.78L257.48 1512.19L357.71 1590.51L530.8 1690.21L693.24 1751.88L844.8 1786.39L998.88 1800.54L1187.14 1789.95L1375.38 1747.85L1507.73 1697.62L1599.57 1630.38L1726.18 1514.56L1816.48 1359.48L1854.76 1259.37L1879.3 1097.42L1870.47 944.31L1820.41 746.05L1765.45 629.58L1670.25 482.03L1574.06 375.05L1470.02 288.68C1470.02 288.68 1336.54 213.11 1332.61 211.14C1328.68 209.18 1196.18 160.1 1196.18 160.1L1043.07 132.62L922.35 144.4L830.09 175.81L748.63 241.57L690.72 327.94L668.15 397.63L680.26 491.8L680.24 491.77Z" fill="white"/>
</mask>
<g mask="url(#mask5_56_277)">
<path d="M1879.29 -454.74H732.82V1800.5H1879.29V-454.74Z" fill="#E093AF"/>
<path d="M732.82 -454.74H-141.22V1800.5H732.82V-454.74Z" fill="#E093AF"/>
</g>
<mask id="mask6_56_277" style="mask-type:luminance" maskUnits="userSpaceOnUse" x="172" y="-526" width="2022" height="2256">
<path d="M1381.55 812.68L1365.28 862.35L1340.66 898.75L1312.72 922.84L1276.2 938.86L1222.8 950.46L1167.25 952.11L1059.78 930.03L899.31 847.58L728.53 691.52L668.17 556.07L677 360.26L787.42 215.98L969.98 151.2L1174.62 168.87L1358.65 241.01L1539.74 360.26L1647.21 472.15L1745.85 610.54L1832.71 788.68L1875.41 1028.66V1205.33L1798.85 1423.22L1675.18 1576.33L1467.48 1729.84L1636.78 1644.22L1727.08 1583.04L1865.55 1461.48L1976.73 1328.73L2054.3 1204.93L2102.31 1105.43L2149.77 972.28L2181.6 831.2L2194 722.46L2192.98 553.64L2174.81 421.09L2136.2 274.95L2096.89 173.36L2019.97 27.5801L1905.8 -126.67L1795.3 -237.08L1695.07 -315.4L1521.98 -415.1L1359.54 -476.77L1207.98 -511.28L1053.9 -525.43L865.64 -514.84L677.4 -472.74L545.05 -422.51L453.21 -355.27L326.6 -239.45L236.3 -84.3699L198.02 15.7401L183.92 81.1201C180.69 100.22 171.2 188.51 172.7 207.82L182.31 330.8L232.37 529.06L287.33 645.53L382.54 793.08L478.73 900.06L582.77 986.43C582.77 986.43 716.25 1062.01 720.18 1063.97C724.11 1065.93 856.61 1115.01 856.61 1115.01L1009.72 1142.49L1130.44 1130.71L1222.7 1099.3L1304.16 1033.54L1362.07 947.17L1384.64 877.48L1381.54 812.66L1381.55 812.68Z" fill="white"/>
</mask>
<g mask="url(#mask6_56_277)">
<path d="M172.55 -525.4H171.2V1729.84H172.55V-525.4Z" fill="#E093AF"/>
<path d="M1319.56 -525.4H172.55V1729.84H1319.56V-525.4Z" fill="#E093AF"/>
<path d="M2194.01 -525.4H1319.56V1729.84H2194.01V-525.4Z" fill="#E093AF"/>
</g>
<g opacity="0.35">
<path d="M1181.85 953.08C1137.73 953.08 1089.74 943.87 1038.95 925.62C944.74 891.78 853.49 830.87 782.01 754.12C710.49 677.33 667.31 593.86 660.42 519.07C654.78 457.89 673.82 408.5 715.49 376.23C744.62 353.67 784.32 340.58 830.28 338.36C878.4 336.04 931.46 345.16 987.98 365.47C1082.19 399.31 1173.44 460.22 1244.92 536.97C1316.44 613.76 1359.62 697.23 1366.51 772.02C1372.15 833.2 1353.11 882.59 1311.44 914.85C1282.31 937.41 1242.61 950.5 1196.65 952.72C1191.77 952.95 1186.83 953.07 1181.85 953.07V953.08ZM662 518.93C676.17 672.67 845.51 854.44 1039.49 924.13C1151.23 964.27 1250 960.44 1310.47 913.61C1351.69 881.69 1370.52 832.79 1364.93 772.18C1350.76 618.44 1181.42 436.67 987.44 366.98C875.7 326.84 776.93 330.67 716.46 377.5C675.24 409.42 656.41 458.32 662 518.93Z" fill="white"/>
<path d="M1189.26 979.23C1180.69 979.23 1171.92 978.85 1162.98 978.09C1110.28 973.59 1051.59 955.64 993.25 926.18C897.88 878.02 810.28 803.59 746.59 716.6C682.87 629.56 650.7 540.35 656.02 465.39C660.15 407.2 686.56 362.69 732.41 336.68C767.37 316.84 812.86 308.66 863.95 313.02C916.65 317.52 975.34 335.47 1033.68 364.93C1129.05 413.09 1216.65 487.52 1280.34 574.51C1344.06 661.55 1376.23 750.76 1370.91 825.72C1366.78 883.91 1340.37 928.42 1294.52 954.43C1265.68 970.8 1229.67 979.23 1189.26 979.23ZM837.12 313.55C797.54 313.55 762.12 321.64 733.19 338.06C687.83 363.8 661.69 407.87 657.6 465.5C652.31 540.08 684.37 628.92 747.87 715.65C811.41 802.44 898.81 876.7 993.96 924.75C1063.17 959.7 1131.05 977.54 1189.79 977.55C1229.37 977.55 1264.79 969.46 1293.72 953.04C1339.08 927.3 1365.22 883.23 1369.31 825.6C1374.6 751.02 1342.54 662.18 1279.04 575.44C1215.5 488.65 1128.1 414.39 1032.95 366.34C963.74 331.39 895.86 313.54 837.12 313.54V313.55Z" fill="white"/>
<path d="M1189.86 1006.02C1116.15 1006.02 1029.33 976.11 944.11 919.57C849.91 857.08 768.53 769.87 714.95 673.99C661.33 578.04 641.97 484.88 660.43 411.67C674.16 357.21 707.93 318.17 758.09 298.77C843.16 265.87 964.55 293.06 1082.82 371.52C1177.02 434.01 1258.4 521.22 1311.98 617.1C1365.6 713.05 1384.96 806.21 1366.5 879.42C1352.77 933.88 1319 972.92 1268.84 992.32C1245.07 1001.51 1218.45 1006.01 1189.86 1006.02ZM837.09 286.66C808.69 286.66 782.27 291.13 758.66 300.26C709 319.47 675.57 358.13 661.97 412.06C643.61 484.88 662.92 577.63 716.34 673.22C769.8 768.88 851 855.9 944.99 918.25C1062.83 996.42 1183.68 1023.56 1268.27 990.84C1317.93 971.63 1351.36 932.97 1364.96 879.04C1383.32 806.22 1364.01 713.47 1310.59 617.88C1257.13 522.22 1175.93 435.2 1081.94 372.85C996.98 316.49 910.46 286.66 837.09 286.66Z" fill="white"/>
<path d="M1183.48 1032.26C1148.81 1032.26 1111.18 1025.4 1072.36 1011.86C1012.35 990.92 950.15 954.1 892.48 905.38C801.98 828.93 729.45 730.05 688.23 626.97C646.98 523.8 642.04 428.74 674.31 359.3C697.65 309.07 739.02 276.12 793.93 264.01C840.8 253.67 896.35 258.94 954.57 279.26C1014.58 300.2 1076.78 337.02 1134.45 385.74C1224.95 462.19 1297.49 561.07 1338.7 664.15C1379.95 767.32 1384.89 862.38 1352.62 931.82C1329.28 982.05 1287.91 1015 1233 1027.11C1217.39 1030.55 1200.8 1032.27 1183.48 1032.27V1032.26ZM843.99 260.35C826.74 260.35 810.11 262.06 794.27 265.56C739.86 277.56 698.88 310.21 675.75 359.97C643.66 429.01 648.62 523.62 689.71 626.38C730.83 729.22 803.21 827.88 893.51 904.17C990 985.68 1094.53 1030.76 1182.94 1030.77C1200.19 1030.77 1216.82 1029.06 1232.66 1025.56C1287.07 1013.56 1328.05 980.91 1351.18 931.15C1383.27 862.11 1378.31 767.5 1337.22 664.74C1296.1 561.9 1223.72 463.24 1133.42 386.95C1036.93 305.44 932.4 260.35 843.99 260.35Z" fill="white"/>
<path d="M1170.66 1057.12C1122.32 1057.12 1068.95 1043.37 1015.26 1016.97C954.12 986.9 893.33 940.67 839.46 883.27C755.31 793.6 694.25 684.59 667.53 576.32C654.53 523.65 650.38 474.01 655.19 428.79C660.17 381.92 674.61 341.87 698.11 309.73C731.43 264.16 780.92 238.13 841.25 234.43C893.43 231.23 952.35 244.96 1011.66 274.13C1072.8 304.2 1133.59 350.43 1187.46 407.83C1271.61 497.5 1332.67 606.51 1359.39 714.78C1372.39 767.45 1376.54 817.09 1371.73 862.31C1366.75 909.18 1352.31 949.23 1328.81 981.37C1295.49 1026.93 1246 1052.97 1185.67 1056.66C1180.73 1056.96 1175.72 1057.11 1170.66 1057.11V1057.12ZM856.67 235.56C851.52 235.56 846.41 235.71 841.35 236.02C781.51 239.68 732.42 265.5 699.39 310.67C653.21 373.83 642.44 468.03 669.07 575.94C695.72 683.94 756.65 792.7 840.62 882.18C943.39 991.69 1065.37 1055.54 1170.25 1055.54C1175.4 1055.54 1180.51 1055.39 1185.57 1055.08C1245.41 1051.42 1294.49 1025.6 1327.52 980.43C1373.7 917.27 1384.47 823.06 1357.84 715.16C1331.19 607.16 1270.26 498.4 1186.29 408.92C1083.52 299.41 961.54 235.56 856.66 235.56H856.67Z" fill="white"/>
<path d="M1152.11 1079.61C1143.54 1079.61 1134.83 1079.18 1125.96 1078.32C1069.72 1072.84 1009.22 1049.86 951.01 1011.86C890.98 972.67 834.03 917.79 786.31 853.15C711.21 751.41 664.19 634.18 653.92 523.06C648.92 469 652.91 419.31 665.76 375.39C679.08 329.87 701.4 292.57 732.09 264.51C776.17 224.21 834.56 206.32 900.96 212.79C957.2 218.27 1017.7 241.25 1075.91 279.25C1135.94 318.44 1192.89 373.32 1240.61 437.96C1315.71 539.7 1362.73 656.93 1373 768.05C1378 822.11 1374.01 871.8 1361.16 915.72C1347.84 961.24 1325.52 998.54 1294.83 1026.6C1256.64 1061.52 1207.69 1079.61 1152.11 1079.61ZM874.82 213.08C819.63 213.08 771.06 231.03 733.16 265.68C672.85 320.83 645.27 412.18 655.5 522.91C665.75 633.75 712.66 750.69 787.58 852.2C882.98 981.44 1009.53 1065.38 1126.11 1076.74C1134.92 1077.6 1143.59 1078.03 1152.1 1078.03C1207.29 1078.03 1255.86 1060.08 1293.76 1025.43C1354.07 970.28 1381.65 878.93 1371.42 768.2C1361.17 657.36 1314.26 540.42 1239.34 438.91C1143.94 309.67 1017.39 225.73 900.81 214.37C892 213.51 883.33 213.08 874.82 213.08Z" fill="white"/>
<path d="M1129.19 1098.99C1104.89 1098.99 1079.68 1095.64 1053.87 1088.89C932.68 1057.22 813.24 954.86 734.37 815.07C671.04 702.83 640.5 579.68 648.37 468.31C652.2 414.12 664.93 365.67 686.2 324.3C708.24 281.43 738.54 248.08 776.25 225.17C832.25 191.15 900.3 183.21 973.05 202.22C1094.24 233.89 1213.68 336.25 1292.55 476.04C1355.88 588.28 1386.42 711.43 1378.55 822.8C1374.72 876.99 1361.99 925.44 1340.72 966.82C1318.68 1009.69 1288.38 1043.04 1250.67 1065.95C1214.54 1087.9 1173.38 1098.99 1129.19 1098.99ZM776.66 225.84L777.07 226.52C702.93 271.56 657.79 357.47 649.95 468.42C642.1 579.48 672.57 702.32 735.75 814.29C814.41 953.71 933.48 1055.79 1054.26 1087.35C1079.93 1094.06 1105.01 1097.39 1129.17 1097.39C1173.08 1097.39 1213.95 1086.38 1249.83 1064.58C1323.97 1019.54 1369.11 933.63 1376.95 822.68C1384.8 711.62 1354.33 588.78 1291.15 476.81C1212.49 337.39 1093.42 235.31 972.64 203.75C900.32 184.85 832.69 192.72 777.06 226.52L776.65 225.84H776.66Z" fill="white"/>
<path d="M1103.36 1114.66C1087.27 1114.66 1070.9 1113.28 1054.28 1110.51C1005.95 1102.45 957.63 1083.06 910.65 1052.87C863.7 1022.69 820.45 983.24 782.13 935.62C742.45 886.32 709.81 830.38 685.09 769.35C655.54 696.37 639.09 618.99 637.53 545.58C636.01 474.5 648.33 406.96 673.17 350.27C706.73 273.64 761.09 219.33 830.36 193.22C874.72 176.5 922.6 172.25 972.67 180.6C1021 188.66 1069.32 208.05 1116.3 238.24C1163.25 268.42 1206.5 307.87 1244.82 355.49C1284.49 404.78 1317.14 460.73 1341.86 521.76C1371.41 594.74 1387.86 672.12 1389.42 745.53C1390.94 816.61 1378.62 884.15 1353.78 940.84C1320.22 1017.47 1265.86 1071.78 1196.6 1097.89C1166.96 1109.06 1135.75 1114.66 1103.37 1114.66H1103.36ZM924.05 177.97C891.89 177.97 860.6 183.51 830.9 194.7C762.04 220.65 708 274.66 674.61 350.9C623.45 467.71 627.91 623.91 686.56 768.74C735.34 889.21 815.23 989.64 911.51 1051.52C1007.71 1113.35 1108.76 1129.29 1196.03 1096.39C1264.89 1070.44 1318.93 1016.43 1352.32 940.19C1403.48 823.38 1399.02 667.18 1340.37 522.35C1291.59 401.88 1211.71 301.45 1115.42 239.57C1051.96 198.78 986.38 177.97 924.05 177.97Z" fill="white"/>
<path d="M1076.13 1126.31C1043.82 1126.31 1011.07 1121.26 978.24 1111.17C927.74 1095.65 879.17 1068.94 833.88 1031.78C788.61 994.63 748.89 948.9 715.84 895.87C681.63 840.97 656.09 780.61 639.94 716.45C621.12 641.7 616.35 567.63 625.76 496.32C634.74 428.3 656.99 364.92 690.12 313.05C714.2 275.34 743.58 243.98 777.45 219.84C812.49 194.86 851.64 178.13 893.81 170.13C944.26 160.56 996.36 163.86 1048.67 179.93C1099.17 195.45 1147.75 222.16 1193.03 259.32C1238.3 296.47 1278.02 342.2 1311.07 395.23C1345.28 450.13 1370.82 510.49 1386.97 574.65C1405.79 649.41 1410.56 723.47 1401.15 794.78C1392.17 862.8 1369.92 926.18 1336.79 978.05C1312.71 1015.75 1283.33 1047.11 1249.46 1071.26C1214.42 1096.24 1175.27 1112.97 1133.1 1120.97C1114.31 1124.53 1095.29 1126.31 1076.12 1126.31H1076.13ZM893.96 170.92L894.11 171.7C810.87 187.49 740.79 236.67 691.46 313.91C622.53 421.85 604.31 568.43 641.48 716.07C673.36 842.69 742.04 954.37 834.89 1030.56C910.14 1092.31 993.95 1124.73 1075.93 1124.73C1095.04 1124.73 1114.04 1122.97 1132.81 1119.41C1216.05 1103.62 1286.13 1054.44 1335.46 977.2C1404.39 869.26 1422.61 722.68 1385.44 575.04C1353.56 448.42 1284.88 336.74 1192.04 260.55C1099.25 184.41 993.45 152.85 894.12 171.7L893.97 170.92H893.96Z" fill="white"/>
<path d="M1050.99 1133.97C998.63 1133.97 946.72 1122.54 896.52 1099.93C844.95 1076.71 797.35 1042.73 755.06 998.95C712.77 955.17 677.91 903.8 651.45 846.25C624.05 786.67 606.9 723.05 600.47 657.15C586.38 512.77 626.72 375.06 711.14 279.35C744.04 242.05 782.3 212.59 824.84 191.8C868.88 170.28 916.33 158.66 965.86 157.28C1021.62 155.72 1076.98 167.12 1130.39 191.17C1181.96 214.39 1229.56 248.37 1271.85 292.15C1314.14 335.93 1348.99 387.3 1375.46 444.85C1402.86 504.43 1420.01 568.05 1426.44 633.95C1440.53 778.33 1400.19 916.04 1315.77 1011.75C1282.87 1049.05 1244.61 1078.51 1202.07 1099.3C1158.03 1120.82 1110.58 1132.44 1061.05 1133.82C1057.7 1133.91 1054.34 1133.96 1050.99 1133.96V1133.97ZM975.78 158.72C972.49 158.72 969.21 158.77 965.91 158.86C869.13 161.57 779.08 204.73 712.33 280.4C628.2 375.78 588.01 513.05 602.05 656.99C627.86 921.48 828.19 1132.37 1051.13 1132.37C1054.42 1132.37 1057.7 1132.32 1061 1132.23C1157.78 1129.52 1247.83 1086.36 1314.58 1010.69C1398.71 915.31 1438.9 778.04 1424.86 634.1C1399.05 369.61 1198.72 158.72 975.78 158.72Z" fill="white"/>
<path d="M1030.14 1138.17C1014.02 1138.17 997.8 1137.21 981.54 1135.27C921.42 1128.09 863.95 1108.17 810.71 1076.06C759.3 1045.06 713.98 1004.06 676.03 954.2C638.07 904.34 609.39 848.14 590.76 787.16C571.48 724.02 563.88 658.49 568.19 592.39C572.75 522.38 590.3 456.35 620.36 396.13C649.4 337.94 688.56 288.13 736.75 248.08C824.34 175.28 933.95 142.53 1045.39 155.84C1105.51 163.02 1162.98 182.94 1216.22 215.05C1267.63 246.05 1312.95 287.05 1350.9 336.91C1388.86 386.77 1417.54 442.97 1436.17 503.95C1455.45 567.09 1463.05 632.62 1458.74 698.72C1454.18 768.73 1436.63 834.76 1406.57 894.98C1377.53 953.17 1338.37 1002.98 1290.18 1043.03C1215.37 1105.2 1124.49 1138.17 1030.14 1138.17ZM996.79 154.52C902.8 154.52 812.28 187.36 737.76 249.29C639.91 330.62 578.68 455.71 569.78 592.48C552.26 861.66 737.06 1104.44 981.73 1133.67C1092.73 1146.93 1201.92 1114.3 1289.17 1041.79C1387.02 960.46 1448.25 835.37 1457.15 698.6C1474.67 429.42 1289.87 186.64 1045.2 157.41C1029.01 155.47 1012.85 154.52 996.79 154.52Z" fill="white"/>
<path d="M1015.79 1139.74C975.65 1139.74 935.55 1134.57 895.94 1124.24C832.64 1107.74 774.33 1079.08 722.65 1039.05C672.73 1000.39 631.06 952.8 598.79 897.62C566.52 842.44 545.28 782.44 535.65 719.28C525.69 653.89 528.68 587.98 544.54 523.35C560.58 458.01 588.79 397.97 628.4 344.91C666.66 293.66 713.81 251.13 768.54 218.5C822.06 186.59 880.19 165.76 941.29 156.58C1004.56 147.08 1068.37 150.53 1130.97 166.84C1194.27 183.34 1252.58 212 1304.26 252.03C1354.18 290.69 1395.85 338.28 1428.12 393.46C1460.39 448.64 1481.63 508.64 1491.26 571.8C1501.22 637.19 1498.23 703.1 1482.37 767.73C1466.33 833.07 1438.12 893.11 1398.51 946.17C1360.25 997.42 1313.1 1039.95 1258.37 1072.58C1204.85 1104.49 1146.72 1125.32 1085.62 1134.5C1062.39 1137.99 1039.08 1139.73 1015.79 1139.73V1139.74ZM1010.63 152.92C926.53 152.92 843.66 175.59 769.36 219.88C657.04 286.84 577.75 394.75 546.09 523.74C481.5 786.85 638.63 1055.54 896.35 1122.7C1019.68 1154.84 1147.97 1136.56 1257.57 1071.22C1369.89 1004.26 1449.18 896.35 1480.84 767.36C1545.43 504.25 1388.3 235.56 1130.58 168.4C1090.85 158.05 1050.59 152.92 1010.63 152.92Z" fill="white"/>
<path d="M1011.91 1139.79C1011.3 1139.79 1010.69 1139.79 1010.08 1139.79C939.77 1139.56 871.09 1126.17 805.95 1099.97C739.08 1073.08 680.12 1034.42 630.69 985.05C582.94 937.36 546.25 881.93 521.64 820.31C473.74 700.4 477.03 569.41 530.9 451.48C558.92 390.13 598.86 335.75 649.62 289.85C698.64 245.52 755.63 210.92 819 187.01C881.8 163.32 947.74 151.31 1015.02 151.31C1015.63 151.31 1016.24 151.31 1016.85 151.31C1087.16 151.54 1155.84 164.93 1220.98 191.13C1287.85 218.02 1346.81 256.68 1396.24 306.05C1443.99 353.74 1480.68 409.17 1505.29 470.79C1553.19 590.7 1549.9 721.69 1496.03 839.62C1468.01 900.97 1428.07 955.35 1377.31 1001.25C1328.29 1045.58 1271.3 1080.18 1207.93 1104.09C1145.13 1127.78 1079.19 1139.79 1011.91 1139.79ZM1015.51 153.03C811.95 153.03 617.7 265.25 532.34 452.14C478.65 569.68 475.37 700.22 523.11 819.72C573.69 946.34 674.34 1045.34 806.53 1098.49C1071.83 1205.16 1380.49 1088.74 1494.58 838.95C1548.27 721.41 1551.54 590.87 1503.81 471.37C1453.23 344.75 1352.58 245.75 1220.39 192.6C1153.6 165.74 1084.01 153.02 1015.51 153.02V153.03Z" fill="white"/>
<path d="M1022.47 1140.35C990.23 1140.35 957.96 1137.96 925.79 1133.17C850.36 1121.95 778.92 1097.97 713.45 1061.92C644.71 1024.07 587 975.39 541.92 917.26C498.36 861.09 468.69 798.93 453.74 732.5C426.03 609.41 452.57 483.64 528.47 378.34C568.98 322.14 621.11 274.68 683.39 237.29C743.54 201.18 810.6 175.92 882.69 162.23C954.77 148.54 1028.27 147.09 1101.12 157.93C1176.55 169.15 1247.99 193.13 1313.46 229.18C1382.2 267.03 1439.91 315.71 1484.99 373.84C1528.55 430.01 1558.22 492.17 1573.17 558.6C1600.88 681.69 1574.34 807.46 1498.44 912.76C1457.93 968.96 1405.8 1016.42 1343.52 1053.81C1283.37 1089.92 1216.31 1115.18 1144.22 1128.87C1103.96 1136.52 1063.25 1140.35 1022.47 1140.35ZM1004.94 152.58C817.56 152.58 635.45 232.65 529.76 379.28C454.13 484.2 427.69 609.52 455.29 732.16C485.63 866.93 580 986.62 714.22 1060.54C810.08 1113.33 916.86 1138.53 1021.98 1138.54C1209.36 1138.54 1391.47 1058.47 1497.16 911.84C1572.79 806.92 1599.23 681.6 1571.63 558.96C1541.29 424.19 1446.92 304.5 1312.7 230.58C1216.84 177.79 1110.06 152.58 1004.94 152.58Z" fill="white"/>
<path d="M1049.83 1143.69C977.52 1143.69 905.85 1133.54 836.46 1113.46C757.4 1090.58 684.79 1055.73 620.64 1009.88C552.85 961.43 498.93 903.91 460.37 838.94C423.11 776.15 402.02 709.64 397.67 641.24C389.73 516.3 439.67 397.15 538.3 305.73C591.34 256.56 655.37 217.85 728.58 190.67C799.29 164.42 875.56 149.97 955.26 147.72C1034.96 145.47 1114.09 155.54 1190.45 177.64C1269.51 200.52 1342.12 235.37 1406.27 281.22C1474.06 329.67 1527.99 387.19 1566.54 452.16C1603.8 514.95 1624.89 581.46 1629.24 649.86C1637.18 774.8 1587.24 893.95 1488.61 985.37C1435.57 1034.54 1371.54 1073.25 1298.32 1100.43C1227.61 1126.68 1151.35 1141.13 1071.64 1143.38C1064.36 1143.59 1057.08 1143.69 1049.82 1143.69H1049.83ZM976.85 149.23C812.43 149.23 652.36 202.18 539.39 306.9C441.12 397.99 391.35 516.69 399.26 641.14C408.08 779.98 489.11 913.91 621.57 1008.58C746.31 1097.74 900.01 1141.86 1050.07 1141.87C1214.49 1141.87 1374.56 1088.92 1487.54 984.2C1585.81 893.11 1635.58 774.41 1627.67 649.96C1618.85 511.12 1537.82 377.19 1405.36 282.52C1280.62 193.36 1126.92 149.23 976.85 149.23Z" fill="white"/>
<path d="M1095.39 1152.62C1061.06 1152.62 1026.31 1150.53 991.29 1146.36C905.35 1136.11 822.13 1113.79 743.92 1080.02C662.94 1045.05 590.92 999.28 529.86 943.96C465.92 886.04 418.08 821.43 387.69 751.93C358.31 684.77 346.58 616.38 352.81 548.67C364.43 422.44 438.44 311.24 561.2 235.56C626.5 195.3 701.8 167.09 785.01 151.7C865.37 136.84 949.69 134.5 1035.63 144.75C1121.57 155 1204.79 177.32 1283 211.09C1363.98 246.06 1436 291.83 1497.06 347.15C1561 405.07 1608.84 469.68 1639.23 539.18C1668.61 606.34 1680.34 674.73 1674.11 742.44C1662.49 868.67 1588.48 979.86 1465.72 1055.55C1400.42 1095.81 1325.12 1124.02 1241.91 1139.41C1194.3 1148.21 1145.29 1152.62 1095.39 1152.62ZM931.48 140.32C797.69 140.32 667.79 171.71 562.03 236.91C439.7 312.33 365.96 423.09 354.39 548.81C341.75 686.1 406.1 829.69 530.93 942.77C779.83 1168.24 1198.81 1218.22 1464.89 1054.18C1587.22 978.76 1660.96 868 1672.53 742.28C1685.17 604.99 1620.82 461.4 1495.99 348.32C1346.02 212.46 1134.29 140.32 931.48 140.32Z" fill="white"/>
<path d="M1153.07 1169.32C1071.19 1169.32 987.69 1158.38 904.53 1136.72C814.02 1113.15 728.48 1078.09 650.27 1032.51C569.29 985.31 499.76 928.83 443.61 864.64C386.19 799 346.31 729.38 325.07 657.71C304.55 588.46 302.29 520.47 318.35 455.62C333.7 393.63 365.1 337.59 411.67 289.06C459.87 238.84 522.45 198.72 597.69 169.84C674.62 140.3 760.25 124.22 852.19 122.04C940.99 119.94 1031.89 130.82 1122.39 154.38C1212.9 177.95 1298.44 213.01 1376.65 258.59C1457.63 305.79 1527.16 362.27 1583.31 426.46C1640.73 492.1 1680.61 561.72 1701.84 633.39C1722.36 702.64 1724.62 770.63 1708.56 835.48C1693.21 897.47 1661.81 953.51 1615.24 1002.04C1567.04 1052.26 1504.46 1092.38 1429.22 1121.26C1352.29 1150.8 1266.66 1166.88 1174.72 1169.06C1167.51 1169.23 1160.29 1169.32 1153.06 1169.32H1153.07ZM872.99 123.52C776.56 123.52 682.79 138.87 598.26 171.33C450.13 228.21 351.27 329.31 319.89 456.01C286.93 589.09 331.29 733.84 444.8 863.59C612 1054.73 892.6 1167.57 1153.93 1167.58C1250.36 1167.58 1344.13 1152.23 1428.65 1119.77C1576.78 1062.89 1675.64 961.79 1707.02 835.09C1739.98 702.01 1695.62 557.26 1582.11 427.51C1414.91 236.37 1134.31 123.52 872.98 123.52H872.99Z" fill="white"/>
<path d="M1218.69 1195.47C1179.21 1195.47 1138.79 1192.93 1097.59 1187.85C1001.92 1176.04 906.19 1151.07 813.04 1113.64C719.89 1076.21 634.02 1028.2 557.82 970.94C478.91 911.65 413.87 844.99 364.51 772.82C315.8 701.59 285.21 629.14 273.6 557.49C262.38 488.25 269.24 422.51 293.98 362.12C319.41 300.07 362.37 246.82 421.69 203.85C483.07 159.39 559.22 128.03 648.04 110.66C735.64 93.5201 830.29 91.0401 929.34 103.26C1025.01 115.07 1120.74 140.04 1213.89 177.47C1307.04 214.9 1392.91 262.91 1469.12 320.17C1548.03 379.46 1613.07 446.12 1662.43 518.29C1711.14 589.52 1741.73 661.97 1753.34 733.62C1764.56 802.87 1757.7 868.6 1732.96 928.99C1707.53 991.04 1664.57 1044.29 1605.25 1087.26C1543.87 1131.72 1467.72 1163.08 1378.9 1180.45C1327.73 1190.46 1274.15 1195.47 1218.7 1195.47H1218.69ZM807.85 97.3101C753.34 97.3101 699.85 102.13 648.34 112.21C472.91 146.53 347.58 235.49 295.45 362.72C244.84 486.24 269.83 631.56 365.82 771.92C538.05 1023.75 895.66 1193.78 1219.08 1193.8C1273.59 1193.8 1327.08 1188.98 1378.59 1178.9C1554.02 1144.58 1679.35 1055.62 1731.48 928.39C1782.09 804.88 1757.1 659.55 1661.11 519.19C1488.88 267.36 1131.27 97.3101 807.85 97.3101Z" fill="white"/>
<path d="M1284.54 1231.54C1196.71 1231.54 1105.05 1219.06 1011.58 1194.34C910.89 1167.71 812.37 1128.08 718.74 1076.54C625.11 1025 541.09 964.15 469.02 895.67C394.39 824.77 335.9 748.75 295.18 669.74C219.5 522.88 214.13 380.16 280.06 267.86C297.86 237.54 320.76 209.73 348.14 185.18C375.73 160.44 408.05 138.87 444.18 121.07C519.44 83.9901 609.59 63.4701 712.12 60.0701C809.06 56.8501 911.09 69.2002 1015.34 96.7702C1116.03 123.4 1214.55 163.03 1308.18 214.57C1401.81 266.11 1485.83 326.96 1557.9 395.44C1632.53 466.34 1691.02 542.36 1731.74 621.37C1807.42 768.23 1812.79 910.95 1746.86 1023.25C1729.06 1053.57 1706.16 1081.38 1678.78 1105.93C1651.19 1130.67 1618.87 1152.24 1582.74 1170.04C1507.48 1207.12 1417.33 1227.64 1314.8 1231.04C1304.77 1231.37 1294.67 1231.54 1284.54 1231.54ZM741.98 61.1602C731.99 61.1602 722.09 61.3202 712.17 61.6502C511.76 68.3002 354.77 143.76 281.43 268.66C215.79 380.47 221.17 522.65 296.6 669C458.46 983.07 896.68 1229.91 1284.94 1229.93C1294.93 1229.93 1304.83 1229.77 1314.75 1229.44C1515.16 1222.79 1672.15 1147.33 1745.49 1022.43C1811.13 910.62 1805.75 768.44 1730.32 622.09C1568.46 308.02 1130.24 61.1602 741.98 61.1602Z" fill="white"/>
<path d="M1345.74 1277.39C1310.9 1277.39 1274.78 1275.25 1237.43 1270.97C1132.81 1258.98 1025.4 1230.83 918.18 1187.29C814.62 1145.24 715.59 1090.68 623.85 1025.13C532.1 959.58 452.25 886.33 386.52 807.43C318.46 725.72 268.59 641.49 238.31 557.08C211.19 481.46 201.22 409.43 208.69 342.99C215.91 278.77 239.15 221.49 277.77 172.77C301.24 143.15 330.3 117.02 364.14 95.08C398.21 72.99 437.27 55.07 480.22 41.82C569.82 14.18 673.87 6.88002 789.5 20.13C894.12 32.12 1001.53 60.27 1108.75 103.81C1212.31 145.86 1311.34 200.42 1403.08 265.97C1494.83 331.52 1574.68 404.77 1640.41 483.67C1708.47 565.38 1758.34 649.61 1788.62 734.02C1815.74 809.64 1825.71 881.67 1818.24 948.11C1811.02 1012.34 1787.78 1069.61 1749.16 1118.33C1725.69 1147.95 1696.63 1174.09 1662.79 1196.02C1628.72 1218.11 1589.66 1236.03 1546.71 1249.28C1486.05 1267.99 1418.75 1277.38 1345.74 1277.38V1277.39ZM682.36 15.41C504.28 15.41 360.47 70.98 279.01 173.75C200.65 272.61 186.72 408.56 239.8 556.54C363.25 900.71 810.87 1220.49 1237.61 1269.39C1464.69 1295.41 1650.7 1239.99 1747.92 1117.34C1826.28 1018.48 1840.21 882.53 1787.13 734.55C1663.68 390.38 1216.07 70.6 789.32 21.7C752.52 17.48 716.8 15.41 682.36 15.41Z" fill="white"/>
<path d="M1390.53 1331.14C1371.65 1331.14 1352.41 1330.46 1332.86 1329.1C1273.73 1324.99 1211.39 1314.64 1147.58 1298.31C1037.32 1270.1 926.8 1225.5 819.1 1165.72C715.08 1107.99 618.05 1038.61 530.7 959.51C443.35 880.41 370.08 795.57 312.94 707.36C253.76 616.01 214.55 525.01 196.4 436.89C181 362.15 181.58 292.86 198.12 230.94C214.11 171.06 244.64 119.33 288.85 77.16C318.46 48.92 354.04 25.27 394.61 6.87999C435.41 -11.62 481.33 -24.84 531.09 -32.41C581.75 -40.12 636.58 -42.01 694.07 -38.02C753.2 -33.91 815.54 -23.56 879.35 -7.22999C989.61 20.98 1100.13 65.58 1207.83 125.36C1311.85 183.09 1408.88 252.47 1496.23 331.57C1583.58 410.67 1656.85 495.51 1714 583.72C1773.18 675.07 1812.39 766.07 1830.54 854.19C1845.94 928.93 1845.36 998.22 1828.82 1060.14C1812.83 1120.02 1782.3 1171.75 1738.09 1213.92C1708.48 1242.16 1672.9 1265.81 1632.33 1284.2C1591.53 1302.7 1545.61 1315.92 1495.85 1323.49C1462.42 1328.58 1427.17 1331.13 1390.54 1331.13L1390.53 1331.14ZM635.39 -38.6C491.23 -38.6 370.89 1.11 289.94 78.32C199.29 164.78 167.48 288.67 197.95 436.58C233.79 610.57 352.34 795.87 531.77 958.34C711.22 1120.84 930.06 1241.03 1147.98 1296.77C1399.02 1360.98 1613.7 1330.37 1736.99 1212.77C1827.64 1126.3 1859.45 1002.42 1828.98 854.51C1793.14 680.52 1674.59 495.22 1495.16 332.75C1315.71 170.25 1096.87 50.06 878.95 -5.68C792.73 -27.73 710.8 -38.6 635.39 -38.6Z" fill="white"/>
<path d="M1420.14 1390.63C1365.4 1390.63 1307.32 1384.42 1247.32 1372.15C1182.31 1358.86 1114.74 1338.37 1046.49 1311.27C932.92 1266.16 821.86 1204.82 716.41 1128.93C614.56 1055.64 522.19 971.93 441.87 880.15C361.54 788.36 297.31 693.1 250.96 597.03C202.96 497.54 176.34 401.52 171.84 311.64C168.22 239.4 179.2 174.12 204.47 117.61C228.92 62.94 266.31 17.32 315.62 -17.98C351.82 -43.9 394.21 -63.99 441.62 -77.7C489.23 -91.47 541.9 -98.79 598.15 -99.47C655.38 -100.15 716.45 -93.96 779.61 -81.05C844.62 -67.76 912.19 -47.27 980.44 -20.17C1094.01 24.94 1205.07 86.28 1310.52 162.17C1412.37 235.46 1504.74 319.17 1585.06 410.95C1665.39 502.74 1729.62 598 1775.97 694.07C1823.97 793.56 1850.59 889.58 1855.09 979.46C1858.71 1051.7 1847.73 1116.98 1822.46 1173.49C1798.01 1228.16 1760.62 1273.78 1711.31 1309.08C1675.11 1335 1632.72 1355.09 1585.31 1368.8C1537.7 1382.57 1485.03 1389.89 1428.78 1390.57C1425.91 1390.6 1423.02 1390.62 1420.14 1390.62V1390.63ZM606.64 -97.41C491.79 -97.41 391.69 -70.5 316.54 -16.69C215.77 55.47 166.28 168.97 173.42 311.56C182.31 489.01 278.07 690.56 443.06 879.1C608.08 1067.68 822.6 1220.63 1047.08 1309.79C1313.11 1415.45 1561.08 1414.7 1710.4 1307.79C1811.17 1235.63 1860.66 1122.13 1853.52 979.54C1844.63 802.09 1748.87 600.54 1583.88 412C1418.85 223.42 1204.34 70.47 979.86 -18.69C847.72 -71.17 720 -97.41 606.65 -97.41H606.64Z" fill="white"/>
<path d="M1432.6 1453.3C1404.03 1453.3 1374.53 1451.5 1344.27 1447.87C1281.17 1440.3 1214.92 1424.86 1147.36 1401.98C1077.78 1378.42 1006.59 1346.89 935.77 1308.26C821.52 1245.94 712.73 1167.98 612.43 1076.53C515.55 988.2 430.62 891.08 360 787.86C289.37 684.63 236.61 580.49 203.19 478.35C168.58 372.57 156.32 273.56 166.78 184.07C182.61 48.5401 249.72 -53.5099 360.86 -111.03C447.41 -155.83 558.69 -171.64 682.67 -156.76C745.77 -149.19 812.02 -133.75 879.58 -110.87C949.16 -87.3099 1020.35 -55.7799 1091.17 -17.1499C1205.42 45.1701 1314.21 123.13 1414.51 214.58C1511.39 302.91 1596.32 400.03 1666.94 503.25C1737.57 606.48 1790.33 710.62 1823.75 812.76C1858.36 918.54 1870.62 1017.55 1860.16 1107.04C1844.33 1242.57 1777.22 1344.62 1666.08 1402.14C1600.65 1436 1521.09 1453.31 1432.6 1453.31V1453.3ZM593.12 -160.52C506.18 -160.52 427.52 -143.74 361.57 -109.61C250.92 -52.3399 184.1 49.2801 168.34 184.26C147.71 360.9 216.24 574.94 361.3 786.96C506.4 999.04 710.68 1183.68 936.53 1306.86C1214.02 1458.21 1486.48 1493.3 1665.35 1400.72C1776 1343.45 1842.82 1241.83 1858.58 1106.85C1879.21 930.21 1810.68 716.17 1665.62 504.15C1520.52 292.07 1316.24 107.43 1090.39 -15.7499C915.2 -111.31 742.01 -160.52 593.11 -160.52H593.12Z" fill="white"/>
<path d="M1429.53 1516.71C1370.15 1516.71 1306.89 1508.5 1241.29 1492.07C1173.54 1475.1 1103.61 1449.48 1033.44 1415.94C961.15 1381.38 888.46 1338.32 817.41 1287.96C705.35 1208.54 601.82 1114.51 509.69 1008.5C420.7 906.1 346.04 796.89 287.77 683.89C229.5 570.88 190.57 459.77 172.06 353.65C152.89 243.74 156.57 144.03 183.01 57.2701C221.52 -69.08 306.13 -157.82 427.71 -199.35C528.55 -233.8 652.31 -234.36 785.61 -200.96C853.36 -183.99 923.29 -158.37 993.46 -124.83C1065.75 -90.27 1138.44 -47.2099 1209.49 3.15005C1321.55 82.5701 1425.08 176.6 1517.21 282.61C1606.2 385.01 1680.86 494.22 1739.13 607.22C1797.4 720.23 1836.33 831.34 1854.84 937.46C1874.01 1047.37 1870.33 1147.08 1843.89 1233.84C1805.38 1360.19 1720.77 1448.93 1599.19 1490.46C1547.97 1507.96 1490.82 1516.71 1429.52 1516.71H1429.53ZM597.63 -224.24C537.04 -224.24 480.1 -215.57 428.23 -197.85C307.16 -156.49 222.89 -68.11 184.54 57.73C132.36 228.95 169.52 451.06 289.19 683.16C408.9 915.33 596.82 1129.65 818.33 1286.66C1097.84 1484.77 1389.57 1560.39 1598.68 1488.96C1719.75 1447.6 1804.02 1359.22 1842.37 1233.38C1894.55 1062.16 1857.39 840.05 1737.72 607.95C1618.01 375.78 1430.09 161.46 1208.58 4.45004C998.4 -144.52 781.3 -224.24 597.62 -224.24H597.63Z" fill="white"/>
<path d="M1410.43 1578.46C1319.88 1578.46 1221.01 1558.51 1119.47 1519.36C1048.8 1492.11 977.21 1455.76 906.69 1411.3C834.02 1365.49 762.4 1311.01 693.82 1249.39C587.03 1153.41 491.87 1044.35 410.99 925.23C332.87 810.17 271.28 690.62 227.95 569.89C184.61 449.14 161.71 333.31 159.88 225.59C157.99 114.03 178.9 16.11 222.05 -65.45C283.46 -181.53 386.35 -255.42 519.59 -279.13C634.18 -299.52 768.31 -281.93 907.47 -228.28C978.14 -201.03 1049.73 -164.68 1120.25 -120.22C1192.92 -74.41 1264.54 -19.93 1333.12 41.69C1439.91 137.67 1535.07 246.73 1615.95 365.85C1694.07 480.91 1755.66 600.46 1798.99 721.19C1842.33 841.94 1865.23 957.77 1867.06 1065.49C1868.95 1177.05 1848.04 1274.97 1804.89 1356.53C1743.48 1472.61 1640.59 1546.5 1507.35 1570.21C1476.38 1575.72 1443.98 1578.46 1410.44 1578.46H1410.43ZM617.94 -285.94C584.23 -285.94 551.49 -283.18 519.86 -277.55C387.11 -253.93 284.62 -180.33 223.45 -64.69C138.32 96.24 140.45 321.42 229.45 569.37C318.48 817.41 483.78 1058.49 694.89 1248.22C929.39 1458.96 1188.9 1577.04 1408.99 1577.05C1442.7 1577.05 1475.44 1574.29 1507.07 1568.66C1639.82 1545.04 1742.31 1471.44 1803.48 1355.8C1888.61 1194.87 1886.48 969.69 1797.49 721.74C1708.46 473.7 1543.16 232.62 1332.05 42.89C1097.55 -167.85 838.04 -285.94 617.94 -285.94Z" fill="white"/>
<path d="M1376.06 1636.19C1252.46 1636.19 1115.58 1598.05 979.33 1525.53C908 1487.56 837.22 1440.43 768.97 1385.44C698.63 1328.77 630.91 1263.68 567.68 1191.98C469.35 1080.48 385.74 957.87 319.17 827.56C254.86 701.69 209.08 573.97 183.09 447.95C157.09 321.9 152.21 203.9 168.56 97.2201C185.5 -13.2699 224.61 -106.72 284.8 -180.53C370.23 -285.29 492.85 -342.15 639.4 -344.98C765.95 -347.41 907.12 -309.19 1047.59 -234.43C1118.92 -196.46 1189.7 -149.33 1257.95 -94.3399C1328.29 -37.6699 1396.01 27.42 1459.24 99.1201C1557.57 210.62 1641.18 333.23 1707.75 463.54C1772.06 589.41 1817.84 717.13 1843.83 843.15C1869.83 969.2 1874.71 1087.2 1858.36 1193.88C1841.42 1304.37 1802.31 1397.82 1742.12 1471.63C1656.69 1576.39 1534.07 1633.25 1387.51 1636.08C1383.71 1636.15 1379.88 1636.19 1376.06 1636.19ZM651.22 -343.5C647.28 -343.5 643.35 -343.46 639.44 -343.39C493.37 -340.57 371.16 -283.91 286.04 -179.52C167.28 -33.8999 131.28 188.83 184.65 447.63C238.05 706.53 374.51 970.51 568.88 1190.92C814.58 1469.54 1115.21 1634.6 1375.7 1634.6C1379.64 1634.6 1383.56 1634.56 1387.48 1634.49C1533.55 1631.67 1655.76 1575.01 1740.88 1470.62C1859.64 1325 1895.64 1102.27 1842.27 843.47C1788.87 584.57 1652.41 320.59 1458.04 100.18C1212.34 -178.44 911.71 -343.5 651.22 -343.5Z" fill="white"/>
<path d="M1329.04 1687.76C1299.41 1687.76 1269.04 1685.6 1238.04 1681.26C1102.85 1662.31 959.29 1601.83 822.89 1506.34C753.57 1457.81 686.38 1400.51 623.2 1336.03C558.1 1269.59 497.15 1195.4 442.03 1115.53C355.43 990.02 286.51 855.83 237.2 716.71C189.57 582.33 162.13 449.01 155.66 320.47C149.19 191.9 164.01 74.58 199.71 -28.2299C236.69 -134.71 294.57 -220.89 371.73 -284.37C483.33 -376.17 627.57 -412.75 788.86 -390.15C924.05 -371.21 1067.61 -310.72 1204.01 -215.23C1273.33 -166.7 1340.52 -109.4 1403.7 -44.92C1468.8 21.5201 1529.75 95.7101 1584.87 175.58C1671.47 301.09 1740.39 435.27 1789.7 574.39C1837.33 708.77 1864.77 842.09 1871.24 970.63C1877.71 1099.2 1862.89 1216.52 1827.19 1319.33C1790.21 1425.81 1732.33 1511.99 1655.17 1575.47C1565.02 1649.63 1453.57 1687.75 1329.03 1687.75L1329.04 1687.76ZM697.89 -395.07C573.71 -395.07 462.62 -357.08 372.75 -283.15C220.49 -157.9 143.96 56.4401 157.25 320.39C170.55 584.45 272.15 866.51 443.34 1114.63C660.33 1429.11 957.49 1640.35 1238.25 1679.69C1269.16 1684.02 1299.47 1686.17 1329.02 1686.18C1453.2 1686.18 1564.29 1648.19 1654.16 1574.26C1806.42 1449.01 1882.95 1234.67 1869.66 970.72C1856.36 706.66 1754.76 424.6 1583.57 176.49C1366.58 -137.99 1069.42 -349.23 788.66 -388.57C757.75 -392.9 727.44 -395.06 697.89 -395.06V-395.07Z" fill="white"/>
<path d="M1272.31 1731.55C1203.76 1731.55 1132.46 1720.44 1059.66 1698.12C920.78 1655.54 780.48 1572.58 653.91 1458.2C589.49 1399.98 528.74 1333.81 473.34 1261.55C416.28 1187.11 364.74 1105.97 320.15 1020.37C248.52 882.85 197.35 739.53 168.07 594.41C139.78 454.22 133 318.25 147.91 190.27C162.82 62.2601 198.69 -51.2999 254.51 -147.27C312.32 -246.66 389.1 -322.71 482.74 -373.33C623.45 -449.4 791 -461.05 967.27 -407.01C1106.15 -364.43 1246.45 -281.47 1373.02 -167.08C1437.44 -108.86 1498.19 -42.6999 1553.59 29.5701C1610.65 104.01 1662.19 185.15 1706.78 270.75C1778.41 408.27 1829.58 551.59 1858.86 696.71C1887.15 836.9 1893.93 972.87 1879.02 1100.85C1864.11 1228.86 1828.24 1342.42 1772.42 1438.39C1714.61 1537.77 1637.83 1613.83 1544.2 1664.45C1461.61 1709.1 1369.75 1731.56 1272.32 1731.56L1272.31 1731.55ZM754.62 -438.86C657.44 -438.86 565.87 -416.47 483.5 -371.94C298.73 -272.05 180.12 -72.3199 149.5 190.44C118.87 453.32 179.98 747.79 321.57 1019.62C496.44 1355.35 772.54 1608.42 1060.13 1696.59C1235.98 1750.5 1403.11 1738.9 1543.44 1663.03C1728.21 1563.14 1846.82 1363.41 1877.44 1100.65C1908.07 837.77 1846.96 543.3 1705.37 271.47C1530.5 -64.2599 1254.4 -317.33 966.81 -405.5C894.18 -427.77 823.01 -438.86 754.63 -438.86H754.62Z" fill="white"/>
<path d="M1209.7 1766.26C1162 1766.26 1113.42 1761.24 1064.16 1751.18C947.97 1727.46 832.98 1676.89 722.37 1600.87C611.78 1524.86 511.14 1427.23 423.25 1310.7C332.26 1190.06 258.99 1054.34 205.48 907.3C173.25 818.73 149.09 728.08 133.67 637.84C118.7 550.19 111.89 462.54 113.46 377.33C114.99 293.62 124.59 212.14 141.98 135.16C159.3 58.5301 184.33 -13.6199 216.4 -79.2799C259.8 -168.15 315.48 -244.3 381.89 -305.63C450.57 -369.05 529.68 -415.54 617.01 -443.83C726.12 -479.17 842.45 -484.64 962.76 -460.08C1078.95 -436.36 1193.94 -385.79 1304.55 -309.77C1415.14 -233.76 1515.78 -136.13 1603.67 -19.5999C1694.66 101.04 1767.93 236.77 1821.44 383.8C1853.67 472.37 1877.83 563.02 1893.25 653.26C1908.22 740.91 1915.03 828.56 1913.46 913.77C1911.93 997.48 1902.33 1078.96 1884.94 1155.94C1867.62 1232.57 1842.59 1304.72 1810.52 1370.38C1767.12 1459.25 1711.44 1535.41 1645.03 1596.73C1576.35 1660.15 1497.24 1706.64 1409.91 1734.93C1345.47 1755.8 1278.51 1766.25 1209.7 1766.25V1766.26ZM818.27 -473.67C749.59 -473.67 682.27 -463.3 617.49 -442.32C444.92 -386.43 306.72 -260.65 217.82 -78.5899C85.2701 192.86 81.2101 561.21 206.97 906.74C312.75 1197.37 496.1 1443.41 723.27 1599.55C882.06 1708.69 1048.98 1764.76 1208.65 1764.77C1277.33 1764.77 1344.65 1754.4 1409.43 1733.42C1581.99 1677.53 1720.2 1551.75 1809.1 1369.69C1941.65 1098.24 1945.71 729.89 1819.95 384.35C1714.17 93.72 1530.82 -152.32 1303.65 -308.46C1144.86 -417.6 977.94 -473.68 818.27 -473.68V-473.67Z" fill="white"/>
<path d="M1145.51 1791.34C1057.39 1791.34 968.45 1776.02 879.91 1745.5C759.22 1703.9 644.38 1635.97 538.56 1543.58C432.76 1451.2 341.32 1339.03 266.78 1210.18C189.61 1076.79 134.03 931.27 101.58 777.66C82.8298 688.9 72.3697 599.31 70.4997 511.38C68.6797 425.9 74.9498 341.43 89.1398 260.31C103.08 180.64 124.69 103.91 153.39 32.2501C181.92 -38.9899 217.5 -105.35 259.14 -165.01C321.51 -254.37 396.52 -327.78 482.08 -383.2C570.61 -440.55 668.53 -477.31 773.1 -492.45C896.22 -510.28 1022.02 -497.48 1146.99 -454.41C1267.68 -412.81 1382.52 -344.88 1488.34 -252.49C1594.14 -160.11 1685.58 -47.9398 1760.12 80.9102C1837.29 214.3 1892.87 359.82 1925.32 513.43C1944.07 602.19 1954.53 691.78 1956.4 779.71C1958.22 865.19 1951.95 949.66 1937.76 1030.78C1923.82 1110.45 1902.21 1187.18 1873.51 1258.84C1844.98 1330.07 1809.4 1396.44 1767.76 1456.1C1705.39 1545.46 1630.38 1618.87 1544.82 1674.29C1456.29 1731.64 1358.37 1768.4 1253.8 1783.54C1217.9 1788.74 1181.77 1791.33 1145.51 1791.33V1791.34ZM881.66 -498.65C845.41 -498.65 809.28 -496.08 773.34 -490.87C566.07 -460.85 388.72 -347.85 260.45 -164.09C86.6797 84.8601 29.3398 428 103.14 777.34C167.27 1080.93 322.28 1352.63 539.6 1542.39C724.76 1704.06 936.3 1789.75 1145.25 1789.76C1181.5 1789.76 1217.63 1787.19 1253.57 1781.98C1460.84 1751.96 1638.19 1638.96 1766.46 1455.2C1940.23 1206.25 1997.57 863.11 1923.77 513.77C1859.64 210.18 1704.63 -61.5199 1487.31 -251.28C1302.15 -412.95 1090.61 -498.65 881.66 -498.65Z" fill="white"/>
<path d="M1088.77 1807.2C1085.17 1807.2 1081.57 1807.18 1077.96 1807.13C942.77 1805.48 809.91 1773.16 683.09 1711.07C560.6 1651.11 448.87 1566.04 350.99 1458.24C253.11 1350.45 174.02 1225.35 115.91 1086.42C55.7502 942.59 20.8302 790.16 12.1102 633.37C7.31018 546.92 10.7401 460.82 22.3101 377.46C33.5701 296.35 52.62 217.13 78.94 142C104.78 68.2201 137.79 -2.05994 177.03 -66.8999C215.98 -131.26 261.26 -190.55 311.6 -243.12C395.6 -330.84 492.24 -398.95 598.82 -445.57C709.15 -493.82 826.96 -517.55 948.96 -516.04C1084.15 -514.39 1217.01 -482.07 1343.83 -419.98C1466.32 -360.02 1578.05 -274.95 1675.93 -167.15C1773.81 -59.3599 1852.9 65.7401 1911.01 204.67C1971.17 348.5 2006.1 500.93 2014.81 657.72C2019.61 744.17 2016.18 830.27 2004.61 913.63C1993.35 994.74 1974.3 1073.96 1947.98 1149.09C1922.14 1222.87 1889.13 1293.15 1849.89 1357.99C1810.94 1422.35 1765.66 1481.64 1715.32 1534.21C1631.32 1621.93 1534.68 1690.04 1428.1 1736.66C1321.04 1783.49 1206.92 1807.2 1088.77 1807.2ZM938.42 -514.51C703.09 -514.51 481.27 -418 312.74 -242.01C103.9 -23.9199 -5.09998 295.11 13.69 633.29C49.24 1272.94 526.67 1798.82 1077.97 1805.55C1081.47 1805.59 1084.99 1805.61 1088.49 1805.61C1323.82 1805.61 1545.64 1709.1 1714.17 1533.11C1923.01 1315.02 2032.01 995.99 2013.22 657.81C1977.68 18.1602 1500.24 -507.72 948.94 -514.45C945.44 -514.49 941.92 -514.51 938.42 -514.51Z" fill="white"/>
<path d="M1042.45 1815.28C990.28 1815.28 937.76 1811.2 885.19 1802.93C740.35 1780.15 603.23 1727.45 477.64 1646.29C417.28 1607.29 359.95 1561.74 307.22 1510.92C255 1460.58 206.85 1404.63 164.1 1344.63C121.36 1284.62 83.6701 1220.06 52.0801 1152.75C20.1901 1084.79 -5.76002 1013.41 -25.05 940.61C-65.18 789.13 -76.7499 633.11 -59.4399 476.87C-41.3399 313.5 7.07999 160.45 84.46 21.9501C121.61 -44.5299 165.33 -107.07 214.4 -163.93C263.06 -220.3 317.31 -271.48 375.65 -316.03C597.08 -485.14 869.15 -554.67 1141.72 -511.8C1286.56 -489.02 1423.68 -436.32 1549.27 -355.16C1609.63 -316.16 1666.96 -270.61 1719.69 -219.79C1771.91 -169.45 1820.06 -113.5 1862.8 -53.4999C1905.54 6.50012 1943.23 71.0701 1974.82 138.38C2006.71 206.34 2032.66 277.72 2051.95 350.52C2092.08 502 2103.65 658.02 2086.34 814.26C2068.24 977.63 2019.82 1130.68 1942.44 1269.18C1905.29 1335.66 1861.57 1398.2 1812.5 1455.06C1763.84 1511.43 1709.59 1562.61 1651.26 1607.16C1472.54 1743.66 1260.79 1815.28 1042.45 1815.28ZM984.48 -522.59C766.47 -522.59 555.09 -451.08 376.63 -314.79C135.9 -130.94 -22.4598 157.67 -57.8498 477.03C-128.47 1114.36 294.69 1708.45 885.43 1801.35C1157.58 1844.15 1429.2 1774.73 1650.29 1605.89C1891.02 1422.04 2049.38 1133.43 2084.76 814.07C2155.38 176.74 1732.22 -417.35 1141.48 -510.25C1089.01 -518.5 1036.55 -522.58 984.47 -522.58L984.48 -522.59Z" fill="white"/>
<path d="M1013.39 1817.72C900.75 1817.72 788.73 1801.3 678.97 1768.61C527.36 1723.45 389.13 1649.96 268.11 1550.15C209.95 1502.18 156.14 1448.23 108.18 1389.79C60.6798 1331.9 18.5 1269.11 -17.18 1203.15C-52.86 1137.19 -82.35 1067.53 -104.81 996.1C-127.49 923.98 -143.21 849.42 -151.54 774.49C-168.86 618.59 -154.75 462.67 -109.6 311.06C-64.4401 159.45 9.05002 21.2201 108.86 -99.7999C156.83 -157.96 210.78 -211.77 269.22 -259.73C327.11 -307.23 389.9 -349.41 455.86 -385.1C521.82 -420.78 591.48 -450.27 662.91 -472.73C735.03 -495.41 809.59 -511.13 884.52 -519.46C1040.42 -536.78 1196.34 -522.67 1347.95 -477.52C1499.56 -432.36 1637.79 -358.87 1758.81 -259.06C1816.97 -211.09 1870.78 -157.14 1918.74 -98.6999C1966.24 -40.8099 2008.42 21.98 2044.11 87.9401C2079.79 153.9 2109.28 223.56 2131.74 294.99C2154.42 367.11 2170.14 441.67 2178.47 516.6C2195.79 672.5 2181.68 828.42 2136.53 980.03C2091.37 1131.64 2017.87 1269.87 1918.07 1390.89C1870.1 1449.05 1816.15 1502.86 1757.71 1550.82C1699.82 1598.32 1637.03 1640.5 1571.07 1676.19C1505.11 1711.87 1435.45 1741.36 1364.02 1763.82C1291.9 1786.5 1217.34 1802.22 1142.41 1810.55C1099.38 1815.33 1056.34 1817.72 1013.4 1817.72H1013.39ZM1011.89 -525.22C820.04 -525.22 630.09 -477.54 456.62 -383.69C181.7 -234.95 -18.84 11.9401 -108.07 311.52C-197.3 611.09 -164.52 927.48 -15.7801 1202.4C132.96 1477.32 379.85 1677.86 679.43 1767.09C790.44 1800.15 902.58 1815.9 1012.91 1815.9C1517.19 1815.9 1983.88 1487 2135.01 979.6C2224.24 680.03 2191.46 363.64 2042.72 88.7201C1893.98 -186.2 1647.09 -386.74 1347.51 -475.97C1236.96 -508.9 1124.1 -525.21 1011.9 -525.21L1011.89 -525.22Z" fill="white"/>
</g>
</g>
</g>
</svg>
