<svg width="80" height="83" viewBox="0 0 80 83" fill="none" xmlns="http://www.w3.org/2000/svg">
<path d="M47.5144 53.43C48.1144 56.3 49.2644 58.23 50.5344 60.33C51.8644 62.53 54.0944 65.69 57.6744 68.89C55.8244 68.95 51.7144 69.01 48.9444 69.07V65.34C48.8844 63.68 48.5844 61.47 47.5344 59.14C44.4244 52.23 37.3744 50.03 36.0044 49.64C34.3644 49.26 31.6144 48.86 28.3744 49.57C25.5644 50.18 23.6644 51.35 21.6044 52.65C19.4544 54.01 16.3544 56.28 13.2144 59.93C13.1444 57.73 13.0744 52.4 13.0044 49.75C18.1844 49.58 20.5044 49.3 23.1744 47.87C28.8944 44.8 31.0444 39.23 31.3544 38.39C33.3444 33.02 32.1244 28.33 31.5544 26.27C29.3544 18.31 23.2944 14.16 21.4944 13.03L30.7944 13C30.9544 18.4 31.2244 20.8 32.6444 23.55C35.6544 29.38 41.1144 31.58 41.9344 31.89C47.2044 33.92 51.7944 32.67 53.8244 32.09C61.6344 29.85 65.6944 23.67 66.8144 21.84L66.8444 32.44H62.9744C61.3544 32.51 59.1844 32.81 56.8944 33.88C50.1144 37.05 47.9644 44.24 47.5744 45.64C47.2044 47.31 46.8144 50.12 47.5044 53.42M79.6544 34.63H79.7244L79.6544 12.92C79.6144 11.6 79.3744 9.83 78.5344 7.96C76.0544 2.43 70.4144 0.679995 69.3244 0.369995C68.0144 0.0699951 65.8144 -0.250002 63.2244 0.309998C60.9744 0.799998 59.4644 1.74 57.8144 2.77C56.0944 3.85 53.6144 5.67 51.1144 8.59C51.0544 6.69 50.9944 1.89 50.9344 0L33.9644 0.0699997V0L12.6744 0.0800018C11.3744 0.120002 9.64442 0.360001 7.81442 1.22C2.39442 3.75 0.674425 9.5 0.364424 10.61C0.0744245 11.95 -0.245581 14.19 0.304419 16.83C0.784419 19.12 1.70443 20.67 2.72443 22.35C3.78443 24.1 5.57442 26.63 8.43442 29.19C6.57442 29.25 1.86442 29.31 0.00442389 29.37L0.0744236 48.04C-0.0555764 53.93 0.00442237 61.62 0.104422 65.46C0.234422 70.3 0.404422 72.3 1.60442 74.62C4.01442 79.28 8.37442 81.04 9.03442 81.29C13.2444 82.91 16.9144 81.91 18.5344 81.45C24.7744 79.66 28.0244 74.72 28.9144 73.25L28.9344 82.25L46.3444 82.18C52.1044 82.31 59.5244 82.25 63.2644 82.15C68.0144 82.02 69.9644 81.84 72.2444 80.62C76.8144 78.17 78.5344 73.72 78.7844 73.05C80.3744 68.75 79.3944 65.01 78.9444 63.36C77.1944 57 72.3344 53.69 70.9044 52.78L79.7244 52.75L79.6544 34.63Z" fill="#F49AC1"/>
</svg>
