<svg width="1920" height="1080" viewBox="0 0 1920 1080" fill="none" xmlns="http://www.w3.org/2000/svg">
<mask id="mask0_33_2" style="mask-type:luminance" maskUnits="userSpaceOnUse" x="0" y="0" width="1921" height="1080">
<path d="M1920 0H0V1080H1920V0Z" fill="white"/>
</mask>
<g mask="url(#mask0_33_2)">
<g opacity="0.7">
<mask id="mask1_33_2" style="mask-type:luminance" maskUnits="userSpaceOnUse" x="-4" y="-69" width="1928" height="1286">
<path d="M1923.41 -68.4H-3.39999V1216.14H1923.41V-68.4Z" fill="white"/>
</mask>
<g mask="url(#mask1_33_2)">
<g opacity="0.35">
<path d="M989.29 627.14C981.77 627.14 973.37 625.56 964.51 622.37C931.04 610.35 901.82 578.92 899.36 552.31C898.37 541.62 901.72 532.97 909.03 527.31C919.63 519.11 936.83 518.4 956.24 525.37C989.71 537.39 1018.93 568.82 1021.39 595.43C1022.38 606.12 1019.03 614.77 1011.72 620.43C1005.96 624.89 998.25 627.13 989.29 627.13V627.14ZM931.55 522.27C922.88 522.27 915.41 524.38 910 528.57C903.14 533.88 900.01 542.04 900.94 552.17C903.34 578.22 932.1 609.05 965.04 620.88C983.65 627.56 1000.73 626.93 1010.74 619.18C1017.6 613.87 1020.73 605.71 1019.8 595.58C1017.4 569.53 988.64 538.7 955.7 526.87C947.15 523.8 938.92 522.27 931.55 522.27Z" fill="white"/>
<path d="M990.53 631.55C980.33 631.55 968.58 628.47 956.63 622.43C922.75 605.32 896.72 569.7 898.62 543.02C899.34 532.84 903.97 525.05 912.01 520.49C924.57 513.36 944.06 515.16 964.14 525.3C998.02 542.41 1024.05 578.03 1022.15 604.71C1021.43 614.89 1016.8 622.68 1008.76 627.24C1003.68 630.12 997.47 631.55 990.54 631.55H990.53ZM930.23 517.77C923.58 517.77 917.63 519.13 912.78 521.88C905.23 526.17 900.87 533.52 900.19 543.14C898.34 569.24 923.97 604.17 957.33 621.02C976.94 630.92 995.86 632.73 1007.95 625.87C1015.5 621.58 1019.86 614.23 1020.54 604.61C1022.39 578.52 996.76 543.58 963.4 526.73C951.66 520.8 940.15 517.77 930.22 517.77H930.23Z" fill="white"/>
<path d="M990.54 636.15C977.8 636.15 962.83 631 948.15 621.26C914.68 599.06 892.81 559.79 899.38 533.72C901.78 524.19 907.69 517.36 916.48 513.97C931.22 508.27 952.2 512.94 972.6 526.47C1006.07 548.67 1027.94 587.94 1021.37 614.01C1018.97 623.54 1013.06 630.37 1004.27 633.76C1000.13 635.36 995.51 636.14 990.54 636.14V636.15ZM900.92 534.11C894.5 559.58 916.08 598.08 949.03 619.94C969 633.19 989.43 637.8 1003.69 632.29C1011.97 629.09 1017.55 622.63 1019.82 613.63C1026.24 588.16 1004.66 549.66 971.71 527.8C951.74 514.55 931.31 509.94 917.05 515.45C908.77 518.65 903.19 525.11 900.92 534.11Z" fill="white"/>
<path d="M989.36 640.65C974.02 640.65 955.93 632.87 939.26 618.79C907.1 591.62 890.29 549.39 901.79 524.65C905.87 515.87 913.1 510.11 922.7 507.99C939.57 504.27 961.55 512.1 981.48 528.94C1013.64 556.11 1030.45 598.34 1018.95 623.08C1014.87 631.86 1007.64 637.62 998.04 639.74C995.27 640.35 992.37 640.65 989.36 640.65ZM903.24 525.33C892.02 549.46 908.65 590.85 940.29 617.58C959.85 634.1 981.32 641.8 997.7 638.19C1006.79 636.18 1013.64 630.73 1017.51 622.42C1028.72 598.29 1012.1 556.9 980.46 530.17C960.9 513.65 939.44 505.94 923.05 509.56C913.96 511.57 907.11 517.02 903.24 525.33Z" fill="white"/>
<path d="M987.19 644.89C969 644.89 947.9 633.87 930.15 614.96C900.23 583.08 889.37 538.72 905.93 516.07C911.75 508.12 920.38 503.57 930.89 502.93C949.66 501.79 971.98 512.94 990.6 532.78C1020.52 564.66 1031.38 609.02 1014.82 631.67C1009.01 639.62 1000.37 644.17 989.86 644.81C988.98 644.86 988.09 644.89 987.19 644.89ZM907.21 517.01C891.08 539.07 901.89 582.53 931.3 613.87C949.6 633.37 971.47 644.36 989.75 643.22C999.78 642.61 1008 638.29 1013.53 630.73C1029.66 608.67 1018.86 565.21 989.44 533.87C971.14 514.37 949.29 503.39 930.99 504.52C920.96 505.13 912.74 509.45 907.21 517.01Z" fill="white"/>
<path d="M984.08 648.74C982.59 648.74 981.08 648.66 979.54 648.52C959.35 646.55 937.47 632.06 921.01 609.76C894.3 573.58 890.18 528.04 911.83 508.25C919.51 501.23 929.67 498.12 941.21 499.24C961.4 501.21 983.28 515.7 999.74 538C1026.45 574.18 1030.57 619.72 1008.92 639.51C1002.27 645.59 993.75 648.75 984.08 648.75V648.74ZM912.9 509.42C891.84 528.68 896.05 573.27 922.29 608.81C938.49 630.76 959.95 645.01 979.7 646.93C990.78 648.01 1000.52 645.03 1007.85 638.33C1028.91 619.07 1024.7 574.49 998.46 538.94C982.26 516.99 960.8 502.74 941.05 500.82C929.97 499.74 920.24 502.72 912.9 509.42Z" fill="white"/>
<path d="M980.16 652.05C975.95 652.05 971.58 651.47 967.11 650.3C946.22 644.84 925.65 627.22 912.08 603.18C889.55 563.25 892.87 517.61 919.47 501.44C929.2 495.53 941.01 494.15 953.62 497.44C974.51 502.9 995.08 520.52 1008.65 544.56C1031.18 584.49 1027.87 630.13 1001.26 646.3C994.98 650.12 987.83 652.05 980.15 652.05H980.16ZM920.3 502.8C894.42 518.52 891.35 563.2 913.47 602.4C926.83 626.08 947.03 643.41 967.51 648.77C979.7 651.95 991.08 650.64 1000.44 644.95C1026.32 629.23 1029.39 584.55 1007.27 545.35C993.91 521.67 973.71 504.33 953.23 498.98C941.04 495.8 929.66 497.11 920.3 502.8Z" fill="white"/>
<path d="M975.79 654.71C948.09 654.71 918.13 631.12 903.62 595.28C893.5 570.29 892.74 543.32 901.59 523.12C907.4 509.85 916.82 500.45 928.83 495.92C960.12 484.13 999.72 509.49 1017.12 552.46C1027.24 577.45 1028 604.42 1019.15 624.62C1013.34 637.89 1003.92 647.29 991.91 651.82C986.72 653.78 981.3 654.71 975.79 654.71ZM929.4 497.41C917.8 501.78 908.69 510.89 903.05 523.76C894.37 543.57 895.14 570.08 905.1 594.68C922.18 636.85 960.87 661.82 991.35 650.33C1002.95 645.96 1012.06 636.85 1017.7 623.98C1026.38 604.17 1025.61 577.66 1015.65 553.06C998.57 510.89 959.88 485.92 929.4 497.41Z" fill="white"/>
<path d="M971.16 656.71C938.65 656.71 906.21 627.17 895.88 586.15C889.46 560.66 892.62 535.34 904.54 516.67C913.11 503.24 925.31 494.69 939.8 491.94C975.35 485.2 1013.51 516.44 1024.87 561.58C1031.29 587.07 1028.13 612.39 1016.21 631.06C1007.64 644.49 995.44 653.04 980.96 655.79C977.71 656.41 974.44 656.71 971.17 656.71H971.16ZM940.09 493.51C926.04 496.18 914.21 504.48 905.88 517.53C894.19 535.83 891.11 560.7 897.42 585.77C908.58 630.11 945.94 660.82 980.65 654.24C994.7 651.57 1006.53 643.27 1014.86 630.22C1026.55 611.92 1029.63 587.05 1023.32 561.98C1012.16 517.64 974.82 486.93 940.09 493.51Z" fill="white"/>
<path d="M966.82 658.03C928.24 658.03 893.58 621.61 889.12 575.92C886.69 551.06 893.65 527.33 908.2 510.83C919.78 497.7 935.42 490.21 952.22 489.74C991.5 488.63 1027.11 525.47 1031.63 571.83C1034.06 596.7 1027.1 620.42 1012.55 636.92C1000.97 650.05 985.33 657.54 968.53 658.01C967.96 658.03 967.39 658.03 966.82 658.03ZM953.94 491.3C953.38 491.3 952.83 491.3 952.27 491.32C935.91 491.78 920.68 499.08 909.39 511.88C895.13 528.05 888.32 551.33 890.7 575.76C895.08 620.64 929.04 656.43 966.82 656.44C967.38 656.44 967.93 656.44 968.49 656.42C984.85 655.96 1000.08 648.66 1011.37 635.87C1025.63 619.7 1032.44 596.42 1030.06 571.99C1025.68 527.11 991.73 491.31 953.94 491.31V491.3Z" fill="white"/>
<path d="M963.23 658.75C960.45 658.75 957.65 658.58 954.84 658.25C912.53 653.19 880.57 611.25 883.6 564.74C885.14 541.1 895.73 519.48 912.65 505.41C927.76 492.85 946.68 487.2 965.92 489.49C1008.23 494.55 1040.19 536.49 1037.17 583C1035.63 606.64 1025.04 628.26 1008.12 642.33C995.21 653.06 979.53 658.75 963.24 658.75H963.23ZM957.53 490.59C941.61 490.59 926.29 496.15 913.67 506.64C897.08 520.43 886.7 541.64 885.19 564.85C882.22 610.52 913.55 651.72 955.04 656.67C973.84 658.92 992.33 653.39 1007.1 641.11C1023.69 627.32 1034.07 606.11 1035.58 582.9C1038.55 537.23 1007.22 496.03 965.73 491.08C962.99 490.75 960.25 490.59 957.53 490.59Z" fill="white"/>
<path d="M960.86 659.02C953.95 659.02 946.99 658.14 940.12 656.34C895.57 644.73 868.41 598.29 879.57 552.82C885.04 530.52 898.75 511.87 918.17 500.3C937.12 489 959.31 485.84 980.64 491.4C1025.19 503.01 1052.35 549.45 1041.19 594.92C1035.72 617.22 1022.01 635.87 1002.59 647.44C989.74 655.1 975.41 659.02 960.87 659.02H960.86ZM959.89 490.31C945.63 490.31 931.58 494.15 918.98 501.66C899.93 513.02 886.48 531.32 881.11 553.2C870.15 597.83 896.8 643.41 940.52 654.8C961.43 660.25 983.19 657.15 1001.77 646.07C1020.82 634.71 1034.27 616.41 1039.64 594.53C1050.6 549.9 1023.95 504.32 980.24 492.93C973.5 491.17 966.68 490.31 959.9 490.31H959.89Z" fill="white"/>
<path d="M960.02 659C948.19 659 936.19 656.81 924.66 652.17C901.82 642.99 884.43 625.88 875.69 603.99C867.43 583.32 868 560.74 877.29 540.42C897 497.27 950.3 477.15 996.11 495.57C1018.95 504.75 1036.34 521.86 1045.08 543.75C1053.34 564.42 1052.77 587 1043.48 607.32C1028.73 639.61 995.17 659 960.02 659ZM960.72 490.33C926.17 490.33 893.21 509.37 878.72 541.08C869.62 561.01 869.06 583.14 877.15 603.4C885.73 624.88 902.81 641.67 925.24 650.69C970.27 668.79 1022.66 649.04 1042.02 606.66C1051.12 586.73 1051.68 564.6 1043.59 544.34C1035.01 522.86 1017.93 506.07 995.5 497.05C984.16 492.49 972.34 490.33 960.72 490.33Z" fill="white"/>
<path d="M961.82 659.07C943.7 659.07 925.29 654.73 908.77 645.63C885.59 632.87 869.29 612.18 864.05 588.88C859.27 567.65 863.85 545.96 876.93 527.8C905.4 488.3 965.99 476.77 1011.98 502.11C1035.16 514.87 1051.46 535.56 1056.7 558.86C1061.48 580.09 1056.9 601.78 1043.82 619.94C1025.57 645.25 994.14 659.08 961.81 659.08L961.82 659.07ZM958.91 490.25C927.08 490.25 896.16 503.84 878.22 528.74C865.4 546.52 860.92 567.76 865.6 588.54C870.75 611.4 886.76 631.7 909.54 644.25C954.86 669.21 1014.52 657.89 1042.54 619.02C1055.36 601.24 1059.84 580 1055.16 559.22C1050.02 536.36 1034 516.06 1011.22 503.51C994.93 494.54 976.78 490.25 958.91 490.25Z" fill="white"/>
<path d="M966.63 659.64C940.78 659.64 914.32 652.04 892.84 636.69C869.97 620.34 855.97 597.19 854.45 573.18C853.08 551.62 861.69 531.06 878.7 515.3C915.95 480.77 982.89 478.87 1027.92 511.06C1050.79 527.41 1064.79 550.56 1066.31 574.57C1067.68 596.13 1059.07 616.69 1042.06 632.45C1022.58 650.51 994.97 659.64 966.63 659.64ZM954.11 489.67C926.17 489.67 898.97 498.67 879.78 516.46C863.13 531.9 854.69 552 856.03 573.08C857.53 596.62 871.28 619.33 893.76 635.4C938.21 667.17 1004.25 665.32 1040.97 631.28C1057.62 615.84 1066.06 595.74 1064.72 574.66C1063.22 551.12 1049.47 528.41 1026.99 512.34C1005.77 497.17 979.63 489.67 954.11 489.67Z" fill="white"/>
<path d="M974.4 661.16C939.49 661.16 903.06 648.75 877.25 625.37C855.69 605.84 844.58 581.01 846.77 557.25C848.78 535.46 861.54 516.27 882.71 503.22C928.53 474.97 1000.65 483.56 1043.49 522.37C1065.05 541.9 1076.16 566.73 1073.97 590.49C1071.96 612.28 1059.2 631.47 1038.03 644.52C1019.81 655.75 997.43 661.16 974.39 661.16H974.4ZM946.37 488.15C923.62 488.15 901.53 493.49 883.55 504.57C862.82 517.35 850.32 536.11 848.36 557.39C846.22 580.65 857.14 605 878.33 624.19C903.85 647.31 939.88 659.59 974.39 659.59C997.14 659.59 1019.23 654.25 1037.21 643.17C1057.94 630.39 1070.44 611.63 1072.4 590.35C1074.54 567.09 1063.62 542.74 1042.43 523.55C1016.91 500.43 980.88 488.15 946.37 488.15Z" fill="white"/>
<path d="M984.42 664.04C939.47 664.04 891.21 644.64 862.46 611.76C842.85 589.34 835.19 564.3 840.9 541.24C846.34 519.27 863.44 501.76 889.06 491.93C943.01 471.22 1018.92 490.98 1058.29 535.98C1077.9 558.4 1085.56 583.44 1079.85 606.5C1074.41 628.46 1057.31 645.98 1031.69 655.81C1017.15 661.39 1001.01 664.04 984.42 664.04ZM936.38 485.28C919.97 485.28 904.01 487.89 889.63 493.42C864.51 503.06 847.75 520.19 842.44 541.63C836.86 564.17 844.39 588.7 863.65 610.72C902.61 655.26 977.74 674.83 1031.11 654.33C1056.23 644.69 1072.99 627.56 1078.3 606.12C1083.88 583.58 1076.35 559.05 1057.09 537.03C1028.63 504.49 980.86 485.28 936.38 485.28Z" fill="white"/>
<path d="M995.56 668.52C939.97 668.52 878.5 639.29 848.89 596C832.3 571.74 827.99 546.58 836.77 525.17C845.81 503.12 867.47 487.71 897.78 481.78C959.17 469.77 1037.27 501.16 1071.87 551.74C1088.46 576 1092.77 601.16 1083.99 622.57C1074.95 644.62 1053.29 660.03 1022.98 665.96C1014.13 667.69 1004.93 668.52 995.56 668.52ZM925.25 480.8C915.97 480.8 906.86 481.62 898.08 483.34C868.31 489.16 847.06 504.23 838.23 525.77C829.66 546.67 833.91 571.3 850.19 595.1C884.46 645.21 961.83 676.29 1022.66 664.4C1052.43 658.58 1073.68 643.51 1082.51 621.97C1091.08 601.07 1086.82 576.44 1070.55 552.64C1041.22 509.76 980.32 480.8 925.25 480.8Z" fill="white"/>
<path d="M1006.8 674.71C940.1 674.71 864.82 632.29 837 578.31C823.95 553 823.04 528.37 834.43 508.97C847.13 487.34 874.25 474.27 908.84 473.12C976.77 470.88 1055.23 514.07 1083.76 569.44C1096.81 594.75 1097.72 619.38 1086.33 638.78C1073.63 660.41 1046.51 673.48 1011.92 674.63C1010.22 674.69 1008.51 674.71 1006.8 674.71ZM913.97 474.62C912.27 474.62 910.58 474.65 908.89 474.7C874.86 475.83 848.22 488.61 835.8 509.76C824.7 528.67 825.62 552.75 838.41 577.57C866.69 632.44 944.52 675.29 1011.86 673.02C1045.89 671.89 1072.53 659.11 1084.95 637.96C1096.05 619.05 1095.12 594.96 1082.34 570.15C1054.77 516.66 980.12 474.61 913.97 474.61V474.62Z" fill="white"/>
<path d="M1016.97 682.53C1011.05 682.53 1004.91 682.17 998.59 681.45C925.32 673.05 848.45 618.11 827.24 558.97C818.05 533.36 820.49 509.8 834.09 492.64C850.92 471.41 883.02 461.81 922.17 466.3C995.44 474.7 1072.31 529.64 1093.52 588.78C1102.71 614.39 1100.27 637.95 1086.67 655.11C1072.56 672.91 1047.71 682.53 1016.98 682.53H1016.97ZM903.76 466.8C873.52 466.8 849.13 476.21 835.33 493.62C822.08 510.34 819.74 533.35 828.73 558.43C849.76 617.06 926.04 671.53 998.77 679.86C1037.36 684.29 1068.94 674.9 1085.42 654.11C1098.67 637.4 1101.01 614.38 1092.02 589.3C1070.99 530.67 994.71 476.2 921.98 467.87C915.71 467.15 909.63 466.8 903.76 466.8Z" fill="white"/>
<path d="M1025 691.76C1012.03 691.76 997.95 689.89 983.14 686.11C905.93 666.36 832.76 600.07 820.04 538.34C814.76 512.72 820.29 491.25 836.04 476.23C857.35 455.9 894.37 450.58 937.61 461.64C1014.82 481.39 1087.99 547.68 1100.71 609.41C1105.99 635.03 1100.46 656.5 1084.71 671.52C1070.7 684.89 1049.89 691.76 1025 691.76ZM895.73 457.57C871.26 457.57 850.85 464.3 837.14 477.38C821.82 492 816.44 512.96 821.6 538.02C834.21 599.21 906.85 664.95 983.53 684.57C1026.22 695.49 1062.7 690.32 1083.61 670.37C1098.93 655.75 1104.31 634.79 1099.15 609.73C1086.54 548.54 1013.9 482.8 937.22 463.18C922.53 459.42 908.57 457.57 895.74 457.57H895.73Z" fill="white"/>
<path d="M1029.92 701.81C1010.42 701.81 988.47 697.31 965.78 688.29C886.26 656.71 818.99 579.78 815.84 516.82C814.6 492.11 823.2 472.43 840.69 459.9C866.48 441.44 909.2 441.27 954.97 459.45C1034.5 491.03 1101.76 567.96 1104.91 630.92C1106.15 655.63 1097.55 675.31 1080.05 687.84C1067.05 697.15 1049.74 701.81 1029.91 701.81H1029.92ZM890.82 447.51C871.33 447.51 854.35 452.07 841.61 461.19C824.57 473.39 816.21 492.6 817.42 516.74C820.55 579.14 887.36 655.44 966.36 686.81C1011.63 704.79 1053.79 704.69 1079.13 686.55C1096.17 674.35 1104.53 655.14 1103.32 631C1100.19 568.6 1033.38 492.3 954.38 460.92C931.86 451.98 910.11 447.5 890.81 447.5L890.82 447.51Z" fill="white"/>
<path d="M1032.24 712.6C1006.62 712.6 976.86 704.15 946.77 687.74C866.77 644.11 807.64 557.6 814.96 494.9C817.69 471.5 829.29 453.88 848.49 443.94C879.35 427.97 926.25 433.97 973.96 460C1053.96 503.63 1113.09 590.14 1105.77 652.84C1103.04 676.24 1091.44 693.86 1072.24 703.8C1060.84 709.7 1047.25 712.6 1032.24 712.6ZM888.52 436.72C873.76 436.72 860.42 439.56 849.23 445.35C830.52 455.03 819.22 472.23 816.55 495.08C809.3 557.19 868.06 642.99 947.54 686.34C994.79 712.11 1041.13 718.11 1071.52 702.38C1090.23 692.7 1101.53 675.5 1104.2 652.65C1111.45 590.54 1052.69 504.74 973.21 461.39C943.36 445.11 913.85 436.72 888.52 436.72Z" fill="white"/>
<path d="M1031.48 723.5C999.87 723.5 962.57 709.82 926.48 684.24C848.01 628.62 799.25 533.91 817.78 473.12C824.43 451.31 839.04 435.99 860.03 428.82C896.06 416.51 946.25 429.48 994.28 463.53C1072.75 519.15 1121.51 613.86 1102.98 674.65C1096.33 696.46 1081.72 711.78 1060.73 718.95C1051.77 722.01 1041.94 723.51 1031.49 723.51L1031.48 723.5ZM889.3 425.83C879.01 425.83 869.35 427.3 860.54 430.31C840.05 437.31 825.79 452.27 819.3 473.57C800.95 533.76 849.45 627.68 927.4 682.94C963.22 708.33 1000.2 721.91 1031.45 721.92C1041.74 721.92 1051.4 720.45 1060.21 717.44C1080.7 710.44 1094.96 695.48 1101.45 674.18C1119.8 613.99 1071.3 520.07 993.35 464.82C957.53 439.43 920.55 425.84 889.29 425.84L889.3 425.83Z" fill="white"/>
<path d="M1028.01 734.05C990.14 734.05 945.56 713.78 905.29 677.6C830.5 610.38 794.25 509.19 824.49 452.02C835.09 431.99 852.84 419.24 875.82 415.15C916.81 407.86 969.01 428.42 1015.45 470.16C1090.24 537.38 1126.49 638.57 1096.25 695.74C1085.65 715.77 1067.9 728.52 1044.92 732.61C1039.47 733.58 1033.81 734.06 1028 734.06L1028.01 734.05ZM892.77 415.28C887.04 415.28 881.48 415.75 876.11 416.71C853.62 420.71 836.26 433.18 825.9 452.76C795.98 509.32 832.07 609.65 906.35 676.41C952.43 717.82 1004.13 738.24 1044.64 731.03C1067.13 727.03 1084.49 714.56 1094.85 694.98C1124.77 638.42 1088.68 538.09 1014.4 471.33C974.43 435.41 930.23 415.28 892.77 415.28Z" fill="white"/>
<path d="M1022.31 743.89C977.51 743.89 925.86 715.55 883.68 667.72C814.8 589.62 793.1 483.98 835.3 432.23C850.03 414.17 871.17 404.36 896.42 403.87C941.66 403.01 994.27 431.46 1037.08 480.02C1105.96 558.12 1127.66 663.76 1085.46 715.51C1070.73 733.57 1049.59 743.38 1024.34 743.87C1023.67 743.88 1022.99 743.89 1022.31 743.89ZM898.45 405.44C897.78 405.44 897.11 405.44 896.45 405.46C871.68 405.94 850.96 415.54 836.53 433.23C794.8 484.4 816.48 589.12 884.87 666.66C926.75 714.15 977.96 742.29 1022.31 742.29C1022.98 742.29 1023.65 742.29 1024.31 742.27C1049.08 741.79 1069.8 732.19 1084.23 714.5C1125.96 663.33 1104.28 558.61 1035.89 481.07C994.01 433.58 942.8 405.44 898.45 405.44Z" fill="white"/>
<path d="M1014.33 752.7C1009.23 752.7 1004.01 752.33 998.68 751.58C950.43 744.82 899.39 708.56 862.15 654.58C801.48 566.65 796.14 458.89 850.26 414.37C869.49 398.55 894.32 392.25 922.08 396.14C970.33 402.9 1021.37 439.16 1058.61 493.14C1119.28 581.07 1124.62 688.83 1070.5 733.35C1054.97 746.13 1035.77 752.69 1014.33 752.69V752.7ZM906.43 396.63C885.35 396.63 866.5 403.07 851.26 415.61C797.77 459.61 803.24 566.41 863.45 653.69C900.44 707.3 951.08 743.31 998.9 750.01C1026.21 753.84 1050.62 747.65 1069.49 732.13C1122.98 688.13 1117.51 581.32 1057.3 494.05C1020.31 440.44 969.67 404.43 921.85 397.73C916.6 396.99 911.45 396.63 906.43 396.63Z" fill="white"/>
<path d="M1004.63 760.19C992.85 760.19 980.59 758.28 968.08 754.44C918.68 739.3 871.27 695.86 841.27 638.25C791.08 541.89 803.67 434.6 869.34 399.1C893.56 386.01 922.37 384 952.68 393.29C1002.08 408.43 1049.49 451.87 1079.49 509.48C1129.68 605.84 1117.09 713.13 1051.42 748.63C1037.2 756.32 1021.39 760.18 1004.63 760.18V760.19ZM916.13 389.14C899.62 389.14 884.07 392.94 870.09 400.5C805.18 435.59 792.88 541.92 842.68 637.51C872.5 694.75 919.55 737.9 968.55 752.92C998.44 762.08 1026.84 760.12 1050.67 747.23C1115.58 712.14 1127.88 605.81 1078.08 510.22C1048.26 452.98 1001.21 409.83 952.21 394.81C939.86 391.02 927.76 389.14 916.13 389.14Z" fill="white"/>
<path d="M994.03 766.09C925.95 766.09 853.64 706.82 821.62 618.84C810.76 589 805.31 557.59 805.85 528C806.37 499.34 812.48 472.25 823.52 449.66C838.83 418.3 862.65 396.63 892.4 387C968.9 362.23 1061.64 425.88 1099.13 528.9C1109.99 558.74 1115.44 590.15 1114.9 619.74C1114.38 648.4 1108.27 675.49 1097.23 698.08C1081.92 729.44 1058.1 751.11 1028.35 760.74C1017.18 764.36 1005.66 766.09 994.03 766.09ZM926.76 383.24C915.27 383.24 903.91 384.95 892.89 388.52C863.56 398.02 840.07 419.4 824.95 450.36C802.37 496.61 801.68 559.39 823.12 618.3C860.32 720.52 952.17 783.74 1027.87 759.22C1057.2 749.72 1080.69 728.34 1095.81 697.38C1118.39 651.13 1119.08 588.35 1097.64 529.44C1065.85 442.1 994.17 383.23 926.77 383.23L926.76 383.24Z" fill="white"/>
<path d="M983.11 770.4C902.96 770.4 824.95 696.54 803.84 596.6C791.17 536.63 801.03 477.7 830.88 434.93C852.96 403.3 883.5 383.85 919.19 378.68C1005.48 366.18 1094.18 443.56 1116.91 551.16C1129.58 611.13 1119.72 670.06 1089.87 712.83C1067.79 744.46 1037.25 763.91 1001.56 769.08C995.42 769.97 989.25 770.4 983.11 770.4ZM937.66 378.93C931.58 378.93 925.5 379.36 919.42 380.24C884.17 385.35 854.01 404.57 832.18 435.83C802.58 478.24 792.81 536.72 805.39 596.26C827.95 703.06 915.85 779.88 1001.32 767.49C1036.57 762.38 1066.74 743.16 1088.56 711.9C1118.16 669.49 1127.93 611.01 1115.35 551.47C1094.39 452.27 1017.05 378.93 937.65 378.93H937.66Z" fill="white"/>
<path d="M973.2 773.12C972.6 773.12 971.99 773.12 971.39 773.11C876.66 771.95 794.63 681.66 788.52 571.82C785.29 513.75 804.02 458.95 839.9 421.48C869.32 390.76 908.18 374.11 949.35 374.62C1044.08 375.78 1126.11 466.07 1132.22 575.91C1135.45 633.98 1116.72 688.78 1080.84 726.24C1051.85 756.51 1013.69 773.11 973.2 773.11V773.12ZM947.55 376.21C907.5 376.21 869.75 392.64 841.06 422.59C805.48 459.74 786.91 514.1 790.12 571.74C796.18 680.75 877.51 770.38 971.42 771.52C972.02 771.52 972.61 771.53 973.21 771.53C1013.26 771.53 1051.01 755.1 1079.7 725.15C1115.28 688 1133.85 633.64 1130.64 576C1124.58 466.98 1043.25 377.36 949.34 376.22C948.74 376.22 948.14 376.21 947.55 376.21Z" fill="white"/>
<path d="M965.33 774.5C956.38 774.5 947.36 773.8 938.34 772.38C836.86 756.42 764.17 654.4 776.3 544.95C779.4 516.93 787.71 490.68 800.98 466.93C813.81 443.98 830.61 424.47 850.94 408.95C888.94 379.93 935.63 368 982.41 375.35C1083.89 391.31 1156.58 493.33 1144.45 602.78C1141.35 630.8 1133.04 657.05 1119.77 680.8C1106.94 703.75 1090.14 723.26 1069.81 738.78C1039.14 762.2 1002.8 774.5 965.33 774.5ZM938.59 770.81C984.94 778.1 1031.19 766.28 1068.85 737.52C1109.86 706.2 1136.84 657.02 1142.87 602.6C1154.9 493.99 1082.81 392.75 982.16 376.92C935.82 369.63 889.56 381.45 851.9 410.21C810.89 441.53 783.91 490.71 777.88 545.13C765.85 653.74 837.94 754.98 938.59 770.81Z" fill="white"/>
<path d="M960.64 774.96C941.37 774.96 921.99 772.16 903 766.5C796.79 734.87 736.11 622.72 767.74 516.5C799.38 410.28 911.53 349.61 1017.74 381.24C1069.19 396.56 1111.6 431.01 1137.15 478.23C1162.7 525.45 1168.33 579.79 1153 631.24C1137.68 682.69 1103.23 725.1 1056.01 750.65C1026.22 766.77 993.59 774.96 960.64 774.96ZM903.46 764.97C954.5 780.17 1008.42 774.59 1055.26 749.24C1102.11 723.9 1136.28 681.82 1151.48 630.78C1166.68 579.73 1161.1 525.82 1135.75 478.98C1110.41 432.14 1068.33 397.96 1017.29 382.76C911.91 351.38 800.65 411.57 769.27 516.95C737.89 622.33 798.08 733.59 903.46 764.97Z" fill="white"/>
</g>
<g opacity="0.35">
<path d="M1030.25 700.52C1012.34 700.52 992.32 696.74 971.18 689.15C891.28 660.44 821.51 585.48 815.66 522.05C813.33 496.8 821.2 476.4 838.42 463.07C863.53 443.63 904.41 441.99 950.6 458.59C1030.5 487.3 1100.27 562.26 1106.12 625.69C1108.45 650.94 1100.58 671.34 1083.36 684.67C1069.74 695.21 1051.48 700.52 1030.25 700.52ZM891.53 448.81C870.66 448.81 852.74 454.01 839.4 464.33C822.63 477.31 814.97 497.22 817.25 521.91C823.05 584.78 892.34 659.14 971.72 687.66C1017.38 704.06 1057.72 702.52 1082.39 683.42C1099.16 670.44 1106.82 650.53 1104.54 625.84C1098.74 562.96 1029.45 488.61 950.07 460.09C929.1 452.56 909.25 448.81 891.53 448.81Z" fill="white"/>
<path d="M1033.2 711.11C1008.92 711.11 980.92 703.76 952.39 689.35C871.49 648.5 809.35 563.54 813.86 499.96C815.56 475.94 826.48 457.56 845.42 446.81C875.22 429.9 921.56 434.23 969.39 458.38C1050.29 499.23 1112.43 584.19 1107.92 647.77C1106.22 671.79 1095.3 690.17 1076.36 700.92C1064.34 707.74 1049.62 711.11 1033.2 711.11ZM888.59 438.21C872.45 438.21 858 441.51 846.2 448.2C827.74 458.67 817.11 476.61 815.44 500.08C810.97 563.08 872.73 647.35 953.1 687.93C1000.46 711.84 1046.24 716.18 1075.57 699.54C1094.03 689.07 1104.66 671.13 1106.33 647.66C1110.8 584.67 1049.04 500.39 968.67 459.81C940.35 445.51 912.6 438.21 888.59 438.21Z" fill="white"/>
<path d="M1033.23 722.14C1002.91 722.14 967.21 709.85 932.2 686.62C852.3 633.61 800.03 539.96 815.69 477.86C821.36 455.38 835.3 439.26 856.02 431.25C891.04 417.7 940.98 428.87 989.6 461.13C1069.5 514.14 1121.77 607.79 1106.11 669.89C1100.44 692.37 1086.5 708.49 1065.78 716.5C1055.98 720.29 1045.01 722.15 1033.24 722.15L1033.23 722.14ZM888.58 427.18C876.99 427.18 866.21 429 856.58 432.73C836.37 440.55 822.76 456.29 817.22 478.25C801.72 539.75 853.68 632.63 933.07 685.3C981.26 717.27 1030.65 728.38 1065.2 715.02C1085.41 707.2 1099.02 691.46 1104.56 669.5C1120.07 608 1068.1 515.12 988.71 462.45C953.95 439.39 918.57 427.19 888.58 427.19V427.18Z" fill="white"/>
<path d="M1030.4 732.93C993.87 732.93 950.75 714.36 910.98 680.76C834.21 615.9 794.02 515.21 821.4 456.3C831.04 435.57 848.11 421.97 870.77 416.97C910.9 408.12 963.25 426.81 1010.8 466.98C1087.57 531.84 1127.76 632.53 1100.38 691.44C1090.74 712.17 1073.67 725.77 1051.01 730.77C1044.44 732.22 1037.55 732.93 1030.4 732.93ZM891.41 416.39C884.37 416.39 877.58 417.09 871.12 418.52C848.96 423.41 832.27 436.7 822.85 456.97C795.75 515.27 835.75 615.12 912.01 679.55C951.49 712.9 994.24 731.35 1030.37 731.35C1037.41 731.35 1044.2 730.65 1050.66 729.22C1072.82 724.33 1089.51 711.04 1098.93 690.77C1126.03 632.47 1086.03 532.62 1009.77 468.19C970.29 434.84 927.54 416.39 891.41 416.39Z" fill="white"/>
<path d="M1025.19 743.1C981.87 743.1 931.56 716.79 889.21 671.66C817.81 595.58 791.79 489.81 831.21 435.9C844.96 417.1 865.37 406.36 890.25 404.83C934.94 402.11 988.14 428.73 1032.58 476.08C1103.98 552.16 1130 657.93 1090.58 711.84C1076.83 730.64 1056.42 741.38 1031.54 742.9C1029.45 743.03 1027.33 743.09 1025.2 743.09L1025.19 743.1ZM896.61 406.23C894.5 406.23 892.42 406.29 890.35 406.42C865.96 407.91 845.95 418.43 832.5 436.84C793.51 490.17 819.47 595.02 890.37 670.58C932.42 715.39 982.31 741.51 1025.18 741.52C1027.29 741.52 1029.37 741.46 1031.44 741.33C1055.83 739.84 1075.84 729.32 1089.3 710.91C1128.29 657.58 1102.33 552.73 1031.43 477.17C989.38 432.36 939.49 406.23 896.62 406.23H896.61Z" fill="white"/>
<path d="M1017.75 752.32C1014.22 752.32 1010.63 752.14 1006.98 751.79C958.87 747.1 906.68 712.52 867.38 659.28C803.65 572.94 793.7 464.39 845.21 417.3C863.38 400.68 887.45 393.3 914.81 395.97C962.92 400.66 1015.11 435.24 1054.41 488.48C1118.14 574.82 1128.08 683.37 1076.58 730.46C1060.83 744.86 1040.66 752.32 1017.75 752.32ZM904.05 397.02C881.54 397.02 861.73 404.34 846.28 418.46C795.36 465.02 805.4 572.62 868.66 658.32C907.7 711.21 959.46 745.55 1007.13 750.2C1034.03 752.81 1057.67 745.59 1075.51 729.28C1126.43 682.72 1116.39 575.12 1053.13 489.42C1014.09 436.53 962.33 402.19 914.66 397.54C911.06 397.19 907.53 397.02 904.05 397.02Z" fill="white"/>
<path d="M1008.35 760.26C998.35 760.26 987.97 758.88 977.35 756.1C927.54 743.08 878.46 701.03 846.06 643.6C792.31 548.34 800.09 439.55 863.4 401.09C886.47 387.07 914.5 383.8 944.46 391.63C994.27 404.65 1043.35 446.7 1075.75 504.13C1129.5 599.39 1121.72 708.18 1058.41 746.64C1043.52 755.69 1026.56 760.26 1008.36 760.26H1008.35ZM913.45 389.07C895.53 389.07 878.85 393.56 864.22 402.45C801.64 440.47 794.11 548.3 847.44 642.82C879.63 699.88 928.34 741.65 977.75 754.56C1007.28 762.27 1034.88 759.07 1057.58 745.28C1120.16 707.26 1127.69 599.43 1074.36 504.91C1042.17 447.85 993.45 406.08 944.05 393.17C933.56 390.43 923.32 389.07 913.45 389.07Z" fill="white"/>
<path d="M997.84 766.65C931.87 766.65 860.44 710.33 825.81 624.81C801.65 565.15 799.83 500.78 820.92 452.61C834.73 421.07 857.11 398.72 885.63 387.97C960.11 359.9 1054.46 420.45 1095.96 522.95C1120.12 582.61 1121.94 646.98 1100.85 695.15C1087.04 726.69 1064.66 749.05 1036.14 759.8C1023.81 764.45 1010.93 766.67 997.84 766.67V766.65ZM923.99 382.68C911.07 382.68 898.37 384.87 886.2 389.45C858.09 400.05 836.02 422.11 822.38 453.24C801.45 501.02 803.29 564.93 827.28 624.2C861.66 709.11 932.47 765.05 997.79 765.06C1010.71 765.06 1023.41 762.87 1035.58 758.29C1063.69 747.69 1085.76 725.63 1099.4 694.5C1120.33 646.72 1118.49 582.81 1094.5 523.54C1060.12 438.63 989.31 382.68 923.99 382.68Z" fill="white"/>
<path d="M986.75 771.44C909.29 771.44 831.93 700.94 807.29 603.05C791.97 542.22 799.5 481.79 827.93 437.28C848.33 405.34 877.31 385.01 911.76 378.47C996.45 362.41 1087.4 436.97 1114.51 544.68C1129.83 605.51 1122.3 665.94 1093.87 710.45C1073.47 742.39 1044.49 762.72 1010.04 769.26C1002.31 770.73 994.53 771.44 986.75 771.44ZM935.06 377.89C927.37 377.89 919.68 378.59 912.04 380.04C878.04 386.49 849.41 406.58 829.26 438.14C801.06 482.29 793.62 542.26 808.83 602.67C833.29 699.84 909.99 769.85 986.73 769.86C994.42 769.86 1002.11 769.16 1009.75 767.71C1043.75 761.26 1072.38 741.17 1092.53 709.61C1120.73 665.46 1128.17 605.49 1112.96 545.08C1088.5 447.91 1011.8 377.89 935.06 377.89Z" fill="white"/>
<path d="M976.35 774.61C884.37 774.61 801.73 687.69 791.09 578.68C785.3 519.35 801.88 462.76 836.58 423.42C864.15 392.16 901.37 374.32 941.36 373.21C1034.95 370.58 1119.9 458.46 1130.69 569.09C1136.48 628.42 1119.9 685.01 1085.2 724.35C1057.62 755.61 1020.41 773.45 980.42 774.56C979.06 774.6 977.7 774.62 976.34 774.62L976.35 774.61ZM941.41 374.78C901.86 375.89 865.05 393.53 837.77 424.46C803.36 463.47 786.92 519.63 792.67 578.52C803.23 686.73 885.16 773.02 976.34 773.02C977.68 773.02 979.03 773 980.37 772.96C1019.92 771.85 1056.73 754.21 1084.01 723.28C1118.42 684.27 1134.86 628.12 1129.11 569.22C1118.39 459.41 1034.15 372.18 941.41 374.78Z" fill="white"/>
<path d="M967.73 776.33C961.1 776.33 954.43 775.93 947.75 775.14C846.84 763.08 770.63 663 777.85 552.05C781.52 495.66 806.77 444.08 847.13 410.54C883.14 380.61 928.21 367.14 974.04 372.62C1074.95 384.68 1151.16 484.75 1143.94 595.71C1140.27 652.1 1115.02 703.68 1074.66 737.22C1043.9 762.78 1006.54 776.34 967.74 776.34L967.73 776.33ZM954.06 373C915.63 373 878.62 386.43 848.15 411.75C808.13 445.01 783.08 496.18 779.44 552.14C772.27 662.27 847.86 761.59 947.94 773.55C993.33 778.97 1037.97 765.63 1073.64 735.98C1113.66 702.72 1138.71 651.55 1142.35 595.59C1149.52 485.46 1073.93 386.14 973.85 374.18C967.23 373.39 960.62 373 954.06 373Z" fill="white"/>
<path d="M962.06 776.98C945.57 776.98 928.98 774.87 912.59 770.6C806.33 742.91 741.54 632.13 768.17 523.66C781.23 470.48 813.92 425.98 860.23 398.37C905.43 371.43 958.34 363.89 1009.2 377.14C1115.46 404.83 1180.25 515.61 1153.62 624.08C1140.56 677.26 1107.87 721.76 1061.56 749.37C1030.92 767.63 996.74 776.98 962.06 776.98ZM959.73 372.35C925.33 372.35 891.43 381.62 861.04 399.74C815.1 427.13 782.66 471.27 769.71 524.04C743.29 631.67 807.56 741.59 912.99 769.07C963.44 782.22 1015.91 774.74 1060.74 748.01C1106.68 720.62 1139.12 676.48 1152.07 623.71C1178.49 516.08 1114.22 406.16 1008.79 378.68C992.54 374.44 976.07 372.35 959.72 372.35H959.73Z" fill="white"/>
<path d="M960.04 776.94C931.81 776.94 903.16 771.7 875.63 760.63C848.15 749.58 823.92 733.69 803.61 713.41C783.99 693.81 768.91 671.03 758.79 645.7C739.1 596.41 740.46 542.58 762.6 494.1C809.62 391.14 936.83 343.15 1046.16 387.11C1073.64 398.16 1097.87 414.05 1118.18 434.33C1137.8 453.93 1152.88 476.71 1163 502.04C1182.69 551.33 1181.33 605.17 1159.19 653.64C1124.01 730.67 1043.93 776.93 960.05 776.94H960.04ZM961.73 372.39C878.45 372.39 798.97 418.3 764.05 494.76C742.09 542.84 740.75 596.23 760.27 645.11C780.96 696.91 822.14 737.41 876.22 759.15C903.56 770.14 932.02 775.34 960.05 775.34C1043.33 775.34 1122.81 729.43 1157.73 652.97C1179.69 604.89 1181.03 551.5 1161.51 502.62C1140.82 450.82 1099.64 410.32 1045.56 388.58C1018.22 377.59 989.76 372.39 961.73 372.39Z" fill="white"/>
<path d="M964.29 777.25C919.95 777.25 876.27 766.27 837.65 745.01C809.41 729.46 785.7 709.46 767.17 685.57C749.27 662.48 737.07 636.93 730.93 609.63C719.54 559.03 730.45 507.32 761.65 464.04C794.59 418.35 846.27 386.81 907.19 375.24C968.09 363.67 1030.93 373.44 1084.13 402.74C1112.37 418.29 1136.08 438.29 1154.61 462.18C1172.51 485.27 1184.71 510.82 1190.85 538.12C1202.24 588.72 1191.33 640.43 1160.13 683.71C1127.19 729.4 1075.51 760.94 1014.59 772.51C997.89 775.68 981.04 777.25 964.28 777.25H964.29ZM957.39 372.2C880.71 372.2 806.19 404.96 762.94 464.96C732.01 507.87 721.19 559.12 732.48 609.27C744.89 664.4 783.5 713.36 838.42 743.61C947.59 803.73 1091.33 776.44 1158.84 682.77C1189.77 639.86 1200.59 588.61 1189.3 538.46C1176.89 483.33 1138.28 434.37 1083.36 404.12C1044.12 382.51 1000.42 372.19 957.39 372.19V372.2Z" fill="white"/>
<path d="M975.78 778.59C911.62 778.59 849.36 759.23 799.56 723.63C771.71 703.72 749.56 680.1 733.71 653.4C718.39 627.59 709.72 600.25 707.94 572.13C704.68 520.76 725.21 471.77 765.75 434.19C808.86 394.23 869.69 371.17 937.02 369.28C1004.35 367.37 1070.11 386.85 1122.23 424.11C1150.08 444.02 1172.23 467.64 1188.08 494.34C1203.4 520.15 1212.07 547.49 1213.85 575.61C1217.11 626.98 1196.58 675.97 1156.04 713.55C1112.93 753.51 1052.1 776.57 984.76 778.46C981.76 778.54 978.76 778.59 975.77 778.59H975.78ZM945.88 370.83C878.58 370.83 813.07 392.5 766.83 435.36C726.64 472.61 706.29 521.15 709.52 572.04C713.13 628.83 746.28 683.61 800.48 722.35C851.55 758.85 914.47 776.92 975.91 776.92C1043.21 776.92 1108.72 755.25 1154.96 712.39C1195.15 675.14 1215.5 626.6 1212.27 575.71C1208.66 518.92 1175.51 464.14 1121.31 425.4C1070.24 388.9 1007.31 370.83 945.88 370.83Z" fill="white"/>
<path d="M994.75 782.26C980.62 782.26 966.25 781.41 951.75 779.68C879.18 771.03 811.9 741.51 762.29 696.57C736.02 672.78 716.37 646.23 703.88 617.67C691.8 590.06 686.98 561.94 689.54 534.1C694.32 482.19 724.74 436.47 775.21 405.36C828.27 372.65 897.46 359.4 970.04 368.06C1042.61 376.71 1109.89 406.23 1159.5 451.17C1185.77 474.96 1205.42 501.51 1217.91 530.07C1229.99 557.68 1234.81 585.8 1232.25 613.64C1227.47 665.55 1197.05 711.27 1146.58 742.38C1104.12 768.55 1051.33 782.27 994.75 782.27V782.26ZM927.29 367.18C872.52 367.18 819.34 380.03 776.04 406.72C726.01 437.56 695.85 482.85 691.12 534.25C685.95 590.39 712.28 649.13 763.35 695.39C865.26 787.71 1036.8 808.18 1145.74 741.02C1195.77 710.18 1225.93 664.89 1230.66 613.49C1235.83 557.35 1209.5 498.61 1158.43 452.35C1097.02 396.72 1010.32 367.18 927.29 367.18Z" fill="white"/>
<path d="M1018.26 789.16C985.05 789.16 950.58 784.69 916.11 775.72C839.69 755.82 772.49 716.15 726.88 664.01C703.29 637.04 686.9 608.44 678.18 578.99C669.74 550.51 668.81 522.55 675.42 495.88C688.38 443.56 729.15 401.83 790.24 378.38C852.74 354.38 929.25 352.13 1005.67 372.02C1082.09 391.92 1149.29 431.59 1194.9 483.73C1218.49 510.7 1234.87 539.3 1243.6 568.75C1252.04 597.23 1252.97 625.19 1246.36 651.86C1233.4 704.18 1192.62 745.91 1131.53 769.36C1097.22 782.53 1058.68 789.16 1018.25 789.16H1018.26ZM903.31 360.29C863.82 360.29 825.43 366.58 790.82 379.87C730.23 403.13 689.8 444.47 676.97 496.27C663.49 550.69 681.65 609.89 728.08 662.97C821.81 770.12 1002.55 817.19 1130.97 767.88C1191.56 744.62 1231.99 703.28 1244.82 651.48C1258.29 597.07 1240.14 537.86 1193.71 484.78C1125.24 406.51 1010.33 360.29 903.32 360.29H903.31Z" fill="white"/>
<path d="M1044.7 799.84C990.92 799.84 933.78 788.43 878.54 766.23C799.9 734.63 734.51 684.94 694.42 626.31C654.84 568.44 644.55 508.47 665.46 457.47C675.92 431.95 693.59 410.04 717.98 392.37C743.2 374.1 774.49 361.21 810.97 354.08C882.12 340.16 964.62 349.9 1043.25 381.5C1121.89 413.1 1187.28 462.79 1227.37 521.42C1266.95 579.29 1277.24 639.26 1256.33 690.26C1245.87 715.78 1228.2 737.69 1203.81 755.36C1178.59 773.63 1147.3 786.52 1110.81 793.65C1089.64 797.79 1067.46 799.84 1044.69 799.84H1044.7ZM876.61 349.54C854.29 349.54 832.38 351.52 811.28 355.64C739.51 369.68 688.24 406.06 666.93 458.07C646.24 508.56 656.47 567.99 695.74 625.41C766.28 728.55 912.74 798.18 1045.2 798.19C1067.52 798.19 1089.43 796.21 1110.53 792.09C1182.3 778.05 1233.57 741.67 1254.88 689.66C1275.57 639.17 1265.34 579.74 1226.07 522.32C1155.53 419.18 1009.07 349.54 876.61 349.54Z" fill="white"/>
<path d="M1072.07 814.61C996.68 814.61 914.73 792.23 839.82 751C760.78 707.49 699.03 648.18 665.96 584.01C634.85 523.65 632.65 464.96 659.77 418.78C674.64 393.46 697.34 373.14 727.26 358.41C758.18 343.18 795.21 334.75 837.32 333.35C916.05 330.75 1002.93 353.26 1081.96 396.76C1161 440.27 1222.75 499.58 1255.82 563.75C1286.93 624.11 1289.13 682.79 1262.01 728.98C1247.14 754.3 1224.44 774.61 1194.52 789.35C1163.6 804.58 1126.57 813.01 1084.46 814.41C1080.35 814.55 1076.21 814.61 1072.06 814.61H1072.07ZM849.58 334.72C845.49 334.72 841.43 334.79 837.37 334.92C755.36 337.64 691.13 368.5 661.14 419.57C634.31 465.27 636.52 523.41 667.37 583.27C733.66 711.91 913.16 813 1072.2 813.01C1076.29 813.01 1080.35 812.94 1084.41 812.81C1166.42 810.09 1230.65 779.23 1260.64 728.16C1287.47 682.46 1285.26 624.32 1254.41 564.46C1188.12 435.82 1008.62 334.72 849.58 334.72Z" fill="white"/>
<path d="M1096.65 833.37C1082.49 833.37 1067.8 832.52 1052.67 830.78C967.72 821.05 878.3 785.22 800.86 729.89C723.4 674.55 667.2 606.31 642.61 537.75C620.71 476.69 626.48 420.57 658.86 379.72C698.97 329.12 775.6 306.25 869.11 316.96C954.06 326.69 1043.49 362.52 1120.92 417.85C1198.38 473.19 1254.58 541.43 1279.17 609.99C1301.07 671.05 1295.3 727.17 1262.92 768.02C1229.3 810.43 1170.02 833.37 1096.65 833.37ZM825.13 315.96C752.25 315.96 693.43 338.68 660.12 380.71C628.09 421.12 622.41 476.7 644.12 537.21C694.68 678.18 878.04 809.16 1052.86 829.19C1067.93 830.92 1082.57 831.77 1096.67 831.77C1169.55 831.77 1228.37 809.05 1261.68 767.02C1293.71 726.62 1299.39 671.03 1277.68 610.52C1227.12 469.55 1043.76 338.57 868.94 318.54C853.87 316.81 839.23 315.96 825.13 315.96Z" fill="white"/>
<path d="M1115.31 855.49C1084.26 855.49 1050.95 850.98 1015.77 841.98C926.24 819.08 836.34 769.71 762.63 702.96C688.89 636.18 640.15 559.99 625.41 488.42C619.08 457.7 619.32 429.22 626.12 403.76C632.7 379.13 645.26 357.84 663.45 340.49C687.85 317.22 722.28 301.64 763.03 295.44C805.71 288.94 853.81 292.42 906.01 305.77C995.54 328.67 1085.43 378.04 1159.15 444.79C1232.89 511.57 1281.62 587.76 1296.37 659.33C1302.7 690.05 1302.46 718.53 1295.66 743.99C1289.08 768.62 1276.52 789.91 1258.33 807.26C1233.93 830.53 1199.5 846.11 1158.75 852.31C1144.83 854.43 1130.33 855.49 1115.3 855.49H1115.31ZM805.87 293.82C746.88 293.82 697.66 310.06 664.55 341.63C627.5 376.96 614.51 427.61 626.97 488.09C657.28 635.23 831.87 793.29 1016.16 840.43C1118.93 866.72 1206.8 854.21 1257.23 806.1C1294.28 770.76 1307.27 720.12 1294.81 659.64C1264.5 512.5 1089.91 354.44 905.62 307.3C870.31 298.27 836.74 293.81 805.86 293.81L805.87 293.82Z" fill="white"/>
<path d="M1127.53 879.84C1080.24 879.84 1028.71 868.89 974.26 847.27C882.05 810.65 793.95 747.83 726.17 670.37C658.35 592.87 618.99 509.99 615.33 436.98C612.38 378.11 632.83 331.24 674.48 301.42C704.31 280.06 744.46 268.47 790.59 267.92C838.89 267.35 891.67 278.29 947.52 300.47C1039.73 337.09 1127.83 399.91 1195.61 477.37C1263.43 554.87 1302.79 637.75 1306.45 710.76C1309.4 769.63 1288.95 816.5 1247.3 846.32C1217.47 867.68 1177.31 879.27 1131.19 879.82C1129.97 879.83 1128.74 879.84 1127.52 879.84H1127.53ZM794.08 269.7C747.09 269.7 706.14 280.71 675.41 302.71C634.23 332.2 614 378.6 616.92 436.9C624.44 586.96 785 770.39 974.85 845.79C1028.98 867.29 1081.29 878.03 1127.71 878.04C1174.7 878.04 1215.65 867.03 1246.38 845.03C1287.56 815.54 1307.79 769.14 1304.87 710.84C1297.35 560.77 1136.79 377.35 946.94 301.95C892.81 280.45 840.5 269.7 794.08 269.7Z" fill="white"/>
<path d="M1133.26 905.5C1072.01 905.5 1000.81 885.28 928.82 846.01C836.07 795.42 752.16 719.59 692.57 632.49C632.94 545.33 604.77 457.3 613.26 384.6C619.77 328.86 647.37 286.9 693.09 263.24C766.76 225.11 878.87 239.5 992.98 301.74C1085.73 352.33 1169.64 428.16 1229.23 515.26C1288.86 602.42 1317.03 690.45 1308.54 763.15C1302.03 818.89 1274.43 860.85 1228.71 884.51C1201.52 898.58 1169.09 905.5 1133.26 905.5ZM788.55 243.82C752.97 243.82 720.8 250.68 693.82 264.64C648.6 288.05 621.28 329.59 614.84 384.77C606.39 457.08 634.46 544.74 693.88 631.58C753.33 718.48 837.04 794.13 929.58 844.61C1001.34 883.75 1072.28 903.91 1133.25 903.92C1168.83 903.92 1201 897.06 1227.98 883.1C1273.2 859.69 1300.52 818.15 1306.96 762.97C1315.41 690.66 1287.34 603 1227.92 516.16C1168.47 429.26 1084.76 353.61 992.22 303.13C920.46 263.99 849.52 243.82 788.55 243.82Z" fill="white"/>
<path d="M1131.42 931.63C1055.86 931.63 966.61 898.88 880.24 837.66C789.27 773.18 712.09 685.16 662.93 589.81C613.73 494.38 598.46 403.01 619.94 332.53C635.78 280.57 670.57 244.08 720.57 227C806.66 197.59 926.65 228.65 1041.55 310.09C1132.52 374.57 1209.7 462.59 1258.86 557.94C1308.06 653.37 1323.33 744.74 1301.85 815.23C1286.02 867.19 1251.22 903.68 1201.22 920.76C1179.85 928.06 1156.38 931.64 1131.42 931.64V931.63ZM790.4 217.7C765.61 217.7 742.31 221.25 721.09 228.5C671.59 245.41 637.15 281.54 621.47 332.99C600.11 403.08 615.34 494.03 664.35 589.08C713.4 684.21 790.4 772.03 881.17 836.36C995.66 917.5 1115.11 948.49 1200.71 919.25C1250.21 902.34 1284.65 866.21 1300.33 814.76C1321.69 744.67 1306.46 653.72 1257.45 558.67C1208.4 463.54 1131.4 375.72 1040.63 311.39C954.53 250.36 865.61 217.71 790.4 217.71V217.7Z" fill="white"/>
<path d="M1123.67 956.86C1086.48 956.86 1045.89 948.67 1004.2 932.6C945.31 909.89 884.91 871.58 829.53 821.81C742.83 743.89 674.95 644.88 638.38 543.01C601.78 441.05 600.93 348.39 635.99 282.13C661.24 234.4 703.54 204.02 758.32 194.27C805.39 185.89 860.47 193.11 917.61 215.15C976.5 237.86 1036.91 276.17 1092.28 325.94C1178.98 403.86 1246.86 502.87 1283.43 604.74C1320.03 706.7 1320.88 799.36 1285.82 865.62C1260.57 913.35 1218.27 943.73 1163.49 953.48C1150.77 955.74 1137.45 956.87 1123.67 956.87V956.86ZM798.73 192.4C784.93 192.4 771.53 193.53 758.59 195.83C704.31 205.49 662.4 235.58 637.38 282.87C602.54 348.74 603.42 440.94 639.87 542.47C676.35 644.1 744.08 742.88 830.59 820.63C926.65 906.96 1032.95 955.34 1123.07 955.34C1136.86 955.34 1150.27 954.21 1163.21 951.91C1217.49 942.25 1259.4 912.16 1284.42 864.87C1319.26 799 1318.38 706.8 1281.94 605.27C1245.46 503.64 1177.73 404.85 1091.23 327.11C995.16 240.78 888.87 192.4 798.75 192.4H798.73Z" fill="white"/>
<path d="M1109.57 980.53C1058.81 980.53 1002.61 964.87 946.68 935.1C887.23 903.46 828.82 856.13 777.76 798.23C697.93 707.71 641.89 599.29 619.96 492.94C609.29 441.2 607.28 392.76 614 348.97C620.96 303.58 637.03 265.19 661.76 234.86C696.88 191.8 747.28 168.42 807.51 167.26C859.51 166.25 917.44 181.95 975.11 212.64C1034.56 244.28 1092.97 291.61 1144.03 349.51C1223.86 440.03 1279.9 548.45 1301.83 654.8C1312.5 706.54 1314.51 754.98 1307.79 798.77C1300.83 844.16 1284.76 882.55 1260.03 912.88C1224.91 955.94 1174.51 979.32 1114.28 980.48C1112.72 980.51 1111.15 980.52 1109.57 980.52V980.53ZM812.37 168.8C810.76 168.8 809.15 168.82 807.55 168.85C747.8 170 697.81 193.18 663 235.87C614.4 295.47 599.67 386.65 621.52 492.63C643.4 598.71 699.31 706.87 778.96 797.19C879.62 911.33 1002.75 978.96 1109.43 978.96C1111.04 978.96 1112.65 978.94 1114.25 978.91C1174 977.76 1223.99 954.58 1258.8 911.89C1307.4 852.29 1322.13 761.11 1300.28 655.13C1278.4 549.05 1222.49 440.89 1142.84 350.57C1042.19 236.43 919.05 168.8 812.37 168.8Z" fill="white"/>
<path d="M1090.29 1001.68C1078.12 1001.68 1065.65 1000.79 1052.91 999.01C937.48 982.84 815.35 896.05 726.21 766.84C655.9 664.94 614.17 549.08 608.71 440.6C606.05 387.82 612.14 339.66 626.8 297.44C641.99 253.7 665.77 218.29 697.48 192.21C743.34 154.48 802.61 139.45 868.88 148.74C984.31 164.91 1106.44 251.71 1195.58 380.91C1265.89 482.81 1307.62 598.67 1313.08 707.15C1315.74 759.93 1309.65 808.09 1294.99 850.31C1279.8 894.05 1256.02 929.46 1224.31 955.54C1187.26 986.02 1141.46 1001.69 1090.29 1001.69V1001.68ZM831.51 147.66C780.7 147.66 735.25 163.2 698.49 193.44C636.18 244.7 604.86 332.45 610.3 440.52C615.75 548.71 657.38 664.27 727.52 765.94C816.42 894.78 938.14 981.32 1053.14 997.43C1118.95 1006.65 1177.8 991.74 1223.31 954.3C1285.62 903.04 1316.94 815.29 1311.5 707.22C1306.05 599.03 1264.42 483.47 1194.28 381.8C1105.38 252.96 983.66 166.42 868.66 150.31C856.01 148.54 843.6 147.65 831.51 147.65V147.66Z" fill="white"/>
<path d="M1067.03 1019.63C1038.88 1019.63 1009.6 1015.07 979.7 1005.9C861.5 969.66 748.04 865.69 676.2 727.77C618.04 616.12 592.94 495.14 605.53 387.13C611.65 334.58 626.38 287.95 649.3 248.55C673.05 207.72 704.59 176.48 743.06 155.68C800.87 124.43 869.69 119.64 942.09 141.84C1060.29 178.08 1173.75 282.05 1245.59 419.97C1303.75 531.62 1328.85 652.6 1316.26 760.61C1310.14 813.16 1295.41 859.79 1272.49 899.19C1248.74 940.02 1217.2 971.26 1178.73 992.06C1144.79 1010.41 1107.05 1019.63 1067.03 1019.63ZM854.76 129.7C814.99 129.7 777.51 138.86 743.81 157.08C668.19 197.96 619.64 279.73 607.1 387.32C594.55 495.02 619.59 615.66 677.6 727.04C749.25 864.59 862.35 968.27 980.15 1004.39C1052.13 1026.46 1120.53 1021.71 1177.96 990.67C1253.58 949.79 1302.13 868.02 1314.67 760.43C1327.22 652.73 1302.18 532.09 1244.17 420.71C1172.52 283.16 1059.42 179.48 941.62 143.36C911.88 134.24 882.75 129.7 854.76 129.7Z" fill="white"/>
<path d="M1041.36 1033.86C1021.77 1033.86 1001.82 1031.8 981.59 1027.67C933.89 1017.93 886.68 997.17 841.27 965.96C795.88 934.76 754.58 894.7 718.51 846.88C681.17 797.38 651.11 741.68 629.15 681.35C603.15 609.91 590.09 534.71 591.39 463.88C592.65 395.31 607.26 330.5 633.65 276.46C670.24 201.53 727.14 149.76 798.19 126.74C843.01 112.23 890.78 109.98 940.2 120.07C987.9 129.81 1035.11 150.57 1080.52 181.78C1125.91 212.98 1167.21 253.04 1203.28 300.86C1240.62 350.36 1270.68 406.06 1292.64 466.39C1318.64 537.83 1331.7 613.03 1330.4 683.86C1329.14 752.43 1314.53 817.24 1288.14 871.28C1251.55 946.21 1194.65 997.98 1123.6 1021C1097.13 1029.57 1069.62 1033.87 1041.36 1033.87V1033.86ZM880.86 115.43C852.75 115.43 825.2 119.67 798.68 128.26C728.05 151.14 671.47 202.63 635.08 277.16C580.78 388.35 579.13 539.25 630.65 680.81C673.99 799.89 749.11 900.69 842.17 964.66C935.16 1028.58 1034.93 1048.05 1123.1 1019.49C1193.73 996.61 1250.3 945.12 1286.7 870.59C1341 759.4 1342.65 608.5 1291.13 466.94C1247.79 347.86 1172.67 247.06 1079.61 183.09C1014.58 138.4 946.23 115.43 880.86 115.43Z" fill="white"/>
<path d="M1015.04 1044.15C978.86 1044.15 942.34 1037.86 905.98 1025.33C856.44 1008.25 809.29 980.37 765.86 942.45C722.44 904.54 684.91 858.51 654.32 805.63C622.65 750.89 599.85 691.18 586.53 628.15C571.2 555.57 569.48 484.14 581.43 415.84C592.82 350.71 616.95 290.34 651.21 241.26C676.82 204.57 707.62 174.43 742.75 151.67C779.11 128.12 819.32 113.02 862.27 106.8C912.83 99.48 964.48 104.73 1015.8 122.42C1065.34 139.5 1112.49 167.38 1155.92 205.3C1199.34 243.21 1236.87 289.25 1267.46 342.12C1299.13 396.86 1321.93 456.57 1335.25 519.6C1350.58 592.18 1352.3 663.61 1340.35 731.91C1328.96 797.04 1304.83 857.41 1270.57 906.49C1244.96 943.18 1214.16 973.32 1179.03 996.08C1142.67 1019.63 1102.46 1034.73 1059.52 1040.95C1044.78 1043.08 1029.94 1044.15 1015.05 1044.15H1015.04ZM906.85 105.18C892.01 105.18 877.22 106.23 862.51 108.37C777.66 120.66 705.05 166.92 652.53 242.16C581.35 344.13 557.87 484.69 588.1 627.81C614.38 752.19 677.88 863.51 766.91 941.24C855.9 1018.94 959.73 1053.79 1059.28 1039.37C1144.13 1027.08 1216.74 980.82 1269.26 905.58C1340.44 803.61 1363.92 663.05 1333.69 519.93C1307.42 395.55 1243.91 284.23 1154.88 206.5C1079.04 140.29 992.42 105.19 906.85 105.19V105.18Z" fill="white"/>
<path d="M991.77 1050.65C990.29 1050.65 988.81 1050.65 987.33 1050.62C931.83 1049.94 877.29 1036.67 825.22 1011.19C774.94 986.58 729.08 951.66 688.91 907.42C648.74 863.18 616.28 811.84 592.44 754.83C567.75 695.81 553.42 633.25 549.84 568.91C542.12 429.94 586.92 298.82 672.77 209.17C707.26 173.16 746.93 145.19 790.69 126.05C835.99 106.24 884.36 96.47 934.45 97.11C989.95 97.79 1044.49 111.06 1096.56 136.54C1146.84 161.15 1192.7 196.07 1232.87 240.31C1273.04 284.55 1305.5 335.89 1329.34 392.9C1354.03 451.92 1368.36 514.48 1371.94 578.82C1379.66 717.79 1334.86 848.91 1249.01 938.56C1214.52 974.57 1174.85 1002.54 1131.09 1021.68C1087.13 1040.91 1040.28 1050.64 991.76 1050.64L991.77 1050.65ZM987.35 1049.03C1085.29 1050.25 1177.83 1010.61 1247.87 937.47C1333.41 848.14 1378.06 717.45 1370.36 578.92C1355.8 316.88 1160.24 101.46 934.44 98.6999C836.47 97.4899 743.96 137.12 673.92 210.26C588.38 299.59 543.73 430.27 551.43 568.81C565.99 830.85 761.55 1046.27 987.35 1049.03Z" fill="white"/>
<path d="M972.78 1053.96C951.36 1053.96 929.8 1052.28 908.22 1048.89C848.77 1039.54 792.48 1017.91 740.93 984.6C691.15 952.43 647.85 910.77 612.25 860.79C576.65 810.81 550.53 755.02 534.62 694.98C518.15 632.81 513.4 568.78 520.51 504.66C527.94 437.61 547.81 374.79 579.57 317.95C610.26 263.03 650.47 216.36 699.09 179.22C789.99 109.8 901.67 81.26 1013.56 98.86C1073.02 108.21 1129.3 129.84 1180.85 163.15C1230.63 195.32 1273.93 236.98 1309.53 286.96C1345.13 336.94 1371.25 392.73 1387.16 452.77C1403.63 514.94 1408.38 578.97 1401.27 643.09C1393.84 710.14 1373.97 772.96 1342.21 829.8C1311.52 884.72 1271.31 931.39 1222.69 968.53C1149.33 1024.56 1062.4 1053.96 972.78 1053.96ZM949.01 95.37C859.72 95.37 773.15 124.66 700.06 180.48C601.46 255.79 536.59 374.01 522.09 504.83C493.16 765.91 666.49 1009.27 908.47 1047.33C1019.93 1064.85 1131.18 1036.43 1221.72 967.27C1320.33 891.96 1385.19 773.74 1399.69 642.92C1428.62 381.84 1255.29 138.48 1013.31 100.42C991.82 97.04 970.34 95.37 949.01 95.37Z" fill="white"/>
<path d="M960.87 1054.96C914.64 1054.96 868.66 1048.22 823.61 1034.8C761.38 1016.27 704.65 986.1 654.98 945.14C607.01 905.58 567.61 857.66 537.89 802.72C508.17 747.78 489.61 688.59 482.75 626.78C475.64 562.79 481.43 498.8 499.96 436.57C518.49 374.34 548.66 317.61 589.62 267.94C629.18 219.97 677.1 180.57 732.04 150.85C786.98 121.13 846.17 102.57 907.98 95.7099C971.97 88.5999 1035.96 94.39 1098.19 112.92C1160.42 131.45 1217.15 161.62 1266.82 202.58C1314.79 242.14 1354.19 290.06 1383.91 345C1413.63 399.94 1432.19 459.13 1439.05 520.94C1446.16 584.93 1440.37 648.92 1421.84 711.15C1403.31 773.38 1373.14 830.11 1332.18 879.78C1292.62 927.75 1244.7 967.15 1189.76 996.87C1134.82 1026.59 1075.63 1045.15 1013.83 1052.01C996.17 1053.97 978.5 1054.95 960.88 1054.95L960.87 1054.96ZM824.06 1033.28C1077.38 1108.73 1344.85 964.02 1420.3 710.7C1495.75 457.38 1351.04 189.91 1097.72 114.46C975.01 77.9099 845.41 91.34 732.79 152.26C620.17 213.18 538.03 314.32 501.48 437.04C464.93 559.75 478.36 689.35 539.28 801.97C600.21 914.59 701.34 996.73 824.06 1033.28Z" fill="white"/>
</g>
<g opacity="0.35">
<path d="M1178.45 884.68C1134.32 884.68 1086.34 875.47 1035.55 857.22C941.34 823.38 850.09 762.47 778.61 685.72C707.09 608.93 663.91 525.46 657.02 450.67C651.38 389.49 670.42 340.1 712.09 307.83C741.22 285.27 780.92 272.18 826.88 269.96C875 267.64 928.06 276.76 984.58 297.07C1078.79 330.91 1170.04 391.82 1241.52 468.57C1313.04 545.36 1356.22 628.83 1363.11 703.62C1368.75 764.8 1349.71 814.19 1308.04 846.45C1278.91 869.01 1239.21 882.1 1193.25 884.32C1188.37 884.55 1183.43 884.67 1178.45 884.67V884.68ZM658.6 450.53C672.78 604.27 842.11 786.04 1036.09 855.73C1147.83 895.87 1246.6 892.04 1307.07 845.21C1348.29 813.29 1367.12 764.39 1361.53 703.78C1347.36 550.04 1178.02 368.27 984.04 298.58C872.3 258.44 773.53 262.27 713.06 309.1C671.84 341.02 653.01 389.92 658.6 450.53Z" fill="white"/>
<path d="M1185.86 910.83C1177.29 910.83 1168.52 910.45 1159.58 909.69C1106.88 905.19 1048.19 887.24 989.85 857.78C894.48 809.62 806.88 735.19 743.19 648.2C679.47 561.16 647.3 471.95 652.62 396.99C656.75 338.8 683.16 294.29 729.01 268.28C763.97 248.44 809.46 240.26 860.55 244.62C913.25 249.12 971.94 267.07 1030.28 296.53C1125.65 344.69 1213.25 419.12 1276.94 506.11C1340.66 593.15 1372.83 682.36 1367.51 757.32C1363.38 815.51 1336.97 860.02 1291.12 886.03C1262.28 902.4 1226.27 910.83 1185.86 910.83ZM653.41 397.05L654.2 397.11C648.91 471.69 680.97 560.53 744.47 647.26C808.01 734.05 895.41 808.31 990.56 856.36C1059.77 891.31 1127.65 909.15 1186.39 909.16C1225.97 909.16 1261.39 901.07 1290.32 884.65C1335.68 858.91 1361.82 814.84 1365.91 757.21C1371.2 682.63 1339.14 593.79 1275.64 507.05C1212.1 420.26 1124.7 346 1029.55 297.95C913.71 239.45 801.65 228.88 729.79 269.66C684.43 295.4 658.29 339.47 654.2 397.1L653.41 397.04V397.05Z" fill="white"/>
<path d="M1186.46 937.62C1112.75 937.62 1025.93 907.71 940.7 851.17C846.5 788.68 765.12 701.47 711.55 605.59C657.93 509.64 638.57 416.48 657.03 343.27C670.76 288.81 704.53 249.77 754.69 230.37C839.76 197.47 961.15 224.67 1079.42 303.12C1173.62 365.61 1255 452.82 1308.58 548.7C1362.2 644.65 1381.56 737.81 1363.1 811.02C1349.37 865.48 1315.6 904.52 1265.44 923.92C1241.67 933.11 1215.05 937.61 1186.46 937.62ZM833.69 218.26C805.29 218.26 778.87 222.73 755.26 231.86C705.6 251.07 672.17 289.73 658.57 343.66C640.21 416.48 659.52 509.23 712.94 604.82C766.4 700.48 847.6 787.5 941.59 849.85C1059.43 928.02 1180.28 955.16 1264.87 922.44C1314.53 903.23 1347.96 864.57 1361.56 810.64C1379.92 737.82 1360.61 645.07 1307.19 549.48C1253.73 453.82 1172.53 366.8 1078.54 304.45C993.58 248.09 907.06 218.26 833.69 218.26Z" fill="white"/>
<path d="M1180.08 963.86C1145.41 963.86 1107.78 957 1068.96 943.46C1008.95 922.52 946.75 885.7 889.08 836.98C798.58 760.53 726.05 661.65 684.83 558.57C643.58 455.4 638.64 360.34 670.91 290.9C694.25 240.67 735.62 207.72 790.53 195.61C837.4 185.27 892.95 190.54 951.17 210.86C1011.18 231.8 1073.38 268.62 1131.05 317.34C1221.55 393.79 1294.09 492.67 1335.3 595.75C1376.55 698.92 1381.49 793.98 1349.22 863.42C1325.88 913.65 1284.51 946.6 1229.6 958.71C1213.99 962.15 1197.4 963.87 1180.08 963.87V963.86ZM840.59 191.95C823.34 191.95 806.71 193.66 790.87 197.16C736.46 209.16 695.48 241.81 672.35 291.57C640.26 360.61 645.22 455.22 686.3 557.98C727.42 660.82 799.8 759.48 890.1 835.77C986.59 917.28 1091.12 962.36 1179.53 962.37C1196.78 962.37 1213.41 960.66 1229.25 957.16C1283.66 945.16 1324.64 912.51 1347.77 862.75C1379.86 793.71 1374.9 699.1 1333.81 596.34C1292.69 493.5 1220.31 394.84 1130.01 318.55C1033.52 237.04 928.99 191.95 840.58 191.95H840.59Z" fill="white"/>
<path d="M1167.26 988.72C1118.92 988.72 1065.55 974.97 1011.86 948.57C950.72 918.5 889.93 872.27 836.06 814.87C751.91 725.2 690.85 616.19 664.13 507.92C651.13 455.25 646.98 405.61 651.79 360.39C656.77 313.52 671.21 273.47 694.71 241.33C728.03 195.76 777.52 169.73 837.85 166.03C890.01 162.84 948.95 176.56 1008.26 205.73C1069.4 235.8 1130.19 282.03 1184.06 339.43C1268.21 429.1 1329.27 538.11 1355.99 646.38C1368.99 699.05 1373.14 748.69 1368.33 793.91C1363.35 840.78 1348.91 880.83 1325.41 912.97C1292.09 958.53 1242.6 984.57 1182.27 988.26C1177.33 988.56 1172.32 988.71 1167.26 988.71V988.72ZM853.27 167.16C848.12 167.16 843.01 167.31 837.95 167.62C778.11 171.28 729.02 197.1 696 242.27C649.82 305.43 639.05 399.63 665.68 507.54C692.33 615.54 753.26 724.3 837.23 813.78C940 923.29 1061.98 987.14 1166.86 987.14C1172.01 987.14 1177.12 986.99 1182.18 986.68C1242.02 983.02 1291.1 957.2 1324.13 912.03C1370.31 848.87 1381.08 754.66 1354.45 646.76C1327.8 538.76 1266.87 430 1182.9 340.52C1080.13 231.01 958.15 167.16 853.27 167.16Z" fill="white"/>
<path d="M1148.71 1011.21C1140.14 1011.21 1131.43 1010.78 1122.56 1009.92C1066.32 1004.44 1005.82 981.46 947.61 943.46C887.58 904.27 830.63 849.39 782.91 784.75C707.81 683.01 660.79 565.78 650.52 454.66C645.52 400.6 649.51 350.91 662.36 306.99C675.68 261.47 698 224.17 728.69 196.11C772.77 155.81 831.16 137.92 897.56 144.39C953.8 149.87 1014.3 172.85 1072.51 210.85C1132.54 250.04 1189.49 304.92 1237.21 369.56C1312.31 471.3 1359.33 588.53 1369.6 699.65C1374.6 753.71 1370.61 803.4 1357.76 847.32C1344.44 892.84 1322.12 930.14 1291.43 958.2C1253.24 993.12 1204.29 1011.21 1148.71 1011.21ZM871.42 144.68C816.23 144.68 767.66 162.63 729.76 197.28C669.45 252.43 641.87 343.78 652.1 454.51C662.35 565.35 709.26 682.29 784.18 783.8C879.58 913.04 1006.13 996.98 1122.71 1008.34C1131.52 1009.2 1140.19 1009.63 1148.7 1009.63C1203.89 1009.63 1252.46 991.68 1290.36 957.03C1350.67 901.88 1378.25 810.53 1368.02 699.8C1357.77 588.96 1310.86 472.02 1235.94 370.51C1140.54 241.27 1013.99 157.33 897.41 145.97C888.6 145.11 879.93 144.68 871.42 144.68Z" fill="white"/>
<path d="M1125.79 1030.59C1101.49 1030.59 1076.28 1027.24 1050.47 1020.49C929.28 988.82 809.84 886.46 730.97 746.67C667.64 634.43 637.1 511.28 644.97 399.91C648.8 345.72 661.53 297.27 682.8 255.9C704.84 213.03 735.14 179.68 772.85 156.77C828.85 122.75 896.91 114.81 969.65 133.82C1090.84 165.49 1210.28 267.85 1289.15 407.64C1352.48 519.88 1383.02 643.03 1375.15 754.4C1371.32 808.59 1358.59 857.04 1337.32 898.42C1315.28 941.29 1284.98 974.64 1247.27 997.55C1211.14 1019.5 1169.98 1030.59 1125.79 1030.59ZM894.34 125.31C850.43 125.31 809.56 136.32 773.68 158.12C699.54 203.16 654.4 289.07 646.56 400.02C638.71 511.08 669.18 633.92 732.36 745.89C811.02 885.31 930.09 987.39 1050.87 1018.95C1076.54 1025.66 1101.62 1028.99 1125.78 1028.99C1169.69 1028.99 1210.56 1017.98 1246.44 996.18C1320.58 951.14 1365.72 865.23 1373.56 754.28C1381.41 643.22 1350.94 520.38 1287.76 408.41C1209.1 268.99 1090.03 166.91 969.25 135.35C943.58 128.64 918.5 125.31 894.34 125.31Z" fill="white"/>
<path d="M1099.96 1046.26C1083.87 1046.26 1067.5 1044.88 1050.88 1042.11C1002.55 1034.05 954.23 1014.66 907.25 984.47C860.3 954.29 817.05 914.84 778.73 867.22C739.05 817.92 706.41 761.98 681.69 700.95C652.14 627.97 635.69 550.59 634.13 477.18C632.61 406.1 644.93 338.56 669.77 281.87C703.34 205.24 757.69 150.93 826.95 124.82C871.31 108.1 919.19 103.85 969.26 112.2C1017.59 120.26 1065.91 139.65 1112.89 169.84C1159.84 200.02 1203.09 239.47 1241.41 287.09C1281.08 336.38 1313.73 392.33 1338.45 453.36C1368 526.34 1384.45 603.72 1386.01 677.13C1387.53 748.21 1375.21 815.75 1350.37 872.44C1316.81 949.07 1262.45 1003.38 1193.19 1029.49C1163.55 1040.66 1132.34 1046.26 1099.96 1046.26ZM920.65 109.57C888.49 109.57 857.2 115.11 827.5 126.3C758.64 152.25 704.6 206.26 671.21 282.5C620.05 399.31 624.51 555.51 683.16 700.34C731.94 820.81 811.82 921.24 908.1 983.12C1004.3 1044.95 1105.34 1060.89 1192.62 1027.99C1261.48 1002.04 1315.52 948.03 1348.91 871.79C1400.07 754.98 1395.61 598.78 1336.96 453.95C1288.18 333.48 1208.3 233.05 1112.01 171.17C1048.55 130.38 982.97 109.57 920.64 109.57H920.65Z" fill="white"/>
<path d="M1072.73 1057.91C1040.42 1057.91 1007.67 1052.86 974.84 1042.77C924.34 1027.25 875.77 1000.54 830.48 963.38C785.21 926.23 745.49 880.5 712.44 827.47C678.23 772.57 652.69 712.21 636.54 648.05C617.72 573.29 612.95 499.23 622.36 427.92C631.34 359.9 653.59 296.52 686.72 244.65C710.8 206.94 740.18 175.58 774.05 151.44C809.09 126.46 848.24 109.73 890.41 101.73C940.86 92.16 992.96 95.46 1045.27 111.53C1095.77 127.05 1144.35 153.76 1189.63 190.92C1234.9 228.07 1274.62 273.8 1307.67 326.83C1341.88 381.73 1367.42 442.09 1383.57 506.25C1402.39 581.01 1407.16 655.07 1397.75 726.38C1388.77 794.4 1366.52 857.78 1333.39 909.65C1309.31 947.35 1279.93 978.71 1246.06 1002.86C1211.02 1027.84 1171.87 1044.57 1129.7 1052.57C1110.91 1056.13 1091.89 1057.91 1072.72 1057.91H1072.73ZM890.71 103.3C807.47 119.09 737.39 168.27 688.06 245.51C619.13 353.45 600.91 500.03 638.08 647.67C669.96 774.29 738.64 885.97 831.48 962.16C906.73 1023.91 990.54 1056.33 1072.52 1056.33C1091.63 1056.33 1110.63 1054.57 1129.4 1051.01C1212.64 1035.22 1282.72 986.04 1332.05 908.8C1400.98 800.86 1419.2 654.28 1382.03 506.64C1350.15 380.02 1281.47 268.34 1188.63 192.15C1095.84 116.01 990.04 84.45 890.71 103.3Z" fill="white"/>
<path d="M1047.59 1065.57C995.23 1065.57 943.32 1054.14 893.12 1031.53C841.55 1008.31 793.95 974.33 751.66 930.55C709.37 886.77 674.51 835.4 648.05 777.85C620.65 718.27 603.5 654.65 597.07 588.75C582.98 444.37 623.32 306.66 707.74 210.95C740.64 173.65 778.9 144.19 821.44 123.4C865.48 101.88 912.93 90.26 962.46 88.88C1018.22 87.32 1073.58 98.7199 1126.99 122.77C1178.56 145.99 1226.16 179.97 1268.45 223.75C1310.74 267.53 1345.59 318.9 1372.06 376.45C1399.46 436.03 1416.61 499.65 1423.04 565.55C1437.13 709.93 1396.79 847.64 1312.37 943.35C1279.47 980.65 1241.21 1010.11 1198.67 1030.9C1154.63 1052.42 1107.18 1064.04 1057.65 1065.42C1054.3 1065.51 1050.94 1065.56 1047.59 1065.56V1065.57ZM972.38 90.32C969.09 90.32 965.81 90.3699 962.51 90.4599C865.73 93.1699 775.68 136.33 708.93 212C624.8 307.38 584.6 444.65 598.65 588.59C624.46 853.08 824.79 1063.97 1047.73 1063.97C1051.02 1063.97 1054.3 1063.92 1057.6 1063.83C1154.38 1061.12 1244.43 1017.96 1311.18 942.29C1395.31 846.91 1435.5 709.64 1421.46 565.7C1395.65 301.21 1195.32 90.32 972.38 90.32Z" fill="white"/>
<path d="M1026.74 1069.77C1010.62 1069.77 994.4 1068.81 978.14 1066.87C918.02 1059.69 860.55 1039.77 807.31 1007.66C755.9 976.66 710.58 935.66 672.63 885.8C634.68 835.94 605.99 779.74 587.36 718.76C568.08 655.62 560.48 590.09 564.79 523.99C569.35 453.98 586.9 387.95 616.96 327.73C646 269.54 685.16 219.73 733.35 179.68C820.94 106.88 930.55 74.13 1041.99 87.44C1102.11 94.62 1159.58 114.54 1212.82 146.65C1264.23 177.65 1309.55 218.65 1347.5 268.51C1385.46 318.37 1414.14 374.57 1432.77 435.55C1452.05 498.69 1459.65 564.22 1455.34 630.32C1450.78 700.33 1433.23 766.36 1403.17 826.58C1374.13 884.77 1334.97 934.58 1286.78 974.63C1211.97 1036.8 1121.09 1069.77 1026.74 1069.77ZM993.39 86.12C899.4 86.12 808.88 118.96 734.36 180.89C636.51 262.22 575.28 387.31 566.37 524.08C548.85 793.26 733.65 1036.04 978.32 1065.27C1089.32 1078.53 1198.51 1045.9 1285.76 973.39C1383.61 892.06 1444.84 766.97 1453.74 630.2C1471.26 361.02 1286.46 118.24 1041.79 89.01C1025.6 87.07 1009.44 86.12 993.38 86.12H993.39Z" fill="white"/>
<path d="M1012.39 1071.34C972.25 1071.34 932.16 1066.17 892.54 1055.84C829.24 1039.34 770.93 1010.68 719.25 970.65C669.33 931.99 627.66 884.4 595.39 829.22C563.12 774.04 541.88 714.04 532.25 650.88C522.29 585.49 525.28 519.58 541.14 454.95C557.18 389.61 585.39 329.57 625 276.51C663.26 225.26 710.41 182.73 765.14 150.1C818.66 118.19 876.79 97.36 937.89 88.18C1001.16 78.68 1064.97 82.13 1127.57 98.44C1190.87 114.94 1249.18 143.6 1300.86 183.63C1350.78 222.29 1392.45 269.88 1424.72 325.06C1456.99 380.24 1478.23 440.24 1487.86 503.4C1497.82 568.79 1494.83 634.7 1478.97 699.33C1462.93 764.67 1434.72 824.71 1395.11 877.77C1356.85 929.02 1309.7 971.55 1254.97 1004.18C1201.45 1036.09 1143.32 1056.92 1082.22 1066.1C1058.99 1069.59 1035.68 1071.33 1012.39 1071.33V1071.34ZM1007.23 84.52C923.13 84.52 840.26 107.19 765.96 151.48C653.64 218.44 574.35 326.35 542.69 455.34C478.1 718.45 635.23 987.14 892.95 1054.3C1016.28 1086.44 1144.57 1068.16 1254.17 1002.82C1366.49 935.86 1445.78 827.95 1477.44 698.96C1542.03 435.85 1384.9 167.16 1127.18 100C1087.45 89.65 1047.19 84.52 1007.23 84.52Z" fill="white"/>
<path d="M1008.51 1071.39C1007.9 1071.39 1007.29 1071.39 1006.68 1071.39C936.37 1071.16 867.69 1057.77 802.55 1031.57C735.68 1004.68 676.72 966.02 627.29 916.65C579.54 868.96 542.85 813.53 518.24 751.91C470.34 632 473.63 501.01 527.5 383.08C555.52 321.73 595.46 267.35 646.22 221.45C695.24 177.12 752.23 142.52 815.6 118.61C878.4 94.92 944.34 82.91 1011.62 82.91C1012.23 82.91 1012.84 82.91 1013.45 82.91C1083.76 83.14 1152.44 96.53 1217.58 122.73C1284.45 149.62 1343.41 188.28 1392.84 237.65C1440.59 285.34 1477.28 340.77 1501.89 402.39C1549.79 522.3 1546.5 653.29 1492.63 771.22C1464.61 832.57 1424.67 886.95 1373.91 932.85C1324.89 977.18 1267.9 1011.78 1204.53 1035.69C1141.73 1059.38 1075.79 1071.39 1008.51 1071.39ZM1012.11 84.63C808.55 84.63 614.3 196.85 528.94 383.74C475.25 501.28 471.98 631.82 519.71 751.32C570.29 877.94 670.94 976.94 803.14 1030.09C1068.44 1136.76 1377.1 1020.34 1491.19 770.55C1544.88 653.01 1548.15 522.47 1500.42 402.97C1449.84 276.35 1349.19 177.35 1217 124.2C1150.21 97.34 1080.62 84.62 1012.12 84.62L1012.11 84.63Z" fill="white"/>
<path d="M1019.07 1071.95C986.83 1071.95 954.55 1069.56 922.39 1064.77C846.96 1053.55 775.52 1029.57 710.05 993.52C641.31 955.67 583.6 906.99 538.52 848.86C494.96 792.69 465.29 730.52 450.34 664.1C422.63 541.01 449.17 415.24 525.07 309.94C565.58 253.74 617.71 206.28 679.99 168.89C740.14 132.78 807.2 107.52 879.29 93.83C951.38 80.14 1024.87 78.69 1097.72 89.53C1173.15 100.75 1244.59 124.73 1310.06 160.78C1378.8 198.63 1436.51 247.31 1481.59 305.44C1525.15 361.61 1554.82 423.77 1569.77 490.2C1597.48 613.29 1570.94 739.06 1495.04 844.36C1454.53 900.56 1402.4 948.02 1340.12 985.41C1279.97 1021.52 1212.91 1046.78 1140.82 1060.47C1100.56 1068.12 1059.85 1071.95 1019.07 1071.95ZM1001.54 84.18C814.16 84.18 632.05 164.25 526.36 310.88C450.73 415.8 424.29 541.12 451.89 663.76C482.23 798.53 576.61 918.22 710.82 992.14C806.68 1044.93 913.46 1070.13 1018.58 1070.14C1205.96 1070.14 1388.07 990.07 1493.76 843.44C1569.39 738.52 1595.83 613.2 1568.23 490.56C1537.89 355.79 1443.52 236.1 1309.3 162.18C1213.44 109.39 1106.66 84.18 1001.54 84.18Z" fill="white"/>
<path d="M1046.43 1075.29C974.12 1075.29 902.45 1065.14 833.06 1045.06C754 1022.18 681.39 987.33 617.24 941.48C549.45 893.03 495.53 835.51 456.97 770.54C419.71 707.75 398.62 641.24 394.27 572.84C386.33 447.9 436.27 328.75 534.9 237.33C587.94 188.16 651.97 149.45 725.18 122.27C795.89 96.02 872.16 81.57 951.86 79.32C1031.56 77.07 1110.69 87.14 1187.05 109.24C1266.11 132.12 1338.72 166.97 1402.87 212.82C1470.66 261.27 1524.59 318.79 1563.14 383.76C1600.4 446.55 1621.49 513.06 1625.84 581.46C1633.78 706.4 1583.84 825.55 1485.21 916.97C1432.17 966.14 1368.14 1004.85 1294.92 1032.03C1224.21 1058.28 1147.95 1072.73 1068.24 1074.98C1060.96 1075.19 1053.68 1075.29 1046.42 1075.29H1046.43ZM973.45 80.83C809.03 80.83 648.96 133.78 535.98 238.5C437.71 329.59 387.95 448.29 395.85 572.74C404.67 711.58 485.7 845.51 618.16 940.18C742.9 1029.34 896.6 1073.46 1046.66 1073.47C1211.08 1073.47 1371.15 1020.52 1484.13 915.8C1582.4 824.71 1632.17 706.01 1624.26 581.56C1615.44 442.72 1534.41 308.79 1401.95 214.12C1277.21 124.96 1123.51 80.83 973.44 80.83H973.45Z" fill="white"/>
<path d="M1091.99 1084.22C1057.66 1084.22 1022.91 1082.13 987.89 1077.96C901.95 1067.71 818.73 1045.39 740.52 1011.62C659.54 976.65 587.52 930.88 526.46 875.56C462.52 817.64 414.68 753.03 384.29 683.53C354.91 616.37 343.18 547.98 349.41 480.27C361.03 354.04 435.04 242.85 557.8 167.16C623.1 126.9 698.4 98.69 781.61 83.3C861.97 68.44 946.29 66.1 1032.23 76.35C1118.17 86.6 1201.39 108.92 1279.6 142.69C1360.58 177.66 1432.6 223.43 1493.66 278.75C1557.6 336.67 1605.44 401.28 1635.83 470.78C1665.21 537.94 1676.94 606.33 1670.71 674.04C1659.09 800.27 1585.08 911.46 1462.32 987.15C1397.02 1027.41 1321.72 1055.62 1238.51 1071.01C1190.9 1079.81 1141.89 1084.22 1091.99 1084.22ZM928.08 71.92C794.29 71.92 664.39 103.31 558.63 168.51C436.3 243.93 362.56 354.69 350.99 480.41C338.35 617.7 402.7 761.29 527.53 874.37C776.43 1099.84 1195.41 1149.82 1461.49 985.78C1583.82 910.36 1657.56 799.6 1669.13 673.88C1681.77 536.59 1617.42 393 1492.59 279.92C1342.62 144.06 1130.89 71.92 928.08 71.92Z" fill="white"/>
<path d="M1149.67 1100.92C1067.79 1100.92 984.29 1089.98 901.13 1068.32C810.62 1044.75 725.08 1009.69 646.87 964.11C565.89 916.91 496.36 860.43 440.21 796.24C382.79 730.6 342.91 660.98 321.68 589.31C301.16 520.06 298.9 452.07 314.96 387.22C330.31 325.23 361.71 269.19 408.28 220.66C456.48 170.44 519.06 130.32 594.3 101.44C671.23 71.9 756.86 55.82 848.8 53.64C937.59 51.53 1028.5 62.41 1119 85.98C1209.51 109.55 1295.05 144.61 1373.26 190.19C1454.24 237.39 1523.77 293.87 1579.92 358.06C1637.34 423.7 1677.22 493.32 1698.45 564.99C1718.97 634.24 1721.23 702.23 1705.17 767.08C1689.82 829.07 1658.42 885.11 1611.85 933.64C1563.65 983.86 1501.07 1023.98 1425.83 1052.86C1348.9 1082.4 1263.27 1098.48 1171.33 1100.66C1164.12 1100.83 1156.9 1100.92 1149.67 1100.92ZM869.59 55.12C773.16 55.12 679.39 70.47 594.86 102.93C446.73 159.81 347.87 260.91 316.49 387.61C283.53 520.69 327.89 665.44 441.4 795.2C608.6 986.34 889.2 1099.18 1150.53 1099.19C1246.96 1099.19 1340.73 1083.84 1425.25 1051.38C1573.38 994.5 1672.24 893.4 1703.62 766.7C1736.58 633.62 1692.22 488.87 1578.71 359.12C1411.51 167.98 1130.91 55.13 869.58 55.13L869.59 55.12Z" fill="white"/>
<path d="M1215.29 1127.07C1175.81 1127.07 1135.39 1124.53 1094.19 1119.45C998.52 1107.64 902.79 1082.67 809.64 1045.24C716.49 1007.81 630.62 959.8 554.41 902.54C475.5 843.25 410.46 776.59 361.1 704.42C312.39 633.19 281.8 560.74 270.19 489.09C258.97 419.84 265.83 354.11 290.57 293.72C316 231.67 358.96 178.42 418.28 135.45C479.66 90.99 555.81 59.63 644.63 42.26C732.23 25.13 826.88 22.63 925.93 34.86C1021.6 46.67 1117.33 71.64 1210.48 109.07C1303.63 146.5 1389.5 194.51 1465.71 251.77C1544.62 311.06 1609.66 377.72 1659.02 449.89C1707.73 521.12 1738.32 593.57 1749.93 665.22C1761.15 734.47 1754.29 800.2 1729.55 860.59C1704.12 922.64 1661.16 975.89 1601.84 1018.86C1540.46 1063.32 1464.31 1094.68 1375.49 1112.05C1324.32 1122.06 1270.74 1127.07 1215.29 1127.07ZM804.45 28.91C749.94 28.91 696.45 33.73 644.94 43.81C469.51 78.13 344.18 167.09 292.05 294.32C241.44 417.83 266.43 563.16 362.42 703.52C534.65 955.35 892.26 1125.38 1215.68 1125.4C1270.19 1125.4 1323.68 1120.58 1375.19 1110.5C1550.62 1076.18 1675.95 987.22 1728.08 859.99C1778.69 736.48 1753.7 591.15 1657.71 450.79C1485.48 198.96 1127.87 28.91 804.45 28.91Z" fill="white"/>
<path d="M1281.14 1163.14C1193.31 1163.14 1101.65 1150.66 1008.18 1125.94C907.49 1099.31 808.97 1059.68 715.34 1008.14C621.71 956.6 537.69 895.75 465.62 827.27C390.99 756.37 332.5 680.35 291.78 601.34C216.1 454.48 210.73 311.76 276.65 199.46C294.45 169.14 317.35 141.33 344.73 116.78C372.32 92.04 404.64 70.47 440.77 52.67C516.03 15.59 606.18 -4.93001 708.71 -8.33001C805.66 -11.55 907.68 0.800007 1011.93 28.37C1112.62 55 1211.14 94.63 1304.77 146.17C1398.4 197.71 1482.42 258.56 1554.49 327.04C1629.12 397.94 1687.61 473.96 1728.33 552.97C1804.01 699.83 1809.38 842.55 1743.45 954.85C1725.65 985.17 1702.75 1012.98 1675.37 1037.53C1647.78 1062.27 1615.46 1083.84 1579.33 1101.64C1504.07 1138.72 1413.92 1159.24 1311.39 1162.64C1301.36 1162.97 1291.26 1163.14 1281.13 1163.14H1281.14ZM738.58 -7.23998C728.59 -7.23998 718.69 -7.07999 708.77 -6.74999C508.36 -0.0999882 351.37 75.36 278.03 200.26C212.39 312.07 217.77 454.25 293.2 600.6C455.06 914.67 893.28 1161.51 1281.54 1161.53C1291.53 1161.53 1301.43 1161.37 1311.35 1161.04C1511.76 1154.39 1668.75 1078.93 1742.09 954.03C1807.73 842.22 1802.35 700.04 1726.92 553.69C1565.06 239.62 1126.84 -7.23998 738.58 -7.23998Z" fill="white"/>
<path d="M1342.34 1208.99C1307.5 1208.99 1271.38 1206.85 1234.03 1202.57C1129.41 1190.58 1022 1162.43 914.78 1118.89C811.22 1076.84 712.19 1022.28 620.45 956.73C528.7 891.18 448.85 817.93 383.12 739.03C315.06 657.32 265.19 573.09 234.91 488.68C207.79 413.06 197.82 341.03 205.29 274.59C212.51 210.36 235.75 153.09 274.37 104.37C297.85 74.75 326.9 48.62 360.74 26.68C394.81 4.58996 433.87 -13.33 476.83 -26.58C566.43 -54.22 670.49 -61.51 786.11 -48.26C890.73 -36.27 998.14 -8.12005 1105.36 35.42C1208.92 77.47 1307.95 132.03 1399.69 197.58C1491.44 263.13 1571.29 336.38 1637.02 415.28C1705.08 496.99 1754.95 581.22 1785.23 665.63C1812.35 741.25 1822.32 813.28 1814.85 879.72C1807.63 943.95 1784.39 1001.22 1745.77 1049.94C1722.3 1079.56 1693.24 1105.7 1659.4 1127.63C1625.33 1149.72 1586.27 1167.64 1543.32 1180.89C1482.66 1199.6 1415.36 1208.99 1342.35 1208.99H1342.34ZM678.96 -52.99C500.88 -52.99 357.07 2.57995 275.61 105.35C197.25 204.21 183.32 340.16 236.4 488.14C359.85 832.31 807.47 1152.09 1234.21 1200.99C1461.29 1227.01 1647.3 1171.59 1744.52 1048.94C1822.88 950.08 1836.81 814.13 1783.73 666.15C1660.28 321.98 1212.67 2.19996 785.92 -46.7C749.12 -50.92 713.4 -52.99 678.96 -52.99Z" fill="white"/>
<path d="M1387.13 1262.74C1368.25 1262.74 1349.01 1262.06 1329.46 1260.7C1270.33 1256.59 1207.99 1246.24 1144.18 1229.91C1033.92 1201.7 923.4 1157.1 815.7 1097.32C711.68 1039.59 614.65 970.21 527.3 891.11C439.95 812.01 366.68 727.17 309.53 638.96C250.35 547.61 211.14 456.61 192.99 368.49C177.59 293.75 178.17 224.46 194.71 162.54C210.7 102.66 241.23 50.93 285.44 8.76C315.05 -19.48 350.63 -43.13 391.2 -61.52C432 -80.02 477.92 -93.24 527.68 -100.81C578.34 -108.52 633.17 -110.41 690.66 -106.42C749.79 -102.31 812.13 -91.96 875.94 -75.63C986.21 -47.42 1096.72 -2.82005 1204.42 56.9599C1308.44 114.69 1405.47 184.07 1492.82 263.17C1580.17 342.27 1653.44 427.11 1710.59 515.32C1769.77 606.67 1808.98 697.67 1827.13 785.79C1842.53 860.53 1841.95 929.82 1825.41 991.74C1809.42 1051.62 1778.89 1103.35 1734.68 1145.52C1705.07 1173.76 1669.49 1197.41 1628.92 1215.8C1588.12 1234.3 1542.2 1247.52 1492.44 1255.09C1459.01 1260.18 1423.76 1262.73 1387.13 1262.73V1262.74ZM631.99 -107C487.83 -107 367.49 -67.29 286.54 9.91998C195.89 96.38 164.08 220.27 194.55 368.18C230.39 542.17 348.94 727.47 528.37 889.94C707.82 1052.44 926.66 1172.63 1144.58 1228.37C1395.62 1292.58 1610.3 1261.97 1733.59 1144.37C1824.24 1057.9 1856.05 934.02 1825.58 786.11C1789.74 612.12 1671.19 426.82 1491.76 264.35C1312.31 101.85 1093.47 -18.34 875.55 -74.08C789.33 -96.13 707.4 -107 631.99 -107Z" fill="white"/>
<path d="M1416.74 1322.23C1362 1322.23 1303.92 1316.02 1243.92 1303.75C1178.91 1290.46 1111.34 1269.97 1043.09 1242.87C929.52 1197.76 818.46 1136.42 713.01 1060.53C611.16 987.24 518.79 903.53 438.47 811.75C358.14 719.96 293.91 624.7 247.56 528.63C199.56 429.14 172.94 333.12 168.44 243.24C164.82 171 175.8 105.72 201.07 49.2099C225.52 -5.46005 262.91 -51.08 312.22 -86.38C348.42 -112.3 390.81 -132.39 438.22 -146.1C485.83 -159.87 538.5 -167.19 594.75 -167.87C651.99 -168.55 713.05 -162.36 776.22 -149.45C841.23 -136.16 908.8 -115.67 977.05 -88.57C1090.62 -43.46 1201.68 17.88 1307.13 93.77C1408.98 167.06 1501.35 250.77 1581.67 342.55C1662 434.34 1726.23 529.6 1772.58 625.67C1820.58 725.16 1847.2 821.18 1851.7 911.06C1855.32 983.3 1844.34 1048.58 1819.07 1105.09C1794.62 1159.76 1757.23 1205.38 1707.92 1240.68C1671.72 1266.6 1629.33 1286.69 1581.92 1300.4C1534.31 1314.17 1481.64 1321.49 1425.39 1322.17C1422.52 1322.2 1419.63 1322.22 1416.75 1322.22L1416.74 1322.23ZM603.24 -165.81C488.39 -165.81 388.29 -138.9 313.14 -85.09C212.37 -12.93 162.88 100.57 170.02 243.16C178.91 420.61 274.67 622.16 439.66 810.7C604.68 999.28 819.2 1152.23 1043.68 1241.39C1309.71 1347.05 1557.68 1346.3 1707 1239.39C1807.77 1167.23 1857.26 1053.73 1850.12 911.14C1841.23 733.69 1745.47 532.14 1580.48 343.6C1415.45 155.02 1200.94 2.06997 976.46 -87.09C844.32 -139.57 716.6 -165.81 603.25 -165.81H603.24Z" fill="white"/>
<path d="M1429.2 1384.9C1400.63 1384.9 1371.13 1383.1 1340.87 1379.47C1277.77 1371.9 1211.52 1356.46 1143.96 1333.58C1074.38 1310.02 1003.19 1278.49 932.37 1239.86C818.12 1177.54 709.33 1099.58 609.02 1008.13C512.14 919.8 427.21 822.68 356.59 719.46C285.96 616.23 233.2 512.09 199.78 409.95C165.17 304.17 152.91 205.16 163.37 115.67C179.2 -19.86 246.31 -121.91 357.45 -179.43C444.01 -224.23 555.28 -240.04 679.26 -225.16C742.36 -217.59 808.61 -202.15 876.17 -179.27C945.75 -155.71 1016.94 -124.18 1087.76 -85.55C1202.01 -23.23 1310.8 54.73 1411.1 146.18C1507.98 234.51 1592.91 331.63 1663.53 434.85C1734.16 538.08 1786.92 642.22 1820.34 744.36C1854.95 850.14 1867.21 949.15 1856.75 1038.64C1840.92 1174.17 1773.81 1276.22 1662.67 1333.74C1597.24 1367.6 1517.68 1384.91 1429.19 1384.91L1429.2 1384.9ZM589.72 -228.92C502.78 -228.92 424.12 -212.14 358.18 -178.01C247.53 -120.74 180.71 -19.12 164.95 115.86C144.32 292.5 212.85 506.54 357.91 718.56C503.01 930.64 707.29 1115.28 933.14 1238.46C1210.63 1389.81 1483.09 1424.9 1661.96 1332.32C1772.61 1275.05 1839.43 1173.43 1855.19 1038.45C1875.82 861.81 1807.29 647.77 1662.23 435.75C1517.13 223.67 1312.85 39.03 1087 -84.15C911.81 -179.71 738.62 -228.92 589.72 -228.92Z" fill="white"/>
<path d="M1426.13 1448.31C1366.75 1448.31 1303.49 1440.1 1237.89 1423.67C1170.14 1406.7 1100.21 1381.08 1030.04 1347.54C957.75 1312.98 885.06 1269.92 814.01 1219.56C701.95 1140.14 598.42 1046.11 506.29 940.1C417.3 837.7 342.64 728.49 284.38 615.49C226.11 502.48 187.18 391.37 168.67 285.25C149.5 175.34 153.18 75.63 179.62 -11.13C218.13 -137.48 302.74 -226.22 424.32 -267.75C525.16 -302.2 648.92 -302.76 782.22 -269.36C849.97 -252.39 919.91 -226.77 990.07 -193.23C1062.36 -158.67 1135.05 -115.61 1206.1 -65.25C1318.16 14.17 1421.69 108.2 1513.82 214.21C1602.81 316.61 1677.47 425.82 1735.74 538.82C1794.01 651.83 1832.94 762.94 1851.45 869.06C1870.62 978.97 1866.94 1078.68 1840.5 1165.44C1801.99 1291.79 1717.38 1380.53 1595.8 1422.06C1544.58 1439.56 1487.43 1448.31 1426.13 1448.31ZM594.23 -292.64C533.64 -292.64 476.7 -283.97 424.83 -266.25C303.76 -224.89 219.49 -136.51 181.14 -10.67C128.96 160.55 166.12 382.66 285.79 614.76C405.5 846.93 593.42 1061.25 814.93 1218.26C1094.44 1416.37 1386.16 1491.99 1595.28 1420.56C1716.35 1379.2 1800.62 1290.82 1838.97 1164.98C1891.15 993.76 1853.99 771.65 1734.32 539.55C1614.61 307.38 1426.69 93.06 1205.18 -63.95C995 -212.92 777.9 -292.64 594.23 -292.64Z" fill="white"/>
<path d="M1407.03 1510.06C1316.48 1510.06 1217.61 1490.11 1116.07 1450.96C1045.4 1423.71 973.81 1387.36 903.29 1342.9C830.62 1297.09 759 1242.61 690.42 1180.99C583.63 1085.01 488.47 975.95 407.59 856.83C329.47 741.77 267.88 622.22 224.55 501.49C181.21 380.74 158.31 264.91 156.48 157.19C154.59 45.63 175.5 -52.29 218.65 -133.85C280.06 -249.93 382.95 -323.82 516.19 -347.53C630.78 -367.92 764.91 -350.33 904.07 -296.68C974.74 -269.43 1046.33 -233.08 1116.85 -188.62C1189.52 -142.81 1261.14 -88.33 1329.72 -26.71C1436.51 69.27 1531.67 178.33 1612.55 297.45C1690.67 412.51 1752.26 532.06 1795.59 652.79C1838.93 773.54 1861.83 889.37 1863.66 997.09C1865.55 1108.65 1844.64 1206.57 1801.49 1288.13C1740.08 1404.21 1637.19 1478.1 1503.95 1501.81C1472.98 1507.32 1440.58 1510.06 1407.04 1510.06H1407.03ZM614.54 -354.34C580.83 -354.34 548.09 -351.58 516.46 -345.95C383.71 -322.33 281.22 -248.73 220.05 -133.09C134.92 27.84 137.05 253.02 226.05 500.97C315.08 749.01 480.38 990.09 691.49 1179.82C925.99 1390.56 1185.5 1508.64 1405.59 1508.65C1439.3 1508.65 1472.04 1505.89 1503.67 1500.26C1636.42 1476.64 1738.91 1403.04 1800.08 1287.4C1885.21 1126.47 1883.08 901.29 1794.09 653.34C1705.06 405.3 1539.76 164.22 1328.65 -25.51C1094.15 -236.25 834.64 -354.34 614.55 -354.34H614.54Z" fill="white"/>
<path d="M1372.66 1567.79C1249.06 1567.79 1112.18 1529.65 975.93 1457.13C904.6 1419.16 833.82 1372.03 765.57 1317.04C695.23 1260.37 627.51 1195.28 564.28 1123.58C465.95 1012.08 382.34 889.47 315.76 759.16C251.45 633.29 205.67 505.57 179.68 379.55C153.68 253.5 148.8 135.5 165.15 28.82C182.09 -81.67 221.2 -175.12 281.39 -248.93C366.82 -353.69 489.44 -410.55 635.99 -413.38C762.55 -415.8 903.71 -377.59 1044.18 -302.83C1115.51 -264.86 1186.29 -217.73 1254.54 -162.74C1324.88 -106.07 1392.6 -40.98 1455.83 30.72C1554.16 142.22 1637.77 264.83 1704.34 395.14C1768.65 521.01 1814.43 648.73 1840.42 774.75C1866.42 900.8 1871.3 1018.8 1854.95 1125.48C1838.01 1235.97 1798.9 1329.42 1738.71 1403.23C1653.28 1507.99 1530.66 1564.85 1384.1 1567.68C1380.3 1567.75 1376.47 1567.79 1372.65 1567.79H1372.66ZM647.82 -411.9C643.88 -411.9 639.96 -411.86 636.04 -411.79C489.97 -408.97 367.76 -352.31 282.64 -247.92C163.88 -102.3 127.88 120.43 181.25 379.23C234.65 638.13 371.11 902.11 565.48 1122.52C811.18 1401.14 1111.81 1566.2 1372.3 1566.2C1376.24 1566.2 1380.17 1566.16 1384.08 1566.09C1530.15 1563.27 1652.36 1506.61 1737.48 1402.22C1856.24 1256.6 1892.24 1033.87 1838.87 775.07C1785.47 516.17 1649.01 252.19 1454.64 31.78C1208.94 -246.84 908.3 -411.9 647.82 -411.9Z" fill="white"/>
<path d="M1325.64 1619.36C1296.01 1619.36 1265.64 1617.2 1234.64 1612.86C1099.45 1593.91 955.89 1533.43 819.49 1437.94C750.17 1389.41 682.98 1332.11 619.8 1267.63C554.7 1201.19 493.75 1127 438.64 1047.13C352.04 921.62 283.12 787.43 233.81 648.31C186.18 513.93 158.74 380.61 152.27 252.07C145.8 123.5 160.62 6.17999 196.32 -96.63C233.3 -203.11 291.18 -289.29 368.34 -352.77C479.94 -444.57 624.18 -481.15 785.47 -458.55C920.66 -439.61 1064.22 -379.12 1200.62 -283.63C1269.94 -235.1 1337.13 -177.8 1400.31 -113.32C1465.41 -46.88 1526.36 27.31 1581.48 107.18C1668.08 232.69 1737 366.87 1786.31 505.99C1833.94 640.37 1861.38 773.69 1867.85 902.23C1874.32 1030.8 1859.5 1148.12 1823.8 1250.93C1786.82 1357.41 1728.94 1443.59 1651.78 1507.07C1561.63 1581.23 1450.18 1619.35 1325.64 1619.35V1619.36ZM694.49 -463.47C570.31 -463.47 459.22 -425.48 369.35 -351.55C217.09 -226.3 140.56 -11.96 153.85 251.99C167.15 516.05 268.75 798.11 439.94 1046.23C656.93 1360.71 954.09 1571.95 1234.85 1611.29C1265.76 1615.62 1296.07 1617.77 1325.62 1617.78C1449.8 1617.78 1560.89 1579.79 1650.76 1505.86C1803.02 1380.61 1879.55 1166.27 1866.26 902.32C1852.96 638.26 1751.36 356.2 1580.17 108.09C1363.18 -206.39 1066.02 -417.63 785.26 -456.97C754.35 -461.3 724.04 -463.46 694.49 -463.46V-463.47Z" fill="white"/>
<path d="M1268.91 1663.15C1200.36 1663.15 1129.06 1652.04 1056.26 1629.72C917.38 1587.14 777.08 1504.18 650.51 1389.79C586.09 1331.57 525.34 1265.4 469.94 1193.14C412.88 1118.7 361.34 1037.56 316.75 951.96C245.12 814.44 193.95 671.12 164.67 526C136.38 385.81 129.6 249.84 144.51 121.86C159.42 -6.15001 195.29 -119.71 251.11 -215.68C308.92 -315.07 385.7 -391.12 479.33 -441.74C620.04 -517.81 787.59 -529.46 963.86 -475.42C1102.74 -432.84 1243.04 -349.88 1369.61 -235.49C1434.03 -177.27 1494.78 -111.1 1550.18 -38.84C1607.24 35.6 1658.78 116.74 1703.37 202.34C1775 339.86 1826.17 483.18 1855.45 628.3C1883.74 768.49 1890.52 904.46 1875.61 1032.44C1860.7 1160.45 1824.83 1274.01 1769.01 1369.98C1711.2 1469.36 1634.42 1545.42 1540.79 1596.04C1458.2 1640.69 1366.34 1663.15 1268.91 1663.15ZM751.22 -507.26C654.04 -507.26 562.47 -484.87 480.1 -440.34C295.33 -340.45 176.72 -140.72 146.1 122.04C115.47 384.92 176.58 679.39 318.17 951.22C493.04 1286.95 769.14 1540.02 1056.73 1628.19C1232.58 1682.1 1399.71 1670.5 1540.04 1594.63C1724.81 1494.74 1843.42 1295.01 1874.04 1032.25C1904.67 769.37 1843.56 474.9 1701.97 203.07C1527.1 -132.66 1251 -385.73 963.41 -473.9C890.78 -496.17 819.61 -507.26 751.23 -507.26H751.22Z" fill="white"/>
<path d="M1206.3 1697.86C1158.6 1697.86 1110.02 1692.84 1060.76 1682.78C944.57 1659.06 829.58 1608.49 718.97 1532.47C608.38 1456.46 507.74 1358.83 419.85 1242.3C328.86 1121.66 255.59 985.94 202.08 838.9C169.85 750.33 145.69 659.68 130.27 569.44C115.3 481.79 108.5 394.14 110.06 308.93C111.59 225.22 121.19 143.74 138.58 66.7599C155.9 -9.87005 180.93 -82.0201 213 -147.68C256.4 -236.55 312.08 -312.71 378.49 -374.03C447.17 -437.45 526.28 -483.94 613.61 -512.23C722.72 -547.57 839.05 -553.04 959.36 -528.48C1075.55 -504.76 1190.54 -454.19 1301.15 -378.17C1411.74 -302.16 1512.38 -204.53 1600.27 -88.0001C1691.26 32.6399 1764.53 168.37 1818.04 315.4C1850.27 403.97 1874.43 494.62 1889.85 584.86C1904.82 672.51 1911.63 760.16 1910.06 845.37C1908.53 929.08 1898.93 1010.56 1881.54 1087.54C1864.22 1164.17 1839.19 1236.32 1807.12 1301.98C1763.72 1390.85 1708.04 1467.01 1641.63 1528.33C1572.95 1591.75 1493.84 1638.24 1406.51 1666.53C1342.07 1687.4 1275.11 1697.85 1206.3 1697.85V1697.86ZM814.87 -542.07C746.19 -542.07 678.87 -531.7 614.09 -510.72C441.53 -454.83 303.32 -329.05 214.42 -146.99C81.87 124.46 77.81 492.81 203.57 838.34C309.35 1128.97 492.7 1375.01 719.87 1531.15C878.66 1640.29 1045.58 1696.36 1205.25 1696.37C1273.93 1696.37 1341.25 1686 1406.03 1665.02C1578.59 1609.13 1716.8 1483.35 1805.7 1301.29C1938.25 1029.84 1942.31 661.49 1816.55 315.95C1710.77 25.3199 1527.42 -220.72 1300.25 -376.86C1141.46 -486 974.54 -542.08 814.87 -542.08V-542.07Z" fill="white"/>
<path d="M1142.11 1722.94C1053.99 1722.94 965.05 1707.62 876.51 1677.1C755.82 1635.5 640.98 1567.57 535.16 1475.18C429.36 1382.8 337.92 1270.63 263.38 1141.78C186.21 1008.39 130.63 862.87 98.18 709.26C79.43 620.5 68.97 530.91 67.1 442.98C65.28 357.5 71.55 273.03 85.74 191.91C99.68 112.24 121.29 35.51 149.99 -36.15C178.52 -107.39 214.1 -173.75 255.74 -233.41C318.11 -322.77 393.12 -396.18 478.68 -451.6C567.21 -508.95 665.13 -545.71 769.7 -560.85C892.82 -578.68 1018.62 -565.88 1143.59 -522.81C1264.28 -481.21 1379.13 -413.28 1484.94 -320.89C1590.74 -228.51 1682.18 -116.34 1756.72 12.51C1833.89 145.9 1889.47 291.42 1921.92 445.03C1940.67 533.79 1951.13 623.38 1953 711.31C1954.82 796.79 1948.55 881.26 1934.36 962.38C1920.42 1042.05 1898.81 1118.78 1870.11 1190.44C1841.58 1261.67 1806 1328.04 1764.36 1387.7C1701.99 1477.06 1626.98 1550.47 1541.42 1605.89C1452.89 1663.24 1354.97 1700 1250.4 1715.14C1214.5 1720.34 1178.37 1722.93 1142.11 1722.93V1722.94ZM878.26 -567.05C842.01 -567.05 805.88 -564.48 769.94 -559.27C562.67 -529.25 385.32 -416.25 257.05 -232.49C83.28 16.46 25.94 359.6 99.74 708.94C163.87 1012.53 318.88 1284.23 536.2 1473.99C721.36 1635.66 932.9 1721.35 1141.85 1721.36C1178.1 1721.36 1214.23 1718.79 1250.17 1713.58C1457.44 1683.56 1634.79 1570.56 1763.06 1386.8C1936.83 1137.85 1994.17 794.71 1920.37 445.37C1856.24 141.78 1701.23 -129.92 1483.91 -319.68C1298.75 -481.35 1087.21 -567.05 878.26 -567.05Z" fill="white"/>
<path d="M1085.37 1738.8C1081.77 1738.8 1078.17 1738.78 1074.56 1738.73C939.37 1737.08 806.51 1704.76 679.69 1642.67C557.2 1582.71 445.47 1497.64 347.59 1389.84C249.71 1282.05 170.62 1156.95 112.51 1018.02C52.35 874.19 17.42 721.76 8.71001 564.97C3.91001 478.52 7.34001 392.42 18.91 309.06C30.17 227.95 49.22 148.73 75.54 73.6C101.38 -0.180023 134.39 -70.46 173.63 -135.3C212.58 -199.66 257.86 -258.95 308.19 -311.52C392.19 -399.24 488.83 -467.35 595.41 -513.97C705.74 -562.22 823.53 -585.94 945.55 -584.44C1080.74 -582.79 1213.6 -550.47 1340.42 -488.38C1462.91 -428.42 1574.64 -343.35 1672.52 -235.55C1770.4 -127.76 1849.49 -2.66003 1907.6 136.27C1967.76 280.1 2002.68 432.53 2011.4 589.32C2016.2 675.77 2012.77 761.87 2001.2 845.23C1989.94 926.34 1970.89 1005.56 1944.57 1080.69C1918.73 1154.47 1885.72 1224.75 1846.48 1289.59C1807.53 1353.95 1762.25 1413.24 1711.91 1465.81C1627.91 1553.53 1531.27 1621.64 1424.69 1668.26C1317.63 1715.09 1203.51 1738.8 1085.36 1738.8H1085.37ZM935.02 -582.91C699.69 -582.91 477.87 -486.4 309.34 -310.41C100.5 -92.32 -8.5 226.72 10.29 564.89C45.84 1204.54 523.27 1730.42 1074.57 1737.15C1078.07 1737.19 1081.59 1737.21 1085.09 1737.21C1320.42 1737.21 1542.24 1640.7 1710.77 1464.71C1919.61 1246.62 2028.61 927.59 2009.82 589.41C1974.28 -50.24 1496.84 -576.12 945.54 -582.85C942.04 -582.89 938.52 -582.91 935.02 -582.91Z" fill="white"/>
<path d="M1039.05 1746.88C986.88 1746.88 934.36 1742.8 881.79 1734.53C736.95 1711.75 599.83 1659.05 474.24 1577.89C413.88 1538.89 356.55 1493.34 303.82 1442.52C251.6 1392.18 203.45 1336.23 160.71 1276.23C117.97 1216.22 80.28 1151.66 48.69 1084.35C16.8 1016.39 -9.15001 945.01 -28.44 872.21C-68.57 720.73 -80.14 564.71 -62.83 408.47C-44.73 245.1 3.68999 92.05 81.07 -46.45C118.22 -112.93 161.94 -175.47 211.01 -232.33C259.67 -288.7 313.92 -339.88 372.25 -384.43C593.7 -553.57 865.76 -623.09 1138.33 -580.22C1283.17 -557.44 1420.29 -504.74 1545.88 -423.58C1606.24 -384.58 1663.57 -339.03 1716.3 -288.21C1768.52 -237.87 1816.67 -181.92 1859.41 -121.92C1902.15 -61.92 1939.84 2.64996 1971.43 69.96C2003.32 137.92 2029.27 209.3 2048.56 282.1C2088.69 433.58 2100.26 589.6 2082.95 745.84C2064.85 909.21 2016.43 1062.26 1939.05 1200.76C1901.9 1267.24 1858.18 1329.78 1809.11 1386.64C1760.45 1443.01 1706.2 1494.19 1647.87 1538.74C1469.15 1675.24 1257.4 1746.86 1039.06 1746.86L1039.05 1746.88ZM981.08 -590.99C763.07 -590.99 551.69 -519.48 373.23 -383.19C132.5 -199.34 -25.86 89.27 -61.24 408.63C-131.86 1045.96 291.3 1640.05 882.04 1732.95C1154.18 1775.75 1425.81 1706.33 1646.89 1537.49C1887.62 1353.64 2045.98 1065.03 2081.36 745.67C2151.98 108.34 1728.83 -485.75 1138.09 -578.65C1085.62 -586.9 1033.16 -590.98 981.08 -590.98V-590.99Z" fill="white"/>
<path d="M1009.99 1749.32C897.35 1749.32 785.33 1732.9 675.57 1700.21C523.96 1655.05 385.73 1581.56 264.71 1481.75C206.55 1433.78 152.74 1379.83 104.78 1321.39C57.28 1263.5 15.1 1200.71 -20.58 1134.75C-56.26 1068.79 -85.75 999.13 -108.21 927.7C-130.89 855.58 -146.61 781.02 -154.94 706.09C-172.26 550.19 -158.15 394.27 -113 242.66C-67.84 91.05 5.66 -47.18 105.46 -168.2C153.43 -226.36 207.38 -280.17 265.82 -328.13C323.71 -375.63 386.5 -417.81 452.46 -453.5C518.42 -489.18 588.08 -518.67 659.51 -541.13C731.63 -563.81 806.19 -579.53 881.12 -587.86C1037.02 -605.18 1192.94 -591.07 1344.55 -545.92C1496.16 -500.76 1634.39 -427.27 1755.41 -327.46C1813.57 -279.49 1867.38 -225.54 1915.34 -167.1C1962.84 -109.21 2005.02 -46.42 2040.71 19.54C2076.39 85.5 2105.88 155.16 2128.34 226.59C2151.02 298.71 2166.74 373.27 2175.07 448.2C2192.39 604.1 2178.28 760.02 2133.13 911.63C2087.97 1063.24 2014.47 1201.47 1914.67 1322.49C1866.7 1380.65 1812.75 1434.46 1754.31 1482.42C1696.42 1529.92 1633.63 1572.1 1567.67 1607.79C1501.71 1643.47 1432.05 1672.96 1360.62 1695.42C1288.5 1718.1 1213.94 1733.82 1139.01 1742.15C1095.98 1746.93 1052.94 1749.32 1010 1749.32H1009.99ZM1008.49 -593.62C816.64 -593.62 626.69 -545.94 453.22 -452.09C178.3 -303.36 -22.25 -56.46 -111.47 243.11C-200.7 542.68 -167.92 859.07 -19.18 1133.99C129.56 1408.91 376.45 1609.45 676.03 1698.68C786.58 1731.61 899.44 1747.92 1011.64 1747.92C1203.49 1747.92 1393.44 1700.24 1566.91 1606.39C1841.83 1457.65 2042.38 1210.76 2131.6 911.18C2220.83 611.61 2188.05 295.22 2039.31 20.3C1890.57 -254.62 1643.68 -455.16 1344.1 -544.39C1233.55 -577.31 1120.69 -593.62 1008.49 -593.62Z" fill="white"/>
</g>
</g>
</g>
</g>
</svg>
