<?xml version="1.0" encoding="UTF-8"?>
<svg id="Layer_1" data-name="Layer 1" xmlns="http://www.w3.org/2000/svg" xmlns:xlink="http://www.w3.org/1999/xlink" viewBox="0 0 1920 1080">
  <defs>
    <style>
      .cls-1 {
        clip-path: url(#clippath-6);
      }

      .cls-2 {
        clip-path: url(#clippath-7);
      }

      .cls-3 {
        clip-path: url(#clippath-4);
      }

      .cls-4 {
        fill: #fff;
      }

      .cls-5 {
        fill: none;
      }

      .cls-6 {
        clip-path: url(#clippath-1);
      }

      .cls-7 {
        clip-path: url(#clippath-5);
      }

      .cls-8 {
        clip-path: url(#clippath-3);
      }

      .cls-9 {
        opacity: .35;
      }

      .cls-10 {
        fill: #f49ac1;
      }

      .cls-11 {
        clip-path: url(#clippath-2);
      }

      .cls-12 {
        clip-path: url(#clippath);
      }

      .cls-13 {
        fill: #e093af;
      }

      .cls-14 {
        opacity: .7;
      }
    </style>
    <clipPath id="clippath">
      <rect class="cls-5" width="1920" height="1080"/>
    </clipPath>
    <clipPath id="clippath-1">
      <rect class="cls-5" x="-3.41" y="-68.4" width="1926.81" height="1284.54"/>
    </clipPath>
    <clipPath id="clippath-2">
      <path class="cls-5" d="M899.82,547.58l3.2-13.1,5.41-5.27c1.93-1.88,4.21-3.89,6.77-4.72l7.91-2.28c1.49-.55,3.06-.81,4.64-.79.23,0,9.29-.36,9.52-.33l13.51,3.07,23.8,9.89,21.65,17.45c.83.74,11.15,11.81,11.69,12.78l12.31,22.15-1.51,33.47-18.88,24.67-31.21,11.07-34.99-3.02-31.46-12.33-30.96-20.39-18.37-19.13-16.86-23.66-14.85-30.45-7.3-41.03v-30.2l13.09-37.25,21.14-26.18,35.51-26.24-28.94,14.64-15.44,10.46-23.67,20.78-19.01,22.7-13.26,21.16-8.21,17.01-8.11,22.76-5.44,24.12-2.12,18.59.17,28.86,3.11,22.66,6.6,24.98,6.72,17.37,13.15,24.92,19.52,26.37,18.89,18.87,17.14,13.39,29.59,17.04,27.77,10.54,25.91,5.9,26.34,2.42,32.18-1.81,32.18-7.2,22.63-8.59,15.7-11.5,21.65-19.8,15.44-26.51,6.54-17.11,4.19-27.69-1.51-26.18-8.56-33.89-9.4-19.91-16.28-25.22-16.44-18.29-17.79-14.77s-22.82-12.92-23.49-13.26c-.67-.34-23.32-8.73-23.32-8.73l-26.18-4.7-20.64,2.01-15.77,5.37-13.93,11.24-9.9,14.77-3.86,11.91,2.07,16.1Z"/>
    </clipPath>
    <clipPath id="clippath-3">
      <path class="cls-5" d="M1019.88,606.64l-6.04,10.57-10.57,6.8-18.63,2.27-18.37-3.78-27.43-14.09-29.2-26.68-10.32-23.16,1.51-33.47,18.88-24.67,31.21-11.07,34.98,3.02,31.46,12.33,30.96,20.39,18.37,19.13,16.86,23.66,14.85,30.45,7.3,41.03v30.2l-13.09,37.25-21.14,26.18-35.51,26.24,28.94-14.64,15.44-10.46,23.67-20.78,19.01-22.7,13.26-21.16,8.21-17.01,8.11-22.76,5.44-24.12,2.12-18.59-.17-28.86-3.11-22.66-6.6-24.98-6.72-17.37-13.15-24.92-19.52-26.37-18.89-18.87-17.14-13.39-29.59-17.04-27.77-10.54-25.91-5.9-26.34-2.42-32.18,1.81-32.18,7.2-22.63,8.59-15.7,11.5-21.65,19.8-15.44,26.51-6.54,17.11-4.19,27.69,1.51,26.18,8.56,33.89,9.4,19.91,16.28,25.22,16.44,18.29,17.79,14.77s22.82,12.92,23.49,13.26c.67.34,23.32,8.73,23.32,8.73l26.18,4.7,20.64-2.01,15.77-5.37,13.93-11.24,9.9-14.77,3.86-11.91-1.93-6.88Z"/>
    </clipPath>
    <clipPath id="clippath-4">
      <path class="cls-5" d="M815.66,510.81l7.67-31.42,12.98-12.65c4.63-4.51,10.1-9.33,16.25-11.31l18.97-5.47c3.56-1.31,7.34-1.95,11.13-1.89.56,0,22.28-.87,22.84-.8l32.39,7.37,57.09,23.72,51.93,41.85c2,1.77,26.73,28.32,28.03,30.65l29.53,53.14-3.62,80.29-45.27,59.16-74.85,26.56-83.91-7.24-75.46-29.58-74.25-48.9-44.07-45.88-40.45-56.74-35.62-73.04-17.51-98.4v-72.44l31.39-89.34,50.71-62.78,85.16-62.94-69.42,35.1-37.02,25.09-56.78,49.84-45.59,54.43-31.81,50.76-19.69,40.8-19.46,54.59-13.05,57.85-5.09,44.59.42,69.22,7.45,54.35,15.83,59.92,16.12,41.65,31.54,59.77,46.81,63.25,45.31,45.27,41.1,32.11,70.97,40.88,66.6,25.29,62.14,14.15,63.18,5.8,77.19-4.34,77.18-17.26,54.27-20.6,37.66-27.57,51.91-47.49,37.02-63.59,15.7-41.05,10.06-66.4-3.62-62.78-20.52-81.29-22.54-47.76-39.04-60.5-39.44-43.87-42.66-35.41s-54.73-30.99-56.34-31.79-55.94-20.93-55.94-20.93l-62.78-11.27-49.5,4.83-37.83,12.88-33.4,26.96-23.74,35.41-9.26,28.57,4.97,38.61Z"/>
    </clipPath>
    <clipPath id="clippath-5">
      <path class="cls-5" d="M1103.62,652.48l-14.49,25.35-25.35,16.3-44.67,5.43-44.07-9.05-65.8-33.81-70.02-63.99-24.75-55.54,3.62-80.29,45.27-59.16,74.85-26.56,83.91,7.24,75.46,29.58,74.25,48.9,44.07,45.88,40.45,56.74,35.62,73.04,17.51,98.4v72.44l-31.39,89.34-50.71,62.78-85.16,62.94,69.42-35.1,37.02-25.09,56.78-49.84,45.59-54.43,31.81-50.76,19.69-40.8,19.46-54.59,13.05-57.85,5.09-44.59-.42-69.22-7.45-54.35-15.83-59.92-16.12-41.65-31.54-59.77-46.82-63.25-45.31-45.27-41.1-32.11-70.97-40.88-66.6-25.29-62.14-14.15-63.18-5.8-77.19,4.34-77.18,17.26-54.27,20.6-37.66,27.57-51.92,47.49-37.02,63.59-15.7,41.05-10.06,66.4,3.62,62.78,20.52,81.29,22.54,47.76,39.04,60.5,39.44,43.87,42.66,35.41s54.73,30.99,56.34,31.79c1.61.8,55.94,20.93,55.94,20.93l62.78,11.27,49.5-4.83,37.83-12.88,33.4-26.96,23.74-35.41,9.26-28.57-4.63-16.5Z"/>
    </clipPath>
    <clipPath id="clippath-6">
      <path class="cls-5" d="M676.84,423.36l18.72-76.63,31.67-30.85c11.28-10.99,24.64-22.74,39.62-27.59l46.26-13.35c8.69-3.19,17.89-4.75,27.14-4.61,1.37.02,54.34-2.12,55.7-1.95l79,17.98,139.24,57.86,126.66,102.07c4.88,4.31,65.2,69.06,68.36,74.75l72.01,129.59-8.83,195.81-110.42,144.28-182.56,64.78-204.64-17.67-184.03-72.14-181.09-119.25-107.47-111.89-98.64-138.39-86.86-178.14-42.7-239.98L187.14,6.31l63.4-222.83,123.67-153.11,207.7-153.51-169.3,85.62-90.3,61.18-138.47,121.56L72.65-122.03-4.92,1.76l-48.01,99.5-47.46,133.15-31.83,141.08-12.41,108.74,1.02,168.82,18.17,132.55,38.61,146.14,39.31,101.59,76.92,145.78,114.17,154.25,110.5,110.41,100.23,78.32,173.09,99.7,162.44,61.67,151.56,34.51,154.08,14.15,188.26-10.59,188.24-42.1,132.35-50.23,91.84-67.24,126.61-115.82,90.3-155.08,38.28-100.11,24.54-161.95-8.83-153.11-50.06-198.26-54.96-116.47-95.2-147.55-96.19-106.98-104.04-86.37s-133.48-75.57-137.41-77.54c-3.93-1.96-136.43-51.04-136.43-51.04l-153.11-27.48-120.72,11.78-92.26,31.41-81.46,65.76-57.91,86.37-22.57,69.69,12.11,94.17Z"/>
    </clipPath>
    <clipPath id="clippath-7">
      <path class="cls-5" d="M1378.15,744.28l-16.27,49.67-24.62,36.4-27.94,24.09-36.52,16.02-53.4,11.6-55.55,1.65-107.47-22.08-160.47-82.45-170.78-156.06-60.36-135.45,8.83-195.81,110.42-144.28,182.56-64.78,204.64,17.67,184.03,72.14,181.09,119.25,107.47,111.89,98.64,138.39,86.86,178.14,42.7,239.98v176.67l-76.56,217.89-123.67,153.11-207.7,153.51,169.3-85.62,90.3-61.18,138.47-121.56,111.18-132.75,77.57-123.8,48.01-99.5,47.46-133.15,31.83-141.08,12.4-108.74-1.02-168.82-18.17-132.55-38.61-146.14-39.31-101.59-76.92-145.78-114.17-154.25-110.5-110.41-100.23-78.32-173.09-99.7-162.44-61.67-151.56-34.51-154.08-14.15-188.26,10.59-188.24,42.1-132.35,50.23-91.84,67.24-126.61,115.82-90.3,155.08-38.28,100.11-14.1,65.38c-3.23,19.1-12.72,107.39-11.22,126.7l9.61,122.98,50.06,198.26,54.96,116.47,95.21,147.55,96.19,106.98,104.04,86.37s133.48,75.58,137.41,77.54c3.93,1.96,136.43,51.04,136.43,51.04l153.11,27.48,120.72-11.78,92.26-31.41,81.46-65.76,57.91-86.37,22.57-69.69-3.1-64.82Z"/>
    </clipPath>
  </defs>
  <g class="cls-12">
    <rect class="cls-10" width="1920" height="1080"/>
    <g class="cls-14">
      <g class="cls-6">
        <g>
          <g class="cls-11">
            <rect class="cls-13" x="908.81" y="385.76" width="196" height="385.55"/>
            <rect class="cls-13" x="759.38" y="385.76" width="149.42" height="385.55"/>
          </g>
          <g class="cls-8">
            <rect class="cls-13" x="814.75" y="373.68" width="196" height="385.55"/>
            <rect class="cls-13" x="1010.75" y="373.68" width="149.42" height="385.55"/>
          </g>
          <g class="cls-9">
            <path class="cls-4" d="M989.29,627.13c-7.52,0-15.92-1.58-24.78-4.77-33.47-12.02-62.69-43.45-65.15-70.06h0c-.99-10.69,2.36-19.34,9.67-25,10.6-8.2,27.8-8.91,47.21-1.94,33.47,12.02,62.69,43.45,65.15,70.06.99,10.69-2.36,19.34-9.67,25-5.76,4.46-13.47,6.7-22.43,6.7ZM931.55,522.26c-8.67,0-16.14,2.11-21.55,6.3-6.86,5.31-9.99,13.47-9.06,23.6,2.4,26.05,31.16,56.88,64.1,68.71,18.61,6.68,35.69,6.05,45.7-1.7,6.86-5.31,9.99-13.47,9.06-23.6-2.4-26.05-31.16-56.88-64.1-68.71-8.55-3.07-16.78-4.6-24.15-4.6Z"/>
            <path class="cls-4" d="M990.52,631.55c-10.2,0-21.95-3.08-33.9-9.12-33.88-17.11-59.91-52.73-58.01-79.41.72-10.18,5.35-17.97,13.39-22.53,12.56-7.13,32.05-5.33,52.13,4.81,33.88,17.11,59.91,52.73,58.01,79.41-.72,10.18-5.35,17.97-13.39,22.53-5.08,2.88-11.29,4.31-18.22,4.31ZM930.23,517.76c-6.65,0-12.6,1.36-17.45,4.11-7.55,4.29-11.91,11.64-12.59,21.26-1.85,26.1,23.78,61.03,57.14,77.88,19.61,9.9,38.53,11.71,50.62,4.85,7.55-4.29,11.91-11.64,12.59-21.26,1.85-26.09-23.78-61.03-57.14-77.88-11.74-5.93-23.25-8.96-33.18-8.96Z"/>
            <path class="cls-4" d="M990.54,636.15c-12.74,0-27.71-5.15-42.39-14.89-33.47-22.2-55.34-61.47-48.77-87.54,2.4-9.53,8.31-16.36,17.1-19.75,14.74-5.7,35.72-1.03,56.12,12.5,33.47,22.2,55.34,61.47,48.77,87.54-2.4,9.53-8.31,16.36-17.1,19.75-4.14,1.6-8.76,2.38-13.73,2.38ZM900.92,534.11c-6.42,25.47,15.16,63.97,48.11,85.83,19.97,13.25,40.4,17.86,54.66,12.35,8.28-3.2,13.86-9.66,16.13-18.66,6.42-25.47-15.16-63.97-48.11-85.83-19.97-13.25-40.4-17.86-54.66-12.35-8.28,3.2-13.86,9.66-16.13,18.66h0Z"/>
            <path class="cls-4" d="M989.36,640.65c-15.34,0-33.43-7.78-50.1-21.86-32.16-27.17-48.97-69.4-37.47-94.14h0c4.08-8.78,11.31-14.54,20.91-16.66,16.87-3.72,38.85,4.11,58.78,20.95,32.16,27.17,48.97,69.4,37.47,94.14-4.08,8.78-11.31,14.54-20.91,16.66-2.77.61-5.67.91-8.68.91ZM903.23,525.32c-11.22,24.13,5.41,65.52,37.05,92.25,19.56,16.52,41.03,24.22,57.41,20.61,9.09-2.01,15.94-7.46,19.81-15.77,11.21-24.13-5.41-65.52-37.05-92.25-19.56-16.52-41.02-24.23-57.41-20.61-9.09,2.01-15.94,7.46-19.81,15.77h0Z"/>
            <path class="cls-4" d="M987.18,644.89c-18.19,0-39.29-11.02-57.04-29.93-29.92-31.88-40.78-76.24-24.22-98.89l.64.47-.64-.47c5.82-7.95,14.45-12.5,24.96-13.14,18.77-1.14,41.09,10.01,59.71,29.85,29.92,31.88,40.78,76.24,24.22,98.89-5.81,7.95-14.45,12.5-24.96,13.14-.88.05-1.77.08-2.67.08ZM907.21,517.01c-16.13,22.06-5.32,65.52,24.09,96.86,18.3,19.5,40.17,30.49,58.45,29.35,10.03-.61,18.25-4.93,23.78-12.49,16.13-22.06,5.33-65.52-24.09-96.86-18.3-19.5-40.15-30.48-58.45-29.35-10.03.61-18.25,4.93-23.78,12.49h0Z"/>
            <path class="cls-4" d="M984.08,648.73c-1.49,0-3-.08-4.54-.22-20.19-1.97-42.07-16.46-58.53-38.76-26.71-36.18-30.83-81.72-9.18-101.51,7.68-7.02,17.84-10.13,29.38-9.01,20.19,1.97,42.07,16.46,58.53,38.76,26.71,36.18,30.83,81.72,9.18,101.51-6.65,6.08-15.17,9.24-24.84,9.24ZM912.36,508.82l.54.59c-21.06,19.26-16.85,63.85,9.39,99.39,16.2,21.95,37.66,36.2,57.41,38.12,11.08,1.08,20.82-1.9,28.15-8.6,21.06-19.26,16.85-63.84-9.39-99.39-16.2-21.95-37.66-36.2-57.41-38.12-11.08-1.08-20.81,1.9-28.15,8.6l-.54-.59Z"/>
            <path class="cls-4" d="M980.16,652.05c-4.21,0-8.58-.58-13.05-1.75-20.89-5.46-41.46-23.08-55.03-47.12-22.53-39.93-19.21-85.57,7.39-101.74,9.73-5.91,21.54-7.29,34.15-4,20.89,5.46,41.46,23.08,55.03,47.12,22.53,39.93,19.22,85.57-7.39,101.74-6.28,3.82-13.43,5.75-21.11,5.75ZM919.89,502.12l.41.68c-25.88,15.72-28.95,60.4-6.83,99.6,13.36,23.68,33.56,41.01,54.04,46.37,12.19,3.18,23.57,1.87,32.93-3.82,25.88-15.72,28.95-60.4,6.83-99.6-13.36-23.68-33.56-41.02-54.04-46.37-12.19-3.18-23.57-1.87-32.93,3.82l-.41-.68Z"/>
            <path class="cls-4" d="M975.79,654.7c-27.7,0-57.66-23.59-72.17-59.43-10.12-24.99-10.88-51.96-2.03-72.16,5.81-13.27,15.23-22.67,27.24-27.2h0c31.29-11.79,70.89,13.57,88.29,56.54,10.12,24.99,10.88,51.96,2.03,72.16-5.81,13.27-15.23,22.67-27.24,27.2-5.19,1.96-10.61,2.89-16.12,2.89ZM929.39,497.41c-11.6,4.37-20.71,13.48-26.35,26.35-8.68,19.81-7.91,46.32,2.05,70.92,17.08,42.17,55.77,67.14,86.25,55.65,11.6-4.37,20.71-13.48,26.35-26.35,8.68-19.81,7.91-46.32-2.05-70.92-17.08-42.17-55.77-67.14-86.25-55.65h0Z"/>
            <path class="cls-4" d="M971.16,656.71c-32.51,0-64.95-29.54-75.28-70.56-6.42-25.49-3.26-50.81,8.66-69.48,8.57-13.43,20.77-21.98,35.26-24.73h0c35.55-6.74,73.71,24.5,85.07,69.64,6.42,25.49,3.26,50.81-8.66,69.48-8.57,13.43-20.77,21.98-35.25,24.73-3.25.62-6.52.92-9.79.92ZM940.09,493.51c-14.05,2.67-25.88,10.97-34.21,24.02-11.69,18.3-14.77,43.17-8.46,68.24,11.16,44.34,48.52,75.05,83.23,68.47,14.05-2.67,25.88-10.97,34.21-24.02,11.69-18.3,14.77-43.17,8.46-68.24-11.16-44.34-48.5-75.05-83.23-68.47h0Z"/>
            <path class="cls-4" d="M966.82,658.03c-38.58,0-73.24-36.42-77.7-82.11-2.43-24.86,4.53-48.59,19.08-65.09,11.58-13.13,27.22-20.62,44.02-21.09l.02.79-.02-.79c39.28-1.11,74.89,35.73,79.41,82.09,2.43,24.87-4.53,48.59-19.08,65.09-11.58,13.13-27.22,20.62-44.02,21.09-.57.02-1.14.02-1.71.02ZM953.93,491.3c-.56,0-1.11,0-1.67.02-16.36.46-31.59,7.76-42.88,20.56-14.26,16.17-21.07,39.45-18.69,63.88,4.38,44.88,38.34,80.67,76.12,80.68.56,0,1.11,0,1.67-.02,16.36-.46,31.59-7.76,42.88-20.55,14.26-16.17,21.07-39.45,18.69-63.88-4.38-44.88-38.33-80.68-76.12-80.68Z"/>
            <path class="cls-4" d="M963.22,658.74c-2.78,0-5.58-.17-8.39-.5-42.31-5.06-74.27-47-71.24-93.51,1.54-23.64,12.13-45.26,29.05-59.33,15.11-12.56,34.03-18.21,53.27-15.92,42.31,5.06,74.27,47,71.25,93.51-1.54,23.64-12.13,45.26-29.05,59.33-12.91,10.73-28.59,16.42-44.88,16.42ZM957.52,490.58c-15.92,0-31.24,5.56-43.86,16.05-16.59,13.79-26.97,35-28.48,58.21-2.97,45.67,28.36,86.87,69.85,91.82,18.8,2.25,37.29-3.28,52.06-15.56,16.59-13.79,26.97-35,28.48-58.21,2.97-45.67-28.36-86.87-69.85-91.82-2.74-.33-5.48-.49-8.2-.49Z"/>
            <path class="cls-4" d="M960.86,659.02c-6.91,0-13.87-.88-20.74-2.68-44.55-11.61-71.71-58.05-60.55-103.52,5.47-22.3,19.18-40.95,38.6-52.52,18.95-11.3,41.14-14.46,62.47-8.9,44.55,11.61,71.71,58.05,60.55,103.52-5.47,22.3-19.18,40.95-38.6,52.52-12.85,7.66-27.18,11.58-41.72,11.58ZM959.89,490.31c-14.26,0-28.31,3.84-40.91,11.35-19.05,11.36-32.5,29.66-37.87,51.54-10.96,44.63,15.69,90.21,59.41,101.6,20.91,5.45,42.67,2.35,61.25-8.73,19.05-11.36,32.5-29.66,37.87-51.54,10.96-44.63-15.69-90.21-59.4-101.6-6.74-1.76-13.56-2.62-20.34-2.62Z"/>
            <path class="cls-4" d="M960.01,659c-11.83,0-23.83-2.19-35.36-6.83-22.84-9.18-40.23-26.29-48.97-48.18-8.26-20.67-7.69-43.25,1.6-63.57,19.71-43.15,73.01-63.27,118.82-44.85h0c22.84,9.18,40.23,26.29,48.97,48.18,8.26,20.67,7.69,43.25-1.6,63.57-14.75,32.29-48.31,51.68-83.46,51.68ZM960.72,490.32c-34.55,0-67.51,19.04-82,50.75-9.1,19.93-9.66,42.06-1.57,62.32,8.58,21.48,25.66,38.27,48.09,47.29,45.03,18.1,97.42-1.65,116.78-44.03,9.1-19.93,9.66-42.06,1.57-62.32-8.58-21.48-25.66-38.27-48.09-47.29-11.34-4.56-23.16-6.72-34.78-6.72Z"/>
            <path class="cls-4" d="M961.81,659.07c-18.12,0-36.53-4.34-53.05-13.44-23.18-12.76-39.48-33.45-44.72-56.75-4.78-21.23-.2-42.92,12.88-61.08,28.47-39.5,89.06-51.03,135.05-25.69h0c23.18,12.76,39.48,33.45,44.72,56.75,4.78,21.23.2,42.92-12.88,61.08-18.25,25.31-49.68,39.14-82.01,39.14ZM958.91,490.24c-31.83,0-62.75,13.59-80.69,38.49-12.82,17.78-17.3,39.02-12.62,59.8,5.15,22.86,21.16,43.16,43.94,55.71,45.32,24.96,104.98,13.64,133-25.23,12.82-17.78,17.3-39.02,12.62-59.8-5.14-22.86-21.16-43.16-43.94-55.71-16.29-8.97-34.44-13.26-52.31-13.26Z"/>
            <path class="cls-4" d="M966.62,659.64c-25.85,0-52.31-7.6-73.79-22.95-22.87-16.35-36.87-39.5-38.39-63.51-1.37-21.56,7.24-42.12,24.25-57.88,37.25-34.53,104.19-36.43,149.22-4.24,22.87,16.35,36.87,39.5,38.39,63.51,1.37,21.56-7.24,42.12-24.25,57.88-19.48,18.06-47.09,27.19-75.43,27.19ZM954.11,489.67c-27.94,0-55.14,9-74.33,26.79-16.65,15.44-25.09,35.54-23.75,56.62,1.5,23.54,15.25,46.25,37.73,62.32,44.45,31.77,110.49,29.92,147.21-4.12,16.65-15.44,25.09-35.54,23.75-56.62-1.5-23.54-15.25-46.25-37.73-62.32-21.22-15.17-47.36-22.67-72.88-22.67Z"/>
            <path class="cls-4" d="M974.4,661.16c-34.91,0-71.34-12.41-97.15-35.79-21.56-19.53-32.67-44.36-30.48-68.12,2.01-21.79,14.77-40.98,35.94-54.03,45.82-28.25,117.94-19.66,160.78,19.15,21.56,19.53,32.67,44.36,30.48,68.12-2.01,21.79-14.77,40.98-35.94,54.03-18.22,11.23-40.6,16.64-63.64,16.64ZM946.37,488.15c-22.75,0-44.84,5.34-62.82,16.42-20.73,12.78-33.23,31.54-35.19,52.82-2.14,23.26,8.78,47.61,29.97,66.8,25.52,23.12,61.55,35.4,96.06,35.4,22.75,0,44.84-5.34,62.82-16.42,20.73-12.78,33.23-31.54,35.19-52.82,2.14-23.26-8.78-47.61-29.97-66.8-25.52-23.12-61.55-35.4-96.06-35.4Z"/>
            <path class="cls-4" d="M984.42,664.03c-44.95,0-93.21-19.4-121.96-52.28-19.61-22.42-27.27-47.46-21.56-70.52,5.44-21.97,22.54-39.48,48.16-49.31,53.95-20.71,129.86-.95,169.23,44.05,19.61,22.42,27.27,47.46,21.56,70.52-5.44,21.96-22.54,39.48-48.16,49.31-14.54,5.58-30.68,8.23-47.27,8.23ZM936.38,485.28c-16.41,0-32.37,2.61-46.75,8.14-25.12,9.64-41.88,26.77-47.19,48.21-5.58,22.54,1.95,47.07,21.21,69.09,38.96,44.54,114.09,64.11,167.46,43.61,25.12-9.64,41.88-26.77,47.19-48.21,5.58-22.54-1.95-47.07-21.21-69.09-28.46-32.54-76.23-51.75-120.71-51.75Z"/>
            <path class="cls-4" d="M995.56,668.52c-55.59,0-117.06-29.23-146.67-72.52-16.59-24.26-20.9-49.42-12.12-70.83,9.04-22.05,30.7-37.46,61.01-43.39,61.39-12.01,139.49,19.38,174.09,69.96h0c16.59,24.26,20.9,49.42,12.12,70.83-9.04,22.05-30.7,37.46-61.01,43.39-8.85,1.73-18.05,2.56-27.42,2.56ZM925.24,480.8c-9.28,0-18.39.82-27.17,2.54-29.77,5.82-51.02,20.89-59.85,42.43-8.57,20.9-4.32,45.53,11.96,69.33,34.27,50.11,111.64,81.19,172.47,69.3,29.77-5.82,51.02-20.89,59.85-42.43,8.57-20.9,4.31-45.53-11.96-69.33h0c-29.33-42.88-90.23-71.84-145.3-71.84Z"/>
            <path class="cls-4" d="M1006.79,674.7c-66.7,0-141.98-42.42-169.8-96.4-13.05-25.31-13.96-49.94-2.57-69.34,12.7-21.63,39.82-34.7,74.41-35.85,67.93-2.24,146.39,40.95,174.92,96.32,13.05,25.31,13.96,49.94,2.57,69.34-12.7,21.63-39.82,34.7-74.41,35.85-1.7.06-3.41.08-5.12.08ZM913.97,474.62c-1.7,0-3.39.03-5.08.08-34.03,1.13-60.67,13.91-73.09,35.06-11.1,18.91-10.18,42.99,2.61,67.81,28.28,54.87,106.11,97.72,173.45,95.45,34.03-1.13,60.67-13.91,73.09-35.06,11.1-18.91,10.17-43-2.61-67.81h0c-27.57-53.49-102.22-95.54-168.37-95.54Z"/>
            <path class="cls-4" d="M1016.97,682.53c-5.92,0-12.06-.36-18.38-1.08-73.27-8.4-150.14-63.34-171.35-122.48-9.19-25.61-6.75-49.17,6.85-66.33,16.83-21.23,48.93-30.83,88.08-26.34,73.27,8.4,150.14,63.34,171.35,122.48,9.19,25.61,6.75,49.17-6.85,66.33-14.11,17.8-38.96,27.42-69.69,27.42ZM903.76,466.8c-30.24,0-54.63,9.41-68.43,26.82-13.25,16.72-15.59,39.73-6.6,64.81,21.03,58.63,97.31,113.1,170.04,121.43,38.59,4.43,70.17-4.96,86.65-25.75,13.25-16.71,15.59-39.73,6.6-64.81h0c-21.03-58.63-97.31-113.1-170.04-121.43-6.27-.72-12.35-1.07-18.22-1.07Z"/>
            <path class="cls-4" d="M1025,691.76c-12.97,0-27.05-1.87-41.86-5.65-77.21-19.75-150.38-86.04-163.1-147.77-5.28-25.62.25-47.09,16-62.11,21.31-20.33,58.33-25.65,101.57-14.59,77.21,19.75,150.38,86.04,163.1,147.77,5.28,25.62-.25,47.09-16,62.11-14.01,13.37-34.82,20.24-59.71,20.24ZM895.73,457.56c-24.47,0-44.88,6.73-58.59,19.81-15.32,14.62-20.7,35.58-15.54,60.64,12.61,61.19,85.25,126.93,161.93,146.55,42.69,10.92,79.17,5.75,100.08-14.2,15.32-14.62,20.7-35.58,15.54-60.64-12.61-61.19-85.25-126.93-161.93-146.55-14.69-3.76-28.65-5.61-41.48-5.61Z"/>
            <path class="cls-4" d="M1029.92,701.81c-19.5,0-41.45-4.5-64.14-13.52-79.52-31.58-146.79-108.51-149.94-171.47-1.24-24.71,7.36-44.39,24.85-56.92,25.79-18.46,68.51-18.63,114.28-.45,79.53,31.58,146.79,108.51,149.94,171.47,1.24,24.71-7.36,44.39-24.86,56.92-13,9.31-30.31,13.97-50.14,13.97ZM890.82,447.51c-19.49,0-36.47,4.56-49.21,13.68-17.04,12.2-25.4,31.41-24.19,55.55,3.13,62.4,69.94,138.7,148.94,170.07,45.27,17.98,87.43,17.88,112.77-.26,17.04-12.2,25.4-31.41,24.19-55.55-3.13-62.4-69.94-138.7-148.94-170.08-22.52-8.94-44.27-13.42-63.57-13.42Z"/>
            <path class="cls-4" d="M1032.24,712.6c-25.62,0-55.38-8.45-85.47-24.86-80-43.63-139.13-130.14-131.81-192.84,2.73-23.4,14.33-41.02,33.53-50.96,30.86-15.97,77.76-9.97,125.47,16.06,80,43.63,139.13,130.14,131.81,192.84-2.73,23.4-14.33,41.02-33.53,50.96-11.4,5.9-24.99,8.8-40,8.8ZM888.52,436.72c-14.76,0-28.1,2.84-39.29,8.63-18.71,9.68-30.01,26.88-32.68,49.73-7.25,62.11,51.51,147.91,130.99,191.26,47.25,25.77,93.59,31.77,123.98,16.04,18.71-9.68,30.01-26.88,32.68-49.73l.79.09-.79-.09c7.25-62.11-51.51-147.91-130.99-191.26-29.85-16.28-59.36-24.67-84.69-24.67Z"/>
            <path class="cls-4" d="M1031.48,723.49c-31.61,0-68.91-13.68-105-39.26-78.47-55.62-127.23-150.33-108.7-211.12,6.65-21.81,21.26-37.13,42.25-44.3,36.03-12.31,86.22.66,134.25,34.71,78.47,55.62,127.23,150.33,108.7,211.12-6.65,21.81-21.26,37.13-42.25,44.3-8.96,3.06-18.79,4.56-29.24,4.56ZM889.29,425.83c-10.29,0-19.95,1.47-28.76,4.48-20.49,7-34.75,21.96-41.24,43.26-18.35,60.19,30.15,154.11,108.1,209.37,35.82,25.39,72.8,38.97,104.05,38.98,10.29,0,19.95-1.47,28.76-4.48,20.49-7,34.75-21.96,41.24-43.26,18.35-60.19-30.15-154.11-108.1-209.36-35.82-25.39-72.8-38.98-104.06-38.98Z"/>
            <path class="cls-4" d="M1028,734.04c-37.87,0-82.45-20.27-122.72-56.45-74.79-67.22-111.04-168.41-80.8-225.58,10.6-20.03,28.35-32.78,51.33-36.87,40.99-7.29,93.19,13.27,139.63,55.01,74.79,67.22,111.04,168.41,80.8,225.58l-.7-.37.7.37c-10.6,20.03-28.35,32.78-51.33,36.87-5.45.97-11.11,1.45-16.92,1.45ZM892.76,415.28c-5.73,0-11.29.47-16.66,1.43-22.49,4-39.85,16.47-50.21,36.05-29.92,56.56,6.17,156.89,80.45,223.65,46.08,41.41,97.78,61.83,138.29,54.62,22.49-4,39.85-16.47,50.21-36.05,29.92-56.56-6.17-156.89-80.45-223.65-39.97-35.92-84.17-56.05-121.63-56.05Z"/>
            <path class="cls-4" d="M1022.3,743.89c-44.8,0-96.45-28.34-138.63-76.17-68.88-78.1-90.58-183.74-48.38-235.49,14.73-18.06,35.87-27.87,61.12-28.36,45.24-.86,97.85,27.59,140.66,76.15,68.88,78.1,90.58,183.74,48.38,235.49-14.73,18.06-35.87,27.87-61.12,28.36-.67.01-1.35.02-2.03.02ZM898.45,405.44c-.67,0-1.34,0-2,.02-24.77.48-45.49,10.08-59.92,27.77-41.73,51.17-20.05,155.89,48.34,233.43,41.88,47.49,93.09,75.63,137.44,75.63.67,0,1.34,0,2-.02,24.77-.48,45.49-10.08,59.92-27.77,41.73-51.17,20.05-155.89-48.34-233.43-41.88-47.49-93.09-75.63-137.44-75.63Z"/>
            <path class="cls-4" d="M1014.33,752.7c-5.1,0-10.32-.37-15.65-1.12-48.25-6.76-99.29-43.02-136.53-97-60.67-87.93-66.01-195.69-11.89-240.21,19.23-15.82,44.06-22.12,71.82-18.23,48.25,6.76,99.29,43.02,136.53,97,60.67,87.93,66.01,195.69,11.89,240.21-15.53,12.78-34.73,19.34-56.17,19.34ZM906.43,396.63c-21.08,0-39.93,6.44-55.17,18.98-53.49,44-48.02,150.8,12.19,238.08,36.99,53.61,87.63,89.62,135.45,96.32,27.31,3.83,51.72-2.36,70.59-17.88l.5.61-.5-.61c53.49-44,48.02-150.81-12.19-238.08-36.99-53.61-87.63-89.62-135.45-96.32-5.25-.74-10.4-1.1-15.42-1.1Z"/>
            <path class="cls-4" d="M1004.63,760.19c-11.78,0-24.04-1.91-36.55-5.75-49.4-15.14-96.81-58.58-126.81-116.19-50.19-96.36-37.6-203.65,28.07-239.15,24.22-13.09,53.03-15.1,83.34-5.81,49.4,15.14,96.81,58.58,126.81,116.19,50.19,96.36,37.6,203.65-28.07,239.15l-.38-.7.38.7c-14.22,7.69-30.03,11.55-46.79,11.55ZM916.12,389.14c-16.51,0-32.06,3.8-46.04,11.36-64.91,35.09-77.21,141.42-27.41,237.01,29.82,57.24,76.87,100.39,125.87,115.41,29.89,9.16,58.29,7.2,82.12-5.69,64.91-35.09,77.21-141.42,27.41-237.01-29.82-57.24-76.87-100.39-125.87-115.41-12.35-3.79-24.45-5.67-36.08-5.67Z"/>
            <path class="cls-4" d="M994.03,766.08c-68.08,0-140.39-59.27-172.41-147.25-10.86-29.84-16.31-61.25-15.77-90.84.52-28.66,6.63-55.75,17.67-78.34,15.31-31.36,39.13-53.03,68.88-62.66,76.5-24.77,169.24,38.88,206.73,141.9,10.86,29.84,16.31,61.25,15.77,90.84-.52,28.66-6.63,55.75-17.67,78.34-15.31,31.36-39.13,53.03-68.88,62.66-11.17,3.62-22.69,5.35-34.32,5.35ZM926.76,383.23c-11.49,0-22.85,1.71-33.87,5.28-29.33,9.5-52.82,30.88-67.94,61.84-22.58,46.25-23.27,109.03-1.83,167.94,37.2,102.22,129.05,165.44,204.75,140.92l.25.76-.25-.76c29.33-9.5,52.82-30.88,67.94-61.84,22.58-46.25,23.27-109.03,1.83-167.94-31.79-87.34-103.47-146.21-170.87-146.21Z"/>
            <path class="cls-4" d="M983.11,770.39c-80.15,0-158.16-73.86-179.27-173.8-12.67-59.97-2.81-118.9,27.04-161.67,22.08-31.63,52.62-51.08,88.31-56.25,86.29-12.5,174.99,64.88,197.72,172.48,12.67,59.97,2.81,118.9-27.04,161.67-22.08,31.63-52.62,51.08-88.31,56.25-6.14.89-12.31,1.32-18.45,1.32ZM937.65,378.93c-6.08,0-12.16.43-18.24,1.31-35.25,5.11-65.41,24.33-87.24,55.59-29.6,42.41-39.37,100.89-26.79,160.43,22.56,106.8,110.46,183.62,195.93,171.23l.11.79-.11-.79c35.25-5.11,65.42-24.33,87.24-55.59,29.6-42.41,39.37-100.89,26.79-160.43-20.96-99.2-98.3-172.54-177.7-172.54Z"/>
            <path class="cls-4" d="M973.2,773.12c-.6,0-1.21,0-1.81-.01-94.73-1.16-176.76-91.45-182.87-201.29-3.23-58.07,15.5-112.87,51.38-150.34,29.42-30.72,68.28-47.37,109.45-46.86,94.73,1.16,176.76,91.45,182.87,201.29,3.23,58.07-15.5,112.87-51.38,150.33-28.99,30.27-67.15,46.87-107.64,46.87ZM947.54,376.21c-40.05,0-77.8,16.43-106.49,46.38-35.58,37.15-54.15,91.51-50.94,149.15,6.06,109.01,87.39,198.64,181.3,199.78.6,0,1.19.01,1.79.01,40.05,0,77.8-16.43,106.49-46.38,35.58-37.15,54.15-91.51,50.94-149.15-6.06-109.02-87.39-198.64-181.3-199.78-.6,0-1.2-.01-1.79-.01Z"/>
            <path class="cls-4" d="M965.33,774.5c-8.95,0-17.97-.7-26.99-2.12-101.48-15.96-174.17-117.98-162.04-227.43,3.1-28.02,11.41-54.27,24.68-78.02,12.83-22.95,29.63-42.46,49.96-57.98,38-29.02,84.69-40.95,131.47-33.6,101.48,15.96,174.17,117.98,162.04,227.43-3.1,28.02-11.41,54.27-24.68,78.02-12.83,22.95-29.63,42.46-49.96,57.98-30.67,23.42-67.01,35.72-104.48,35.72ZM938.59,770.81c46.35,7.29,92.6-4.53,130.26-33.29,41.01-31.32,67.99-80.5,74.02-134.92,12.03-108.61-60.06-209.85-160.71-225.68-46.34-7.29-92.6,4.53-130.26,33.29-41.01,31.32-67.99,80.5-74.02,134.92-12.03,108.61,60.06,209.85,160.71,225.68Z"/>
            <path class="cls-4" d="M960.64,774.95c-19.27,0-38.65-2.8-57.64-8.46-106.21-31.63-166.89-143.78-135.26-250,31.64-106.22,143.79-166.89,250-135.26,51.45,15.32,93.86,49.77,119.41,96.99,25.55,47.22,31.18,101.56,15.85,153.01-15.32,51.45-49.77,93.86-96.99,119.41-29.79,16.12-62.42,24.31-95.37,24.31ZM903.45,764.97c51.04,15.2,104.96,9.62,151.8-15.73,46.85-25.34,81.02-67.42,96.22-118.46,15.2-51.05,9.62-104.96-15.73-151.8-25.34-46.84-67.42-81.02-118.46-96.22-105.38-31.38-216.64,28.81-248.02,134.19-31.38,105.38,28.81,216.64,134.19,248.02Z"/>
          </g>
        </g>
        <g>
          <g class="cls-3">
            <rect class="cls-13" x="837.21" y="122.72" width="470.09" height="924.71"/>
            <rect class="cls-13" x="478.83" y="122.72" width="358.38" height="924.71"/>
          </g>
          <g class="cls-7">
            <rect class="cls-13" x="611.64" y="93.74" width="470.09" height="924.72"/>
            <rect class="cls-13" x="1081.72" y="93.74" width="358.38" height="924.72"/>
          </g>
          <g class="cls-9">
            <path class="cls-4" d="M1030.25,700.52c-17.91,0-37.93-3.78-59.07-11.37-79.9-28.71-149.67-103.67-155.52-167.1-2.33-25.25,5.54-45.65,22.76-58.98,25.11-19.44,65.99-21.08,112.18-4.48,79.9,28.71,149.67,103.67,155.52,167.1,2.33,25.25-5.54,45.65-22.76,58.98-13.62,10.54-31.88,15.85-53.11,15.85ZM891.52,448.8c-20.87,0-38.79,5.2-52.13,15.52-16.77,12.98-24.43,32.89-22.15,57.58,5.8,62.87,75.09,137.23,154.47,165.75,45.66,16.4,86,14.86,110.67-4.24,16.77-12.98,24.43-32.89,22.15-57.58-5.8-62.88-75.09-137.23-154.47-165.75-20.97-7.53-40.82-11.28-58.54-11.28Z"/>
            <path class="cls-4" d="M1033.2,711.11c-24.28,0-52.28-7.35-80.81-21.76-80.9-40.85-143.04-125.81-138.53-189.39,1.7-24.02,12.62-42.4,31.56-53.15,29.8-16.91,76.14-12.58,123.97,11.57,80.9,40.85,143.04,125.81,138.53,189.39-1.7,24.02-12.62,42.4-31.56,53.15-12.02,6.82-26.74,10.19-43.16,10.19ZM888.59,438.2c-16.14,0-30.59,3.3-42.39,9.99-18.46,10.47-29.09,28.41-30.76,51.88-4.47,63,57.29,147.27,137.66,187.85,47.36,23.91,93.14,28.25,122.47,11.61,18.46-10.47,29.09-28.41,30.76-51.88,4.47-62.99-57.29-147.27-137.66-187.85-28.32-14.3-56.07-21.6-80.08-21.6Z"/>
            <path class="cls-4" d="M1033.23,722.14c-30.32,0-66.02-12.29-101.03-35.52-79.9-53.01-132.17-146.66-116.51-208.76,5.67-22.48,19.61-38.6,40.33-46.61,35.02-13.55,84.96-2.38,133.58,29.88,79.9,53.01,132.17,146.66,116.51,208.76-5.67,22.48-19.61,38.6-40.33,46.61-9.8,3.79-20.77,5.65-32.54,5.65ZM888.58,427.18c-11.59,0-22.37,1.82-32,5.55-20.21,7.82-33.82,23.56-39.36,45.52-15.5,61.5,36.46,154.38,115.85,207.05,48.19,31.97,97.58,43.08,132.13,29.72,20.21-7.82,33.82-23.56,39.36-45.52,15.51-61.5-36.46-154.38-115.85-207.05-34.76-23.06-70.14-35.26-100.13-35.26Z"/>
            <path class="cls-4" d="M1030.4,732.93c-36.53,0-79.65-18.57-119.42-52.17-76.77-64.86-116.96-165.55-89.58-224.46,9.64-20.73,26.71-34.33,49.37-39.33,40.13-8.85,92.48,9.84,140.03,50.01,76.77,64.86,116.96,165.55,89.58,224.46-9.64,20.73-26.71,34.33-49.37,39.33-6.57,1.45-13.46,2.16-20.61,2.16ZM891.41,416.39c-7.04,0-13.83.7-20.29,2.13-22.16,4.89-38.85,18.18-48.27,38.45-27.1,58.3,12.9,158.15,89.16,222.58,39.48,33.35,82.23,51.8,118.36,51.8,7.04,0,13.83-.7,20.29-2.13,22.16-4.89,38.85-18.18,48.27-38.45,27.1-58.3-12.9-158.15-89.16-222.58-39.48-33.35-82.23-51.8-118.36-51.8Z"/>
            <path class="cls-4" d="M1025.19,743.1c-43.32,0-93.63-26.31-135.98-71.44-71.4-76.08-97.42-181.85-58-235.76l.64.47-.64-.47c13.75-18.8,34.16-29.54,59.04-31.07,44.69-2.72,97.89,23.9,142.33,71.25,71.4,76.08,97.42,181.85,58,235.76-13.75,18.8-34.16,29.54-59.04,31.06-2.09.13-4.21.19-6.34.19ZM896.6,406.23c-2.11,0-4.19.06-6.26.19-24.39,1.49-44.4,12.01-57.85,30.42-38.99,53.33-13.03,158.18,57.87,233.74,42.05,44.81,91.94,70.93,134.81,70.94,2.11,0,4.19-.06,6.26-.19,24.39-1.49,44.4-12.01,57.86-30.42,38.99-53.33,13.03-158.18-57.87-233.74-42.05-44.81-91.94-70.94-134.81-70.94Z"/>
            <path class="cls-4" d="M1017.75,752.31c-3.53,0-7.12-.18-10.77-.53-48.11-4.69-100.3-39.27-139.6-92.51-63.73-86.34-73.68-194.89-22.17-241.98,18.17-16.62,42.24-24,69.6-21.33,48.11,4.69,100.3,39.27,139.6,92.51,63.73,86.34,73.67,194.89,22.17,241.98-15.75,14.4-35.92,21.86-58.83,21.86ZM904.05,397.01c-22.51,0-42.32,7.32-57.77,21.44-50.92,46.56-40.88,154.16,22.38,239.86,39.04,52.89,90.8,87.23,138.47,91.88,26.9,2.61,50.54-4.61,68.38-20.92,50.92-46.56,40.88-154.16-22.38-239.86-39.04-52.89-90.8-87.23-138.47-91.88-3.6-.35-7.13-.52-10.61-.52Z"/>
            <path class="cls-4" d="M1008.35,760.26c-10,0-20.38-1.38-31-4.16-49.81-13.02-98.89-55.07-131.29-112.5-53.75-95.26-45.97-204.05,17.34-242.51l.41.68-.41-.68c23.07-14.02,51.1-17.29,81.06-9.46,49.81,13.02,98.89,55.07,131.29,112.5,53.75,95.26,45.97,204.05-17.34,242.51-14.89,9.05-31.85,13.62-50.05,13.62ZM913.45,389.07c-17.92,0-34.6,4.49-49.23,13.38-62.58,38.02-70.11,145.85-16.78,240.37,32.19,57.06,80.9,98.83,130.31,111.74,29.53,7.71,57.13,4.51,79.83-9.28,62.58-38.02,70.11-145.85,16.78-240.37-32.19-57.06-80.91-98.83-130.31-111.74-10.49-2.74-20.73-4.1-30.6-4.1Z"/>
            <path class="cls-4" d="M997.84,766.64c-65.97,0-137.4-56.32-172.03-141.84-24.16-59.66-25.98-124.03-4.89-172.2,13.81-31.54,36.19-53.89,64.71-64.64,74.48-28.07,168.83,32.48,210.33,134.98,24.16,59.66,25.98,124.03,4.89,172.2-13.81,31.54-36.19,53.9-64.71,64.65-12.33,4.65-25.21,6.87-38.3,6.87ZM923.99,382.67c-12.92,0-25.62,2.19-37.79,6.77-28.11,10.6-50.18,32.66-63.82,63.79-20.93,47.78-19.09,111.69,4.9,170.96,34.38,84.91,105.19,140.85,170.51,140.86,12.92,0,25.62-2.19,37.79-6.77,28.11-10.6,50.18-32.66,63.82-63.79,20.93-47.78,19.09-111.69-4.9-170.96-34.38-84.91-105.19-140.86-170.51-140.86Z"/>
            <path class="cls-4" d="M986.75,771.44c-77.46,0-154.82-70.5-179.46-168.39-15.32-60.83-7.79-121.26,20.64-165.77,20.4-31.94,49.38-52.27,83.83-58.81l.15.78-.15-.78c84.69-16.06,175.64,58.5,202.75,166.21,15.32,60.83,7.79,121.26-20.64,165.77-20.4,31.94-49.38,52.27-83.83,58.81-7.73,1.47-15.51,2.18-23.29,2.18ZM935.06,377.88c-7.69,0-15.38.7-23.02,2.15-34,6.45-62.63,26.54-82.78,58.1-28.2,44.15-35.64,104.12-20.43,164.53,24.46,97.17,101.16,167.18,177.9,167.19,7.69,0,15.38-.7,23.02-2.15,34-6.45,62.63-26.54,82.78-58.1,28.2-44.15,35.64-104.12,20.43-164.53-24.46-97.17-101.16-167.19-177.9-167.19Z"/>
            <path class="cls-4" d="M976.34,774.6c-91.98,0-174.62-86.92-185.26-195.93-5.79-59.33,10.79-115.92,45.49-155.26,27.57-31.26,64.79-49.1,104.78-50.21h0c93.59-2.63,178.54,85.25,189.33,195.88,5.79,59.33-10.79,115.92-45.49,155.26-27.58,31.26-64.79,49.1-104.78,50.21-1.36.04-2.72.06-4.08.06ZM941.39,373.98l.02.79c-39.55,1.11-76.36,18.75-103.64,49.68-34.41,39.01-50.85,95.17-45.1,154.06,10.56,108.21,92.49,194.5,183.67,194.5,1.34,0,2.69-.02,4.03-.06,39.55-1.11,76.36-18.75,103.64-49.68,34.41-39.01,50.85-95.16,45.1-154.06-10.72-109.81-94.96-197.04-187.7-194.44l-.02-.79Z"/>
            <path class="cls-4" d="M967.73,776.32c-6.63,0-13.3-.4-19.98-1.19-100.91-12.06-177.12-112.14-169.9-223.09,3.67-56.39,28.92-107.97,69.28-141.51,36.01-29.93,81.08-43.4,126.91-37.92,100.91,12.06,177.12,112.13,169.9,223.09-3.67,56.39-28.92,107.97-69.28,141.51-30.76,25.56-68.12,39.12-106.92,39.12ZM954.06,373c-38.43,0-75.44,13.43-105.91,38.75-40.02,33.26-65.07,84.43-68.71,140.39-7.17,110.13,68.42,209.45,168.5,221.41,45.39,5.42,90.03-7.92,125.7-37.57,40.02-33.26,65.07-84.43,68.71-140.39,7.17-110.13-68.42-209.45-168.5-221.41-6.62-.79-13.23-1.18-19.79-1.18Z"/>
            <path class="cls-4" d="M962.06,776.98c-16.49,0-33.08-2.11-49.47-6.38-106.26-27.69-171.05-138.47-144.42-246.94,13.06-53.18,45.75-97.68,92.06-125.29,45.2-26.94,98.11-34.48,148.97-21.23,106.26,27.69,171.05,138.47,144.42,246.94-13.06,53.18-45.75,97.68-92.06,125.29-30.64,18.26-64.82,27.61-99.5,27.61ZM959.73,372.34c-34.4,0-68.3,9.27-98.69,27.39-45.94,27.39-78.38,71.53-91.33,124.3-26.42,107.63,37.85,217.55,143.28,245.03,50.45,13.15,102.92,5.67,147.75-21.06,45.94-27.39,78.38-71.53,91.33-124.3,26.42-107.63-37.85-217.55-143.28-245.03-16.25-4.24-32.72-6.33-49.07-6.33Z"/>
            <path class="cls-4" d="M960.04,776.93c-28.23,0-56.88-5.24-84.41-16.31-27.48-11.05-51.71-26.94-72.02-47.22-19.62-19.6-34.7-42.38-44.82-67.71-19.69-49.29-18.33-103.12,3.81-151.6,47.02-102.96,174.23-150.95,283.56-106.99,27.48,11.05,51.71,26.94,72.02,47.22,19.62,19.6,34.7,42.38,44.82,67.71,19.69,49.29,18.33,103.13-3.81,151.6-35.18,77.03-115.26,123.29-199.14,123.3ZM961.73,372.39c-83.28,0-162.76,45.91-197.68,122.37-21.96,48.08-23.3,101.47-3.78,150.35,20.69,51.8,61.87,92.3,115.95,114.04,27.34,10.99,55.8,16.19,83.83,16.19,83.28,0,162.76-45.91,197.68-122.37,21.96-48.08,23.3-101.47,3.78-150.35-20.69-51.8-61.87-92.3-115.95-114.04-27.34-10.99-55.8-16.19-83.83-16.19Z"/>
            <path class="cls-4" d="M964.29,777.25c-44.34,0-88.02-10.98-126.64-32.24-28.24-15.55-51.95-35.55-70.48-59.44-17.9-23.09-30.1-48.64-36.24-75.94-11.39-50.6-.48-102.31,30.72-145.59,32.94-45.69,84.62-77.23,145.54-88.8,60.9-11.57,123.74-1.8,176.94,27.5,28.24,15.55,51.95,35.55,70.48,59.44,17.9,23.09,30.1,48.64,36.24,75.94,11.39,50.6.48,102.31-30.72,145.59-32.94,45.69-84.62,77.23-145.54,88.8-16.7,3.17-33.55,4.74-50.31,4.74ZM957.39,372.2c-76.68,0-151.2,32.76-194.45,92.76-30.93,42.91-41.75,94.16-30.46,144.31,12.41,55.13,51.02,104.09,105.94,134.34,109.17,60.12,252.91,32.83,320.42-60.84,30.93-42.91,41.75-94.16,30.46-144.31-12.41-55.13-51.02-104.09-105.94-134.34-39.24-21.61-82.94-31.93-125.97-31.93Z"/>
            <path class="cls-4" d="M975.77,778.59c-64.16,0-126.42-19.36-176.22-54.96-27.85-19.91-50-43.53-65.85-70.23-15.32-25.81-23.99-53.15-25.77-81.27-3.26-51.37,17.27-100.36,57.81-137.94,43.11-39.96,103.94-63.02,171.27-64.91,67.33-1.91,133.09,17.57,185.21,54.83,27.85,19.91,50,43.53,65.85,70.23,15.32,25.81,23.99,53.15,25.77,81.27,3.26,51.37-17.27,100.36-57.81,137.94-43.11,39.96-103.94,63.02-171.28,64.91-3,.08-6,.13-8.99.13ZM945.88,370.83c-67.3,0-132.81,21.67-179.05,64.53-40.19,37.25-60.54,85.79-57.31,136.68,3.61,56.79,36.76,111.57,90.96,150.31,51.07,36.5,113.99,54.57,175.43,54.57,67.3,0,132.81-21.67,179.05-64.53,40.19-37.25,60.54-85.79,57.31-136.68-3.61-56.79-36.76-111.57-90.96-150.31-51.07-36.5-114-54.57-175.43-54.57Z"/>
            <path class="cls-4" d="M994.75,782.26c-14.13,0-28.5-.85-43-2.58-72.57-8.65-139.85-38.17-189.46-83.11-26.27-23.79-45.92-50.34-58.41-78.9-12.08-27.61-16.9-55.73-14.34-83.57,4.78-51.91,35.2-97.63,85.67-128.74,53.06-32.71,122.25-45.96,194.83-37.3,72.57,8.65,139.85,38.17,189.46,83.11,26.27,23.79,45.92,50.34,58.41,78.9,12.08,27.61,16.9,55.73,14.34,83.57-4.78,51.91-35.2,97.63-85.67,128.74-42.46,26.17-95.25,39.89-151.83,39.89ZM927.28,367.17c-54.77,0-107.95,12.85-151.25,39.54-50.03,30.84-80.19,76.13-84.92,127.53-5.17,56.14,21.16,114.88,72.23,161.14,101.91,92.32,273.45,112.79,382.39,45.63,50.03-30.84,80.19-76.13,84.92-127.53,5.17-56.14-21.16-114.88-72.23-161.14-61.41-55.63-148.11-85.17-231.14-85.17Z"/>
            <path class="cls-4" d="M1018.26,789.16c-33.21,0-67.68-4.47-102.15-13.44-76.42-19.9-143.62-59.57-189.23-111.71-23.59-26.97-39.98-55.57-48.7-85.02-8.44-28.48-9.37-56.44-2.76-83.11,12.96-52.32,53.73-94.05,114.82-117.5,62.5-24,139.01-26.25,215.43-6.36,76.42,19.9,143.62,59.57,189.23,111.71,23.59,26.97,39.97,55.57,48.7,85.02,8.44,28.48,9.37,56.44,2.76,83.11-12.96,52.32-53.74,94.05-114.83,117.5-34.31,13.17-72.85,19.8-113.28,19.8ZM903.31,360.28c-39.49,0-77.88,6.29-112.49,19.58-60.59,23.26-101.02,64.6-113.85,116.4-13.48,54.42,4.68,113.62,51.11,166.7,93.73,107.15,274.47,154.22,402.89,104.91,60.59-23.26,101.02-64.6,113.85-116.4,13.47-54.41-4.68-113.62-51.11-166.7-68.47-78.27-183.38-124.49-290.39-124.49Z"/>
            <path class="cls-4" d="M1044.7,799.84c-53.78,0-110.92-11.41-166.16-33.61-78.64-31.6-144.03-81.29-184.12-139.92-39.58-57.87-49.87-117.84-28.96-168.84,10.46-25.52,28.13-47.43,52.52-65.1,25.22-18.27,56.51-31.16,92.99-38.29,71.15-13.92,153.65-4.18,232.28,27.42,78.64,31.6,144.03,81.29,184.12,139.92,39.58,57.87,49.87,117.84,28.96,168.84-10.46,25.52-28.13,47.43-52.52,65.1-25.22,18.27-56.51,31.16-93,38.29-21.17,4.14-43.35,6.19-66.12,6.19ZM876.6,349.54c-22.32,0-44.23,1.98-65.33,6.1-71.77,14.04-123.04,50.42-144.35,102.43-20.69,50.49-10.46,109.92,28.81,167.34,70.54,103.14,217,172.77,349.46,172.78,22.32,0,44.23-1.98,65.33-6.1,71.77-14.04,123.04-50.42,144.35-102.43,20.69-50.49,10.46-109.92-28.81-167.34-70.54-103.14-217-172.78-349.46-172.78Z"/>
            <path class="cls-4" d="M1072.07,814.61c-75.39,0-157.34-22.38-232.25-63.61-79.04-43.51-140.79-102.82-173.86-166.99-31.11-60.36-33.31-119.05-6.19-165.23,14.87-25.32,37.57-45.64,67.49-60.37,30.92-15.23,67.95-23.66,110.06-25.06,78.73-2.6,165.61,19.91,244.64,63.41,79.04,43.51,140.79,102.82,173.86,166.99,31.11,60.36,33.31,119.04,6.19,165.23-14.87,25.32-37.57,45.63-67.49,60.37-30.92,15.23-67.95,23.66-110.06,25.06-4.11.14-8.25.2-12.4.2ZM849.58,334.72c-4.09,0-8.15.07-12.21.2-82.01,2.72-146.24,33.58-176.23,84.65-26.83,45.7-24.62,103.84,6.23,163.7,66.29,128.64,245.79,229.73,404.83,229.74,4.09,0,8.15-.07,12.21-.2,82.01-2.72,146.24-33.58,176.23-84.65,26.83-45.7,24.62-103.84-6.23-163.7-66.29-128.64-245.79-229.74-404.83-229.74Z"/>
            <path class="cls-4" d="M1096.64,833.36c-14.16,0-28.85-.85-43.98-2.59-84.95-9.73-174.37-45.56-251.81-100.89-77.46-55.34-133.66-123.58-158.25-192.14-21.9-61.06-16.13-117.18,16.25-158.03,40.11-50.6,116.74-73.47,210.25-62.76,84.95,9.73,174.37,45.56,251.81,100.89,77.46,55.34,133.66,123.58,158.25,192.14,21.9,61.06,16.13,117.18-16.25,158.03-33.62,42.41-92.9,65.35-166.27,65.35ZM825.12,315.96c-72.88,0-131.7,22.72-165.01,64.75-32.03,40.41-37.71,95.99-16,156.5,50.56,140.97,233.92,271.95,408.74,291.98,15.07,1.73,29.71,2.58,43.81,2.58,72.88,0,131.7-22.72,165.01-64.75,32.03-40.4,37.71-95.99,16-156.5-50.56-140.97-233.92-271.95-408.74-291.98-15.07-1.73-29.71-2.58-43.81-2.58Z"/>
            <path class="cls-4" d="M1115.3,855.49c-31.05,0-64.36-4.51-99.54-13.51-89.53-22.9-179.43-72.27-253.14-139.02-73.74-66.78-122.48-142.97-137.22-214.54-6.33-30.72-6.09-59.2.71-84.66,6.58-24.63,19.14-45.92,37.33-63.27,24.4-23.27,58.83-38.85,99.58-45.05,42.68-6.5,90.78-3.02,142.98,10.33,89.53,22.9,179.42,72.27,253.14,139.02,73.74,66.78,122.47,142.97,137.22,214.54,6.33,30.72,6.09,59.2-.71,84.66-6.58,24.63-19.14,45.92-37.33,63.27-24.4,23.27-58.83,38.85-99.58,45.05-13.92,2.12-28.42,3.18-43.45,3.18ZM805.87,293.81c-58.99,0-108.21,16.24-141.32,47.81-37.05,35.33-50.04,85.98-37.58,146.46,30.31,147.14,204.9,305.2,389.19,352.34,102.77,26.29,190.64,13.78,241.07-34.33,37.05-35.34,50.04-85.98,37.58-146.46-30.31-147.14-204.9-305.2-389.19-352.34-35.31-9.03-68.88-13.49-99.76-13.49Z"/>
            <path class="cls-4" d="M1127.52,879.84c-47.29,0-98.82-10.95-153.27-32.57-92.21-36.62-180.31-99.44-248.09-176.9-67.82-77.5-107.18-160.38-110.84-233.39-2.95-58.87,17.5-105.74,59.15-135.56,29.83-21.36,69.98-32.95,116.11-33.5,48.3-.57,101.08,10.37,156.93,32.55,92.21,36.62,180.31,99.44,248.09,176.9,67.82,77.5,107.18,160.38,110.84,233.39,2.95,58.87-17.5,105.74-59.15,135.56-29.83,21.36-69.99,32.95-116.11,33.5-1.22.01-2.45.02-3.67.02ZM794.08,269.7c-46.99,0-87.94,11.01-118.67,33.01-41.18,29.49-61.41,75.89-58.49,134.19,7.52,150.06,168.08,333.49,357.93,408.89,54.13,21.5,106.44,32.24,152.86,32.25,46.99,0,87.94-11.01,118.67-33.01,41.18-29.49,61.41-75.89,58.49-134.19-7.52-150.07-168.08-333.49-357.93-408.89-54.13-21.5-106.44-32.25-152.86-32.25Z"/>
            <path class="cls-4" d="M1133.25,905.5c-61.25,0-132.45-20.22-204.44-59.49-92.75-50.59-176.66-126.42-236.25-213.52-59.63-87.16-87.8-175.19-79.31-247.89,6.51-55.74,34.11-97.7,79.83-121.36,73.67-38.13,185.78-23.74,299.89,38.5,92.75,50.59,176.66,126.42,236.25,213.52,59.63,87.16,87.8,175.19,79.31,247.89-6.51,55.74-34.11,97.7-79.83,121.36-27.19,14.07-59.62,20.99-95.45,20.99ZM788.54,243.82c-35.58,0-67.75,6.86-94.73,20.82-45.22,23.41-72.54,64.95-78.98,120.13-8.45,72.31,19.62,159.97,79.04,246.81,59.45,86.9,143.16,162.55,235.7,213.03,71.76,39.14,142.7,59.3,203.67,59.31,35.58,0,67.75-6.86,94.73-20.82,45.22-23.41,72.54-64.95,78.98-120.13,8.45-72.31-19.62-159.97-79.04-246.81-59.45-86.9-143.16-162.55-235.7-213.03-71.76-39.14-142.7-59.31-203.67-59.31Z"/>
            <path class="cls-4" d="M1131.41,931.62c-75.56,0-164.81-32.75-251.18-93.97-90.97-64.48-168.15-152.5-217.31-247.85-49.2-95.43-64.47-186.8-42.99-257.28,15.84-51.96,50.63-88.45,100.63-105.53,86.09-29.41,206.08,1.65,320.98,83.09,90.97,64.48,168.15,152.5,217.31,247.85,49.2,95.43,64.47,186.8,42.99,257.29-15.83,51.96-50.63,88.45-100.63,105.53-21.37,7.3-44.84,10.88-69.8,10.88ZM790.4,217.69c-24.79,0-48.09,3.55-69.31,10.8-49.5,16.91-83.94,53.04-99.62,104.49-21.36,70.09-6.13,161.04,42.88,256.09,49.05,95.13,126.05,182.95,216.82,247.28,114.49,81.14,233.94,112.13,319.54,82.89,49.5-16.91,83.94-53.04,99.62-104.49,21.36-70.09,6.13-161.04-42.88-256.09-49.05-95.13-126.05-182.95-216.82-247.28-86.1-61.03-175.02-93.68-250.23-93.68Z"/>
            <path class="cls-4" d="M1123.66,956.86c-37.19,0-77.78-8.19-119.47-24.26-58.89-22.71-119.29-61.02-174.67-110.79-86.7-77.92-154.58-176.93-191.15-278.8-36.6-101.96-37.45-194.62-2.39-260.88,25.25-47.73,67.55-78.11,122.33-87.86,47.07-8.38,102.15-1.16,159.29,20.88,58.89,22.71,119.3,61.02,174.67,110.79,86.7,77.92,154.58,176.93,191.15,278.8,36.6,101.96,37.45,194.62,2.39,260.88l-.7-.37.7.37c-25.25,47.73-67.55,78.11-122.33,87.86-12.72,2.26-26.04,3.39-39.82,3.39ZM798.72,192.4c-13.8,0-27.2,1.13-40.14,3.43-54.28,9.66-96.19,39.75-121.21,87.04-34.84,65.87-33.96,158.07,2.49,259.6,36.48,101.63,104.21,200.41,190.72,278.16,96.06,86.33,202.36,134.71,292.48,134.71,13.79,0,27.2-1.13,40.14-3.43,54.28-9.66,96.19-39.75,121.21-87.04,34.84-65.87,33.96-158.07-2.48-259.6-36.48-101.63-104.21-200.42-190.71-278.16-96.07-86.33-202.36-134.71-292.48-134.71Z"/>
            <path class="cls-4" d="M1109.57,980.53c-50.76,0-106.96-15.66-162.89-45.43-59.45-31.64-117.86-78.97-168.92-136.87-79.83-90.52-135.87-198.94-157.8-305.29-10.67-51.74-12.68-100.18-5.96-143.97,6.96-45.39,23.03-83.78,47.76-114.11,35.12-43.06,85.52-66.44,145.75-67.6,52-1.01,109.93,14.69,167.6,45.38,59.45,31.64,117.86,78.97,168.92,136.87,79.83,90.52,135.87,198.94,157.8,305.29,10.67,51.74,12.68,100.18,5.96,143.97-6.96,45.39-23.03,83.78-47.76,114.11-35.12,43.06-85.52,66.44-145.75,67.6-1.56.03-3.13.04-4.71.04ZM812.36,168.8c-1.61,0-3.22.02-4.82.05-59.75,1.15-109.74,24.33-144.55,67.02-48.6,59.6-63.33,150.78-41.48,256.76,21.88,106.08,77.79,214.24,157.44,304.56,100.66,114.14,223.79,181.77,330.47,181.77,1.61,0,3.22-.02,4.82-.05,59.75-1.15,109.74-24.33,144.55-67.02l.62.5-.62-.5c48.6-59.6,63.33-150.78,41.48-256.76-21.88-106.08-77.79-214.24-157.44-304.56-100.65-114.14-223.79-181.77-330.47-181.77Z"/>
            <path class="cls-4" d="M1090.29,1001.67c-12.17,0-24.64-.89-37.38-2.67-115.43-16.17-237.56-102.96-326.7-232.17-70.31-101.9-112.04-217.76-117.5-326.24-2.66-52.78,3.43-100.94,18.09-143.16,15.19-43.74,38.97-79.15,70.68-105.23,45.86-37.73,105.13-52.76,171.4-43.47,115.43,16.17,237.56,102.97,326.7,232.17,70.31,101.9,112.04,217.76,117.5,326.24,2.66,52.78-3.43,100.94-18.09,143.16-15.19,43.74-38.97,79.15-70.68,105.23l-.5-.61.5.61c-37.05,30.48-82.85,46.15-134.02,46.15ZM831.5,147.65c-50.81,0-96.26,15.54-133.02,45.78-62.31,51.26-93.63,139.01-88.19,247.08,5.45,108.19,47.08,223.75,117.22,325.42,88.9,128.84,210.62,215.38,325.62,231.49,65.81,9.22,124.66-5.69,170.17-43.13,62.31-51.26,93.63-139.01,88.19-247.08-5.45-108.19-47.08-223.75-117.22-325.42-88.9-128.84-210.62-215.38-325.62-231.49-12.65-1.77-25.06-2.66-37.15-2.66Z"/>
            <path class="cls-4" d="M1067.03,1019.63c-28.15,0-57.43-4.56-87.33-13.73-118.2-36.24-231.66-140.21-303.5-278.13-58.16-111.65-83.26-232.63-70.67-340.64,6.12-52.55,20.85-99.18,43.77-138.58,23.75-40.83,55.29-72.07,93.76-92.87,57.81-31.25,126.63-36.04,199.03-13.84,118.2,36.24,231.66,140.21,303.5,278.13,58.16,111.65,83.26,232.63,70.67,340.64-6.12,52.55-20.85,99.18-43.77,138.58-23.75,40.83-55.29,72.07-93.76,92.87-33.94,18.35-71.68,27.57-111.7,27.57ZM854.76,129.7c-39.77,0-77.25,9.16-110.95,27.38-75.62,40.88-124.17,122.65-136.71,230.24-12.55,107.7,12.49,228.34,70.5,339.72,71.65,137.55,184.75,241.23,302.55,277.35,71.98,22.07,140.38,17.32,197.81-13.72l.38.7-.38-.7c75.62-40.88,124.17-122.65,136.71-230.24,12.55-107.7-12.49-228.34-70.5-339.72-71.65-137.55-184.75-241.23-302.55-277.35-29.74-9.12-58.87-13.66-86.86-13.66Z"/>
            <path class="cls-4" d="M1041.36,1033.86c-19.59,0-39.54-2.06-59.77-6.19-47.7-9.74-94.91-30.5-140.32-61.71-45.39-31.2-86.69-71.26-122.76-119.08-37.34-49.5-67.4-105.2-89.36-165.53-26-71.44-39.06-146.64-37.76-217.47,1.26-68.57,15.87-133.38,42.26-187.42,36.59-74.93,93.49-126.7,164.54-149.72,44.82-14.51,92.59-16.76,142.01-6.67,47.7,9.74,94.91,30.5,140.32,61.71,45.39,31.2,86.69,71.26,122.76,119.08,37.34,49.5,67.4,105.2,89.36,165.53,26,71.44,39.06,146.64,37.76,217.47-1.26,68.57-15.87,133.38-42.26,187.42-36.59,74.93-93.49,126.7-164.54,149.72-26.47,8.57-53.98,12.87-82.24,12.87ZM880.86,115.42c-28.11,0-55.66,4.24-82.18,12.83-70.63,22.88-127.21,74.37-163.6,148.9-54.3,111.19-55.95,262.09-4.43,403.65,43.34,119.08,118.46,219.88,211.52,283.85,92.99,63.92,192.76,83.39,280.93,54.83l.25.76-.25-.76c70.63-22.88,127.2-74.37,163.6-148.9,54.3-111.19,55.95-262.09,4.43-403.65-43.34-119.08-118.46-219.88-211.52-283.85-65.03-44.69-133.38-67.66-198.75-67.66Z"/>
            <path class="cls-4" d="M1015.04,1044.15c-36.18,0-72.7-6.29-109.06-18.82-49.54-17.08-96.69-44.96-140.12-82.88-43.42-37.91-80.95-83.94-111.54-136.82-31.67-54.74-54.47-114.45-67.79-177.48-15.33-72.58-17.05-144.01-5.1-212.31,11.39-65.13,35.52-125.5,69.78-174.58,25.61-36.69,56.41-66.83,91.54-89.59,36.36-23.55,76.57-38.65,119.52-44.87,50.56-7.32,102.21-2.07,153.53,15.62,49.54,17.08,96.69,44.96,140.12,82.88,43.42,37.91,80.95,83.95,111.54,136.82,31.67,54.74,54.47,114.45,67.79,177.48,15.33,72.58,17.05,144.01,5.1,212.31-11.39,65.13-35.52,125.5-69.78,174.58-25.61,36.69-56.41,66.83-91.54,89.59-36.36,23.55-76.57,38.65-119.51,44.87-14.74,2.13-29.58,3.2-44.47,3.2ZM906.85,105.18c-14.84,0-29.63,1.05-44.34,3.19-84.85,12.29-157.46,58.55-209.98,133.79-71.18,101.97-94.66,242.53-64.43,385.65,26.28,124.38,89.78,235.7,178.81,313.43,88.99,77.7,192.82,112.55,292.37,98.13l.11.79-.11-.79c84.85-12.29,157.46-58.55,209.98-133.79,71.18-101.97,94.66-242.53,64.43-385.65-26.27-124.38-89.78-235.7-178.81-313.43-75.84-66.21-162.46-101.31-248.03-101.31Z"/>
            <path class="cls-4" d="M991.77,1050.65c-1.48,0-2.96,0-4.44-.03-55.5-.68-110.04-13.95-162.11-39.43-50.28-24.61-96.14-59.53-136.31-103.77-40.17-44.24-72.63-95.58-96.47-152.59-24.69-59.02-39.02-121.58-42.6-185.92-7.72-138.97,37.08-270.09,122.93-359.74,34.49-36.01,74.16-63.98,117.92-83.12,45.3-19.81,93.67-29.58,143.76-28.94,55.5.68,110.04,13.95,162.11,39.43,50.28,24.61,96.14,59.53,136.31,103.77,40.17,44.24,72.63,95.58,96.47,152.59,24.69,59.02,39.02,121.58,42.6,185.92,7.72,138.97-37.08,270.09-122.93,359.74-34.49,36.01-74.16,63.98-117.92,83.12-43.96,19.23-90.81,28.96-139.33,28.96ZM987.35,1049.03c97.94,1.22,190.48-38.42,260.52-111.56,85.54-89.33,130.19-220.02,122.49-358.55-14.56-262.04-210.12-477.46-435.92-480.22-97.97-1.21-190.48,38.42-260.52,111.56-85.54,89.33-130.19,220.01-122.49,358.55,14.56,262.04,210.12,477.46,435.92,480.22Z"/>
            <path class="cls-4" d="M972.78,1053.96c-21.42,0-42.98-1.68-64.56-5.07-59.45-9.35-115.74-30.98-167.29-64.29-49.78-32.17-93.08-73.83-128.68-123.81-35.6-49.98-61.72-105.77-77.63-165.81-16.47-62.17-21.22-126.2-14.11-190.32,7.43-67.05,27.3-129.87,59.06-186.71,30.69-54.92,70.9-101.59,119.52-138.73,90.9-69.42,202.58-97.96,314.47-80.36,59.46,9.35,115.74,30.98,167.29,64.29,49.78,32.17,93.08,73.83,128.68,123.81,35.6,49.98,61.72,105.77,77.63,165.81,16.47,62.17,21.22,126.2,14.11,190.32-7.43,67.05-27.3,129.87-59.06,186.71-30.69,54.92-70.9,101.59-119.52,138.73-73.36,56.03-160.29,85.43-249.91,85.43ZM949.01,95.37c-89.29,0-175.86,29.29-248.95,85.11-98.6,75.31-163.47,193.53-177.97,324.35-28.93,261.08,144.4,504.44,386.38,542.5,111.46,17.52,222.71-10.9,313.25-80.06,98.61-75.31,163.47-193.53,177.97-324.35,28.93-261.08-144.4-504.44-386.38-542.5-21.49-3.38-42.97-5.05-64.3-5.05Z"/>
            <path class="cls-4" d="M960.86,1054.96c-46.23,0-92.21-6.74-137.26-20.16-62.23-18.53-118.96-48.7-168.63-89.66-47.97-39.56-87.37-87.48-117.09-142.42-29.72-54.94-48.28-114.13-55.14-175.94-7.11-63.99-1.32-127.98,17.21-190.21,18.53-62.23,48.7-118.96,89.66-168.63,39.56-47.97,87.48-87.37,142.42-117.09,54.94-29.72,114.13-48.28,175.94-55.14,63.99-7.11,127.98-1.32,190.21,17.21,62.23,18.53,118.96,48.7,168.63,89.66,47.97,39.56,87.37,87.48,117.09,142.42s48.28,114.13,55.14,175.94c7.11,63.99,1.32,127.98-17.21,190.21-18.53,62.23-48.7,118.96-89.66,168.63-39.56,47.97-87.48,87.37-142.42,117.09-54.94,29.72-114.13,48.28-175.93,55.14-17.66,1.96-35.33,2.94-52.95,2.94ZM824.06,1033.28c253.32,75.45,520.79-69.26,596.24-322.58,75.45-253.32-69.26-520.79-322.58-596.24-122.71-36.55-252.31-23.12-364.93,37.8s-194.76,162.06-231.31,284.78c-36.55,122.71-23.12,252.31,37.8,364.93,60.93,112.62,162.06,194.76,284.78,231.31Z"/>
          </g>
        </g>
        <g>
          <g class="cls-1">
            <rect class="cls-13" x="729.42" y="-523.14" width="1146.47" height="2255.24"/>
            <rect class="cls-13" x="-144.63" y="-523.14" width="874.04" height="2255.24"/>
          </g>
          <g class="cls-2">
            <rect class="cls-13" x="167.8" y="-593.81" width="1.35" height="2255.24"/>
            <rect class="cls-13" x="169.15" y="-593.81" width="1147.01" height="2255.24"/>
            <rect class="cls-13" x="1316.15" y="-593.81" width="874.45" height="2255.24"/>
          </g>
          <g class="cls-9">
            <path class="cls-4" d="M1178.45,884.68c-44.13,0-92.11-9.21-142.9-27.46-94.21-33.84-185.46-94.75-256.94-171.5-71.52-76.79-114.7-160.26-121.59-235.05-5.64-61.18,13.4-110.57,55.07-142.84,29.13-22.56,68.83-35.65,114.79-37.87,48.12-2.32,101.18,6.8,157.7,27.11,94.21,33.84,185.46,94.75,256.94,171.5,71.52,76.79,114.7,160.26,121.59,235.05,5.64,61.18-13.4,110.57-55.07,142.83-29.13,22.56-68.83,35.65-114.79,37.87-4.88.23-9.82.35-14.8.35ZM658.6,450.52c14.18,153.74,183.51,335.51,377.49,405.2,111.74,40.14,210.51,36.31,270.98-10.52,41.22-31.92,60.05-80.82,54.46-141.43-14.17-153.74-183.51-335.51-377.49-405.2-111.74-40.14-210.51-36.31-270.98,10.52-41.22,31.92-60.05,80.82-54.46,141.43Z"/>
            <path class="cls-4" d="M1185.85,910.82c-8.57,0-17.34-.38-26.28-1.14-52.7-4.5-111.39-22.45-169.73-51.91-95.37-48.16-182.97-122.59-246.66-209.58-63.72-87.04-95.89-176.25-90.57-251.21h0c4.13-58.19,30.54-102.7,76.39-128.71,34.96-19.84,80.45-28.02,131.54-23.66,52.7,4.5,111.39,22.45,169.73,51.91,95.37,48.16,182.97,122.59,246.66,209.58,63.72,87.04,95.89,176.25,90.57,251.21-4.13,58.19-30.54,102.7-76.39,128.71-28.84,16.37-64.85,24.8-105.26,24.8ZM653.41,397.04l.79.06c-5.29,74.58,26.77,163.42,90.27,250.15,63.54,86.79,150.94,161.05,246.09,209.1,69.21,34.95,137.09,52.79,195.83,52.8,39.58,0,75-8.09,103.93-24.51,45.36-25.74,71.5-69.81,75.59-127.44,5.29-74.58-26.77-163.42-90.27-250.16-63.54-86.79-150.94-161.05-246.09-209.1-115.84-58.5-227.9-69.07-299.76-28.29-45.36,25.74-71.5,69.81-75.59,127.44l-.79-.06Z"/>
            <path class="cls-4" d="M1186.46,937.62c-73.71,0-160.53-29.91-245.76-86.45-94.2-62.49-175.58-149.7-229.15-245.58-53.62-95.95-72.98-189.11-54.52-262.32l.77.19-.77-.19c13.73-54.46,47.5-93.5,97.66-112.9,85.07-32.9,206.46-5.7,324.73,72.75,94.2,62.49,175.58,149.7,229.16,245.58,53.62,95.95,72.98,189.11,54.52,262.32-13.73,54.46-47.5,93.5-97.66,112.9-23.77,9.19-50.39,13.69-78.98,13.7ZM833.68,218.26c-28.4,0-54.82,4.47-78.43,13.6-49.66,19.21-83.09,57.87-96.69,111.8-18.36,72.82.95,165.57,54.37,261.16,53.46,95.66,134.66,182.68,228.65,245.03,117.84,78.17,238.69,105.31,323.28,72.59,49.66-19.21,83.09-57.87,96.69-111.8,18.36-72.82-.95-165.57-54.37-261.16-53.46-95.66-134.66-182.68-228.65-245.03-84.96-56.36-171.48-86.19-244.85-86.19Z"/>
            <path class="cls-4" d="M1180.08,963.85c-34.67,0-72.3-6.86-111.12-20.4-60.01-20.94-122.21-57.76-179.88-106.48-90.5-76.45-163.03-175.33-204.25-278.41-41.25-103.17-46.19-198.23-13.92-267.67l.72.33-.72-.33c23.34-50.23,64.71-83.18,119.62-95.29,46.87-10.34,102.42-5.07,160.64,15.25,60.01,20.94,122.21,57.76,179.88,106.48,90.5,76.45,163.04,175.33,204.25,278.41,41.25,103.17,46.19,198.23,13.92,267.67-23.34,50.23-64.71,83.18-119.62,95.29-15.61,3.44-32.2,5.16-49.52,5.16ZM840.58,191.94c-17.25,0-33.88,1.71-49.72,5.21-54.41,12-95.39,44.65-118.52,94.41-32.09,69.04-27.13,163.65,13.95,266.41,41.12,102.84,113.5,201.5,203.8,277.79,96.49,81.51,201.02,126.59,289.43,126.6,17.25,0,33.88-1.71,49.72-5.21,54.41-12,95.39-44.65,118.52-94.41,32.09-69.04,27.13-163.65-13.96-266.41-41.12-102.84-113.5-201.5-203.8-277.79-96.49-81.51-201.02-126.6-289.43-126.6Z"/>
            <path class="cls-4" d="M1167.26,988.72c-48.34,0-101.71-13.75-155.4-40.15-61.14-30.07-121.93-76.3-175.8-133.7-84.15-89.67-145.21-198.68-171.93-306.95-13-52.67-17.15-102.31-12.34-147.53,4.98-46.87,19.42-86.92,42.92-119.06,33.32-45.57,82.81-71.6,143.14-75.3,52.16-3.19,111.1,10.53,170.41,39.7,61.14,30.07,121.93,76.3,175.8,133.7,84.15,89.67,145.21,198.68,171.93,306.95,13,52.67,17.15,102.31,12.34,147.53-4.98,46.87-19.42,86.92-42.92,119.06-33.32,45.56-82.81,71.6-143.14,75.29-4.94.3-9.95.45-15.01.45ZM853.26,167.16c-5.15,0-10.26.15-15.32.46-59.84,3.66-108.93,29.48-141.95,74.65-46.18,63.16-56.95,157.36-30.32,265.27,26.65,108,87.58,216.76,171.55,306.24,102.77,109.51,224.75,173.36,329.63,173.36,5.15,0,10.26-.15,15.32-.46,59.84-3.66,108.92-29.48,141.95-74.65,46.18-63.16,56.95-157.37,30.32-265.27-26.65-108-87.58-216.76-171.55-306.24-102.77-109.51-224.75-173.36-329.63-173.36Z"/>
            <path class="cls-4" d="M1148.71,1011.2c-8.57,0-17.28-.43-26.15-1.29-56.24-5.48-116.74-28.46-174.95-66.46-60.03-39.19-116.98-94.07-164.7-158.71-75.1-101.74-122.12-218.97-132.39-330.09-5-54.06-1.01-103.75,11.84-147.67,13.32-45.52,35.64-82.82,66.33-110.88l.54.59-.54-.59c44.08-40.3,102.47-58.19,168.87-51.72,56.24,5.48,116.74,28.46,174.95,66.46,60.03,39.19,116.98,94.07,164.7,158.71,75.1,101.74,122.12,218.97,132.39,330.09,5,54.06,1.01,103.75-11.84,147.67-13.32,45.52-35.64,82.82-66.33,110.88-38.19,34.92-87.14,53.01-142.72,53.01ZM871.42,144.68c-55.19,0-103.76,17.95-141.66,52.6-60.31,55.15-87.89,146.5-77.66,257.23,10.25,110.84,57.16,227.78,132.08,329.29,95.4,129.24,221.95,213.18,338.53,224.54,8.81.86,17.48,1.29,25.99,1.29,55.19,0,103.76-17.95,141.66-52.6,60.31-55.15,87.89-146.5,77.66-257.23-10.25-110.84-57.16-227.78-132.08-329.29-95.4-129.24-221.95-213.18-338.53-224.54-8.81-.86-17.48-1.29-25.99-1.29Z"/>
            <path class="cls-4" d="M1125.78,1030.58c-24.3,0-49.51-3.35-75.32-10.1-121.19-31.67-240.63-134.03-319.5-273.82-63.33-112.24-93.87-235.39-86-346.76,3.83-54.19,16.56-102.64,37.83-144.01,22.04-42.87,52.34-76.22,90.05-99.13l.41.68-.41-.68c56-34.02,124.06-41.96,196.8-22.95,121.19,31.67,240.63,134.03,319.5,273.82,63.33,112.24,93.87,235.39,86,346.76-3.83,54.19-16.56,102.64-37.83,144.02-22.04,42.87-52.34,76.22-90.05,99.13-36.13,21.95-77.29,33.04-121.48,33.04ZM894.34,125.31c-43.91,0-84.78,11.01-120.66,32.81-74.14,45.04-119.28,130.95-127.12,241.9-7.85,111.06,22.62,233.9,85.8,345.87,78.66,139.42,197.73,241.5,318.51,273.06,25.67,6.71,50.75,10.04,74.91,10.04,43.91,0,84.78-11.01,120.66-32.81,74.14-45.04,119.28-130.95,127.12-241.9,7.85-111.06-22.62-233.9-85.8-345.87-78.66-139.42-197.73-241.5-318.51-273.06-25.67-6.71-50.75-10.04-74.91-10.04Z"/>
            <path class="cls-4" d="M1099.95,1046.25c-16.09,0-32.46-1.38-49.08-4.15-48.33-8.06-96.65-27.45-143.63-57.64-46.95-30.18-90.2-69.63-128.52-117.25-39.68-49.3-72.32-105.24-97.04-166.27-29.55-72.98-46-150.36-47.56-223.77-1.52-71.08,10.8-138.62,35.64-195.31,33.57-76.63,87.92-130.94,157.18-157.05l.28.74-.28-.74c44.36-16.72,92.24-20.97,142.31-12.62,48.33,8.06,96.65,27.45,143.63,57.64,46.95,30.18,90.2,69.63,128.52,117.25,39.67,49.29,72.32,105.24,97.04,166.27,29.55,72.98,46,150.36,47.56,223.77,1.52,71.08-10.8,138.62-35.64,195.31-33.56,76.63-87.92,130.94-157.18,157.05-29.64,11.17-60.85,16.77-93.23,16.77ZM920.65,109.57c-32.16,0-63.45,5.54-93.15,16.73-68.86,25.95-122.9,79.96-156.29,156.2-51.16,116.81-46.7,273.01,11.95,417.84,48.78,120.47,128.66,220.9,224.94,282.78,96.2,61.83,197.24,77.77,284.52,44.87,68.86-25.95,122.9-79.96,156.29-156.2,51.16-116.81,46.7-273.01-11.95-417.84-48.78-120.47-128.66-220.9-224.95-282.78-63.46-40.79-129.04-61.6-191.37-61.6Z"/>
            <path class="cls-4" d="M1072.73,1057.91c-32.31,0-65.06-5.05-97.89-15.14-50.5-15.52-99.07-42.23-144.36-79.39-45.27-37.15-84.99-82.88-118.04-135.91-34.21-54.9-59.75-115.26-75.9-179.42-18.82-74.76-23.59-148.82-14.18-220.13,8.98-68.02,31.23-131.4,64.36-183.27,24.08-37.71,53.46-69.07,87.33-93.21,35.04-24.98,74.19-41.71,116.36-49.71,50.45-9.57,102.55-6.27,154.86,9.8,50.5,15.52,99.08,42.23,144.36,79.39,45.27,37.15,84.99,82.88,118.04,135.91,34.21,54.9,59.75,115.26,75.9,179.42,18.82,74.76,23.59,148.82,14.18,220.13-8.98,68.02-31.23,131.4-64.36,183.27-24.08,37.7-53.46,69.06-87.33,93.21-35.04,24.98-74.19,41.71-116.36,49.71-18.79,3.56-37.81,5.34-56.98,5.34ZM890.56,102.51l.15.78c-83.24,15.79-153.32,64.97-202.65,142.21-68.93,107.94-87.15,254.52-49.98,402.16,31.88,126.62,100.56,238.3,193.4,314.49,75.25,61.75,159.06,94.17,241.04,94.17,19.11,0,38.11-1.76,56.88-5.32,83.24-15.79,153.32-64.97,202.65-142.21,68.93-107.94,87.15-254.52,49.98-402.16-31.88-126.62-100.56-238.3-193.4-314.49-92.79-76.14-198.59-107.7-297.92-88.85l-.15-.78Z"/>
            <path class="cls-4" d="M1047.59,1065.57c-52.36,0-104.27-11.43-154.47-34.04-51.57-23.22-99.17-57.2-141.46-100.98-42.29-43.78-77.15-95.15-103.61-152.7-27.4-59.58-44.55-123.2-50.98-189.1-14.09-144.38,26.25-282.09,110.67-377.8,32.9-37.3,71.16-66.76,113.7-87.55,44.04-21.52,91.49-33.14,141.02-34.52,55.76-1.56,111.12,9.84,164.53,33.89,51.57,23.22,99.17,57.2,141.46,100.98,42.29,43.78,77.14,95.15,103.61,152.7,27.4,59.58,44.55,123.2,50.98,189.1,14.09,144.38-26.25,282.09-110.67,377.8-32.9,37.3-71.16,66.76-113.7,87.55-44.04,21.52-91.49,33.14-141.02,34.52-3.35.09-6.71.14-10.06.14ZM972.38,90.32c-3.29,0-6.57.05-9.87.14-96.78,2.71-186.83,45.87-253.58,121.54-84.13,95.38-124.33,232.65-110.28,376.59,25.81,264.49,226.14,475.38,449.08,475.38,3.29,0,6.57-.05,9.87-.14,96.78-2.71,186.83-45.87,253.58-121.54,84.13-95.38,124.32-232.65,110.28-376.59-25.81-264.49-226.14-475.38-449.08-475.38Z"/>
            <path class="cls-4" d="M1026.73,1069.77c-16.12,0-32.34-.96-48.6-2.9-60.12-7.18-117.59-27.1-170.83-59.21-51.41-31-96.73-72-134.68-121.86-37.95-49.86-66.64-106.06-85.27-167.04-19.28-63.14-26.88-128.67-22.57-194.77,4.56-70.01,22.11-136.04,52.17-196.26,29.04-58.19,68.2-108,116.39-148.05,87.59-72.8,197.2-105.55,308.64-92.24,60.12,7.18,117.59,27.1,170.83,59.21,51.41,31,96.73,72,134.68,121.86,37.96,49.86,66.64,106.06,85.27,167.04,19.28,63.14,26.88,128.67,22.57,194.77-4.56,70.01-22.11,136.04-52.17,196.26-29.04,58.19-68.2,108-116.39,148.05-74.81,62.17-165.69,95.14-260.04,95.14ZM993.39,86.12c-93.99,0-184.51,32.84-259.03,94.77-97.85,81.33-159.08,206.42-167.99,343.19-17.52,269.18,167.28,511.96,411.95,541.19,111,13.26,220.19-19.37,307.44-91.88,97.85-81.33,159.08-206.42,167.98-343.19,17.52-269.18-167.28-511.96-411.95-541.19-16.19-1.94-32.35-2.89-48.41-2.89Z"/>
            <path class="cls-4" d="M1012.39,1071.34c-40.14,0-80.23-5.17-119.85-15.5-63.3-16.5-121.61-45.16-173.29-85.19-49.92-38.66-91.59-86.25-123.86-141.43-32.27-55.18-53.51-115.18-63.14-178.34-9.96-65.39-6.97-131.3,8.89-195.93,16.04-65.34,44.25-125.38,83.86-178.44,38.26-51.25,85.41-93.78,140.14-126.41,53.52-31.91,111.65-52.74,172.75-61.92,63.27-9.5,127.08-6.05,189.68,10.26,63.3,16.5,121.61,45.16,173.29,85.19,49.92,38.66,91.59,86.25,123.86,141.43,32.27,55.18,53.51,115.18,63.14,178.34,9.96,65.39,6.97,131.3-8.89,195.93-16.04,65.34-44.25,125.38-83.86,178.44-38.26,51.25-85.41,93.78-140.14,126.41-53.52,31.91-111.65,52.74-172.75,61.92-23.23,3.49-46.54,5.23-69.83,5.23ZM1007.22,84.52c-84.1,0-166.97,22.67-241.27,66.96-112.32,66.96-191.61,174.87-223.27,303.86-64.59,263.11,92.54,531.8,350.26,598.96,123.33,32.14,251.62,13.86,361.22-51.48,112.32-66.96,191.61-174.87,223.27-303.86,64.59-263.11-92.54-531.8-350.26-598.96-39.73-10.35-79.99-15.48-119.95-15.48Z"/>
            <path class="cls-4" d="M1008.51,1071.39c-.61,0-1.22,0-1.83,0-70.31-.23-138.99-13.62-204.13-39.82-66.87-26.89-125.83-65.55-175.26-114.92-47.75-47.69-84.44-103.12-109.05-164.74-47.9-119.91-44.61-250.9,9.26-368.83,28.02-61.35,67.96-115.73,118.72-161.63,49.02-44.33,106.01-78.93,169.38-102.84,62.8-23.69,128.74-35.7,196.02-35.7.61,0,1.22,0,1.83,0,70.31.23,138.99,13.62,204.13,39.82,66.87,26.89,125.83,65.55,175.26,114.92,47.75,47.69,84.44,103.12,109.05,164.74,47.9,119.91,44.61,250.9-9.26,368.83-28.02,61.35-67.96,115.73-118.72,161.63-49.02,44.33-106.01,78.93-169.38,102.84-62.8,23.69-128.74,35.7-196.02,35.7ZM1012.11,84.62c-203.56,0-397.81,112.22-483.17,299.11-53.69,117.54-56.96,248.08-9.23,367.58,50.58,126.62,151.23,225.62,283.43,278.77,265.3,106.67,573.96-9.75,688.05-259.54,53.69-117.54,56.96-248.08,9.23-367.58-50.58-126.62-151.23-225.62-283.42-278.77-66.79-26.86-136.38-39.58-204.88-39.58Z"/>
            <path class="cls-4" d="M1019.07,1071.95c-32.24,0-64.52-2.39-96.68-7.18-75.43-11.22-146.87-35.2-212.34-71.25-68.74-37.85-126.45-86.53-171.53-144.66-43.56-56.17-73.23-118.34-88.18-184.76-27.71-123.09-1.17-248.86,74.73-354.16,40.51-56.2,92.64-103.66,154.92-141.05,60.15-36.11,127.21-61.37,199.3-75.06,72.09-13.69,145.58-15.14,218.43-4.3,75.43,11.22,146.87,35.2,212.34,71.25,68.74,37.85,126.45,86.53,171.53,144.66,43.56,56.17,73.23,118.33,88.18,184.76,27.71,123.09,1.17,248.86-74.73,354.16-40.51,56.2-92.64,103.66-154.92,141.05-60.15,36.11-127.21,61.37-199.3,75.06-40.26,7.65-80.97,11.48-121.75,11.48ZM1001.54,84.17c-187.38,0-369.49,80.07-475.18,226.7-75.63,104.92-102.07,230.24-74.47,352.88,30.34,134.77,124.72,254.46,258.93,328.38,95.86,52.79,202.64,77.99,307.76,78,187.38,0,369.49-80.07,475.18-226.7,75.63-104.92,102.07-230.24,74.47-352.88-30.34-134.77-124.71-254.46-258.93-328.38-95.86-52.79-202.64-78-307.76-78Z"/>
            <path class="cls-4" d="M1046.42,1075.28c-72.31,0-143.98-10.15-213.37-30.23-79.06-22.88-151.67-57.73-215.82-103.58-67.79-48.45-121.71-105.97-160.27-170.94-37.26-62.79-58.35-129.3-62.7-197.7-7.94-124.94,42-244.09,140.63-335.51,53.04-49.17,117.07-87.88,190.28-115.06,70.71-26.25,146.98-40.7,226.68-42.95,79.7-2.25,158.83,7.82,235.19,29.92,79.06,22.88,151.67,57.73,215.82,103.58,67.79,48.45,121.72,105.97,160.27,170.94,37.26,62.79,58.35,129.3,62.7,197.7,7.94,124.94-42,244.09-140.63,335.51-53.04,49.17-117.07,87.88-190.29,115.06-70.71,26.25-146.97,40.7-226.68,42.95-7.28.21-14.56.31-21.82.31ZM973.45,80.83c-164.42,0-324.49,52.95-437.47,157.67-98.27,91.09-148.03,209.79-140.13,334.24,8.82,138.84,89.85,272.77,222.31,367.44,124.74,89.16,278.44,133.28,428.5,133.29,164.42,0,324.49-52.95,437.47-157.67,98.27-91.09,148.04-209.79,140.13-334.24-8.82-138.84-89.85-272.77-222.31-367.44-124.74-89.16-278.44-133.29-428.51-133.29Z"/>
            <path class="cls-4" d="M1091.99,1084.21c-34.33,0-69.08-2.09-104.1-6.26-85.94-10.25-169.16-32.57-247.37-66.34-80.98-34.97-153-80.74-214.06-136.06-63.94-57.92-111.78-122.53-142.17-192.03-29.38-67.16-41.11-135.55-34.88-203.26,11.62-126.23,85.63-237.42,208.39-313.11,65.3-40.26,140.6-68.47,223.81-83.86,80.36-14.86,164.68-17.2,250.62-6.95,85.94,10.25,169.16,32.57,247.37,66.34,80.98,34.97,153,80.74,214.06,136.06,63.94,57.92,111.78,122.53,142.17,192.03,29.38,67.16,41.11,135.55,34.88,203.26-11.62,126.23-85.63,237.42-208.39,313.11-65.3,40.26-140.6,68.47-223.81,83.86-47.61,8.8-96.62,13.21-146.52,13.21ZM928.08,71.92c-133.79,0-263.69,31.39-369.45,96.59-122.33,75.42-196.07,186.18-207.64,311.9-12.64,137.29,51.71,280.88,176.54,393.96,248.9,225.47,667.88,275.45,933.96,111.41,122.33-75.42,196.07-186.18,207.64-311.9,12.64-137.29-51.71-280.88-176.54-393.96-149.97-135.86-361.7-208-564.51-208Z"/>
            <path class="cls-4" d="M1149.66,1100.91c-81.88,0-165.38-10.94-248.54-32.6-90.51-23.57-176.05-58.63-254.26-104.21-80.98-47.2-150.51-103.68-206.66-167.87-57.42-65.64-97.3-135.26-118.53-206.93-20.52-69.25-22.78-137.24-6.72-202.09,15.35-61.99,46.75-118.03,93.32-166.56,48.2-50.22,110.78-90.34,186.02-119.22,76.93-29.54,162.56-45.62,254.5-47.8,88.79-2.11,179.7,8.77,270.2,32.34,90.51,23.57,176.05,58.63,254.26,104.21,80.98,47.2,150.51,103.68,206.66,167.87,57.42,65.64,97.3,135.26,118.53,206.93,20.52,69.25,22.78,137.24,6.72,202.09-15.35,61.99-46.75,118.03-93.32,166.56-48.2,50.22-110.78,90.34-186.02,119.22-76.93,29.54-162.56,45.62-254.5,47.8-7.21.17-14.43.26-21.66.26ZM869.59,55.12c-96.43,0-190.2,15.35-274.73,47.81-148.13,56.88-246.99,157.98-278.37,284.68-32.96,133.08,11.4,277.83,124.91,407.59,167.2,191.14,447.8,303.98,709.13,303.99,96.43,0,190.2-15.35,274.72-47.81,148.13-56.88,246.99-157.98,278.37-284.68,32.96-133.08-11.4-277.83-124.91-407.58C1411.51,167.96,1130.91,55.12,869.59,55.12Z"/>
            <path class="cls-4" d="M1215.28,1127.07c-39.48,0-79.9-2.54-121.1-7.62-95.67-11.81-191.4-36.78-284.55-74.21-93.15-37.43-179.02-85.44-255.23-142.7-78.91-59.29-143.95-125.95-193.31-198.12-48.71-71.23-79.3-143.68-90.91-215.33-11.22-69.25-4.36-134.98,20.38-195.37,25.43-62.05,68.39-115.3,127.71-158.27,61.38-44.46,137.53-75.82,226.35-93.19,87.6-17.13,182.25-19.63,281.3-7.4,95.67,11.81,191.4,36.78,284.55,74.21,93.15,37.43,179.02,85.44,255.23,142.7,78.91,59.29,143.95,125.95,193.31,198.12,48.71,71.23,79.3,143.68,90.91,215.33,11.22,69.25,4.36,134.98-20.38,195.37-25.43,62.05-68.39,115.3-127.71,158.27-61.38,44.46-137.53,75.82-226.35,93.19-51.17,10.01-104.75,15.02-160.2,15.02ZM804.45,28.91c-54.51,0-108,4.82-159.51,14.9-175.43,34.32-300.76,123.28-352.89,250.51-50.61,123.51-25.62,268.84,70.37,409.2,172.23,251.83,529.84,421.86,853.26,421.88,54.51,0,108-4.82,159.51-14.9,175.43-34.32,300.76-123.28,352.89-250.51,50.61-123.51,25.62-268.84-70.37-409.2C1485.48,198.95,1127.87,28.91,804.45,28.91Z"/>
            <path class="cls-4" d="M1281.14,1163.13c-87.83,0-179.49-12.48-272.96-37.2-100.69-26.63-199.21-66.26-292.84-117.8-93.63-51.54-177.65-112.39-249.72-180.87-74.63-70.9-133.12-146.92-173.84-225.93-75.68-146.86-81.05-289.58-15.13-401.88,17.8-30.32,40.7-58.13,68.08-82.68,27.59-24.74,59.91-46.31,96.04-64.11C516.03,15.59,606.18-4.93,708.71-8.34c96.95-3.22,198.97,9.13,303.22,36.7,100.69,26.63,199.21,66.26,292.84,117.8,93.63,51.54,177.65,112.39,249.72,180.87,74.63,70.9,133.12,146.92,173.84,225.93,75.68,146.86,81.05,289.58,15.12,401.88-17.8,30.32-40.7,58.13-68.08,82.68-27.59,24.74-59.91,46.31-96.04,64.11-75.26,37.08-165.41,57.6-267.94,61-10.03.33-20.13.5-30.26.5ZM738.58-7.24c-9.99,0-19.89.16-29.81.49C508.36-.1,351.36,75.36,278.03,200.26c-65.64,111.81-60.26,253.99,15.17,400.34,161.86,314.07,600.08,560.91,988.34,560.93,9.99,0,19.89-.16,29.81-.49,200.41-6.65,357.4-82.11,430.74-207.01,65.64-111.81,60.26-253.99-15.17-400.34C1565.06,239.62,1126.84-7.24,738.58-7.24Z"/>
            <path class="cls-4" d="M1342.33,1208.99c-34.84,0-70.96-2.14-108.31-6.42-104.62-11.99-212.03-40.14-319.25-83.68-103.56-42.05-202.59-96.61-294.33-162.16-91.75-65.55-171.6-138.8-237.33-217.7-68.06-81.71-117.93-165.94-148.21-250.35-27.12-75.62-37.09-147.65-29.62-214.09,7.22-64.23,30.46-121.5,69.08-170.22,23.48-29.62,52.53-55.75,86.37-77.69,34.07-22.09,73.13-40.01,116.09-53.26,89.6-27.64,193.66-34.93,309.28-21.68,104.62,11.99,212.03,40.14,319.25,83.68,103.56,42.05,202.59,96.61,294.33,162.16,91.75,65.55,171.6,138.8,237.33,217.7,68.06,81.71,117.93,165.94,148.21,250.35,27.12,75.62,37.09,147.65,29.62,214.09-7.22,64.23-30.46,121.5-69.08,170.22-23.47,29.62-52.53,55.76-86.37,77.69-34.07,22.09-73.13,40.01-116.08,53.26-60.66,18.71-127.96,28.1-200.97,28.1ZM678.95-52.99c-178.08,0-321.89,55.57-403.35,158.34-78.36,98.86-92.29,234.81-39.21,382.79,123.45,344.17,571.07,663.95,997.81,712.85,227.08,26.02,413.09-29.4,510.31-152.05,78.36-98.86,92.29-234.81,39.21-382.79C1660.27,321.99,1212.65,2.2,785.91-46.7c-36.8-4.22-72.52-6.29-106.96-6.29Z"/>
            <path class="cls-4" d="M1387.13,1262.74c-18.88,0-38.12-.68-57.67-2.04-59.13-4.11-121.47-14.46-185.28-30.79-110.26-28.21-220.78-72.81-328.48-132.59-104.02-57.73-201.05-127.11-288.4-206.21-87.35-79.1-160.62-163.94-217.77-252.15-59.18-91.35-98.39-182.35-116.54-270.47-15.4-74.74-14.82-144.03,1.72-205.95,15.99-59.88,46.52-111.61,90.73-153.78,29.61-28.24,65.19-51.89,105.76-70.28,40.8-18.5,86.72-31.72,136.48-39.29,50.66-7.71,105.49-9.6,162.98-5.61,59.13,4.11,121.47,14.46,185.28,30.79,110.27,28.21,220.78,72.81,328.48,132.59,104.02,57.73,201.05,127.11,288.4,206.21,87.35,79.1,160.62,163.94,217.77,252.15,59.18,91.35,98.39,182.35,116.54,270.47,15.4,74.74,14.82,144.03-1.72,205.95-15.99,59.88-46.52,111.61-90.73,153.78-29.61,28.24-65.19,51.89-105.76,70.28-40.8,18.5-86.72,31.72-136.48,39.29-33.43,5.09-68.68,7.64-105.31,7.64ZM631.99-107c-144.16,0-264.5,39.71-345.45,116.92-90.65,86.46-122.46,210.35-91.99,358.26,35.84,173.99,154.39,359.29,333.82,521.76,179.45,162.5,398.29,282.69,616.21,338.43,251.04,64.21,465.72,33.6,589.01-84,90.65-86.47,122.46-210.35,91.99-358.26-35.84-173.99-154.39-359.29-333.82-521.76C1312.31,101.86,1093.46-18.34,875.55-74.08c-86.22-22.05-168.15-32.92-243.56-32.92Z"/>
            <path class="cls-4" d="M1416.74,1322.23c-54.74,0-112.82-6.21-172.82-18.48-65.01-13.29-132.58-33.78-200.83-60.88-113.57-45.11-224.63-106.45-330.08-182.34-101.85-73.29-194.22-157-274.54-248.78-80.33-91.79-144.56-187.05-190.91-283.12-48-99.49-74.62-195.51-79.12-285.39-3.62-72.24,7.36-137.52,32.63-194.03,24.45-54.67,61.84-100.29,111.15-135.59,36.2-25.92,78.59-46.01,126-59.72,47.61-13.77,100.28-21.09,156.53-21.77,57.24-.68,118.3,5.51,181.47,18.42,65.01,13.29,132.58,33.78,200.83,60.88,113.57,45.11,224.63,106.45,330.08,182.34,101.85,73.29,194.22,157,274.54,248.78,80.33,91.79,144.56,187.05,190.91,283.12,48,99.49,74.62,195.51,79.12,285.39,3.62,72.24-7.36,137.52-32.63,194.03-24.45,54.67-61.84,100.29-111.15,135.59-36.2,25.92-78.59,46.01-126,59.72-47.61,13.77-100.28,21.09-156.53,21.77-2.87.03-5.76.05-8.64.05ZM603.23-165.81c-114.85,0-214.95,26.91-290.1,80.72C212.36-12.93,162.87,100.57,170.01,243.16c8.89,177.45,104.65,379,269.64,567.54,165.02,188.58,379.54,341.53,604.02,430.69,266.03,105.66,514,104.91,663.32-2,100.77-72.16,150.26-185.66,143.12-328.25-8.89-177.45-104.65-379-269.64-567.54C1415.44,155.02,1200.93,2.06,976.45-87.09c-132.14-52.48-259.86-78.72-373.21-78.72Z"/>
            <path class="cls-4" d="M1429.19,1384.89c-28.57,0-58.07-1.8-88.33-5.43-63.1-7.57-129.35-23.01-196.91-45.89-69.58-23.56-140.77-55.09-211.59-93.72-114.25-62.32-223.04-140.28-323.35-231.73-96.88-88.33-181.81-185.45-252.43-288.67-70.63-103.23-123.39-207.37-156.81-309.51-34.61-105.78-46.87-204.79-36.41-294.28,15.83-135.53,82.94-237.58,194.08-295.1,86.56-44.8,197.83-60.61,321.81-45.73,63.1,7.57,129.35,23.01,196.91,45.89,69.58,23.56,140.77,55.09,211.59,93.72,114.25,62.32,223.04,140.28,323.34,231.73,96.88,88.33,181.81,185.45,252.43,288.67,70.63,103.23,123.39,207.37,156.81,309.51,34.61,105.78,46.87,204.79,36.41,294.28l-.79-.09.79.09c-15.83,135.53-82.94,237.58-194.08,295.1-65.43,33.86-144.99,51.17-233.48,51.17ZM589.72-228.93c-86.94,0-165.6,16.78-231.54,50.91C247.52-120.75,180.7-19.13,164.94,115.85c-20.63,176.64,47.9,390.68,192.96,602.7,145.1,212.08,349.38,396.72,575.23,519.9,277.49,151.35,549.95,186.44,728.82,93.86,110.65-57.27,177.47-158.89,193.23-293.87,20.63-176.64-47.9-390.68-192.96-602.7-145.1-212.08-349.38-396.72-575.23-519.9-175.19-95.56-348.38-144.77-497.28-144.77Z"/>
            <path class="cls-4" d="M1426.13,1448.31c-59.38,0-122.64-8.21-188.24-24.64-67.75-16.97-137.68-42.59-207.85-76.13-72.29-34.56-144.98-77.62-216.03-127.98-112.06-79.42-215.59-173.45-307.72-279.46-88.99-102.4-163.65-211.61-221.91-324.61-58.27-113.01-97.2-224.12-115.71-330.24-19.17-109.91-15.49-209.62,10.95-296.38,38.51-126.35,123.12-215.09,244.7-256.62,100.84-34.45,224.6-35.01,357.9-1.61,67.75,16.97,137.69,42.59,207.85,76.13,72.29,34.56,144.98,77.62,216.03,127.98,112.06,79.42,215.59,173.45,307.72,279.46,88.99,102.4,163.65,211.61,221.92,324.61,58.27,113.01,97.2,224.12,115.71,330.24,19.17,109.91,15.49,209.62-10.95,296.38-38.51,126.35-123.12,215.09-244.7,256.62-51.22,17.5-108.37,26.25-169.67,26.25ZM594.23-292.65c-60.59,0-117.53,8.67-169.4,26.39-121.07,41.36-205.34,129.74-243.69,255.58-52.18,171.22-15.02,393.33,104.65,625.43,119.71,232.17,307.63,446.49,529.14,603.5,279.51,198.11,571.23,273.73,780.35,202.3,121.07-41.36,205.34-129.74,243.69-255.58l.76.23-.76-.23c52.18-171.22,15.02-393.33-104.65-625.43-119.71-232.17-307.63-446.49-529.14-603.5-210.18-148.97-427.28-228.69-610.95-228.69Z"/>
            <path class="cls-4" d="M1407.03,1510.06c-90.55,0-189.42-19.95-290.96-59.1-70.67-27.25-142.26-63.6-212.78-108.06-72.67-45.81-144.29-100.29-212.87-161.91-106.79-95.98-201.95-205.04-282.83-324.16-78.12-115.06-139.71-234.61-183.04-355.34-43.34-120.75-66.24-236.58-68.07-344.3-1.89-111.56,19.02-209.48,62.17-291.04,61.41-116.08,164.3-189.97,297.54-213.68,114.59-20.39,248.72-2.8,387.88,50.85,70.67,27.25,142.26,63.6,212.78,108.06,72.67,45.81,144.29,100.29,212.87,161.91,106.79,95.98,201.95,205.04,282.83,324.16,78.12,115.06,139.71,234.61,183.04,355.34,43.34,120.75,66.24,236.58,68.07,344.3,1.89,111.56-19.02,209.48-62.17,291.04-61.41,116.08-164.3,189.97-297.54,213.68-30.97,5.51-63.37,8.25-96.91,8.25ZM614.53-354.35c-33.71,0-66.45,2.76-98.08,8.39-132.75,23.62-235.24,97.22-296.41,212.86-85.13,160.93-83,386.11,6,634.06,89.03,248.04,254.33,489.12,465.44,678.85,234.5,210.74,494.01,328.82,714.1,328.83,33.71,0,66.45-2.76,98.08-8.39,132.75-23.62,235.24-97.22,296.41-212.86,85.13-160.93,83-386.11-5.99-634.06-89.03-248.04-254.33-489.12-465.44-678.85-234.5-210.74-494.01-328.83-714.1-328.83Z"/>
            <path class="cls-4" d="M1372.66,1567.79c-123.6,0-260.48-38.14-396.73-110.66-71.33-37.97-142.11-85.1-210.36-140.09-70.34-56.67-138.06-121.76-201.29-193.46-98.33-111.5-181.94-234.11-248.52-364.42-64.31-125.87-110.09-253.59-136.08-379.61-26-126.05-30.88-244.05-14.53-350.73,16.94-110.49,56.05-203.94,116.24-277.75,85.43-104.76,208.05-161.62,354.6-164.45,126.56-2.42,267.72,35.79,408.19,110.55,71.33,37.97,142.11,85.1,210.36,140.09,70.34,56.67,138.06,121.76,201.29,193.46,98.33,111.5,181.94,234.11,248.51,364.42,64.31,125.87,110.09,253.59,136.08,379.61,26,126.05,30.88,244.05,14.53,350.73-16.94,110.49-56.05,203.94-116.24,277.75-85.43,104.76-208.05,161.62-354.61,164.45-3.8.07-7.63.11-11.45.11ZM647.82-411.91c-3.94,0-7.86.04-11.78.11-146.07,2.82-268.28,59.48-353.4,163.87C163.87-102.3,127.87,120.42,181.24,379.22c53.4,258.9,189.86,522.88,384.23,743.29,245.7,278.62,546.33,443.68,806.82,443.68,3.94,0,7.87-.04,11.78-.11,146.07-2.82,268.28-59.48,353.4-163.87l.62.5-.62-.5c118.76-145.62,154.76-368.35,101.39-627.15-53.4-258.9-189.86-522.88-384.23-743.29-245.7-278.62-546.34-443.68-806.82-443.68Z"/>
            <path class="cls-4" d="M1325.64,1619.36c-29.63,0-60-2.16-91-6.5-135.19-18.95-278.75-79.43-415.15-174.92-69.32-48.53-136.51-105.83-199.69-170.31-65.1-66.44-126.05-140.63-181.16-220.5-86.6-125.51-155.52-259.7-204.83-398.82-47.63-134.38-75.07-267.7-81.54-396.24-6.47-128.57,8.35-245.89,44.05-348.7,36.98-106.48,94.86-192.66,172.02-256.14,111.6-91.8,255.84-128.38,417.13-105.78,135.19,18.94,278.75,79.43,415.15,174.92,69.32,48.53,136.51,105.83,199.69,170.31,65.1,66.44,126.05,140.63,181.17,220.5,86.6,125.51,155.52,259.69,204.83,398.81,47.63,134.38,75.07,267.7,81.54,396.24,6.47,128.57-8.35,245.89-44.05,348.7-36.98,106.48-94.86,192.66-172.02,256.14l-.5-.61.5.61c-90.15,74.16-201.6,112.28-326.14,112.28ZM694.49-463.47c-124.18,0-235.27,37.99-325.14,111.92C217.1-226.31,140.56-11.96,153.86,251.98c13.3,264.06,114.9,546.12,286.09,794.24,216.99,314.48,514.15,525.72,794.91,565.06,30.91,4.33,61.22,6.48,90.77,6.49,124.18,0,235.27-37.99,325.14-111.92,152.26-125.25,228.79-339.59,215.5-603.54-13.3-264.06-114.9-546.12-286.09-794.23-216.99-314.48-514.15-525.72-794.91-565.06-30.91-4.33-61.22-6.49-90.77-6.49Z"/>
            <path class="cls-4" d="M1268.91,1663.15c-68.55,0-139.85-11.11-212.65-33.43-138.88-42.58-279.18-125.54-405.75-239.93-64.42-58.22-125.17-124.39-180.57-196.65-57.06-74.44-108.6-155.58-153.19-241.18-71.63-137.52-122.8-280.84-152.08-425.96-28.29-140.19-35.07-276.16-20.16-404.14,14.91-128.01,50.78-241.57,106.6-337.54,57.81-99.39,134.59-175.44,228.22-226.06,140.71-76.07,308.26-87.72,484.53-33.68,138.88,42.58,279.18,125.54,405.75,239.93,64.42,58.22,125.17,124.39,180.57,196.65,57.06,74.44,108.6,155.58,153.19,241.18,71.63,137.52,122.8,280.84,152.08,425.96,28.29,140.19,35.07,276.16,20.16,404.14-14.91,128.01-50.78,241.57-106.6,337.54-57.81,99.38-134.59,175.44-228.22,226.06-82.59,44.65-174.45,67.11-271.88,67.11ZM751.22-507.26c-97.18,0-188.75,22.39-271.12,66.92C295.32-340.46,176.71-140.73,146.09,122.04c-30.63,262.88,30.48,557.35,172.07,829.18,174.87,335.73,450.97,588.8,738.56,676.97,175.85,53.91,342.98,42.31,483.31-33.56l.38.7-.38-.7c184.77-99.89,303.38-299.62,334-562.38,30.63-262.88-30.48-557.35-172.07-829.18-174.87-335.73-450.97-588.8-738.56-676.97-72.63-22.27-143.8-33.36-212.18-33.36Z"/>
            <path class="cls-4" d="M1206.3,1697.86c-47.7,0-96.28-5.02-145.54-15.08-116.19-23.72-231.18-74.29-341.79-150.31-110.59-76.01-211.23-173.64-299.12-290.17-90.99-120.64-164.26-256.36-217.77-403.4-32.23-88.57-56.39-179.22-71.81-269.46-14.97-87.65-21.77-175.3-20.21-260.51,1.53-83.71,11.13-165.19,28.52-242.17,17.32-76.63,42.35-148.78,74.42-214.44,43.4-88.87,99.08-165.03,165.49-226.35,68.68-63.42,147.79-109.91,235.12-138.2,109.11-35.34,225.44-40.81,345.75-16.25,116.19,23.72,231.18,74.29,341.79,150.31,110.59,76.01,211.23,173.64,299.12,290.17,90.99,120.64,164.26,256.37,217.77,403.4,32.23,88.57,56.39,179.22,71.81,269.46,14.97,87.65,21.78,175.3,20.21,260.51-1.53,83.71-11.13,165.19-28.52,242.17-17.32,76.63-42.35,148.78-74.42,214.44-43.4,88.87-99.08,165.03-165.49,226.35-68.68,63.42-147.79,109.91-235.12,138.2l-.25-.76.25.76c-64.44,20.87-131.4,31.32-200.21,31.32ZM814.87-542.08c-68.68,0-136,10.37-200.78,31.35-172.56,55.89-310.77,181.67-399.67,363.73C81.87,124.46,77.81,492.81,203.57,838.34c105.78,290.63,289.13,536.67,516.3,692.81,158.79,109.14,325.71,165.21,485.38,165.22,68.68,0,136-10.37,200.78-31.35,172.56-55.89,310.77-181.67,399.67-363.73,132.55-271.45,136.61-639.8,10.85-985.34-105.78-290.63-289.13-536.67-516.3-692.81-158.79-109.14-325.71-165.22-485.38-165.22Z"/>
            <path class="cls-4" d="M1142.11,1722.94c-88.12,0-177.06-15.32-265.6-45.84-120.69-41.6-235.53-109.53-341.35-201.92-105.8-92.38-197.24-204.55-271.78-333.4-77.17-133.39-132.75-278.91-165.2-432.52-18.75-88.76-29.21-178.35-31.08-266.28-1.82-85.48,4.45-169.95,18.64-251.07,13.94-79.67,35.55-156.4,64.25-228.06,28.53-71.24,64.11-137.6,105.75-197.26,62.37-89.36,137.38-162.77,222.94-218.19,88.53-57.35,186.45-94.11,291.02-109.25,123.12-17.83,248.92-5.03,373.89,38.04,120.69,41.6,235.54,109.53,341.35,201.92,105.8,92.38,197.24,204.55,271.78,333.4,77.17,133.39,132.75,278.91,165.2,432.52,18.75,88.76,29.21,178.35,31.08,266.28,1.82,85.48-4.45,169.95-18.64,251.07-13.94,79.67-35.55,156.4-64.25,228.06-28.53,71.23-64.11,137.6-105.75,197.26-62.37,89.36-137.38,162.77-222.94,218.19-88.53,57.35-186.45,94.11-291.02,109.25-35.9,5.2-72.03,7.79-108.29,7.79ZM878.26-567.06c-36.25,0-72.38,2.57-108.32,7.78-207.27,30.02-384.62,143.02-512.89,326.78C83.28,16.45,25.95,359.59,99.74,708.94c64.13,303.59,219.14,575.29,436.46,765.05,185.16,161.67,396.7,247.36,605.65,247.37,36.25,0,72.38-2.57,108.32-7.78,207.27-30.02,384.62-143.02,512.89-326.78,173.77-248.95,231.11-592.09,157.31-941.43-64.13-303.59-219.14-575.29-436.46-765.05-185.16-161.67-396.7-247.37-605.65-247.37Z"/>
            <path class="cls-4" d="M1085.37,1738.8c-3.6,0-7.2-.02-10.81-.07-135.19-1.65-268.05-33.97-394.87-96.06-122.49-59.96-234.22-145.03-332.1-252.83-97.88-107.79-176.97-232.89-235.08-371.82C52.34,874.2,17.42,721.77,8.7,564.98c-4.8-86.45-1.37-172.55,10.2-255.91,11.26-81.11,30.31-160.33,56.63-235.46C101.38-.17,134.39-70.46,173.63-135.3c38.95-64.36,84.23-123.65,134.56-176.22,84-87.72,180.64-155.83,287.22-202.45,110.33-48.25,228.12-71.97,350.14-70.47,135.19,1.65,268.05,33.97,394.87,96.06,122.49,59.96,234.22,145.03,332.1,252.83,97.88,107.79,176.97,232.89,235.08,371.82,60.16,143.83,95.08,296.26,103.8,453.05,4.8,86.45,1.37,172.55-10.2,255.91-11.26,81.11-30.31,160.33-56.63,235.46-25.84,73.78-58.85,144.06-98.09,208.9-38.95,64.36-84.23,123.65-134.57,176.22-84,87.72-180.64,155.83-287.22,202.45-107.06,46.83-221.18,70.54-339.33,70.54ZM935.02-582.91c-235.33,0-457.15,96.51-625.68,272.5C100.5-92.32-8.5,226.71,10.29,564.89c35.55,639.65,512.98,1165.53,1064.28,1172.26,3.5.04,7.02.06,10.52.06,235.33,0,457.15-96.51,625.68-272.5,208.84-218.09,317.84-537.12,299.05-875.3C1974.28-50.25,1496.84-576.12,945.54-582.85c-3.5-.04-7.02-.06-10.52-.06Z"/>
            <path class="cls-4" d="M1039.04,1746.87c-52.17,0-104.69-4.08-157.26-12.35-144.84-22.78-281.96-75.48-407.55-156.64-60.36-39-117.69-84.55-170.42-135.37-52.22-50.34-100.37-106.29-143.11-166.29-42.74-60.01-80.43-124.57-112.02-191.88-31.89-67.96-57.84-139.34-77.13-212.14-40.13-151.48-51.7-307.5-34.39-463.74C-44.73,245.09,3.69,92.03,81.07-46.47c37.15-66.48,80.87-129.02,129.94-185.88,48.66-56.37,102.91-107.55,161.24-152.1,221.43-169.11,493.49-238.64,766.07-195.77,144.84,22.78,281.96,75.48,407.55,156.64,60.36,39,117.69,84.55,170.42,135.37,52.22,50.34,100.37,106.29,143.11,166.29s80.43,124.57,112.02,191.88c31.89,67.96,57.84,139.34,77.13,212.14,40.13,151.48,51.7,307.5,34.39,463.74-18.1,163.37-66.52,316.42-143.9,454.92-37.15,66.48-80.87,129.02-129.94,185.88-48.66,56.37-102.91,107.55-161.24,152.1-178.72,136.5-390.47,208.12-608.81,208.12ZM981.08-590.99c-218.01,0-429.39,71.51-607.85,207.8C132.5-199.34-25.86,89.27-61.25,408.63c-70.62,637.33,352.54,1231.42,943.28,1324.32,272.14,42.8,543.77-26.62,764.85-195.46,240.73-183.85,399.09-472.46,434.47-791.82,70.62-637.33-352.54-1231.42-943.28-1324.32-52.47-8.25-104.93-12.33-157.01-12.33Z"/>
            <path class="cls-4" d="M1009.99,1749.32c-112.64,0-224.66-16.42-334.42-49.11-151.61-45.16-289.84-118.65-410.86-218.46-58.16-47.97-111.97-101.92-159.93-160.36-47.5-57.89-89.68-120.68-125.36-186.64-35.68-65.96-65.17-135.62-87.63-207.05-22.68-72.12-38.4-146.68-46.73-221.61-17.32-155.9-3.21-311.82,41.94-463.43C-67.84,91.04,5.65-47.19,105.45-168.2c47.97-58.16,101.92-111.97,160.36-159.93,57.89-47.5,120.68-89.68,186.64-125.37,65.96-35.68,135.62-65.17,207.05-87.63,72.12-22.68,146.68-38.4,221.61-46.73,155.9-17.32,311.82-3.21,463.43,41.94,151.61,45.16,289.84,118.65,410.86,218.46,58.16,47.97,111.97,101.92,159.93,160.36,47.5,57.89,89.68,120.68,125.37,186.64,35.68,65.96,65.17,135.62,87.63,207.05,22.68,72.12,38.4,146.68,46.73,221.61,17.32,155.9,3.21,311.82-41.94,463.43-45.16,151.61-118.66,289.84-218.46,410.86-47.97,58.16-101.92,111.97-160.36,159.93-57.89,47.5-120.68,89.68-186.64,125.37-65.96,35.68-135.62,65.17-207.05,87.63-72.12,22.68-146.68,38.4-221.61,46.73-43.03,4.78-86.07,7.17-129.01,7.17ZM1008.49-593.63c-191.85,0-381.8,47.68-555.27,141.53C178.29-303.36-22.25-56.46-111.48,243.11c-89.23,299.57-56.45,615.96,92.29,890.88,148.74,274.92,395.63,475.46,695.21,564.69,110.55,32.93,223.41,49.24,335.61,49.24,191.85,0,381.8-47.68,555.27-141.53,274.92-148.74,475.47-395.63,564.69-695.21,89.23-299.57,56.45-615.96-92.29-890.88-148.74-274.92-395.63-475.46-695.21-564.69-110.55-32.93-223.41-49.24-335.61-49.24Z"/>
          </g>
        </g>
      </g>
    </g>
  </g>
</svg>