<svg width="420" height="607" viewBox="0 0 420 607" fill="none" xmlns="http://www.w3.org/2000/svg">
<g filter="url(#filter0_d_246_1474)">
<path d="M175.65 72.5697C176.48 72.4097 176.7 71.1898 175.96 70.7598C175.28 70.3798 174.57 70.0598 173.88 69.6998C171.74 68.6398 169.62 67.5598 167.47 66.5398C160.58 63.3598 153.56 60.4398 146.5 57.6698C145.23 57.1698 143.85 56.6298 142.6 56.1398C141.3 55.6198 140 55.1197 138.69 54.6097C138.44 54.5097 138.18 54.4797 137.92 54.5797C137.12 54.8497 137.06 56.0797 137.85 56.4097C147.22 60.0697 156.48 63.6997 165.61 67.8697C168.49 69.1997 171.31 70.6397 174.14 72.0497C174.63 72.2497 175.1 72.6898 175.66 72.5697H175.65Z" fill="#F5DEC6"/>
<path d="M185.23 52.0998C185.23 52.0998 185.26 52.0998 185.27 52.1098H185.29C185.27 52.1098 185.24 52.1098 185.22 52.0998H185.23ZM152.12 72.4698C153.86 71.2098 155.6 69.9498 157.35 68.6998C166.05 62.4598 174.89 56.4298 184.01 50.8098C184.44 50.5698 184.83 50.2098 185.33 50.1298C186.07 50.0298 186.66 50.8598 186.34 51.5298C186.18 51.9398 185.74 52.0398 185.41 52.2698C182.55 54.0698 179.67 55.8798 176.83 57.7098C168.81 62.9298 161.03 68.4998 153.27 74.0898C152.17 74.8198 151.09 73.2498 152.12 72.4698Z" fill="#F5DEC6"/>
<path d="M140.05 96.1897C139.8 90.9097 139.33 85.6497 138.92 80.3797C138.45 72.7797 138.1 65.1597 138.05 57.5397C138.05 57.5397 138.05 57.5597 138.05 57.5697C138.05 57.0297 138.05 56.4897 138.07 55.9497C138.05 55.6997 138.16 55.4297 138.04 55.2097C137.93 55.0497 137.72 55.0197 137.56 55.1197C137.37 55.2397 137.41 55.4897 137.39 55.6797C137.3 59.1997 137.4 62.6797 137.55 66.1897C137.75 75.9797 138.75 85.7097 139.31 95.4797C139.32 95.7297 139.34 95.9797 139.36 96.2297C139.37 96.4197 139.54 96.5697 139.73 96.5497C139.91 96.5297 140.05 96.3697 140.04 96.1897H140.05Z" fill="#F5DEC6"/>
<path d="M156.05 112.53C154.63 99.6597 152.55 86.7897 152.69 73.8197C152.69 73.7197 152.77 73.6397 152.77 73.5397C152.8 73.2397 152.39 73.0497 152.18 73.2697C151.92 73.5897 152 74.0497 151.96 74.4297C151.96 85.6997 153.55 96.8997 154.81 108.08C154.99 109.59 155.17 111.06 155.36 112.57C155.39 113 156.08 112.99 156.04 112.53H156.05Z" fill="#F5DEC6"/>
<path d="M165.75 88.7099C164.95 81.0799 164.25 73.4399 163.65 65.7899C163.63 65.6099 163.73 65.4499 163.65 65.2799C163.48 64.9399 162.97 65.1099 162.98 65.4799C162.94 66.9299 163.2 68.3599 163.31 69.7999C163.67 74.2699 164.02 78.7399 164.51 83.1999C164.7 85.0499 164.88 86.8999 165.07 88.7499C165.1 89.1799 165.78 89.1599 165.76 88.7099H165.75Z" fill="#F5DEC6"/>
<path d="M179.459 113.06C178.519 105.8 178.28 98.4801 177.67 91.1901C177.08 85.2801 176.539 79.3701 176.359 73.4301C176.329 72.9001 176.319 72.3701 176.299 71.8401C176.319 71.6101 176.07 71.4101 175.85 71.5001C175.88 71.5001 175.899 71.4901 175.929 71.4801C175.709 71.5101 175.579 71.7101 175.619 71.9301C175.629 72.2001 175.629 72.4801 175.649 72.7501C175.829 80.4901 176.78 88.1601 177.35 95.8701C177.64 101.63 178.079 107.37 178.769 113.09C178.799 113.51 179.48 113.52 179.45 113.05L179.459 113.06Z" fill="#F5DEC6"/>
<path d="M191.61 93.8296C191.79 93.7996 191.92 93.6096 191.88 93.4296C191.61 91.4896 191.34 89.5396 191.07 87.5996C190.63 84.4896 190.23 81.3796 189.92 78.2496C188.99 69.4296 188.1 60.5896 186.68 51.8396C186.61 51.5596 186.6 51.2396 186.43 50.9996C186.26 50.7896 185.87 50.8896 185.84 51.1596C185.81 51.2596 185.86 51.3596 185.9 51.4496C186 51.8696 186.08 52.2996 186.15 52.7296C187.34 60.4496 188.19 68.2096 189 75.9696C189.52 81.5096 190.28 87.0296 191.06 92.5396C191.19 92.9896 191.02 93.8996 191.61 93.8296Z" fill="#F5DEC6"/>
<path d="M163.55 29.2398C164.32 28.4298 164.79 27.3498 164.93 26.2398C165.08 24.7398 164.18 23.3398 163.15 22.3298C162.14 21.3898 160.85 20.5898 159.43 20.6098C157.65 20.5398 155.44 21.4998 154.56 23.0998C153.78 24.6598 153.91 26.6098 154.68 28.1598C155.58 29.4698 157.03 30.4598 158.62 30.6798C158.87 30.7098 159.11 30.7198 159.35 30.7198C160.8 30.6398 162.49 30.2698 163.56 29.2298L163.55 29.2398ZM154.99 29.5898C154.47 29.0798 153.99 28.4998 153.76 27.7998C153.27 26.3798 153.18 24.8198 153.67 23.3998C154.15 21.9598 155.45 20.9698 156.81 20.4098C157.43 20.1798 158.07 19.9698 158.73 19.9398C159.1 19.7998 159.52 19.8998 159.9 19.9398C162.03 20.2298 163.89 21.7198 164.95 23.5498C165.78 24.9598 165.81 26.4998 165.16 27.9798C164.56 29.4698 163.46 30.4798 161.93 30.9398C159.35 31.8198 157 31.4898 154.99 29.5898Z" fill="#F5DEC6"/>
<path d="M159.109 20.4898C159.399 20.3198 159.249 19.9498 159.249 19.6798C159.219 19.3498 159.189 19.0198 159.159 18.6898C159.039 17.5099 158.889 16.3398 158.909 15.1498C158.899 14.0498 158.889 12.9598 158.879 11.8598C158.879 11.2198 158.879 10.5798 158.879 9.92984C158.879 9.73984 158.719 9.58984 158.529 9.58984C158.339 9.58984 158.189 9.74985 158.189 9.93985C158.189 12.0998 158.189 14.2698 158.259 16.4298C158.329 17.4198 158.459 18.3999 158.539 19.3899C158.559 19.6299 158.589 19.8698 158.609 20.1098C158.529 20.4098 158.889 20.6498 159.139 20.4698H159.119L159.109 20.4898Z" fill="#F5DEC6"/>
<path d="M163.46 65.67C162.38 58.14 161.69 50.58 161.26 42.98C161.03 39.08 160.65 35.11 160.67 31.22C160.83 30.76 160.16 30.52 160.01 30.99C159.97 31.18 159.97 31.39 159.96 31.59C160.05 35.77 160.38 39.96 160.65 44.13C160.95 48.66 161.21 53.19 161.76 57.69C162.07 60.37 162.42 63.05 162.78 65.73C162.83 66.15 163.5 66.14 163.46 65.67Z" fill="#F5DEC6"/>
<path d="M166.199 67.5597C166.749 66.8997 167.009 66.0397 166.939 65.1797C166.859 64.3297 166.439 63.5297 165.779 62.9797C165.119 62.4297 164.259 62.1697 163.399 62.2397C162.549 62.3197 161.749 62.7397 161.199 63.3997C160.649 64.0597 160.389 64.9197 160.459 65.7797C160.539 66.6297 160.959 67.4297 161.619 67.9797C162.279 68.5297 163.139 68.7897 163.999 68.7197C164.849 68.6397 165.649 68.2197 166.199 67.5597Z" fill="#F5DEC6"/>
<path d="M138.07 57.0701C140.26 56.5101 139.52 53.2701 137.3 53.7301C135.11 54.3101 135.85 57.5101 138.07 57.0701Z" fill="#F5DEC6"/>
<path d="M153.99 73.8599C153.9 72.9299 153.06 72.2199 152.12 72.3099C151.19 72.3999 150.48 73.2399 150.57 74.1799C150.66 75.1099 151.51 75.82 152.44 75.73C153.37 75.64 154.08 74.7999 153.99 73.8599Z" fill="#F5DEC6"/>
<path d="M177.63 71.8297C177.54 70.8997 176.7 70.1897 175.76 70.2797C174.83 70.3697 174.12 71.2097 174.21 72.1497C174.3 73.0797 175.15 73.7897 176.08 73.6997C177.01 73.6097 177.72 72.7697 177.63 71.8297Z" fill="#F5DEC6"/>
<path d="M187.03 52.6397C189.13 51.8097 187.94 48.6696 185.82 49.4296C183.72 50.2596 184.91 53.3997 187.03 52.6397Z" fill="#F5DEC6"/>
<path d="M137.209 103.1C137.099 103.2 136.979 103.34 137.059 103.49C137.079 103.52 137.099 103.54 137.129 103.56C137.129 103.63 137.169 103.7 137.249 103.73C137.569 103.79 137.899 103.86 138.229 103.84C138.229 103.84 138.259 103.84 138.269 103.83C138.679 103.83 139.089 103.78 139.499 103.74C141.089 103.61 142.869 102.77 143.309 101.12C143.509 100.33 143.529 99.4797 143.259 98.7097C142.849 97.0797 141.449 96.0097 139.809 95.8297C138.819 95.7297 137.569 95.7297 136.649 96.1497C136.459 96.2197 136.499 96.4597 136.649 96.4997C136.649 96.4997 136.669 96.5097 136.679 96.5197C137.269 96.8597 137.849 97.2497 138.359 97.7197C139.609 98.8697 140.189 100.38 138.909 101.76C138.529 102.18 138.119 102.57 137.609 102.82C137.459 102.9 137.329 103 137.209 103.13V103.1Z" fill="#FBE5B8"/>
<path d="M175.84 121.04C175.85 120.98 175.9 120.92 175.98 120.91C176.23 120.79 176.46 120.66 176.7 120.5C177.92 119.74 178.79 118.45 178.98 117.02C179.04 116.48 179.03 115.92 178.92 115.38C178.83 114.94 178.61 114.5 178.33 114.14C178.03 113.75 177.67 113.42 177.27 113.14C177.23 113.14 177.19 113.13 177.16 113.1C177 112.99 176.84 112.87 176.67 112.77C176.56 112.71 176.45 112.66 176.33 112.63C176.29 112.62 176.27 112.6 176.25 112.57C175.97 112.47 175.68 112.39 175.42 112.23C175.21 112.12 175.14 111.89 175.33 111.72C175.46 111.58 175.65 111.54 175.82 111.48C176.14 111.38 176.47 111.29 176.8 111.25C177.54 111.15 178.15 111.19 178.74 111.36C179.31 111.52 179.85 111.81 180.33 112.16C181.29 112.83 182.12 113.76 182.5 114.88C183.54 117.92 181.22 120.89 178.21 121.4C177.55 121.52 176.87 121.54 176.2 121.44C176.05 121.4 175.84 121.44 175.75 121.29C175.7 121.21 175.72 121.1 175.8 121.04C175.8 121.04 175.8 121.04 175.81 121.04H175.84ZM175.91 111.98C175.98 111.91 176.05 111.83 176.13 111.77C175.96 111.82 175.8 111.88 175.64 111.95C175.71 111.99 175.78 112.02 175.85 112.06C175.86 112.04 175.88 112.01 175.9 111.99L175.91 111.98Z" fill="#FBE5B8"/>
<path d="M151.67 115.3C151.52 115.37 151.41 115.53 151.44 115.7C151.52 116.07 151.93 116.22 152.21 116.42C152.95 116.88 153.72 117.27 154.46 117.7C154.15 119.19 153.63 120.67 153.63 122.2C153.71 122.5 154.13 122.54 154.28 122.27C154.51 121.86 154.97 121.64 155.31 121.32C156.01 120.7 156.66 120.03 157.34 119.38C158.11 119.84 158.89 120.29 159.62 120.82C159.85 120.95 160.07 121.28 160.36 121.11C160.59 121.46 161.12 121.17 160.96 120.79C160.45 119.75 159.88 118.73 159.33 117.7C160.02 117.18 160.68 116.62 161.29 116.02C161.47 115.82 161.72 115.66 161.82 115.4C161.96 114.85 161.37 114.88 161 114.86C159.9 114.78 158.8 114.72 157.7 114.78C157.34 114.21 156.41 112.22 155.8 112.1C155.55 112.07 155.37 112.28 155.36 112.52C155.25 113.32 155.16 114.13 155.01 114.93C154.24 114.99 153.49 115.07 152.72 115.14C152.38 115.19 152.01 115.18 151.68 115.3H151.67Z" fill="#F9D686"/>
<path d="M186.65 94.0196C185.77 94.9396 187.42 95.7196 188.08 96.1096C188.82 96.5096 189.56 96.8997 190.31 97.2897C190.13 98.7997 189.93 100.31 189.74 101.81C189.68 102.1 189.97 102.36 190.25 102.23C190.73 101.89 191.13 101.44 191.58 101.05C192.33 100.4 193.08 99.7496 193.79 99.0596C194.36 99.3596 194.93 99.6497 195.49 99.9497C195.9 100.18 196.33 100.39 196.72 100.68C196.97 100.89 197.37 100.59 197.25 100.3C197.3 99.9596 196.95 99.5896 196.82 99.2796C196.42 98.5696 195.98 97.8796 195.56 97.1796C196.49 96.1496 197.53 95.2096 198.44 94.1596C199.08 93.0796 197.05 93.4496 196.52 93.4596C195.45 93.5396 194.38 93.5697 193.32 93.6297C192.77 92.7897 192.23 91.9396 191.65 91.1096C191.51 90.9196 191.33 90.6396 191.05 90.6796C190.9 90.6996 190.79 90.8196 190.76 90.9696C190.68 91.8696 190.76 92.7796 190.71 93.6896C189.73 93.6896 188.76 93.7197 187.79 93.7897C187.42 93.8397 186.99 93.7897 186.67 94.0097L186.65 94.0196Z" fill="#F9D686"/>
<path d="M190.34 71.1798C190.95 68.9298 187.59 68.0898 187.1 70.3798C186.76 72.4098 189.69 73.1198 190.34 71.1798Z" fill="#F5DEC6"/>
<path d="M165.99 78.1597C165.91 77.2597 165.08 76.5797 164.18 76.6597C163.28 76.7397 162.6 77.5697 162.68 78.4697C162.76 79.3697 163.59 80.0497 164.49 79.9697C165.39 79.8897 166.07 79.0597 165.99 78.1597Z" fill="#F5DEC6"/>
<path d="M155.609 94.8697C155.529 93.9697 154.699 93.2897 153.799 93.3697C152.899 93.4497 152.219 94.2797 152.299 95.1797C152.379 96.0797 153.209 96.7597 154.109 96.6797C155.009 96.5997 155.689 95.7697 155.609 94.8697Z" fill="#F5DEC6"/>
<path d="M175.87 112.22C176.01 112.18 176.16 112.16 176.28 112.08C176.58 111.83 176.25 111.38 175.92 111.57C175.69 111.62 175.42 111.71 175.49 112.01C175.53 112.17 175.71 112.27 175.87 112.22Z" fill="#FBE5B8"/>
<path d="M135.13 73.3998C135.13 73.6898 135.42 73.8299 135.64 73.9499C136.08 74.1699 136.54 74.3698 136.99 74.5898C136.78 75.2998 136.56 76.0099 136.37 76.7299C136.21 77.0699 136.53 77.4098 136.85 77.1598C137.43 76.5998 138.04 76.0699 138.66 75.5399C139.18 75.8499 139.7 76.1499 140.23 76.4199C140.27 76.4399 140.3 76.4499 140.34 76.4499C140.5 76.5299 140.66 76.5598 140.84 76.4998C140.96 76.4498 141.05 76.3198 141.07 76.1898C141.1 76.0798 141.05 75.9698 140.98 75.8998C140.94 75.8198 140.9 75.7398 140.86 75.6598C140.63 75.2298 140.39 74.8099 140.13 74.3899C140.52 74.0799 140.93 73.7699 141.26 73.3899C141.47 73.1099 141.21 72.8198 140.91 72.8098C140.34 72.7798 139.77 72.8598 139.2 72.8398C138.84 72.2598 138.53 71.6398 138.15 71.0798C138.04 70.9698 137.88 70.9798 137.77 71.0598C137.66 71.0998 137.58 71.2098 137.56 71.3298C137.45 71.8298 137.38 72.3298 137.31 72.8398C136.73 72.8698 136.15 72.9198 135.57 73.0198C135.37 73.0398 135.14 73.1599 135.14 73.3899L135.13 73.3998Z" fill="#F9D686"/>
<path d="M174.679 87.2497C174.449 87.3097 174.189 87.4797 174.299 87.7597C174.409 87.9797 174.659 88.0997 174.849 88.2397C175.169 88.4697 175.499 88.6797 175.839 88.8797C175.699 89.4897 175.549 90.0997 175.399 90.7097C175.359 90.9097 175.259 91.1197 175.279 91.3297C175.309 91.4697 175.399 91.5697 175.549 91.5997C175.769 91.6297 175.899 91.4197 176.059 91.3197C176.619 90.8997 177.189 90.4797 177.749 90.0497C178.189 90.3197 178.639 90.5897 179.079 90.8597C179.339 91.0097 179.599 91.1697 179.869 91.2997C180.079 91.4097 180.359 91.5197 180.539 91.2997C180.649 91.1597 180.609 90.9597 180.579 90.7997C180.579 90.7697 180.559 90.7397 180.549 90.6997C180.579 90.6197 180.569 90.5297 180.529 90.4497C180.399 90.1997 180.249 89.9597 180.109 89.7097C180.009 89.5197 179.919 89.3297 179.829 89.1397C179.809 89.0897 179.769 89.0497 179.719 89.0297C179.689 88.9797 179.659 88.9297 179.629 88.8797C179.589 88.8097 179.549 88.7397 179.509 88.6697C179.829 88.4097 180.149 88.1697 180.479 87.9197C180.659 87.7597 180.909 87.6497 181.019 87.4297C181.069 87.3097 181.039 87.1897 180.949 87.0997C180.779 86.9297 180.519 86.9897 180.299 86.9797C179.689 86.9797 179.079 86.9797 178.479 86.9597C178.089 86.3297 177.709 85.6897 177.309 85.0697C177.209 84.9297 177.119 84.7197 176.919 84.6997H176.899C176.739 84.6397 176.529 84.6997 176.469 84.9497C176.289 85.6197 176.159 86.3097 176.039 86.9897C175.579 87.0297 175.119 87.1097 174.689 87.2797L174.679 87.2497Z" fill="#F9D686"/>
<path d="M160.32 93.7096C160.27 94.0596 160.28 94.4196 160.37 94.7696C160.55 96.2396 161.38 97.6397 162.58 98.4997C163.82 99.3697 165.44 99.5696 166.92 99.3296C168.21 99.0796 169.39 98.2597 170.15 97.1997C170.94 96.0897 171.15 94.6396 170.86 93.3296C170.64 92.2896 170.11 91.3396 169.39 90.5496C169.2 90.1796 168.83 89.9197 168.53 89.6397C167.61 88.8697 166.52 88.2797 165.28 88.3397C163.9 88.4597 162.55 89.1797 161.71 90.2797C161.52 90.5197 161.36 90.7897 161.23 91.0697C160.68 91.8397 160.41 92.7696 160.31 93.7096H160.32Z" fill="#E1E7F0"/>
<path d="M160.37 33.0396C159.47 33.1196 158.79 33.9496 158.87 34.8496C158.95 35.7496 159.78 36.4296 160.68 36.3496C161.58 36.2696 162.26 35.4396 162.18 34.5396C162.1 33.6396 161.27 32.9596 160.37 33.0396Z" fill="#E1E7F0"/>
<path d="M160.95 44.7198C160.05 44.7998 159.37 45.6298 159.45 46.5298C159.53 47.4298 160.36 48.1098 161.26 48.0298C162.16 47.9498 162.84 47.1198 162.76 46.2198C162.68 45.3198 161.85 44.6398 160.95 44.7198Z" fill="#E1E7F0"/>
<path d="M162.16 57.6197C161.26 57.6997 160.58 58.5297 160.66 59.4297C160.74 60.3297 161.57 61.0097 162.47 60.9297C163.37 60.8497 164.05 60.0197 163.97 59.1197C163.89 58.2197 163.06 57.5397 162.16 57.6197Z" fill="#E1E7F0"/>
<path d="M157.26 93.91C156.83 95.58 158.56 96.79 160.01 97.06C161.82 97.46 163.68 97.27 165.51 97.18C166.96 97.12 168.41 97.08 169.85 96.95C171.1 96.78 172.49 96.71 173.51 95.88C174.67 94.86 173.91 93.58 172.84 92.88C172.23 92.47 171.53 92.2 170.8 92.05C170.7 92.04 170.55 92 170.4 91.98C170.42 92.02 170.44 92.07 170.46 92.12C170.48 92.16 170.49 92.2 170.51 92.24C170.54 92.32 170.57 92.4 170.59 92.48C170.62 92.57 170.65 92.65 170.68 92.74C170.74 92.75 170.79 92.76 170.85 92.78C171.7 92.98 172.52 93.38 173.11 94.04C174.78 96.29 168.77 96.34 167.58 96.43C166.05 96.47 164.52 96.57 162.98 96.64C161.68 96.64 160.31 96.62 159.12 96.05C158.58 95.75 158.02 95.32 157.91 94.67C157.84 94.28 157.95 93.87 158.23 93.6C158.41 93.43 158.59 93.22 158.84 93.16C159.36 92.97 159.91 93.01 160.45 93.06C160.45 93.03 160.46 93 160.47 92.97C160.5 92.84 160.53 92.72 160.56 92.6C160.58 92.53 160.6 92.46 160.63 92.39C160.47 92.38 160.31 92.36 160.15 92.35C158.92 92.2 157.66 92.67 157.26 93.93V93.91Z" fill="#94BEE4"/>
<path d="M115.921 14.4299C129.151 12.1899 188.611 3.54988 236.341 41.1599C299.451 90.8899 305.711 192.81 261.551 253.3C217.111 314.18 134.271 315.18 109.921 315.47C65.3706 316 30.1006 303.23 9.49057 293.82C8.77057 295.58 9.78056 296.46 10.6406 297.31C46.9206 332.93 64.6406 377.78 74.8506 426.37C85.6606 477.85 83.6806 580.25 83.2506 588.97C83.1906 590.23 82.8605 595.56 85.7705 597.43C86.8205 598.1 87.5405 597.84 92.5805 598.09C97.7005 598.34 98.1506 598.67 99.1606 598.24C102.921 596.65 103.271 589.41 103.351 587.33C105.191 538.74 100.351 456.52 131.281 419.87C149.881 397.84 178.071 396.22 181.481 396.08C205.101 395.09 232.021 407.28 246.721 428.62C274.401 468.81 272.951 561.89 274.061 573.54C274.171 574.66 274.671 578.8 277.321 580.58C277.751 580.87 278.481 581.16 284.221 581.19C289.081 581.21 289.631 580.99 290.031 580.76C293.171 578.96 292.971 573.11 292.961 572.11C292.881 563.69 302.661 464.93 316.901 325.38C325.351 232.76 330.911 167.17 331.051 151.75C331.051 151.17 331.211 148.09 332.701 144.53C338.111 131.55 363.491 123.29 376.081 132.25C381.301 135.96 383.551 142.95 388.051 156.91C392.041 169.29 392.421 176.31 394.261 176.32C396.471 176.34 397.091 166.17 402.481 146.41C405.961 133.64 407.701 127.26 409.511 123.04C411.731 117.87 416.291 108.44 415.831 99.4099C415.731 97.5199 415.361 94.6099 413.261 92.7599C411.871 91.5399 409.841 91.0099 406.911 91.0499C395.881 91.2099 350.091 93.8899 324.151 79.4499C319.661 76.9499 317.621 74.9799 311.761 70.0399C289.011 50.8699 246.561 11.9999 208.941 3.51987C195.171 0.419865 160.811 -4.94011 115.921 14.4199V14.4299Z" fill="#F8E39A"/>
<path d="M137.07 229.39C143.93 233.13 149.4 240.05 154.13 245.64C159.07 251.47 166.64 258.42 166.93 265.85C167.44 278.91 158.83 291.08 149.84 297.59C143.54 302.15 146.64 326.57 139.15 329.32C130.8 332.39 116.9 326.71 109.53 323.59C100.35 319.7 90.92 311.77 83.61 304.98C74.14 296.18 65.1 275.82 67.81 263.05C71.63 245.02 124.21 222.36 137.07 229.39Z" fill="#F5DDBE"/>
<path d="M108.96 324.95C99.0299 320.74 89.1699 312.16 82.6199 306.06C72.7999 296.93 63.5699 276.02 66.3799 262.74C67.8999 255.58 76.7299 247.09 90.6099 239.44C102.93 232.65 117.28 227.67 127.17 226.75C131.81 226.32 135.38 226.77 137.79 228.08C144.29 231.63 149.46 237.76 154.01 243.18L155.27 244.67C156.12 245.67 157.05 246.71 158.01 247.78C162.77 253.09 168.16 259.11 168.42 265.77C168.99 280.25 159.24 292.59 150.73 298.76C148.27 300.54 147.37 307.23 146.58 313.13C145.49 321.25 144.47 328.93 139.68 330.69C138.46 331.14 137.09 331.43 135.61 331.57C127.67 332.3 117.69 328.63 108.98 324.93L108.96 324.95ZM69.2499 263.36C66.6699 275.52 75.5499 295.49 84.6099 303.91C94.6299 313.23 102.97 319.22 110.1 322.25C115.17 324.4 127.04 329.44 135.31 328.67C136.54 328.56 137.66 328.32 138.64 327.96C141.76 326.81 142.76 319.35 143.64 312.77C144.59 305.66 145.49 298.93 148.98 296.41C157.53 290.21 165.95 278.38 165.46 265.91C165.24 260.3 160.23 254.7 155.8 249.77C154.82 248.68 153.87 247.62 153.01 246.6L151.74 245.1C147.35 239.88 142.38 233.97 136.36 230.69C134.51 229.68 131.42 229.34 127.42 229.7C106.86 231.6 72.0799 249.99 69.2399 263.36H69.2499Z" fill="#F2C596"/>
<path d="M186.68 285.13C194.82 297.95 210.97 308.36 218.66 300.8C222.59 296.93 225.41 290.47 226.21 285.08C227.34 277.5 222.09 274.29 216.53 270.19C209.44 264.96 197.96 253 188.29 259.11C179.04 264.96 180.7 275.7 186.69 285.14L186.68 285.13Z" fill="#F5DDBE"/>
<path d="M185.44 285.92C181.17 279.19 179.48 272.53 180.68 267.17C181.55 263.3 183.84 260.17 187.5 257.85C189.18 256.79 191.01 256.16 192.93 255.98C200.37 255.29 207.77 261.28 213.72 266.1C215.04 267.17 216.29 268.18 217.4 269L218.53 269.83C223.83 273.7 228.85 277.35 227.67 285.29C226.75 291.49 223.62 297.99 219.7 301.84C217.96 303.55 215.8 304.53 213.27 304.77C203.9 305.64 191.76 295.87 185.45 285.92H185.44ZM189.07 260.34C186.1 262.22 184.24 264.73 183.55 267.81C182.52 272.4 184.07 278.27 187.92 284.34C194.48 294.66 205.72 302.51 212.99 301.84C214.83 301.67 216.39 300.97 217.63 299.75C221.07 296.37 223.93 290.39 224.75 284.86C225.67 278.68 221.75 275.82 216.79 272.2L215.65 271.36C214.48 270.5 213.21 269.47 211.87 268.38C206.34 263.9 199.45 258.33 193.2 258.91C191.72 259.05 190.37 259.51 189.07 260.34Z" fill="#F2C596"/>
<path d="M212.12 292.34C217.21 284.46 220.91 275.02 230.66 271.84C240.41 268.66 248.25 276.91 247.26 282.8C245.59 292.7 227.71 305.92 221.09 308.61C214.47 311.3 205.16 303.12 212.11 292.34H212.12Z" fill="#F5DDBE"/>
<path d="M209.75 305.54C207.32 301.52 207.73 296.42 210.88 291.54C211.84 290.05 212.77 288.47 213.67 286.94C217.66 280.17 221.78 273.18 230.2 270.43C235.81 268.6 241.69 270.12 245.55 274.28C248 276.92 249.18 280.19 248.71 283.03C246.95 293.49 228.82 307.04 221.64 309.96C220.87 310.27 220.06 310.47 219.22 310.55C215.52 310.89 211.8 308.92 209.75 305.54ZM231.11 273.23C223.75 275.63 220.09 281.85 216.2 288.43C215.28 289.99 214.34 291.59 213.35 293.13C209.9 298.47 211.19 302.24 212.27 304.01C213.72 306.4 216.41 307.85 218.96 307.62C219.51 307.57 220.04 307.44 220.54 307.24C227.3 304.49 244.31 291.48 245.81 282.55C246.13 280.63 245.21 278.23 243.4 276.28C240.95 273.64 237.48 272.31 233.9 272.64C232.98 272.73 232.04 272.92 231.11 273.23Z" fill="#F2C596"/>
<path d="M101.9 317.37C102.67 314.21 158.6 273.56 168.68 245.76C172.05 236.47 191.9 260.52 194.2 265.39C197.98 273.39 201.81 282.55 200.37 291.31C198.87 300.39 195.23 306.32 189.19 312.59C184.99 316.95 180.66 321.25 175.67 324.74C163.21 333.46 143.72 334.97 129.25 333.32C121.16 332.39 100.2 324.39 101.9 317.37Z" fill="white"/>
<path d="M129.081 334.78C122.201 333.99 106.161 328.34 101.621 321.84C100.481 320.21 100.101 318.59 100.471 317.02C100.761 315.82 102.511 314.25 111.321 306.75C128.341 292.27 160.021 265.31 167.291 245.26C167.951 243.44 169.251 242.35 170.951 242.2C178.591 241.49 193.711 260.94 195.521 264.76C199.361 272.89 203.331 282.33 201.811 291.55C200.391 300.17 197.041 306.56 190.241 313.61C186.361 317.64 181.771 322.25 176.501 325.94C167.731 332.07 156.381 334.24 148.411 334.98C142.071 335.57 135.391 335.49 129.081 334.77V334.78ZM170.061 246.26C162.521 267.05 130.451 294.33 113.231 308.99C108.501 313.02 104.021 316.82 103.301 317.84C103.181 318.52 103.421 319.28 104.031 320.14C107.891 325.66 123.011 331.11 129.421 331.84C135.531 332.54 142.011 332.61 148.151 332.04C155.771 331.33 166.591 329.28 174.831 323.52C179.891 319.98 184.351 315.49 188.141 311.56C194.571 304.89 197.591 299.14 198.921 291.06C200.301 282.68 196.521 273.74 192.871 266.01C190.791 261.62 176.491 244.63 171.231 245.12C170.961 245.15 170.451 245.19 170.061 246.26Z" fill="#D9E7EF"/>
<path d="M123.49 317.83C123.92 317.79 124.33 317.57 124.58 317.18C125.03 316.5 124.85 315.59 124.17 315.14C121.88 313.62 117.46 309.8 115.57 307.7C115.03 307.1 114.1 307.05 113.49 307.59C112.89 308.13 112.84 309.06 113.38 309.67C115.47 311.98 120 315.91 122.53 317.59C122.82 317.78 123.16 317.86 123.48 317.83H123.49Z" fill="#D8E9F1"/>
<path d="M110.391 328.09C110.591 328.07 110.791 328.01 110.981 327.91C156.561 302.11 180.611 249.11 180.841 248.58C181.171 247.84 180.841 246.97 180.101 246.64C179.361 246.31 178.491 246.64 178.161 247.38C177.931 247.9 154.261 300.03 109.531 325.35C108.821 325.75 108.571 326.65 108.971 327.36C109.261 327.88 109.831 328.15 110.391 328.1V328.09Z" fill="#D8E9F1"/>
<path d="M176.54 256.24C176.96 256.2 177.36 255.98 177.6 255.59C178.02 254.93 177.83 254.06 177.17 253.64C174.94 252.22 171.59 249.41 169.85 247.5C169.32 246.92 168.43 246.88 167.85 247.41C167.27 247.94 167.23 248.83 167.76 249.41C169.67 251.51 173.21 254.48 175.65 256.03C175.92 256.21 176.24 256.27 176.54 256.25V256.24Z" fill="#D8E9F1"/>
<path d="M171.381 264.24C171.801 264.2 172.201 263.97 172.451 263.59C172.871 262.93 172.671 262.06 172.021 261.64C169.791 260.22 166.441 257.41 164.711 255.5C164.191 254.92 163.291 254.88 162.711 255.41C162.131 255.94 162.091 256.83 162.621 257.41C164.531 259.51 168.061 262.48 170.511 264.03C170.791 264.2 171.101 264.27 171.401 264.25L171.381 264.24Z" fill="#D8E9F1"/>
<path d="M166.801 270.21C167.221 270.17 167.621 269.94 167.871 269.56C168.291 268.9 168.091 268.03 167.441 267.61C165.271 266.23 161.111 262.72 159.341 260.78C158.821 260.2 157.921 260.16 157.341 260.69C156.761 261.22 156.721 262.11 157.251 262.69C159.221 264.85 163.511 268.47 165.921 270.01C166.201 270.18 166.511 270.25 166.811 270.23L166.801 270.21Z" fill="#D8E9F1"/>
<path d="M162.441 277.7C162.871 277.66 163.281 277.44 163.531 277.05C163.981 276.37 163.801 275.46 163.121 275.01C160.981 273.59 156.881 269.98 154.851 267.72C154.311 267.12 153.381 267.07 152.771 267.61C152.171 268.15 152.121 269.08 152.661 269.69C154.641 271.88 158.921 275.75 161.491 277.46C161.781 277.65 162.121 277.73 162.441 277.7Z" fill="#D8E9F1"/>
<path d="M158.42 283.97C158.85 283.93 159.26 283.71 159.51 283.32C159.96 282.64 159.78 281.73 159.1 281.28C156.96 279.86 152.86 276.25 150.83 273.99C150.29 273.39 149.36 273.34 148.75 273.88C148.15 274.42 148.1 275.35 148.64 275.96C150.62 278.15 154.9 282.02 157.47 283.73C157.76 283.92 158.1 284 158.42 283.97Z" fill="#D8E9F1"/>
<path d="M151.76 291.08C152.19 291.04 152.6 290.82 152.85 290.43C153.3 289.75 153.12 288.84 152.44 288.39C150.3 286.97 146.2 283.36 144.17 281.1C143.63 280.5 142.7 280.45 142.09 280.99C141.49 281.53 141.44 282.46 141.98 283.07C143.96 285.26 148.24 289.13 150.81 290.84C151.1 291.03 151.44 291.11 151.76 291.08Z" fill="#D8E9F1"/>
<path d="M145.871 298.65C146.161 298.62 146.451 298.51 146.691 298.3C147.311 297.77 147.371 296.84 146.841 296.23C144.561 293.58 139.571 288.94 137.481 287.52C136.811 287.06 135.891 287.24 135.441 287.91C134.981 288.58 135.161 289.5 135.831 289.95C137.731 291.24 142.501 295.69 144.621 298.15C144.941 298.52 145.411 298.7 145.871 298.65Z" fill="#D8E9F1"/>
<path d="M137.531 304.59C137.821 304.56 138.111 304.45 138.351 304.24C138.971 303.71 139.041 302.78 138.511 302.17C136.231 299.52 131.241 294.88 129.151 293.45C128.481 292.99 127.561 293.17 127.111 293.84C126.651 294.51 126.831 295.43 127.501 295.88C129.411 297.18 134.171 301.62 136.291 304.08C136.611 304.46 137.091 304.63 137.541 304.59H137.531Z" fill="#D8E9F1"/>
<path d="M131.381 311.2C131.811 311.16 132.221 310.93 132.471 310.55C132.921 309.87 132.731 308.96 132.061 308.51C129.811 307.02 124.991 302.82 123.021 300.63C122.481 300.03 121.551 299.98 120.941 300.52C120.341 301.06 120.291 301.99 120.831 302.6C122.961 304.97 127.991 309.34 130.431 310.97C130.721 311.16 131.061 311.24 131.381 311.21V311.2Z" fill="#D8E9F1"/>
<path d="M116.22 324.75C116.65 324.71 117.06 324.49 117.31 324.1C117.76 323.42 117.58 322.51 116.9 322.06C114.78 320.65 110.24 315.76 108.93 313.48C108.53 312.78 107.63 312.53 106.92 312.94C106.22 313.34 105.97 314.24 106.38 314.95C107.9 317.6 112.8 322.87 115.27 324.51C115.56 324.7 115.9 324.78 116.22 324.75Z" fill="#D8E9F1"/>
<path d="M21.41 227.78C21.41 227.78 -0.190009 228.01 7.57999 248.71C13.61 264.79 34.39 263.09 40.85 254.21L21.4 227.78H21.41Z" fill="#F5DDBE"/>
<path d="M6.21031 249.23C3.79031 242.79 3.8403 237.5 6.3403 233.51C10.7903 226.4 21.4003 226.31 21.4003 226.31C21.8703 226.31 22.3203 226.53 22.6003 226.91L42.0503 253.34C42.4303 253.86 42.4303 254.56 42.0503 255.08C39.1903 259.01 33.8903 261.69 27.8703 262.25C20.0303 262.98 10.2303 259.94 6.21031 249.23ZM20.7003 229.29C18.4303 229.47 11.7703 230.39 8.83031 235.07C6.84031 238.24 6.8903 242.66 8.9703 248.19C12.4003 257.34 20.8503 259.93 27.6003 259.31C32.2603 258.88 36.5203 256.94 39.0103 254.17L20.7003 229.29Z" fill="#F2C596"/>
<path d="M126.4 174.29C126.4 174.29 136.79 155.35 151.38 171.97C162.71 184.87 151.42 202.39 140.54 203.91L126.4 174.29Z" fill="#F5DDBE"/>
<path d="M139.211 204.54L125.071 174.92C124.871 174.49 124.88 173.99 125.11 173.58C125.32 173.21 130.201 164.47 138.291 163.72C143.081 163.28 147.861 165.73 152.49 171C157.541 176.75 158.89 184.19 156.211 191.41C153.491 198.74 147.131 204.48 140.751 205.36C140.731 205.36 140.701 205.36 140.681 205.36C140.071 205.42 139.481 205.09 139.221 204.53L139.211 204.54ZM128.071 174.38L141.381 202.25C146.321 201.05 151.281 196.23 153.451 190.39C154.801 186.76 156.181 179.67 150.281 172.95C146.301 168.43 142.361 166.31 138.561 166.66C133.151 167.16 129.261 172.53 128.071 174.38Z" fill="#F2C596"/>
<path d="M156.97 203.26C156.89 197.75 155.27 192.15 151.6 186.61C148.86 182.47 144.81 180.25 141.63 176.42C132.28 165.19 126.84 151.98 115.02 142.6C104 133.86 90.4603 129.88 76.4703 131.37C45.4503 134.66 16.6003 159.27 9.74035 185.06C5.04035 202.7 10.1403 215.24 18.3203 230.97C23.6003 241.13 30.2403 252.77 38.8403 260.76C59.4603 279.92 104.34 269.25 124.31 256C140.38 245.34 157.29 223.6 156.97 203.25V203.26Z" fill="#F5DDBE"/>
<path d="M37.8301 261.84C29.1001 253.73 22.41 242.03 17.01 231.65C9.06005 216.38 3.38005 203.22 8.31005 184.68C15.6101 157.24 45.48 133.18 76.3 129.91L77.0601 129.83C91.0401 128.54 104.84 132.66 115.91 141.45C123.55 147.51 128.63 155.21 133.55 162.65C136.39 166.95 139.33 171.4 142.73 175.48C144.04 177.06 145.56 178.39 147.04 179.69C149.06 181.46 151.15 183.3 152.8 185.8C156.43 191.29 158.32 197.16 158.41 203.24C158.73 223.97 141.89 246.09 125.09 257.24C113.58 264.87 95.66 270.77 79.43 272.28C66.81 273.45 49.3501 272.59 37.8001 261.85L37.8301 261.84ZM76.62 132.83C47.41 135.93 18.0501 159.53 11.1601 185.44C6.50006 202.96 11.98 215.59 19.62 230.29C24.9 240.44 31.4301 251.87 39.8301 259.68C50.5801 269.67 67.16 270.44 79.18 269.33C94.97 267.87 112.36 262.15 123.49 254.77C144.81 240.63 155.72 218.16 155.49 203.27C155.41 197.76 153.68 192.43 150.37 187.41C148.93 185.23 147.08 183.61 145.12 181.89C143.56 180.52 141.95 179.11 140.49 177.36C136.98 173.15 134 168.63 131.11 164.27C126.1 156.69 121.36 149.52 114.09 143.76C103.61 135.45 90.5601 131.54 77.34 132.76L76.62 132.83Z" fill="#F2C596"/>
<path d="M15.1303 246.47C15.4303 246.44 15.7203 246.32 15.9603 246.11C18.5103 243.88 22.7303 241.53 26.9703 241.66C27.7903 241.69 28.4603 241.04 28.4803 240.23C28.5003 239.42 27.8603 238.74 27.0503 238.72C22.7303 238.6 17.8603 240.53 14.0203 243.9C13.4103 244.43 13.3503 245.36 13.8803 245.98C14.2003 246.35 14.6703 246.52 15.1203 246.48L15.1303 246.47Z" fill="#F2C596"/>
<path d="M59.6705 149.38C59.6705 149.38 59.9505 149.28 60.4605 149.09C60.9505 148.87 61.7705 148.72 62.6205 148.26C63.0605 148.06 63.5405 147.84 64.0605 147.59C64.5705 147.31 65.1105 147 65.6905 146.67C66.2605 146.33 66.8205 145.9 67.4305 145.49C68.0305 145.06 68.5805 144.5 69.2005 144.02C70.2905 142.88 71.4905 141.63 72.3405 140.08C72.8405 139.35 73.1305 138.49 73.5305 137.67C73.7905 136.8 74.1505 135.94 74.2705 134.99C74.6705 133.15 74.7205 131.16 74.3105 129.16C74.2105 128.14 73.7705 127.18 73.4905 126.17L72.8205 124.73L72.6505 124.37L72.5705 124.18L72.5305 124.09V124.07C72.6405 124.26 72.5405 124.11 72.5705 124.14L72.5405 124.09L72.0705 123.37C71.0605 121.9 69.1505 120.68 67.2705 119.99C65.3405 119.29 63.2405 119.11 61.4005 119.54C59.5305 119.92 58.1205 121.19 57.3805 122.75C56.5805 124.38 56.4805 126.1 56.9205 127.62C57.3205 129.15 58.2905 130.35 59.3405 131.12C60.3905 131.9 61.5305 132.25 62.4705 132.39C63.4205 132.48 64.2005 132.42 64.7005 132.31C65.2105 132.2 65.4905 132.14 65.4905 132.14H65.5105C65.6105 132.11 65.7005 132.18 65.7205 132.27C65.7405 132.36 65.6805 132.46 65.6005 132.48C65.6005 132.48 65.3205 132.57 64.7905 132.72C64.2705 132.87 63.4605 133.01 62.4105 132.99C61.3805 132.92 60.0905 132.64 58.8405 131.85C57.6005 131.07 56.3705 129.78 55.7405 128.01C55.3805 127.14 55.2705 126.16 55.2305 125.15C55.2805 124.65 55.2805 124.04 55.4005 123.6L55.5505 122.89C55.6405 122.55 55.7405 122.37 55.8405 122.09C56.5805 120.04 58.5105 118.16 60.8505 117.55C63.1605 116.88 65.6605 116.97 68.0105 117.67C70.3505 118.42 72.6305 119.54 74.4005 121.75L74.9205 122.43L74.9505 122.47L75.0505 122.62L75.1005 122.71L75.2105 122.91L75.4305 123.31L76.3105 124.92C76.7405 126.06 77.3205 127.17 77.5705 128.39C78.2905 130.76 78.3205 133.31 77.9205 135.66C77.5105 138.03 76.5005 140.18 75.2405 141.93C74.0405 143.75 72.4705 145.08 71.0105 146.21C69.4905 147.25 67.9805 148 66.6105 148.53C65.9105 148.75 65.2605 148.96 64.6605 149.15C64.0405 149.29 63.4505 149.37 62.9405 149.47C61.9105 149.69 61.1405 149.65 60.5905 149.7C60.0505 149.72 59.7605 149.73 59.7605 149.73C59.6605 149.73 59.5805 149.65 59.5805 149.55C59.5805 149.47 59.6305 149.4 59.6905 149.38H59.6705Z" fill="#744C2D"/>
<path d="M103.59 203.2C106.42 200.02 95.5802 190.82 94.8802 191.28C94.1902 191.73 99.5102 207.8 103.59 203.2Z" fill="#F2C596"/>
<path d="M147.26 212.64C144.94 214.26 141.98 215.16 138.97 214.42C131.97 212.72 126.94 206.24 128.68 199.09C129.96 193.84 134.61 190.22 139.64 189.18C142.45 188.61 144.58 189.05 147.11 191.09C154.61 197.15 154.11 207.9 147.27 212.64H147.26Z" fill="#F2C596"/>
<path d="M70.2507 216.75C70.4707 216.72 70.6907 216.64 70.8907 216.5C71.5607 216.03 71.7207 215.12 71.2507 214.45C68.9407 211.15 68.9807 207.7 70.4707 206.65C71.9507 205.61 75.2207 206.74 77.5407 210.04C78.0107 210.7 78.9207 210.87 79.5907 210.4C80.2607 209.93 80.4107 209.02 79.9507 208.35C76.8007 203.87 71.9007 202.06 68.7807 204.25C65.6707 206.43 65.7007 211.66 68.8407 216.14C69.1707 216.61 69.7207 216.83 70.2507 216.75Z" fill="#744C2D"/>
<path d="M115.12 189.4C115.34 189.37 115.56 189.29 115.76 189.15C116.43 188.69 116.59 187.77 116.13 187.1C113.84 183.79 113.9 180.33 115.39 179.3C116.88 178.26 120.14 179.42 122.44 182.72C122.9 183.39 123.82 183.55 124.49 183.09C125.16 182.63 125.32 181.71 124.86 181.04C121.73 176.54 116.84 174.71 113.71 176.88C110.59 179.04 110.59 184.27 113.71 188.77C114.04 189.24 114.59 189.46 115.12 189.39V189.4Z" fill="#744C2D"/>
<path d="M102.221 222.15C104.261 221.57 106.081 222.78 107.891 223.5C110.431 224.51 113.101 224.87 115.961 224.69C120.011 224.43 127.641 220.34 125.071 228.75C124.021 232.21 118.401 247.21 114.611 247.26C112.881 247.28 112.321 243.98 111.551 242.65C108.811 237.92 105.361 236.56 101.071 234.66C97.3311 233.01 96.2611 226.04 100.811 222.84C101.291 222.5 101.761 222.28 102.221 222.15Z" fill="#A2CAE7"/>
<path d="M114.631 248.74C112.351 248.77 111.421 246.3 110.811 244.66C110.631 244.17 110.441 243.67 110.281 243.4C107.891 239.27 105.001 238 100.991 236.25L100.481 236.02C98.2507 235.03 96.6807 232.62 96.3907 229.72C96.0707 226.47 97.4007 223.45 99.9607 221.65C100.561 221.23 101.181 220.93 101.811 220.75C103.921 220.14 105.791 220.97 107.371 221.69C107.721 221.85 108.071 222.01 108.421 222.15C110.701 223.06 113.131 223.42 115.851 223.24H116.021C116.801 223.15 117.761 222.93 118.781 222.69C119.911 222.43 121.081 222.15 122.171 222.05C122.871 221.99 124.991 221.79 126.231 223.31C127.241 224.55 127.311 226.42 126.471 229.19C126.411 229.38 120.441 248.22 114.851 248.73C114.851 248.73 114.661 248.74 114.621 248.74H114.631ZM119.461 225.55C118.391 225.8 117.281 226.06 116.301 226.15L116.041 226.17C112.881 226.37 110.031 225.95 107.341 224.87C106.951 224.71 106.561 224.54 106.161 224.36C104.891 223.79 103.751 223.24 102.611 223.57C102.301 223.66 101.971 223.82 101.651 224.05C99.9707 225.24 99.0907 227.25 99.3107 229.43C99.4907 231.25 100.411 232.78 101.661 233.33L102.171 233.55C106.341 235.38 109.951 236.96 112.821 241.92C113.101 242.4 113.321 242.99 113.561 243.62C113.801 244.25 114.281 245.53 114.631 245.79C116.721 245.46 121.711 234.73 123.661 228.32C124.421 225.83 124.011 225.22 123.961 225.16C123.921 225.11 123.651 224.86 122.451 224.97C121.561 225.05 120.501 225.3 119.461 225.54V225.55Z" fill="#80BCE2"/>
<path d="M146.511 222.87C146.511 222.87 131.021 216.55 123.451 221.91C109.681 231.64 107.001 247.92 114.301 254.36C123.861 262.8 130.231 260.74 130.231 260.74L146.511 222.87Z" fill="#A2CAE7"/>
<path d="M113.331 255.46C110.201 252.7 108.631 248.37 108.911 243.26C109.361 234.87 114.481 226.44 122.601 220.7C124.421 219.41 126.751 218.63 129.541 218.37C137.491 217.63 146.681 221.34 147.071 221.5C147.431 221.65 147.731 221.94 147.871 222.3C148.021 222.67 148.021 223.08 147.871 223.44L131.591 261.31C131.421 261.7 131.091 262 130.691 262.13C130.601 262.16 130.131 262.3 129.331 262.38C126.581 262.63 120.841 262.07 113.331 255.45V255.46ZM144.551 223.71C141.761 222.74 135.321 220.8 129.811 221.31C127.551 221.52 125.691 222.13 124.301 223.11C117.021 228.25 112.251 236.04 111.851 243.43C111.621 247.62 112.841 251.11 115.281 253.26C122.391 259.53 127.471 259.7 129.201 259.45L144.561 223.72L144.551 223.71Z" fill="#80BCE2"/>
<path d="M133.52 259.92C133.98 259.88 134.4 259.79 134.79 259.65C135.55 259.37 135.94 258.52 135.66 257.76C135.38 257 134.52 256.61 133.77 256.89C132.09 257.53 127.18 255.76 124.24 254.71C123.07 254.29 122.03 253.92 121.22 253.68C117.75 252.66 114.03 250.01 112.44 248.88C111.78 248.41 110.86 248.56 110.39 249.23C109.92 249.89 110.08 250.81 110.74 251.28C112.45 252.49 116.45 255.34 120.4 256.5C121.17 256.72 122.16 257.08 123.26 257.47C127.5 258.98 131.04 260.14 133.54 259.91L133.52 259.92Z" fill="#80BCE2"/>
<path d="M144.19 231.1C144.39 231.08 144.58 231.02 144.77 230.92C145.48 230.53 145.74 229.63 145.34 228.92C143.8 226.14 138.65 223.95 133.31 221.98C130.82 221.06 129.59 220.73 128.61 220.46C128.08 220.32 127.62 220.19 127.03 219.99C126.26 219.72 125.42 220.13 125.16 220.89C124.89 221.66 125.3 222.5 126.06 222.76C126.72 222.99 127.24 223.13 127.84 223.29C128.77 223.54 129.92 223.85 132.29 224.73C134.82 225.66 141.54 228.13 142.76 230.34C143.05 230.87 143.62 231.14 144.18 231.09L144.19 231.1Z" fill="#80BCE2"/>
<path d="M143.411 236.26C143.901 236.21 144.351 235.93 144.591 235.46C144.961 234.74 144.661 233.85 143.941 233.48C143.071 233.04 142.211 232.6 141.361 232.16C138.251 230.55 135.321 229.04 131.931 227.79C130.591 227.3 129.431 226.83 128.331 226.38C125.931 225.41 123.661 224.5 120.521 223.72C119.731 223.53 118.931 224.01 118.741 224.79C118.541 225.58 119.021 226.38 119.811 226.57C122.751 227.3 124.831 228.14 127.231 229.1C128.361 229.55 129.551 230.03 130.911 230.54C134.121 231.72 136.981 233.2 140.011 234.76C140.871 235.2 141.731 235.65 142.611 236.09C142.871 236.22 143.141 236.27 143.411 236.24V236.26Z" fill="#80BCE2"/>
<path d="M141.25 241.6C141.8 241.55 142.29 241.19 142.49 240.65C142.77 239.89 142.38 239.04 141.62 238.76C139.57 238 137.55 237.09 135.58 236.2C133.55 235.28 131.44 234.33 129.26 233.53C126.93 232.67 124.86 232.02 122.87 231.39C120.91 230.77 118.89 230.13 116.64 229.3C115.87 229.02 115.03 229.41 114.75 230.17C114.47 230.93 114.86 231.78 115.62 232.06C117.94 232.92 119.99 233.57 121.98 234.19C123.94 234.81 125.97 235.45 128.24 236.29C130.33 237.06 132.38 237.99 134.37 238.89C136.38 239.8 138.45 240.73 140.59 241.52C140.8 241.6 141.02 241.63 141.24 241.61L141.25 241.6Z" fill="#80BCE2"/>
<path d="M138.811 248.84C139.201 248.8 139.581 248.61 139.841 248.27C140.341 247.63 140.221 246.7 139.571 246.21C139.011 245.78 138.431 245.46 137.861 245.15C137.391 244.89 136.941 244.65 136.551 244.36C135.501 243.58 134.331 242.97 133.211 242.42C131.091 241.38 128.891 240.55 126.821 239.79C124.741 239.02 122.681 238.11 120.691 237.22C118.301 236.16 115.831 235.06 113.261 234.18C112.491 233.92 111.651 234.33 111.391 235.1C111.131 235.87 111.541 236.71 112.311 236.97C114.761 237.81 117.171 238.88 119.501 239.91C121.531 240.81 123.641 241.75 125.801 242.55C127.801 243.29 129.921 244.09 131.921 245.06C132.911 245.54 133.941 246.08 134.801 246.72C135.351 247.12 135.901 247.43 136.451 247.72C136.941 247.99 137.401 248.24 137.781 248.53C138.091 248.77 138.461 248.86 138.811 248.83V248.84Z" fill="#80BCE2"/>
<path d="M136.39 254.06C136.95 254.01 137.45 253.64 137.65 253.07C137.91 252.3 137.5 251.46 136.73 251.2C134.49 250.43 132.29 249.45 130.16 248.5C128.3 247.67 126.37 246.81 124.38 246.07C123.48 245.74 122.4 245.33 121.25 244.89C116.29 243 112.65 241.65 111.03 241.42C110.22 241.3 109.48 241.87 109.37 242.68C109.26 243.49 109.82 244.23 110.63 244.34C112.05 244.53 116.76 246.33 120.2 247.64C121.36 248.08 122.45 248.5 123.36 248.83C125.26 249.53 127.14 250.37 128.96 251.18C131.15 252.16 133.41 253.17 135.78 253.98C135.98 254.05 136.19 254.07 136.39 254.05V254.06Z" fill="#80BCE2"/>
<path d="M123.361 248.53C122.071 255.29 127.021 262.07 134.201 267.25C138.521 270.36 142.621 272.81 147.561 274.98C154.281 277.93 160.641 281.69 167.271 284.85C173.531 287.83 181.431 292.17 188.611 291.76C199.061 291.16 204.941 277.82 208.511 269.67C215.471 253.81 207.881 244.18 204.071 242.51C196.221 239.07 188.331 235.74 180.441 232.41C170.611 228.26 159.891 222.88 149.091 222.08C134.781 221.02 126.001 234.7 123.361 248.53Z" fill="white"/>
<path d="M188.691 293.23C181.931 293.61 174.631 290.06 168.771 287.21C168.041 286.85 167.331 286.51 166.641 286.18C163.801 284.83 160.981 283.34 158.251 281.91C154.591 279.99 150.801 278 146.981 276.33C142.231 274.24 138.021 271.81 133.351 268.45C124.811 262.3 120.651 254.94 121.921 248.26C124.201 236.32 131.761 221.93 145.581 220.65C146.761 220.54 147.981 220.53 149.201 220.62C158.571 221.31 167.641 225.26 176.411 229.07C177.961 229.75 179.501 230.41 181.011 231.05L182.481 231.67C189.761 234.75 197.291 237.93 204.661 241.16C208.681 242.93 217.391 253.1 209.861 270.26C206.271 278.45 200.261 292.16 189.191 293.19C189.031 293.21 188.861 293.22 188.691 293.23ZM124.811 248.8C123.761 254.3 127.501 260.59 135.071 266.05C139.571 269.29 143.601 271.63 148.161 273.63C152.071 275.35 155.911 277.36 159.621 279.3C162.331 280.72 165.131 282.19 167.911 283.52C168.611 283.85 169.331 284.2 170.061 284.56C175.911 287.41 182.531 290.63 188.531 290.29L188.921 290.26C198.261 289.4 203.841 276.68 207.171 269.08C213.721 254.16 206.651 245.25 203.481 243.85C196.131 240.63 188.611 237.45 181.331 234.38L179.861 233.76C178.341 233.12 176.791 232.44 175.231 231.76C166.691 228.04 157.861 224.2 148.981 223.54C147.921 223.46 146.861 223.47 145.851 223.56C133.661 224.69 126.901 237.86 124.811 248.79V248.8Z" fill="#C0D9E6"/>
<path d="M175.031 251.34C175.751 251.27 176.331 250.69 176.361 249.94C176.861 239.14 185.941 233.32 186.031 233.26C186.721 232.83 186.931 231.92 186.491 231.23C186.061 230.54 185.151 230.33 184.461 230.77C184.031 231.04 173.991 237.48 173.421 249.81C173.381 250.62 174.011 251.31 174.821 251.35C174.891 251.35 174.961 251.35 175.021 251.35L175.031 251.34Z" fill="#C0D9E6"/>
<path d="M162.551 246.18C163.271 246.11 163.851 245.53 163.881 244.78C164.381 234.04 170.971 230.36 171.041 230.33C171.751 229.95 172.021 229.05 171.641 228.34C171.261 227.63 170.361 227.36 169.651 227.74C169.321 227.92 161.521 232.26 160.951 244.65C160.911 245.46 161.541 246.15 162.351 246.19C162.421 246.19 162.491 246.19 162.551 246.19V246.18Z" fill="#C0D9E6"/>
<path d="M149.681 241.65C150.401 241.58 150.981 241 151.011 240.25C151.511 229.51 158.101 225.83 158.171 225.8C158.881 225.42 159.151 224.52 158.771 223.81C158.391 223.1 157.491 222.83 156.781 223.21C156.451 223.39 148.651 227.73 148.081 240.12C148.041 240.93 148.671 241.62 149.481 241.66C149.551 241.66 149.621 241.66 149.691 241.66L149.681 241.65Z" fill="#C0D9E6"/>
<path d="M183.101 286.27C183.221 286.26 183.331 286.23 183.451 286.19C184.221 285.92 184.621 285.08 184.361 284.32C182.371 278.61 184.311 269.85 189.311 262C192.981 256.23 197.511 252.42 201.121 252.05C201.931 251.97 202.521 251.25 202.431 250.44C202.351 249.64 201.631 249.05 200.831 249.12H200.821C196.271 249.59 191.041 253.81 186.831 260.42C182.681 266.93 178.821 277.35 181.581 285.29C181.811 285.94 182.451 286.33 183.101 286.27Z" fill="#C0D9E6"/>
<path d="M183.471 241.02C189.771 236.25 182.491 225.54 177.541 222.87C170.671 219.18 163.061 218.76 157.371 224.65C153.031 229.15 155.751 236.4 161.971 231.89C161.531 236.67 165.501 238.75 169.121 235.83C170.041 239.58 173.561 240.99 176.231 237.57C177.081 241.01 180.131 243.55 183.481 241.02H183.471Z" fill="#F5DDBE"/>
<path d="M175.641 240.12C174.761 240.7 173.941 240.91 173.301 240.97C171.271 241.16 169.441 240.02 168.381 238.03C166.141 239.08 163.721 238.75 162.161 237.19C161.411 236.43 160.891 235.45 160.641 234.32C160.031 234.56 159.441 234.71 158.861 234.76C156.891 234.94 155.201 233.99 154.351 232.21C153.111 229.63 153.921 226.1 156.311 223.62C159.101 220.74 162.441 219.09 166.231 218.74C169.991 218.39 174.141 219.37 178.231 221.57C182.211 223.71 186.941 229.85 187.361 235.22C187.581 238.12 186.551 240.53 184.361 242.18C183.351 242.95 182.291 243.38 181.211 243.48C178.961 243.69 176.871 242.36 175.641 240.1V240.12ZM158.431 225.67C156.701 227.47 156.401 229.68 157.001 230.94C157.631 232.25 159.201 232.08 161.101 230.7C161.571 230.36 162.191 230.33 162.691 230.61C163.191 230.9 163.481 231.45 163.431 232.02C163.311 233.35 163.601 234.45 164.251 235.1C165.161 236.02 166.751 235.85 168.191 234.68C168.581 234.36 169.111 234.27 169.581 234.43C170.061 234.59 170.421 234.98 170.541 235.47C170.941 237.1 171.941 238.13 173.031 238.03C173.711 237.97 174.411 237.49 175.061 236.66C175.401 236.22 175.981 236.01 176.531 236.13C177.081 236.25 177.511 236.67 177.651 237.22C178.091 238.99 179.361 240.71 180.941 240.57C181.461 240.52 182.011 240.28 182.581 239.85C183.971 238.8 184.571 237.36 184.421 235.46C184.091 231.23 180.071 225.92 176.831 224.17C173.251 222.25 169.681 221.39 166.491 221.68C163.421 221.96 160.701 223.31 158.411 225.67H158.431Z" fill="#F2C596"/>
<path d="M94.0805 296.43C119.951 297.16 137.281 280.39 142.631 276.36C143.621 275.62 144.961 275.19 146.401 274.87C149.601 274.16 153.261 273.99 154.511 272.12C156.641 268.94 150.781 265.27 150.781 265.27C150.781 265.27 157.091 261.48 155.841 257.84C154.591 254.2 147.151 257.84 147.151 257.84C147.151 257.84 150.841 251.96 147.151 249.14C143.471 246.33 140.281 252.85 140.281 252.85C140.281 252.85 141.201 246.02 136.071 245.34C130.951 244.65 132.151 252.93 132.151 252.93C132.151 252.93 129.621 250.28 126.251 253.85C123.831 256.41 126.341 259.83 128.671 261.26C128.671 261.26 111.121 276.14 99.6606 274.68L94.0605 296.44L94.0805 296.43Z" fill="#F5DDBE"/>
<path d="M101.151 297.68C120.971 295.85 135.011 284.43 141.381 279.25C142.231 278.56 142.951 277.98 143.521 277.54C144.401 276.88 145.771 276.52 146.731 276.31C147.441 276.15 148.171 276.02 148.881 275.9C151.731 275.39 154.431 274.92 155.741 272.95C156.391 271.98 156.601 270.87 156.351 269.73C155.971 267.94 154.511 266.36 153.291 265.32C155.371 263.69 158.361 260.67 157.231 257.37C156.871 256.33 156.141 255.55 155.131 255.13C153.601 254.49 151.601 254.76 149.901 255.23C150.601 252.74 150.521 249.86 148.061 247.97C146.891 247.08 145.581 246.77 144.281 247.08C143.201 247.33 142.261 247.98 141.471 248.74C140.741 245.95 138.911 244.23 136.281 243.88C134.301 243.61 133.061 244.39 132.371 245.09C130.981 246.49 130.621 248.78 130.571 250.57C130.331 250.53 130.071 250.51 129.801 250.51C128.191 250.51 126.651 251.3 125.191 252.84C124.111 253.98 123.651 255.38 123.851 256.88C124.081 258.62 125.141 260.15 126.311 261.27C121.991 264.65 108.741 274.35 99.8506 273.21C99.0406 273.11 98.3106 273.68 98.2006 274.48C98.1006 275.29 98.6706 276.02 99.4706 276.13C111.441 277.64 128.881 263 129.621 262.37C129.981 262.06 130.171 261.6 130.141 261.13C130.101 260.66 129.841 260.24 129.441 259.99C128.241 259.25 126.931 257.81 126.761 256.48C126.681 255.86 126.861 255.34 127.321 254.84C127.921 254.2 128.831 253.44 129.801 253.43C130.561 253.43 131.081 253.91 131.091 253.92C131.531 254.38 132.221 254.51 132.801 254.23C133.371 253.95 133.701 253.33 133.611 252.7C133.421 251.36 133.371 248.23 134.451 247.14C134.671 246.91 135.041 246.67 135.871 246.78C136.811 246.91 138.131 247.34 138.661 249.66C139.001 251.15 138.821 252.62 138.821 252.64C138.721 253.35 139.161 254.03 139.851 254.24C140.541 254.45 141.281 254.13 141.601 253.48C142.201 252.27 143.641 250.23 144.951 249.92C145.251 249.85 145.661 249.83 146.261 250.28C148.831 252.25 145.931 256.98 145.901 257.03C145.551 257.59 145.621 258.31 146.061 258.79C146.501 259.27 147.201 259.42 147.801 259.13C149.591 258.26 152.701 257.27 154.011 257.82C154.251 257.92 154.371 258.05 154.461 258.3C155.111 260.2 151.761 262.96 150.041 263.99C149.601 264.25 149.331 264.72 149.331 265.24C149.331 265.75 149.581 266.23 150.021 266.5C151.211 267.25 153.201 268.95 153.491 270.32C153.571 270.68 153.511 270.98 153.311 271.29C152.691 272.22 150.401 272.62 148.381 272.98C147.621 273.11 146.851 273.25 146.101 273.42C144.131 273.85 142.801 274.39 141.761 275.17C141.161 275.62 140.411 276.23 139.531 276.95C132.681 282.52 116.631 295.58 94.1306 294.94C93.3106 294.92 92.6406 295.56 92.6206 296.37C92.6006 297.18 93.2406 297.86 94.0506 297.88C96.5006 297.95 98.8706 297.86 101.161 297.65L101.151 297.68Z" fill="#F2C596"/>
<path d="M159.781 310.99C164.841 325 182.461 336.66 182.461 336.66C182.461 336.66 195.051 302.75 195.071 302.69C196.111 299.99 172.721 281.42 164.801 279.91C160.111 279.02 154.861 279.89 151.431 283.21C146.711 287.78 146.031 295.87 144.891 301.98C142.751 313.53 141.251 328.58 154.401 333.72C165.921 338.23 171.721 330.96 171.721 330.96L159.771 310.97L159.781 310.99Z" fill="#F5DDBE"/>
<path d="M181.65 337.88C181.32 337.66 177.62 335.19 173.18 331.23C173.14 331.47 173.04 331.7 172.88 331.9C172.62 332.23 166.26 339.95 153.88 335.11C138.4 329.06 141.94 309.91 143.46 301.73C143.62 300.86 143.77 299.95 143.93 299.01C144.91 293.11 146.03 286.42 150.42 282.16C153.92 278.77 159.4 277.39 165.09 278.47C172.96 279.96 193.34 295.94 196.12 300.94C196.3 301.26 196.84 302.24 196.46 303.22C196.33 303.58 183.85 337.18 183.85 337.18C183.69 337.6 183.35 337.93 182.93 338.07C182.83 338.1 182.72 338.13 182.61 338.14C182.28 338.17 181.94 338.09 181.66 337.9L181.65 337.88ZM164.53 281.36C159.78 280.46 155.27 281.55 152.46 284.27C148.77 287.85 147.73 294.03 146.83 299.49C146.67 300.44 146.52 301.37 146.35 302.26C144.07 314.59 143.31 327.81 154.95 332.37C165.25 336.4 170.37 330.32 170.58 330.07C170.79 329.81 171.06 329.64 171.36 329.57C166.37 324.85 160.93 318.5 158.4 311.5C158.12 310.74 158.52 309.89 159.28 309.62C160.04 309.34 160.89 309.74 161.16 310.5C165.13 321.5 177.42 331.21 181.75 334.36C191.22 308.86 193.19 303.56 193.6 302.46C192.15 298.96 171.61 282.71 164.53 281.37V281.36Z" fill="#F2C596"/>
<path d="M178.81 327.64C179.85 318.31 178.95 308.22 186.27 301.02C193.58 293.82 204.28 297.72 206.02 303.43C208.94 313.03 198.83 332.84 194.1 338.2C189.38 343.56 177.39 340.39 178.81 327.64Z" fill="#F5DDBE"/>
<path d="M180.66 338.95C178.78 337.04 176.68 333.49 177.35 327.47C177.55 325.71 177.68 323.88 177.8 322.11C178.35 314.28 178.93 306.17 185.23 299.97C187.75 297.49 190.86 296.01 194.22 295.7C200.2 295.15 205.99 298.35 207.41 303C210.5 313.15 200.31 333.36 195.19 339.17C193.71 340.85 191.58 341.9 189.2 342.12C186.08 342.41 182.88 341.23 180.65 338.95H180.66ZM187.3 302.07C181.79 307.5 181.28 314.7 180.74 322.32C180.61 324.12 180.48 325.98 180.28 327.8C179.74 332.67 181.33 335.43 182.76 336.89C184.38 338.54 186.69 339.39 188.94 339.19C190.57 339.04 192.02 338.34 193 337.23C197.83 331.75 207.25 312.53 204.61 303.86C203.73 300.97 199.46 298.18 194.5 298.63C191.82 298.88 189.33 300.07 187.3 302.07Z" fill="#F2C596"/>
<path d="M103.09 248.01C100.03 255.44 95.5803 261.12 87.3003 260.3C78.9103 259.47 72.9603 253.62 71.2803 245.44C69.0803 234.72 78.3203 218.64 90.6103 219.51C103.95 220.45 107.05 238.39 103.09 248.01Z" fill="#F5DDBE"/>
<path d="M103.74 243.8C104.3 243.75 104.8 243.38 105 242.81C107.2 236.38 106.99 230.95 104.4 226.67C100.42 220.12 92.3301 218.83 91.9901 218.77C91.1901 218.65 90.4401 219.2 90.3201 220C90.2001 220.8 90.7501 221.55 91.5501 221.68C91.6201 221.69 98.6501 222.84 101.9 228.21C104.01 231.71 104.12 236.3 102.23 241.85C101.97 242.62 102.38 243.46 103.15 243.72C103.35 243.79 103.56 243.81 103.76 243.79L103.74 243.8Z" fill="#F2C596"/>
<path d="M81.2803 256.08C78.6803 257.89 75.3503 258.9 71.9703 258.07C64.1203 256.17 58.4903 248.9 60.4403 240.88C61.8703 234.99 67.0903 230.93 72.7203 229.76C75.8703 229.12 78.2603 229.61 81.0903 231.9C89.5103 238.69 88.9402 250.76 81.2702 256.07L81.2803 256.08Z" fill="#F2C596"/>
<path d="M195.26 176.29C195.26 176.29 195.28 176.26 195.28 176.25C195.62 175.75 196.24 175.57 196.76 175.36C197.44 175.1 198.1 174.8 198.75 174.47C200.02 173.84 201.25 173.12 202.46 172.37C203.44 171.76 204.39 171.12 205.36 170.51C205.76 170.26 206.39 169.71 206.89 169.7C207.81 169.69 208.01 171.04 208.18 171.71C208.49 172.88 208.81 174.05 209.11 175.22C209.71 177.51 210.23 178.1 210.7 180.42C210.82 181 210.95 181.61 211.13 182.17C211.26 182.54 211.6 182.8 211.39 183.19C211.11 183.7 209.58 184.77 209.58 184.77C209.58 184.77 208.74 181.54 208.61 180.86C208.23 179.03 207.84 178.91 207.36 177.11C207.12 176.2 206.88 175.29 206.64 174.37C206.53 173.95 206.5 172.67 205.9 172.62C205.64 172.6 205.2 173.09 204.99 173.22C204.7 173.4 204.39 173.56 204.1 173.75C203.4 174.19 202.7 174.61 201.98 175.01C200.99 175.56 199.92 175.91 198.88 176.33C198.47 176.49 197.84 176.64 197.53 176.97C197 177.56 199.12 182.64 199.59 184.96C199.71 185.53 199.84 186.15 200.03 186.71C200.15 187.08 200.5 187.35 200.28 187.73C200 188.24 198.47 189.31 198.47 189.31C198.47 189.31 197.63 186.08 197.49 185.4C196.99 182.97 196.41 182.27 195.78 179.87C195.67 179.44 195.39 178.69 195.24 177.96C195.13 177.44 194.94 176.76 195.24 176.27L195.26 176.29Z" fill="#F8E39A"/>
<path d="M209.7 184.59C209.24 182.72 210.37 180.82 212.25 180.35C214.12 179.89 216.01 181.02 216.48 182.9C216.95 184.77 215.81 186.66 213.94 187.13C212.07 187.59 210.17 186.46 209.71 184.59H209.7Z" fill="#F8E39A"/>
<path d="M198.451 189.37C197.981 187.5 199.121 185.61 200.991 185.14C202.871 184.67 204.761 185.81 205.221 187.68C205.681 189.55 204.551 191.45 202.681 191.91C200.811 192.37 198.911 191.24 198.451 189.37Z" fill="#F8E39A"/>
<path d="M295.6 130.1L295 124.99L292.83 129.66L287.71 130.26L292.38 132.43L292.98 137.55L295.16 132.88L300.27 132.28L295.6 130.1Z" fill="#F7E17C"/>
<path d="M238.15 134.67L237.39 128.22L234.65 134.11L228.2 134.86L234.09 137.61L234.84 144.06L237.59 138.17L244.03 137.41L238.15 134.67Z" fill="white"/>
<path d="M268.46 167.03C268.76 164.98 270.66 163.56 272.72 163.86C274.78 164.16 276.2 166.07 275.9 168.12C275.6 170.18 273.69 171.6 271.63 171.3C269.57 171 268.15 169.09 268.45 167.04L268.46 167.03Z" fill="#8CC3E9"/>
</g>
<defs>
<filter id="filter0_d_246_1474" x="0.429688" y="0.412109" width="419.434" height="606.036" filterUnits="userSpaceOnUse" color-interpolation-filters="sRGB">
<feFlood flood-opacity="0" result="BackgroundImageFix"/>
<feColorMatrix in="SourceAlpha" type="matrix" values="0 0 0 0 0 0 0 0 0 0 0 0 0 0 0 0 0 0 127 0" result="hardAlpha"/>
<feOffset dy="4"/>
<feGaussianBlur stdDeviation="2"/>
<feComposite in2="hardAlpha" operator="out"/>
<feColorMatrix type="matrix" values="0 0 0 0 0 0 0 0 0 0 0 0 0 0 0 0 0 0 0.25 0"/>
<feBlend mode="normal" in2="BackgroundImageFix" result="effect1_dropShadow_246_1474"/>
<feBlend mode="normal" in="SourceGraphic" in2="effect1_dropShadow_246_1474" result="shape"/>
</filter>
</defs>
</svg>
