<svg width="228" height="226" viewBox="0 0 228 226" fill="none" xmlns="http://www.w3.org/2000/svg">
<path d="M181.94 168.19C185.07 155.65 179.59 142.88 169.19 135.79C175.11 125.37 176 112.54 171.32 101.33C166.21 89.1 155.2 80.17 142.67 76.32C129.33 72.23 113.64 74.28 102.53 83C93.8896 89.79 88.8796 99.91 88.5996 110.56C74.4696 110.79 62.0697 120.62 59.1697 134.61C56.7597 146.26 61.6396 157.81 70.7696 164.77C65.5496 174.54 64.6096 186.31 68.5296 196.88C73.1396 209.31 83.7796 218.68 96.1496 223.03C109.31 227.66 125.08 226.25 136.53 217.98C145.44 211.55 150.85 201.64 151.57 191.01C165.7 191.35 178.49 182.04 181.95 168.18L181.94 168.19Z" fill="#FFF200"/>
<path d="M153.54 143.15C166.41 141.98 176.66 132.59 179.93 120.43C191.71 122.58 204.13 119.2 213.16 111.09C223.03 102.24 227.83 88.89 227.33 75.8C226.8 61.85 219.69 47.72 207.79 40.11C198.53 34.19 187.33 32.8 177.18 36.04C172.31 22.77 158.94 14.31 144.78 16.18C132.98 17.74 123.69 26.16 120.12 37.07C109.18 35.36 97.7498 38.35 89.0598 45.53C78.8398 53.98 73.5098 67.11 73.4698 80.22C73.4398 94.18 79.9598 108.59 91.5398 116.68C100.55 122.97 111.69 124.82 121.96 121.99C126.29 135.45 139.3 144.45 153.53 143.15H153.54Z" fill="#00AEED"/>
<path d="M112.55 20.43C102.62 12.16 88.73 11.55 77.83 17.83C71.02 7.97999 59.85 1.58999 47.73 0.929992C34.49 0.209992 21.66 6.25999 12.76 15.87C3.28004 26.11 -1.69997 41.13 1.34003 54.92C3.70003 65.65 10.64 74.56 20.11 79.44C14.17 92.27 17.64 107.7 28.98 116.39C38.43 123.63 50.95 124.25 61.19 119.05C67.72 128 77.91 133.96 89.14 135.03C102.34 136.28 115.4 130.77 124.69 121.52C134.58 111.68 140.16 96.87 137.69 82.96C135.77 72.14 129.2 62.96 119.94 57.7C126.39 45.12 123.56 29.56 112.58 20.42L112.55 20.43Z" fill="#EB3872"/>
<path d="M128.9 145.53C129.34 146.13 129.11 146.82 128.88 147.46C126.47 154.22 117.36 177.48 115.98 182.41C115.85 183.17 116.77 182.7 117.19 182.56C122.42 180.4 128.36 177.31 133.58 175.16C136.17 174.06 137.01 177.4 137.98 179.36C138.74 180.96 140.02 183.31 137.68 184.23C135.16 185.41 132.28 186.73 129.67 187.92C121.66 191.57 114.03 195.1 106.07 198.7C104.95 199.22 103.95 199.19 103.34 197.97C101.87 194.97 100.53 191.85 99.1103 188.82C95.8203 181.46 91.4803 172.47 88.5303 165.5C87.9403 163.33 90.6003 162.72 92.0703 161.96C93.6303 161.34 95.3703 160.12 96.7403 160.79C97.2703 161.06 97.6103 161.57 97.8803 162.1C99.4003 165.27 101.23 169.43 102.79 172.8C103.63 174.56 104.48 176.65 105.37 178.3C105.53 178.57 105.78 178.92 106.02 179.01C106.36 179.12 106.5 178.64 106.61 178.36C108.88 172.53 116.96 150.17 119.84 143.07C120.41 142.03 121.82 142.5 122.75 142.81C124.82 143.7 127.2 144.02 128.81 145.46L128.86 145.53H128.9Z" fill="#231F20"/>
<path d="M51.68 63.74C55.12 62.17 56.63 58.1101 55.06 54.6701C53.49 51.2401 49.43 49.73 45.99 51.3C42.55 52.87 41.04 56.93 42.61 60.37C44.18 63.8 48.24 65.31 51.68 63.74Z" fill="white"/>
<path d="M59.89 63.1601L45.87 69.5701C42.76 70.9901 42.67 76.1301 45.7 79.0801L62.93 95.8501C65.27 98.1301 68.8 96.5101 68.61 93.2501L67.19 69.2501C66.94 65.0301 62.99 61.7401 59.88 63.1601H59.89Z" fill="white"/>
<path d="M77.3998 51.98C80.8398 50.41 82.3498 46.35 80.7798 42.91C79.2098 39.48 75.1498 37.97 71.7098 39.54C68.2698 41.11 66.7597 45.17 68.3297 48.61C69.8997 52.04 73.9598 53.55 77.3998 51.98Z" fill="white"/>
<path d="M83.6396 88.88L101.24 80.83C104.35 79.41 104.61 74.63 101.72 71.99L82.5795 54.7C81.5895 53.67 80.0696 53.37 78.7796 53.96L78.1296 54.26C76.8496 54.84 76.0795 56.18 76.2095 57.6L76.6396 83.47C76.7496 87.38 80.5296 90.31 83.6396 88.89V88.88Z" fill="white"/>
<path d="M164.48 100.42C158.05 100.73 152.57 95.76 152.27 89.34C152.14 86.69 152.89 84.16 154.43 82.01L151.89 80.2C149.94 82.93 148.99 86.14 149.15 89.5C149.54 97.64 156.49 103.95 164.64 103.55C166.57 103.46 168.4 102.99 170.07 102.23C175.41 99.79 179.02 94.27 178.72 88.06L175.6 88.21C175.91 94.63 170.93 100.11 164.5 100.43L164.48 100.42Z" fill="white"/>
<path d="M188.71 83.51L178.16 74C177.22 73.15 176.07 72.65 174.87 72.48L180.4 69.95L179.1 67.11L168.24 72.08L161.96 66.4C161.05 65.45 159.65 65.17 158.47 65.72L157.87 65.99C156.69 66.53 155.99 67.76 156.1 69.06L156.26 78.53C156.37 84.96 163.05 89.17 168.9 86.49L177.29 82.65L184.74 88.43C185.94 89.35 187.68 89.31 188.86 88.19C190.19 86.93 190.06 84.75 188.71 83.51Z" fill="white"/>
<path d="M157.477 64.5453C160.641 63.098 162.033 59.3597 160.586 56.1956C159.138 53.0315 155.4 51.6398 152.236 53.0871C149.072 54.5344 147.68 58.2726 149.127 61.4367C150.575 64.6008 154.313 65.9926 157.477 64.5453Z" fill="white"/>
</svg>
