<svg width="563" height="758" viewBox="0 0 563 758" fill="none" xmlns="http://www.w3.org/2000/svg">
<path d="M204.295 619.056L190.55 621.495L214.767 758.003L228.513 755.565L204.295 619.056Z" fill="#6C5B52"/>
<path d="M289.369 604.066L275.624 606.505L299.842 743.013L313.587 740.575L289.369 604.066Z" fill="#644F42"/>
<path d="M517.101 561.749L503.355 564.188L527.879 702.42L541.624 699.981L517.101 561.749Z" fill="#6C5B52"/>
<path d="M429.958 579.063L416.213 581.501L440.43 718.01L454.176 715.571L429.958 579.063Z" fill="#644F42"/>
<path d="M78.3302 430.05C78.3302 430.05 18.2402 384.28 21.3902 367.31C24.5402 350.35 43.8002 346.97 48.6502 350.04C53.5002 353.11 96.4602 435.16 78.3202 430.04L78.3302 430.05Z" fill="#F4792C"/>
<path d="M22.71 372.78C22.71 372.78 29.96 368.85 38.25 361.51C38.25 361.51 34.64 373.48 22.71 372.78Z" fill="#F15E22"/>
<path d="M46.2305 383.48C46.2305 383.48 53.4805 379.55 61.7705 372.21C61.7705 372.21 58.1605 384.18 46.2305 383.48Z" fill="#F15E22"/>
<path d="M57.1504 409.57C57.1504 409.57 64.4004 405.64 72.6904 398.3C72.6904 398.3 69.0804 410.27 57.1504 409.57Z" fill="#F15E22"/>
<path d="M31.9103 360.29C31.9103 360.29 23.3703 351.4 16.5703 349.68C9.77031 347.96 -0.129688 343.5 0.0603116 336.57C0.250312 329.64 9.44031 336.86 14.3203 342.8C19.2003 348.74 36.8403 357.81 31.9203 360.28L31.9103 360.29Z" fill="#91B450"/>
<path d="M31.5205 359.9C31.5205 359.9 29.1305 347.87 24.1805 342.1C19.2305 336.33 13.1305 326.54 17.2405 321.75C21.3505 316.95 25.2505 328.22 26.1305 335.71C27.0105 343.19 37.2205 361.43 31.5305 359.9H31.5205Z" fill="#91B450"/>
<path d="M28.8706 356.97C28.8706 356.97 22.3006 344.63 15.1806 340.23C8.07063 335.83 -1.59936 327.45 1.05064 320.5C3.70064 313.55 11.5906 324.45 15.0406 332.38C18.4906 340.31 35.3206 356.38 28.8706 356.97Z" fill="#91B450"/>
<path d="M81.7104 31.7901L81.6904 31.7701C80.9004 30.4601 79.9204 29.3101 78.7904 28.3101L66.4404 13.5701C63.7604 9.06011 57.6804 7.3501 52.3304 9.7801C47.0304 12.1901 44.3104 17.8201 45.8604 22.7801C46.2804 24.1201 46.5104 25.5201 46.7004 26.9101L48.9304 43.0601C48.9804 43.6501 49.0504 44.2301 49.1704 44.8201V44.8701C49.3904 45.9301 49.7304 46.9801 50.1904 48.0001C53.8804 56.1301 64.1104 59.4401 73.0304 55.3801C81.9504 51.3301 86.1904 41.4501 82.5004 33.3201C82.2604 32.7901 81.9904 32.2801 81.6904 31.7901H81.7104Z" fill="#798642"/>
<path d="M79.3902 32.2001L79.3702 32.1801C78.6502 30.9701 77.7702 29.9101 76.7602 28.9801L65.6502 15.3501C63.2202 11.2001 57.8402 9.53009 53.1902 11.6501C48.5702 13.7501 46.2902 18.8201 47.7402 23.3601C48.1302 24.5901 48.3602 25.8601 48.5502 27.1301L50.8002 41.8601C50.8502 42.4001 50.9302 42.9301 51.0402 43.4601V43.5101C51.2502 44.4801 51.5702 45.4401 51.9902 46.3801C55.3802 53.8401 64.4202 57.0301 72.1902 53.5101C79.9502 49.9801 83.5002 41.0701 80.1102 33.6101C79.8902 33.1201 79.6402 32.6501 79.3702 32.2001H79.3902Z" fill="#B6D465"/>
<path d="M72.2506 36.4302C74.1106 40.5302 72.7306 45.1702 69.1506 46.7902C65.5706 48.4102 61.1706 46.4002 59.3106 42.3002C57.4506 38.2002 57.5907 30.8202 61.1607 29.2002C64.7306 27.5802 70.3807 32.3202 72.2407 36.4202L72.2506 36.4302Z" fill="#D2915C"/>
<path d="M524.04 482.68C528.022 482.68 531.25 479.452 531.25 475.47C531.25 471.488 528.022 468.26 524.04 468.26C520.058 468.26 516.83 471.488 516.83 475.47C516.83 479.452 520.058 482.68 524.04 482.68Z" fill="#91B450"/>
<path d="M524.31 473.73C525.42 473.73 526.32 472.83 526.32 471.72C526.32 470.61 525.42 469.71 524.31 469.71C523.2 469.71 522.3 470.61 522.3 471.72C522.3 472.83 523.2 473.73 524.31 473.73Z" fill="#BDD975"/>
<path d="M514.54 465.27C518.522 465.27 521.75 462.042 521.75 458.06C521.75 454.078 518.522 450.85 514.54 450.85C510.558 450.85 507.33 454.078 507.33 458.06C507.33 462.042 510.558 465.27 514.54 465.27Z" fill="#91B450"/>
<path d="M514.81 456.32C515.92 456.32 516.82 455.42 516.82 454.31C516.82 453.2 515.92 452.3 514.81 452.3C513.7 452.3 512.8 453.2 512.8 454.31C512.8 455.42 513.7 456.32 514.81 456.32Z" fill="#BDD975"/>
<path d="M534.34 459.44C538.322 459.44 541.55 456.212 541.55 452.23C541.55 448.248 538.322 445.02 534.34 445.02C530.358 445.02 527.13 448.248 527.13 452.23C527.13 456.212 530.358 459.44 534.34 459.44Z" fill="#91B450"/>
<path d="M534.61 450.5C535.72 450.5 536.62 449.6 536.62 448.49C536.62 447.38 535.72 446.48 534.61 446.48C533.5 446.48 532.6 447.38 532.6 448.49C532.6 449.6 533.5 450.5 534.61 450.5Z" fill="#BDD975"/>
<path d="M561.72 446.78C561.72 446.78 564.21 458.63 558.54 469.49C552.43 481.19 556.8 484.84 551.39 492.71C546.2 500.26 546.99 498.95 540.48 503.88C533.97 508.81 529.18 507.92 530.4 505.25C531.61 502.58 536.48 495.49 539.64 491.77C542.8 488.05 542.28 482.29 545.04 474.86C547.8 467.43 552.09 461.9 551.63 455.94C551.17 449.98 554.56 437.89 561.71 446.78H561.72Z" fill="#91B450"/>
<path d="M561.231 446.2C561.231 446.2 558.381 440.2 556.961 440.11C555.541 440.03 553.041 445.59 553.421 446.49C553.811 447.39 554.981 442.25 561.231 446.19V446.2Z" fill="#B1CD68"/>
<path d="M557.371 441.71C557.371 441.71 559.761 433.47 558.001 433.26C556.241 433.05 555.831 432.68 555.341 434.28C554.861 435.88 555.651 441.52 556.301 441.87C556.951 442.22 557.851 441.89 557.851 441.89" fill="#B1CD68"/>
<path d="M10.4904 227.59C10.4904 227.59 -0.949562 227.38 6.24044 218.01C13.4404 208.64 22.1704 214.14 22.3604 217.95C22.5504 221.76 20.2804 222.6 16.2404 222.93C12.2004 223.26 14.0904 227.47 10.4904 227.59Z" fill="#6A3649"/>
<path d="M11.6205 223.55C11.6205 223.55 14.1805 220.36 15.9505 220.43C17.7105 220.5 16.7805 221.04 15.1305 222.05C13.4805 223.05 13.0305 224.42 12.2405 224.31C11.4505 224.2 11.4405 223.77 11.6205 223.55Z" fill="white"/>
<path d="M28.0003 215.33C28.0003 215.33 20.0303 207.11 31.7403 205.54C43.4503 203.97 45.7603 214.02 43.2103 216.86C40.6603 219.7 38.4603 218.69 35.3603 216.07C32.2603 213.45 30.6303 217.77 28.0003 215.32V215.33Z" fill="#6A3649"/>
<path d="M31.6407 213.27C31.6407 213.27 35.7107 212.82 36.9107 214.11C38.1107 215.4 37.0707 215.13 35.1907 214.68C33.3107 214.23 32.0307 214.88 31.5507 214.25C31.0707 213.62 31.3707 213.3 31.6407 213.28V213.27Z" fill="white"/>
<path d="M25.4103 233.81C25.4103 233.81 14.1303 231.85 22.6803 223.7C31.2203 215.54 39.0103 222.31 38.6203 226.1C38.2303 229.89 35.8503 230.38 31.8103 230.08C27.7703 229.78 28.9903 234.24 25.4203 233.8L25.4103 233.81Z" fill="#6A3649"/>
<path d="M27.1503 229.99C27.1503 229.99 30.1703 227.23 31.9003 227.57C33.6303 227.91 32.6303 228.3 30.8403 229.04C29.0603 229.78 28.4003 231.06 27.6403 230.83C26.8803 230.6 26.9303 230.17 27.1403 229.99H27.1503Z" fill="white"/>
<path d="M273.411 67.5602C273.411 67.5602 264.921 62.2602 257.771 64.5302C250.631 66.8002 242.851 70.6702 237.561 67.9702C232.271 65.2702 227.571 68.6802 223.041 64.4602C218.511 60.2402 217.421 61.6402 212.861 57.7302C208.301 53.8202 207.831 43.9702 216.041 41.8502C224.251 39.7302 225.601 39.8002 230.631 38.9802C235.661 38.1502 236.421 42.0702 240.351 40.9002C244.271 39.7302 251.471 42.6802 253.731 47.6702C256.971 54.8402 254.481 53.6402 259.741 58.3102C265.001 62.9702 275.241 64.9702 275.631 66.5202C276.011 68.0702 274.301 68.0702 273.431 67.5802L273.411 67.5602Z" fill="#007A64"/>
<path d="M265.541 63.0402C265.541 63.0402 254.551 61.5702 240.731 56.2002C231.291 52.5302 218.791 50.1202 213.501 49.8702C211.311 49.7702 212.411 50.3402 212.411 50.3402C212.411 50.3402 221.741 50.6802 230.351 54.2302C238.961 57.7802 257.071 62.5002 265.551 63.0502L265.541 63.0402Z" fill="#00AC97"/>
<path d="M226.821 61.5103C226.821 61.5103 231.341 62.4503 236.441 60.4203C241.541 58.3903 244.271 58.1803 244.271 58.1803C244.271 58.1803 242.121 57.6503 240.721 57.8303C239.321 58.0103 237.851 59.3403 233.921 60.3903C229.991 61.4403 225.471 60.6803 226.821 61.5103Z" fill="#00AC97"/>
<path d="M234.241 54.5102C234.241 54.5102 232.891 56.2602 231.681 55.9502C230.461 55.6302 227.961 55.4201 225.721 56.7201C223.481 58.0201 219.031 57.0601 219.031 57.0601C219.031 57.0601 218.681 56.4101 220.001 56.6901C221.321 56.9701 223.901 56.6602 226.281 55.7602C228.661 54.8602 230.941 55.0401 232.401 54.9901C233.861 54.9401 232.891 53.3301 234.231 54.5201L234.241 54.5102Z" fill="#00AC97"/>
<path d="M215.441 53.5202C215.441 53.5202 216.921 52.3802 218.821 52.7302C220.721 53.0802 224.481 51.7402 224.481 51.7402C224.481 51.7402 223.091 51.4902 222.091 51.6502C221.091 51.8102 220.701 52.4802 219.031 52.3002C217.361 52.1202 214.851 52.9902 215.431 53.5302L215.441 53.5202Z" fill="#00AC97"/>
<path d="M254.571 61.0701C254.571 61.0701 252.951 61.1201 250.991 61.7801C248.621 62.5701 245.741 64.0001 244.561 64.2201C242.401 64.6201 239.561 65.0001 239.291 65.1601C238.911 65.3801 238.381 65.3101 239.031 64.8501C239.691 64.3901 241.341 64.6601 243.471 63.9001C245.611 63.1401 247.571 61.9301 249.831 61.2601C252.091 60.5801 251.761 60.0701 252.311 60.0301C252.861 59.9901 254.581 61.0701 254.581 61.0701H254.571Z" fill="#00AC97"/>
<path d="M256.141 61.6302C256.141 61.6302 253.151 57.3902 251.881 52.7902C250.611 48.1902 245.231 44.8202 245.201 45.5402C245.171 46.2602 247.741 46.5302 249.181 49.6402C250.621 52.7502 251.241 55.5202 252.321 57.1502C253.401 58.7802 253.431 60.3402 254.261 60.8802C255.091 61.4202 256.141 61.6302 256.141 61.6302Z" fill="#00AC97"/>
<path d="M245.931 58.5103C245.931 58.5103 243.481 55.6103 242.841 53.0103C242.201 50.4103 238.991 46.6402 237.671 46.7202C236.351 46.7902 237.721 46.9603 238.941 48.1403C240.151 49.3203 242.231 53.1803 242.201 54.0703C242.171 54.9603 243.801 57.7803 245.931 58.5103Z" fill="#00AC97"/>
<path d="M238.051 55.4302C238.051 55.4302 233.111 52.2902 233.201 49.7202C233.291 47.1502 230.271 46.2602 228.511 45.2402C226.751 44.2202 227.201 45.0702 228.201 45.6502C229.201 46.2302 231.671 47.0902 232.131 48.5502C232.591 50.0002 232.631 52.1002 234.891 54.1302C237.151 56.1602 238.051 55.4402 238.051 55.4402V55.4302Z" fill="#00AC97"/>
<path d="M226.741 52.0603C226.741 52.0603 224.991 51.4603 223.981 49.4503C222.981 47.4403 220.131 47.2703 219.371 46.0903C218.611 44.9103 219.261 45.5703 220.141 46.1203C221.021 46.6703 222.221 46.7503 223.601 48.1203C224.991 49.4903 225.221 50.3403 226.451 51.0603C227.681 51.7803 228.531 52.1303 228.521 52.2903C228.511 52.4503 226.731 52.0603 226.731 52.0603H226.741Z" fill="#00AC97"/>
<path d="M271.151 65.0902C271.151 65.0902 270.111 55.1302 263.921 50.9002C257.741 46.6602 249.901 42.9102 248.781 37.0802C247.661 31.2502 242.071 29.6402 242.621 23.4702C243.161 17.3002 241.381 17.3002 241.671 11.3002C241.951 5.30019 249.431 -1.12979 256.151 4.04021C262.871 9.21021 263.641 10.3202 267.391 13.7802C271.141 17.2402 268.511 20.2502 271.851 22.6202C275.191 24.9902 277.281 32.4802 274.731 37.3302C271.071 44.2902 270.481 41.6002 270.041 48.6102C269.601 55.6202 274.321 64.9302 273.341 66.1802C272.361 67.4302 271.301 66.0902 271.151 65.0902Z" fill="#007A64"/>
<path d="M269.871 56.1003C269.871 56.1003 264.271 46.5303 260.001 32.3203C257.091 22.6203 251.301 11.2803 248.251 6.9603C246.991 5.1703 247.211 6.39033 247.211 6.39033C247.211 6.39033 252.681 13.9503 255.181 22.9203C257.681 31.8903 265.091 49.0703 269.871 56.1003Z" fill="#00AC97"/>
<path d="M247.271 24.6203C247.271 24.6203 249.301 28.7604 254.041 31.5404C258.781 34.3204 260.631 36.3403 260.631 36.3403C260.631 36.3403 259.721 34.3204 258.721 33.3204C257.721 32.3204 255.771 31.9903 252.521 29.5303C249.271 27.0803 247.091 23.0403 247.271 24.6103V24.6203Z" fill="#00AC97"/>
<path d="M257.351 26.1702C257.351 26.1702 255.141 26.1902 254.641 25.0302C254.141 23.8702 252.771 21.7702 250.371 20.8002C247.971 19.8302 245.991 15.7302 245.991 15.7302C245.991 15.7302 246.291 15.0502 246.881 16.2702C247.471 17.4902 249.301 19.3302 251.481 20.6502C253.661 21.9702 254.911 23.8802 255.851 25.0002C256.791 26.1202 257.461 24.3602 257.351 26.1602V26.1702Z" fill="#00AC97"/>
<path d="M246.571 10.7403C246.571 10.7403 248.381 11.2003 249.281 12.9203C250.181 14.6403 253.541 16.7803 253.541 16.7803C253.541 16.7803 252.881 15.5303 252.141 14.8403C251.391 14.1503 250.631 14.2603 249.751 12.8303C248.871 11.4003 246.641 9.96026 246.571 10.7503V10.7403Z" fill="#00AC97"/>
<path d="M264.692 46.2404C264.692 46.2404 263.652 44.9904 261.932 43.8504C259.852 42.4604 256.951 41.0704 256.051 40.2804C254.411 38.8204 252.372 36.8204 252.072 36.7004C251.662 36.5404 251.392 36.0704 252.152 36.3104C252.912 36.5504 253.712 38.0104 255.632 39.2304C257.542 40.4504 259.702 41.2504 261.622 42.6204C263.542 43.9904 263.741 43.4104 264.111 43.8204C264.481 44.2304 264.692 46.2504 264.692 46.2504V46.2404Z" fill="#00AC97"/>
<path d="M265.211 47.8202C265.211 47.8202 266.711 42.8602 269.561 39.0302C272.401 35.2002 271.751 28.8802 271.171 29.3002C270.591 29.7202 271.951 31.9102 270.391 34.9602C268.831 38.0102 267.021 40.2002 266.401 42.0502C265.781 43.9002 264.571 44.8902 264.651 45.8702C264.741 46.8502 265.211 47.8202 265.211 47.8202Z" fill="#00AC97"/>
<path d="M261.392 37.8404C261.392 37.8404 262.172 34.1203 263.832 32.0203C265.492 29.9303 266.482 25.0703 265.622 24.0803C264.752 23.0803 265.462 24.2704 265.282 25.9504C265.102 27.6304 263.332 31.6404 262.612 32.1604C261.892 32.6804 260.672 35.7003 261.402 37.8303L261.392 37.8404Z" fill="#00AC97"/>
<path d="M258.971 29.7403C258.971 29.7403 258.411 23.9103 260.491 22.4003C262.571 20.8903 261.421 17.9603 261.141 15.9503C260.861 13.9303 260.471 14.8103 260.631 15.9503C260.791 17.0903 261.631 19.5803 260.761 20.8303C259.901 22.0903 258.271 23.4103 258.061 26.4403C257.851 29.4703 258.971 29.7303 258.971 29.7303V29.7403Z" fill="#00AC97"/>
<path d="M254.681 18.7504C254.681 18.7504 254.081 17.0004 255.041 14.9704C256.011 12.9404 254.391 10.5904 254.861 9.27041C255.331 7.95041 255.201 8.86042 255.311 9.90042C255.421 10.9404 256.091 11.9304 255.861 13.8604C255.631 15.7904 255.101 16.5004 255.291 17.9104C255.481 19.3204 255.721 20.2104 255.591 20.3004C255.461 20.3904 254.671 18.7504 254.671 18.7504H254.681Z" fill="#00AC97"/>
<path d="M199.111 240.3C214.718 240.3 227.371 227.648 227.371 212.04C227.371 196.432 214.718 183.78 199.111 183.78C183.503 183.78 170.851 196.432 170.851 212.04C170.851 227.648 183.503 240.3 199.111 240.3Z" fill="#F99E1C"/>
<path d="M199.33 237.25C213.275 237.25 224.58 225.945 224.58 212C224.58 198.055 213.275 186.75 199.33 186.75C185.385 186.75 174.08 198.055 174.08 212C174.08 225.945 185.385 237.25 199.33 237.25Z" fill="#FEDCB9"/>
<path d="M199.78 207.3L197.31 193.38C196.98 191.53 198.44 189.83 200.32 189.89C201.03 189.91 201.75 189.97 202.48 190.07C210.42 191.15 216.83 196.21 219.99 202.97C220.82 204.75 219.75 206.84 217.81 207.18L203.2 209.7C201.59 209.98 200.06 208.9 199.78 207.3Z" fill="#FCB95D"/>
<path d="M194.44 211.21L180.31 213.65C178.38 213.98 176.66 212.39 176.84 210.44C176.87 210.12 176.91 209.8 176.95 209.48C178.05 201.39 183.29 194.89 190.24 191.81C192.02 191.02 194.07 192.07 194.41 193.99L196.86 207.77C197.15 209.39 196.06 210.93 194.45 211.21H194.44Z" fill="#FCB95D"/>
<path d="M198.411 216.52L201.101 231.68C201.431 233.54 199.951 235.27 198.061 235.17C197.501 235.14 196.931 235.09 196.361 235.01C187.801 233.85 181.031 228.04 178.191 220.48C177.551 218.78 178.711 216.93 180.501 216.62L194.981 214.12C196.591 213.84 198.121 214.92 198.401 216.52H198.411Z" fill="#FCB95D"/>
<path d="M203.74 212.61L218.61 210.04C220.45 209.72 222.12 211.17 222.09 213.04C222.07 213.88 222.01 214.73 221.9 215.59C220.78 223.85 215.33 230.45 208.16 233.44C206.38 234.18 204.37 233.14 204.03 231.24L201.33 216.04C201.04 214.42 202.13 212.88 203.74 212.6V212.61Z" fill="#FCB95D"/>
<path d="M202.961 206.19C202.961 206.19 206.781 205.14 206.521 203.3C206.261 201.47 202.711 200.53 202.961 206.19Z" fill="#FEDCB9"/>
<path d="M194.361 208.6C194.361 208.6 193.481 204.73 191.641 204.91C189.801 205.09 188.691 208.59 194.361 208.6Z" fill="#FEDCB9"/>
<path d="M195.301 217.37C195.301 217.37 191.631 218.88 192.111 220.67C192.591 222.46 196.231 222.96 195.301 217.37Z" fill="#FEDCB9"/>
<path d="M203.841 215.17C203.841 215.17 204.981 218.97 206.811 218.67C208.641 218.37 209.501 214.8 203.841 215.17Z" fill="#FEDCB9"/>
<path d="M74.341 536.74C74.341 536.74 98.0511 523.18 122.171 526.24C147.861 529.5 145.661 532.7 145.661 532.7C145.661 532.7 133.821 561.56 80.1711 559.96L74.3311 536.73L74.341 536.74Z" fill="#7E9EB4"/>
<path d="M136.96 533.03L145.31 514.59C145.92 513.24 147.94 513.71 147.9 515.19L147.44 531.24C147.44 531.58 147.55 531.91 147.77 532.16L157.37 543.3C158.37 544.46 156.98 546.13 155.66 545.36L137.52 534.77C136.92 534.42 136.68 533.67 136.97 533.04L136.96 533.03Z" fill="#7E9EB4"/>
<path d="M88.501 530.68L98.331 521.32C98.901 520.78 99.861 521.07 99.991 521.82L100.801 526.41C100.851 526.71 100.841 527.02 100.741 527.31C100.201 528.87 97.751 533.57 88.501 530.69V530.68Z" fill="#7E9EB4"/>
<path d="M106.401 557.94C106.401 557.94 123.031 560.92 125.401 560.32C127.771 559.73 117.001 553.8 117.001 553.8C117.001 553.8 105.631 556.31 106.391 557.93L106.401 557.94Z" fill="#7E9EB4"/>
<path d="M74.3406 536.74C74.3406 536.74 57.7106 548.31 59.0406 552.61C60.3606 556.91 73.9106 559.7 80.1806 559.97C86.4406 560.24 80.8606 538.56 74.3406 536.74Z" fill="#86AABD"/>
<path d="M73.2654 544.952C74.2225 544.782 74.8897 544.032 74.7556 543.276C74.6215 542.52 73.7369 542.045 72.7798 542.215C71.8227 542.384 71.1556 543.135 71.2897 543.891C71.4238 544.646 72.3084 545.122 73.2654 544.952Z" fill="#3C6373"/>
<path d="M114.699 529.569C115.748 529.383 116.522 528.8 116.428 528.267C116.333 527.734 115.406 527.453 114.356 527.639C113.307 527.826 112.533 528.409 112.627 528.942C112.722 529.474 113.649 529.756 114.699 529.569Z" fill="#9EBFCE"/>
<path d="M105.683 529.652C106.733 529.466 107.507 528.883 107.412 528.35C107.318 527.817 106.39 527.536 105.341 527.722C104.291 527.908 103.517 528.491 103.612 529.024C103.706 529.557 104.634 529.838 105.683 529.652Z" fill="#9EBFCE"/>
<path d="M110.007 531.834C111.057 531.648 111.831 531.065 111.736 530.532C111.642 529.999 110.715 529.718 109.665 529.904C108.615 530.09 107.841 530.673 107.936 531.206C108.03 531.739 108.958 532.02 110.007 531.834Z" fill="#9EBFCE"/>
<path d="M121.355 530.817C122.405 530.63 123.179 530.048 123.084 529.515C122.99 528.982 122.062 528.701 121.013 528.887C119.963 529.073 119.189 529.656 119.283 530.189C119.378 530.722 120.305 531.003 121.355 530.817Z" fill="#9EBFCE"/>
<path d="M103.244 534.031C104.293 533.845 105.067 533.262 104.973 532.729C104.878 532.196 103.951 531.915 102.901 532.101C101.852 532.287 101.078 532.87 101.172 533.403C101.267 533.936 102.194 534.217 103.244 534.031Z" fill="#9EBFCE"/>
<path d="M89.4409 536.052C90.4905 535.866 91.2646 535.283 91.1701 534.75C91.0755 534.217 90.1481 533.936 89.0986 534.122C88.049 534.308 87.2749 534.891 87.3694 535.424C87.464 535.957 88.3914 536.238 89.4409 536.052Z" fill="#9EBFCE"/>
<path d="M97.4595 532.112C98.509 531.925 99.2832 531.342 99.1886 530.81C99.0941 530.277 98.1666 529.995 97.1171 530.182C96.0676 530.368 95.2934 530.951 95.388 531.484C95.4825 532.017 96.41 532.298 97.4595 532.112Z" fill="#9EBFCE"/>
<path d="M495.641 341.51C495.641 341.51 517.151 345.7 535.351 314.97C553.551 284.24 527.771 261.19 520.861 259.73C515.421 258.57 512.661 272.47 519.271 286.15C526.981 302.11 502.381 324.6 495.301 327.4C488.231 330.2 483.651 340.63 495.641 341.52V341.51Z" fill="#FFE269"/>
<path d="M491.251 340.61C491.251 340.61 487.731 338.05 483.941 339.56C480.151 341.07 479.701 341.32 479.271 339.87C478.841 338.43 478.171 336.52 480.451 336.54C482.731 336.56 485.231 336.2 487.251 334.41C489.271 332.62 489.471 331.44 491.361 329.95C493.251 328.46 495.951 338.39 491.241 340.6L491.251 340.61Z" fill="#FFE269"/>
<path d="M515.034 331.965C515.903 331.061 516.027 329.77 515.311 329.081C514.594 328.392 513.309 328.565 512.44 329.469C511.571 330.372 511.447 331.663 512.163 332.353C512.88 333.042 514.165 332.868 515.034 331.965Z" fill="#F5CF4C"/>
<path d="M523.748 326.635C524.617 325.731 524.741 324.44 524.025 323.751C523.308 323.062 522.023 323.236 521.154 324.139C520.285 325.043 520.161 326.334 520.877 327.023C521.594 327.712 522.879 327.538 523.748 326.635Z" fill="#F5CF4C"/>
<path d="M527.801 282.164C528.67 281.26 528.794 279.969 528.078 279.28C527.361 278.591 526.076 278.764 525.207 279.668C524.337 280.571 524.214 281.862 524.93 282.552C525.646 283.241 526.932 283.067 527.801 282.164Z" fill="#F5CF4C"/>
<path d="M522.934 275.852C523.803 274.948 523.927 273.657 523.21 272.968C522.494 272.279 521.209 272.452 520.339 273.356C519.47 274.259 519.346 275.55 520.063 276.24C520.779 276.929 522.065 276.755 522.934 275.852Z" fill="#F5CF4C"/>
<path d="M378.641 162.92L378.181 165.16L378.821 169.75L380.111 170.9L380.471 169.16L379.891 164.58L378.641 162.92Z" fill="white"/>
<path d="M385.801 163.29L383.141 167.08L383.301 168.81L384.751 167.78L387.451 164.03L387.661 161.97L385.801 163.29Z" fill="white"/>
<path d="M391.321 157.72L389.761 156.34L389.751 158.62L391.281 163L392.771 163.88L392.791 162.1L391.321 157.72Z" fill="white"/>
<path d="M399.101 153.8L398.941 151.73L397.341 153.37L395.411 157.58L395.881 159.25L397.121 157.97L399.101 153.8Z" fill="white"/>
<path d="M372.361 155.97L369.451 159.58L369.491 161.31L371.011 160.38L373.961 156.83L374.311 154.78L372.361 155.97Z" fill="white"/>
<path d="M367.551 161.95L367.051 164.17L367.611 168.77L368.881 169.95L369.271 168.21L368.781 163.63L367.551 161.95Z" fill="white"/>
<path d="M382.171 155.28L380.721 153.79L380.541 156.06L381.741 160.54L383.171 161.53L383.311 159.75L382.171 155.28Z" fill="white"/>
<path d="M374.511 161.06L372.891 165.41L373.481 167.04L374.621 165.68L376.301 161.38L375.981 159.32L374.511 161.06Z" fill="white"/>
<path d="M405.671 172.42L403.261 176.38L403.521 178.09L404.911 176.97L407.361 173.06L407.441 170.99L405.671 172.42Z" fill="white"/>
<path d="M408.281 177.06L407.311 178.49L409.091 178.62L413.551 177.43L415.021 175.97L412.751 175.81L408.281 177.06Z" fill="white"/>
<path d="M420.211 172.95L418.761 174.7L417.171 179.06L417.771 180.68L418.911 179.31L420.541 175L420.211 172.95Z" fill="white"/>
<path d="M407.681 163.3L409.251 161.94L406.991 161.63L402.451 162.58L401.391 163.94L403.151 164.19L407.681 163.3Z" fill="white"/>
<path d="M394.761 167.74L394.461 169.45L396.131 168.84L399.711 165.93L400.461 163.99L398.321 164.78L394.761 167.74Z" fill="white"/>
<path d="M413.061 171.49L415.011 167.31L414.841 165.24L413.261 166.88L411.351 171.11L411.831 172.78L413.061 171.49Z" fill="white"/>
<path d="M407.671 166.52L405.431 166.93L401.421 169.27L400.841 170.9L402.591 170.57L406.611 168.3L407.671 166.52Z" fill="white"/>
<path d="M388.47 200.72C396.528 200.72 403.06 194.188 403.06 186.13C403.06 178.072 396.528 171.54 388.47 171.54C380.412 171.54 373.88 178.072 373.88 186.13C373.88 194.188 380.412 200.72 388.47 200.72Z" fill="white"/>
<path d="M367.63 201.22C375.688 201.22 382.22 194.688 382.22 186.63C382.22 178.572 375.688 172.04 367.63 172.04C359.572 172.04 353.04 178.572 353.04 186.63C353.04 194.688 359.572 201.22 367.63 201.22Z" fill="white"/>
<path d="M406.25 212.36C414.308 212.36 420.84 205.828 420.84 197.77C420.84 189.712 414.308 183.18 406.25 183.18C398.192 183.18 391.66 189.712 391.66 197.77C391.66 205.828 398.192 212.36 406.25 212.36Z" fill="white"/>
<path d="M379.56 227.83C400.51 232.17 421.02 218.71 425.36 197.75L349.48 182.03C345.14 202.98 358.6 223.49 379.56 227.83Z" fill="#F27B9B"/>
<path d="M472.701 18.8801C472.701 18.8801 489.621 12.8401 490.001 11.1101C490.381 9.38009 488.401 1.28011 494.121 0.350107C499.831 -0.579893 502.711 9.16011 500.671 12.7301C498.631 16.3001 506.501 15.0101 507.111 21.8901C507.711 28.7701 497.841 25.2401 494.781 22.1101C491.721 18.9901 472.261 31.0001 472.261 31.0001C472.261 31.0001 466.961 21.0201 472.701 18.8801Z" fill="#FEE9D9"/>
<path d="M480.93 10.8C480.93 10.8 460.05 15.0901 451.32 11.1401C442.59 7.18006 397.78 -9.63995 373.04 10.5101C373.04 10.5101 417.6 38.34 405.86 79.22C405.86 79.22 436.14 69.67 449.39 56C462.63 42.33 483.08 33.9201 486.71 29.2601C490.34 24.6001 485.33 13.5501 480.93 10.7901V10.8Z" fill="#C2464C"/>
<path d="M483.64 13.44C482.76 12.3 481.83 11.36 480.93 10.79C480.93 10.79 480.9 10.79 480.86 10.8C480.79 13.44 480.52 16.45 479.9 19.87C479.01 17.61 477.97 15.27 476.77 12.87C476.55 12.44 476.34 12.03 476.12 11.61C475.2 11.75 474.18 11.89 473.08 12.03C473.45 12.73 473.82 13.44 474.18 14.17C476.14 18.08 477.59 21.78 478.73 25.29C477.88 28.63 476.74 32.26 475.21 36.19C475.05 36.6 474.89 36.99 474.73 37.38C476.15 36.53 477.5 35.73 478.74 34.98C479.28 33.47 479.8 32 480.24 30.58C480.49 31.64 480.71 32.66 480.9 33.66C481.88 33.05 482.77 32.47 483.56 31.93C483.1 29.77 482.52 27.49 481.77 25.12C482.85 20.71 483.41 16.82 483.65 13.43L483.64 13.44Z" fill="#993038"/>
<path d="M466.001 23.51C466.541 19.37 466.66 15.76 466.54 12.67C465.56 12.73 464.581 12.77 463.591 12.79C463.661 14.47 463.661 16.29 463.551 18.3C462.551 16.33 461.541 14.51 460.531 12.78C459.321 12.74 458.131 12.66 457.001 12.53C458.421 14.82 459.83 17.34 461.23 20.13C461.87 21.41 462.441 22.67 462.991 23.91C462.401 28.2 461.351 33.06 459.641 38.51C458.481 42.21 457.161 45.54 455.741 48.55C455.311 41.29 453.411 31.85 448.141 20.99C448.491 16.35 448.261 12.58 447.831 9.66003C446.891 9.29003 445.821 8.89002 444.651 8.46002C445.011 10.33 445.311 12.73 445.361 15.66C443.471 12.28 441.571 9.35003 439.701 6.78003C438.201 6.30003 436.6 5.82003 434.91 5.34003C438.2 9.35003 441.691 14.55 445.061 21.28C445.091 21.35 445.121 21.41 445.151 21.48C444.671 27.07 443.331 33.96 440.401 42.15C439.861 43.67 439.291 45.12 438.701 46.52C437.601 40.37 435.441 33.22 431.501 25.35C430.321 22.99 429.131 20.82 427.931 18.81C428.671 12.81 428.651 7.78005 428.271 3.64005C427.291 3.42005 426.291 3.20002 425.281 2.99002C425.641 6.26002 425.771 10.18 425.421 14.8C421.231 8.51002 417.131 4.18002 413.641 1.21002C411.461 1.00002 409.251 0.850039 407.041 0.790039C407.261 5.00004 407.081 10.07 406.141 16.07C401.291 9.74004 396.741 5.91002 393.351 3.65002C393.461 2.96002 393.521 2.33003 393.611 1.66003C391.211 2.06003 388.851 2.61003 386.561 3.34003C386.611 3.36003 386.651 3.40003 386.701 3.41003C386.741 3.42003 388.041 3.83003 390.181 5.09003C389.841 7.02003 389.431 9.04003 388.931 11.16C385.351 26.16 378.801 35.78 373.771 41.31C374.131 42.33 374.511 43.36 374.921 44.4C380.331 38.81 387.751 28.56 391.751 11.83C392.161 10.1 392.521 8.43004 392.821 6.82004C396.221 9.27004 400.721 13.36 405.441 19.99C405.201 21.19 404.941 22.41 404.641 23.68C398.321 50.16 382.761 59.86 382.601 59.96C382.561 59.98 382.541 60.02 382.511 60.04C383.001 60.88 383.501 61.69 384.011 62.48C384.041 62.46 384.071 62.45 384.101 62.43C384.781 62.02 400.831 52.09 407.461 24.34C407.541 23.99 407.611 23.66 407.691 23.31C409.351 25.91 411.031 28.83 412.681 32.13C414.891 36.54 416.501 40.72 417.671 44.62C410.531 59.45 401.231 65.26 401.111 65.33C400.431 65.75 400.211 66.63 400.621 67.32C401.011 67.96 401.801 68.19 402.461 67.89C402.511 67.87 402.561 67.84 402.601 67.81C403.091 67.51 411.621 62.23 418.811 48.84C421.591 60.68 420.271 69.24 419.521 72.55C416.591 74.81 414.621 75.75 414.571 75.78C414.341 75.89 414.17 76.05 414.04 76.24C417.27 74.99 421.21 73.38 425.35 71.45C428.89 68.12 432.961 63.4 436.751 56.93C436.781 60.89 436.381 63.93 436.011 65.92C437.131 65.27 438.221 64.6 439.301 63.91C439.691 60.93 439.921 56.86 439.461 51.87C440.771 49.19 442.02 46.27 443.16 43.08C445.39 36.85 446.731 31.34 447.491 26.54C451.901 37.16 452.961 46.15 452.891 52.58C455.011 50.68 457.251 48.89 459.521 47.22C460.561 44.78 461.541 42.15 462.431 39.32C463.591 35.62 464.451 32.19 465.091 29.01C466.681 33.47 467.671 37.57 468.271 41.29C469.191 40.71 470.09 40.15 470.98 39.6C470.09 34.77 468.551 29.34 466.011 23.43L466.001 23.51ZM410.021 2.09003C414.121 5.24003 419.521 10.59 424.951 19.49C424.551 22.46 423.971 25.66 423.141 29.12C422.111 33.42 420.841 37.26 419.441 40.71C418.341 37.59 416.981 34.32 415.271 30.9C413.041 26.45 410.771 22.66 408.531 19.4C409.811 12.63 410.171 6.89004 410.021 2.10004V2.09003ZM436.421 51.49C432.121 59.97 427.141 65.82 423.021 69.64C423.721 64.45 423.93 55.83 420.79 44.92C422.77 40.6 424.571 35.59 425.961 29.79C426.481 27.59 426.911 25.5 427.261 23.49C427.821 24.52 428.381 25.57 428.931 26.68C433.711 36.23 435.731 44.7 436.421 51.5V51.49Z" fill="#993038"/>
<path d="M405.473 79.5678C412.136 76.5018 410.399 58.5041 401.594 39.3687C392.789 20.2333 380.249 7.20641 373.586 10.2724C366.924 13.3383 368.661 31.3361 377.466 50.4715C386.271 69.6069 398.811 82.6337 405.473 79.5678Z" fill="#F37888"/>
<path d="M402.469 76.9327C406.949 74.871 404.143 59.2085 396.201 41.9495C388.26 24.6906 378.189 12.3707 373.709 14.4323C369.229 16.494 372.035 32.1565 379.977 49.4155C387.919 66.6745 397.989 78.9943 402.469 76.9327Z" fill="#DA5D68"/>
<path d="M393.072 60.8376C394.818 60.0342 393.73 53.941 390.64 47.2281C387.551 40.5151 383.632 35.7245 381.886 36.5279C380.14 37.3314 381.229 43.4246 384.318 50.1375C387.407 56.8505 391.326 61.6411 393.072 60.8376Z" fill="#FEE9D9"/>
<path d="M366.709 656.345C456.834 638.598 524.69 597.775 518.268 565.165C511.847 532.555 433.58 520.506 343.455 538.253C253.33 556 185.474 596.823 191.896 629.433C198.317 662.044 276.584 674.092 366.709 656.345Z" fill="#644F42"/>
<path d="M251.665 506.949C301.085 498.181 334.751 455.018 326.861 410.541C318.97 366.064 272.511 337.116 223.091 345.884C173.671 354.651 140.005 397.814 147.895 442.291C155.786 486.768 202.245 515.716 251.665 506.949Z" fill="#F280A4"/>
<path d="M163.561 402.8C179.831 402.8 193.021 389.61 193.021 373.34C193.021 357.07 179.831 343.88 163.561 343.88C147.29 343.88 134.101 357.07 134.101 373.34C134.101 389.61 147.29 402.8 163.561 402.8Z" fill="#F280A4"/>
<path d="M272.501 368.84C286.717 368.84 298.241 357.316 298.241 343.1C298.241 328.884 286.717 317.36 272.501 317.36C258.285 317.36 246.761 328.884 246.761 343.1C246.761 357.316 258.285 368.84 272.501 368.84Z" fill="#F280A4"/>
<path d="M307.19 520.48C307.75 527.02 309.18 543.82 298.05 557.25C289.11 568.04 277.07 570.6 263.51 573.5C251.91 575.98 236.25 579.33 223.15 572.33C206.85 563.62 204.9 544.44 203.49 530.59C202.52 521 201.47 510.75 207.4 498.95C214.05 485.72 226.88 472.93 245.07 469.65C270.35 465.09 288.18 481.59 290.67 483.97C304.96 497.67 306.7 514.89 307.18 520.48H307.19Z" fill="#F280A4"/>
<path d="M249.033 409.496C251.156 404.476 249.678 399.053 245.731 397.383C241.784 395.713 236.863 398.429 234.739 403.45C232.615 408.47 234.093 413.893 238.04 415.563C241.987 417.233 246.909 414.517 249.033 409.496Z" fill="#462D20"/>
<path d="M297.041 405.433C299.963 402.704 299.315 397.262 295.594 393.278C291.873 389.295 286.488 388.278 283.566 391.008C280.644 393.737 281.292 399.179 285.013 403.163C288.734 407.146 294.119 408.163 297.041 405.433Z" fill="#462D20"/>
<path d="M256.63 414.1C256.63 414.1 266.55 407.21 280.83 409.81C282.33 418.29 269.68 437.41 256.63 414.1Z" fill="#462D20"/>
<path d="M301.381 436.54C298.941 448.5 277.561 452.63 276.041 452.9C274.011 453.26 253.391 457.05 246.621 446.25C246.291 445.72 243.141 440.55 245.161 436.15C247.561 430.91 255.341 432.81 271.961 429.89C288.441 427 294.931 422.74 299.141 426.74C302.621 430.04 301.481 436.06 301.381 436.54Z" fill="#971F5F"/>
<path d="M254.24 452.07C254.24 452.07 270.54 429.57 294.06 446.03C290.35 448.17 283.53 451.4 275.53 452.99C267.54 454.58 258.2 454.1 254.24 452.07Z" fill="#D54F98"/>
<path d="M220.67 440.27C227.369 440.27 232.8 434.839 232.8 428.14C232.8 421.441 227.369 416.01 220.67 416.01C213.971 416.01 208.54 421.441 208.54 428.14C208.54 434.839 213.971 440.27 220.67 440.27Z" fill="#EE3C92"/>
<path d="M325.32 403.82C326.34 407.57 327.03 410.08 325.78 412.73C324.23 416.04 320.59 417.69 317.72 418C312.27 418.59 306.12 414.7 304.71 408.54C303.28 402.31 307.25 396.16 312.3 394.36C312.82 394.17 316.8 392.82 320.32 394.87C323.35 396.63 324.23 399.85 325.31 403.82H325.32Z" fill="#EE3C92"/>
<path d="M347.3 500.31C348.73 495.16 346.69 490.8 346.35 490.11C345.4 488.16 343.81 486.07 339.24 483.13C335.18 480.51 330.17 478.12 321.62 475.87C317.03 474.66 310.7 473.31 302.98 472.59C302.13 472.33 297.57 471.01 292.78 473.54C289.75 475.14 287.33 477.89 286.24 481.42C284.05 488.48 288.01 495.98 295.07 498.16C299.61 497.59 306.02 497.43 312.92 499.78C325.03 503.9 328.44 512.25 336.13 511.01C341.25 510.18 345.85 505.49 347.29 500.31H347.3Z" fill="#F280A4"/>
<path d="M231.703 496.009L205.857 500.594C201.403 501.384 198.433 505.635 199.224 510.089L216.183 605.686C216.973 610.14 221.224 613.11 225.678 612.32L251.524 607.734C255.978 606.944 258.948 602.693 258.158 598.24L241.198 502.642C240.408 498.189 236.157 495.219 231.703 496.009Z" fill="#F280A4"/>
<path d="M288.972 482.95L263.126 487.535C258.672 488.325 255.702 492.576 256.492 497.03L272.253 585.872C273.044 590.326 277.295 593.296 281.748 592.506L307.595 587.921C312.048 587.13 315.018 582.88 314.228 578.426L298.467 489.583C297.677 485.129 293.426 482.16 288.972 482.95Z" fill="#F280A4"/>
<path d="M364.501 644.743C454.627 626.996 522.829 587.935 516.835 557.498C510.842 527.06 432.922 516.773 342.797 534.52C252.671 552.267 184.469 591.329 190.463 621.766C196.456 652.203 274.376 662.491 364.501 644.743Z" fill="#6C5B52"/>
<path d="M333.55 554.91C355.432 549.001 371.953 539.699 370.45 534.133C368.947 528.566 349.99 528.843 328.107 534.752C306.225 540.66 289.705 549.962 291.208 555.529C292.711 561.095 311.668 560.818 333.55 554.91Z" fill="#644F42"/>
<path d="M289.466 543.386C301.201 541.305 308.86 529.165 306.573 516.271C304.285 503.378 292.918 494.614 281.183 496.696C269.448 498.777 261.789 510.917 264.076 523.811C266.364 536.704 277.731 545.468 289.466 543.386Z" fill="#EDC2DB"/>
<path d="M289.111 525.88C289.111 525.88 288.831 524.65 280.591 523.11C272.351 521.58 236.101 514.94 236.101 514.94C236.101 514.94 234.971 513.86 233.221 516.17C231.471 518.48 227.871 521.05 231.301 522.32C236.591 524.28 278.081 528.97 280.941 529.96C282.111 530.36 282.851 531.15 282.851 531.15C283.051 531.41 283.271 531.69 283.481 532.01C283.691 532.33 283.881 532.64 284.041 532.93C284.201 532.25 284.451 531.47 284.841 530.67C286.061 528.13 287.971 526.64 289.111 525.89V525.88Z" fill="#273337"/>
<path d="M367.971 512.6C367.971 512.6 374.561 526.23 361.301 537.13C348.041 548.03 309.741 557.9 295.681 551.27C287.451 549.37 283.471 536.14 283.471 536.14L367.971 512.6Z" fill="#6E7073"/>
<path d="M283.821 533.97C283.681 534.85 283.451 536.48 284.181 538.18C284.641 538.92 285.261 539.34 285.681 539.58C291.051 542.72 297.131 542.82 297.131 542.82C309.231 543.02 318.961 541.35 320.961 540.99C323.421 540.56 326.311 540.04 329.501 539.27C345.561 535.36 369.641 524.55 368.641 514.78C368.571 514.14 368.181 512.6 367.061 511.21C365.551 509.35 363.371 508.63 359.771 507.99C351.701 506.57 345.211 507.12 343.471 507.29C340.821 507.54 338.611 507.91 336.091 508.34C334.621 508.59 331.501 509.13 327.431 510.05C323.521 510.94 316.631 512.52 308.101 515.66C303.001 517.54 299.831 519.04 297.871 520.03C297.171 520.38 293.271 522.38 289.101 525.71C287.911 526.66 286.571 527.82 285.441 529.68C284.281 531.59 283.951 533.22 283.831 533.95L283.821 533.97Z" fill="#A2A1A1"/>
<path d="M328.554 535.777C350.723 530.365 367.448 520.871 365.91 514.572C364.372 508.273 345.154 507.555 322.985 512.967C300.815 518.38 284.09 527.874 285.628 534.172C287.166 540.471 306.384 541.19 328.554 535.777Z" fill="#273337"/>
<path d="M285.48 533.84C285.51 534.09 285.59 534.46 285.78 534.86C285.89 535.1 286.06 535.39 286.4 535.77C287.06 536.51 287.78 536.93 288.03 537.07C289.46 537.88 290.88 538.26 291.44 538.4C293.35 538.88 294.88 539.06 295.7 539.14C298.87 539.47 301.33 539.45 301.85 539.44C307.16 539.38 311.6 538.86 312.59 538.73C315.56 538.37 321.31 537.56 328.49 535.81C335.38 534.13 340.4 532.35 343.34 531.29C346.53 530.15 348.51 529.32 350.19 528.57C350.19 528.57 354.74 526.52 358.72 523.94C359.47 523.45 360.35 522.85 361.32 522.07C361.74 521.74 362.41 521.18 363.2 520.42C364.4 519.27 364.81 518.65 365.03 518.28C365.32 517.79 365.5 517.38 365.6 517.12C365.74 516.74 365.89 516.34 365.94 515.79C365.97 515.45 365.97 514.9 365.77 514.23C359.77 511.54 355.34 511.66 352.38 512.28C344.75 513.89 342.44 519.79 335.58 519.62C330.52 519.5 330.54 516.26 326.1 516.16C316.61 515.93 312.92 530.61 303.72 530.05C300.06 529.82 299.07 527.4 294.97 527.81C290.66 528.25 287.46 531.37 285.48 533.82V533.84Z" fill="#FEBE3D"/>
<path d="M289.531 525.39C289.531 525.39 289.251 524.16 281.011 522.62C272.771 521.09 236.521 514.45 236.521 514.45C236.521 514.45 235.391 513.37 233.641 515.68C231.891 517.99 228.291 520.56 231.721 521.83C237.011 523.79 278.501 528.48 281.361 529.47C282.531 529.87 283.271 530.66 283.271 530.66C283.811 531.23 284.081 531.84 284.231 532.27C284.491 531.61 284.831 530.9 285.261 530.17C286.591 527.9 288.241 526.37 289.531 525.39Z" fill="#4A5860"/>
<path d="M321.261 528.29C322.921 526.45 325.121 526.57 327.221 527.51C328.991 528.3 330.621 529.16 332.621 529.1C336.201 528.99 340.561 528.22 342.681 525.02C343.081 524.42 342.111 523.86 341.721 524.46C340.561 526.22 338.591 527.04 336.591 527.47C334.451 527.92 332.081 528.34 329.981 527.55C328.321 526.92 326.781 525.87 324.961 525.71C323.251 525.56 321.611 526.26 320.471 527.53C319.991 528.06 320.781 528.85 321.261 528.32V528.29Z" fill="#F9B437"/>
<path d="M293.031 535.91C294.691 534.07 296.891 534.19 298.991 535.13C300.761 535.92 302.391 536.78 304.391 536.72C307.971 536.61 312.331 535.84 314.451 532.64C314.851 532.04 313.881 531.48 313.491 532.08C312.331 533.84 310.361 534.66 308.361 535.09C306.221 535.54 303.851 535.96 301.751 535.17C300.091 534.54 298.551 533.49 296.731 533.33C295.021 533.18 293.381 533.88 292.241 535.15C291.761 535.68 292.551 536.47 293.031 535.94V535.91Z" fill="#F9B437"/>
<path d="M348.11 519.75C348.81 518.62 350 518.42 351.21 518.7C352.42 518.98 353.51 519.36 354.75 519.15C355.99 518.94 357.29 518.47 358.39 517.88C359.39 517.34 360.26 516.55 360.71 515.49C360.99 514.84 360.03 514.27 359.75 514.93C359.24 516.12 358.19 516.83 357.02 517.3C355.76 517.8 354.39 518.31 353.03 518.02C351.91 517.78 350.81 517.34 349.65 517.5C348.59 517.65 347.7 518.3 347.14 519.2C346.76 519.81 347.73 520.37 348.1 519.76L348.11 519.75Z" fill="#F9B437"/>
<path d="M259.35 315.67C258.13 308.8 252.35 304.08 246.43 305.13C242.85 305.76 240.05 308.37 238.67 311.85C236.19 308.03 232.05 305.82 227.82 306.57C223.94 307.26 220.98 310.26 219.74 314.18C217.32 311.97 214.18 310.85 211 311.41C205.09 312.46 201.28 318.88 202.5 325.75C203.39 330.74 206.68 334.58 210.68 335.92L215.22 345.11C213.13 346.55 211.96 349.4 212.5 352.42C213.2 356.35 216.51 359.05 219.89 358.45L252.48 352.67C255.86 352.07 258.04 348.4 257.34 344.46C256.84 341.66 255.02 339.52 252.8 338.71L253.55 329.07C257.86 326.83 260.36 321.41 259.34 315.66L259.35 315.67Z" fill="#EDC2DB"/>
<path d="M263.204 602.115C273.351 600.315 280.976 595.47 280.235 591.294C279.494 587.118 270.668 585.191 260.521 586.991C250.373 588.792 242.748 593.637 243.489 597.813C244.23 601.989 253.056 603.915 263.204 602.115Z" fill="#644F42"/>
<path d="M415.996 549.351C423.218 548.07 428.645 544.625 428.118 541.656C427.591 538.686 421.31 537.318 414.089 538.599C406.867 539.88 401.44 543.326 401.966 546.295C402.493 549.264 408.774 550.632 415.996 549.351Z" fill="#644F42"/>
<path d="M277.765 644.908C288.927 643.92 297.241 634.819 296.335 624.581C295.428 614.343 285.645 606.845 274.482 607.833C263.32 608.822 255.006 617.923 255.913 628.161C256.819 638.398 266.603 645.897 277.765 644.908Z" fill="#644F42"/>
<path d="M260.521 523.49C259.211 528.79 255.201 531.64 254.551 532.08C252.721 533.34 250.251 534.4 244.701 534.72C239.741 535.01 236.121 534.47 225.321 532.33C213.791 530.04 210.491 529.16 206.411 526.99C203.561 525.47 200.491 523.4 198.391 519.93C197.791 518.93 196.521 516.8 196.251 513.74C196.231 513.53 196.071 511.59 196.511 509.64C197.531 505.09 201.561 501.56 204.441 500.2C211.401 496.92 215.851 504.33 229.561 506.71C243.741 509.17 249.571 503.32 255.931 508.37C260.091 511.68 261.841 518.16 260.521 523.48V523.49Z" fill="#F280A4"/>
<path d="M245.01 535.23C243.84 535.23 242.72 535.14 241.63 535.01C234.39 534.2 226.46 532.69 218.07 530.52L218.18 530.09C226.56 532.25 234.46 533.76 241.68 534.57C244.75 534.92 248.11 535.02 251.83 533.44C253.94 532.54 255.83 531.05 257.61 528.88C263.13 522.14 259.64 513.97 259.6 513.89C259.12 512.55 258.43 511.35 257.54 510.31C255.98 508.5 253.87 507.24 251.26 506.58C248.98 506 247.43 506.27 244.86 506.71C243.48 506.95 241.77 507.24 239.49 507.49C237.13 507.74 234.74 507.87 232.4 507.88V507.43C234.73 507.43 237.1 507.29 239.45 507.04C241.71 506.8 243.42 506.5 244.79 506.27C247.41 505.82 249 505.54 251.37 506.15C254.07 506.84 256.26 508.14 257.87 510.02C258.8 511.1 259.52 512.35 260.01 513.72C260.04 513.79 263.64 522.21 257.95 529.16C256.13 531.39 254.18 532.92 252 533.85C249.51 534.91 247.19 535.23 245.01 535.23Z" fill="#E977A2"/>
<path d="M487.63 557.53L486.03 544.64C485.71 542.06 483.27 540.3 480.72 540.8L423.95 552.11C421.42 552.61 419.83 555.16 420.5 557.65L421.1 559.91C424.02 559.84 426.69 562.14 427.28 565.43C427.79 568.29 426.55 570.99 424.4 572.26L431.26 597.92C431.88 600.23 434.2 601.65 436.54 601.14L439.21 600.55C439.32 598.4 440.88 596.53 443.09 596.14C445.17 595.77 447.15 596.83 448.07 598.61L487.57 589.96C489.83 589.47 491.34 587.33 491.05 585.04L489.21 570.27C486.62 569.94 484.37 567.77 483.84 564.79C483.26 561.55 484.93 558.5 487.62 557.52L487.63 557.53Z" fill="#FFEAB9"/>
<path d="M443.61 561.8C444.819 561.8 445.8 560.819 445.8 559.61C445.8 558.4 444.819 557.42 443.61 557.42C442.4 557.42 441.42 558.4 441.42 559.61C441.42 560.819 442.4 561.8 443.61 561.8Z" fill="#FFD38E"/>
<path d="M476.67 554.72C477.88 554.72 478.86 553.74 478.86 552.53C478.86 551.321 477.88 550.34 476.67 550.34C475.461 550.34 474.48 551.321 474.48 552.53C474.48 553.74 475.461 554.72 476.67 554.72Z" fill="#FFD38E"/>
<path d="M454.31 587.75C455.52 587.75 456.5 586.77 456.5 585.56C456.5 584.351 455.52 583.37 454.31 583.37C453.101 583.37 452.12 584.351 452.12 585.56C452.12 586.77 453.101 587.75 454.31 587.75Z" fill="#FFD38E"/>
<path d="M480.541 582.93C481.75 582.93 482.731 581.95 482.731 580.74C482.731 579.531 481.75 578.55 480.541 578.55C479.331 578.55 478.351 579.531 478.351 580.74C478.351 581.95 479.331 582.93 480.541 582.93Z" fill="#FFD38E"/>
<path d="M467.351 571.58C469.858 571.58 471.891 569.547 471.891 567.04C471.891 564.533 469.858 562.5 467.351 562.5C464.843 562.5 462.811 564.533 462.811 567.04C462.811 569.547 464.843 571.58 467.351 571.58Z" fill="#FFD38E"/>
<path d="M437.36 586.12C439.868 586.12 441.9 584.087 441.9 581.58C441.9 579.073 439.868 577.04 437.36 577.04C434.853 577.04 432.82 579.073 432.82 581.58C432.82 584.087 434.853 586.12 437.36 586.12Z" fill="#FFD38E"/>
<path d="M287.15 620.9C287.15 620.9 288.85 626.18 289.86 627.11C290.87 628.03 296.69 623.87 295.74 622.53C294.79 621.19 290.9 618.05 290.9 618.05C290.9 618.05 292.58 618.63 294.32 616.83C296.06 615.03 295.08 611.44 292.83 610.63C290.58 609.82 287.48 609.84 283.96 611.99C280.44 614.14 278.91 618.22 279.92 621.5C280.93 624.79 283.73 626.15 285.7 624.3C287.67 622.45 287.14 620.91 287.14 620.91L287.15 620.9Z" fill="#FEE9D9"/>
<path d="M287.15 620.9C287.15 620.9 288.87 624.64 284.2 625.65C279.52 626.67 275.93 617.07 283.97 611.98C292 606.88 298.39 611.96 296.4 615.28C294.42 618.6 290.94 618.74 290.35 617.57C289.75 616.4 292.23 618.17 293.57 616.16C294.91 614.14 293.21 609.7 287.93 610.63C281.77 611.71 279.74 617.26 280.21 619.91C280.67 622.56 284.06 625.12 285.45 623.61C286.84 622.1 284.44 620.79 285.29 620.18C286.14 619.57 287.14 620.9 287.14 620.9H287.15Z" fill="#BE9381"/>
<path d="M287.15 620.9C287.15 620.9 287.77 623.03 288.52 624.64C289.27 626.25 289.44 627.27 290.49 627.22C291.54 627.17 296.24 624.96 295.84 622.82C295.44 620.68 290.97 617.76 290.61 617.51C290.25 617.26 291.21 618.83 292.47 619.98C293.73 621.13 295.94 622.29 294.81 623.65C293.68 625.01 290.77 627.85 289.74 626.45C288.71 625.05 287.15 620.9 287.15 620.9Z" fill="#BE9381"/>
<path d="M265.01 629.29C265.01 629.29 269.23 632.9 270.57 633.15C271.91 633.41 274.69 626.81 273.18 626.17C271.67 625.53 266.71 624.89 266.71 624.89C266.71 624.89 268.44 624.5 268.98 622.05C269.52 619.6 266.8 617.06 264.46 617.55C262.12 618.04 259.49 619.68 257.62 623.35C255.75 627.02 256.58 631.3 259.16 633.57C261.74 635.84 264.84 635.53 265.55 632.92C266.26 630.31 265 629.28 265 629.28L265.01 629.29Z" fill="#FEE9D9"/>
<path d="M265.01 629.29C265.01 629.29 268.43 631.57 264.99 634.89C261.54 638.21 253.46 631.92 257.63 623.37C261.8 614.82 269.9 615.8 269.95 619.66C270 623.52 267.12 625.46 266 624.78C264.88 624.1 267.92 624.31 268 621.89C268.08 619.47 264.31 616.58 260.3 620.14C255.62 624.29 256.8 630.08 258.59 632.09C260.38 634.1 264.6 634.51 264.99 632.49C265.39 630.47 262.65 630.62 263.06 629.65C263.47 628.68 265.02 629.29 265.02 629.29H265.01Z" fill="#BE9381"/>
<path d="M265.01 629.29C265.01 629.29 266.66 630.78 268.14 631.76C269.62 632.74 270.31 633.52 271.17 632.93C272.04 632.34 274.89 627.99 273.43 626.38C271.97 624.77 266.63 624.62 266.19 624.6C265.75 624.58 267.39 625.41 269.07 625.73C270.75 626.05 273.24 625.88 272.99 627.63C272.74 629.38 271.75 633.33 270.14 632.67C268.52 632.02 265.02 629.3 265.02 629.3L265.01 629.29Z" fill="#BE9381"/>
<path d="M282.99 639.12C282.99 639.12 288.41 640.34 289.71 639.94C291.02 639.54 290.39 632.41 288.76 632.55C287.12 632.69 282.44 634.44 282.44 634.44C282.44 634.44 283.79 633.29 283.12 630.87C282.45 628.45 278.86 627.47 277.03 629C275.19 630.53 273.63 633.2 273.69 637.33C273.75 641.45 276.49 644.84 279.83 645.64C283.17 646.44 285.77 644.72 285.18 642.08C284.59 639.44 283 639.11 283 639.11L282.99 639.12Z" fill="#FEE9D9"/>
<path d="M282.99 639.12C282.99 639.12 287.08 639.54 285.58 644.08C284.08 648.62 273.99 646.84 273.69 637.33C273.38 627.82 281 624.9 282.85 628.3C284.7 631.69 283.06 634.76 281.75 634.67C280.44 634.59 283.23 633.35 282.17 631.18C281.11 629 276.43 628.21 274.54 633.22C272.34 639.08 276.09 643.64 278.61 644.59C281.13 645.54 285.05 643.92 284.46 641.95C283.87 639.98 281.52 641.39 281.43 640.34C281.34 639.29 282.99 639.11 282.99 639.11V639.12Z" fill="#BE9381"/>
<path d="M282.99 639.12C282.99 639.12 285.14 639.67 286.9 639.84C288.66 640.01 289.64 640.38 290.13 639.46C290.62 638.54 291.11 633.36 289.07 632.62C287.03 631.88 282.24 634.25 281.84 634.42C281.44 634.59 283.28 634.58 284.91 634.08C286.54 633.58 288.66 632.26 289.26 633.93C289.86 635.6 290.83 639.54 289.09 639.72C287.36 639.9 282.99 639.13 282.99 639.13V639.12Z" fill="#BE9381"/>
<path d="M421.521 529.56C421.521 529.56 421.521 529.56 421.521 529.55C420.131 527.8 414.601 525.54 413.561 523.95C412.801 522.79 413.301 521.59 411.901 521.94C409.981 522.41 411.901 521.94 410.831 524.53C410.061 526.41 408.611 528.5 407.511 529.95C406.961 530.49 406.481 531.08 406.091 531.72C406.071 531.74 406.051 531.76 406.051 531.76C406.051 531.76 406.051 531.76 406.051 531.78C405.111 533.34 404.701 535.15 405.031 536.97C405.821 541.44 410.661 544.33 415.831 543.41C421.001 542.49 424.551 538.12 423.761 533.65C423.481 532.05 422.671 530.66 421.521 529.57V529.56Z" fill="#FFEAB9"/>
<path d="M408.451 528.66C408.451 528.66 406.261 531.1 407.291 536.35C408.321 541.6 411.021 543.17 411.021 543.17C411.021 543.17 405.741 535.9 408.451 528.66Z" fill="#F8D494"/>
<path d="M417.44 527.06C417.44 527.06 420.55 528.56 421.4 533.84C422.24 539.13 420.02 541.57 420.02 541.57C421.05 541.59 422.55 532.13 417.45 527.06H417.44Z" fill="#F8D494"/>
<path d="M410.86 524.74C410.86 524.74 410.33 526.48 409.95 531.52C409.57 536.55 412.5 541.95 415.38 543.48C415.38 543.48 411.49 539.46 410.97 535.12C410.45 530.78 411.39 525.52 410.86 524.75V524.74Z" fill="#F8D494"/>
<path d="M413.321 524.3C413.321 524.3 414.501 525.67 416.851 530.06C419.201 534.46 418.671 540.51 416.641 543.03C416.641 543.03 418.601 537.84 417.351 533.71C416.091 529.58 413.151 525.2 413.321 524.29V524.3Z" fill="#F8D494"/>
<path d="M411.051 522.19C411.051 522.19 408.091 517.95 408.621 517.34C409.151 516.74 409.911 516.73 409.911 516.73C409.911 516.73 412.541 522.4 412.501 522.88C412.461 523.36 411.051 522.18 411.051 522.18V522.19Z" fill="#91B450"/>
<path d="M411.591 521.89C411.591 521.89 411.011 516.75 411.761 516.47C412.511 516.19 413.191 516.55 413.191 516.55C413.191 516.55 412.801 522.79 412.531 523.19C412.261 523.6 411.591 521.89 411.591 521.89Z" fill="#A8C65A"/>
<path d="M408.011 381.96C408.011 381.96 417.071 388.95 405.711 392.18C394.351 395.41 390.621 385.79 392.741 382.61C394.861 379.44 397.181 380.12 400.631 382.27C404.071 384.42 405.071 379.91 408.021 381.96H408.011Z" fill="#FDD7BD"/>
<path d="M404.691 384.53C404.691 384.53 400.731 385.56 399.351 384.45C397.971 383.35 399.051 383.46 400.971 383.64C402.891 383.82 404.071 382.99 404.641 383.55C405.211 384.11 404.961 384.46 404.691 384.53Z" fill="white"/>
<path d="M386.651 381.35C386.651 381.35 388.151 392.7 377.811 386.97C367.481 381.25 371.611 371.8 375.351 371.04C379.091 370.28 380.261 372.41 381.181 376.36C382.111 380.31 385.991 377.81 386.641 381.35H386.651Z" fill="#FDD7BD"/>
<path d="M382.49 380.84C382.49 380.84 378.96 378.78 378.76 377.02C378.56 375.26 379.24 376.11 380.48 377.59C381.72 379.07 383.14 379.32 383.15 380.11C383.16 380.91 382.73 380.98 382.5 380.84H382.49Z" fill="white"/>
<path d="M399.74 368.07C399.74 368.07 407.63 376.37 395.9 377.82C384.18 379.27 381.96 369.19 384.54 366.38C387.12 363.57 389.31 364.6 392.38 367.25C395.45 369.9 397.13 365.6 399.73 368.07H399.74Z" fill="#FDD7BD"/>
<path d="M396.07 370.1C396.07 370.1 392 370.51 390.81 369.21C389.62 367.91 390.66 368.19 392.54 368.66C394.41 369.13 395.7 368.49 396.18 369.13C396.66 369.77 396.35 370.08 396.08 370.1H396.07Z" fill="white"/>
<path d="M307.66 530.59L308.67 533.32L309.85 532.45C309.85 532.45 308.9 531.4 308.7 531.19C308.5 530.98 307.66 530.59 307.66 530.59Z" fill="#25B34B"/>
<path d="M333.53 521.59L334.54 524.32L335.72 523.45C335.72 523.45 334.77 522.4 334.57 522.19C334.37 521.98 333.53 521.59 333.53 521.59Z" fill="#25B34B"/>
<path d="M314.97 530.57L313.92 531.73L314.27 532.15L315.6 530.98L314.97 530.57Z" fill="#25B34B"/>
<path d="M319.56 526.07L318.51 527.22L318.86 527.65L320.19 526.48L319.56 526.07Z" fill="#25B34B"/>
<path d="M330.59 516.88L328.76 518.89L329.38 519.63L331.68 517.59L330.59 516.88Z" fill="#25B34B"/>
<path d="M312.42 529.94L312.49 530.38L313.13 530.41L313.56 529.74L312.42 529.94Z" fill="#25B34B"/>
<path d="M326.141 521.31L326.221 521.75L326.851 521.78L327.291 521.11L326.141 521.31Z" fill="#25B34B"/>
<path d="M310.99 534.86L311.07 535.3L311.7 535.33L312.14 534.66L310.99 534.86Z" fill="#25B34B"/>
<path d="M321.22 521.87L321.3 523.7L321.86 523.91L322.05 522.21L321.22 521.87Z" fill="#25B34B"/>
<path d="M321.74 530.49L321.82 532.32L322.38 532.53L322.56 530.83L321.74 530.49Z" fill="#25B34B"/>
<path d="M344.38 522.39L344.46 524.22L345.02 524.43L345.21 522.73L344.38 522.39Z" fill="#25B34B"/>
<path d="M359.095 599.899C389.056 593.999 412.188 583.348 410.762 576.108C409.337 568.869 383.893 567.783 353.933 573.683C323.972 579.582 300.84 590.234 302.266 597.473C303.691 604.713 329.135 605.799 359.095 599.899Z" fill="#E5E4E3"/>
<path d="M358.848 598.547C388.808 592.648 411.976 582.176 410.594 575.159C409.212 568.142 383.804 567.236 353.844 573.135C323.883 579.035 300.716 589.507 302.098 596.524C303.48 603.541 328.888 604.447 358.848 598.547Z" fill="white"/>
<path d="M337.08 485.42C337.18 485.11 343.68 464.84 343.68 464.84L350.05 466.88L343.45 487.46L337.08 485.42Z" fill="#F68A66"/>
<path d="M332.101 506.38C332.201 506.07 338.701 485.8 338.701 485.8L341.581 486.72L334.981 507.3L332.101 506.38Z" fill="#6C5B52"/>
<path d="M340.424 516.735C342.201 512.456 340.123 507.525 335.783 505.723C331.442 503.921 326.483 505.929 324.706 510.208C322.929 514.487 325.007 519.418 329.348 521.22C333.688 523.022 338.648 521.014 340.424 516.735Z" fill="#5F4C44"/>
<path d="M337.909 515.698C339.686 511.419 338.141 506.71 334.458 505.181C330.776 503.652 326.35 505.881 324.573 510.161C322.796 514.44 324.341 519.149 328.023 520.678C331.706 522.207 336.132 519.978 337.909 515.698Z" fill="#6C5B52"/>
<path d="M342.391 488C342.391 488 333.001 487.83 331.471 493.95C329.941 500.07 331.641 504.95 337.471 505.48C343.301 506.01 342.391 488 342.391 488Z" fill="#F280A4"/>
<path d="M331.541 508.95C330.121 510.63 326.541 514.51 326.561 519.77C326.561 520.99 326.771 523.15 328.131 525.7C329.191 526 330.261 526.29 331.321 526.59C331.841 524.67 332.351 522.75 332.871 520.84C333.651 520.51 336.021 519.38 337.511 516.68C337.901 515.97 338.871 514.01 338.651 511.43C338.491 509.5 337.741 508.01 337.341 507.44C337.031 507 336.391 506.24 336.131 506C336.101 505.98 336.041 505.88 335.921 505.79C335.851 505.73 335.781 505.7 335.741 505.68C335.111 505.98 334.251 506.46 333.331 507.2C333.331 507.2 332.401 507.95 331.541 508.96V508.95Z" fill="#FEBE3D"/>
<path d="M270.328 587.822C271.973 581.664 266.732 574.916 258.622 572.749C250.512 570.582 242.604 573.817 240.958 579.974C239.313 586.131 244.554 592.88 252.664 595.047C260.775 597.214 268.683 593.979 270.328 587.822Z" fill="white"/>
<path d="M259.18 591.25C262.715 591.25 265.58 588.385 265.58 584.85C265.58 581.316 262.715 578.45 259.18 578.45C255.646 578.45 252.78 581.316 252.78 584.85C252.78 588.385 255.646 591.25 259.18 591.25Z" fill="#FEBF10"/>
<path d="M349.77 588.76C349.99 587.45 355.69 575.6 367.39 574.97C379.09 574.33 383.04 563.25 388.91 558.83C394.78 554.42 408.11 555.27 408.11 555.27C408.11 555.27 409.03 565.54 408.59 567.18C408.15 568.82 399.07 564.27 392.57 569.65C386.07 575.03 382.83 583.99 374.98 585.95C367.14 587.91 358.46 589.52 356.45 595.43C356.45 595.43 348.89 593.81 349.76 588.76H349.77Z" fill="#F36F53"/>
<path d="M408.4 558.92C408.4 558.92 395.84 557.82 392.52 560.74C389.2 563.66 384.85 569.84 380.35 573.8C375.84 577.76 372.66 579.04 369.54 578.76C366.42 578.48 360.41 579.48 356.87 583.51C353.33 587.54 350.91 592.53 350.91 592.53L352.86 594.03C352.86 594.03 357.02 585.14 361.02 583.93C365.02 582.72 371.63 583.05 377.03 579.97C382.43 576.89 391.25 561.99 396.74 561.52C402.23 561.04 408.6 562.4 408.6 562.4L408.38 558.91L408.4 558.92Z" fill="#F9B7B1"/>
<path d="M373.311 592.45C373.871 591.68 381.251 585.92 388.931 589.21C396.611 592.5 402.641 586.67 407.791 585.71C412.941 584.75 421.181 589.51 421.181 589.51C421.181 589.51 418.521 596.36 417.721 597.27C416.921 598.18 412.561 592.4 406.701 593.78C400.841 595.16 395.941 599.86 390.311 598.63C384.681 597.4 378.631 595.68 375.481 598.83C375.481 598.83 371.161 595.41 373.321 592.45H373.311Z" fill="#F36F53"/>
<path d="M420.201 591.94C420.201 591.94 412.531 587.26 409.481 588.08C406.431 588.89 401.701 591.47 397.571 592.57C393.441 593.68 391.001 593.49 389.091 592.32C387.191 591.15 383.031 589.89 379.491 591.35C375.951 592.8 372.831 595.22 372.831 595.22L373.601 596.8C373.601 596.8 379.071 592.44 382.011 592.93C384.951 593.42 389.071 595.73 393.491 595.47C397.911 595.21 408.261 588.49 411.921 589.92C415.581 591.35 419.221 594.24 419.221 594.24L420.181 591.94H420.201Z" fill="#F9B7B1"/>
</svg>
