<svg width="478" height="347" viewBox="0 0 478 347" fill="none" xmlns="http://www.w3.org/2000/svg">
<path d="M290.12 202.56C290.12 202.56 283.07 202.04 279.18 199.73C275.29 197.42 267.65 193.57 261.39 204.02C255.13 214.47 272.48 222.97 275.85 223.08C276.07 224.85 275.65 226.58 278.53 228.3C281.41 230.03 282.36 230.54 287.8 225.34C293.94 220.82 299.25 214.42 299.25 214.42L296.75 206.96L290.11 202.55L290.12 202.56Z" fill="#DA8D73"/>
<path d="M464.341 247.57C464.341 247.57 481.931 259.88 475.671 271.95C469.411 284.01 456.761 273.28 456.761 273.28C456.761 273.28 454.061 277.63 450.541 274.23C447.021 270.84 448.371 264.61 448.371 264.61C448.371 264.61 461.411 248.17 464.341 247.57Z" fill="#DA8D73"/>
<path d="M288.931 253.3C284.541 253.04 281.281 249.19 277.561 250.65C271.281 252.17 269.341 259.54 273.971 264.41C278.001 268.81 286.021 269.78 290.821 269.79C308.861 270.99 306.351 247.96 288.931 253.3Z" fill="#3FACE1"/>
<path d="M354.24 162.16C354.33 161.81 355.55 156.78 352.12 153.17C349.85 150.78 346.911 150.46 346.041 150.4C345.231 150.34 342.48 150.25 339.97 152.08C336.55 154.57 335.171 159.47 336.521 162.77C337.931 166.21 342.661 168.78 342.661 168.78C342.661 168.78 334.521 174.12 323.181 172.85C322.361 176.59 322.051 179.64 321.921 181.72C321.921 181.72 321.791 183.72 321.771 190.93C330.151 198.6 339.921 206.73 351.161 214.83C363.191 223.5 374.741 230.58 385.271 236.34C386.031 239.05 393.06 251.63 394.13 252.4C395.2 253.17 407.6 244.39 407.6 244.39C407.6 244.39 412.421 246.84 424.031 244.71C425.931 242.06 433.511 220.25 435.551 202.8C437.591 185.35 435.401 170.28 435.401 170.28C434.561 170.12 433.281 169.77 431.921 168.94C429.851 167.66 428.78 165.96 428.09 164.83C427.27 163.49 426.9 162.4 426.33 160.69C425.62 158.58 425.261 157.52 425.401 156.51C425.701 154.33 427.581 152.88 428.641 152.21C427.301 149.63 425.14 146.06 421.75 142.42C418.96 139.42 416.461 137.59 413.801 135.66C410.411 133.2 406.591 130.3 401.031 128.21C395.381 126.09 387.47 124.52 387.47 124.52C386.88 127.02 386.03 130.51 384.94 134.66C381.03 149.59 379.55 152.11 378.01 154.08C376.9 155.49 373.25 159.93 366.72 161.94C361.18 163.64 356.42 162.72 354.25 162.16H354.24Z" fill="#DA8D73"/>
<path d="M337.71 116.79C336.34 116.82 334.42 116.99 332.25 117.64C323.85 120.15 319.72 127.43 318.85 129.06C313.77 138.58 317.08 148.15 318 150.51C320.14 156.02 323.63 159.54 325.67 161.31C325.07 163.02 324.52 165 324.02 167.2C323.47 169.62 323.05 172 323.18 172.85C324.42 173.04 326.07 173.21 328.03 173.17C329.14 173.15 331.98 173.02 335.48 171.99C338.49 171.1 340.9 169.87 342.66 168.78C341.45 168.17 339.03 166.72 337.32 163.85C336.48 162.44 336.05 161.1 335.83 160.08C335.84 159.28 335.98 156.34 338.24 153.74C338.99 152.87 340.98 150.88 344.17 150.46C348.59 149.87 351.7 152.78 352.12 153.18C352.71 153.85 353.68 155.13 354.2 157C354.85 159.32 354.47 161.28 354.24 162.17C355.58 162.52 357.31 162.85 359.35 162.91C361.52 162.98 363.38 162.73 364.79 162.44C366.34 162.11 368.45 161.49 370.74 160.25C373.11 158.97 374.83 157.49 375.97 156.36C377.87 154.49 378.97 152.72 379.62 151.48C380.33 150.13 380.74 148.91 381.55 146.47C382.2 144.53 382.67 142.9 382.99 141.77C384.48 136.02 385.97 130.27 387.46 124.53C391.12 125.48 394.49 126.39 397.54 127.24C400.88 128.17 402.2 128.57 403.95 129.46C404.98 129.99 406.33 130.83 408.99 132.5C410.53 133.47 411.79 134.28 412.67 134.84C414.83 136.39 417.23 138.32 419.69 140.69C422.15 143.06 424.16 145.38 425.79 147.48C426.73 149.06 427.68 150.63 428.62 152.21C428.2 152.41 426.88 153.1 426.07 154.66C425.21 156.33 425.48 157.9 425.58 158.34C426.1 159.88 426.62 161.42 427.14 162.96C427.36 163.65 427.73 164.54 428.34 165.48C429.13 166.69 430.02 167.52 430.68 168.03C431.14 168.49 431.92 169.17 433.07 169.67C433.99 170.07 434.82 170.22 435.4 170.28C435.88 170.43 436.77 170.63 437.63 170.25C439.52 169.41 439.54 166.51 439.54 166.1C439.56 162.71 436.49 160.49 436.04 160.17C436.9 158.56 438.18 155.68 438.47 151.87C438.8 147.36 437.57 143.86 436.82 142.12C436.43 140.39 435.64 137.82 433.91 135.11C431.76 131.74 429.16 129.72 427.55 128.65C425.72 127.44 423.43 126.2 420.67 125.3C416.01 123.78 414.21 124.59 410.39 122.68C406.91 120.94 405.04 118.6 404.62 118.05C403.81 116.99 402.97 115.59 401.8 112.04C399.74 105.75 400.41 104.14 399.08 100.69C397.62 96.8997 395.22 94.6998 392.1 91.8498C389.64 89.5998 384.96 85.4197 377.54 83.5297C367.87 81.0597 359.93 84.0897 357.49 85.0597C354.66 86.1897 347.52 89.1397 342.45 96.8897C336.87 105.4 337.43 114.12 337.71 116.81V116.79Z" fill="#3E3E3D"/>
<path d="M394.91 169.96C395.6 171 396.43 171.94 397.4 172.73C398.48 173.61 399.74 174.5 401.08 174.92C403.5 175.68 406.1 174.66 408 173.14C409.19 172.18 410.27 171.06 411.18 169.83C411.49 169.41 410.79 169.01 410.49 169.43C409.15 171.25 407.39 172.93 405.3 173.84C404.18 174.32 402.92 174.54 401.72 174.27C400.45 173.98 399.28 173.17 398.26 172.39C397.22 171.61 396.34 170.64 395.62 169.56C395.34 169.13 394.64 169.53 394.93 169.96H394.91Z" fill="#BC674B"/>
<path d="M418.59 174.04C418.9 176.06 419.72 178.16 421.05 179.74C421.81 180.64 422.8 181.34 423.88 181.79C424.55 182.07 425.23 182.2 425.96 182.28C427.21 182.42 428.47 182.41 429.72 182.3C430.23 182.25 430.23 181.45 429.72 181.5C428.64 181.6 427.55 181.62 426.46 181.53C425.78 181.48 425.11 181.39 424.47 181.16C423.51 180.82 422.63 180.24 421.92 179.5C421.21 178.76 420.77 177.95 420.35 177.09C419.85 176.06 419.53 174.95 419.36 173.81C419.33 173.6 419.06 173.48 418.87 173.53C418.64 173.59 418.56 173.81 418.59 174.02V174.04Z" fill="#BC674B"/>
<path d="M377.92 191.13C377.92 191.13 369.84 199.76 374.64 208.53C379.44 217.3 389.64 223.72 397.41 220.97C400.15 220.16 402.77 215.49 402.77 215.49L399.52 204.99L377.92 191.13Z" fill="#BF312F"/>
<path d="M373.3 200.46C373.3 200.46 382.48 208.46 384.76 208.3C385.66 207.42 390.44 205.2 393.42 209.09C396.4 212.98 394.09 218.16 389.43 219.38C388.17 220.01 385.57 219.43 385.57 219.43C383.73 218.42 381.58 216.97 379.49 214.92C379.04 214.48 377.47 212.91 375.85 210.52C374.78 208.95 374.13 207.98 373.65 206.57C373.27 205.46 372.76 203.35 373.3 200.46Z" fill="#F05253"/>
<path d="M416.53 144.06C416.53 144.06 412.9 148.66 407.54 149.21C404.83 149.27 401.49 153.42 404.38 156.27C407.27 159.12 412.21 157.78 413.79 156.99C415.37 156.2 416.26 155.95 416.26 155.95C416.26 155.95 421.52 153.05 422.29 148.61C423.06 144.18 418.43 142.78 416.53 144.05V144.06Z" fill="#3E3E3D"/>
<path d="M298.01 226.51C298.01 226.51 290.57 251.44 296.43 265.89C302.29 280.35 308.99 286.22 314.41 291.54C319.83 296.86 336.86 309.31 362 304.24C387.14 299.17 405.79 274.61 405.79 274.61L318.99 224.03L298.01 226.51Z" fill="#62C18F"/>
<path d="M310.54 225.76C310.54 225.76 318.37 238.77 325.8 245.85C333.23 252.92 338.57 256.6 338.57 256.6L345.93 247.48L318.99 224.03L310.54 225.76Z" fill="#A56644"/>
<path d="M351.561 251.94L344.181 261.41C344.181 261.41 357.821 271.23 367.301 275.25C376.781 279.27 386.031 281.83 386.031 281.83L391.721 272.49L351.561 251.95V251.94Z" fill="#A56644"/>
<path d="M397.16 273.59L392.62 282.9L398.15 283.95L405.79 274.61L397.16 273.59Z" fill="#A56644"/>
<path d="M321.781 190.93C321.781 190.93 321.241 198.89 316.701 200.71C312.161 202.53 290.121 202.56 290.121 202.56C290.121 202.56 300.461 210.09 294.441 218.89C290.021 223.56 287.801 225.35 287.801 225.35C287.801 225.35 301.161 228.76 319.001 224.03C322.871 228.14 327.331 232.49 332.421 236.89C337.091 240.93 341.651 244.44 345.931 247.48C348.231 249.43 351.311 251.91 355.081 254.6C363.401 260.53 370.251 264.04 372.001 264.91C376.761 267.29 381.741 269.79 388.851 271.8C395.621 273.71 401.511 274.38 405.801 274.62C407.801 271.82 418.001 257.81 421.331 250.71C423.901 251.46 441.841 257.35 448.381 264.62C451.201 261.81 462.931 247.11 464.351 247.58C461.521 244.74 445.101 231.65 429.541 229.98C427.701 234.89 425.871 239.81 424.031 244.72C423.631 244.8 423.061 244.9 422.381 245C422.081 245.04 419.641 245.39 416.781 245.4C412.811 245.4 409.231 244.74 407.601 244.4C404.951 246.32 401.931 248.28 398.541 250.15C397.041 250.98 395.561 251.73 394.131 252.41L385.271 236.35C380.341 233.57 373.761 229.73 366.151 224.88C359.911 220.9 356.181 218.52 351.161 214.84C346.121 211.14 344.251 209.33 328.671 196.59C325.781 194.23 323.391 192.27 321.771 190.94L321.781 190.93Z" fill="#F2ABCC"/>
<path d="M348.97 331.02C348.26 326.68 351.31 322.66 349.07 319.35C346.22 313.55 338.6 313.26 334.86 318.85C331.45 323.74 332.25 331.78 333.29 336.46C336.05 354.33 357.98 346.85 348.97 331.02Z" fill="#3FACE1"/>
<path d="M408.79 180.42C408.63 180.79 407.29 184.02 409.06 187.03C410.04 188.69 411.5 189.48 412.15 189.78C412.8 190.1 413.71 190.44 414.84 190.55C417.63 190.83 419.74 189.52 420.45 189.03C421.81 191.83 423.56 195.77 425.17 200.65C427.95 209.04 429.34 213.23 427.79 216.91C425.33 222.76 417.12 226.79 411.09 224.68C407.2 223.32 405.1 219.69 403.61 217.1C400.6 211.88 399.51 204.99 399.51 204.99C389.7 205.32 381.44 201.33 378.82 194.92C378.45 194.03 377.05 190.26 378.46 186.08C380.1 181.22 384.68 178.33 388.48 177.45C389.57 177.2 390.98 177.02 401.08 178.9C404.29 179.5 406.94 180.04 408.77 180.42H408.79Z" fill="#3E3E3D"/>
<path d="M38.8694 185.261L21.1175 209.507C20.0376 210.981 20.3578 213.053 21.8328 214.133L28.6991 219.16C30.1741 220.24 32.2453 219.919 33.3253 218.444L51.0772 194.198C52.1571 192.724 51.8368 190.652 50.3618 189.572L43.4955 184.545C42.0205 183.465 39.9493 183.786 38.8694 185.261Z" fill="#535353"/>
<path d="M169.601 133.45C174.531 112.37 179.471 91.2899 184.401 70.2099C184.721 68.1899 185.581 61.2599 181.501 54.0499C177.311 46.6399 170.671 43.8299 168.801 43.1099C145.151 37.7699 121.511 32.4399 97.8605 27.0999C96.5406 26.6599 88.3006 24.0499 79.9306 28.7499C72.3806 32.9899 70.0405 40.1999 69.5805 41.7299L65.8405 57.0099C65.8405 57.0099 56.0606 54.7899 52.1806 65.4699C49.4706 72.6999 58.3205 77.5199 60.5805 78.4899L54.0506 105.13L169.611 133.45H169.601Z" fill="#FBC5B7"/>
<path d="M99.4401 27.4598C99.4401 27.4598 94.9302 49.0898 93.0302 55.0898C91.1402 61.0898 88.5201 68.7098 72.9601 64.6498C72.9101 62.2798 68.3301 57.9098 65.8301 57.0098C65.8301 57.0098 66.8302 48.0698 70.6702 38.8698C74.5102 29.6698 84.3601 26.3698 87.6901 26.1798C90.9301 25.4598 99.4401 27.4598 99.4401 27.4598Z" fill="#F8951D"/>
<path d="M111.931 30.2799C111.931 30.2799 118.011 13.2199 133.801 17.1699C133.551 13.2299 143.091 -5.34007 159.401 1.62993C175.711 8.59993 175.011 22.6299 171.971 27.6099C168.931 32.5899 165.261 39.9299 153.861 39.7399C142.861 37.4299 112.281 30.4099 112.281 30.4099L111.931 30.2799Z" fill="#F8951D"/>
<path d="M118.171 81.2201C112.911 77.5701 105.891 73.4901 100.031 70.7001C99.6707 66.2401 99.8306 59.3201 103.221 52.4201C105.651 47.4801 108.181 45.7001 109.011 45.1601C109.971 44.5301 113.271 42.5501 117.771 42.8501C122.621 43.1701 127.301 46.0401 129.691 50.6101C132.381 55.7401 130.991 60.7301 130.661 61.8201C130.381 63.2101 129.951 65.1701 129.271 67.4701C128.751 69.2301 128.001 71.7501 127.121 73.5101C126.311 75.1301 124.131 78.6001 118.181 81.2101L118.171 81.2201Z" fill="white"/>
<path d="M147.09 88.5698C141.65 89.1598 137.64 86.5698 136.53 85.7998C136.2 84.2798 135.49 81.9798 133.82 79.6598C133.01 78.5398 132.16 77.6598 131.4 76.9898C130.98 72.8198 130.96 65.9998 134.31 59.1398C136.76 54.1298 139.44 52.3098 140.1 51.8798C141.06 51.2498 144.36 49.2698 148.86 49.5698C153.98 49.9098 158.51 53.2598 160.78 57.3298C163.37 61.9698 162.65 66.7898 162.41 68.3998C162.23 69.5898 161.8 71.0898 160.93 74.0898C159.75 78.1498 159.17 80.1798 158.63 81.1798C156.57 85.0198 152.08 88.0398 147.09 88.5798V88.5698Z" fill="white"/>
<path d="M117.821 51.6899C117.821 51.6899 117.751 57.3199 112.251 57.7699C110.331 62.8999 108.911 67.1199 108.911 67.1199C108.911 67.1199 108.391 70.2999 113.071 72.1699C117.751 74.0399 120.351 71.7999 122.571 65.8699C124.791 59.9399 125.681 57.0299 121.681 53.1399C118.801 51.3899 117.821 51.6999 117.821 51.6999V51.6899Z" fill="#3E3E3D"/>
<path d="M144.08 58.1702C144.08 58.1702 144.59 63.7702 139.16 64.7902C137.78 70.0902 136.79 74.4302 136.79 74.4302C136.79 74.4302 136.6 77.6502 141.44 79.0302C146.28 80.4102 148.65 77.9102 150.24 71.7902C151.84 65.6702 152.43 62.6702 148.05 59.2102C145.01 57.7702 144.07 58.1702 144.07 58.1702H144.08Z" fill="#3E3E3D"/>
<path d="M115.02 89.5898C113.98 92.5698 116.45 95.2898 118.92 96.5498C121.53 97.8798 124.39 98.7498 127.25 99.3098C128.26 99.4998 128.69 97.9598 127.68 97.7598C125.17 97.2798 122.69 96.5398 120.37 95.4698C118.35 94.5398 115.67 92.6098 116.57 90.0098C116.91 89.0298 115.36 88.6098 115.02 89.5798V89.5898Z" fill="#EE9583"/>
<path d="M54.3802 104.73L38.6403 96.4802C38.6403 96.4802 26.6102 90.8802 20.1302 104C12.3602 115.54 8.28027 120.13 8.28027 120.13L27.5103 133.77L36.3502 122.32C36.3502 122.32 33.7102 134.16 39.8202 136.96L45.9303 139.76L54.3802 104.73Z" fill="#63CBE9"/>
<path d="M169.68 133.12C169.68 133.12 183.1 132.96 184.41 133.45C186.22 131.77 197.38 116.4 197.38 116.4L215.48 132C215.48 132 198.78 153.35 193.61 155.41C188.44 157.48 164.45 155.72 164.45 155.72L169.68 133.11V133.12Z" fill="#63CBE9"/>
<path d="M169.601 133.45C131.191 123.88 92.7909 114.3 54.3809 104.73L44.1309 147.22L160.021 175.14C163.211 161.24 166.401 147.35 169.591 133.45H169.601Z" fill="#63CBE9"/>
<path d="M152.83 206.49C155.23 196.04 157.631 185.59 160.031 175.14L44.1405 147.22L37.0505 176.62C33.5205 191.25 42.5205 205.97 57.1505 209.5L122.24 225.2C135.85 228.48 149.55 220.11 152.83 206.5V206.49Z" fill="#0184C1"/>
<path d="M136.5 86.6597C136.69 86.0497 136.85 84.9297 136.46 83.5297C136.33 83.0597 135.84 81.4997 133.37 78.8097C132.53 77.8997 131.3 76.6897 129.65 75.4297C128.83 78.1697 128.32 80.5097 127.99 82.2697C127.64 84.1597 127.53 85.1997 127.98 86.3897C128 86.4497 128.05 86.5597 128.11 86.6997C128.46 87.6197 129.11 88.4097 129.98 88.9397C130.02 88.9697 130.07 88.9897 130.12 89.0197C130.28 89.1097 130.44 89.1897 130.61 89.2497C130.63 89.2497 130.65 89.2697 130.68 89.2797C130.68 89.2797 130.7 89.2797 130.71 89.2797C130.71 89.2797 130.73 89.2797 130.74 89.2897C132.25 89.8597 133.88 89.5497 135.06 88.6297C135.33 88.4197 135.86 88.0297 136.24 87.3097C136.26 87.2797 136.4 86.9997 136.51 86.6597H136.5Z" fill="#EE9583"/>
<path d="M110.3 125.17C108.26 125.35 106.83 127.01 106.42 127.5C106.33 127.61 106.36 127.58 105.65 128.46C104.84 129.48 104.43 129.99 104.17 130.29C103.04 131.61 102.48 132.27 102.04 132.38C100.87 132.65 100.52 131.34 98.52 131.18C97.46 131.1 96.4399 131.37 95.9399 131.51C95.2199 131.71 94.67 131.95 94.38 132.08C91.94 133.24 90.6299 135.26 90.1199 136.19C89.7499 136.86 89.51 137.31 89.43 137.99C89.39 138.31 89.23 140.14 90.54 141.08C91.7 141.92 93.17 141.44 93.41 141.36C94.03 141.16 94.57 140.7 95.65 139.78C96.82 138.78 96.63 138.76 97.01 138.55C98.49 137.73 99.7099 139.07 102.07 138.85C102.97 138.76 103.72 138.4 105.22 137.67C107.15 136.73 108.43 135.69 109.44 134.89C110.44 134.1 111.4 133.23 112.34 132.09C113.27 130.96 113.81 130.3 114 129.24C114.07 128.84 114.35 127.3 113.35 126.17C112.29 124.97 110.6 125.13 110.32 125.15L110.3 125.17Z" fill="white"/>
<path d="M126.11 128.32C124.51 128.22 123.77 128.9 122.82 129.88C120.1 132.64 120.691 136.46 117.931 139C115.811 141.09 112.981 140.82 110.551 142.27C108.861 143.57 108.6 146.45 110.5 147.61C112.03 148.7 113.951 148.16 114.671 147.96C115.341 147.77 115.67 147.56 117.1 146.75C119.82 145.2 120.2 145.05 120.82 144.67C125.5 141.78 127.801 135.23 128.391 132.49C128.501 131.96 128.47 131.38 128.47 131.38C128.47 130.82 128.471 130.23 128.301 129.78C127.891 128.73 126.47 128.39 126.11 128.31V128.32Z" fill="white"/>
<path d="M8.30049 120.14C8.30049 120.14 4.26048 126.52 2.79048 127.62C1.32048 128.72 -1.34961 131.96 1.70039 137.77C4.75039 143.58 5.44046 147.29 9.27046 148.69C15.2305 150.86 23.2004 148.49 26.3704 142.53C28.2804 138.95 27.8105 135.31 27.5105 133.76C21.1005 129.22 14.7005 124.68 8.29048 120.14H8.30049Z" fill="#FBC5B7"/>
<path d="M197.26 116.71C197.26 116.71 194.88 109.85 197.92 108.03C200.96 106.2 210.71 101.85 216.14 103.41C223.89 105.64 225.83 116.38 223.3 123.28C221.39 128.5 217.05 131.14 215.48 132C209.41 126.9 203.33 121.81 197.26 116.71Z" fill="#FBC5B7"/>
<path d="M100.463 242.275L70.8233 247.224C69.0202 247.525 67.8027 249.231 68.1038 251.034L69.5054 259.428C69.8065 261.231 71.5122 262.448 73.3153 262.147L102.955 257.198C104.758 256.897 105.976 255.191 105.675 253.388L104.273 244.994C103.972 243.191 102.266 241.973 100.463 242.275Z" fill="#535353"/>
<path d="M250.151 118.95C250.151 118.95 245.181 116.53 239.371 112.08C239.361 112.08 239.401 112.1 239.371 112.08C239.001 111.83 237.731 110.94 235.931 109.55C227.791 103.26 227.831 101.24 223.691 98.8402C218.791 96.0002 213.241 95.6502 209.471 96.4002C204.791 97.3402 201.161 100.32 201.031 100.45C200.861 100.61 200.681 100.78 200.681 100.78C200.581 100.88 200.491 100.97 200.411 101.04C195.701 105.74 193.761 111.43 189.251 124.57C189.181 124.79 187.651 129.22 187.521 129.61C185.931 128.62 183.461 127.06 180.451 125.12C176.191 122.37 173.651 120.68 169.971 118.33C163.441 114.16 160.141 112.08 158.541 112.45C153.171 113.68 151.761 125.98 151.551 128.09C149.591 147.88 164.561 165.52 172.781 173.83C171.821 180.52 172.221 185.93 172.721 189.51C172.941 191.07 177.201 217.97 201.171 231.32C202.881 232.27 207.081 234.48 212.901 236.11C216.921 237.23 231.231 241.14 247.731 235.33C256.111 232.38 261.671 228.15 263.541 226.65C270.441 221.11 274.461 215 276.611 211.13C278.051 211.31 280.121 211.49 282.611 211.47C283.291 211.47 289.541 211.37 296.191 209.31C313.731 203.89 323.431 188.1 325.011 185.52C327.181 181.99 328.361 179.13 327.281 176.95C327.001 176.39 325.981 174.67 317.261 172.89C312.971 172.01 309.731 171.71 306.591 171.41C303.441 171.1 298.721 170.62 292.851 169.96C295.441 163 297.231 158.23 298.291 155.43C300.221 150.32 301.371 147.29 301.751 142.83C301.991 139.97 302.181 137.72 301.341 134.91C299.221 127.78 292.771 124.56 291.871 124.13C289.131 122.81 286.791 122.56 283.861 122.25C279.001 121.73 276.021 122.37 272.791 122.66C264.161 123.43 255.551 121.53 250.151 118.97V118.95Z" fill="#66BC46"/>
<path d="M221.311 117.88C221.311 117.88 219.561 112.81 217.461 111.96C215.361 111.12 212.661 117.7 212.661 117.7C212.661 117.7 201.681 119.18 197.531 127.76C193.381 136.33 188.331 147.63 189.711 154.8C191.091 161.97 196.101 168.56 201.691 170.29C207.281 172.03 217.071 176.22 225.201 167.73C233.331 159.23 234.311 158.19 234.311 158.19L242.281 167.89L239.701 174.78C239.701 174.78 241.891 185.3 254.331 190.02C266.771 194.74 278.181 186.29 280.381 181.46C282.581 176.63 288.711 160.48 288.741 157.03C288.741 156.91 288.741 156.82 288.741 156.8C288.621 149.52 285.311 145.39 282.231 142.97C284.121 140.01 282.881 136.5 280.801 135.66C278.751 134.84 274.841 138.79 274.841 138.79C275.991 134.99 277.101 130.07 275.321 128.92C273.541 127.78 270.371 131.29 263.851 134.6C258.241 137.44 250.531 141.59 244.531 138.83C239.101 136.33 236.151 129.59 233.571 123.66C230.421 116.43 230.171 111.66 227.761 111.28C225.511 110.93 223.051 114.68 221.331 117.88H221.311Z" fill="#8FC73E"/>
<path d="M197.671 142.18C197.671 142.18 215.471 153.61 221.361 160.53C222.911 159.7 237.391 138.7 223.621 128.52C209.861 118.35 198.531 135.14 197.671 142.18Z" fill="white"/>
<path d="M216.48 137.12C216.12 138.9 215.78 140.55 214.49 141.43C212.75 142.61 210.35 141.64 210 141.49C207.95 144.14 207.07 148.58 207.07 148.58C207.07 148.58 216.93 155.82 217.13 156.64C224.44 150.8 226.41 142.7 223.51 138.36C223.09 137.74 221.37 135.38 216.74 134.63C216.74 135.23 216.69 136.1 216.49 137.12H216.48Z" fill="#4C4C4C"/>
<path d="M277.211 172.48C277.211 172.48 256.281 169.41 247.301 170.76C246.681 169.11 249.541 143.77 266.611 145.13C283.671 146.49 281.181 166.6 277.221 172.47L277.211 172.48Z" fill="white"/>
<path d="M261.931 154.33C261.571 156.11 261.231 157.76 259.941 158.64C258.201 159.82 255.801 158.85 255.451 158.7C254.741 159.65 253.791 161.17 253.211 163.24C252.331 166.43 252.851 169.13 253.191 170.42C254.551 170.43 255.951 170.46 257.381 170.52C259.751 170.62 262.031 170.78 264.211 170.98C270.081 166.43 271.561 159.53 268.961 155.56C267.051 152.65 263.371 151.99 262.191 151.83C262.191 152.43 262.141 153.3 261.941 154.32L261.931 154.33Z" fill="#4C4C4C"/>
<path d="M224.961 161.1C224.961 161.1 227.901 154.51 234.521 155.49C241.141 156.48 247.231 160.95 244.811 168.06C241.371 168.01 229.221 163.79 224.961 161.1Z" fill="#FDC20F"/>
<path d="M227.721 162.57C225.951 166.6 224.761 170.11 223.951 172.79C222.361 178.09 222.331 180 223.211 181.69C224.251 183.68 226.161 184.58 226.741 184.85C226.951 184.95 230.401 186.51 233.581 185.05C234.321 184.71 236.331 183.62 239.961 173.86C240.901 171.33 241.601 169.18 242.071 167.64C237.291 165.95 232.501 164.27 227.721 162.58V162.57Z" fill="#F29120"/>
<path d="M228.84 163.62C232.68 165 236.52 166.39 240.37 167.77C239.4 170.92 238.38 173.48 237.56 175.36C236.06 178.79 235.41 179.55 234.5 180.06C232.49 181.2 229.92 180.73 228.26 179.84C227.67 179.52 226.48 178.89 225.76 177.49C224.54 175.11 225.77 172.62 225.94 172.3C226.91 169.4 227.87 166.51 228.84 163.61V163.62Z" fill="#B66E29"/>
<path d="M203.231 190.41L218.931 196.29C218.931 196.29 216.131 202.31 208.421 199.42C200.711 196.53 203.231 190.41 203.231 190.41Z" fill="#8FC73E"/>
<path d="M226.641 199.18L242.341 205.06C242.341 205.06 239.541 211.08 231.831 208.19C224.121 205.3 226.641 199.18 226.641 199.18Z" fill="#8FC73E"/>
<path d="M211.191 206.35L226.891 212.23C226.891 212.23 224.091 218.25 216.381 215.36C208.671 212.47 211.191 206.35 211.191 206.35Z" fill="#8FC73E"/>
<path d="M265.756 239.395L248.218 247.38C246.555 248.137 245.82 250.1 246.578 251.764L250.104 259.509C250.861 261.173 252.824 261.907 254.488 261.15L272.026 253.165C273.689 252.407 274.424 250.445 273.667 248.781L270.14 241.036C269.383 239.372 267.42 238.637 265.756 239.395Z" fill="#F29120"/>
<path d="M148.638 207.816L157.625 224.862C158.478 226.479 160.48 227.098 162.097 226.246L169.625 222.277C171.242 221.424 171.861 219.422 171.009 217.805L162.022 200.759C161.169 199.142 159.167 198.522 157.55 199.375L150.022 203.344C148.405 204.197 147.785 206.199 148.638 207.816Z" fill="#F29120"/>
</svg>
